<?xml version="1.0" encoding="utf-8"?>
<!-- Generator: Adobe Illustrator 27.0.0, SVG Export Plug-In . SVG Version: 6.00 Build 0)  -->
<svg version="1.1" id="Layer_1" xmlns="http://www.w3.org/2000/svg" xmlns:xlink="http://www.w3.org/1999/xlink" x="0px" y="0px"
	 viewBox="0 0 134.7 123.6" style="enable-background:new 0 0 134.7 123.6;" xml:space="preserve">
<style type="text/css">
	.st0{fill:#B9DBFF;stroke:#28255F;}
</style>
<g id="Group_7726" transform="translate(0.5 0.5)">
	<path id="Path_11593" class="st0" d="M114.8,86.3c19-19,18.9-49.8-0.1-68.8C105.6,8.4,93.3,3.3,80.4,3.3h-29
		C38.5,3.2,26.1,8.4,17.1,17.5c-2.1,2.1-4,4.4-5.7,6.9c-15.1,22-9.7,52,12.1,67.3c-2.8,6.9-6.7,13.2-11.7,18.7
		c-0.9,0.9-0.8,2.4,0.1,3.3c0.4,0.4,0.9,0.6,1.5,0.6c14.5,0,28.6-4.9,39.9-13.9h26.8C93.2,100.6,105.7,95.5,114.8,86.3"/>
</g>
</svg>
