<?xml version="1.0" encoding="utf-8"?>
<!-- Generator: Adobe Illustrator 27.0.0, SVG Export Plug-In . SVG Version: 6.00 Build 0)  -->
<svg version="1.1" id="Layer_1" xmlns="http://www.w3.org/2000/svg" xmlns:xlink="http://www.w3.org/1999/xlink" x="0px" y="0px"
	 viewBox="0 0 234 211" style="enable-background:new 0 0 234 211;" xml:space="preserve">
<style type="text/css">
	.st0{fill:#50A5FF;stroke:#28255F;}
</style>
<g id="Group_7716" transform="translate(0.5 0.5)">
	<path id="Path_11593" class="st0" d="M29.8,153.8C-3.8,120.1-3.8,65.4,30,31.8C46.1,15.6,68,6.6,90.9,6.5h51.5
		c22.8-0.1,44.7,9,60.8,25.2c3.8,3.7,7.2,7.8,10.1,12.2c26.7,39,17.1,92.2-21.5,119.4c4.9,12.2,11.9,23.4,20.7,33.2
		c1.5,1.7,1.4,4.3-0.3,5.8c-0.7,0.7-1.7,1-2.7,1.1c-25.7,0-50.7-8.7-70.9-24.7H91.2C68.2,179.2,46,170.2,29.8,153.8"/>
</g>
</svg>
