<?xml version="1.0" encoding="utf-8"?>
<!-- Generator: Adobe Illustrator 26.4.1, SVG Export Plug-In . SVG Version: 6.00 Build 0)  -->
<svg version="1.1" id="Layer_1" xmlns="http://www.w3.org/2000/svg" xmlns:xlink="http://www.w3.org/1999/xlink" x="0px" y="0px"
	 viewBox="0 0 131 20" style="enable-background:new 0 0 131 20;" xml:space="preserve">
<style type="text/css">
	.st0{fill:#333399;}
	.st1{fill:#E20177;}
	.st2{fill:#009DDC;}
	.st3{fill:#54B948;}
	.st4{fill:#1B4298;}
</style>
<g id="Logo_Organon" transform="translate(61.5 86.51)">
	<g id="Group_5345" transform="translate(26.663 3.16)">
		<path id="Path_10625" class="st0" d="M-60.9-79.9c0-0.9,0.2-1.8,0.5-2.7c0.3-0.8,0.8-1.4,1.4-2c0.6-0.6,1.3-1,2.1-1.3
			c0.9-0.3,1.8-0.4,2.7-0.4s1.8,0.1,2.7,0.4c1.6,0.5,2.9,1.7,3.5,3.3c0.3,0.9,0.5,1.8,0.5,2.7c0,0.9-0.2,1.8-0.5,2.7
			c-0.3,0.8-0.8,1.4-1.4,2c-0.6,0.5-1.3,1-2.1,1.2c-0.9,0.3-1.8,0.4-2.7,0.4s-1.8-0.1-2.7-0.4c-0.8-0.2-1.5-0.7-2.1-1.2
			c-0.6-0.6-1.1-1.2-1.4-2C-60.8-78.1-60.9-79-60.9-79.9z M-49.2-79.9c0-0.9-0.1-1.7-0.4-2.5c-0.2-0.7-0.6-1.3-1-1.8s-1-0.8-1.6-1
			s-1.3-0.3-2-0.3s-1.3,0.1-1.9,0.3c-0.6,0.2-1.1,0.6-1.6,1c-0.5,0.5-0.8,1.1-1,1.8c-0.5,1.7-0.5,3.4,0,5.1c0.2,0.7,0.6,1.3,1,1.8
			s1,0.8,1.6,1s1.3,0.3,1.9,0.3c0.7,0,1.3-0.1,2-0.3c0.6-0.2,1.1-0.6,1.6-1c0.5-0.5,0.8-1.1,1-1.8C-49.3-78.2-49.2-79-49.2-79.9z"/>
		<path id="Path_10626" class="st0" d="M-43.2-81.4c0-0.8,0-1.5,0-2.3s-0.1-1.5-0.1-2.3c0.3,0,0.7,0,1,0.1c0.3,0,0.7,0,1,0
			s0.7,0,1,0s0.7,0,1,0c0.5,0,1,0.1,1.4,0.2s0.8,0.2,1.2,0.5c0.3,0.2,0.6,0.5,0.8,0.8c0.2,0.4,0.3,0.9,0.3,1.3c0,0.5-0.1,1-0.4,1.5
			c-0.2,0.4-0.6,0.7-1,1s-0.8,0.5-1.2,0.6s-0.7,0.2-1.1,0.3c0.2,0.2,0.3,0.4,0.6,0.8s0.5,0.7,0.9,1.1c0.3,0.4,0.6,0.8,1,1.2
			s0.7,0.8,1,1.2s0.6,0.7,0.9,1.1c0.3,0.3,0.5,0.6,0.7,0.7c-0.2,0-0.4,0-0.5,0h-1c-0.2,0-0.3,0-0.5,0c-0.2-0.2-0.4-0.6-0.8-1.1
			s-0.8-1-1.2-1.6s-0.9-1.1-1.4-1.7s-0.9-1-1.3-1.4h-0.7v1.3c0,0.8,0,1.5,0,2.3s0.1,1.5,0.1,2.2c-0.6,0-1.2,0-1.8,0
			c0-0.7,0.1-1.5,0.1-2.2s0-1.5,0-2.3V-81.4z M-41.7-80.4c0.2,0,0.4,0.1,0.5,0.1c0.2,0,0.4,0,0.7,0c0.4,0,0.8,0,1.1-0.1
			c0.4-0.1,0.8-0.2,1.1-0.4c0.3-0.2,0.6-0.5,0.8-0.8c0.2-0.4,0.3-0.9,0.3-1.3s-0.1-0.8-0.3-1.1c-0.2-0.3-0.4-0.5-0.7-0.7
			s-0.6-0.3-0.9-0.4c-0.3-0.1-0.6-0.1-1-0.1c-0.3,0-0.7,0-1,0s-0.5,0-0.7,0.1c0,0.7-0.1,1.3-0.1,1.9s0,1.3,0,1.9L-41.7-80.4z"/>
		<path id="Path_10627" class="st0" d="M-20.8-84.5c-0.3-0.2-0.6-0.4-0.9-0.6c-0.4-0.2-0.7-0.3-1.1-0.4s-0.8-0.2-1.3-0.2
			c-0.7,0-1.4,0.1-2.1,0.3c-0.6,0.2-1.2,0.6-1.7,1c-0.5,0.5-0.9,1.1-1.1,1.8c-0.3,0.8-0.4,1.7-0.4,2.5s0.1,1.6,0.3,2.3
			c0.2,0.6,0.6,1.2,1,1.8c0.5,0.5,1,0.9,1.7,1.1c0.7,0.3,1.5,0.4,2.2,0.4c0.3,0,0.5,0,0.8,0s0.5-0.1,0.8-0.1s0.5-0.1,0.7-0.2
			s0.4-0.1,0.6-0.2c0-0.3,0-0.7,0-1.1V-77c0-0.4,0-0.8,0-1.3c0-0.4,0-0.8-0.1-1.2c0.3,0.1,0.6,0.1,0.9,0.1c0.1,0,0.3,0,0.4,0
			s0.3,0,0.4-0.1c0,0.3,0,0.7-0.1,1.3c0,0.6,0,1.3,0,2.3v1.4c-0.3,0.1-0.6,0.2-1,0.3c-0.4,0.1-0.8,0.2-1.2,0.2s-0.9,0.1-1.3,0.2
			s-0.8,0.1-1.1,0.1c-1,0-1.9-0.1-2.9-0.4c-0.8-0.2-1.6-0.6-2.2-1.2c-0.6-0.5-1.1-1.2-1.4-2c-0.3-0.9-0.5-1.8-0.5-2.8
			c0-0.9,0.2-1.8,0.5-2.7c0.3-0.8,0.8-1.4,1.4-2s1.4-1,2.2-1.3c0.9-0.3,1.9-0.4,2.9-0.4c0.5,0,1.1,0,1.6,0.1
			c0.4,0.1,0.8,0.1,1.3,0.2c0.3,0.1,0.6,0.2,1,0.3c0.2,0.1,0.5,0.2,0.7,0.3c-0.1,0.2-0.2,0.4-0.3,0.6c-0.1,0.2-0.1,0.5-0.2,0.7h-0.2
			C-20.4-84-20.6-84.3-20.8-84.5z"/>
		<path id="Path_10628" class="st0" d="M-4.7-73.8c-0.2,0-0.3,0-0.5,0h-1c-0.2,0-0.3,0-0.5,0c-0.1-0.3-0.2-0.6-0.3-1
			s-0.3-0.8-0.5-1.2s-0.3-0.8-0.5-1.3s-0.3-0.8-0.5-1.2c-0.4,0-0.8,0-1.2,0H-12c-0.3,0-0.7,0-1.1,0c-0.4,0.9-0.7,1.8-1,2.6
			c-0.3,0.8-0.5,1.5-0.7,2.1c-0.4,0-0.9,0-1.3,0c1-2.1,1.9-4.1,2.8-6.2s1.8-4.1,2.8-6.2h0.3c0.3,0.7,0.6,1.4,0.9,2.2
			c0.3,0.8,0.7,1.6,1,2.4s0.7,1.6,1,2.4s0.7,1.5,1,2.3c0.3,0.7,0.6,1.3,0.8,1.8C-5-74.5-4.8-74.1-4.7-73.8z M-12.6-79.3
			c0.3,0,0.6,0,1,0c0.3,0,0.7,0,1,0h1c0.3,0,0.7,0,1,0l-2-4.5L-12.6-79.3z"/>
		<path id="Path_10629" class="st0" d="M4.9-78.4c-1.6-1.7-3.1-3.3-4.7-4.9c0,0.3,0,0.8,0,1.3c0,0.6,0,1.3,0,2.3v0.9
			c0,0.4,0,0.8,0,1.2c0,0.4,0,0.8,0,1.2c0,0.4,0,0.8,0,1.2c0,0.3,0,0.7,0,0.9c0,0.2,0,0.4,0,0.5c-0.2,0-0.4,0-0.6,0s-0.4,0-0.7,0
			c0-0.2,0.1-0.4,0.1-0.7c0-0.3,0.1-0.7,0.1-1.1s0.1-0.9,0.1-1.4s0.1-1,0.1-1.6c0-0.5,0-1,0-1.5s0-0.9,0-1.3v-2.9c0-0.8,0-1.4,0-1.8
			h0.3c0.7,0.8,1.5,1.6,2.3,2.5s1.6,1.8,2.5,2.6c0.8,0.9,1.6,1.7,2.3,2.5s1.4,1.4,1.9,2v-2.4c0-1.3,0-2.4,0-3.6s0.1-2.5,0-3.5
			c0.2,0,0.4,0.1,0.6,0.1s0.4,0,0.6-0.1c0,0.2-0.1,0.7-0.1,1.2s-0.1,1.1-0.1,1.7s0,1.1-0.1,1.6s0,1,0,1.4v2.3c0,0.4,0,0.9,0,1.3
			s0,0.8,0,1.3v1.6H9.3C7.9-75.2,6.5-76.8,4.9-78.4z"/>
		<path id="Path_10630" class="st0" d="M13.9-79.9c0-0.9,0.2-1.8,0.5-2.7c0.3-0.8,0.8-1.4,1.4-2c0.6-0.6,1.3-1,2.1-1.3
			c0.9-0.3,1.8-0.4,2.7-0.4c0.9,0,1.8,0.1,2.7,0.4c1.6,0.5,2.9,1.7,3.5,3.3c0.3,0.9,0.5,1.8,0.5,2.7c0,0.9-0.2,1.8-0.5,2.7
			c-0.3,0.8-0.8,1.4-1.4,2c-0.6,0.5-1.3,1-2.1,1.2c-0.9,0.3-1.8,0.4-2.7,0.4c-0.9,0-1.8-0.1-2.7-0.4c-1.6-0.5-2.9-1.7-3.5-3.2
			C14.1-78.1,13.9-79,13.9-79.9z M25.6-79.9c0-0.9-0.1-1.7-0.4-2.5c-0.2-0.7-0.6-1.3-1-1.8s-1-0.8-1.6-1s-1.3-0.3-2-0.3
			s-1.3,0.1-1.9,0.3c-0.6,0.2-1.1,0.6-1.6,1c-0.5,0.5-0.8,1.1-1,1.8c-0.5,1.7-0.5,3.4,0,5.1c0.2,0.7,0.6,1.3,1,1.8s1,0.8,1.6,1
			c1.3,0.5,2.6,0.5,3.9,0c0.6-0.2,1.1-0.6,1.6-1c0.5-0.5,0.8-1.1,1-1.8C25.5-78.2,25.6-79,25.6-79.9z"/>
		<path id="Path_10631" class="st0" d="M37.3-78.4c-1.6-1.7-3.1-3.3-4.7-4.9c0,0.3,0,0.8,0,1.3c0,0.6,0,1.3,0,2.3v0.9
			c0,0.4,0,0.8,0,1.2c0,0.4,0,0.8,0,1.2c0,0.4,0,0.8,0,1.2c0,0.3,0,0.7,0,0.9c0,0.2,0,0.4,0,0.5c-0.2,0-0.4,0-0.6,0
			c-0.2,0-0.4,0-0.7,0c0-0.2,0.1-0.4,0.1-0.7c0-0.3,0.1-0.7,0.1-1.1s0.1-0.9,0.1-1.4s0.1-1,0.1-1.6c0-0.5,0-1,0-1.5s0-0.9,0-1.3
			v-2.9c0-0.8,0-1.4,0-1.8H32c0.7,0.8,1.5,1.6,2.3,2.5s1.6,1.8,2.5,2.6c0.8,0.9,1.6,1.7,2.3,2.5s1.4,1.4,1.9,2v-2.4
			c0-1.3,0-2.4,0-3.6s0.1-2.5,0.1-3.5c0.2,0.1,0.4,0.1,0.6,0.1c0.2,0,0.4,0,0.6-0.1c0,0.2-0.1,0.7-0.1,1.2s-0.1,1.1-0.1,1.7
			S42-82,41.9-81.5s0,1,0,1.4v2.3c0,0.4,0,0.9,0,1.3s0,0.8,0,1.3v1.6h-0.3C40.3-75.2,38.9-76.8,37.3-78.4z"/>
	</g>
	<g id="Group_5346">
		<path id="Path_10632" class="st1" d="M-43.5-78.3h-4.8c-0.6,0-1-0.5-1-1l0,0c0-0.6,0.5-1,1-1h4.8c0.6,0,1,0.5,1,1l0,0
			C-42.4-78.8-42.9-78.3-43.5-78.3C-43.4-78.3-43.5-78.3-43.5-78.3z"/>
		<path id="Path_10633" class="st1" d="M-46.5-73.4v-2.9c0-0.6,0.5-1,1-1l0,0c0.6,0,1,0.5,1,1v2.9c0,0.6-0.5,1-1,1l0,0
			C-46-72.3-46.5-72.8-46.5-73.4L-46.5-73.4z"/>
		<path id="Path_10634" class="st1" d="M-49.5-82.3v-2.9c0-0.6,0.5-1,1-1l0,0c0.6,0,1,0.5,1,1v2.9c0,0.6-0.5,1-1,1l0,0
			C-49.1-81.3-49.5-81.7-49.5-82.3z"/>
		<path id="Path_10635" class="st1" d="M-49.5-67.9v-4.7c0-0.6,0.5-1,1-1l0,0c0.6,0,1,0.5,1,1v4.7c0,0.6-0.5,1-1,1l0,0
			C-49-66.8-49.5-67.2-49.5-67.9C-49.5-67.8-49.5-67.8-49.5-67.9z"/>
		<path id="Path_10636" class="st1" d="M-52.6-78.7v-2.9c0-0.6,0.5-1,1-1l0,0c0.6,0,1,0.5,1,1v2.9c0,0.6-0.5,1-1,1l0,0
			C-52.1-77.7-52.6-78.1-52.6-78.7L-52.6-78.7z"/>
		<path id="Path_10637" class="st1" d="M-52.6-70.7v-1.5c0-0.6,0.5-1,1-1l0,0c0.6,0,1,0.5,1,1v1.5c0,0.6-0.5,1-1,1l0,0
			C-52.1-69.7-52.6-70.1-52.6-70.7L-52.6-70.7z"/>
		<path id="Path_10638" class="st1" d="M-42.4-77.3h2.2c0.6,0,1,0.5,1,1l0,0c0,0.6-0.5,1-1,1h-2.2c-0.6,0-1-0.5-1-1l0,0
			C-43.4-76.9-42.9-77.3-42.4-77.3z"/>
		<path id="Path_10639" class="st1" d="M-59.9-77.3h2.2c0.6,0,1,0.5,1,1l0,0c0,0.6-0.5,1-1,1h-2.2c-0.6,0-1-0.5-1-1l0,0
			C-60.9-76.9-60.4-77.3-59.9-77.3z"/>
		<path id="Path_10640" class="st1" d="M-55.6-73.4v-2.9c0-0.6,0.5-1,1-1l0,0c0.6,0,1,0.5,1,1v2.9c0,0.6-0.5,1-1,1l0,0
			C-55.1-72.3-55.6-72.8-55.6-73.4L-55.6-73.4z"/>
		<ellipse id="Ellipse_108" class="st1" cx="-49.9" cy="-75.7" rx="1.4" ry="1.4"/>
		<ellipse id="Ellipse_109" class="st2" cx="-40.5" cy="-79.3" rx="1" ry="1"/>
		<ellipse id="Ellipse_110" class="st3" cx="-51.5" cy="-67.7" rx="1" ry="1"/>
		<ellipse id="Ellipse_111" class="st4" cx="-54.6" cy="-79.3" rx="1" ry="1"/>
	</g>
</g>
</svg>
