<?xml version="1.0" encoding="utf-8"?>
<!-- Generator: Adobe Illustrator 26.4.1, SVG Export Plug-In . SVG Version: 6.00 Build 0)  -->
<svg version="1.1" id="Layer_1" xmlns="http://www.w3.org/2000/svg" xmlns:xlink="http://www.w3.org/1999/xlink" x="0px" y="0px"
	 viewBox="0 0 161 55" style="enable-background:new 0 0 161 55;" xml:space="preserve">
<style type="text/css">
	.st0{fill:#00ACD4;}
</style>
<g>
	<path id="Path_10641" class="st0" d="M50.4,24.4H48V6.7h4.2c4.5,0,6.9,2.2,6.9,6.2c0.2,3.3-2.4,6.1-5.7,6.2c-0.2,0-0.3,0-0.5,0
		c-0.8,0-1.7-0.2-2.4-0.5L50.4,24.4L50.4,24.4z M50.4,16.4c0.7,0.3,1.5,0.5,2.3,0.5c2.1,0,3.9-1.7,3.9-3.8c0-0.1,0-0.2,0-0.3
		c0-2.5-1.3-4-4-4h-2.2V16.4z"/>
	<rect id="Rectangle_1289" x="61.4" y="0.3" class="st0" width="2.4" height="18.5"/>
	<path id="Path_10642" class="st0" d="M76.8,18.1c-0.6,0.6-1.5,0.9-2.3,1c-1.1,0-1.6-0.4-1.8-1.2c-0.9,0.8-2.1,1.2-3.3,1.2
		c-1.6,0-3-1.3-3-2.9v-0.1c0-2.4,2.2-3.1,4.2-3.9l2.1-0.8v-0.7c0-1.5-0.7-2.1-2.2-2.1c-1.5,0.1-2.9,0.8-3.9,2V8.1
		c1-1.1,2.5-1.8,4-1.7c2.5,0,4.4,1.2,4.4,4v6.3c0,0.5,0.2,0.6,0.5,0.6c0.5-0.1,0.9-0.3,1.3-0.7L76.8,18.1z M72.7,12.8
		c-2.1,0.7-3.9,1.4-3.9,2.8c0,0.9,0.7,1.7,1.6,1.7h0.1c0.8,0,1.6-0.4,2.1-1v-3.5H72.7z"/>
	<path id="Path_10643" class="st0" d="M81.5,8.3L81.5,8.3c0.9-1.1,2.3-1.8,3.7-1.8c2.3,0,4.2,1.6,4.2,4.9v7.5H87v-7.5
		c0-1.8-0.9-3-2.4-3c-1.1,0-1.9,0.5-3,1.8v8.7h-2.4V6.7h2.4L81.5,8.3L81.5,8.3z"/>
	<path id="Path_10644" class="st0" d="M104.8,12.6c0,3.6-2.9,6.5-6.5,6.5s-6.5-2.9-6.5-6.5c0-3.4,2.8-6.2,6.2-6.2c0.1,0,0.1,0,0.2,0
		C102,6.4,104.8,9,104.8,12.6 M94.3,12.6c0,2.6,1.6,4.3,3.9,4.3c2.2,0.1,4-1.5,4.2-3.6c0-0.2,0-0.4,0-0.6c0.1-2.2-1.7-4-3.9-4.1
		c-0.1,0-0.2,0-0.3,0c-2.1,0-3.9,1.7-3.9,3.8C94.2,12.5,94.3,12.5,94.3,12.6"/>
	<path id="Path_10645" class="st0" d="M109.7,8.3L109.7,8.3c0.9-1.1,2.3-1.8,3.7-1.8c2.3,0,4.2,1.6,4.2,4.9v7.5h-2.4v-7.5
		c0-1.8-0.9-3-2.4-3c-1.1,0-1.9,0.5-3,1.8v8.7h-2.4V6.7h2.4L109.7,8.3z"/>
	<path id="Path_10646" class="st0" d="M17.3,18.9H16L1.6,2.4V19H0.2V0h1.3l14.4,16.6V0h1.5L17.3,18.9z"/>
	<path id="Path_10647" class="st0" d="M21.1,12.2c-0.3,2.7,1.6,5.3,4.3,5.6c0.2,0,0.4,0,0.6,0c1.7,0,3.4-0.7,4.6-1.9v1.5
		c-1.4,1.1-3.1,1.7-4.8,1.7c-3.6,0-6.2-2.8-6.2-6.6c0-3.7,2.4-6.3,5.7-6.3c2.7,0,5.5,1.9,5.5,6H21.1z M29.3,11.2
		c-0.5-2.4-1.8-3.6-4-3.6c-2.1,0-3.9,1.6-4.1,3.6H29.3z"/>
	<path id="Path_10648" class="st0" d="M34.1,18.9h-1.7l5.7-6.4l-5.7-6.1h1.7l4.9,5.2l4.9-5.2h1.7l-5.7,6.1l5.7,6.4h-1.7L39,13.5
		L34.1,18.9z"/>
	<path id="Path_10649" class="st0" d="M119.4,6.6c-1,0-1.8-0.8-1.8-1.8s0.8-1.8,1.8-1.8s1.8,0.8,1.8,1.8
		C121.2,5.9,120.4,6.6,119.4,6.6L119.4,6.6 M119.4,3.4c-0.8,0-1.5,0.7-1.5,1.5s0.7,1.5,1.5,1.5s1.5-0.7,1.5-1.5l0,0
		C120.9,4.1,120.2,3.4,119.4,3.4L119.4,3.4 M118.6,4h0.8c0.5,0,0.6,0.3,0.6,0.5c0,0.3-0.2,0.5-0.5,0.5l0,0l0,0
		c0.2,0.1,0.3,0.2,0.4,0.5l0.2,0.4h-0.4l-0.2-0.3c-0.2-0.4-0.3-0.5-0.6-0.5h-0.2v0.8h-0.3L118.6,4z M119.4,4.8
		c0.2,0,0.4-0.1,0.4-0.3c0-0.2-0.1-0.3-0.3-0.3H119v0.6C119,4.8,119.4,4.8,119.4,4.8z"/>
</g>
<g>
	<path id="Path_10650" d="M2.8,38.1c-0.5-0.5-0.9-0.9-1.2-1.5c-2.4-3.6-1.9-8.4,1.2-11.4h0.7c-1.8,1.7-2.7,4-2.8,6.4
		c0,1.6,0.4,3.2,1.2,4.5c0.4,0.7,0.9,1.4,1.5,1.9L2.8,38.1L2.8,38.1z"/>
	<path id="Path_10651" d="M4.3,31.5c-0.2,1.4,0.7,2.7,2.1,2.9c0.1,0,0.2,0,0.4,0c0.9,0,1.7-0.4,2.4-1v0.8C8.4,34.7,7.5,35,6.7,35
		c-1.7,0-3.2-1.4-3.2-3.1c0-0.1,0-0.1,0-0.2c-0.1-1.6,1.1-3.1,2.8-3.2h0.1c1.1,0,2.1,0.6,2.5,1.6c0.2,0.4,0.3,0.9,0.3,1.4L4.3,31.5z
		 M8.4,30.9c-0.1-0.4-0.2-0.7-0.4-1C7.7,29.3,7,29,6.4,29c-1.1,0-2,0.8-2.1,1.9H8.4z"/>
	<path id="Path_10652" d="M12.1,28.6h1.8v0.6h-1.8V33c0,0.6,0,0.7,0.1,0.9c0.2,0.3,0.5,0.4,0.8,0.4c0.4,0,0.8-0.1,1.1-0.3v0.6
		c-0.4,0.2-0.9,0.3-1.3,0.3c-0.5,0-1.1-0.3-1.3-0.8c-0.1-0.4-0.2-0.8-0.1-1.2V29H9.7v-0.6h1.7v-1.5l0.5-0.6h0.2L12.1,28.6z"/>
	<path id="Path_10653" d="M21.4,31.7c0,1.8-1.5,3.2-3.3,3.1c-1.8,0-3.2-1.5-3.1-3.3c0-1.7,1.5-3.1,3.2-3.1s3.2,1.4,3.2,3.1
		C21.4,31.6,21.4,31.7,21.4,31.7 M15.7,31.7c0.1,1.4,1.3,2.4,2.6,2.3c1.4-0.1,2.4-1.3,2.3-2.6c-0.1-1.3-1.2-2.3-2.5-2.3
		c-1.4,0-2.5,1.1-2.5,2.5C15.7,31.6,15.7,31.7,15.7,31.7"/>
	<path id="Path_10654" d="M23.8,29.7c0.4-0.7,1.2-1.2,2.1-1.2c0.7,0,1.4,0.3,1.9,0.9c0.4,0.6,0.6,1.4,0.5,2.1v3.4h-0.7v-3.4
		c0.1-0.6-0.1-1.2-0.4-1.7s-0.8-0.7-1.4-0.7s-1.1,0.3-1.5,0.7c-0.2,0.2-0.3,0.4-0.4,0.7v4.4h-0.7v-6.3h0.7L23.8,29.7z"/>
	<path id="Path_10655" d="M36.3,31.7c0,1.8-1.5,3.2-3.3,3.1c-1.8,0-3.2-1.5-3.1-3.3c0-1.7,1.5-3.1,3.2-3.1c1.7,0,3.2,1.4,3.2,3.1
		C36.3,31.6,36.3,31.7,36.3,31.7 M30.6,31.7c0.1,1.4,1.3,2.4,2.6,2.3c1.4-0.1,2.4-1.3,2.3-2.6c-0.1-1.3-1.2-2.3-2.5-2.3
		c-1.4,0-2.5,1.1-2.5,2.5C30.6,31.6,30.6,31.7,30.6,31.7"/>
	<path id="Path_10656" d="M42.8,29.1h-1.4c0.5,0.4,0.8,1,0.9,1.7c0,1-0.8,1.9-1.8,2.1c-1.2,0.3-1.4,0.4-1.6,0.5
		c-0.1,0.1-0.2,0.3-0.2,0.4c0,0.6,1,0.6,1.5,0.7c0.6,0,1.3,0.1,1.8,0.4c0.5,0.3,0.8,0.8,0.8,1.3c0,1.1-1,1.8-2.8,1.8
		c-2.8,0-2.8-1.5-2.8-1.7c0-0.4,0.3-1.3,1.8-1.5c-0.9-0.2-1-0.6-1-0.9c0-0.6,0.5-0.8,1.3-1c-1.2-0.3-1.9-1.5-1.6-2.7
		c0.1-0.6,0.5-1.1,1.1-1.4s1.2-0.4,1.8-0.3h2.2V29.1z M40.1,35.2c-0.6,0-1.1,0-1.7,0.3c-0.4,0.1-0.6,0.5-0.6,0.9
		c0,1.2,1.8,1.2,2.2,1.2c1.5,0,2.1-0.6,2.1-1.2C42.1,35.2,40.6,35.2,40.1,35.2 M38.2,30.8c0,0.9,0.7,1.7,1.7,1.7
		c0.9,0,1.7-0.7,1.7-1.7c0-0.9-0.7-1.7-1.7-1.7l0,0C38.9,29.1,38.2,29.9,38.2,30.8"/>
	<path id="Path_10657" d="M44.4,31.5c-0.2,1.4,0.7,2.7,2.1,2.9c0.1,0,0.2,0,0.4,0c0.9,0,1.7-0.4,2.4-1v0.8c-0.7,0.6-1.5,0.9-2.4,0.8
		c-1.7,0-3.2-1.4-3.2-3.1c0-0.1,0-0.1,0-0.2c-0.1-1.6,1.1-3.1,2.8-3.2h0.1c1.1,0,2.1,0.6,2.5,1.6c0.2,0.4,0.3,0.9,0.3,1.4L44.4,31.5
		z M48.5,30.9c-0.1-0.4-0.2-0.7-0.4-1c-0.3-0.6-1-0.9-1.6-0.9c-1.1,0-2,0.8-2.1,1.9H48.5z"/>
	<path id="Path_10658" d="M54.3,29.7c-0.5-0.4-1.1-0.6-1.7-0.6c-0.7-0.1-1.3,0.4-1.4,1.1l0,0c0,0.7,0.9,1.1,1.5,1.3
		c0.6,0.2,1.8,0.6,1.8,1.9c-0.1,1-1,1.8-2,1.7c0,0,0,0-0.1,0c-0.7,0-1.3-0.2-1.9-0.6v-0.7c0.6,0.4,1.3,0.6,2,0.6
		c0.9,0,1.3-0.5,1.3-1.1c0-0.8-0.7-1-1.7-1.4c-0.4-0.2-1.5-0.6-1.5-1.7c0.1-1,1-1.8,2-1.7c0,0,0,0,0.1,0c0.6,0,1.2,0.2,1.7,0.5
		L54.3,29.7z"/>
	<path id="Path_10659" d="M57.7,28.6h1.8v0.6h-1.8V33c0,0.6,0,0.7,0.1,0.9c0.2,0.3,0.5,0.4,0.8,0.4c0.4,0,0.8-0.1,1.1-0.3v0.6
		c-0.4,0.2-0.9,0.3-1.3,0.3c-0.5,0-1.1-0.3-1.3-0.8C57,33.8,56.9,33.4,57,33v-3.9h-1.7v-0.6H57V27l0.5-0.6h0.2V28.6z"/>
	<path id="Path_10660" d="M65.1,29.8c-0.3-0.4-0.8-0.6-1.2-0.7c-0.7,0-1.5,0.9-2,1.8v4h-0.7v-6.3h0.7v1.7c0.3-0.4,1.2-1.8,2.2-1.8
		c0.5,0.1,1.1,0.3,1.4,0.7L65.1,29.8z"/>
	<path id="Path_10661" d="M66.9,31.5c-0.2,1.4,0.7,2.7,2.1,2.9c0.1,0,0.2,0,0.4,0c0.9,0,1.7-0.4,2.4-1v0.8c-0.7,0.6-1.5,0.9-2.4,0.8
		c-1.7,0-3.2-1.4-3.2-3.1c0-0.1,0-0.1,0-0.2c-0.1-1.6,1.1-3.1,2.8-3.2h0.1c1.1,0,2.1,0.6,2.5,1.6c0.2,0.4,0.3,0.9,0.3,1.4L66.9,31.5
		z M71.1,30.9c-0.1-0.4-0.2-0.7-0.4-1c-0.3-0.6-1-0.9-1.6-0.9c-1.1,0-2,0.8-2.1,1.9H71.1z"/>
	<rect id="Rectangle_1290" x="73.6" y="25.3" width="0.7" height="9.6"/>
	<path id="Path_10662" d="M81.1,26.5h-0.7v-1.2h0.7V26.5z M81.1,34.9h-0.7v-6.3h0.7V34.9z"/>
	<path id="Path_10663" d="M83.8,29.7c0.4-0.8,1.2-1.2,2.1-1.2s1.8,0.6,2,1.5c0.4-0.9,1.2-1.5,2.2-1.5c0.7,0,1.4,0.3,1.8,1
		c0.3,0.6,0.5,1.4,0.4,2.1V35h-0.7v-3.3c0-0.6-0.1-1.1-0.3-1.7c-0.3-0.5-0.8-0.8-1.3-0.8c-0.9,0.1-1.6,0.7-1.9,1.5V35h-0.7v-3.2
		c0-1.2-0.2-1.6-0.4-1.9c-0.3-0.4-0.8-0.7-1.3-0.7c-0.8,0.1-1.6,0.6-1.9,1.4V35h-0.7v-6.3h0.7L83.8,29.7z"/>
	<path id="Path_10664" d="M95,28.9c0.6-0.3,1.3-0.5,1.9-0.5c1.7,0,3.1,1.4,3.1,3.1c0,0.1,0,0.1,0,0.2c0.1,1.8-1.3,3.2-3.1,3.3h-0.1
		c-0.7,0-1.3-0.2-1.9-0.5v3.6h-0.7v-9.5H95V28.9z M95,33.9c0.5,0.3,1.1,0.5,1.8,0.5c1.3,0,2.5-1,2.5-2.3c0-0.1,0-0.2,0-0.3
		c0.1-1.4-1-2.6-2.4-2.7c-0.1,0-0.1,0-0.2,0c-0.6,0-1.2,0.2-1.7,0.5C95,29.6,95,33.9,95,33.9z"/>
	<rect id="Rectangle_1291" x="101.8" y="25.3" width="0.7" height="9.6"/>
	<path id="Path_10665" d="M109.4,34.3c-0.4,0.3-0.8,0.6-1.3,0.7c-0.4,0-0.4-0.3-0.5-0.8c-0.5,0.5-1.2,0.8-2,0.8
		c-0.9,0-1.7-0.7-1.7-1.6l0,0c0-2.1,2.8-2.3,3.7-2.3v-0.8c0-0.7-0.3-1.2-1.4-1.2c-0.7,0-1.4,0.3-1.9,0.8v-0.7c0.6-0.4,1.3-0.6,2-0.7
		c0.6,0,1.2,0.2,1.6,0.6c0.3,0.4,0.5,0.9,0.4,1.5v3.2c0,0.2,0,0.5,0,0.6l0.1,0.1c0.3-0.1,0.6-0.3,0.9-0.6L109.4,34.3z M107.7,31.6
		c-0.6,0-1.2,0.1-1.7,0.3c-0.7,0.2-1.2,0.8-1.3,1.5c0,0.7,0.8,1,1.2,1c0.7,0,1.3-0.3,1.8-0.8V31.6z"/>
	<path id="Path_10666" d="M111.4,29.7c0.4-0.7,1.2-1.2,2.1-1.2c0.7,0,1.4,0.3,1.9,0.9c0.4,0.6,0.6,1.4,0.5,2.1v3.4h-0.7v-3.4
		c0.1-0.6-0.1-1.2-0.4-1.7s-0.8-0.7-1.4-0.7s-1.1,0.3-1.5,0.7c-0.2,0.2-0.3,0.4-0.4,0.7v4.4h-0.7v-6.3h0.7L111.4,29.7z"/>
	<path id="Path_10667" d="M119,28.6h1.8v0.6H119V33c0,0.6,0,0.7,0.1,0.9c0.2,0.3,0.5,0.4,0.8,0.4c0.4,0,0.8-0.1,1.1-0.3v0.6
		c-0.4,0.2-0.9,0.3-1.3,0.3c-0.5,0-1.1-0.3-1.3-0.8c-0.1-0.4-0.2-0.8-0.1-1.2V29h-1.7v-0.6h1.7v-1.5l0.5-0.6h0.2
		C119,26.3,119,28.6,119,28.6z"/>
	<path id="Path_10668" d="M121.7,25.2c3.1,3,3.7,7.8,1.2,11.4c-0.4,0.5-0.8,1-1.2,1.5H121c0.6-0.6,1.1-1.2,1.5-1.9
		c0.8-1.4,1.2-3,1.2-4.5c0-2.4-1-4.7-2.7-6.4L121.7,25.2L121.7,25.2z"/>
	<path id="Path_10669" d="M135,25.7c-0.7,0.4-3.2,2.4-3.6,4.8c0.6-0.5,1.4-0.7,2.1-0.7c1.5,0,2.6,1.2,2.6,2.7s-1.2,2.6-2.7,2.6
		c-1.6,0-2.9-1.2-2.9-3.4c0-1.6,0.6-3.2,1.7-4.4c0.7-0.8,1.4-1.5,2.3-2.1L135,25.7z M131.3,31.8c-0.1,1.3,0.8,2.4,2.1,2.5h0.1
		c1.1,0.1,2-0.8,2-1.8v-0.1c0-1.1-0.9-2-2-2c0,0,0,0-0.1,0c-0.8,0-1.6,0.3-2.1,0.9C131.4,31.4,131.3,31.6,131.3,31.8"/>
	<path id="Path_10670" d="M143.2,32.3c0,1.5-1.2,2.7-2.7,2.8s-2.7-1.2-2.8-2.7c0-0.7,0.3-1.4,0.7-1.9c0.2-0.2,0.4-0.4,0.7-0.5
		c-0.8-0.5-1.2-1.3-1.3-2.2c0-1.4,1.1-2.5,2.5-2.5s2.5,1.1,2.5,2.5l0,0c0,0.6-0.2,1.2-0.6,1.7c-0.2,0.2-0.4,0.4-0.6,0.5
		C142.7,30.4,143.2,31.3,143.2,32.3 M140.5,30.3c-1.1,0-2,0.9-2,2c0,1.1,0.9,2,2,2h0.1c1.1,0,2-1,1.9-2.1
		C142.4,31.1,141.6,30.3,140.5,30.3 M140.5,25.9c-1,0-1.8,0.8-1.8,1.9s0.8,1.8,1.9,1.8c1,0,1.8-0.8,1.8-1.8v-0.1
		C142.3,26.7,141.5,25.9,140.5,25.9L140.5,25.9"/>
	<path id="Path_10671" d="M145.8,29.7c0.4-0.8,1.2-1.2,2.1-1.2c0.9,0,1.8,0.6,2,1.5c0.4-0.9,1.2-1.5,2.2-1.5c0.7,0,1.4,0.3,1.8,1
		c0.3,0.6,0.5,1.4,0.4,2.1V35h-0.7v-3.3c0-0.6-0.1-1.1-0.3-1.7c-0.3-0.5-0.8-0.8-1.3-0.8c-0.9,0.1-1.6,0.7-1.9,1.5V35h-0.7v-3.2
		c0-1.2-0.2-1.6-0.4-1.9c-0.3-0.4-0.8-0.7-1.3-0.7c-0.8,0.1-1.6,0.6-1.9,1.4V35h-0.7v-6.3h0.7L145.8,29.7z"/>
	<path id="Path_10672" d="M161.1,29.1h-1.4c0.5,0.4,0.8,1,0.9,1.7c0,1-0.8,1.9-1.8,2.1c-1.2,0.3-1.4,0.4-1.6,0.5
		c-0.1,0.1-0.2,0.3-0.2,0.4c0,0.6,1,0.6,1.5,0.7c0.6,0,1.3,0.1,1.8,0.4c0.5,0.3,0.8,0.8,0.8,1.3c0,1.1-1,1.8-2.8,1.8
		c-2.8,0-2.8-1.5-2.8-1.7c0-0.4,0.3-1.3,1.8-1.5c-0.9-0.2-1-0.6-1-0.9c0-0.6,0.5-0.8,1.3-1c-1.2-0.3-1.9-1.5-1.6-2.7
		c0.1-0.6,0.5-1.1,1.1-1.4s1.2-0.4,1.8-0.3h2.2V29.1z M158.4,35.2c-0.6,0-1.1,0-1.7,0.3c-0.4,0.1-0.6,0.5-0.6,0.9
		c0,1.2,1.8,1.2,2.2,1.2c1.5,0,2.1-0.6,2.1-1.2C160.4,35.2,159,35.2,158.4,35.2 M156.5,30.8c0,0.9,0.7,1.7,1.7,1.7
		c0.9,0,1.7-0.7,1.7-1.7c0-0.9-0.7-1.7-1.7-1.7l0,0C157.3,29.1,156.5,29.9,156.5,30.8"/>
	<path id="Path_10673" d="M2,42.1c0.8-0.1,1.6,0,2.3,0.3c0.9,0.4,1.4,1.2,1.4,2.2c0,1.1-0.8,2.1-1.8,2.3c0.5,0.4,0.8,0.7,3,4.1
		l0.4,0.7H6.5l-1.8-2.9c-0.3-0.5-0.7-1-1.2-1.4c-0.5-0.3-1-0.4-1.6-0.3h-1v4.6H0.1v-9.6C0.1,42.1,2,42.1,2,42.1z M0.8,42.8v3.7h1
		c0.7,0.1,1.5,0,2.1-0.3s0.9-0.9,0.9-1.6c0-0.6-0.3-1.2-0.9-1.5s-1.3-0.4-2-0.3L0.8,42.8z"/>
	<path id="Path_10674" d="M13.5,51.2c-0.4,0.3-0.8,0.6-1.3,0.7c-0.4,0-0.4-0.3-0.5-0.8c-0.6,0.5-1.2,0.8-2,0.8
		c-0.9,0-1.7-0.7-1.7-1.6l0,0c0-2.1,2.8-2.3,3.7-2.3v-0.8c0-0.7-0.3-1.2-1.4-1.2c-0.7,0-1.4,0.3-1.9,0.8V46c0.6-0.4,1.3-0.6,2-0.7
		c0.6,0,1.2,0.2,1.6,0.6c0.3,0.4,0.5,0.9,0.4,1.5v3.2c0,0.2,0,0.5,0,0.6l0.1,0.1c0.3-0.1,0.6-0.3,0.9-0.6L13.5,51.2z M11.8,48.5
		c-0.6,0-1.2,0.1-1.7,0.3c-0.7,0.2-1.2,0.8-1.3,1.5c0,0.7,0.8,1,1.2,1c0.7,0,1.3-0.3,1.8-0.8V48.5z"/>
	<path id="Path_10675" d="M20,51.7h-0.7v-0.5c-0.5,0.4-1.2,0.6-1.9,0.6c-1.8,0-3.2-1.4-3.2-3.2v-0.1c-0.1-1.7,1.3-3.2,3-3.3
		c0.1,0,0.1,0,0.2,0c0.7,0,1.3,0.2,1.9,0.5V42H20V51.7z M19.3,46.5c-0.5-0.4-1.2-0.6-1.8-0.6c-1.4,0-2.5,1.1-2.5,2.4
		c0,0.1,0,0.1,0,0.2c0,1.5,1.1,2.7,2.6,2.7c0.6,0,1.3-0.2,1.7-0.6C19.3,50.6,19.3,46.5,19.3,46.5z"/>
	<path id="Path_10676" d="M22.8,43.3h-0.7v-1.2h0.7V43.3z M22.8,51.7h-0.7v-6.3h0.7V51.7z"/>
	<path id="Path_10677" d="M30.9,48.6c0,1.8-1.5,3.2-3.3,3.1c-1.8,0-3.2-1.5-3.1-3.3c0-1.7,1.5-3.1,3.2-3.1s3.2,1.4,3.2,3.1
		C30.9,48.5,30.9,48.5,30.9,48.6 M25.2,48.6c0.1,1.4,1.3,2.4,2.6,2.3c1.4-0.1,2.4-1.3,2.3-2.6S28.9,46,27.6,46
		c-1.4,0-2.5,1.1-2.5,2.5C25.2,48.5,25.2,48.5,25.2,48.6"/>
	<path id="Path_10678" d="M33.2,45.8c0.6-0.3,1.3-0.5,1.9-0.5c1.7,0,3.1,1.4,3.1,3.1c0,0.1,0,0.1,0,0.2c0.1,1.8-1.3,3.2-3.1,3.3H35
		c-0.7,0-1.3-0.2-1.9-0.5V55h-0.7v-9.5h0.7L33.2,45.8L33.2,45.8z M33.2,50.7c0.5,0.3,1.1,0.5,1.8,0.5c1.3,0,2.5-1,2.5-2.3
		c0-0.1,0-0.2,0-0.3c0.1-1.4-1-2.6-2.4-2.7c-0.1,0-0.1,0-0.2,0c-0.6,0-1.2,0.2-1.7,0.5L33.2,50.7z"/>
	<path id="Path_10679" d="M44.8,51.2c-0.4,0.3-0.8,0.6-1.3,0.7c-0.4,0-0.4-0.3-0.5-0.8c-0.6,0.5-1.2,0.8-2,0.8
		c-0.9,0-1.7-0.7-1.7-1.6l0,0c0-2.1,2.8-2.3,3.7-2.3v-0.8c0-0.7-0.3-1.2-1.4-1.2c-0.7,0-1.4,0.3-1.9,0.8V46c0.6-0.4,1.3-0.6,2-0.7
		c0.6,0,1.2,0.2,1.6,0.6c0.3,0.4,0.5,0.9,0.4,1.5v3.2c0,0.2,0,0.5,0,0.6l0.1,0.1c0.3-0.1,0.6-0.3,0.9-0.6L44.8,51.2z M43.1,48.5
		c-0.6,0-1.2,0.1-1.7,0.3c-0.7,0.2-1.2,0.8-1.3,1.5c0,0.7,0.8,1,1.2,1c0.7,0,1.3-0.3,1.8-0.8V48.5z"/>
	<path id="Path_10680" d="M51.5,55h-0.7v-3.6c-0.7,0.3-1.4,0.5-2.1,0.5c-1.6,0-3-1.3-3-2.9c0-0.1,0-0.2,0-0.2
		c-0.1-1.8,1.2-3.3,3-3.4h0.1c0.7,0,1.4,0.2,2,0.6v-0.4h0.7V55z M50.8,46.5c-0.5-0.4-1.2-0.6-1.8-0.6c-1.4,0.1-2.6,1.3-2.5,2.7v0.1
		c-0.1,1.3,0.9,2.4,2.2,2.5c0.1,0,0.2,0,0.3,0c0.7,0,1.3-0.2,1.9-0.5L50.8,46.5z"/>
	<path id="Path_10681" d="M58.6,51.7h-0.7v-1c-0.5,0.7-1.3,1.1-2.1,1.2c-0.8,0-1.5-0.4-1.9-1c-0.3-0.6-0.4-1.2-0.4-1.9v-3.5h0.7V49
		c-0.1,0.5,0,1,0.3,1.5s0.9,0.8,1.4,0.8c0.6,0,1.2-0.2,1.6-0.7c0.2-0.2,0.4-0.5,0.5-0.8v-4.4h0.7L58.6,51.7z"/>
	<path id="Path_10682" d="M61,48.3c-0.2,1.4,0.7,2.7,2.1,2.9c0.1,0,0.2,0,0.4,0c0.9,0,1.7-0.4,2.4-1V51c-0.7,0.6-1.5,0.8-2.4,0.8
		c-1.7,0-3.2-1.4-3.2-3.1c0-0.1,0-0.1,0-0.2c-0.1-1.6,1.1-3.1,2.8-3.2h0.1c1.1,0,2.1,0.6,2.5,1.6c0.2,0.4,0.3,0.9,0.3,1.4H61z
		 M65.2,47.8c-0.1-0.4-0.2-0.7-0.4-1c-0.3-0.6-1-0.9-1.6-0.9c-1.1,0-2,0.8-2.1,1.9H65.2z"/>
</g>
</svg>
