<?xml version="1.0" encoding="UTF-8"?>
<svg id="Layer_1" data-name="Layer 1" xmlns="http://www.w3.org/2000/svg" version="1.1" viewBox="0 0 123 30">
  <defs>
    <style>
      .cls-1 {
        fill: #2e3790;
      }

      .cls-1, .cls-2 {
        stroke-width: 0px;
      }

      .cls-2 {
        fill: #fff;
      }
    </style>
  </defs>
  <rect class="cls-1" width="123" height="30" rx="4" ry="4"/>
  <path class="cls-2" d="M16.3,18.3l1-1.4c.6.6,1.6,1.2,2.8,1.2s1.5-.5,1.5-1-.8-.9-1.8-1.1c-1.4-.3-3.2-.7-3.2-2.7s1.2-2.6,3.3-2.6,2.5.4,3.4,1.2l-1,1.4c-.7-.6-1.6-.9-2.5-.9s-1.3.4-1.3.9.7.8,1.7,1c1.4.3,3.2.8,3.2,2.7s-1.1,2.8-3.5,2.8-2.9-.6-3.7-1.4ZM24.2,16.4c0-1.8,1.3-3.3,3.2-3.3s3.1,1.4,3.1,3.5v.4h-4.7c.1.8.7,1.5,1.8,1.5s1.3-.2,1.7-.6l.7,1.1c-.6.6-1.6.9-2.6.9-1.9,0-3.4-1.3-3.4-3.3ZM27.5,14.4c-1,0-1.5.8-1.5,1.4h3.1c0-.6-.5-1.4-1.5-1.4ZM31.4,16.4c0-1.8,1.3-3.3,3.2-3.3s3.1,1.4,3.1,3.5v.4h-4.7c.1.8.7,1.5,1.8,1.5s1.3-.2,1.7-.6l.7,1.1c-.6.6-1.6.9-2.6.9-1.9,0-3.4-1.3-3.4-3.3ZM34.6,14.4c-1,0-1.5.8-1.5,1.4h3.1c0-.6-.5-1.4-1.5-1.4ZM44.4,19.7c-1.2,0-1.8-.6-1.8-1.7v-3.3h-1v-1.4h1v-1.7h1.7v1.7h1.3v1.4h-1.3v2.8c0,.4.2.7.6.7s.5,0,.6-.2l.4,1.2c-.2.2-.7.4-1.4.4ZM52.6,19.5h-1.7v-3.8c0-.9-.5-1.1-1.2-1.1s-1.1.4-1.4.7v4.2h-1.7v-8.7h1.7v3.2c.4-.5,1.2-1,2.2-1s2,.8,2,2v4.5ZM53.8,16.4c0-1.8,1.3-3.3,3.2-3.3s3.1,1.4,3.1,3.5v.4h-4.7c.1.8.7,1.5,1.8,1.5s1.3-.2,1.7-.6l.7,1.1c-.6.6-1.6.9-2.6.9-1.9,0-3.4-1.3-3.4-3.3ZM57.1,14.4c-1,0-1.5.8-1.5,1.4h3.1c0-.6-.5-1.4-1.5-1.4ZM68.2,19.5h-3.4v-8.7h3.4c2.7,0,4.6,1.7,4.6,4.3s-1.9,4.3-4.6,4.3ZM66.6,12.5v5.4h1.6c1.7,0,2.7-1.2,2.7-2.7s-.9-2.7-2.7-2.7h-1.6ZM79.5,19.5h-1.7v-.7c-.4.5-1.2.8-2,.8s-2.2-.7-2.2-2.1,1.2-2,2.2-2,1.6.3,2,.8v-.9c0-.6-.5-1.1-1.4-1.1s-1.3.2-1.8.7l-.6-1.1c.8-.7,1.8-1,2.7-1,1.4,0,2.7.6,2.7,2.4v4.1ZM77.9,18v-.8c-.3-.4-.8-.5-1.3-.5s-1.2.4-1.2.9.5.9,1.2.9,1.1-.2,1.3-.5ZM83.3,19.7c-1.2,0-1.8-.6-1.8-1.7v-3.3h-1v-1.4h1v-1.7h1.7v1.7h1.3v1.4h-1.3v2.8c0,.4.2.7.6.7s.5,0,.6-.2l.4,1.2c-.2.2-.7.4-1.4.4ZM91,19.5h-1.7v-.7c-.4.5-1.2.8-2,.8s-2.2-.7-2.2-2.1,1.2-2,2.2-2,1.6.3,2,.8v-.9c0-.6-.5-1.1-1.4-1.1s-1.3.2-1.8.7l-.6-1.1c.8-.7,1.8-1,2.7-1,1.4,0,2.7.6,2.7,2.4v4.1ZM89.3,18v-.8c-.3-.4-.8-.5-1.3-.5s-1.2.4-1.2.9.5.9,1.2.9,1.1-.2,1.3-.5Z"/>
  <path class="cls-2" d="M108.2,11.2c-.3-.2-.7-.2-.9,0-.3.2-.3.6,0,.9l2.5,2.4h-6c-.4,0-.7.3-.7.6s.3.6.7.6h6l-2.5,2.4c-.3.2-.2.6,0,.9.3.2.7.2.9,0l4-3.8-4-3.8Z"/>
</svg>