<?xml version="1.0" encoding="utf-8"?>
<!-- Generator: Adobe Illustrator 26.3.1, SVG Export Plug-In . SVG Version: 6.00 Build 0)  -->
<svg version="1.1" id="Layer_1" xmlns="http://www.w3.org/2000/svg" xmlns:xlink="http://www.w3.org/1999/xlink" x="0px" y="0px"
	 viewBox="0 0 210 22" style="enable-background:new 0 0 210 22;" xml:space="preserve">
<style type="text/css">
	.st0{fill:#F0AB99;}
</style>
<g>
	<path class="st0" d="M6.3,0.4h4.8l6.1,16h-4.7L11.4,13H6.1L5,16.4H0.3L6.3,0.4z M10.2,9.4L8.8,4.8H8.7L7.2,9.4H10.2z"/>
	<path class="st0" d="M19.4,12.4c0.2,0.2,0.4,0.4,0.6,0.6c0.4,0.3,1,0.6,1.7,0.6s0.9-0.2,0.9-0.6c0-1-4.7-1.1-4.7-4.6
		c0-1.8,1.6-3.4,4.6-3.4c1.5,0,2.7,0.4,3.5,0.9c0.5,0.3,0.9,0.5,1.2,0.8l-2.1,2.2c-0.1-0.1-0.3-0.3-0.5-0.4C24.4,8.2,24,8,23.5,8
		c-0.7,0-0.9,0.2-0.9,0.6c0,1,4.7,1.1,4.7,4.6c0,1.8-1.6,3.4-4.8,3.4c-1.6,0-2.9-0.5-3.8-1c-0.5-0.3-1-0.6-1.4-1L19.4,12.4z"/>
	<path class="st0" d="M29.2,0.4h3.9V9l3.3-3.8H41l-4.2,4.7l4.4,6.5h-4.4l-2.6-4.1l-1,1.3v2.9h-3.9V0.4z"/>
	<path class="st0" d="M46.5,17.3c0.1,0,0.3,0.1,0.4,0.1c0.2,0.1,0.5,0.1,0.8,0.1c1,0,1.5-0.5,1.7-0.9l0.2-0.5l-4.1-11h4.2l1.9,6.5
		h0.1l1.9-6.5h4.2L53.4,17c-1.2,3-2.4,4.2-4.8,4.2c-0.6,0-1.1-0.1-1.5-0.2c-0.2-0.1-0.4-0.1-0.6-0.2V17.3z"/>
	<path class="st0" d="M64.8,5c3.5,0,6.2,2.6,6.2,5.8s-2.6,5.8-6.2,5.8c-3.5,0-6.2-2.6-6.2-5.8S61.3,5,64.8,5z M67,10.8
		c0-1.3-1-2.3-2.2-2.3c-1.1,0-2.2,1-2.2,2.3s1,2.3,2.2,2.3C66,13.1,67,12.1,67,10.8z"/>
	<path class="st0" d="M73.2,5.2h3.9v6c0,1.2,0.7,1.8,1.6,1.8c1,0,1.8-0.8,1.8-2.1V5.2h3.9v11.2h-3.9v-1.6h-0.1
		c-0.2,0.3-0.5,0.6-0.8,0.9c-0.5,0.5-1.3,0.9-2.5,0.9c-2.3,0-4-1.7-4-4.7V5.2z"/>
	<path class="st0" d="M87.2,5.2h3.9v1.4c0.2-0.3,0.5-0.5,0.8-0.7c0.5-0.4,1.3-0.8,2.3-0.8h0.5v4.1l-0.3-0.1C94.1,9,93.8,9,93.5,9
		c-1.5,0-2.4,0.9-2.4,2.6v4.8h-3.9V5.2z"/>
	<path class="st0" d="M108.8,14.8h-0.1c-0.2,0.3-0.5,0.6-0.8,0.9c-0.5,0.5-1.4,0.9-2.6,0.9c-2.6,0-4.9-2.3-4.9-5.8
		c0-3.6,2.3-5.8,4.9-5.8c1.2,0,2,0.5,2.6,0.9c0.3,0.3,0.5,0.6,0.8,0.9h0.1V0.4h3.9v16h-3.9V14.8z M108.8,10.8c0-1.3-1-2.3-2.2-2.3
		c-1.1,0-2.2,1-2.2,2.3s1,2.3,2.2,2.3C107.8,13.1,108.8,12.1,108.8,10.8z"/>
	<path class="st0" d="M121.2,5c3.5,0,6.2,2.6,6.2,5.8s-2.6,5.8-6.2,5.8S115,14,115,10.8S117.6,5,121.2,5z M123.3,10.8
		c0-1.3-1-2.3-2.2-2.3c-1.1,0-2.2,1-2.2,2.3s1,2.3,2.2,2.3C122.3,13.1,123.3,12.1,123.3,10.8z"/>
	<path class="st0" d="M140,14.3c-0.3,0.4-0.7,0.8-1.2,1.1c-0.8,0.6-2,1.1-3.6,1.1c-3.5,0-6.2-2.6-6.2-5.8s2.6-5.8,6.2-5.8
		c1.6,0,2.8,0.6,3.6,1.1c0.5,0.3,0.8,0.7,1.2,1.1l-2.3,2.4c-0.2-0.2-0.4-0.4-0.6-0.6c-0.4-0.3-1-0.6-1.7-0.6c-1.4,0-2.4,1-2.4,2.3
		s1,2.3,2.4,2.3c0.7,0,1.3-0.3,1.7-0.6c0.2-0.2,0.4-0.4,0.6-0.6L140,14.3z"/>
	<path class="st0" d="M142.7,9.1h-1.6V5.4h0.7c0.8,0,1.4-0.6,1.4-1.4V2h3.4v3.4h2.2v3.7h-2.2v2.5c0,0.9,0.4,1.4,1.3,1.4
		c0.3,0,0.6,0,0.8-0.1c0.1,0,0.2-0.1,0.3-0.1v3.5l-0.7,0.2c-0.4,0.1-1,0.2-1.6,0.2c-2.4,0-4-1.6-4-4.4V9.1z"/>
	<path class="st0" d="M156.8,5c3.5,0,6.2,2.6,6.2,5.8s-2.6,5.8-6.2,5.8s-6.2-2.6-6.2-5.8S153.2,5,156.8,5z M159,10.8
		c0-1.3-1-2.3-2.2-2.3c-1.1,0-2.2,1-2.2,2.3s1,2.3,2.2,2.3C157.9,13.1,159,12.1,159,10.8z"/>
	<path class="st0" d="M165.1,5.2h3.9v1.4c0.2-0.3,0.5-0.5,0.8-0.7c0.5-0.4,1.3-0.8,2.3-0.8h0.5v4.1l-0.3-0.1
		C172.1,9,171.8,9,171.4,9c-1.5,0-2.4,0.9-2.4,2.6v4.8h-3.9V5.2z"/>
	<path class="st0" d="M179.8,9.3h-1.5V5.6h1.5V4.5c0-2.8,1.6-4.4,4-4.4c0.6,0,1.2,0.1,1.6,0.2l0.7,0.2V4l-0.3-0.1
		c-0.2-0.1-0.5-0.1-0.8-0.1c-0.8,0-1.3,0.5-1.3,1.4v0.5h2.4v3.7h-2.4v7.1h-3.9V9.3z"/>
	<path class="st0" d="M193.8,5c3.5,0,6.2,2.6,6.2,5.8s-2.6,5.8-6.2,5.8s-6.2-2.6-6.2-5.8S190.2,5,193.8,5z M195.9,10.8
		c0-1.3-1-2.3-2.2-2.3c-1.1,0-2.2,1-2.2,2.3s1,2.3,2.2,2.3C194.9,13.1,195.9,12.1,195.9,10.8z"/>
	<path class="st0" d="M202.1,5.2h3.9v1.4c0.2-0.3,0.5-0.5,0.8-0.7c0.5-0.4,1.3-0.8,2.3-0.8h0.5v4.1l-0.3-0.1C209,9,208.8,9,208.4,9
		c-1.5,0-2.4,0.9-2.4,2.6v4.8h-3.9V5.2z"/>
</g>
</svg>
