<?xml version="1.0" encoding="utf-8"?>
<!-- Generator: Adobe Illustrator 26.3.1, SVG Export Plug-In . SVG Version: 6.00 Build 0)  -->
<svg version="1.1" id="Layer_1" xmlns="http://www.w3.org/2000/svg" xmlns:xlink="http://www.w3.org/1999/xlink" x="0px" y="0px"
	 viewBox="0 0 178 51" style="enable-background:new 0 0 178 51;" xml:space="preserve">
<style type="text/css">
	.st0{fill:#F0AB99;}
</style>
<g>
	<path class="st0" d="M1.5,13h7.2c0.3,0,0.5,0,0.7,0.1c0.2,0.1,0.3,0.2,0.5,0.3s0.2,0.4,0.2,0.7c0,0.4-0.1,0.9-0.2,1.4
		c-0.1,0.5-0.1,1,0.2,1.6l6,13.4l3.6-10c0.4-1,0.5-1.9,0.3-2.6c-0.2-0.7-0.4-1.3-0.8-1.7c-0.4-0.5-0.7-0.9-1-1.2
		c-0.4-0.3-0.5-0.6-0.5-0.9c0-0.8,0.5-1.1,1.4-1.1h6c0.3,0,0.5,0,0.7,0.1c0.2,0.1,0.3,0.2,0.5,0.3s0.2,0.4,0.2,0.7
		c0,0.3-0.2,0.6-0.5,0.8c-0.3,0.2-0.8,0.6-1.2,1c-0.5,0.4-1,1-1.6,1.7c-0.6,0.7-1.1,1.7-1.6,2.9c-0.8,2-1.6,4.1-2.4,6.4
		c-0.8,2.2-1.5,4.5-2.3,6.7c-0.8,2.2-1.6,4.3-2.4,6.4c-0.8,2-1.6,3.8-2.5,5.4c-0.9,1.5-1.8,2.8-2.7,3.7c-1,0.9-2,1.4-3,1.4
		c-0.5,0-1.1-0.1-1.8-0.3c-0.7-0.2-1.3-0.5-1.9-0.9c-0.6-0.4-1.1-0.9-1.6-1.5c-0.4-0.6-0.6-1.4-0.6-2.3c0-0.9,0.3-1.5,0.9-1.9
		C1.7,43.2,2.4,43,3.1,43c0.7,0,1.3,0.2,1.8,0.6c0.5,0.4,0.8,1,0.8,1.7c0,1,0,1.8,0,2.5c0,0.7,0.2,1,0.6,1c0.6,0,1.2-0.2,1.8-0.7
		c0.6-0.5,1.1-1.1,1.7-2c0.6-0.9,1.1-1.9,1.6-3c0.5-1.1,1.1-2.4,1.6-3.8L3.5,18.5c-0.2-0.4-0.4-0.8-0.8-1.1
		c-0.4-0.4-0.7-0.8-1.1-1.1c-0.4-0.4-0.7-0.7-1-1.1c-0.3-0.4-0.4-0.7-0.4-1C0.1,13.4,0.6,13,1.5,13z"/>
	<path class="st0" d="M38.3,12.5c1.9,0,3.6,0.3,5.1,0.9c1.5,0.6,2.7,1.5,3.7,2.7c1,1.1,1.8,2.5,2.3,4.1c0.5,1.6,0.8,3.4,0.8,5.3
		c0,1.9-0.3,3.7-0.8,5.3c-0.5,1.6-1.3,3-2.3,4.1c-1,1.2-2.2,2-3.7,2.7c-1.5,0.6-3.2,0.9-5.1,0.9c-1.9,0-3.6-0.3-5.1-0.9
		c-1.5-0.6-2.7-1.5-3.7-2.7c-1-1.1-1.8-2.5-2.3-4.1c-0.5-1.6-0.8-3.4-0.8-5.3c0-2,0.3-3.7,0.8-5.3c0.5-1.6,1.3-2.9,2.3-4.1
		c1-1.2,2.2-2,3.7-2.7C34.7,12.8,36.4,12.5,38.3,12.5z M33.8,25.5c0,1.9,0.1,3.6,0.4,5c0.3,1.4,0.6,2.6,1,3.6
		c0.4,0.9,0.9,1.6,1.5,2.1c0.5,0.5,1.1,0.7,1.6,0.7c0.5,0,1.1-0.2,1.6-0.7c0.5-0.4,1-1.1,1.4-2.1c0.4-0.9,0.8-2.1,1.1-3.6
		c0.3-1.4,0.4-3.1,0.4-5c0-2-0.1-3.7-0.4-5.1c-0.3-1.4-0.6-2.6-1.1-3.5c-0.4-0.9-0.9-1.6-1.4-2.1c-0.5-0.5-1.1-0.7-1.6-0.7
		c-0.5,0-1.1,0.2-1.6,0.7c-0.5,0.4-1,1.1-1.5,2.1c-0.4,0.9-0.8,2.1-1,3.5C34,21.8,33.8,23.5,33.8,25.5z"/>
	<path class="st0" d="M53,16.6l3.4-2.8c0.2-0.2,0.5-0.4,0.9-0.6c0.3-0.2,0.7-0.2,1-0.2c0.4,0,0.7,0.2,1,0.5c0.3,0.3,0.4,0.9,0.4,1.8
		v16.5c0,0.5,0,1,0,1.5c0,0.5,0.1,0.9,0.2,1.3c0.1,0.4,0.3,0.7,0.6,0.9c0.2,0.2,0.6,0.3,1,0.3c0.8,0,1.7-0.4,2.6-1.1
		c1-0.7,1.8-1.7,2.6-2.9V20.7c-0.8-0.8-1.2-1.5-1.3-2.1c-0.1-0.6,0.3-1.3,1.3-2l3.4-2.8c0.3-0.2,0.6-0.4,0.9-0.6
		c0.3-0.2,0.7-0.3,1-0.3c0.4,0,0.7,0.2,1,0.5c0.3,0.3,0.4,0.9,0.4,1.8v15.2c0,1,0.1,1.9,0.2,2.6c0.1,0.7,0.3,1.3,0.5,1.7
		c0.2,0.5,0.3,0.9,0.5,1.2c0.1,0.3,0.2,0.6,0.2,0.9c0,0.8-0.5,1.1-1.4,1.1h-5.1c-0.8,0-1.2-0.2-1.3-0.5c-0.1-0.4-0.2-0.9-0.2-1.7v-1
		c-0.9,1.1-1.8,2-2.9,2.7c-1,0.7-2.3,1-3.7,1c-1.2,0-2.2-0.1-3.1-0.3c-0.9-0.2-1.6-0.6-2.2-1.1s-1.1-1.2-1.4-2
		C53.1,34.3,53,33.2,53,32V20.7c-0.8-0.8-1.2-1.5-1.3-2.1C51.6,18,52,17.3,53,16.6z"/>
	<path class="st0" d="M77.6,16.5l3.4-2.8c0.2-0.2,0.5-0.4,0.9-0.5c0.3-0.1,0.7-0.2,1-0.2c0.4,0,0.7,0.1,1,0.5
		c0.3,0.3,0.4,0.9,0.4,1.7v0.2c0.9-0.9,1.8-1.6,2.8-2.1c1-0.5,2.2-0.8,3.4-0.8c0.8,0,1.6,0.1,2.5,0.4c0.9,0.2,1.7,0.6,2.4,1
		c0.7,0.5,1.3,1,1.8,1.7c0.5,0.7,0.7,1.4,0.7,2.2c0,0.6-0.3,1.2-0.8,1.8c-0.5,0.6-1.3,0.9-2.2,0.9c-0.9,0-1.6-0.3-2.1-0.8
		c-0.5-0.5-0.9-1.2-1.2-1.8c-0.3-0.7-0.6-1.3-0.9-1.8c-0.3-0.5-0.7-0.8-1.3-0.8c-0.7,0-1.5,0.3-2.4,0.8c-0.9,0.6-1.8,1.3-2.7,2.2
		v12.2c0,1,0.1,1.9,0.2,2.6c0.1,0.7,0.3,1.3,0.5,1.7c0.2,0.5,0.3,0.9,0.5,1.2c0.1,0.3,0.2,0.6,0.2,0.9c0,0.2-0.1,0.4-0.2,0.5
		c-0.1,0.2-0.2,0.3-0.4,0.4c-0.2,0.1-0.5,0.2-0.8,0.2h-6.6c-0.9,0-1.4-0.4-1.4-1.1c0-0.3,0.1-0.6,0.2-0.9c0.1-0.3,0.3-0.7,0.5-1.2
		c0.2-0.5,0.3-1,0.5-1.7c0.2-0.7,0.2-1.5,0.2-2.6v-9.9c0-0.6-0.1-1-0.3-1.4c-0.2-0.4-0.3-0.7-0.5-1c-0.1-0.3-0.1-0.5-0.1-0.8
		C76.9,17.2,77.2,16.9,77.6,16.5z"/>
	<path class="st0" d="M102.4,29.9c0.6,0,1.1,0.2,1.5,0.5c0.4,0.4,0.7,0.8,1,1.3c0.3,0.5,0.5,1.1,0.8,1.7c0.2,0.6,0.5,1.2,0.8,1.7
		c0.3,0.5,0.6,0.9,1,1.3c0.4,0.3,0.9,0.5,1.5,0.5c0.5,0,0.9-0.1,1.3-0.3c0.4-0.2,0.7-0.5,1-0.8c0.3-0.3,0.5-0.7,0.6-1.2
		c0.2-0.4,0.2-0.9,0.2-1.3c0-0.9-0.3-1.7-0.9-2.4c-0.6-0.7-1.4-1.4-2.3-2.1c-0.9-0.6-1.9-1.3-3-1.9c-1.1-0.6-2.1-1.3-3-2
		c-0.9-0.7-1.7-1.5-2.3-2.3c-0.6-0.9-0.9-1.8-0.9-2.9c0-1.3,0.3-2.4,1-3.3c0.7-0.9,1.5-1.6,2.5-2.2c1-0.6,2.1-1,3.2-1.2
		c1.1-0.2,2.2-0.4,3.1-0.4c1.5,0,2.8,0.1,4,0.5c1.2,0.3,2.2,0.7,3,1.2c0.8,0.5,1.5,1.2,1.9,1.9s0.7,1.5,0.7,2.3
		c0,0.6-0.3,1.2-0.8,1.8c-0.5,0.6-1.3,0.9-2.2,0.9c-0.6,0-1.1-0.2-1.5-0.5c-0.4-0.4-0.7-0.8-1-1.3c-0.3-0.5-0.5-1.1-0.8-1.7
		c-0.2-0.6-0.5-1.2-0.8-1.7c-0.3-0.5-0.6-0.9-1-1.3c-0.4-0.3-0.9-0.5-1.5-0.5c-0.5,0-0.9,0.1-1.3,0.3c-0.4,0.2-0.7,0.5-1,0.8
		c-0.3,0.3-0.5,0.7-0.6,1.2c-0.2,0.4-0.2,0.9-0.2,1.3c0,0.9,0.3,1.7,0.9,2.5c0.6,0.7,1.4,1.4,2.3,2.1c1,0.7,2,1.3,3,2
		s2.1,1.3,3.1,2.1c0.9,0.7,1.7,1.5,2.3,2.4c0.6,0.9,0.9,1.8,0.9,2.9c0,1.3-0.3,2.4-1,3.2c-0.7,0.9-1.6,1.6-2.6,2.1
		c-1,0.5-2.1,0.9-3.2,1.1s-2.2,0.4-3.1,0.4c-1.4,0-2.7-0.1-3.9-0.5c-1.2-0.3-2.2-0.7-3-1.2c-0.8-0.5-1.5-1.2-1.9-1.9
		c-0.4-0.7-0.7-1.5-0.7-2.3c0-0.6,0.3-1.2,0.8-1.8C100.7,30.2,101.5,29.9,102.4,29.9z"/>
	<path class="st0" d="M120.4,25c0-3.9,1-7,3-9.2s4.8-3.3,8.5-3.3c1.1,0,2.3,0.1,3.4,0.4c1.1,0.3,2.1,0.7,3,1.4
		c0.9,0.6,1.6,1.4,2.2,2.4c0.5,1,0.8,2.2,0.8,3.6c0,1.2-0.2,2.2-0.7,3c-0.5,0.8-1.1,1.3-1.9,1.8c-0.8,0.4-1.6,0.7-2.6,0.9
		c-1,0.1-2,0.2-3.1,0.2h-5.2c0,1.9,0.2,3.6,0.5,5c0.3,1.4,0.7,2.5,1.1,3.4s0.9,1.5,1.5,1.9c0.5,0.4,1,0.6,1.4,0.6
		c0.5,0,1-0.1,1.5-0.4c0.5-0.3,0.9-0.6,1.3-1.1c0.4-0.5,0.8-1,1.1-1.6c0.3-0.6,0.6-1.2,0.8-1.7c0.2-0.6,0.5-1,0.9-1.2
		c0.4-0.2,0.8-0.4,1.2-0.4c0.6,0,1.1,0.2,1.6,0.7s0.6,1.1,0.3,1.8c-0.2,0.5-0.5,1.1-1,1.8c-0.5,0.6-1.1,1.2-1.8,1.8
		c-0.7,0.6-1.6,1-2.6,1.4c-1,0.4-2.1,0.6-3.3,0.6c-1.9,0-3.6-0.4-5.1-1.1c-1.5-0.7-2.7-1.7-3.7-2.9c-1-1.2-1.8-2.7-2.3-4.3
		C120.7,28.6,120.4,26.9,120.4,25z M127.8,24.4h3.2c0.6,0,1.1-0.1,1.5-0.4c0.4-0.3,0.7-0.6,0.9-1c0.2-0.4,0.4-0.9,0.5-1.4
		c0.1-0.5,0.1-1,0.1-1.5c0-0.7,0-1.4-0.1-2.1c-0.1-0.7-0.2-1.3-0.4-1.9c-0.2-0.6-0.4-1-0.6-1.4c-0.2-0.3-0.6-0.5-0.9-0.5
		c-0.4,0-0.8,0.2-1.2,0.6c-0.5,0.4-0.9,1.1-1.3,2c-0.4,0.9-0.8,1.9-1,3.2C128.1,21.2,127.9,22.7,127.8,24.4z"/>
	<path class="st0" d="M144.2,4l3.3-2.8c0.2-0.2,0.5-0.4,0.8-0.5s0.7-0.2,1-0.2c0.4,0,0.7,0.1,1,0.5c0.3,0.3,0.4,0.9,0.4,1.7v27.8
		c0,1,0.1,1.9,0.2,2.6c0.1,0.7,0.3,1.3,0.5,1.7c0.2,0.5,0.3,0.9,0.5,1.2c0.2,0.3,0.2,0.6,0.2,0.9c0,0.2,0,0.4-0.2,0.5
		c-0.1,0.2-0.2,0.3-0.4,0.4c-0.2,0.1-0.5,0.2-0.8,0.2h-6.6c-0.3,0-0.5,0-0.7-0.1c-0.2-0.1-0.3-0.2-0.5-0.4c-0.1-0.2-0.2-0.4-0.2-0.6
		c0-0.3,0.1-0.6,0.2-0.9c0.2-0.3,0.3-0.7,0.5-1.2c0.2-0.5,0.3-1,0.5-1.7c0.2-0.7,0.2-1.5,0.2-2.6V8.1c0-0.6-0.1-1-0.3-1.4
		c-0.2-0.4-0.3-0.7-0.5-1c-0.1-0.3-0.1-0.5-0.1-0.8S143.7,4.4,144.2,4z"/>
	<path class="st0" d="M154.6,13h3.5v-2.6c0-1.7,0.3-3.2,0.9-4.5c0.6-1.3,1.4-2.4,2.4-3.2c1-0.9,2.2-1.5,3.6-2
		c1.4-0.4,2.8-0.6,4.3-0.6c1.2,0,2.3,0.1,3.3,0.3c1.1,0.2,2,0.5,2.8,0.9c0.8,0.4,1.5,0.9,2,1.5s0.8,1.3,0.8,2.1
		c0,0.6-0.3,1.2-0.8,1.8c-0.5,0.6-1.3,0.9-2.2,0.9c-0.6,0-1.1-0.1-1.5-0.4c-0.4-0.3-0.7-0.6-1-1.1c-0.3-0.4-0.5-0.9-0.7-1.4
		c-0.2-0.5-0.4-1-0.6-1.4c-0.2-0.4-0.5-0.8-0.8-1.1c-0.3-0.3-0.7-0.4-1.3-0.4c-0.6,0-1.2,0.1-1.7,0.4c-0.5,0.3-1,0.7-1.4,1.4
		c-0.4,0.7-0.8,1.6-1,2.7c-0.2,1.1-0.4,2.5-0.4,4.2V13h3.5c0.3,0,0.5,0.1,0.7,0.2c0.1,0.2,0.2,0.4,0.2,0.6s-0.1,0.4-0.2,0.6
		c-0.1,0.2-0.4,0.2-0.7,0.2h-3.5v15.8c0,1,0.1,1.9,0.2,2.6c0.2,0.7,0.3,1.3,0.5,1.7c0.2,0.5,0.3,0.9,0.5,1.2
		c0.2,0.3,0.2,0.6,0.2,0.9c0,0.2-0.1,0.4-0.2,0.5c-0.1,0.2-0.2,0.3-0.4,0.4c-0.2,0.1-0.5,0.2-0.8,0.2h-6.7c-0.3,0-0.5,0-0.7-0.1
		c-0.2-0.1-0.3-0.2-0.5-0.4c-0.1-0.2-0.2-0.4-0.2-0.6c0-0.3,0.1-0.6,0.2-0.9c0.2-0.3,0.3-0.7,0.5-1.2c0.2-0.5,0.3-1,0.5-1.7
		c0.2-0.7,0.2-1.5,0.2-2.6V14.6h-3.5c-0.3,0-0.5-0.1-0.6-0.2c-0.1-0.2-0.2-0.4-0.2-0.6s0.1-0.4,0.2-0.6
		C154.1,13.1,154.3,13,154.6,13z"/>
</g>
</svg>
