<?xml version="1.0" encoding="utf-8"?>
<!-- Generator: Adobe Illustrator 26.3.1, SVG Export Plug-In . SVG Version: 6.00 Build 0)  -->
<svg version="1.1" id="Layer_1" xmlns="http://www.w3.org/2000/svg" xmlns:xlink="http://www.w3.org/1999/xlink" x="0px" y="0px"
	 viewBox="0 0 152 39" style="enable-background:new 0 0 152 39;" xml:space="preserve">
<style type="text/css">
	.st0{fill:#F0AB99;}
</style>
<g>
	<path class="st0" d="M0.6,37.5c0-0.3,0.2-0.6,0.5-1c0.3-0.3,0.7-0.7,1.2-1.2c0.5-0.5,0.9-1.1,1.5-1.8C4.2,32.9,4.6,32,5,31.1
		l8.2-22.5L13,8c-0.1-0.4-0.2-0.7-0.4-0.9c-0.2-0.2-0.4-0.5-0.5-0.7c-0.2-0.2-0.3-0.5-0.4-0.7c-0.1-0.2-0.2-0.5-0.2-0.9
		c0-0.4,0.1-0.6,0.4-0.9c0.3-0.2,0.6-0.3,1-0.3h4.6c0.4,0,0.7,0.2,0.9,0.7c0.2,0.5,0.4,1.1,0.7,1.8l8.1,24.9c0.3,1,0.6,1.8,1,2.5
		c0.3,0.7,0.7,1.3,0.9,1.8c0.3,0.5,0.5,0.9,0.7,1.2c0.2,0.3,0.3,0.6,0.3,1c0,0.2,0,0.4-0.1,0.5c-0.1,0.2-0.2,0.3-0.4,0.4
		c-0.2,0.1-0.5,0.2-0.8,0.2H22c-0.9,0-1.4-0.4-1.4-1.1c0-0.3,0.1-0.6,0.2-1c0.1-0.3,0.2-0.7,0.2-1.2c0.1-0.5,0.1-1,0-1.7
		c-0.1-0.7-0.2-1.5-0.5-2.5l-1.4-4.5c-0.1-0.4-0.2-0.7-0.4-0.9c-0.2-0.2-0.6-0.3-1.1-0.3h-8c-0.3,0-0.6,0.1-0.8,0.4
		c-0.2,0.2-0.3,0.5-0.4,0.8l-1.6,4.6c-0.3,0.9-0.4,1.7-0.2,2.4c0.1,0.7,0.3,1.3,0.6,1.8c0.3,0.5,0.5,0.9,0.8,1.2
		c0.3,0.4,0.4,0.7,0.4,1c0,0.2,0,0.4-0.1,0.5c-0.1,0.2-0.2,0.3-0.4,0.4c-0.2,0.1-0.5,0.2-0.8,0.2H2C1,38.6,0.6,38.2,0.6,37.5z
		 M10,23.7h7.2c0.4,0,0.6-0.1,0.6-0.4c0-0.2,0-0.5-0.1-0.6L14,11.2L9.7,22.9c-0.1,0.2-0.1,0.4,0,0.5C9.7,23.6,9.8,23.7,10,23.7z"/>
	<path class="st0" d="M34.6,30.5c0.6,0,1.1,0.2,1.5,0.5c0.4,0.4,0.7,0.8,1,1.3c0.3,0.5,0.5,1.1,0.8,1.7c0.2,0.6,0.5,1.2,0.8,1.7
		c0.3,0.5,0.6,0.9,1,1.3c0.4,0.3,0.9,0.5,1.5,0.5c0.5,0,0.9-0.1,1.3-0.3c0.4-0.2,0.7-0.5,1-0.8c0.3-0.3,0.5-0.7,0.6-1.2
		c0.1-0.4,0.2-0.9,0.2-1.3c0-0.9-0.3-1.7-0.9-2.4c-0.6-0.7-1.4-1.4-2.3-2.1c-0.9-0.6-1.9-1.3-3-1.9c-1.1-0.6-2.1-1.3-3-2
		c-0.9-0.7-1.7-1.5-2.3-2.3c-0.6-0.9-0.9-1.8-0.9-2.9c0-1.3,0.3-2.4,1-3.3c0.7-0.9,1.5-1.6,2.5-2.2c1-0.6,2.1-1,3.2-1.2
		c1.1-0.2,2.2-0.4,3.1-0.4c1.5,0,2.8,0.1,3.9,0.5c1.2,0.3,2.2,0.7,3,1.2c0.8,0.5,1.5,1.2,1.9,1.9c0.4,0.7,0.7,1.5,0.7,2.3
		c0,0.6-0.3,1.2-0.8,1.8c-0.5,0.6-1.3,0.9-2.2,0.9c-0.6,0-1.1-0.2-1.5-0.5c-0.4-0.4-0.7-0.8-1-1.3c-0.3-0.5-0.5-1.1-0.8-1.7
		c-0.2-0.6-0.5-1.2-0.8-1.7c-0.3-0.5-0.6-0.9-1-1.3c-0.4-0.3-0.9-0.5-1.5-0.5c-0.5,0-0.9,0.1-1.3,0.3c-0.4,0.2-0.7,0.5-1,0.8
		c-0.3,0.3-0.5,0.7-0.6,1.2c-0.1,0.4-0.2,0.9-0.2,1.3c0,0.9,0.3,1.7,0.9,2.5c0.6,0.7,1.4,1.4,2.3,2.1c1,0.7,2,1.3,3.1,2
		c1.1,0.6,2.1,1.3,3,2.1c1,0.7,1.7,1.5,2.4,2.4c0.6,0.9,0.9,1.8,0.9,2.9c0,1.3-0.3,2.4-1,3.2c-0.7,0.9-1.6,1.6-2.6,2.1
		c-1,0.5-2.1,0.9-3.2,1.1c-1.1,0.2-2.2,0.4-3.1,0.4c-1.4,0-2.7-0.1-3.9-0.5c-1.2-0.3-2.2-0.7-3-1.2c-0.8-0.5-1.5-1.2-1.9-1.9
		c-0.4-0.7-0.7-1.5-0.7-2.3c0-0.6,0.3-1.2,0.8-1.8C32.9,30.8,33.6,30.5,34.6,30.5z"/>
	<path class="st0" d="M54,4.6l3.4-2.8c0.2-0.2,0.5-0.4,0.9-0.5c0.3-0.1,0.7-0.2,1-0.2c0.4,0,0.7,0.1,1,0.5c0.3,0.3,0.4,0.9,0.4,1.7
		v19.9c1.6-0.2,3-0.5,4.1-0.9c1.1-0.4,2-0.9,2.8-1.4c0.7-0.6,1.3-1.2,1.6-2c0.4-0.7,0.6-1.5,0.7-2.4c0.1-0.4,0-0.8-0.2-1.1
		c-0.2-0.3-0.3-0.6-0.3-0.9c0-0.2,0.1-0.3,0.2-0.5c0.1-0.1,0.2-0.2,0.4-0.3c0.2-0.1,0.5-0.1,0.8-0.1h3c0.9,0,1.4,0.3,1.4,0.9
		c0,0.3-0.1,0.6-0.2,0.8c-0.1,0.2-0.3,0.5-0.4,1c-0.3,1-0.7,1.9-1.2,2.7c-0.6,0.8-1.2,1.5-2,2.1s-1.6,1.1-2.5,1.6
		c-0.9,0.4-1.9,0.8-2.8,1.1c1.5,0.5,2.7,1.3,3.7,2.3c1,1,1.9,2.1,2.5,3.2c0.7,1.1,1.2,2.2,1.6,3.1c0.4,1,0.7,1.7,0.8,2.1
		c0.2,0.4,0.4,0.7,0.6,0.9c0.2,0.2,0.4,0.5,0.6,0.7c0.2,0.2,0.4,0.4,0.5,0.6c0.2,0.2,0.2,0.5,0.2,0.8c0,0.5-0.1,0.8-0.4,0.9
		c-0.3,0.1-0.7,0.2-1.1,0.2h-6.3c-0.4,0-0.8-0.2-1-0.6c-0.2-0.4-0.4-1.1-0.6-2c-0.2-1.1-0.5-2.2-0.8-3.4c-0.3-1.2-0.8-2.4-1.3-3.5
		c-0.5-1.1-1.2-2-1.9-2.7c-0.7-0.7-1.5-1.1-2.4-1.1v5.7c0,1,0.1,1.9,0.2,2.6c0.1,0.7,0.3,1.3,0.5,1.7c0.2,0.5,0.3,0.9,0.5,1.2
		c0.1,0.3,0.2,0.6,0.2,0.9c0,0.2-0.1,0.4-0.2,0.5c-0.1,0.2-0.2,0.3-0.4,0.4c-0.2,0.1-0.5,0.2-0.8,0.2H54c-0.9,0-1.4-0.4-1.4-1.1
		c0-0.3,0.1-0.6,0.2-0.9c0.1-0.3,0.3-0.7,0.5-1.2c0.2-0.5,0.3-1,0.5-1.7c0.2-0.7,0.2-1.5,0.2-2.6V8.7c-0.8-0.8-1.2-1.5-1.3-2.1
		C52.6,6.1,53,5.4,54,4.6z"/>
	<path class="st0" d="M91.4,13.6h3.5V11c0-1.7,0.3-3.2,0.9-4.5c0.6-1.3,1.4-2.4,2.4-3.2c1-0.9,2.2-1.5,3.5-2
		c1.4-0.4,2.8-0.6,4.4-0.6c1.2,0,2.3,0.1,3.3,0.3c1.1,0.2,2,0.5,2.8,0.9c0.8,0.4,1.5,0.9,2,1.5s0.8,1.3,0.8,2.1
		c0,0.6-0.3,1.2-0.8,1.8c-0.5,0.6-1.3,0.9-2.2,0.9c-0.6,0-1.1-0.1-1.5-0.4c-0.4-0.3-0.7-0.6-1-1.1c-0.3-0.4-0.5-0.9-0.7-1.4
		c-0.2-0.5-0.4-1-0.6-1.4c-0.2-0.4-0.5-0.8-0.8-1.1s-0.7-0.4-1.3-0.4c-0.6,0-1.2,0.1-1.7,0.4c-0.5,0.3-1,0.7-1.4,1.4
		c-0.4,0.7-0.8,1.6-1,2.7c-0.2,1.1-0.4,2.5-0.4,4.2v2.6h3.5c0.3,0,0.5,0.1,0.6,0.2c0.1,0.2,0.2,0.4,0.2,0.6s-0.1,0.4-0.2,0.6
		c-0.1,0.2-0.3,0.2-0.6,0.2h-3.5v15.8c0,1,0.1,1.9,0.2,2.6c0.2,0.7,0.3,1.3,0.5,1.7c0.2,0.5,0.3,0.9,0.5,1.2
		c0.2,0.3,0.2,0.6,0.2,0.9c0,0.2,0,0.4-0.1,0.5c-0.1,0.2-0.2,0.3-0.4,0.4c-0.2,0.1-0.5,0.2-0.8,0.2h-6.7c-0.3,0-0.5,0-0.7-0.1
		c-0.2-0.1-0.3-0.2-0.5-0.4c-0.2-0.2-0.2-0.4-0.2-0.6c0-0.3,0.1-0.6,0.2-0.9c0.2-0.3,0.3-0.7,0.5-1.2c0.2-0.5,0.3-1,0.5-1.7
		c0.1-0.7,0.2-1.5,0.2-2.6V15.3h-3.5c-0.3,0-0.5-0.1-0.6-0.2c-0.1-0.2-0.2-0.4-0.2-0.6s0.1-0.4,0.2-0.6
		C90.8,13.7,91.1,13.6,91.4,13.6z"/>
	<path class="st0" d="M117.3,13.1c1.9,0,3.6,0.3,5.1,0.9c1.5,0.6,2.7,1.5,3.7,2.7c1,1.1,1.8,2.5,2.3,4.1c0.5,1.6,0.8,3.4,0.8,5.3
		c0,1.9-0.3,3.7-0.8,5.3c-0.5,1.6-1.3,3-2.3,4.1c-1,1.2-2.2,2-3.7,2.7c-1.5,0.6-3.2,0.9-5.1,0.9s-3.6-0.3-5.1-0.9
		c-1.5-0.6-2.7-1.5-3.7-2.7c-1-1.1-1.8-2.5-2.3-4.1c-0.5-1.6-0.8-3.4-0.8-5.3c0-2,0.3-3.7,0.8-5.3c0.5-1.6,1.3-2.9,2.3-4.1
		c1-1.2,2.2-2,3.7-2.7C113.6,13.4,115.3,13.1,117.3,13.1z M112.8,26.1c0,1.9,0.1,3.6,0.4,5c0.3,1.4,0.6,2.6,1,3.6
		c0.4,0.9,0.9,1.6,1.5,2.1c0.5,0.5,1.1,0.7,1.6,0.7s1.1-0.2,1.6-0.7c0.5-0.4,1-1.1,1.5-2.1c0.4-0.9,0.8-2.1,1-3.6
		c0.3-1.4,0.4-3.1,0.4-5c0-2-0.1-3.7-0.4-5.1c-0.3-1.4-0.6-2.6-1-3.5c-0.4-0.9-0.9-1.6-1.5-2.1c-0.5-0.5-1.1-0.7-1.6-0.7
		s-1.1,0.2-1.6,0.7c-0.5,0.4-1,1.1-1.5,2.1c-0.4,0.9-0.8,2.1-1,3.5C112.9,22.5,112.8,24.1,112.8,26.1z"/>
	<path class="st0" d="M132,17.1l3.3-2.8c0.2-0.2,0.5-0.4,0.8-0.5s0.7-0.2,1-0.2c0.4,0,0.7,0.1,1,0.5c0.3,0.3,0.4,0.9,0.4,1.7V16
		c0.9-0.9,1.8-1.6,2.8-2.1c1-0.5,2.2-0.8,3.4-0.8c0.8,0,1.6,0.1,2.5,0.4c0.9,0.2,1.7,0.6,2.4,1c0.7,0.5,1.3,1,1.8,1.7
		c0.5,0.7,0.7,1.4,0.7,2.2c0,0.6-0.3,1.2-0.8,1.8c-0.5,0.6-1.3,0.9-2.2,0.9c-0.9,0-1.6-0.3-2.1-0.8c-0.5-0.5-0.9-1.2-1.2-1.8
		c-0.3-0.7-0.6-1.3-0.9-1.8c-0.3-0.5-0.7-0.8-1.3-0.8c-0.7,0-1.5,0.3-2.4,0.8c-0.9,0.6-1.8,1.3-2.7,2.2v12.2c0,1,0.1,1.9,0.2,2.6
		c0.1,0.7,0.3,1.3,0.5,1.7c0.2,0.5,0.3,0.9,0.5,1.2c0.2,0.3,0.2,0.6,0.2,0.9c0,0.2,0,0.4-0.2,0.5c-0.1,0.2-0.2,0.3-0.4,0.4
		c-0.2,0.1-0.5,0.2-0.8,0.2H132c-0.9,0-1.4-0.4-1.4-1.1c0-0.3,0.1-0.6,0.2-0.9c0.2-0.3,0.3-0.7,0.5-1.2c0.2-0.5,0.3-1,0.5-1.7
		c0.2-0.7,0.2-1.5,0.2-2.6v-9.9c0-0.6-0.1-1-0.3-1.4c-0.2-0.4-0.3-0.7-0.5-1c-0.1-0.3-0.1-0.5-0.1-0.8S131.5,17.5,132,17.1z"/>
</g>
</svg>
