<?xml version="1.0" encoding="utf-8"?>
<!-- Generator: Adobe Illustrator 26.3.1, SVG Export Plug-In . SVG Version: 6.00 Build 0)  -->
<svg version="1.1" id="Layer_1" xmlns="http://www.w3.org/2000/svg" xmlns:xlink="http://www.w3.org/1999/xlink" x="0px" y="0px"
	 viewBox="0 0 525 112" style="enable-background:new 0 0 525 112;" xml:space="preserve">
<style type="text/css">
	.st0{fill:#FFFFFF;}
	.st1{fill:#F0AB99;}
</style>
<g>
	<path class="st0" d="M22.8,15.9c1.6,0,3,1.3,3,3c0,1.8-1.5,3-3,3s-3-1.3-3-3C19.8,17.2,21.2,15.9,22.8,15.9z M20.3,26.5h5v24.1h-5
		V26.5z"/>
	<path class="st0" d="M33.6,43.3c0.5,0.7,1.1,1.2,1.7,1.7c1.2,0.8,2.6,1.6,4.6,1.6c2.8,0,4.3-1.5,4.3-3c0-4-12.8-2-12.8-10.6
		c0-3.8,3.3-7,8.8-7c2.9,0,5,0.9,6.4,1.7c0.9,0.5,1.6,1,2.1,1.6l-3.3,3.3c-0.4-0.4-0.9-0.7-1.4-1c-1-0.6-2.3-1-3.9-1
		c-2.6,0-3.8,1.3-3.8,2.5c0,4,12.8,2,12.8,10.6c0,4-3.5,7.5-9.3,7.5c-3.2,0-5.5-1.1-7.1-2.3c-1-0.7-1.8-1.4-2.4-2.3L33.6,43.3z"/>
	<path class="st0" d="M76,26c7,0,12.6,5.5,12.6,12.6c0,7-5.5,12.6-12.6,12.6c-7,0-12.6-5.5-12.6-12.6C63.5,31.5,69,26,76,26z
		 M83.6,38.5c0-4.6-3.3-7.8-7.5-7.8c-4.3,0-7.5,3.2-7.5,7.8c0,4.6,3.3,7.8,7.5,7.8C80.3,46.3,83.6,43.1,83.6,38.5z"/>
	<path class="st0" d="M91.1,26.5h5.5l6.8,17.8l6.8-17.8h5.5l-9.5,24.1h-5.5L91.1,26.5z"/>
	<path class="st0" d="M141.1,46.6c-0.7,0.9-1.5,1.6-2.5,2.3c-1.8,1.2-4.2,2.3-7.8,2.3c-7,0-12.6-5.5-12.6-12.6
		c0-7,5.5-12.6,12.3-12.6c6.8,0,11.8,5,11.8,11.8c0,0.8-0.1,1.4-0.1,1.8l-0.1,0.7h-18.6c0.6,3.3,3.5,6,7.5,6c2.2,0,3.9-0.8,5.1-1.6
		c0.7-0.5,1.4-1,1.9-1.7L141.1,46.6z M137.1,36c-0.8-3.3-3-5.5-6.5-5.5c-3.8,0-6,2.3-7,5.5H137.1z"/>
	<path class="st0" d="M147.9,26.5h5v3.3c0.6-0.7,1.2-1.3,1.9-1.9c1.2-1,3-1.9,5.4-1.9h1.3v5.3l-0.7-0.1c-0.4-0.1-0.8-0.2-1.4-0.2
		c-3.5,0-6.5,3-6.5,7.3v12.3h-5V26.5z"/>
</g>
<g>
	<path class="st1" d="M193.3,42.5c-11.5-0.9-19.9-9.1-19.9-19.9c0-10.7,9.1-19.9,22.3-19.9S218,11.9,218,22.6
		c0,4.1-1.4,7.6-2.6,10.2c-0.7,1.5-1.6,2.9-2.5,4.1L197.7,60h-15.9L193.3,42.5z M195.7,29.8c4.1,0,7.2-3.1,7.2-7.2s-3.1-7.2-7.2-7.2
		s-7.2,3.1-7.2,7.2S191.7,29.8,195.7,29.8z"/>
	<path class="st1" d="M243.4,42.5c-11.5-0.9-19.9-9.1-19.9-19.9c0-10.7,9.1-19.9,22.3-19.9s22.3,9.1,22.3,19.9
		c0,4.1-1.4,7.6-2.6,10.2c-0.7,1.5-1.6,2.9-2.5,4.1L247.8,60h-15.9L243.4,42.5z M245.8,29.8c4.1,0,7.2-3.1,7.2-7.2s-3.1-7.2-7.2-7.2
		s-7.2,3.1-7.2,7.2S241.8,29.8,245.8,29.8z"/>
</g>
<g>
	<path class="st1" d="M281,0.1c5.3,0,9.6,4.2,9.6,9s-4.2,9-9.6,9c-5.3,0-9.6-4.2-9.6-9S275.7,0.1,281,0.1z M300.4,0.9h8.5
		l-23.4,37.2H277L300.4,0.9z M281,12.3c1.9,0,3.2-1.3,3.2-3.2s-1.3-3.2-3.2-3.2c-1.9,0-3.2,1.3-3.2,3.2S279.2,12.3,281,12.3z
		 M304.9,20.8c5.3,0,9.6,4.2,9.6,9s-4.2,9-9.6,9c-5.3,0-9.6-4.2-9.6-9S299.6,20.8,304.9,20.8z M304.9,33c1.9,0,3.2-1.3,3.2-3.2
		s-1.3-3.2-3.2-3.2c-1.9,0-3.2,1.3-3.2,3.2S303.1,33,304.9,33z"/>
</g>
<g>
	<path class="st1" d="M317.9,8.7l-3.4-0.5l1.4-4.5l3.3,1.7l-0.7-3.8h5.1l-0.7,3.8l3.3-1.7l1.4,4.5L324,8.7l2.4,2.6L323,14l-2.1-3.4
		l-2.1,3.4l-3.4-2.7L317.9,8.7z"/>
</g>
<g>
	<path class="st0" d="M345.3,47.1c-0.7,0.9-1.5,1.6-2.5,2.3c-1.8,1.2-4.2,2.3-7.8,2.3c-7,0-12.5-5.5-12.5-12.5
		c0-7,5.5-12.5,12.3-12.5c6.8,0,11.8,5,11.8,11.8c0,0.8-0.1,1.4-0.1,1.8l-0.1,0.7h-18.6c0.6,3.3,3.5,6,7.5,6c2.2,0,3.9-0.8,5.1-1.6
		c0.7-0.5,1.4-1,1.9-1.7L345.3,47.1z M341.3,36.6c-0.8-3.3-3-5.5-6.5-5.5c-3.8,0-6,2.3-7,5.5H341.3z"/>
	<path class="st0" d="M353.8,31.8h-3.8v-4.8h3.8v-2.5c0-5.3,2.7-8,7.5-8c1.2,0,2.1,0.2,2.7,0.4c0.4,0.2,0.7,0.3,1.1,0.4V22l-0.8-0.4
		c-0.6-0.2-1.2-0.4-2-0.4c-2.4,0-3.5,1.3-3.5,3.8v2h10v-3.5c0-5.3,2.7-8,7.5-8c1.2,0,2.1,0.2,2.7,0.4c0.4,0.2,0.7,0.3,1.1,0.4V21
		l-0.8-0.4c-0.6-0.2-1.2-0.4-2-0.4c-2.4,0-3.5,1.3-3.5,3.8v3h5.8v4.8h-5.8v19.3h-5V31.8h-10v19.3h-5V31.8z"/>
	<path class="st0" d="M406,47.1c-0.7,0.9-1.5,1.6-2.5,2.3c-1.8,1.2-4.2,2.3-7.8,2.3c-7,0-12.5-5.5-12.5-12.5c0-7,5.5-12.5,12.3-12.5
		c6.8,0,11.8,5,11.8,11.8c0,0.8-0.1,1.4-0.1,1.8l-0.1,0.7h-18.6c0.6,3.3,3.5,6,7.5,6c2.2,0,3.9-0.8,5.1-1.6c0.7-0.5,1.4-1,1.9-1.7
		L406,47.1z M402,36.6c-0.8-3.3-3-5.5-6.5-5.5c-3.8,0-6,2.3-7,5.5H402z"/>
	<path class="st0" d="M434.1,46.6c-0.8,1-1.6,1.8-2.6,2.5c-1.8,1.3-4.3,2.5-7.7,2.5c-7,0-12.5-5.5-12.5-12.5c0-7,5.5-12.5,12.5-12.5
		c3.4,0,5.9,1.2,7.6,2.4c1,0.7,1.8,1.5,2.5,2.4l-3.5,3.3c-0.5-0.6-1-1.2-1.7-1.6c-1.2-0.8-2.7-1.7-4.9-1.7c-4.3,0-7.5,3.2-7.5,7.8
		c0,4.6,3.3,7.8,7.5,7.8c2.2,0,3.8-0.8,5-1.8c0.7-0.5,1.3-1.1,1.8-1.8L434.1,46.6z"/>
	<path class="st0" d="M441.4,31.8h-4.5v-4.8h2.8c1.6,0,2.3-0.8,2.3-2.8V19h4.5v8h5.5v4.8h-5.5v11.3c0,2.5,1.2,3.8,3.5,3.8
		c0.8,0,1.4-0.2,2-0.4l0.8-0.4v4.8l-1.1,0.4c-0.7,0.2-1.6,0.4-2.7,0.4c-4.8,0-7.5-2.8-7.5-8V31.8z"/>
	<path class="st0" d="M461.5,16.5c1.6,0,3,1.3,3,3c0,1.8-1.5,3-3,3c-1.6,0-3-1.3-3-3C458.5,17.8,459.9,16.5,461.5,16.5z M459,27.1h5
		v24.1h-5V27.1z"/>
	<path class="st0" d="M468.3,27.1h5.5l6.8,17.8l6.8-17.8h5.5l-9.5,24.1h-5.5L468.3,27.1z"/>
	<path class="st0" d="M518.2,47.1c-0.7,0.9-1.5,1.6-2.5,2.3c-1.8,1.2-4.2,2.3-7.8,2.3c-7,0-12.5-5.5-12.5-12.5
		c0-7,5.5-12.5,12.3-12.5c6.8,0,11.8,5,11.8,11.8c0,0.8-0.1,1.4-0.1,1.8l-0.1,0.7h-18.6c0.6,3.3,3.5,6,7.5,6c2.2,0,3.9-0.8,5.1-1.6
		c0.7-0.5,1.4-1,1.9-1.7L518.2,47.1z M514.2,36.6c-0.8-3.3-3-5.5-6.5-5.5c-3.8,0-6,2.3-7,5.5H514.2z"/>
</g>
<g>
	<path class="st0" d="M4.1,101l1.6,0.9l-0.5,1l-1.6-1l0,1.8H2.5l0-1.8l-1.6,0.9l-0.6-1l1.6-0.9l-1.6-0.9l0.6-1l1.6,1l0-1.8h1.1
		l0,1.8l1.6-1l0.5,1L4.1,101z"/>
	<path class="st0" d="M7.3,98.9h1.8v8.3h5.1v1.5H7.3V98.9z"/>
	<path class="st0" d="M22.5,105.5h-5.9c0.2,1.1,1.1,1.8,2.4,1.8c0.8,0,1.5-0.3,2-0.8l0.9,1.1c-0.7,0.8-1.7,1.2-3,1.2
		c-2.5,0-4.1-1.6-4.1-3.8c0-2.2,1.6-3.8,3.9-3.8c2.2,0,3.8,1.5,3.8,3.9C22.5,105.1,22.5,105.3,22.5,105.5z M16.6,104.3h4.2
		c-0.1-1.1-1-1.8-2.1-1.8C17.6,102.5,16.7,103.2,16.6,104.3z"/>
	<path class="st0" d="M23.4,107.9l0.7-1.3c0.7,0.4,1.7,0.7,2.6,0.7c1.1,0,1.6-0.3,1.6-0.8c0-1.4-4.6-0.1-4.6-3.1
		c0-1.4,1.3-2.3,3.3-2.3c1,0,2.1,0.2,2.8,0.6l-0.7,1.3c-0.7-0.4-1.4-0.6-2.1-0.6c-1.1,0-1.6,0.4-1.6,0.8c0,1.5,4.6,0.2,4.6,3.1
		c0,1.4-1.3,2.3-3.4,2.3C25.3,108.8,24,108.4,23.4,107.9z"/>
	<path class="st0" d="M30.6,107.9l0.7-1.3c0.7,0.4,1.7,0.7,2.6,0.7c1.1,0,1.6-0.3,1.6-0.8c0-1.4-4.6-0.1-4.6-3.1
		c0-1.4,1.3-2.3,3.3-2.3c1,0,2.1,0.2,2.8,0.6l-0.7,1.3c-0.7-0.4-1.4-0.6-2.1-0.6c-1.1,0-1.6,0.4-1.6,0.8c0,1.5,4.6,0.2,4.6,3.1
		c0,1.4-1.3,2.3-3.4,2.3C32.5,108.8,31.3,108.4,30.6,107.9z"/>
	<path class="st0" d="M47.1,108.3c-0.4,0.3-1.1,0.5-1.7,0.5c-1.6,0-2.6-0.9-2.6-2.5v-3.6h-1.2v-1.4h1.2v-1.7h1.8v1.7h2v1.4h-2v3.6
		c0,0.7,0.4,1.1,1,1.1c0.4,0,0.7-0.1,1-0.3L47.1,108.3z"/>
	<path class="st0" d="M56,104.4v4.3h-1.8v-4.1c0-1.3-0.7-2-1.8-2c-1.2,0-2.1,0.8-2.1,2.3v3.8h-1.8V98.3h1.8v3.8c0.6-0.6,1.5-1,2.5-1
		C54.6,101.1,56,102.1,56,104.4z"/>
	<path class="st0" d="M64.5,104.3v4.4h-1.7v-0.9c-0.4,0.6-1.2,1-2.4,1c-1.7,0-2.8-0.9-2.8-2.2c0-1.2,0.8-2.2,3.1-2.2h1.9v-0.1
		c0-1-0.6-1.6-1.9-1.6c-0.8,0-1.7,0.3-2.3,0.7l-0.7-1.3c0.8-0.6,2-0.9,3.2-0.9C63.2,101.1,64.5,102.1,64.5,104.3z M62.7,106.3v-0.9
		h-1.8c-1.2,0-1.5,0.4-1.5,1c0,0.6,0.5,1,1.4,1C61.7,107.5,62.4,107.1,62.7,106.3z"/>
	<path class="st0" d="M74.1,104.4v4.3h-1.8v-4.1c0-1.3-0.7-2-1.8-2c-1.2,0-2.1,0.8-2.1,2.3v3.8h-1.8v-7.5h1.7v1
		c0.6-0.7,1.5-1.1,2.6-1.1C72.8,101.1,74.1,102.1,74.1,104.4z"/>
	<path class="st0" d="M83.2,98.9v9.8h-1.8v-8.3h-2.1v-1.5H83.2z"/>
	<path class="st0" d="M97.5,104.9c0,2.3-1.6,3.8-3.8,3.8c-1,0-1.8-0.3-2.4-1v3.6h-1.8v-10.2h1.7v1c0.6-0.7,1.5-1.1,2.5-1.1
		C95.9,101.1,97.5,102.6,97.5,104.9z M95.8,104.9c0-1.4-1-2.3-2.2-2.3s-2.2,0.9-2.2,2.3s1,2.3,2.2,2.3S95.8,106.4,95.8,104.9z"/>
	<path class="st0" d="M103.6,101.1v1.7c-0.2,0-0.3,0-0.4,0c-1.3,0-2.2,0.8-2.2,2.3v3.6h-1.8v-7.5h1.7v1.1
		C101.4,101.5,102.3,101.1,103.6,101.1z"/>
	<path class="st0" d="M112,105.5h-5.9c0.2,1.1,1.1,1.8,2.4,1.8c0.8,0,1.5-0.3,2-0.8l0.9,1.1c-0.7,0.8-1.7,1.2-3,1.2
		c-2.5,0-4.1-1.6-4.1-3.8c0-2.2,1.6-3.8,3.9-3.8c2.2,0,3.8,1.5,3.8,3.9C112,105.1,112,105.3,112,105.5z M106.1,104.3h4.2
		c-0.1-1.1-1-1.8-2.1-1.8C107.1,102.5,106.3,103.2,106.1,104.3z"/>
	<path class="st0" d="M121.2,101.2v6.3c0,2.7-1.4,4-4,4c-1.4,0-2.8-0.4-3.6-1.1l0.8-1.3c0.7,0.5,1.7,0.9,2.8,0.9
		c1.7,0,2.4-0.8,2.4-2.3v-0.4c-0.6,0.7-1.5,1-2.5,1c-2.1,0-3.8-1.5-3.8-3.6c0-2.2,1.6-3.6,3.8-3.6c1.1,0,2,0.3,2.6,1.1v-1H121.2z
		 M119.5,104.7c0-1.3-1-2.1-2.3-2.1c-1.3,0-2.3,0.9-2.3,2.1c0,1.3,1,2.1,2.3,2.1C118.5,106.8,119.5,106,119.5,104.7z"/>
	<path class="st0" d="M130.9,104.4v4.3h-1.8v-4.1c0-1.3-0.7-2-1.8-2c-1.2,0-2.1,0.8-2.1,2.3v3.8h-1.8v-7.5h1.7v1
		c0.6-0.7,1.5-1.1,2.6-1.1C129.6,101.1,130.9,102.1,130.9,104.4z"/>
	<path class="st0" d="M139.4,104.3v4.4h-1.7v-0.9c-0.4,0.6-1.2,1-2.4,1c-1.7,0-2.8-0.9-2.8-2.2c0-1.2,0.8-2.2,3.1-2.2h1.9v-0.1
		c0-1-0.6-1.6-1.9-1.6c-0.8,0-1.7,0.3-2.3,0.7l-0.7-1.3c0.8-0.6,2-0.9,3.2-0.9C138.2,101.1,139.4,102.1,139.4,104.3z M137.7,106.3
		v-0.9h-1.8c-1.2,0-1.5,0.4-1.5,1c0,0.6,0.5,1,1.4,1C136.6,107.5,137.4,107.1,137.7,106.3z"/>
	<path class="st0" d="M149.1,104.4v4.3h-1.8v-4.1c0-1.3-0.7-2-1.8-2c-1.2,0-2.1,0.8-2.1,2.3v3.8h-1.8v-7.5h1.7v1
		c0.6-0.7,1.5-1.1,2.6-1.1C147.7,101.1,149.1,102.1,149.1,104.4z"/>
	<path class="st0" d="M150.8,104.9c0-2.2,1.7-3.8,4-3.8c1.5,0,2.6,0.6,3.2,1.7l-1.3,0.8c-0.4-0.7-1.1-1-1.9-1
		c-1.3,0-2.3,0.9-2.3,2.3c0,1.5,1,2.3,2.3,2.3c0.7,0,1.4-0.3,1.9-1l1.3,0.8c-0.6,1.1-1.7,1.8-3.2,1.8
		C152.5,108.8,150.8,107.2,150.8,104.9z"/>
	<path class="st0" d="M166.5,101.2l-3.5,8.1c-0.7,1.7-1.6,2.2-2.9,2.2c-0.7,0-1.5-0.3-2-0.7l0.7-1.3c0.3,0.3,0.8,0.5,1.3,0.5
		c0.6,0,1-0.3,1.3-1l0.1-0.3l-3.3-7.5h1.8l2.4,5.5l2.4-5.5H166.5z"/>
	<path class="st0" d="M179.5,104.9c0,2.3-1.6,3.8-3.8,3.8c-1,0-1.8-0.3-2.4-1v3.6h-1.8v-10.2h1.7v1c0.6-0.7,1.5-1.1,2.5-1.1
		C177.8,101.1,179.5,102.6,179.5,104.9z M177.7,104.9c0-1.4-1-2.3-2.2-2.3s-2.2,0.9-2.2,2.3s1,2.3,2.2,2.3S177.7,106.4,177.7,104.9z
		"/>
	<path class="st0" d="M188.2,105.5h-5.9c0.2,1.1,1.1,1.8,2.4,1.8c0.8,0,1.5-0.3,2-0.8l0.9,1.1c-0.7,0.8-1.7,1.2-3,1.2
		c-2.5,0-4.1-1.6-4.1-3.8c0-2.2,1.6-3.8,3.9-3.8c2.2,0,3.8,1.5,3.8,3.9C188.2,105.1,188.2,105.3,188.2,105.5z M182.3,104.3h4.2
		c-0.1-1.1-1-1.8-2.1-1.8C183.3,102.5,182.4,103.2,182.3,104.3z"/>
	<path class="st0" d="M194.2,101.1v1.7c-0.2,0-0.3,0-0.4,0c-1.3,0-2.2,0.8-2.2,2.3v3.6h-1.8v-7.5h1.7v1.1
		C192.1,101.5,193,101.1,194.2,101.1z"/>
	<path class="st0" d="M202.6,98.9v9.8h-1.8v-8.3h-2.1v-1.5H202.6z"/>
	<path class="st0" d="M204.6,103.8c0-3.2,1.8-5,4.1-5c2.3,0,4.1,1.8,4.1,5s-1.8,5-4.1,5C206.3,108.8,204.6,107,204.6,103.8z
		 M210.9,103.8c0-2.4-0.9-3.5-2.3-3.5c-1.3,0-2.3,1.1-2.3,3.5s0.9,3.5,2.3,3.5C210,107.2,210.9,106.1,210.9,103.8z"/>
	<path class="st0" d="M214,103.8c0-3.2,1.8-5,4.1-5c2.3,0,4.1,1.8,4.1,5s-1.8,5-4.1,5C215.8,108.8,214,107,214,103.8z M220.4,103.8
		c0-2.4-0.9-3.5-2.3-3.5c-1.3,0-2.3,1.1-2.3,3.5s0.9,3.5,2.3,3.5C219.5,107.2,220.4,106.1,220.4,103.8z"/>
	<path class="st0" d="M239.6,101.2l-2.8,7.5h-1.7l-1.9-5.2l-2,5.2h-1.7l-2.7-7.5h1.7l2,5.5l2.1-5.5h1.5l2,5.5l2-5.5H239.6z"/>
	<path class="st0" d="M240,104.9c0-2.2,1.7-3.8,4-3.8c2.3,0,4,1.6,4,3.8s-1.7,3.8-4,3.8C241.7,108.8,240,107.2,240,104.9z
		 M246.2,104.9c0-1.4-1-2.3-2.2-2.3c-1.3,0-2.2,0.9-2.2,2.3s1,2.3,2.2,2.3C245.3,107.3,246.2,106.4,246.2,104.9z"/>
	<path class="st0" d="M262.2,104.4v4.3h-1.8v-4.1c0-1.3-0.6-2-1.7-2c-1.1,0-1.9,0.8-1.9,2.2v3.8h-1.8v-4.1c0-1.3-0.6-2-1.7-2
		c-1.2,0-1.9,0.8-1.9,2.2v3.8h-1.8v-7.5h1.7v1c0.6-0.7,1.4-1,2.5-1c1.1,0,2,0.4,2.5,1.2c0.6-0.8,1.6-1.2,2.8-1.2
		C261,101.1,262.2,102.1,262.2,104.4z"/>
	<path class="st0" d="M271.6,105.5h-5.9c0.2,1.1,1.1,1.8,2.4,1.8c0.8,0,1.5-0.3,2-0.8l0.9,1.1c-0.7,0.8-1.7,1.2-3,1.2
		c-2.5,0-4.1-1.6-4.1-3.8c0-2.2,1.6-3.8,3.9-3.8c2.2,0,3.8,1.5,3.8,3.9C271.6,105.1,271.6,105.3,271.6,105.5z M265.7,104.3h4.2
		c-0.1-1.1-1-1.8-2.1-1.8C266.7,102.5,265.9,103.2,265.7,104.3z"/>
	<path class="st0" d="M280.7,104.4v4.3h-1.8v-4.1c0-1.3-0.7-2-1.8-2c-1.2,0-2.1,0.8-2.1,2.3v3.8h-1.8v-7.5h1.7v1
		c0.6-0.7,1.5-1.1,2.6-1.1C279.4,101.1,280.7,102.1,280.7,104.4z"/>
	<path class="st0" d="M298.5,101.2l-2.8,7.5h-1.7l-1.9-5.2l-2,5.2h-1.7l-2.7-7.5h1.7l2,5.5l2.1-5.5h1.5l2,5.5l2-5.5H298.5z"/>
	<path class="st0" d="M307.1,104.4v4.3h-1.8v-4.1c0-1.3-0.7-2-1.8-2c-1.2,0-2.1,0.8-2.1,2.3v3.8h-1.8V98.3h1.8v3.8
		c0.6-0.6,1.5-1,2.5-1C305.8,101.1,307.1,102.1,307.1,104.4z"/>
	<path class="st0" d="M308.9,104.9c0-2.2,1.7-3.8,4-3.8c2.3,0,4,1.6,4,3.8s-1.7,3.8-4,3.8C310.5,108.8,308.9,107.2,308.9,104.9z
		 M315.1,104.9c0-1.4-1-2.3-2.2-2.3c-1.3,0-2.2,0.9-2.2,2.3s1,2.3,2.2,2.3C314.1,107.3,315.1,106.4,315.1,104.9z"/>
	<path class="st0" d="M329.7,101.2v7.5H328v-1c-0.6,0.7-1.4,1-2.4,1c-1.9,0-3.2-1-3.2-3.3v-4.3h1.8v4c0,1.4,0.6,2,1.8,2
		c1.2,0,2-0.8,2-2.3v-3.8H329.7z"/>
	<path class="st0" d="M331.2,107.9l0.7-1.3c0.7,0.4,1.7,0.7,2.6,0.7c1.1,0,1.6-0.3,1.6-0.8c0-1.4-4.6-0.1-4.6-3.1
		c0-1.4,1.3-2.3,3.3-2.3c1,0,2.1,0.2,2.8,0.6l-0.7,1.3c-0.7-0.4-1.4-0.6-2.1-0.6c-1.1,0-1.6,0.4-1.6,0.8c0,1.5,4.6,0.2,4.6,3.1
		c0,1.4-1.3,2.3-3.4,2.3C333.1,108.8,331.8,108.4,331.2,107.9z"/>
	<path class="st0" d="M346.3,105.5h-5.9c0.2,1.1,1.1,1.8,2.4,1.8c0.8,0,1.5-0.3,2-0.8l0.9,1.1c-0.7,0.8-1.7,1.2-3,1.2
		c-2.5,0-4.1-1.6-4.1-3.8c0-2.2,1.6-3.8,3.9-3.8c2.2,0,3.8,1.5,3.8,3.9C346.3,105.1,346.3,105.3,346.3,105.5z M340.4,104.3h4.2
		c-0.1-1.1-1-1.8-2.1-1.8C341.4,102.5,340.6,103.2,340.4,104.3z"/>
	<path class="st0" d="M355.4,98.3v10.4h-1.7v-1c-0.6,0.7-1.5,1.1-2.5,1.1c-2.2,0-3.8-1.5-3.8-3.8s1.6-3.8,3.8-3.8c1,0,1.8,0.3,2.4,1
		v-3.8H355.4z M353.6,104.9c0-1.4-1-2.3-2.2-2.3s-2.2,0.9-2.2,2.3s1,2.3,2.2,2.3S353.6,106.4,353.6,104.9z"/>
	<path class="st0" d="M370.5,98.9v9.8H369l-5.4-6.6v6.6h-1.8v-9.8h1.5l5.4,6.6v-6.6H370.5z"/>
	<path class="st0" d="M380.5,107.1v1.5h-7.4v-9.8h7.2v1.5H375v2.5h4.7v1.5H375v2.7H380.5z"/>
	<path class="st0" d="M388.6,108.7l-2.7-3.7l-2.6,3.7h-2.1l3.6-5l-3.4-4.8h2.1l2.5,3.5l2.5-3.5h2l-3.4,4.7l3.7,5.1H388.6z"/>
	<path class="st0" d="M400.1,102.3c0,2.2-1.6,3.5-4.2,3.5h-2.2v2.8h-1.8v-9.8h4C398.5,98.9,400.1,100.2,400.1,102.3z M398.2,102.3
		c0-1.2-0.8-1.9-2.4-1.9h-2.1v3.9h2.1C397.4,104.3,398.2,103.6,398.2,102.3z"/>
	<path class="st0" d="M401.9,98.9h1.8v8.3h5.1v1.5h-6.9V98.9z"/>
	<path class="st0" d="M416.8,106.4h-4.9l-1,2.3h-1.9l4.4-9.8h1.8l4.4,9.8h-1.9L416.8,106.4z M416.2,105l-1.8-4.3l-1.8,4.3H416.2z"/>
	<path class="st0" d="M429.7,98.9v9.8h-1.5l-5.4-6.6v6.6H421v-9.8h1.5l5.4,6.6v-6.6H429.7z"/>
	<path class="st0" d="M431.6,103.8c0-2.9,2.2-5,5.3-5c3,0,5.3,2.1,5.3,5c0,2.9-2.2,5-5.3,5C433.9,108.8,431.6,106.7,431.6,103.8z
		 M440.4,103.8c0-2-1.5-3.4-3.4-3.4c-2,0-3.4,1.4-3.4,3.4s1.5,3.4,3.4,3.4C438.9,107.2,440.4,105.8,440.4,103.8z"/>
	<path class="st0" d="M452.9,98.9v9.8h-1.5L446,102v6.6h-1.8v-9.8h1.5l5.4,6.6v-6.6H452.9z"/>
	<path class="st0" d="M461.2,100.8v0.4h2.1v1.4h-2v6h-1.8v-6h-1.2v-1.4h1.2v-0.5c0-1.6,0.9-2.6,2.7-2.6c0.6,0,1.2,0.1,1.6,0.4
		l-0.5,1.3c-0.3-0.2-0.6-0.3-1-0.3C461.6,99.6,461.2,100,461.2,100.8z"/>
	<path class="st0" d="M463.8,104.9c0-2.2,1.7-3.8,4-3.8c2.3,0,4,1.6,4,3.8s-1.7,3.8-4,3.8C465.5,108.8,463.8,107.2,463.8,104.9z
		 M470,104.9c0-1.4-1-2.3-2.2-2.3c-1.3,0-2.2,0.9-2.2,2.3s1,2.3,2.2,2.3C469,107.3,470,106.4,470,104.9z"/>
	<path class="st0" d="M477.8,101.1v1.7c-0.2,0-0.3,0-0.4,0c-1.3,0-2.2,0.8-2.2,2.3v3.6h-1.8v-7.5h1.7v1.1
		C475.6,101.5,476.5,101.1,477.8,101.1z"/>
	<path class="st0" d="M486.2,98.9v9.8h-1.8v-8.3h-2.1v-1.5H486.2z"/>
	<path class="st0" d="M499.6,101.2l-3.5,8.1c-0.7,1.7-1.6,2.2-2.9,2.2c-0.7,0-1.5-0.3-2-0.7l0.7-1.3c0.3,0.3,0.8,0.5,1.3,0.5
		c0.6,0,1-0.3,1.3-1l0.1-0.3l-3.3-7.5h1.8l2.4,5.5l2.4-5.5H499.6z"/>
	<path class="st0" d="M507.5,105.5h-5.9c0.2,1.1,1.1,1.8,2.4,1.8c0.8,0,1.5-0.3,2-0.8l0.9,1.1c-0.7,0.8-1.7,1.2-3,1.2
		c-2.5,0-4.1-1.6-4.1-3.8c0-2.2,1.6-3.8,3.9-3.8c2.2,0,3.8,1.5,3.8,3.9C507.5,105.1,507.5,105.3,507.5,105.5z M501.6,104.3h4.2
		c-0.1-1.1-1-1.8-2.1-1.8C502.6,102.5,501.8,103.2,501.6,104.3z"/>
	<path class="st0" d="M515.3,104.3v4.4h-1.7v-0.9c-0.4,0.6-1.2,1-2.4,1c-1.7,0-2.8-0.9-2.8-2.2c0-1.2,0.8-2.2,3.1-2.2h1.9v-0.1
		c0-1-0.6-1.6-1.9-1.6c-0.8,0-1.7,0.3-2.3,0.7l-0.7-1.3c0.8-0.6,2-0.9,3.2-0.9C514.1,101.1,515.3,102.1,515.3,104.3z M513.6,106.3
		v-0.9h-1.8c-1.2,0-1.5,0.4-1.5,1c0,0.6,0.5,1,1.4,1C512.5,107.5,513.3,107.1,513.6,106.3z"/>
	<path class="st0" d="M521.9,101.1v1.7c-0.2,0-0.3,0-0.4,0c-1.3,0-2.2,0.8-2.2,2.3v3.6h-1.8v-7.5h1.7v1.1
		C519.8,101.5,520.7,101.1,521.9,101.1z"/>
	<path class="st0" d="M522.8,107.6c0-0.7,0.5-1.2,1.1-1.2c0.6,0,1.1,0.5,1.1,1.2c0,0.7-0.5,1.2-1.1,1.2
		C523.3,108.8,522.8,108.3,522.8,107.6z"/>
</g>
</svg>
