<?xml version="1.0" encoding="utf-8"?>
<!-- Generator: Adobe Illustrator 26.3.1, SVG Export Plug-In . SVG Version: 6.00 Build 0)  -->
<svg version="1.1" id="Layer_1" xmlns="http://www.w3.org/2000/svg" xmlns:xlink="http://www.w3.org/1999/xlink" x="0px" y="0px"
	 viewBox="0 0 171 30" style="enable-background:new 0 0 171 30;" xml:space="preserve">
<style type="text/css">
	.st0{fill:#F0AB99;}
	.st1{fill:#0C2F54;}
</style>
<path class="st0" d="M158.3,30H12.7C5.7,30,0,24.3,0,17.3v-4.7C0,5.7,5.7,0,12.7,0h145.7c7,0,12.7,5.7,12.7,12.7v4.7
	C171,24.3,165.3,30,158.3,30z"/>
<g>
	<path class="st1" d="M36,10.7h3.4v1.4h0.1c0.2-0.3,0.4-0.6,0.6-0.8c0.5-0.4,1.2-0.8,2.2-0.8c2,0,3.5,1.5,3.5,4.1v6h-3.4v-5.3
		c0-1-0.6-1.6-1.4-1.6c-0.9,0-1.6,0.7-1.6,1.8v5.1H36V10.7z"/>
	<path class="st1" d="M55.2,19.2h-0.1c-0.2,0.3-0.4,0.6-0.7,0.8c-0.5,0.4-1.2,0.8-2.3,0.8c-2.3,0-4.4-2-4.4-5.2c0-3.1,2-5.2,4.4-5.2
		c1.1,0,1.8,0.4,2.3,0.8c0.3,0.2,0.5,0.5,0.7,0.8h0.1V6.5h3.4v14.2h-3.4V19.2z M55.2,15.7c0-1.1-0.9-2-1.9-2s-1.9,0.9-1.9,2
		c0,1.1,0.9,2,1.9,2S55.2,16.8,55.2,15.7z"/>
	<path class="st1" d="M70.7,19.3h-0.1c-0.2,0.3-0.4,0.5-0.6,0.8c-0.4,0.4-1.1,0.7-2,0.7c-1.8,0-3.1-1.3-3.1-2.8c0-1.7,1.1-2.8,3-3.2
		l2.8-0.6c-0.1-0.5-0.6-1-1.4-1c-0.7,0-1.2,0.3-1.5,0.5c-0.2,0.1-0.4,0.3-0.5,0.5l-1.8-1.7c0.3-0.3,0.7-0.7,1.1-1
		c0.7-0.5,1.7-1,3.1-1c2.8,0,4.6,1.8,4.6,4v6.2h-3.4V19.3z M70.7,16.2l-1.4,0.3c-0.5,0.1-0.9,0.5-0.9,0.9c0,0.5,0.3,0.8,0.9,0.8
		c0.8,0,1.4-0.6,1.4-1.7V16.2z"/>
	<path class="st1" d="M87.8,19.2h-0.1c-0.2,0.3-0.4,0.6-0.7,0.8c-0.5,0.4-1.2,0.8-2.3,0.8c-2.3,0-4.4-2-4.4-5.2c0-3.1,2-5.2,4.4-5.2
		c1.1,0,1.8,0.4,2.3,0.8c0.3,0.2,0.5,0.5,0.7,0.8h0.1V6.5h3.4v14.2h-3.4V19.2z M87.8,15.7c0-1.1-0.9-2-1.9-2s-1.9,0.9-1.9,2
		c0,1.1,0.9,2,1.9,2S87.8,16.8,87.8,15.7z"/>
	<path class="st1" d="M97.5,10.5c3.1,0,5.5,2.3,5.5,5.2s-2.3,5.2-5.5,5.2c-3.1,0-5.5-2.3-5.5-5.2S94.4,10.5,97.5,10.5z M99.4,15.7
		c0-1.1-0.9-2-1.9-2s-1.9,0.9-1.9,2c0,1.1,0.9,2,1.9,2S99.4,16.8,99.4,15.7z"/>
	<path class="st1" d="M114.1,18.8c-0.3,0.4-0.6,0.7-1,1c-0.7,0.5-1.8,1-3.2,1c-3.1,0-5.5-2.3-5.5-5.2s2.3-5.2,5.5-5.2
		c1.5,0,2.5,0.5,3.2,1c0.4,0.3,0.7,0.6,1,1l-2,2.1c-0.1-0.2-0.3-0.4-0.5-0.5c-0.3-0.2-0.8-0.5-1.5-0.5c-1.2,0-2.1,0.9-2.1,2
		c0,1.1,0.9,2,2.1,2c0.6,0,1.2-0.2,1.5-0.5c0.2-0.1,0.4-0.3,0.5-0.5L114.1,18.8z"/>
	<path class="st1" d="M116.5,14.2h-1.4v-3.2h0.6c0.7,0,1.2-0.5,1.2-1.2V7.9h3v3h1.9v3.2H120v2.2c0,0.8,0.4,1.2,1.1,1.2
		c0.3,0,0.5,0,0.7-0.1c0.1,0,0.2-0.1,0.3-0.1v3.1l-0.6,0.2c-0.4,0.1-0.9,0.1-1.4,0.1c-2.1,0-3.5-1.4-3.5-3.8V14.2z"/>
	<path class="st1" d="M129,10.5c3.1,0,5.5,2.3,5.5,5.2s-2.3,5.2-5.5,5.2c-3.1,0-5.5-2.3-5.5-5.2S125.8,10.5,129,10.5z M130.9,15.7
		c0-1.1-0.9-2-1.9-2c-1,0-1.9,0.9-1.9,2c0,1.1,0.9,2,1.9,2C130,17.7,130.9,16.8,130.9,15.7z"/>
	<path class="st1" d="M136.3,10.7h3.4v1.2c0.2-0.2,0.4-0.5,0.7-0.6c0.5-0.3,1.1-0.7,2-0.7h0.4v3.6l-0.3-0.1
		c-0.2-0.1-0.4-0.1-0.7-0.1c-1.3,0-2.1,0.8-2.1,2.3v4.2h-3.4V10.7z"/>
	<g>
		<path class="st1" d="M31.8,5.9c1.1,0,1.9,0.8,1.9,1.8c0,1-0.8,1.8-1.9,1.8c-1.1,0-1.9-0.8-1.9-1.8C29.8,6.7,30.6,5.9,31.8,5.9z
			 M30,10.6h3.4v9.9H30V10.6z"/>
	</g>
	<g>
		<path class="st1" d="M22.2,14.2h-1.3V11h1.3v-1c0-2.4,1.4-3.8,3.5-3.8c0.5,0,1.1,0.1,1.4,0.2l0.6,0.1v3.1l-0.3-0.1
			c-0.2-0.1-0.4-0.1-0.7-0.1c-0.7,0-1.1,0.4-1.1,1.2V11h2.1v3.2h-2.1v6.3h-3.4V14.2z"/>
	</g>
</g>
<g>
	<polygon class="st1" points="148.9,19.6 147.4,17.7 151.2,14.6 147.3,10.7 149,8.9 155,14.9 	"/>
</g>
</svg>
