<?xml version="1.0" encoding="utf-8"?>
<!-- Generator: Adobe Illustrator 26.3.1, SVG Export Plug-In . SVG Version: 6.00 Build 0)  -->
<svg version="1.1" id="Layer_1" xmlns="http://www.w3.org/2000/svg" xmlns:xlink="http://www.w3.org/1999/xlink" x="0px" y="0px"
	 viewBox="0 0 1298 118" style="enable-background:new 0 0 1298 118;" xml:space="preserve">
<style type="text/css">
	.st0{fill:#FFFFFF;}
</style>
<g>
	<polygon class="st0" points="74.5,83.7 4.4,3 -0.2,3 -0.2,114.6 14.1,114.6 14.1,34.9 83.5,114.6 88.2,114.6 88.2,3 74.5,3 	"/>
	<polygon class="st0" points="159.3,114.6 224.1,114.6 224.1,100.9 173.2,100.9 173.2,61.3 224.1,61.3 224.1,47.6 173.2,47.6 
		173.2,16.6 224.6,16.6 224.6,3 159.3,3 	"/>
	<polygon class="st0" points="365.3,3 349.2,3 323.9,43.9 298.7,3 282.5,3 315.7,57 280.1,114.6 296.4,114.6 323.8,70.1 
		351.2,114.6 367.4,114.6 331.9,56.9 	"/>
	<path class="st0" d="M475.2,4.7C470.7,3.5,462.4,3,449.7,3h-23.1v111.6h13.9V64.1h6.2c13.7,0,22.9-0.6,28-1.8
		c7-1.7,12.6-5.1,16.7-10c4-5,6.1-11.3,6.1-18.9c0-7.5-2.1-13.9-6.3-18.9C487.1,9.6,481.7,6.2,475.2,4.7z M483.2,33.5
		c0,3.4-0.9,6.5-2.7,9.3c-1.8,2.7-4.3,4.7-7.4,6c-3.2,1.3-8.6,1.9-15.7,1.9l-16.9-0.2V16.6h17.7c7.1,0,12.2,0.6,15.3,1.8
		c2.9,1.2,5.3,3.1,7.1,5.9C482.3,27.1,483.2,30.1,483.2,33.5z"/>
	<polygon class="st0" points="573.3,3 559.4,3 559.4,114.6 615,114.6 615,101.1 573.3,101.1 	"/>
	<path class="st0" d="M727.1,3h-4.6l-52.7,111.6h15.4l16.9-35.7H747l17.1,35.7h15L727.5,3.9L727.1,3z M740.9,65.3h-32.3l16.2-34.2
		L740.9,65.3z"/>
	<polygon class="st0" points="912.7,83.7 842.6,3 838.1,3 838.1,114.6 852.3,114.6 852.3,34.9 921.8,114.6 926.4,114.6 926.4,3 
		912.7,3 	"/>
	<path class="st0" d="M1049.7,0.3c-10.4,0-20.1,2.6-29,7.8c-8.9,5.2-16,12.4-21.2,21.5c-5.2,9.1-7.8,19.1-7.8,29.7
		c0,16,5.7,29.8,17.1,41.1c11.3,11.3,25.4,17,41.8,17c16.2,0,30.2-5.7,41.5-17c11.3-11.3,17-25.3,17-41.5c0-16.4-5.7-30.4-17.1-41.6
		C1080.7,5.9,1066.5,0.3,1049.7,0.3z M1094.8,58.7c0,8.4-2,16.1-5.8,22.9c-3.9,6.8-9.3,12.3-16.2,16.2c-6.9,3.9-14.5,5.9-22.6,5.9
		c-12.1,0-22.7-4.3-31.3-12.9c-8.6-8.6-13-19.2-13-31.6c0-8.4,2-16.1,5.9-23c3.9-6.8,9.4-12.3,16.3-16.4c6.9-4,14.4-6.1,22.1-6.1
		c7.9,0,15.4,2,22.5,6.1c7,4,12.5,9.5,16.4,16.2C1092.9,42.8,1094.8,50.4,1094.8,58.7z"/>
	<polygon class="st0" points="1249.4,83.7 1179.4,3 1174.8,3 1174.8,114.6 1189,114.6 1189,34.9 1258.5,114.6 1263.1,114.6 
		1263.1,3 1249.4,3 	"/>
	<path class="st0" d="M1291.5,18.7v-1.5c0-0.9-0.1-1.6-0.3-2c-0.2-0.4-0.6-0.7-1.2-1c0.7-0.4,1.1-0.8,1.3-1.2
		c0.3-0.5,0.4-1.1,0.4-1.8c0-0.8-0.2-1.5-0.5-2.1c-0.4-0.6-0.8-1-1.4-1.3c-0.6-0.3-1.5-0.4-2.8-0.4h-5.6v13.4h2.1v-5.6h3.3
		c0.8,0,1.4,0.1,1.7,0.2c0.3,0.1,0.5,0.3,0.6,0.5c0.2,0.2,0.2,0.7,0.3,1.3l0.1,1.6c0.1,0.8,0.2,1.4,0.3,2h2.4l-0.2-0.4
		C1291.6,20,1291.5,19.4,1291.5,18.7z M1288.7,13c-0.4,0.2-1,0.3-2,0.3h-3.3v-4h3.4c1,0,1.7,0.2,2.1,0.5s0.6,0.8,0.6,1.5
		C1289.5,12.1,1289.2,12.6,1288.7,13z"/>
	<path class="st0" d="M1296.1,8.4c-1-1.8-2.5-3.2-4.2-4.3c-1.8-1-3.7-1.5-5.8-1.5s-4,0.5-5.8,1.6c-1.8,1-3.2,2.5-4.3,4.3
		c-1,1.8-1.6,3.8-1.6,5.8c0,2,0.5,4,1.6,5.8c1,1.8,2.5,3.2,4.3,4.2c1.8,1,3.7,1.6,5.8,1.6s4-0.5,5.8-1.6c1.8-1,3.2-2.5,4.3-4.2
		c1-1.8,1.5-3.7,1.5-5.8C1297.7,12.1,1297.2,10.2,1296.1,8.4z M1294.8,19.2c-0.9,1.5-2.1,2.8-3.7,3.7c-1.5,0.9-3.2,1.4-5,1.4
		c-1.8,0-3.4-0.4-5-1.3c-1.6-0.9-2.8-2.1-3.7-3.7c-0.9-1.5-1.3-3.2-1.3-5c0-1.8,0.4-3.5,1.3-5c0.9-1.6,2.1-2.8,3.7-3.7
		c1.6-0.9,3.2-1.3,5-1.3c1.8,0,3.4,0.4,5,1.3c1.5,0.9,2.8,2.1,3.6,3.7c0.9,1.6,1.3,3.2,1.3,5C1296.1,16,1295.7,17.7,1294.8,19.2z"/>
</g>
</svg>
