<?xml version="1.0" encoding="utf-8"?>
<!-- Generator: Adobe Illustrator 26.3.1, SVG Export Plug-In . SVG Version: 6.00 Build 0)  -->
<svg version="1.1" id="Layer_1" xmlns="http://www.w3.org/2000/svg" xmlns:xlink="http://www.w3.org/1999/xlink" x="0px" y="0px"
	 viewBox="0 0 1264 240" style="enable-background:new 0 0 1264 240;" xml:space="preserve">
<style type="text/css">
	.st0{fill:#FFFFFF;}
</style>
<g>
	<path class="st0" d="M17,7.5C11.3,22.7,9,39.3,9,55.9C9,72.4,11.3,89,17,104.2l-7.2,3.4c-7.1-15-9.2-35.5-9.2-51.8
		c0-16.3,2.1-36.8,9.2-51.8L17,7.5z"/>
	<path class="st0" d="M32,61.5c0.1,8.8,6.3,15.8,15.5,15.8c6.9,0,11.3-4.1,14.4-9.8l6.9,3.9c-4.5,8.5-12.2,13.3-21.9,13.3
		c-14.1,0-23.2-10.8-23.2-24.4c0-14,8.2-25.6,23-25.6c15.2,0,23.3,12.6,22.5,26.7H32z M60.7,54.6c-1.1-6.9-6.9-12.4-13.9-12.4
		c-7,0-13.4,5.5-14.4,12.4H60.7z"/>
	<path class="st0" d="M91.2,83.5h-8.1V43.6h-4.9v-7.5h4.9v-17h8.1v17h8.5v7.5h-8.5V83.5z"/>
	<path class="st0" d="M107.2,59.9c0-13.9,11-25.1,24.9-25.1S157,46,157,59.9s-11.1,24.9-24.9,24.9C118.3,84.8,107.2,73.8,107.2,59.9
		z M115.3,59.8c0,9.7,6.9,17.5,16.8,17.5c10,0,16.8-7.9,16.8-17.5c0-9.6-6.9-17.5-16.8-17.5C122.1,42.3,115.3,50.2,115.3,59.8z"/>
	<path class="st0" d="M175.6,41.9h0.2c3.3-4.5,7.7-7.1,13.5-7.1c13.1,0,16.1,9.5,16.1,20.6v28.1h-8.1V56.8c0-7.7-0.6-14.5-10-14.5
		c-11.1,0-11.8,10.3-11.8,18.7v22.5h-8.1V36.1h8.1V41.9z"/>
	<path class="st0" d="M217,59.9c0-13.9,11-25.1,24.9-25.1c13.9,0,24.9,11.2,24.9,25.1s-11.1,24.9-24.9,24.9
		C228.1,84.8,217,73.8,217,59.9z M225.1,59.8c0,9.7,6.9,17.5,16.8,17.5c10,0,16.8-7.9,16.8-17.5c0-9.6-6.9-17.5-16.8-17.5
		C231.9,42.3,225.1,50.2,225.1,59.8z"/>
	<path class="st0" d="M325.1,81.2c0,7.6,0,14.1-4.8,20.4c-4.4,5.6-11.3,8.4-18.3,8.4c-13.2,0-23-8.4-23.3-21.8h8.1
		c0.1,8.8,6.4,14.3,15.1,14.3c12.5,0,15.2-9.2,15.2-19.8v-5.6h-0.2c-3.8,4.9-10.1,7.9-16.4,7.9c-13.8,0-22.6-11.6-22.6-24.8
		c0-13.3,8.9-25.2,22.9-25.2c6.5,0,12.3,2.9,16.1,8.1h0.2v-6.8h8.1V81.2z M286.2,59.3c0,9.3,5.4,18,15.5,18
		c10.4,0,15.8-8.4,15.8-17.9c0-9.5-5.9-17.1-15.9-17.1C292.2,42.3,286.2,50.4,286.2,59.3z"/>
	<path class="st0" d="M347.4,61.5c0.1,8.8,6.3,15.8,15.5,15.8c6.9,0,11.3-4.1,14.4-9.8l6.9,3.9c-4.5,8.5-12.2,13.3-21.9,13.3
		c-14.1,0-23.2-10.8-23.2-24.4c0-14,8.2-25.6,23-25.6c15.2,0,23.3,12.6,22.5,26.7H347.4z M376.1,54.6c-1.1-6.9-6.9-12.4-13.9-12.4
		c-7,0-13.4,5.5-14.4,12.4H376.1z"/>
	<path class="st0" d="M418.3,47.1c-1.1-2.5-3.5-4.8-6.4-4.8c-2.8,0-5.8,2.2-5.8,5.2c0,4.3,5.4,5.9,11,8.3c5.5,2.3,11,5.6,11,13.6
		c0,9-7.3,15.4-16,15.4c-8,0-14.2-4.5-16.7-12l7.2-3c2,4.4,4.3,7.6,9.7,7.6c4.3,0,7.7-2.9,7.7-7.3c0-10.6-21.4-7-21.4-21.9
		c0-8,6.4-13.4,14.1-13.4c5.4,0,10.5,3.8,12.6,8.8L418.3,47.1z"/>
	<path class="st0" d="M451.4,83.5h-8.1V43.6h-4.9v-7.5h4.9v-17h8.1v17h8.5v7.5h-8.5V83.5z"/>
	<path class="st0" d="M479.8,41.2h0.2c2.8-3.7,5.2-6.4,10.5-6.4c2.7,0,4.9,0.9,7.3,2.2l-3.8,7.4c-1.6-1.1-2.7-2.1-4.8-2.1
		c-8.9,0-9.3,11.4-9.3,17.5v23.7h-8.1V36.1h8.1V41.2z"/>
	<path class="st0" d="M510.9,61.5c0.1,8.8,6.3,15.8,15.5,15.8c6.9,0,11.3-4.1,14.4-9.8l6.9,3.9c-4.5,8.5-12.2,13.3-21.9,13.3
		c-14.1,0-23.2-10.8-23.2-24.4c0-14,8.2-25.6,23-25.6c15.2,0,23.3,12.6,22.5,26.7H510.9z M539.7,54.6c-1.1-6.9-6.9-12.4-13.9-12.4
		c-7,0-13.4,5.5-14.4,12.4H539.7z"/>
	<path class="st0" d="M567.4,83.5h-8.1V0.3h8.1V83.5z"/>
	<path class="st0" d="M624.9,18.3c0,3.2-2.6,5.7-5.7,5.7c-3.1,0-5.7-2.5-5.7-5.7c0-3.1,2.6-5.7,5.7-5.7
		C622.3,12.5,624.9,15.2,624.9,18.3z M623.2,83.5h-8.1V36.1h8.1V83.5z"/>
	<path class="st0" d="M646.1,41.2h0.2c2.5-3.9,6.5-6.4,11.4-6.4c5.5,0,10.6,2.9,13.1,7.9c2.8-5.2,8.5-7.9,14.2-7.9
		c12.1,0,15.1,9.9,15.1,19.8v28.8H692V56c0-6.1-0.4-13.7-8.7-13.7c-9.3,0-10.3,9-10.3,16.1v25.1H665V56.6c0-5.8-0.7-14.3-8.5-14.3
		c-9.5,0-10.5,9.6-10.5,16.7v24.5H638V36.1h8.1V41.2z"/>
	<path class="st0" d="M722,42.9h0.2c3.9-5.2,9.8-8.1,16.3-8.1c13.9,0,22.7,12,22.7,25.1c0,13.5-8.6,24.9-22.8,24.9
		c-6.4,0-12.4-2.8-16.2-8H722v33.3H714v-74h8.1V42.9z M721.6,59.3c0,9.3,5.4,18,15.5,18c10.4,0,15.8-8.4,15.8-17.9
		c0-9.5-5.9-17.1-15.9-17.1C727.7,42.3,721.6,50.4,721.6,59.3z"/>
	<path class="st0" d="M781.9,83.5h-8.1V0.3h8.1V83.5z"/>
	<path class="st0" d="M841.6,83.5h-8.1v-6.5h-0.2c-4.1,5.2-9.7,7.9-16.3,7.9c-13.9,0-22.7-11.8-22.7-24.9c0-13.5,8.6-25.1,22.8-25.1
		c6.4,0,12.3,3,16.2,8.1h0.2v-6.8h8.1V83.5z M802.6,59.3c0,9.3,5.4,18,15.5,18c10.4,0,15.8-8.4,15.8-17.9c0-9.5-5.9-17.1-15.9-17.1
		C808.7,42.3,802.6,50.4,802.6,59.3z"/>
	<path class="st0" d="M865.1,41.9h0.2c3.3-4.5,7.7-7.1,13.5-7.1c13.1,0,16.1,9.5,16.1,20.6v28.1h-8.1V56.8c0-7.7-0.6-14.5-10-14.5
		c-11.1,0-11.8,10.3-11.8,18.7v22.5H857V36.1h8.1V41.9z"/>
	<path class="st0" d="M921.2,83.5h-8.1V43.6h-4.9v-7.5h4.9v-17h8.1v17h8.5v7.5h-8.5V83.5z"/>
	<path class="st0" d="M943.2,4.1c7.1,15,9.2,35.5,9.2,51.8c0,16.3-2.1,36.8-9.2,51.8l-7.2-3.4c5.7-15.2,8.1-31.8,8.1-48.4
		c0-16.5-2.3-33.2-8.1-48.4L943.2,4.1z"/>
	<path class="st0" d="M1027.3,10.9l-17.5,23.6l0.2,0.2c1-0.4,2.1-0.6,3.2-0.8c1.1-0.2,2.3-0.3,3.4-0.3c13.8,0,24.6,11.4,24.6,25.1
		c0,14.5-11.9,26.1-26.2,26.1c-14.4,0-26.2-11.7-26.2-26c0-7,3.1-12.9,7-18.2L1021,6.2L1027.3,10.9z M1032.7,59
		c0-9.9-8-17.5-17.7-17.5c-9.9,0-17.7,7.7-17.7,17.5s7.9,17.9,17.7,17.9C1024.9,76.9,1032.7,68.9,1032.7,59z"/>
	<path class="st0" d="M1101.3,27.3c0,6.7-3.4,13.3-9.3,16.6c7.2,3.2,11.2,10.5,11.2,18.2c0,13.1-10.1,22.6-23.2,22.6
		c-13.1,0-23.2-9.5-23.2-22.6c0-7.8,4-15,11.2-18.2c-5.8-3.3-9.3-10-9.3-16.6c0-12.2,9.4-21.2,21.3-21.2
		C1091.9,6.2,1101.3,15.2,1101.3,27.3z M1065.3,62.3c0,8.1,6.4,14.6,14.7,14.6c8.3,0,14.7-6.6,14.7-14.6c0-8.1-6.4-14.6-14.7-14.6
		C1071.7,47.7,1065.3,54.2,1065.3,62.3z M1066.8,27.1c0,7.4,5.9,13.3,13.2,13.3c7.3,0,13.2-5.9,13.2-13.3c0-7.3-5.9-13.1-13.2-13.1
		C1072.7,14,1066.8,19.9,1066.8,27.1z"/>
	<path class="st0" d="M1149.4,41.2h0.2c2.5-3.9,6.5-6.4,11.4-6.4c5.5,0,10.6,2.9,13.1,7.9c2.8-5.2,8.5-7.9,14.2-7.9
		c12.1,0,15.1,9.9,15.1,19.8v28.8h-8.1V56c0-6.1-0.4-13.7-8.7-13.7c-9.3,0-10.3,9-10.3,16.1v25.1h-8.1V56.6c0-5.8-0.7-14.3-8.5-14.3
		c-9.5,0-10.5,9.6-10.5,16.7v24.5h-8.1V36.1h8.1V41.2z"/>
	<path class="st0" d="M1264,81.2c0,7.6,0,14.1-4.8,20.4c-4.4,5.6-11.3,8.4-18.3,8.4c-13.2,0-23-8.4-23.3-21.8h8.1
		c0.1,8.8,6.4,14.3,15.1,14.3c12.5,0,15.2-9.2,15.2-19.8v-5.6h-0.2c-3.8,4.9-10.1,7.9-16.4,7.9c-13.8,0-22.6-11.6-22.6-24.8
		c0-13.3,8.9-25.2,22.9-25.2c6.5,0,12.3,2.9,16.1,8.1h0.2v-6.8h8.1V81.2z M1225,59.3c0,9.3,5.4,18,15.5,18
		c10.4,0,15.8-8.4,15.8-17.9c0-9.5-5.9-17.1-15.9-17.1C1231,42.3,1225,50.4,1225,59.3z"/>
</g>
<g>
	<path class="st0" d="M368.6,213.2h-8.5v-76h11c14.4,0,27.8,3.8,27.8,21c0,11.7-7.4,20-19,21l24.2,34.1h-10.4l-23-33.4h-2.1V213.2z
		 M368.6,172.4h2.6c9.6,0,19.2-1.8,19.2-13.6c0-12.5-9.2-13.7-19.3-13.7h-2.5V172.4z"/>
	<path class="st0" d="M460.5,213.2h-8.1v-6.6h-0.2c-4.1,5.2-9.7,7.9-16.3,7.9c-13.9,0-22.7-11.8-22.7-24.9
		c0-13.5,8.6-25.1,22.8-25.1c6.4,0,12.3,3,16.2,8.1h0.2v-6.8h8.1V213.2z M421.5,189c0,9.3,5.4,18,15.5,18c10.4,0,15.8-8.4,15.8-17.9
		c0-9.5-5.9-17.1-15.9-17.1C427.6,172,421.5,180.1,421.5,189z"/>
	<path class="st0" d="M513.1,206.6h-0.2c-3.9,5.1-9.9,7.9-16.3,7.9c-13.9,0-22.7-11.8-22.7-24.9c0-13.5,8.6-25.1,22.8-25.1
		c6.3,0,12.4,3,16.2,8.1h0.2v-42.5h8.1v83.1h-8.1V206.6z M482.2,189c0,9.3,5.4,18,15.5,18c10.4,0,15.8-8.4,15.8-17.9
		c0-9.5-5.9-17.1-15.9-17.1C488.2,172,482.2,180.1,482.2,189z"/>
	<path class="st0" d="M549.9,148c0,3.2-2.6,5.7-5.7,5.7c-3.1,0-5.7-2.5-5.7-5.7c0-3.1,2.6-5.7,5.7-5.7
		C547.3,142.3,549.9,144.9,549.9,148z M548.2,213.2h-8.1v-47.4h8.1V213.2z"/>
	<path class="st0" d="M563.3,189.6c0-13.9,11-25.1,24.9-25.1s24.9,11.2,24.9,25.1c0,13.9-11.1,24.9-24.9,24.9
		S563.3,203.5,563.3,189.6z M571.3,189.5c0,9.7,6.9,17.5,16.8,17.5s16.8-7.9,16.8-17.5c0-9.6-6.9-17.5-16.8-17.5
		S571.3,179.9,571.3,189.5z"/>
	<path class="st0" d="M634.3,172.6h0.2c3.9-5.2,9.8-8.1,16.3-8.1c13.9,0,22.7,12,22.7,25.1c0,13.5-8.6,24.9-22.8,24.9
		c-6.4,0-12.4-2.8-16.2-8h-0.2v33.3h-8.1v-74h8.1V172.6z M633.9,189c0,9.3,5.4,18,15.5,18c10.4,0,15.8-8.4,15.8-17.9
		c0-9.5-5.9-17.1-15.9-17.1C640,172,633.9,180.1,633.9,189z"/>
	<path class="st0" d="M730.5,213.2h-8.1v-6.6h-0.2c-4.1,5.2-9.7,7.9-16.3,7.9c-13.9,0-22.7-11.8-22.7-24.9
		c0-13.5,8.6-25.1,22.8-25.1c6.4,0,12.3,3,16.2,8.1h0.2v-6.8h8.1V213.2z M691.5,189c0,9.3,5.4,18,15.5,18c10.4,0,15.8-8.4,15.8-17.9
		c0-9.5-5.9-17.1-15.9-17.1C697.6,172,691.5,180.1,691.5,189z"/>
	<path class="st0" d="M791.2,239.8h-8.1v-33.3h-0.2c-3.8,5.1-9.9,8-16.2,8c-14.2,0-22.8-11.4-22.8-24.8c0-13.2,8.7-25.2,22.7-25.2
		c6.4,0,12.4,2.8,16.3,8.1h0.2v-6.8h8.1V239.8z M752.2,189c0,9.3,5.4,18,15.5,18c10.4,0,15.8-8.4,15.8-17.9
		c0-9.5-5.9-17.1-15.9-17.1C758.2,172,752.2,180.1,752.2,189z"/>
	<path class="st0" d="M816.1,192.2c0,8,0.9,14.8,10.7,14.8c9.8,0,10.7-6.9,10.7-14.8v-26.4h8.1v27.3c0,12.6-4.7,21.4-18.7,21.4
		c-14,0-18.7-8.8-18.7-21.4v-27.3h8.1V192.2z"/>
	<path class="st0" d="M866.8,191.2c0.1,8.8,6.3,15.8,15.5,15.8c6.9,0,11.3-4.1,14.4-9.8l6.9,3.9c-4.5,8.5-12.2,13.3-21.9,13.3
		c-14.1,0-23.2-10.8-23.2-24.4c0-14,8.2-25.6,23-25.6c15.2,0,23.3,12.6,22.5,26.7H866.8z M895.5,184.4c-1.1-6.9-6.9-12.4-13.9-12.4
		c-7,0-13.4,5.5-14.4,12.4H895.5z"/>
</g>
</svg>
