<?xml version="1.0" encoding="utf-8"?>
<!-- Generator: Adobe Illustrator 16.0.4, SVG Export Plug-In . SVG Version: 6.00 Build 0)  -->
<!DOCTYPE svg PUBLIC "-//W3C//DTD SVG 1.1//EN" "http://www.w3.org/Graphics/SVG/1.1/DTD/svg11.dtd">
<svg version="1.1" id="Layer_1" xmlns="http://www.w3.org/2000/svg" xmlns:xlink="http://www.w3.org/1999/xlink" x="0px" y="0px"
	 width="137px" height="151px" viewBox="0 0 137 151" enable-background="new 0 0 137 151" xml:space="preserve">
<g>
	<g>
		<path fill="#002A5C" d="M48.286,52H33.784l0.281-1.266c0.363-0.023,0.938-0.082,1.723-0.176s1.33-0.188,1.635-0.281
			c0.34-0.105,0.653-0.305,0.94-0.598s0.483-0.68,0.589-1.16l3.428-14.818h-4.447l0.368-1.6h0.492c1.029,0,1.964-0.111,2.806-0.334
			c0.842-0.223,1.573-0.492,2.193-0.809c0.631-0.316,1.181-0.659,1.649-1.028s0.813-0.677,1.035-0.923h3.087
			c-0.245,0.878-0.486,1.774-0.724,2.688c-0.238,0.913-0.463,1.821-0.672,2.723l-3.143,13.589c-0.035,0.141-0.068,0.305-0.097,0.492
			c-0.029,0.188-0.044,0.34-0.044,0.458c0,0.281,0.062,0.516,0.185,0.703c0.123,0.188,0.296,0.347,0.52,0.475
			c0.258,0.142,0.729,0.271,1.41,0.388s1.205,0.188,1.569,0.211L48.286,52z"/>
		<path fill="#002A5C" d="M70.618,37.199c0,4.699-1.74,8.66-5.221,11.883s-8.156,5.215-14.027,5.977l-0.105-1.74l1.931-0.317
			c1.498-0.399,2.794-0.927,3.888-1.584c1.094-0.657,2.027-1.409,2.799-2.255c0.761-0.821,1.418-1.748,1.975-2.781
			c0.556-1.033,1.003-2.055,1.343-3.064c-1.147,0.874-2.247,1.482-3.3,1.824c-1.053,0.343-2.2,0.514-3.44,0.514
			c-1.768,0-3.248-0.624-4.441-1.872s-1.791-2.815-1.791-4.702c0-2.754,1.134-5.127,3.401-7.119s5.042-2.988,8.323-2.988
			c2.637,0,4.74,0.75,6.311,2.25S70.618,34.715,70.618,37.199z M64.431,35.346c0-1.533-0.254-2.731-0.763-3.598
			c-0.508-0.865-1.16-1.299-1.955-1.299c-1.321,0-2.473,0.831-3.455,2.493c-0.982,1.661-1.473,3.709-1.473,6.144
			c0,1.264,0.266,2.276,0.798,3.037c0.531,0.761,1.23,1.141,2.095,1.141c0.666,0,1.344-0.144,2.034-0.431
			c0.69-0.287,1.344-0.794,1.964-1.521c0.082-0.374,0.229-1.056,0.439-2.045C64.325,38.279,64.431,36.972,64.431,35.346z"/>
		<path fill="#002A5C" d="M90.437,31.812L72.462,54.953h-2.979l16.634-20.672h-7.968c-0.949,0-1.737,0.009-2.364,0.026
			s-1.187,0.131-1.679,0.341c-0.375,0.152-0.762,0.52-1.16,1.103c-0.398,0.584-0.814,1.4-1.248,2.45h-1.283l2.004-8.666h18.545
			L90.437,31.812z"/>
		<path fill="#002A5C" d="M95.208,52.615c-2.625,0-4.72-0.744-6.284-2.232s-2.347-3.463-2.347-5.924
			c0-4.699,1.758-8.725,5.273-12.076s8.156-5.355,13.922-6.012l0.088,1.74l-1.916,0.315c-1.477,0.387-2.763,0.925-3.858,1.615
			c-1.096,0.689-2.024,1.45-2.786,2.28c-0.75,0.831-1.38,1.747-1.89,2.747s-0.964,2.056-1.362,3.167
			c0.785-0.651,1.723-1.198,2.812-1.64c1.09-0.442,2.391-0.663,3.902-0.663c1.758,0,3.231,0.586,4.421,1.758s1.784,2.695,1.784,4.57
			c0,2.801-1.134,5.227-3.401,7.277S98.513,52.615,95.208,52.615z M100.411,42.314c0-1.23-0.281-2.203-0.842-2.918
			s-1.274-1.072-2.139-1.072c-0.69,0-1.342,0.132-1.956,0.396c-0.613,0.264-1.265,0.788-1.955,1.573
			c-0.082,0.363-0.229,1.063-0.439,2.101s-0.316,2.312-0.316,3.823c0,1.547,0.254,2.754,0.763,3.621s1.184,1.301,2.026,1.301
			c1.309,0,2.446-0.858,3.411-2.575C99.929,46.847,100.411,44.764,100.411,42.314z"/>
		<path fill="#002A5C" d="M24.979,104.015c0,0.469-0.092,0.885-0.276,1.247c-0.184,0.361-0.439,0.661-0.765,0.897
			c-0.322,0.237-0.675,0.411-1.06,0.521c-0.385,0.109-0.793,0.164-1.225,0.164h-1.009v2.73c0,0.147,0.024,0.277,0.073,0.39
			c0.049,0.112,0.149,0.198,0.302,0.257c0.076,0.03,0.21,0.058,0.403,0.083c0.192,0.025,0.369,0.04,0.53,0.044v0.451h-3.866v-0.451
			c0.102-0.008,0.249-0.022,0.441-0.044c0.192-0.021,0.327-0.049,0.403-0.083c0.127-0.055,0.219-0.135,0.276-0.24
			c0.058-0.106,0.086-0.242,0.086-0.406v-6.5c0-0.148-0.021-0.282-0.063-0.4s-0.142-0.207-0.298-0.267
			c-0.161-0.055-0.321-0.094-0.479-0.117c-0.159-0.023-0.295-0.039-0.41-0.048v-0.451h4.113c0.838,0,1.518,0.202,2.041,0.606
			C24.718,102.803,24.979,103.341,24.979,104.015z M23.049,105.55c0.144-0.203,0.239-0.413,0.286-0.631s0.07-0.414,0.07-0.588
			c0-0.24-0.028-0.486-0.086-0.736c-0.057-0.249-0.155-0.467-0.295-0.653c-0.148-0.199-0.343-0.354-0.584-0.464
			c-0.241-0.109-0.542-0.164-0.901-0.164h-0.895v3.979h0.647c0.457,0,0.829-0.071,1.114-0.213
			C22.691,105.938,22.905,105.762,23.049,105.55z"/>
		<path fill="#002A5C" d="M30.641,105.347c0,0.217-0.053,0.408-0.159,0.575s-0.269,0.251-0.489,0.251
			c-0.237,0-0.418-0.062-0.542-0.185c-0.125-0.123-0.188-0.258-0.188-0.406c0-0.093,0.007-0.178,0.022-0.254
			c0.015-0.076,0.028-0.152,0.041-0.229c-0.199,0-0.432,0.08-0.698,0.241s-0.493,0.39-0.679,0.686v3.644
			c0,0.148,0.029,0.269,0.085,0.362c0.058,0.093,0.147,0.162,0.27,0.209c0.106,0.042,0.242,0.074,0.41,0.096
			c0.167,0.021,0.312,0.035,0.435,0.044v0.419h-3.301v-0.419c0.097-0.009,0.198-0.017,0.302-0.025
			c0.104-0.009,0.193-0.025,0.27-0.051c0.119-0.038,0.206-0.104,0.264-0.199c0.057-0.096,0.085-0.219,0.085-0.371v-3.861
			c0-0.131-0.031-0.26-0.092-0.387c-0.061-0.127-0.147-0.229-0.257-0.305c-0.081-0.051-0.176-0.087-0.286-0.11
			s-0.229-0.039-0.355-0.048v-0.419l2.082-0.14l0.089,0.089v0.883h0.032c0.262-0.344,0.554-0.604,0.876-0.781
			s0.616-0.267,0.882-0.267s0.483,0.087,0.651,0.261C30.558,104.822,30.641,105.056,30.641,105.347z"/>
		<path fill="#002A5C" d="M34.208,110.8h-3.021v-0.419c0.097-0.009,0.198-0.017,0.302-0.025c0.104-0.009,0.193-0.025,0.27-0.051
			c0.119-0.038,0.206-0.104,0.264-0.199c0.057-0.096,0.085-0.219,0.085-0.371v-3.861c0-0.136-0.031-0.259-0.092-0.371
			c-0.061-0.112-0.147-0.206-0.257-0.282c-0.081-0.051-0.197-0.094-0.349-0.13s-0.292-0.058-0.419-0.066v-0.419l2.209-0.14
			l0.089,0.089v5.104c0,0.148,0.028,0.271,0.085,0.368s0.146,0.169,0.268,0.216c0.092,0.038,0.183,0.068,0.271,0.092
			s0.187,0.039,0.296,0.048V110.8z M33.415,101.995c0,0.242-0.08,0.452-0.238,0.632c-0.159,0.18-0.354,0.271-0.587,0.271
			c-0.216,0-0.403-0.086-0.562-0.258c-0.158-0.171-0.238-0.367-0.238-0.587c0-0.232,0.08-0.436,0.238-0.609
			c0.159-0.174,0.346-0.261,0.562-0.261c0.241,0,0.439,0.082,0.593,0.245C33.338,101.591,33.415,101.78,33.415,101.995z"/>
		<path fill="#002A5C" d="M45.691,110.8h-3.047v-0.419c0.097-0.009,0.196-0.017,0.295-0.025c0.099-0.009,0.187-0.025,0.263-0.051
			c0.119-0.038,0.207-0.104,0.263-0.2c0.058-0.095,0.086-0.219,0.086-0.371v-3.23c0-0.44-0.101-0.78-0.302-1.02
			c-0.201-0.239-0.452-0.358-0.752-0.358c-0.208,0-0.402,0.032-0.584,0.095c-0.182,0.064-0.349,0.152-0.501,0.268
			c-0.123,0.093-0.225,0.193-0.308,0.301c-0.082,0.108-0.145,0.198-0.187,0.27v3.612c0,0.148,0.025,0.27,0.076,0.365
			c0.051,0.095,0.138,0.168,0.26,0.219c0.097,0.038,0.185,0.066,0.264,0.086c0.078,0.019,0.181,0.032,0.308,0.041v0.419h-2.983
			v-0.419c0.097-0.009,0.191-0.017,0.282-0.025c0.091-0.009,0.175-0.025,0.251-0.051c0.119-0.038,0.206-0.104,0.264-0.2
			c0.057-0.095,0.085-0.219,0.085-0.371v-3.23c0-0.44-0.101-0.78-0.302-1.02s-0.453-0.358-0.754-0.358
			c-0.208,0-0.403,0.033-0.585,0.099c-0.183,0.065-0.35,0.155-0.503,0.27c-0.123,0.093-0.227,0.198-0.312,0.314
			s-0.148,0.204-0.191,0.264v3.586c0,0.144,0.03,0.265,0.089,0.361c0.059,0.098,0.148,0.172,0.267,0.223
			c0.089,0.042,0.18,0.074,0.273,0.096c0.093,0.021,0.197,0.035,0.311,0.044v0.419h-3.041v-0.419
			c0.097-0.009,0.198-0.017,0.301-0.025c0.104-0.009,0.194-0.025,0.27-0.051c0.119-0.038,0.207-0.104,0.263-0.199
			c0.058-0.096,0.086-0.219,0.086-0.371v-3.887c0-0.135-0.031-0.257-0.092-0.364c-0.062-0.108-0.147-0.2-0.257-0.276
			c-0.081-0.051-0.18-0.092-0.298-0.123c-0.119-0.032-0.241-0.052-0.368-0.061v-0.419l2.095-0.14l0.089,0.089v0.895h0.044
			c0.106-0.105,0.235-0.23,0.387-0.374s0.294-0.261,0.425-0.349c0.148-0.102,0.333-0.187,0.555-0.254
			c0.223-0.068,0.462-0.102,0.721-0.102c0.406,0,0.755,0.108,1.047,0.326s0.501,0.481,0.628,0.791
			c0.152-0.148,0.286-0.278,0.402-0.391s0.27-0.232,0.459-0.359c0.161-0.109,0.35-0.198,0.567-0.266
			c0.217-0.068,0.459-0.102,0.726-0.102c0.528,0,0.946,0.173,1.254,0.52c0.309,0.348,0.463,0.881,0.463,1.6v3.181
			c0,0.148,0.025,0.27,0.076,0.365c0.051,0.095,0.138,0.168,0.26,0.219c0.097,0.038,0.194,0.066,0.289,0.086
			c0.096,0.019,0.202,0.032,0.321,0.041V110.8z"/>
		<path fill="#002A5C" d="M51.995,109.327c-0.262,0.499-0.614,0.897-1.054,1.193s-0.946,0.444-1.517,0.444
			c-0.503,0-0.945-0.089-1.324-0.267c-0.378-0.178-0.69-0.419-0.936-0.724s-0.428-0.66-0.549-1.066
			c-0.12-0.406-0.181-0.836-0.181-1.288c0-0.406,0.064-0.806,0.193-1.197c0.129-0.392,0.319-0.743,0.568-1.057
			c0.241-0.301,0.541-0.543,0.898-0.727c0.357-0.185,0.758-0.276,1.203-0.276c0.457,0,0.849,0.072,1.174,0.216
			s0.59,0.341,0.793,0.59c0.195,0.237,0.339,0.517,0.435,0.838c0.095,0.322,0.143,0.671,0.143,1.048v0.419h-4.145
			c0,0.411,0.039,0.785,0.118,1.12c0.078,0.335,0.202,0.63,0.371,0.884c0.165,0.246,0.381,0.44,0.647,0.582
			c0.267,0.143,0.584,0.213,0.952,0.213c0.376,0,0.701-0.088,0.975-0.265c0.272-0.176,0.536-0.494,0.79-0.954L51.995,109.327z
			 M50.592,106.94c0-0.236-0.02-0.489-0.06-0.76c-0.041-0.27-0.105-0.495-0.194-0.677c-0.097-0.194-0.23-0.353-0.4-0.475
			s-0.387-0.184-0.654-0.184c-0.444,0-0.813,0.185-1.108,0.554c-0.294,0.369-0.454,0.883-0.479,1.541H50.592z"/>
		<path fill="#002A5C" d="M57.511,105.347c0,0.217-0.053,0.408-0.159,0.575s-0.269,0.251-0.489,0.251
			c-0.237,0-0.418-0.062-0.542-0.185c-0.125-0.123-0.188-0.258-0.188-0.406c0-0.093,0.007-0.178,0.022-0.254
			c0.015-0.076,0.028-0.152,0.041-0.229c-0.199,0-0.432,0.08-0.698,0.241s-0.493,0.39-0.679,0.686v3.644
			c0,0.148,0.029,0.269,0.085,0.362c0.058,0.093,0.147,0.162,0.27,0.209c0.106,0.042,0.242,0.074,0.41,0.096
			c0.167,0.021,0.312,0.035,0.435,0.044v0.419h-3.301v-0.419c0.097-0.009,0.198-0.017,0.302-0.025
			c0.104-0.009,0.193-0.025,0.27-0.051c0.119-0.038,0.206-0.104,0.264-0.199c0.057-0.096,0.085-0.219,0.085-0.371v-3.861
			c0-0.131-0.031-0.26-0.092-0.387c-0.061-0.127-0.147-0.229-0.257-0.305c-0.081-0.051-0.176-0.087-0.286-0.11
			s-0.229-0.039-0.355-0.048v-0.419l2.082-0.14l0.089,0.089v0.883h0.032c0.262-0.344,0.554-0.604,0.876-0.781
			s0.616-0.267,0.882-0.267s0.483,0.087,0.651,0.261C57.427,104.822,57.511,105.056,57.511,105.347z"/>
		<path fill="#002A5C" d="M67.108,110.686c-0.199,0.072-0.374,0.13-0.523,0.175c-0.15,0.044-0.321,0.066-0.511,0.066
			c-0.33,0-0.593-0.077-0.791-0.231c-0.196-0.154-0.322-0.38-0.377-0.677h-0.038c-0.275,0.305-0.57,0.538-0.885,0.699
			c-0.315,0.16-0.695,0.24-1.14,0.24c-0.47,0-0.856-0.144-1.158-0.432c-0.303-0.287-0.454-0.664-0.454-1.129
			c0-0.242,0.034-0.457,0.102-0.648c0.068-0.189,0.169-0.361,0.305-0.514c0.106-0.127,0.246-0.24,0.419-0.34
			s0.336-0.179,0.489-0.238c0.19-0.071,0.577-0.205,1.159-0.399c0.582-0.194,0.974-0.347,1.177-0.457v-0.628
			c0-0.056-0.012-0.161-0.035-0.318c-0.023-0.156-0.073-0.305-0.149-0.443c-0.084-0.157-0.204-0.294-0.358-0.41
			c-0.155-0.116-0.374-0.174-0.657-0.174c-0.195,0-0.375,0.032-0.543,0.098c-0.167,0.065-0.284,0.135-0.352,0.207
			c0,0.084,0.02,0.209,0.06,0.374c0.041,0.165,0.061,0.317,0.061,0.457c0,0.148-0.066,0.283-0.2,0.406
			c-0.133,0.123-0.318,0.185-0.555,0.185c-0.211,0-0.367-0.075-0.466-0.226c-0.1-0.15-0.149-0.318-0.149-0.505
			c0-0.194,0.069-0.381,0.206-0.559c0.138-0.178,0.316-0.336,0.537-0.477c0.19-0.118,0.421-0.219,0.692-0.301
			c0.271-0.083,0.535-0.124,0.793-0.124c0.355,0,0.666,0.024,0.93,0.073c0.264,0.049,0.504,0.153,0.72,0.314
			c0.216,0.156,0.38,0.369,0.492,0.638c0.112,0.269,0.168,0.614,0.168,1.038c0,0.604-0.006,1.141-0.019,1.608
			s-0.019,0.979-0.019,1.533c0,0.165,0.029,0.296,0.085,0.394c0.058,0.098,0.145,0.18,0.264,0.248
			c0.063,0.037,0.164,0.059,0.302,0.062c0.137,0.005,0.278,0.007,0.422,0.007V110.686z M64.893,107.334
			c-0.36,0.106-0.675,0.21-0.946,0.312s-0.522,0.229-0.755,0.382c-0.211,0.145-0.379,0.315-0.501,0.512
			c-0.123,0.197-0.184,0.432-0.184,0.703c0,0.353,0.092,0.611,0.276,0.776c0.185,0.165,0.418,0.248,0.702,0.248
			c0.3,0,0.565-0.073,0.793-0.22s0.421-0.318,0.578-0.519L64.893,107.334z"/>
		<path fill="#002A5C" d="M70.663,110.8H67.61v-0.419c0.097-0.009,0.201-0.018,0.311-0.028s0.201-0.026,0.273-0.048
			c0.119-0.038,0.208-0.104,0.267-0.2c0.059-0.095,0.089-0.219,0.089-0.372v-7.254c0-0.152-0.033-0.295-0.098-0.429
			c-0.066-0.133-0.151-0.238-0.257-0.314c-0.076-0.051-0.216-0.098-0.419-0.14s-0.366-0.067-0.489-0.076v-0.406l2.355-0.14
			l0.089,0.096v8.588c0,0.148,0.027,0.27,0.083,0.365c0.055,0.095,0.144,0.168,0.267,0.219c0.093,0.042,0.185,0.074,0.276,0.096
			c0.091,0.021,0.193,0.035,0.308,0.044V110.8z"/>
		<path fill="#002A5C" d="M77.379,110.686c-0.199,0.072-0.374,0.13-0.523,0.175c-0.15,0.044-0.321,0.066-0.511,0.066
			c-0.33,0-0.593-0.077-0.791-0.231c-0.196-0.154-0.322-0.38-0.377-0.677h-0.038c-0.275,0.305-0.57,0.538-0.885,0.699
			c-0.315,0.16-0.695,0.24-1.14,0.24c-0.47,0-0.856-0.144-1.158-0.432c-0.303-0.287-0.454-0.664-0.454-1.129
			c0-0.242,0.034-0.457,0.102-0.648c0.068-0.189,0.169-0.361,0.305-0.514c0.106-0.127,0.246-0.24,0.419-0.34
			s0.336-0.179,0.489-0.238c0.19-0.071,0.577-0.205,1.159-0.399c0.582-0.194,0.974-0.347,1.177-0.457v-0.628
			c0-0.056-0.012-0.161-0.035-0.318c-0.023-0.156-0.073-0.305-0.149-0.443c-0.084-0.157-0.204-0.294-0.358-0.41
			c-0.155-0.116-0.374-0.174-0.657-0.174c-0.195,0-0.375,0.032-0.543,0.098c-0.167,0.065-0.284,0.135-0.352,0.207
			c0,0.084,0.02,0.209,0.06,0.374c0.041,0.165,0.061,0.317,0.061,0.457c0,0.148-0.066,0.283-0.2,0.406
			c-0.133,0.123-0.318,0.185-0.555,0.185c-0.211,0-0.367-0.075-0.466-0.226c-0.1-0.15-0.149-0.318-0.149-0.505
			c0-0.194,0.069-0.381,0.206-0.559c0.138-0.178,0.316-0.336,0.537-0.477c0.19-0.118,0.421-0.219,0.692-0.301
			c0.271-0.083,0.535-0.124,0.793-0.124c0.355,0,0.666,0.024,0.93,0.073c0.264,0.049,0.504,0.153,0.72,0.314
			c0.216,0.156,0.38,0.369,0.492,0.638c0.112,0.269,0.168,0.614,0.168,1.038c0,0.604-0.006,1.141-0.019,1.608
			s-0.019,0.979-0.019,1.533c0,0.165,0.029,0.296,0.085,0.394c0.058,0.098,0.145,0.18,0.264,0.248
			c0.063,0.037,0.164,0.059,0.302,0.062c0.137,0.005,0.278,0.007,0.422,0.007V110.686z M75.164,107.334
			c-0.36,0.106-0.675,0.21-0.946,0.312s-0.522,0.229-0.755,0.382c-0.211,0.145-0.379,0.315-0.501,0.512
			c-0.123,0.197-0.184,0.432-0.184,0.703c0,0.353,0.092,0.611,0.276,0.776c0.185,0.165,0.418,0.248,0.702,0.248
			c0.3,0,0.565-0.073,0.793-0.22s0.421-0.318,0.578-0.519L75.164,107.334z"/>
		<path fill="#002A5C" d="M88.709,110.8h-3.047v-0.419c0.097-0.009,0.196-0.017,0.295-0.025c0.099-0.009,0.187-0.025,0.263-0.051
			c0.119-0.038,0.207-0.104,0.263-0.2c0.058-0.095,0.086-0.219,0.086-0.371v-3.23c0-0.44-0.101-0.78-0.302-1.02
			c-0.201-0.239-0.452-0.358-0.752-0.358c-0.208,0-0.402,0.032-0.584,0.095c-0.182,0.064-0.349,0.152-0.501,0.268
			c-0.123,0.093-0.225,0.193-0.308,0.301c-0.082,0.108-0.145,0.198-0.187,0.27v3.612c0,0.148,0.025,0.27,0.076,0.365
			c0.051,0.095,0.138,0.168,0.26,0.219c0.097,0.038,0.185,0.066,0.264,0.086c0.078,0.019,0.181,0.032,0.308,0.041v0.419H81.86
			v-0.419c0.097-0.009,0.191-0.017,0.282-0.025c0.091-0.009,0.175-0.025,0.251-0.051c0.119-0.038,0.206-0.104,0.264-0.2
			c0.057-0.095,0.085-0.219,0.085-0.371v-3.23c0-0.44-0.101-0.78-0.302-1.02s-0.453-0.358-0.754-0.358
			c-0.208,0-0.403,0.033-0.585,0.099c-0.183,0.065-0.35,0.155-0.503,0.27c-0.123,0.093-0.227,0.198-0.312,0.314
			s-0.148,0.204-0.191,0.264v3.586c0,0.144,0.03,0.265,0.089,0.361c0.059,0.098,0.148,0.172,0.267,0.223
			c0.089,0.042,0.18,0.074,0.273,0.096c0.093,0.021,0.197,0.035,0.311,0.044v0.419h-3.041v-0.419
			c0.097-0.009,0.198-0.017,0.301-0.025c0.104-0.009,0.194-0.025,0.27-0.051c0.119-0.038,0.207-0.104,0.263-0.199
			c0.058-0.096,0.086-0.219,0.086-0.371v-3.887c0-0.135-0.031-0.257-0.092-0.364c-0.062-0.108-0.147-0.2-0.257-0.276
			c-0.081-0.051-0.18-0.092-0.298-0.123c-0.119-0.032-0.241-0.052-0.368-0.061v-0.419l2.095-0.14l0.089,0.089v0.895h0.044
			c0.106-0.105,0.235-0.23,0.387-0.374s0.294-0.261,0.425-0.349c0.148-0.102,0.333-0.187,0.555-0.254
			c0.223-0.068,0.462-0.102,0.721-0.102c0.406,0,0.755,0.108,1.047,0.326s0.501,0.481,0.628,0.791
			c0.152-0.148,0.286-0.278,0.402-0.391s0.27-0.232,0.459-0.359c0.161-0.109,0.35-0.198,0.567-0.266
			c0.217-0.068,0.459-0.102,0.726-0.102c0.528,0,0.946,0.173,1.254,0.52c0.309,0.348,0.463,0.881,0.463,1.6v3.181
			c0,0.148,0.025,0.27,0.076,0.365c0.051,0.095,0.138,0.168,0.26,0.219c0.097,0.038,0.194,0.066,0.289,0.086
			c0.096,0.019,0.202,0.032,0.321,0.041V110.8z"/>
		<path fill="#002A5C" d="M95.806,107.664c0,0.939-0.296,1.729-0.889,2.368c-0.592,0.639-1.28,0.958-2.063,0.958
			c-0.343,0-0.68-0.053-1.013-0.159c-0.332-0.105-0.644-0.247-0.936-0.425l-0.47,0.729l-0.394-0.089
			c0.021-0.312,0.036-0.689,0.044-1.13s0.013-0.866,0.013-1.277v-6.199c0-0.144-0.033-0.288-0.099-0.432
			c-0.065-0.145-0.149-0.248-0.25-0.312c-0.081-0.055-0.215-0.096-0.403-0.124c-0.188-0.027-0.34-0.045-0.454-0.054v-0.406
			l2.298-0.14l0.089,0.096v4.125l0.044,0.014c0.262-0.279,0.549-0.489,0.86-0.629c0.312-0.14,0.617-0.209,0.917-0.209
			c0.77,0,1.414,0.305,1.93,0.914S95.806,106.687,95.806,107.664z M94.479,107.708c0-0.312-0.034-0.632-0.102-0.958
			s-0.173-0.609-0.317-0.851c-0.144-0.245-0.332-0.444-0.565-0.597s-0.512-0.229-0.838-0.229c-0.296,0-0.555,0.059-0.778,0.175
			c-0.222,0.116-0.422,0.273-0.6,0.473v3.644c0.025,0.102,0.075,0.22,0.149,0.355c0.074,0.136,0.174,0.265,0.301,0.388
			c0.127,0.118,0.271,0.214,0.432,0.288s0.357,0.111,0.59,0.111c0.516,0,0.933-0.25,1.25-0.749S94.479,108.576,94.479,107.708z"/>
		<path fill="#002A5C" d="M99.767,110.8h-3.021v-0.419c0.097-0.009,0.198-0.017,0.302-0.025c0.104-0.009,0.193-0.025,0.27-0.051
			c0.119-0.038,0.206-0.104,0.264-0.199c0.057-0.096,0.085-0.219,0.085-0.371v-3.861c0-0.136-0.031-0.259-0.092-0.371
			c-0.061-0.112-0.147-0.206-0.257-0.282c-0.081-0.051-0.197-0.094-0.349-0.13s-0.292-0.058-0.419-0.066v-0.419l2.209-0.14
			l0.089,0.089v5.104c0,0.148,0.028,0.271,0.085,0.368s0.146,0.169,0.268,0.216c0.092,0.038,0.183,0.068,0.271,0.092
			s0.187,0.039,0.296,0.048V110.8z M98.974,101.995c0,0.242-0.08,0.452-0.238,0.632c-0.159,0.18-0.354,0.271-0.587,0.271
			c-0.216,0-0.403-0.086-0.562-0.258c-0.158-0.171-0.238-0.367-0.238-0.587c0-0.232,0.08-0.436,0.238-0.609
			c0.159-0.174,0.346-0.261,0.562-0.261c0.241,0,0.439,0.082,0.593,0.245C98.896,101.591,98.974,101.78,98.974,101.995z"/>
		<path fill="#002A5C" d="M107.41,113.618h-3.39v-0.419c0.131-0.009,0.26-0.02,0.387-0.032s0.241-0.033,0.343-0.063
			c0.131-0.042,0.222-0.116,0.273-0.223c0.051-0.105,0.076-0.23,0.076-0.375v-2.315l-0.038-0.013
			c-0.067,0.076-0.164,0.164-0.289,0.264c-0.125,0.1-0.254,0.181-0.39,0.244c-0.169,0.089-0.332,0.157-0.488,0.206
			c-0.156,0.049-0.353,0.073-0.589,0.073c-0.38,0-0.738-0.079-1.074-0.238c-0.336-0.158-0.629-0.384-0.878-0.676
			c-0.25-0.288-0.447-0.643-0.593-1.063c-0.146-0.421-0.219-0.883-0.219-1.387c0-0.479,0.084-0.913,0.254-1.305
			c0.169-0.392,0.393-0.732,0.672-1.025c0.267-0.274,0.587-0.493,0.961-0.656s0.745-0.244,1.113-0.244
			c0.274,0,0.519,0.026,0.732,0.079c0.213,0.053,0.396,0.115,0.548,0.187c0.131,0.056,0.262,0.126,0.394,0.213
			c0.131,0.087,0.224,0.146,0.279,0.175l0.542-0.825l0.363,0.051c-0.017,0.313-0.039,0.699-0.067,1.156
			c-0.027,0.457-0.041,0.857-0.041,1.2v5.793c0,0.148,0.027,0.276,0.083,0.385c0.055,0.107,0.144,0.189,0.267,0.244
			c0.102,0.043,0.23,0.08,0.387,0.111c0.157,0.032,0.284,0.052,0.381,0.061V113.618z M105.099,109.638v-3.738
			c-0.034-0.105-0.091-0.224-0.171-0.353c-0.081-0.129-0.175-0.242-0.285-0.339c-0.118-0.102-0.263-0.187-0.434-0.254
			c-0.171-0.068-0.369-0.102-0.592-0.102c-0.494,0-0.909,0.256-1.245,0.768c-0.335,0.512-0.503,1.217-0.503,2.113
			c0,0.355,0.033,0.678,0.098,0.965c0.065,0.288,0.179,0.557,0.339,0.807c0.152,0.237,0.344,0.427,0.577,0.568
			s0.526,0.213,0.88,0.213c0.304,0,0.564-0.065,0.779-0.194S104.943,109.812,105.099,109.638z"/>
		<path fill="#002A5C" d="M114.525,110.686l-2.043,0.14l-0.096-0.089v-0.794h-0.038c-0.102,0.106-0.215,0.22-0.342,0.34
			c-0.126,0.121-0.272,0.229-0.437,0.327c-0.19,0.114-0.374,0.201-0.552,0.261c-0.177,0.059-0.429,0.088-0.754,0.088
			c-0.553,0-0.975-0.181-1.264-0.542s-0.434-0.887-0.434-1.575v-2.993c0-0.152-0.029-0.28-0.086-0.384s-0.142-0.193-0.252-0.27
			c-0.077-0.051-0.173-0.087-0.288-0.11c-0.115-0.023-0.236-0.039-0.364-0.048v-0.419l2.088-0.152l0.095,0.089v4.348
			c0,0.453,0.102,0.794,0.305,1.022s0.446,0.343,0.73,0.343c0.233,0,0.44-0.036,0.622-0.107c0.182-0.072,0.334-0.156,0.457-0.254
			c0.114-0.089,0.215-0.183,0.301-0.282c0.087-0.1,0.154-0.191,0.2-0.275v-3.544c0-0.14-0.03-0.264-0.089-0.371
			c-0.059-0.108-0.142-0.2-0.248-0.276c-0.076-0.051-0.189-0.081-0.339-0.092c-0.15-0.011-0.319-0.02-0.505-0.028v-0.419
			l2.278-0.152l0.096,0.089v4.965c0,0.144,0.03,0.267,0.089,0.368c0.059,0.101,0.142,0.188,0.248,0.26
			c0.076,0.046,0.167,0.077,0.273,0.092s0.222,0.024,0.349,0.028V110.686z"/>
		<path fill="#002A5C" d="M120.854,109.327c-0.262,0.499-0.614,0.897-1.054,1.193s-0.946,0.444-1.517,0.444
			c-0.503,0-0.945-0.089-1.324-0.267c-0.378-0.178-0.69-0.419-0.936-0.724s-0.428-0.66-0.549-1.066
			c-0.12-0.406-0.181-0.836-0.181-1.288c0-0.406,0.064-0.806,0.193-1.197c0.129-0.392,0.319-0.743,0.568-1.057
			c0.241-0.301,0.541-0.543,0.898-0.727c0.357-0.185,0.758-0.276,1.203-0.276c0.457,0,0.849,0.072,1.174,0.216
			s0.59,0.341,0.793,0.59c0.195,0.237,0.339,0.517,0.435,0.838c0.095,0.322,0.143,0.671,0.143,1.048v0.419h-4.145
			c0,0.411,0.039,0.785,0.118,1.12c0.078,0.335,0.202,0.63,0.371,0.884c0.165,0.246,0.381,0.44,0.647,0.582
			c0.267,0.143,0.584,0.213,0.952,0.213c0.376,0,0.701-0.088,0.975-0.265c0.272-0.176,0.536-0.494,0.79-0.954L120.854,109.327z
			 M119.451,106.94c0-0.236-0.02-0.489-0.06-0.76c-0.041-0.27-0.105-0.495-0.194-0.677c-0.097-0.194-0.23-0.353-0.4-0.475
			s-0.387-0.184-0.654-0.184c-0.444,0-0.813,0.185-1.108,0.554c-0.294,0.369-0.454,0.883-0.479,1.541H119.451z"/>
		<path fill="#002A5C" d="M123.844,110.577c0,0.305-0.069,0.593-0.207,0.863c-0.137,0.271-0.295,0.504-0.473,0.699
			c-0.182,0.203-0.375,0.383-0.578,0.539s-0.389,0.279-0.559,0.368l-0.292-0.425c0.203-0.127,0.385-0.254,0.546-0.381
			s0.292-0.254,0.394-0.381c0.127-0.148,0.235-0.31,0.324-0.482c0.089-0.174,0.146-0.371,0.171-0.591h-0.324
			c-0.284,0-0.505-0.074-0.663-0.222c-0.159-0.148-0.238-0.348-0.238-0.598c0-0.178,0.072-0.35,0.216-0.517s0.341-0.251,0.59-0.251
			c0.364,0,0.637,0.122,0.819,0.365S123.844,110.146,123.844,110.577z"/>
		<path fill="#002A5C" d="M28.508,119.615c0,0.469-0.092,0.885-0.276,1.247c-0.184,0.361-0.439,0.661-0.765,0.897
			c-0.322,0.237-0.675,0.411-1.06,0.521c-0.385,0.109-0.793,0.164-1.225,0.164h-1.009v2.73c0,0.147,0.024,0.277,0.073,0.39
			c0.049,0.112,0.149,0.198,0.302,0.257c0.076,0.03,0.21,0.058,0.403,0.083c0.192,0.025,0.369,0.04,0.53,0.044v0.451h-3.866v-0.451
			c0.102-0.008,0.249-0.022,0.441-0.044c0.192-0.021,0.327-0.049,0.403-0.083c0.127-0.055,0.219-0.135,0.276-0.24
			c0.058-0.106,0.086-0.242,0.086-0.406v-6.5c0-0.148-0.021-0.282-0.063-0.4s-0.142-0.207-0.298-0.267
			c-0.161-0.055-0.321-0.094-0.479-0.117c-0.159-0.023-0.295-0.039-0.41-0.048v-0.451h4.113c0.838,0,1.518,0.202,2.041,0.606
			C28.247,118.403,28.508,118.941,28.508,119.615z M26.579,121.15c0.144-0.203,0.239-0.413,0.286-0.631s0.07-0.414,0.07-0.588
			c0-0.24-0.028-0.486-0.086-0.736c-0.057-0.249-0.155-0.467-0.295-0.653c-0.148-0.199-0.343-0.354-0.584-0.464
			c-0.241-0.109-0.542-0.164-0.901-0.164h-0.895v3.979h0.647c0.457,0,0.829-0.071,1.114-0.213
			C26.22,121.539,26.435,121.362,26.579,121.15z"/>
		<path fill="#002A5C" d="M34.17,120.947c0,0.217-0.053,0.408-0.159,0.575s-0.269,0.251-0.489,0.251
			c-0.237,0-0.418-0.062-0.542-0.185c-0.125-0.123-0.188-0.258-0.188-0.406c0-0.093,0.007-0.178,0.022-0.254
			c0.015-0.076,0.028-0.152,0.041-0.229c-0.199,0-0.432,0.08-0.698,0.241s-0.493,0.39-0.679,0.686v3.644
			c0,0.148,0.029,0.269,0.085,0.362c0.058,0.093,0.147,0.162,0.27,0.209c0.106,0.042,0.242,0.074,0.41,0.096
			c0.167,0.021,0.312,0.035,0.435,0.044v0.419h-3.301v-0.419c0.097-0.009,0.198-0.017,0.302-0.025
			c0.104-0.009,0.193-0.025,0.27-0.051c0.119-0.038,0.206-0.104,0.264-0.199c0.057-0.096,0.085-0.219,0.085-0.371v-3.861
			c0-0.131-0.031-0.26-0.092-0.387c-0.061-0.127-0.147-0.229-0.257-0.305c-0.081-0.051-0.176-0.087-0.286-0.11
			s-0.229-0.039-0.355-0.048v-0.419l2.082-0.14l0.089,0.089v0.883h0.032c0.262-0.344,0.554-0.604,0.876-0.781
			s0.616-0.267,0.882-0.267s0.483,0.087,0.651,0.261C34.087,120.423,34.17,120.656,34.17,120.947z"/>
		<path fill="#002A5C" d="M37.738,126.4h-3.021v-0.419c0.097-0.009,0.198-0.017,0.302-0.025c0.104-0.009,0.193-0.025,0.27-0.051
			c0.119-0.038,0.206-0.104,0.264-0.199c0.057-0.096,0.085-0.219,0.085-0.371v-3.861c0-0.136-0.031-0.259-0.092-0.371
			c-0.061-0.112-0.147-0.206-0.257-0.282c-0.081-0.051-0.197-0.094-0.349-0.13s-0.292-0.058-0.419-0.066v-0.419l2.209-0.14
			l0.089,0.089v5.104c0,0.148,0.028,0.271,0.085,0.368s0.146,0.169,0.268,0.216c0.092,0.038,0.183,0.068,0.271,0.092
			s0.187,0.039,0.296,0.048V126.4z M36.944,117.596c0,0.242-0.08,0.452-0.238,0.632c-0.159,0.18-0.354,0.271-0.587,0.271
			c-0.216,0-0.403-0.086-0.562-0.258c-0.158-0.171-0.238-0.367-0.238-0.587c0-0.232,0.08-0.436,0.238-0.609
			c0.159-0.174,0.346-0.261,0.562-0.261c0.241,0,0.439,0.082,0.593,0.245C36.867,117.191,36.944,117.381,36.944,117.596z"/>
		<path fill="#002A5C" d="M49.221,126.4h-3.047v-0.419c0.097-0.009,0.196-0.017,0.295-0.025c0.099-0.009,0.187-0.025,0.263-0.051
			c0.119-0.038,0.207-0.104,0.263-0.2c0.058-0.095,0.086-0.219,0.086-0.371v-3.23c0-0.44-0.101-0.78-0.302-1.02
			c-0.201-0.239-0.452-0.358-0.752-0.358c-0.208,0-0.402,0.032-0.584,0.095c-0.182,0.064-0.349,0.152-0.501,0.268
			c-0.123,0.093-0.225,0.193-0.308,0.301c-0.082,0.108-0.145,0.198-0.187,0.27v3.612c0,0.148,0.025,0.27,0.076,0.365
			c0.051,0.095,0.138,0.168,0.26,0.219c0.097,0.038,0.185,0.066,0.264,0.086c0.078,0.019,0.181,0.032,0.308,0.041v0.419h-2.983
			v-0.419c0.097-0.009,0.191-0.017,0.282-0.025c0.091-0.009,0.175-0.025,0.251-0.051c0.119-0.038,0.206-0.104,0.264-0.2
			c0.057-0.095,0.085-0.219,0.085-0.371v-3.23c0-0.44-0.101-0.78-0.302-1.02s-0.453-0.358-0.754-0.358
			c-0.208,0-0.403,0.033-0.585,0.099c-0.183,0.065-0.35,0.155-0.503,0.27c-0.123,0.093-0.227,0.198-0.312,0.314
			s-0.148,0.204-0.191,0.264v3.586c0,0.144,0.03,0.265,0.089,0.361c0.059,0.098,0.148,0.172,0.267,0.223
			c0.089,0.042,0.18,0.074,0.273,0.096c0.093,0.021,0.197,0.035,0.311,0.044v0.419h-3.041v-0.419
			c0.097-0.009,0.198-0.017,0.301-0.025c0.104-0.009,0.194-0.025,0.27-0.051c0.119-0.038,0.207-0.104,0.263-0.199
			c0.058-0.096,0.086-0.219,0.086-0.371v-3.887c0-0.135-0.031-0.257-0.092-0.364c-0.062-0.108-0.147-0.2-0.257-0.276
			c-0.081-0.051-0.18-0.092-0.298-0.123c-0.119-0.032-0.241-0.052-0.368-0.061v-0.419l2.095-0.14l0.089,0.089v0.895h0.044
			c0.106-0.105,0.235-0.23,0.387-0.374s0.294-0.261,0.425-0.349c0.148-0.102,0.333-0.187,0.555-0.254
			c0.223-0.068,0.462-0.102,0.721-0.102c0.406,0,0.755,0.108,1.047,0.326s0.501,0.481,0.628,0.791
			c0.152-0.148,0.286-0.278,0.402-0.391s0.27-0.232,0.459-0.359c0.161-0.109,0.35-0.198,0.567-0.266
			c0.217-0.068,0.459-0.102,0.726-0.102c0.528,0,0.946,0.173,1.254,0.52c0.309,0.348,0.463,0.881,0.463,1.6v3.181
			c0,0.148,0.025,0.27,0.076,0.365c0.051,0.095,0.138,0.168,0.26,0.219c0.097,0.038,0.194,0.066,0.289,0.086
			c0.096,0.019,0.202,0.032,0.321,0.041V126.4z"/>
		<path fill="#002A5C" d="M55.524,124.928c-0.262,0.499-0.614,0.897-1.054,1.193s-0.946,0.444-1.517,0.444
			c-0.503,0-0.945-0.089-1.324-0.267c-0.378-0.178-0.69-0.419-0.936-0.724s-0.428-0.66-0.549-1.066
			c-0.12-0.406-0.181-0.836-0.181-1.288c0-0.406,0.064-0.806,0.193-1.197c0.129-0.392,0.319-0.743,0.568-1.057
			c0.241-0.301,0.541-0.543,0.898-0.727c0.357-0.185,0.758-0.276,1.203-0.276c0.457,0,0.849,0.072,1.174,0.216
			s0.59,0.341,0.793,0.59c0.195,0.237,0.339,0.517,0.435,0.838c0.095,0.322,0.143,0.671,0.143,1.048v0.419h-4.145
			c0,0.411,0.039,0.785,0.118,1.12c0.078,0.335,0.202,0.63,0.371,0.884c0.165,0.246,0.381,0.44,0.647,0.582
			c0.267,0.143,0.584,0.213,0.952,0.213c0.376,0,0.701-0.088,0.975-0.265c0.272-0.176,0.536-0.494,0.79-0.954L55.524,124.928z
			 M54.121,122.541c0-0.236-0.02-0.489-0.06-0.76c-0.041-0.27-0.105-0.495-0.194-0.677c-0.097-0.194-0.23-0.353-0.4-0.475
			s-0.387-0.184-0.654-0.184c-0.444,0-0.813,0.185-1.108,0.554c-0.294,0.369-0.454,0.883-0.479,1.541H54.121z"/>
		<path fill="#002A5C" d="M61.04,120.947c0,0.217-0.053,0.408-0.159,0.575s-0.269,0.251-0.489,0.251
			c-0.237,0-0.418-0.062-0.542-0.185c-0.125-0.123-0.188-0.258-0.188-0.406c0-0.093,0.007-0.178,0.022-0.254
			c0.015-0.076,0.028-0.152,0.041-0.229c-0.199,0-0.432,0.08-0.698,0.241s-0.493,0.39-0.679,0.686v3.644
			c0,0.148,0.029,0.269,0.085,0.362c0.058,0.093,0.147,0.162,0.27,0.209c0.106,0.042,0.242,0.074,0.41,0.096
			c0.167,0.021,0.312,0.035,0.435,0.044v0.419h-3.301v-0.419c0.097-0.009,0.198-0.017,0.302-0.025
			c0.104-0.009,0.193-0.025,0.27-0.051c0.119-0.038,0.206-0.104,0.264-0.199c0.057-0.096,0.085-0.219,0.085-0.371v-3.861
			c0-0.131-0.031-0.26-0.092-0.387c-0.061-0.127-0.147-0.229-0.257-0.305c-0.081-0.051-0.176-0.087-0.286-0.11
			s-0.229-0.039-0.355-0.048v-0.419l2.082-0.14l0.089,0.089v0.883h0.032c0.262-0.344,0.554-0.604,0.876-0.781
			s0.616-0.267,0.882-0.267s0.483,0.087,0.651,0.261C60.957,120.423,61.04,120.656,61.04,120.947z"/>
		<path fill="#002A5C" d="M67.68,123.207c0,0.44-0.07,0.873-0.209,1.299c-0.14,0.425-0.339,0.786-0.598,1.082
			c-0.292,0.339-0.631,0.59-1.017,0.756c-0.385,0.164-0.817,0.247-1.296,0.247c-0.398,0-0.777-0.075-1.137-0.226
			s-0.68-0.369-0.959-0.656c-0.275-0.284-0.495-0.63-0.658-1.038s-0.245-0.866-0.245-1.374c0-0.979,0.285-1.777,0.854-2.4
			c0.57-0.621,1.316-0.933,2.24-0.933c0.876,0,1.6,0.295,2.17,0.886C67.395,121.439,67.68,122.226,67.68,123.207z M66.366,123.221
			c0-0.318-0.032-0.653-0.095-1.007c-0.064-0.354-0.159-0.652-0.286-0.897c-0.136-0.263-0.314-0.474-0.534-0.632
			c-0.221-0.159-0.49-0.238-0.808-0.238c-0.327,0-0.605,0.08-0.836,0.241s-0.418,0.381-0.563,0.66
			c-0.135,0.258-0.231,0.553-0.286,0.883s-0.083,0.649-0.083,0.958c0,0.406,0.033,0.782,0.099,1.127
			c0.065,0.345,0.17,0.652,0.315,0.923c0.144,0.271,0.325,0.484,0.543,0.639s0.489,0.231,0.811,0.231
			c0.53,0,0.949-0.256,1.259-0.769C66.211,124.828,66.366,124.121,66.366,123.221z"/>
		<path fill="#002A5C" d="M72.713,123.334c0.173,0.152,0.307,0.328,0.4,0.527s0.14,0.442,0.14,0.73c0,0.579-0.217,1.053-0.65,1.422
			c-0.434,0.367-0.996,0.552-1.686,0.552c-0.364,0-0.699-0.065-1.006-0.196c-0.307-0.132-0.526-0.252-0.657-0.362l-0.127,0.413
			h-0.476l-0.063-2.178h0.438c0.034,0.166,0.106,0.359,0.216,0.58s0.243,0.42,0.4,0.599c0.165,0.187,0.363,0.344,0.593,0.471
			c0.231,0.128,0.49,0.191,0.778,0.191c0.406,0,0.719-0.093,0.939-0.277c0.22-0.186,0.33-0.45,0.33-0.796
			c0-0.178-0.035-0.331-0.105-0.46c-0.069-0.129-0.172-0.242-0.308-0.339c-0.14-0.098-0.311-0.186-0.514-0.264
			s-0.43-0.156-0.679-0.232c-0.199-0.059-0.42-0.141-0.663-0.244c-0.244-0.104-0.452-0.225-0.625-0.365
			c-0.186-0.147-0.338-0.33-0.457-0.545c-0.119-0.217-0.178-0.471-0.178-0.762c0-0.513,0.19-0.946,0.571-1.302
			s0.891-0.533,1.53-0.533c0.246,0,0.496,0.032,0.752,0.095c0.256,0.064,0.465,0.141,0.625,0.229l0.146-0.33h0.457l0.095,2.013
			h-0.438c-0.089-0.45-0.28-0.816-0.574-1.1c-0.294-0.282-0.653-0.424-1.076-0.424c-0.347,0-0.62,0.087-0.819,0.262
			s-0.298,0.386-0.298,0.634c0,0.189,0.033,0.349,0.099,0.476c0.065,0.127,0.164,0.235,0.295,0.323
			c0.127,0.085,0.287,0.164,0.479,0.238c0.192,0.074,0.43,0.158,0.714,0.251c0.279,0.089,0.543,0.192,0.79,0.312
			C72.349,123.06,72.553,123.19,72.713,123.334z"/>
		<path fill="#002A5C" d="M79.613,126.02c0,0.466-0.068,0.902-0.203,1.311s-0.315,0.746-0.54,1.013
			c-0.241,0.283-0.513,0.5-0.815,0.65c-0.303,0.15-0.636,0.226-1,0.226c-0.376,0-0.66-0.075-0.851-0.226s-0.286-0.327-0.286-0.53
			c0-0.182,0.051-0.341,0.152-0.479s0.25-0.207,0.444-0.207c0.131,0,0.248,0.028,0.349,0.083s0.19,0.127,0.267,0.216
			c0.068,0.076,0.137,0.17,0.206,0.282c0.07,0.112,0.137,0.222,0.2,0.327c0.322,0,0.551-0.194,0.688-0.584
			c0.138-0.39,0.207-1.014,0.207-1.873v-4.709c0-0.136-0.033-0.266-0.098-0.391c-0.066-0.125-0.151-0.226-0.257-0.302
			c-0.068-0.047-0.229-0.093-0.486-0.14c-0.256-0.047-0.449-0.076-0.581-0.089v-0.394l2.514-0.14l0.089,0.089V126.02z
			 M79.708,117.59c0,0.241-0.079,0.452-0.238,0.632c-0.158,0.18-0.354,0.27-0.587,0.27c-0.216,0-0.403-0.086-0.562-0.257
			c-0.159-0.172-0.238-0.367-0.238-0.588c0-0.232,0.079-0.436,0.238-0.609c0.158-0.173,0.346-0.26,0.562-0.26
			c0.241,0,0.439,0.081,0.594,0.244C79.631,117.185,79.708,117.374,79.708,117.59z"/>
		<path fill="#002A5C" d="M87.059,126.286c-0.199,0.072-0.374,0.13-0.523,0.175c-0.15,0.044-0.321,0.066-0.511,0.066
			c-0.33,0-0.593-0.077-0.791-0.231c-0.196-0.154-0.322-0.38-0.377-0.677h-0.038c-0.275,0.305-0.57,0.538-0.885,0.699
			c-0.315,0.16-0.695,0.24-1.14,0.24c-0.47,0-0.856-0.144-1.158-0.432c-0.303-0.287-0.454-0.664-0.454-1.129
			c0-0.242,0.034-0.457,0.102-0.648c0.068-0.189,0.169-0.361,0.305-0.514c0.106-0.127,0.246-0.24,0.419-0.34
			s0.336-0.179,0.489-0.238c0.19-0.071,0.577-0.205,1.159-0.399c0.582-0.194,0.974-0.347,1.177-0.457v-0.628
			c0-0.056-0.012-0.161-0.035-0.318c-0.023-0.156-0.073-0.305-0.149-0.443c-0.084-0.157-0.204-0.294-0.358-0.41
			c-0.155-0.116-0.374-0.174-0.657-0.174c-0.195,0-0.375,0.032-0.543,0.098c-0.167,0.065-0.284,0.135-0.352,0.207
			c0,0.084,0.02,0.209,0.06,0.374c0.041,0.165,0.061,0.317,0.061,0.457c0,0.148-0.066,0.283-0.2,0.406
			c-0.133,0.123-0.318,0.185-0.555,0.185c-0.211,0-0.367-0.075-0.466-0.226c-0.1-0.15-0.149-0.318-0.149-0.505
			c0-0.194,0.069-0.381,0.206-0.559c0.138-0.178,0.316-0.336,0.537-0.477c0.19-0.118,0.421-0.219,0.692-0.301
			c0.271-0.083,0.535-0.124,0.793-0.124c0.355,0,0.666,0.024,0.93,0.073c0.264,0.049,0.504,0.153,0.72,0.314
			c0.216,0.156,0.38,0.369,0.492,0.638c0.112,0.269,0.168,0.614,0.168,1.038c0,0.604-0.006,1.141-0.019,1.608
			s-0.019,0.979-0.019,1.533c0,0.165,0.029,0.296,0.085,0.394c0.058,0.098,0.145,0.18,0.264,0.248
			c0.063,0.037,0.164,0.059,0.302,0.062c0.137,0.005,0.278,0.007,0.422,0.007V126.286z M84.844,122.935
			c-0.36,0.106-0.675,0.21-0.946,0.312s-0.522,0.229-0.755,0.382c-0.211,0.145-0.379,0.315-0.501,0.512
			c-0.123,0.197-0.184,0.432-0.184,0.703c0,0.353,0.092,0.611,0.276,0.776c0.185,0.165,0.418,0.248,0.702,0.248
			c0.3,0,0.565-0.073,0.793-0.22s0.421-0.318,0.578-0.519L84.844,122.935z"/>
		<path fill="#002A5C" d="M94.035,123.265c0,0.939-0.296,1.729-0.889,2.368c-0.592,0.639-1.28,0.958-2.063,0.958
			c-0.343,0-0.68-0.053-1.013-0.159c-0.332-0.105-0.644-0.247-0.936-0.425l-0.47,0.729l-0.394-0.089
			c0.021-0.312,0.036-0.689,0.044-1.13s0.013-0.866,0.013-1.277v-6.199c0-0.144-0.033-0.288-0.099-0.432
			c-0.065-0.145-0.149-0.248-0.25-0.312c-0.081-0.055-0.215-0.096-0.403-0.124c-0.188-0.027-0.34-0.045-0.454-0.054v-0.406
			l2.298-0.14l0.089,0.096v4.125l0.044,0.014c0.262-0.279,0.549-0.489,0.86-0.629c0.312-0.14,0.617-0.209,0.917-0.209
			c0.77,0,1.414,0.305,1.93,0.914S94.035,122.287,94.035,123.265z M92.708,123.309c0-0.312-0.034-0.632-0.102-0.958
			s-0.173-0.609-0.317-0.851c-0.144-0.245-0.332-0.444-0.565-0.597s-0.512-0.229-0.838-0.229c-0.296,0-0.555,0.059-0.778,0.175
			c-0.222,0.116-0.422,0.273-0.6,0.473v3.644c0.025,0.102,0.075,0.22,0.149,0.355c0.074,0.136,0.174,0.265,0.301,0.388
			c0.127,0.118,0.271,0.214,0.432,0.288s0.357,0.111,0.59,0.111c0.516,0,0.933-0.25,1.25-0.749S92.708,124.177,92.708,123.309z"/>
		<path fill="#002A5C" d="M101.068,123.207c0,0.44-0.07,0.873-0.209,1.299c-0.14,0.425-0.339,0.786-0.598,1.082
			c-0.292,0.339-0.631,0.59-1.017,0.756c-0.385,0.164-0.817,0.247-1.296,0.247c-0.398,0-0.777-0.075-1.137-0.226
			s-0.68-0.369-0.959-0.656c-0.275-0.284-0.495-0.63-0.658-1.038s-0.245-0.866-0.245-1.374c0-0.979,0.285-1.777,0.854-2.4
			c0.57-0.621,1.316-0.933,2.24-0.933c0.876,0,1.6,0.295,2.17,0.886C100.783,121.439,101.068,122.226,101.068,123.207z
			 M99.754,123.221c0-0.318-0.032-0.653-0.095-1.007c-0.064-0.354-0.159-0.652-0.286-0.897c-0.136-0.263-0.314-0.474-0.534-0.632
			c-0.221-0.159-0.49-0.238-0.808-0.238c-0.327,0-0.605,0.08-0.836,0.241s-0.418,0.381-0.563,0.66
			c-0.135,0.258-0.231,0.553-0.286,0.883s-0.083,0.649-0.083,0.958c0,0.406,0.033,0.782,0.099,1.127
			c0.065,0.345,0.17,0.652,0.315,0.923c0.144,0.271,0.325,0.484,0.543,0.639s0.489,0.231,0.811,0.231
			c0.53,0,0.949-0.256,1.259-0.769C99.6,124.828,99.754,124.121,99.754,123.221z"/>
		<path fill="#002A5C" d="M108.882,126.4h-3.06v-0.419c0.097-0.009,0.204-0.017,0.321-0.025c0.116-0.009,0.212-0.025,0.289-0.051
			c0.119-0.038,0.207-0.104,0.263-0.2c0.058-0.095,0.086-0.219,0.086-0.371v-3.219c0-0.443-0.105-0.787-0.315-1.027
			c-0.21-0.242-0.466-0.362-0.767-0.362c-0.225,0-0.431,0.035-0.617,0.104c-0.187,0.07-0.352,0.156-0.497,0.258
			c-0.14,0.097-0.251,0.201-0.334,0.313c-0.083,0.112-0.143,0.202-0.181,0.271v3.599c0,0.144,0.03,0.263,0.089,0.355
			s0.148,0.165,0.267,0.216c0.089,0.042,0.185,0.074,0.289,0.096c0.104,0.021,0.211,0.035,0.321,0.044v0.419h-3.066v-0.419
			c0.097-0.009,0.198-0.017,0.302-0.025c0.104-0.009,0.193-0.025,0.27-0.051c0.119-0.038,0.206-0.104,0.264-0.199
			c0.057-0.096,0.085-0.219,0.085-0.371v-3.861c0-0.144-0.031-0.275-0.092-0.396c-0.061-0.12-0.147-0.219-0.257-0.295
			c-0.081-0.051-0.176-0.087-0.286-0.11s-0.229-0.039-0.355-0.048v-0.419l2.082-0.14l0.089,0.089v0.883h0.032
			c0.102-0.102,0.229-0.224,0.381-0.365s0.296-0.258,0.432-0.346c0.157-0.102,0.343-0.187,0.559-0.254
			c0.216-0.068,0.459-0.102,0.73-0.102c0.601,0,1.046,0.187,1.336,0.562c0.29,0.374,0.435,0.872,0.435,1.495v3.256
			c0,0.148,0.025,0.268,0.076,0.358s0.138,0.162,0.26,0.213c0.102,0.042,0.189,0.072,0.263,0.089
			c0.074,0.017,0.177,0.029,0.308,0.038V126.4z"/>
		<path fill="#002A5C" d="M115.211,124.928c-0.262,0.499-0.614,0.897-1.054,1.193s-0.946,0.444-1.517,0.444
			c-0.503,0-0.945-0.089-1.324-0.267c-0.378-0.178-0.69-0.419-0.936-0.724s-0.428-0.66-0.549-1.066
			c-0.12-0.406-0.181-0.836-0.181-1.288c0-0.406,0.064-0.806,0.193-1.197c0.129-0.392,0.319-0.743,0.568-1.057
			c0.241-0.301,0.541-0.543,0.898-0.727c0.357-0.185,0.758-0.276,1.203-0.276c0.457,0,0.849,0.072,1.174,0.216
			s0.59,0.341,0.793,0.59c0.195,0.237,0.339,0.517,0.435,0.838c0.095,0.322,0.143,0.671,0.143,1.048v0.419h-4.145
			c0,0.411,0.039,0.785,0.118,1.12c0.078,0.335,0.202,0.63,0.371,0.884c0.165,0.246,0.381,0.44,0.647,0.582
			c0.267,0.143,0.584,0.213,0.952,0.213c0.376,0,0.701-0.088,0.975-0.265c0.272-0.176,0.536-0.494,0.79-0.954L115.211,124.928z
			 M113.808,122.541c0-0.236-0.02-0.489-0.06-0.76c-0.041-0.27-0.105-0.495-0.194-0.677c-0.097-0.194-0.23-0.353-0.4-0.475
			s-0.387-0.184-0.654-0.184c-0.444,0-0.813,0.185-1.108,0.554c-0.294,0.369-0.454,0.883-0.479,1.541H113.808z"/>
		<path fill="#002A5C" d="M120.067,123.334c0.173,0.152,0.307,0.328,0.4,0.527s0.14,0.442,0.14,0.73c0,0.579-0.217,1.053-0.65,1.422
			c-0.434,0.367-0.996,0.552-1.686,0.552c-0.364,0-0.699-0.065-1.006-0.196c-0.307-0.132-0.526-0.252-0.657-0.362l-0.127,0.413
			h-0.476l-0.063-2.178h0.438c0.034,0.166,0.106,0.359,0.216,0.58s0.243,0.42,0.4,0.599c0.165,0.187,0.363,0.344,0.593,0.471
			c0.231,0.128,0.49,0.191,0.778,0.191c0.406,0,0.719-0.093,0.939-0.277c0.22-0.186,0.33-0.45,0.33-0.796
			c0-0.178-0.035-0.331-0.105-0.46c-0.069-0.129-0.172-0.242-0.308-0.339c-0.14-0.098-0.311-0.186-0.514-0.264
			s-0.43-0.156-0.679-0.232c-0.199-0.059-0.42-0.141-0.663-0.244c-0.244-0.104-0.452-0.225-0.625-0.365
			c-0.186-0.147-0.338-0.33-0.457-0.545c-0.119-0.217-0.178-0.471-0.178-0.762c0-0.513,0.19-0.946,0.571-1.302
			s0.891-0.533,1.53-0.533c0.246,0,0.496,0.032,0.752,0.095c0.256,0.064,0.465,0.141,0.625,0.229l0.146-0.33h0.457l0.095,2.013
			h-0.438c-0.089-0.45-0.28-0.816-0.574-1.1c-0.294-0.282-0.653-0.424-1.076-0.424c-0.347,0-0.62,0.087-0.819,0.262
			s-0.298,0.386-0.298,0.634c0,0.189,0.033,0.349,0.099,0.476c0.065,0.127,0.164,0.235,0.295,0.323
			c0.127,0.085,0.287,0.164,0.479,0.238c0.192,0.074,0.43,0.158,0.714,0.251c0.279,0.089,0.543,0.192,0.79,0.312
			C119.702,123.06,119.906,123.19,120.067,123.334z"/>
	</g>
</g>
<line fill="#FFFFFF" stroke="#262728" stroke-linecap="round" stroke-miterlimit="10" stroke-dasharray="1,3" x1="49" y1="76.5" x2="94" y2="76.5"/>
</svg>
