<?xml version="1.0" encoding="utf-8"?>
<!-- Generator: Adobe Illustrator 16.0.4, SVG Export Plug-In . SVG Version: 6.00 Build 0)  -->
<!DOCTYPE svg PUBLIC "-//W3C//DTD SVG 1.1//EN" "http://www.w3.org/Graphics/SVG/1.1/DTD/svg11.dtd">
<svg version="1.1" id="Layer_1" xmlns="http://www.w3.org/2000/svg" xmlns:xlink="http://www.w3.org/1999/xlink" x="0px" y="0px"
	 width="199px" height="151px" viewBox="0 0 199 151" enable-background="new 0 0 199 151" xml:space="preserve">
<g>
	<g>
		<path fill="#002A5C" d="M73.084,42H58.582l0.281-1.266c0.363-0.023,0.938-0.082,1.723-0.176s1.33-0.188,1.635-0.281
			c0.34-0.105,0.653-0.305,0.94-0.598s0.483-0.68,0.589-1.16l3.428-14.818H62.73l0.368-1.6h0.492c1.029,0,1.964-0.111,2.806-0.334
			c0.842-0.223,1.573-0.492,2.193-0.809c0.631-0.316,1.181-0.659,1.649-1.028s0.813-0.677,1.035-0.923h3.087
			c-0.245,0.878-0.486,1.774-0.724,2.688c-0.238,0.913-0.463,1.821-0.672,2.723l-3.143,13.589c-0.035,0.141-0.068,0.305-0.097,0.492
			c-0.029,0.188-0.044,0.34-0.044,0.458c0,0.281,0.062,0.516,0.185,0.703c0.123,0.188,0.296,0.347,0.52,0.475
			c0.258,0.142,0.729,0.271,1.41,0.388s1.205,0.188,1.569,0.211L73.084,42z"/>
		<path fill="#002A5C" d="M99.196,27.199c0,4.699-1.74,8.66-5.221,11.883s-8.156,5.215-14.027,5.977l-0.105-1.74l1.931-0.317
			c1.498-0.399,2.794-0.927,3.888-1.584c1.094-0.657,2.027-1.409,2.799-2.255c0.761-0.821,1.418-1.748,1.975-2.781
			c0.556-1.033,1.003-2.055,1.343-3.064c-1.147,0.874-2.247,1.482-3.3,1.824c-1.053,0.343-2.2,0.514-3.44,0.514
			c-1.768,0-3.248-0.624-4.441-1.872s-1.791-2.815-1.791-4.702c0-2.754,1.134-5.127,3.401-7.119s5.042-2.988,8.323-2.988
			c2.637,0,4.74,0.75,6.311,2.25S99.196,24.715,99.196,27.199z M93.008,25.346c0-1.533-0.254-2.731-0.763-3.598
			c-0.508-0.865-1.16-1.299-1.955-1.299c-1.321,0-2.473,0.831-3.455,2.493c-0.982,1.661-1.473,3.709-1.473,6.144
			c0,1.264,0.266,2.276,0.798,3.037c0.531,0.761,1.23,1.141,2.095,1.141c0.666,0,1.344-0.144,2.034-0.431
			c0.69-0.287,1.344-0.794,1.964-1.521c0.082-0.374,0.229-1.056,0.439-2.045C92.903,28.279,93.008,26.972,93.008,25.346z"/>
		<path fill="#002A5C" d="M122.795,21.812L104.82,44.953h-2.979l16.633-20.672h-7.967c-0.949,0-1.738,0.009-2.365,0.026
			s-1.186,0.131-1.678,0.341c-0.375,0.152-0.762,0.52-1.16,1.103c-0.398,0.584-0.814,1.4-1.248,2.45h-1.284l2.004-8.666h18.545
			L122.795,21.812z"/>
		<path fill="#002A5C" d="M143.545,21.812L125.57,44.953h-2.979l16.634-20.672h-7.968c-0.949,0-1.737,0.009-2.364,0.026
			s-1.187,0.131-1.679,0.341c-0.375,0.152-0.762,0.52-1.16,1.103c-0.398,0.584-0.814,1.4-1.248,2.45h-1.283l2.004-8.666h18.545
			L143.545,21.812z"/>
		<path fill="#002A5C" d="M57.695,94.015c0,0.469-0.092,0.885-0.276,1.247c-0.184,0.361-0.439,0.661-0.765,0.897
			c-0.322,0.237-0.675,0.411-1.06,0.521c-0.385,0.109-0.793,0.164-1.225,0.164h-1.009v2.73c0,0.147,0.024,0.277,0.073,0.39
			c0.049,0.112,0.149,0.198,0.302,0.257c0.076,0.03,0.21,0.058,0.403,0.083c0.192,0.025,0.369,0.04,0.53,0.044v0.451h-3.866v-0.451
			c0.102-0.008,0.249-0.022,0.441-0.044c0.192-0.021,0.327-0.049,0.403-0.083c0.127-0.055,0.219-0.135,0.276-0.24
			c0.058-0.106,0.086-0.242,0.086-0.406v-6.5c0-0.148-0.021-0.282-0.063-0.4s-0.142-0.207-0.298-0.267
			c-0.161-0.055-0.321-0.094-0.479-0.117c-0.159-0.023-0.295-0.039-0.41-0.048v-0.451h4.113c0.838,0,1.518,0.202,2.041,0.606
			C57.434,92.803,57.695,93.341,57.695,94.015z M55.765,95.55c0.144-0.203,0.239-0.413,0.286-0.631s0.07-0.414,0.07-0.588
			c0-0.24-0.028-0.486-0.086-0.736c-0.057-0.249-0.155-0.467-0.295-0.653c-0.148-0.199-0.343-0.354-0.584-0.464
			c-0.241-0.109-0.542-0.164-0.901-0.164h-0.895v3.979h0.647c0.457,0,0.829-0.071,1.114-0.213
			C55.407,95.938,55.621,95.762,55.765,95.55z"/>
		<path fill="#002A5C" d="M63.487,95.347c0,0.217-0.053,0.408-0.159,0.575s-0.269,0.251-0.489,0.251
			c-0.237,0-0.418-0.062-0.542-0.185c-0.125-0.123-0.188-0.258-0.188-0.406c0-0.093,0.007-0.178,0.022-0.254
			c0.015-0.076,0.028-0.152,0.041-0.229c-0.199,0-0.432,0.08-0.698,0.241s-0.493,0.39-0.679,0.686v3.644
			c0,0.148,0.029,0.269,0.085,0.362c0.058,0.093,0.147,0.162,0.27,0.209c0.106,0.042,0.242,0.074,0.41,0.096
			c0.167,0.021,0.312,0.035,0.435,0.044v0.419h-3.301v-0.419c0.097-0.009,0.198-0.017,0.302-0.025
			c0.104-0.009,0.193-0.025,0.27-0.051c0.119-0.038,0.206-0.104,0.264-0.199c0.057-0.096,0.085-0.219,0.085-0.371v-3.861
			c0-0.131-0.031-0.26-0.092-0.387c-0.061-0.127-0.147-0.229-0.257-0.305c-0.081-0.051-0.176-0.087-0.286-0.11
			s-0.229-0.039-0.355-0.048v-0.419l2.082-0.14l0.089,0.089v0.883h0.032c0.262-0.344,0.554-0.604,0.876-0.781
			s0.616-0.267,0.882-0.267s0.483,0.087,0.651,0.261C63.403,94.822,63.487,95.056,63.487,95.347z"/>
		<path fill="#002A5C" d="M67.184,100.8h-3.021v-0.419c0.097-0.009,0.198-0.017,0.302-0.025c0.104-0.009,0.193-0.025,0.27-0.051
			c0.119-0.038,0.206-0.104,0.264-0.199c0.057-0.096,0.085-0.219,0.085-0.371v-3.861c0-0.136-0.031-0.259-0.092-0.371
			c-0.061-0.112-0.147-0.206-0.257-0.282c-0.081-0.051-0.197-0.094-0.349-0.13s-0.292-0.058-0.419-0.066v-0.419l2.209-0.14
			l0.089,0.089v5.104c0,0.148,0.028,0.271,0.085,0.368s0.146,0.169,0.268,0.216c0.092,0.038,0.183,0.068,0.271,0.092
			s0.187,0.039,0.296,0.048V100.8z M66.391,91.995c0,0.242-0.08,0.452-0.238,0.632c-0.159,0.18-0.354,0.271-0.587,0.271
			c-0.216,0-0.403-0.086-0.562-0.258c-0.158-0.171-0.238-0.367-0.238-0.587c0-0.232,0.08-0.436,0.238-0.609
			c0.159-0.174,0.346-0.261,0.562-0.261c0.241,0,0.439,0.082,0.593,0.245C66.313,91.591,66.391,91.78,66.391,91.995z"/>
		<path fill="#002A5C" d="M78.797,100.8H75.75v-0.419c0.097-0.009,0.196-0.017,0.295-0.025c0.099-0.009,0.187-0.025,0.263-0.051
			c0.119-0.038,0.207-0.104,0.263-0.2c0.058-0.095,0.086-0.219,0.086-0.371v-3.23c0-0.44-0.101-0.78-0.302-1.02
			c-0.201-0.239-0.452-0.358-0.752-0.358c-0.208,0-0.402,0.032-0.584,0.095c-0.182,0.064-0.349,0.152-0.501,0.268
			c-0.123,0.093-0.225,0.193-0.308,0.301c-0.082,0.108-0.145,0.198-0.187,0.27v3.612c0,0.148,0.025,0.27,0.076,0.365
			c0.051,0.095,0.138,0.168,0.26,0.219c0.097,0.038,0.185,0.066,0.264,0.086c0.078,0.019,0.181,0.032,0.308,0.041v0.419h-2.983
			v-0.419c0.097-0.009,0.191-0.017,0.282-0.025c0.091-0.009,0.175-0.025,0.251-0.051c0.119-0.038,0.206-0.104,0.264-0.2
			c0.057-0.095,0.085-0.219,0.085-0.371v-3.23c0-0.44-0.101-0.78-0.302-1.02s-0.453-0.358-0.754-0.358
			c-0.208,0-0.403,0.033-0.585,0.099c-0.183,0.065-0.35,0.155-0.503,0.27c-0.123,0.093-0.227,0.198-0.312,0.314
			s-0.148,0.204-0.191,0.264v3.586c0,0.144,0.03,0.265,0.089,0.361c0.059,0.098,0.148,0.172,0.267,0.223
			c0.089,0.042,0.18,0.074,0.273,0.096c0.093,0.021,0.197,0.035,0.311,0.044v0.419h-3.041v-0.419
			c0.097-0.009,0.198-0.017,0.301-0.025c0.104-0.009,0.194-0.025,0.27-0.051c0.119-0.038,0.207-0.104,0.263-0.199
			c0.058-0.096,0.086-0.219,0.086-0.371v-3.887c0-0.135-0.031-0.257-0.092-0.364c-0.062-0.108-0.147-0.2-0.257-0.276
			c-0.081-0.051-0.18-0.092-0.298-0.123c-0.119-0.032-0.241-0.052-0.368-0.061v-0.419l2.095-0.14l0.089,0.089v0.895h0.044
			c0.106-0.105,0.235-0.23,0.387-0.374s0.294-0.261,0.425-0.349c0.148-0.102,0.333-0.187,0.555-0.254
			c0.223-0.068,0.462-0.102,0.721-0.102c0.406,0,0.755,0.108,1.047,0.326s0.501,0.481,0.628,0.791
			c0.152-0.148,0.286-0.278,0.402-0.391s0.27-0.232,0.459-0.359c0.161-0.109,0.35-0.198,0.567-0.266
			c0.217-0.068,0.459-0.102,0.726-0.102c0.528,0,0.946,0.173,1.254,0.52c0.309,0.348,0.463,0.881,0.463,1.6v3.181
			c0,0.148,0.025,0.27,0.076,0.365c0.051,0.095,0.138,0.168,0.26,0.219c0.097,0.038,0.194,0.066,0.289,0.086
			c0.096,0.019,0.202,0.032,0.321,0.041V100.8z"/>
		<path fill="#002A5C" d="M85.23,99.327c-0.262,0.499-0.614,0.897-1.054,1.193s-0.946,0.444-1.517,0.444
			c-0.503,0-0.945-0.089-1.324-0.267c-0.378-0.178-0.69-0.419-0.936-0.724s-0.428-0.66-0.549-1.066
			c-0.12-0.406-0.181-0.836-0.181-1.288c0-0.406,0.064-0.806,0.193-1.197c0.129-0.392,0.319-0.743,0.568-1.057
			c0.241-0.301,0.541-0.543,0.898-0.727c0.357-0.185,0.758-0.276,1.203-0.276c0.457,0,0.849,0.072,1.174,0.216
			s0.59,0.341,0.793,0.59c0.195,0.237,0.339,0.517,0.435,0.838c0.095,0.322,0.143,0.671,0.143,1.048v0.419h-4.145
			c0,0.411,0.039,0.785,0.118,1.12c0.078,0.335,0.202,0.63,0.371,0.884c0.165,0.246,0.381,0.44,0.647,0.582
			c0.267,0.143,0.584,0.213,0.952,0.213c0.376,0,0.701-0.088,0.975-0.265c0.272-0.176,0.536-0.494,0.79-0.954L85.23,99.327z
			 M83.828,96.94c0-0.236-0.02-0.489-0.06-0.76c-0.041-0.27-0.105-0.495-0.194-0.677c-0.097-0.194-0.23-0.353-0.4-0.475
			s-0.387-0.184-0.654-0.184c-0.444,0-0.813,0.185-1.108,0.554c-0.294,0.369-0.454,0.883-0.479,1.541H83.828z"/>
		<path fill="#002A5C" d="M90.876,95.347c0,0.217-0.053,0.408-0.159,0.575s-0.269,0.251-0.489,0.251
			c-0.237,0-0.418-0.062-0.542-0.185c-0.125-0.123-0.188-0.258-0.188-0.406c0-0.093,0.007-0.178,0.022-0.254
			c0.015-0.076,0.028-0.152,0.041-0.229c-0.199,0-0.432,0.08-0.698,0.241s-0.493,0.39-0.679,0.686v3.644
			c0,0.148,0.029,0.269,0.085,0.362c0.058,0.093,0.147,0.162,0.27,0.209c0.106,0.042,0.242,0.074,0.41,0.096
			c0.167,0.021,0.312,0.035,0.435,0.044v0.419h-3.301v-0.419c0.097-0.009,0.198-0.017,0.302-0.025
			c0.104-0.009,0.193-0.025,0.27-0.051c0.119-0.038,0.206-0.104,0.264-0.199c0.057-0.096,0.085-0.219,0.085-0.371v-3.861
			c0-0.131-0.031-0.26-0.092-0.387c-0.061-0.127-0.147-0.229-0.257-0.305c-0.081-0.051-0.176-0.087-0.286-0.11
			s-0.229-0.039-0.355-0.048v-0.419l2.082-0.14l0.089,0.089v0.883h0.032c0.262-0.344,0.554-0.604,0.876-0.781
			s0.616-0.267,0.882-0.267s0.483,0.087,0.651,0.261C90.793,94.822,90.876,95.056,90.876,95.347z"/>
		<path fill="#002A5C" d="M97.468,100.686c-0.199,0.072-0.374,0.13-0.523,0.175c-0.15,0.044-0.321,0.066-0.511,0.066
			c-0.33,0-0.593-0.077-0.791-0.231c-0.196-0.154-0.322-0.38-0.377-0.677h-0.038c-0.275,0.305-0.57,0.538-0.885,0.699
			c-0.315,0.16-0.695,0.24-1.14,0.24c-0.47,0-0.856-0.144-1.158-0.432c-0.303-0.287-0.454-0.664-0.454-1.129
			c0-0.242,0.034-0.457,0.102-0.648c0.068-0.189,0.169-0.361,0.305-0.514c0.106-0.127,0.246-0.24,0.419-0.34
			s0.336-0.179,0.489-0.238c0.19-0.071,0.577-0.205,1.159-0.399c0.582-0.194,0.974-0.347,1.177-0.457v-0.628
			c0-0.056-0.012-0.161-0.035-0.318c-0.023-0.156-0.073-0.305-0.149-0.443c-0.084-0.157-0.204-0.294-0.358-0.41
			c-0.155-0.116-0.374-0.174-0.657-0.174c-0.195,0-0.375,0.032-0.543,0.098c-0.167,0.065-0.284,0.135-0.352,0.207
			c0,0.084,0.02,0.209,0.06,0.374c0.041,0.165,0.061,0.317,0.061,0.457c0,0.148-0.066,0.283-0.2,0.406
			c-0.133,0.123-0.318,0.185-0.555,0.185c-0.211,0-0.367-0.075-0.466-0.226c-0.1-0.15-0.149-0.318-0.149-0.505
			c0-0.194,0.069-0.381,0.206-0.559c0.138-0.178,0.316-0.336,0.537-0.477c0.19-0.118,0.421-0.219,0.692-0.301
			c0.271-0.083,0.535-0.124,0.793-0.124c0.355,0,0.666,0.024,0.93,0.073c0.264,0.049,0.504,0.153,0.72,0.314
			c0.216,0.156,0.38,0.369,0.492,0.638c0.112,0.269,0.168,0.614,0.168,1.038c0,0.604-0.006,1.141-0.019,1.608
			s-0.019,0.979-0.019,1.533c0,0.165,0.029,0.296,0.085,0.394c0.058,0.098,0.145,0.18,0.264,0.248
			c0.063,0.037,0.164,0.059,0.302,0.062c0.137,0.005,0.278,0.007,0.422,0.007V100.686z M95.253,97.334
			c-0.36,0.106-0.675,0.21-0.946,0.312s-0.522,0.229-0.755,0.382c-0.211,0.145-0.379,0.315-0.501,0.512
			c-0.123,0.197-0.184,0.432-0.184,0.703c0,0.353,0.092,0.611,0.276,0.776c0.185,0.165,0.418,0.248,0.702,0.248
			c0.3,0,0.565-0.073,0.793-0.22s0.421-0.318,0.578-0.519L95.253,97.334z"/>
		<path fill="#002A5C" d="M104.381,100.965c-0.906,0-1.614-0.301-2.126-0.901s-0.768-1.407-0.768-2.418
			c0-0.44,0.069-0.853,0.206-1.235c0.138-0.383,0.338-0.73,0.6-1.044c0.25-0.301,0.563-0.543,0.94-0.727
			c0.376-0.185,0.787-0.276,1.23-0.276c0.614,0,1.113,0.147,1.498,0.441c0.386,0.294,0.578,0.694,0.578,1.202
			c0,0.212-0.051,0.399-0.152,0.562s-0.269,0.244-0.502,0.244c-0.249,0-0.443-0.063-0.58-0.189
			c-0.138-0.127-0.207-0.269-0.207-0.424c0-0.19,0.025-0.386,0.076-0.586s0.081-0.347,0.09-0.439
			c-0.076-0.131-0.189-0.219-0.34-0.263c-0.149-0.044-0.311-0.066-0.484-0.066c-0.202,0-0.395,0.043-0.578,0.13
			s-0.363,0.247-0.535,0.479c-0.156,0.212-0.283,0.497-0.38,0.856c-0.097,0.36-0.146,0.79-0.146,1.289
			c0,0.787,0.174,1.43,0.523,1.927s0.806,0.745,1.372,0.745c0.41,0,0.753-0.1,1.029-0.3c0.277-0.199,0.534-0.499,0.771-0.899
			l0.405,0.267c-0.279,0.499-0.646,0.896-1.104,1.187C105.34,100.819,104.867,100.965,104.381,100.965z"/>
		<path fill="#002A5C" d="M113.626,97.606c0,0.44-0.069,0.873-0.21,1.299c-0.14,0.425-0.338,0.786-0.598,1.082
			c-0.291,0.339-0.631,0.59-1.016,0.756c-0.386,0.164-0.818,0.247-1.297,0.247c-0.398,0-0.777-0.075-1.137-0.226
			c-0.36-0.15-0.681-0.369-0.96-0.656c-0.275-0.284-0.495-0.63-0.657-1.038c-0.164-0.408-0.245-0.866-0.245-1.374
			c0-0.979,0.284-1.777,0.854-2.4c0.57-0.621,1.316-0.933,2.24-0.933c0.877,0,1.6,0.295,2.17,0.886
			C113.341,95.839,113.626,96.625,113.626,97.606z M112.312,97.62c0-0.318-0.032-0.653-0.096-1.007
			c-0.064-0.354-0.159-0.652-0.286-0.897c-0.136-0.263-0.313-0.474-0.534-0.632c-0.221-0.159-0.49-0.238-0.808-0.238
			c-0.327,0-0.605,0.08-0.837,0.241c-0.23,0.161-0.418,0.381-0.562,0.66c-0.135,0.258-0.23,0.553-0.286,0.883
			s-0.083,0.649-0.083,0.958c0,0.406,0.033,0.782,0.1,1.127c0.064,0.345,0.17,0.652,0.314,0.923
			c0.145,0.271,0.325,0.484,0.543,0.639c0.219,0.154,0.489,0.231,0.812,0.231c0.53,0,0.949-0.256,1.259-0.769
			C112.157,99.228,112.312,98.521,112.312,97.62z"/>
		<path fill="#002A5C" d="M118.789,97.733c0.174,0.152,0.307,0.328,0.4,0.527s0.14,0.442,0.14,0.73c0,0.579-0.217,1.053-0.65,1.422
			c-0.435,0.367-0.995,0.552-1.686,0.552c-0.364,0-0.699-0.065-1.006-0.196c-0.308-0.132-0.526-0.252-0.657-0.362l-0.127,0.413
			h-0.477l-0.062-2.178h0.438c0.033,0.166,0.105,0.359,0.216,0.58s0.243,0.42,0.399,0.599c0.166,0.187,0.363,0.344,0.594,0.471
			c0.23,0.128,0.49,0.191,0.777,0.191c0.406,0,0.72-0.093,0.939-0.277c0.221-0.186,0.33-0.45,0.33-0.796
			c0-0.178-0.034-0.331-0.104-0.46c-0.069-0.129-0.173-0.242-0.308-0.339c-0.14-0.098-0.311-0.186-0.514-0.264
			s-0.43-0.156-0.68-0.232c-0.199-0.059-0.42-0.141-0.663-0.244s-0.452-0.225-0.626-0.365c-0.186-0.147-0.338-0.33-0.457-0.545
			c-0.118-0.217-0.178-0.471-0.178-0.762c0-0.513,0.191-0.946,0.572-1.302s0.891-0.533,1.529-0.533c0.246,0,0.496,0.032,0.752,0.095
			c0.256,0.064,0.465,0.141,0.625,0.229l0.146-0.33h0.457l0.096,2.013h-0.438c-0.089-0.45-0.28-0.816-0.574-1.1
			c-0.294-0.282-0.653-0.424-1.076-0.424c-0.347,0-0.62,0.087-0.819,0.262c-0.198,0.175-0.298,0.386-0.298,0.634
			c0,0.189,0.032,0.349,0.099,0.476c0.065,0.127,0.164,0.235,0.295,0.323c0.127,0.085,0.287,0.164,0.479,0.238
			s0.431,0.158,0.714,0.251c0.279,0.089,0.543,0.192,0.79,0.312C118.425,97.459,118.629,97.59,118.789,97.733z"/>
		<path fill="#002A5C" d="M125.966,99.327c-0.263,0.499-0.614,0.897-1.054,1.193s-0.945,0.444-1.518,0.444
			c-0.503,0-0.944-0.089-1.323-0.267c-0.378-0.178-0.69-0.419-0.937-0.724c-0.245-0.305-0.428-0.66-0.549-1.066
			c-0.12-0.406-0.181-0.836-0.181-1.288c0-0.406,0.064-0.806,0.193-1.197c0.13-0.392,0.319-0.743,0.568-1.057
			c0.241-0.301,0.54-0.543,0.898-0.727c0.357-0.185,0.759-0.276,1.202-0.276c0.457,0,0.85,0.072,1.175,0.216s0.591,0.341,0.794,0.59
			c0.194,0.237,0.339,0.517,0.435,0.838c0.095,0.322,0.143,0.671,0.143,1.048v0.419h-4.146c0,0.411,0.039,0.785,0.118,1.12
			c0.078,0.335,0.202,0.63,0.371,0.884c0.165,0.246,0.381,0.44,0.647,0.582c0.267,0.143,0.584,0.213,0.952,0.213
			c0.376,0,0.701-0.088,0.975-0.265c0.272-0.176,0.536-0.494,0.79-0.954L125.966,99.327z M124.562,96.94
			c0-0.236-0.02-0.489-0.06-0.76c-0.04-0.27-0.104-0.495-0.194-0.677c-0.097-0.194-0.23-0.353-0.399-0.475s-0.388-0.184-0.653-0.184
			c-0.445,0-0.814,0.185-1.108,0.554s-0.454,0.883-0.479,1.541H124.562z"/>
		<path fill="#002A5C" d="M129.714,100.965c-0.905,0-1.614-0.301-2.126-0.901c-0.513-0.601-0.769-1.407-0.769-2.418
			c0-0.44,0.069-0.853,0.206-1.235c0.138-0.383,0.338-0.73,0.6-1.044c0.25-0.301,0.563-0.543,0.939-0.727
			c0.377-0.185,0.787-0.276,1.232-0.276c0.613,0,1.112,0.147,1.498,0.441c0.385,0.294,0.577,0.694,0.577,1.202
			c0,0.212-0.051,0.399-0.152,0.562s-0.269,0.244-0.501,0.244c-0.25,0-0.443-0.063-0.581-0.189
			c-0.138-0.127-0.206-0.269-0.206-0.424c0-0.19,0.025-0.386,0.076-0.586s0.08-0.347,0.088-0.439
			c-0.076-0.131-0.188-0.219-0.338-0.263c-0.15-0.044-0.312-0.066-0.484-0.066c-0.203,0-0.396,0.043-0.58,0.13
			s-0.361,0.247-0.535,0.479c-0.156,0.212-0.282,0.497-0.379,0.856c-0.098,0.36-0.146,0.79-0.146,1.289
			c0,0.787,0.175,1.43,0.523,1.927s0.806,0.745,1.372,0.745c0.409,0,0.753-0.1,1.03-0.3c0.276-0.199,0.533-0.499,0.77-0.899
			l0.406,0.267c-0.279,0.499-0.648,0.896-1.105,1.187C130.672,100.819,130.201,100.965,129.714,100.965z"/>
		<path fill="#002A5C" d="M139.664,100.8h-3.079v-0.419c0.097-0.009,0.205-0.017,0.323-0.025c0.119-0.009,0.217-0.025,0.293-0.051
			c0.118-0.038,0.206-0.104,0.263-0.2c0.058-0.095,0.086-0.219,0.086-0.371v-3.219c0-0.443-0.104-0.787-0.315-1.027
			c-0.209-0.242-0.465-0.362-0.766-0.362c-0.221,0-0.426,0.035-0.615,0.104c-0.188,0.07-0.357,0.156-0.506,0.258
			c-0.144,0.105-0.254,0.211-0.33,0.316c-0.076,0.106-0.136,0.195-0.178,0.268v3.599c0,0.144,0.028,0.263,0.085,0.355
			c0.058,0.093,0.146,0.165,0.264,0.216c0.093,0.042,0.189,0.074,0.289,0.096c0.099,0.021,0.208,0.035,0.327,0.044v0.419h-3.066
			v-0.419c0.097-0.009,0.197-0.018,0.303-0.028s0.193-0.026,0.265-0.048c0.118-0.038,0.206-0.104,0.265-0.2
			c0.059-0.095,0.088-0.219,0.088-0.372V92.44c0-0.144-0.032-0.288-0.098-0.432c-0.066-0.145-0.151-0.252-0.258-0.324
			c-0.076-0.055-0.21-0.094-0.402-0.117c-0.193-0.023-0.348-0.039-0.467-0.048v-0.406l2.316-0.14l0.09,0.096v4.367h0.025
			c0.139-0.141,0.267-0.264,0.381-0.372c0.115-0.107,0.266-0.221,0.451-0.339c0.162-0.102,0.352-0.187,0.569-0.254
			c0.218-0.068,0.464-0.102,0.734-0.102c0.56,0,0.989,0.176,1.29,0.529c0.302,0.354,0.452,0.862,0.452,1.527v3.256
			c0,0.148,0.026,0.268,0.08,0.358s0.142,0.162,0.265,0.213c0.099,0.038,0.188,0.066,0.266,0.086
			c0.079,0.019,0.182,0.032,0.311,0.041V100.8z"/>
		<path fill="#002A5C" d="M146.478,100.686c-0.198,0.072-0.374,0.13-0.523,0.175c-0.15,0.044-0.321,0.066-0.511,0.066
			c-0.33,0-0.594-0.077-0.791-0.231c-0.196-0.154-0.322-0.38-0.377-0.677h-0.039c-0.274,0.305-0.57,0.538-0.885,0.699
			c-0.315,0.16-0.695,0.24-1.14,0.24c-0.47,0-0.856-0.144-1.158-0.432c-0.303-0.287-0.454-0.664-0.454-1.129
			c0-0.242,0.033-0.457,0.102-0.648c0.068-0.189,0.17-0.361,0.305-0.514c0.105-0.127,0.246-0.24,0.419-0.34s0.337-0.179,0.489-0.238
			c0.189-0.071,0.576-0.205,1.158-0.399s0.975-0.347,1.178-0.457v-0.628c0-0.056-0.012-0.161-0.035-0.318
			c-0.023-0.156-0.073-0.305-0.149-0.443c-0.085-0.157-0.204-0.294-0.358-0.41s-0.373-0.174-0.657-0.174
			c-0.194,0-0.376,0.032-0.543,0.098s-0.284,0.135-0.353,0.207c0,0.084,0.021,0.209,0.061,0.374
			c0.041,0.165,0.061,0.317,0.061,0.457c0,0.148-0.066,0.283-0.2,0.406c-0.133,0.123-0.318,0.185-0.556,0.185
			c-0.211,0-0.367-0.075-0.466-0.226c-0.1-0.15-0.149-0.318-0.149-0.505c0-0.194,0.068-0.381,0.206-0.559s0.316-0.336,0.536-0.477
			c0.191-0.118,0.422-0.219,0.692-0.301c0.271-0.083,0.535-0.124,0.794-0.124c0.355,0,0.665,0.024,0.93,0.073
			c0.264,0.049,0.504,0.153,0.721,0.314c0.215,0.156,0.379,0.369,0.491,0.638s0.169,0.614,0.169,1.038
			c0,0.604-0.007,1.141-0.02,1.608s-0.02,0.979-0.02,1.533c0,0.165,0.029,0.296,0.086,0.394c0.058,0.098,0.145,0.18,0.264,0.248
			c0.063,0.037,0.164,0.059,0.302,0.062c0.138,0.005,0.278,0.007,0.422,0.007V100.686z M144.262,97.334
			c-0.359,0.106-0.674,0.21-0.945,0.312s-0.522,0.229-0.756,0.382c-0.211,0.145-0.379,0.315-0.501,0.512
			c-0.122,0.197-0.185,0.432-0.185,0.703c0,0.353,0.093,0.611,0.276,0.776c0.185,0.165,0.418,0.248,0.702,0.248
			c0.3,0,0.564-0.073,0.793-0.22s0.421-0.318,0.578-0.519L144.262,97.334z"/>
		<path fill="#002A5C" d="M24.518,110.947c0,0.217-0.053,0.408-0.159,0.575s-0.269,0.251-0.489,0.251
			c-0.237,0-0.418-0.062-0.542-0.185c-0.125-0.123-0.188-0.258-0.188-0.406c0-0.093,0.007-0.178,0.022-0.254
			c0.015-0.076,0.028-0.152,0.041-0.229c-0.199,0-0.432,0.08-0.698,0.241s-0.493,0.39-0.679,0.686v3.644
			c0,0.148,0.029,0.269,0.085,0.362c0.058,0.093,0.147,0.162,0.27,0.209c0.106,0.042,0.242,0.074,0.41,0.096
			c0.167,0.021,0.312,0.035,0.435,0.044v0.419h-3.301v-0.419c0.097-0.009,0.198-0.017,0.302-0.025
			c0.104-0.009,0.193-0.025,0.27-0.051c0.119-0.038,0.206-0.104,0.264-0.199c0.057-0.096,0.085-0.219,0.085-0.371v-3.861
			c0-0.131-0.031-0.26-0.092-0.387c-0.061-0.127-0.147-0.229-0.257-0.305c-0.081-0.051-0.176-0.087-0.286-0.11
			s-0.229-0.039-0.355-0.048v-0.419l2.082-0.14l0.089,0.089v0.883h0.032c0.262-0.344,0.554-0.604,0.876-0.781
			s0.616-0.267,0.882-0.267s0.483,0.087,0.651,0.261C24.435,110.423,24.518,110.656,24.518,110.947z"/>
		<path fill="#002A5C" d="M30.742,114.928c-0.262,0.499-0.614,0.897-1.054,1.193s-0.946,0.444-1.517,0.444
			c-0.503,0-0.945-0.089-1.324-0.267c-0.378-0.178-0.69-0.419-0.936-0.724s-0.428-0.66-0.549-1.066
			c-0.12-0.406-0.181-0.836-0.181-1.288c0-0.406,0.064-0.806,0.193-1.197c0.129-0.392,0.319-0.743,0.568-1.057
			c0.241-0.301,0.541-0.543,0.898-0.727c0.357-0.185,0.758-0.276,1.203-0.276c0.457,0,0.849,0.072,1.174,0.216
			s0.59,0.341,0.793,0.59c0.195,0.237,0.339,0.517,0.435,0.838c0.095,0.322,0.143,0.671,0.143,1.048v0.419h-4.145
			c0,0.411,0.039,0.785,0.118,1.12c0.078,0.335,0.202,0.63,0.371,0.884c0.165,0.246,0.381,0.44,0.647,0.582
			c0.267,0.143,0.584,0.213,0.952,0.213c0.376,0,0.701-0.088,0.975-0.265c0.272-0.176,0.536-0.494,0.79-0.954L30.742,114.928z
			 M29.339,112.541c0-0.236-0.02-0.489-0.06-0.76c-0.041-0.27-0.105-0.495-0.194-0.677c-0.097-0.194-0.23-0.353-0.4-0.475
			s-0.387-0.184-0.654-0.184c-0.444,0-0.813,0.185-1.108,0.554c-0.294,0.369-0.454,0.883-0.479,1.541H29.339z"/>
		<path fill="#002A5C" d="M35.728,113.334c0.173,0.152,0.307,0.328,0.4,0.527s0.14,0.442,0.14,0.73c0,0.579-0.217,1.053-0.65,1.422
			c-0.434,0.367-0.996,0.552-1.686,0.552c-0.364,0-0.699-0.065-1.006-0.196c-0.307-0.132-0.526-0.252-0.657-0.362l-0.127,0.413
			h-0.476l-0.063-2.178h0.438c0.034,0.166,0.106,0.359,0.216,0.58s0.243,0.42,0.4,0.599c0.165,0.187,0.363,0.344,0.593,0.471
			c0.231,0.128,0.49,0.191,0.778,0.191c0.406,0,0.719-0.093,0.939-0.277c0.22-0.186,0.33-0.45,0.33-0.796
			c0-0.178-0.035-0.331-0.105-0.46c-0.069-0.129-0.172-0.242-0.308-0.339c-0.14-0.098-0.311-0.186-0.514-0.264
			s-0.43-0.156-0.679-0.232c-0.199-0.059-0.42-0.141-0.663-0.244c-0.244-0.104-0.452-0.225-0.625-0.365
			c-0.186-0.147-0.338-0.33-0.457-0.545c-0.119-0.217-0.178-0.471-0.178-0.762c0-0.513,0.19-0.946,0.571-1.302
			s0.891-0.533,1.53-0.533c0.246,0,0.496,0.032,0.752,0.095c0.256,0.064,0.465,0.141,0.625,0.229l0.146-0.33h0.457l0.095,2.013
			h-0.438c-0.089-0.45-0.28-0.816-0.574-1.1c-0.294-0.282-0.653-0.424-1.076-0.424c-0.347,0-0.62,0.087-0.819,0.262
			s-0.298,0.386-0.298,0.634c0,0.189,0.033,0.349,0.099,0.476c0.065,0.127,0.164,0.235,0.295,0.323
			c0.127,0.085,0.287,0.164,0.479,0.238c0.192,0.074,0.43,0.158,0.714,0.251c0.279,0.089,0.543,0.192,0.79,0.312
			C35.363,113.06,35.567,113.19,35.728,113.334z"/>
		<path fill="#002A5C" d="M42.904,114.928c-0.262,0.499-0.614,0.897-1.054,1.193s-0.946,0.444-1.517,0.444
			c-0.503,0-0.945-0.089-1.324-0.267c-0.378-0.178-0.69-0.419-0.936-0.724s-0.428-0.66-0.549-1.066
			c-0.12-0.406-0.181-0.836-0.181-1.288c0-0.406,0.064-0.806,0.193-1.197c0.129-0.392,0.319-0.743,0.568-1.057
			c0.241-0.301,0.541-0.543,0.898-0.727c0.357-0.185,0.758-0.276,1.203-0.276c0.457,0,0.849,0.072,1.174,0.216
			s0.59,0.341,0.793,0.59c0.195,0.237,0.339,0.517,0.435,0.838c0.095,0.322,0.143,0.671,0.143,1.048v0.419h-4.145
			c0,0.411,0.039,0.785,0.118,1.12c0.078,0.335,0.202,0.63,0.371,0.884c0.165,0.246,0.381,0.44,0.647,0.582
			c0.267,0.143,0.584,0.213,0.952,0.213c0.376,0,0.701-0.088,0.975-0.265c0.272-0.176,0.536-0.494,0.79-0.954L42.904,114.928z
			 M41.501,112.541c0-0.236-0.02-0.489-0.06-0.76c-0.041-0.27-0.105-0.495-0.194-0.677c-0.097-0.194-0.23-0.353-0.4-0.475
			s-0.387-0.184-0.654-0.184c-0.444,0-0.813,0.185-1.108,0.554c-0.294,0.369-0.454,0.883-0.479,1.541H41.501z"/>
		<path fill="#002A5C" d="M48.55,110.947c0,0.217-0.053,0.408-0.159,0.575s-0.269,0.251-0.489,0.251
			c-0.237,0-0.418-0.062-0.542-0.185c-0.125-0.123-0.188-0.258-0.188-0.406c0-0.093,0.007-0.178,0.022-0.254
			c0.015-0.076,0.028-0.152,0.041-0.229c-0.199,0-0.432,0.08-0.698,0.241s-0.493,0.39-0.679,0.686v3.644
			c0,0.148,0.029,0.269,0.085,0.362c0.058,0.093,0.147,0.162,0.27,0.209c0.106,0.042,0.242,0.074,0.41,0.096
			c0.167,0.021,0.312,0.035,0.435,0.044v0.419h-3.301v-0.419c0.097-0.009,0.198-0.017,0.302-0.025
			c0.104-0.009,0.193-0.025,0.27-0.051c0.119-0.038,0.206-0.104,0.264-0.199c0.057-0.096,0.085-0.219,0.085-0.371v-3.861
			c0-0.131-0.031-0.26-0.092-0.387c-0.061-0.127-0.147-0.229-0.257-0.305c-0.081-0.051-0.176-0.087-0.286-0.11
			s-0.229-0.039-0.355-0.048v-0.419l2.082-0.14l0.089,0.089v0.883h0.032c0.262-0.344,0.554-0.604,0.876-0.781
			s0.616-0.267,0.882-0.267s0.483,0.087,0.651,0.261C48.466,110.423,48.55,110.656,48.55,110.947z"/>
		<path fill="#002A5C" d="M55.396,110.529c-0.19,0.033-0.371,0.103-0.543,0.206c-0.171,0.104-0.318,0.286-0.441,0.549
			c-0.25,0.567-0.508,1.158-0.774,1.774c-0.267,0.615-0.544,1.262-0.832,1.939c-0.084,0.194-0.175,0.425-0.27,0.691
			c-0.096,0.267-0.183,0.522-0.264,0.768h-0.495c-0.402-0.994-0.772-1.9-1.111-2.72c-0.338-0.818-0.69-1.657-1.054-2.517
			c-0.084-0.194-0.221-0.346-0.41-0.454c-0.188-0.107-0.377-0.177-0.568-0.206v-0.419h2.896v0.444
			c-0.127,0.004-0.286,0.03-0.476,0.079s-0.286,0.115-0.286,0.199c0,0.013,0.011,0.046,0.032,0.099
			c0.021,0.053,0.042,0.113,0.063,0.181c0.173,0.432,0.418,1.033,0.734,1.808c0.316,0.773,0.574,1.396,0.772,1.87
			c0.152-0.363,0.344-0.815,0.574-1.356s0.479-1.146,0.746-1.813c0.042-0.114,0.083-0.221,0.121-0.32s0.057-0.2,0.057-0.302
			c0-0.071-0.035-0.136-0.105-0.193c-0.07-0.057-0.153-0.106-0.25-0.148c-0.098-0.042-0.193-0.074-0.286-0.096
			c-0.093-0.021-0.169-0.035-0.229-0.044v-0.406h2.395V110.529z"/>
		<path fill="#002A5C" d="M61.727,116.286c-0.199,0.072-0.374,0.13-0.523,0.175c-0.15,0.044-0.321,0.066-0.511,0.066
			c-0.33,0-0.593-0.077-0.791-0.231c-0.196-0.154-0.322-0.38-0.377-0.677h-0.038c-0.275,0.305-0.57,0.538-0.885,0.699
			c-0.315,0.16-0.695,0.24-1.14,0.24c-0.47,0-0.856-0.144-1.158-0.432c-0.303-0.287-0.454-0.664-0.454-1.129
			c0-0.242,0.034-0.457,0.102-0.648c0.068-0.189,0.169-0.361,0.305-0.514c0.106-0.127,0.246-0.24,0.419-0.34
			s0.336-0.179,0.489-0.238c0.19-0.071,0.577-0.205,1.159-0.399c0.582-0.194,0.974-0.347,1.177-0.457v-0.628
			c0-0.056-0.012-0.161-0.035-0.318c-0.023-0.156-0.073-0.305-0.149-0.443c-0.084-0.157-0.204-0.294-0.358-0.41
			c-0.155-0.116-0.374-0.174-0.657-0.174c-0.195,0-0.375,0.032-0.543,0.098c-0.167,0.065-0.284,0.135-0.352,0.207
			c0,0.084,0.02,0.209,0.06,0.374c0.041,0.165,0.061,0.317,0.061,0.457c0,0.148-0.066,0.283-0.2,0.406
			c-0.133,0.123-0.318,0.185-0.555,0.185c-0.211,0-0.367-0.075-0.466-0.226c-0.1-0.15-0.149-0.318-0.149-0.505
			c0-0.194,0.069-0.381,0.206-0.559c0.138-0.178,0.316-0.336,0.537-0.477c0.19-0.118,0.421-0.219,0.692-0.301
			c0.271-0.083,0.535-0.124,0.793-0.124c0.355,0,0.666,0.024,0.93,0.073c0.264,0.049,0.504,0.153,0.72,0.314
			c0.216,0.156,0.38,0.369,0.492,0.638c0.112,0.269,0.168,0.614,0.168,1.038c0,0.604-0.006,1.141-0.019,1.608
			s-0.019,0.979-0.019,1.533c0,0.165,0.029,0.296,0.085,0.394c0.058,0.098,0.145,0.18,0.264,0.248
			c0.063,0.037,0.164,0.059,0.302,0.062c0.137,0.005,0.278,0.007,0.422,0.007V116.286z M59.512,112.935
			c-0.36,0.106-0.675,0.21-0.946,0.312s-0.522,0.229-0.755,0.382c-0.211,0.145-0.379,0.315-0.501,0.512
			c-0.123,0.197-0.184,0.432-0.184,0.703c0,0.353,0.092,0.611,0.276,0.776c0.185,0.165,0.418,0.248,0.702,0.248
			c0.3,0,0.565-0.073,0.793-0.22s0.421-0.318,0.578-0.519L59.512,112.935z"/>
		<path fill="#002A5C" d="M69.335,116.286l-2.189,0.14l-0.096-0.089v-0.584l-0.051-0.013c-0.22,0.245-0.491,0.446-0.814,0.604
			c-0.323,0.156-0.656,0.234-0.999,0.234c-0.355,0-0.698-0.079-1.03-0.238c-0.332-0.158-0.621-0.382-0.865-0.67
			c-0.25-0.291-0.447-0.643-0.593-1.053c-0.146-0.411-0.219-0.863-0.219-1.359c0-0.452,0.078-0.882,0.234-1.288
			s0.372-0.762,0.647-1.066c0.257-0.283,0.573-0.51,0.947-0.679c0.374-0.17,0.755-0.254,1.144-0.254c0.292,0,0.578,0.036,0.859,0.11
			c0.281,0.074,0.522,0.169,0.726,0.282v-2.181c0-0.179-0.03-0.341-0.089-0.487c-0.059-0.146-0.142-0.257-0.248-0.333
			c-0.119-0.081-0.278-0.14-0.479-0.176c-0.201-0.036-0.418-0.062-0.651-0.079v-0.394l2.564-0.14l0.095,0.095v8.438
			c0,0.147,0.028,0.273,0.086,0.377c0.057,0.104,0.141,0.191,0.25,0.264c0.081,0.051,0.197,0.082,0.349,0.095
			s0.292,0.021,0.419,0.025V116.286z M67.037,115.188v-3.662c-0.034-0.11-0.089-0.229-0.165-0.355
			c-0.076-0.127-0.171-0.243-0.285-0.35c-0.123-0.105-0.266-0.193-0.431-0.263c-0.165-0.07-0.356-0.104-0.576-0.104
			c-0.253,0-0.487,0.065-0.7,0.196s-0.402,0.319-0.567,0.565c-0.156,0.236-0.28,0.538-0.371,0.904s-0.136,0.771-0.136,1.215
			c0,0.355,0.034,0.679,0.102,0.969c0.067,0.29,0.182,0.56,0.342,0.809c0.148,0.237,0.337,0.428,0.567,0.572
			c0.23,0.144,0.504,0.215,0.821,0.215c0.338,0,0.618-0.073,0.839-0.222S66.885,115.365,67.037,115.188z"/>
		<path fill="#002A5C" d="M76.003,116.286c-0.199,0.072-0.374,0.13-0.523,0.175c-0.15,0.044-0.321,0.066-0.511,0.066
			c-0.33,0-0.593-0.077-0.791-0.231c-0.196-0.154-0.322-0.38-0.377-0.677h-0.038c-0.275,0.305-0.57,0.538-0.885,0.699
			c-0.315,0.16-0.695,0.24-1.14,0.24c-0.47,0-0.856-0.144-1.158-0.432c-0.303-0.287-0.454-0.664-0.454-1.129
			c0-0.242,0.034-0.457,0.102-0.648c0.068-0.189,0.169-0.361,0.305-0.514c0.106-0.127,0.246-0.24,0.419-0.34
			s0.336-0.179,0.489-0.238c0.19-0.071,0.577-0.205,1.159-0.399c0.582-0.194,0.974-0.347,1.177-0.457v-0.628
			c0-0.056-0.012-0.161-0.035-0.318c-0.023-0.156-0.073-0.305-0.149-0.443c-0.084-0.157-0.204-0.294-0.358-0.41
			c-0.155-0.116-0.374-0.174-0.657-0.174c-0.195,0-0.375,0.032-0.543,0.098c-0.167,0.065-0.284,0.135-0.352,0.207
			c0,0.084,0.02,0.209,0.06,0.374c0.041,0.165,0.061,0.317,0.061,0.457c0,0.148-0.066,0.283-0.2,0.406
			c-0.133,0.123-0.318,0.185-0.555,0.185c-0.211,0-0.367-0.075-0.466-0.226c-0.1-0.15-0.149-0.318-0.149-0.505
			c0-0.194,0.069-0.381,0.206-0.559c0.138-0.178,0.316-0.336,0.537-0.477c0.19-0.118,0.421-0.219,0.692-0.301
			c0.271-0.083,0.535-0.124,0.793-0.124c0.355,0,0.666,0.024,0.93,0.073c0.264,0.049,0.504,0.153,0.72,0.314
			c0.216,0.156,0.38,0.369,0.492,0.638c0.112,0.269,0.168,0.614,0.168,1.038c0,0.604-0.006,1.141-0.019,1.608
			s-0.019,0.979-0.019,1.533c0,0.165,0.029,0.296,0.085,0.394c0.058,0.098,0.145,0.18,0.264,0.248
			c0.063,0.037,0.164,0.059,0.302,0.062c0.137,0.005,0.278,0.007,0.422,0.007V116.286z M73.788,112.935
			c-0.36,0.106-0.675,0.21-0.946,0.312s-0.522,0.229-0.755,0.382c-0.211,0.145-0.379,0.315-0.501,0.512
			c-0.123,0.197-0.184,0.432-0.184,0.703c0,0.353,0.092,0.611,0.276,0.776c0.185,0.165,0.418,0.248,0.702,0.248
			c0.3,0,0.565-0.073,0.793-0.22s0.421-0.318,0.578-0.519L73.788,112.935z"/>
		<path fill="#002A5C" d="M86.876,116.286l-2.189,0.14l-0.096-0.089v-0.584l-0.051-0.013c-0.22,0.245-0.491,0.446-0.814,0.604
			c-0.323,0.156-0.656,0.234-0.999,0.234c-0.355,0-0.698-0.079-1.03-0.238c-0.332-0.158-0.621-0.382-0.865-0.67
			c-0.25-0.291-0.447-0.643-0.593-1.053c-0.146-0.411-0.219-0.863-0.219-1.359c0-0.452,0.078-0.882,0.234-1.288
			s0.372-0.762,0.647-1.066c0.257-0.283,0.573-0.51,0.947-0.679c0.374-0.17,0.755-0.254,1.144-0.254c0.292,0,0.578,0.036,0.859,0.11
			c0.281,0.074,0.522,0.169,0.726,0.282v-2.181c0-0.179-0.03-0.341-0.089-0.487c-0.059-0.146-0.142-0.257-0.248-0.333
			c-0.119-0.081-0.278-0.14-0.479-0.176c-0.201-0.036-0.418-0.062-0.651-0.079v-0.394l2.564-0.14l0.095,0.095v8.438
			c0,0.147,0.028,0.273,0.086,0.377c0.057,0.104,0.141,0.191,0.25,0.264c0.081,0.051,0.197,0.082,0.349,0.095
			s0.292,0.021,0.419,0.025V116.286z M84.578,115.188v-3.662c-0.034-0.11-0.089-0.229-0.165-0.355
			c-0.076-0.127-0.171-0.243-0.285-0.35c-0.123-0.105-0.266-0.193-0.431-0.263c-0.165-0.07-0.356-0.104-0.576-0.104
			c-0.253,0-0.487,0.065-0.7,0.196s-0.402,0.319-0.567,0.565c-0.156,0.236-0.28,0.538-0.371,0.904s-0.136,0.771-0.136,1.215
			c0,0.355,0.034,0.679,0.102,0.969c0.067,0.29,0.182,0.56,0.342,0.809c0.148,0.237,0.337,0.428,0.567,0.572
			c0.23,0.144,0.504,0.215,0.821,0.215c0.338,0,0.618-0.073,0.839-0.222S84.426,115.365,84.578,115.188z"/>
		<path fill="#002A5C" d="M93.176,114.928c-0.262,0.499-0.614,0.897-1.054,1.193s-0.946,0.444-1.517,0.444
			c-0.503,0-0.945-0.089-1.324-0.267c-0.378-0.178-0.69-0.419-0.936-0.724s-0.428-0.66-0.549-1.066
			c-0.12-0.406-0.181-0.836-0.181-1.288c0-0.406,0.064-0.806,0.193-1.197c0.129-0.392,0.319-0.743,0.568-1.057
			c0.241-0.301,0.541-0.543,0.898-0.727c0.357-0.185,0.758-0.276,1.203-0.276c0.457,0,0.849,0.072,1.174,0.216
			s0.59,0.341,0.793,0.59c0.195,0.237,0.339,0.517,0.435,0.838c0.095,0.322,0.143,0.671,0.143,1.048v0.419h-4.145
			c0,0.411,0.039,0.785,0.118,1.12c0.078,0.335,0.202,0.63,0.371,0.884c0.165,0.246,0.381,0.44,0.647,0.582
			c0.267,0.143,0.584,0.213,0.952,0.213c0.376,0,0.701-0.088,0.975-0.265c0.272-0.176,0.536-0.494,0.79-0.954L93.176,114.928z
			 M91.773,112.541c0-0.236-0.02-0.489-0.06-0.76c-0.041-0.27-0.105-0.495-0.194-0.677c-0.097-0.194-0.23-0.353-0.4-0.475
			s-0.387-0.184-0.654-0.184c-0.444,0-0.813,0.185-1.108,0.554c-0.294,0.369-0.454,0.883-0.479,1.541H91.773z"/>
		<path fill="#002A5C" d="M101.25,116.4h-3.999v-0.463c0.111-0.009,0.218-0.02,0.323-0.032c0.104-0.013,0.197-0.034,0.278-0.063
			c0.136-0.051,0.229-0.124,0.278-0.219c0.049-0.096,0.074-0.222,0.074-0.378v-7.033c0-0.161-0.033-0.31-0.098-0.447
			c-0.066-0.138-0.154-0.242-0.264-0.314c-0.084-0.055-0.213-0.108-0.384-0.159c-0.172-0.051-0.323-0.08-0.454-0.088v-0.464
			l3.199-0.165l0.095,0.102v8.486c0,0.157,0.028,0.284,0.083,0.381c0.055,0.098,0.145,0.174,0.269,0.229
			c0.085,0.039,0.174,0.072,0.268,0.102c0.094,0.03,0.205,0.051,0.333,0.064V116.4z"/>
		<path fill="#002A5C" d="M109.232,116.268c-0.187,0.08-0.406,0.154-0.659,0.222s-0.522,0.102-0.805,0.102
			c-0.52,0-0.901-0.077-1.146-0.231s-0.412-0.376-0.501-0.664h-0.037c-0.145,0.145-0.283,0.268-0.417,0.369s-0.276,0.188-0.429,0.26
			c-0.199,0.093-0.392,0.163-0.576,0.209c-0.184,0.047-0.441,0.07-0.771,0.07c-0.492,0-0.912-0.146-1.259-0.436
			c-0.348-0.29-0.521-0.675-0.521-1.153c0-0.275,0.038-0.51,0.114-0.703c0.077-0.192,0.185-0.363,0.324-0.512
			c0.127-0.136,0.274-0.248,0.442-0.337c0.168-0.089,0.352-0.172,0.551-0.248c0.381-0.14,0.838-0.284,1.373-0.436
			c0.533-0.15,0.924-0.284,1.17-0.403v-0.609c0-0.105-0.009-0.245-0.025-0.419c-0.018-0.174-0.053-0.319-0.108-0.438
			c-0.06-0.136-0.152-0.25-0.279-0.344c-0.127-0.093-0.294-0.139-0.502-0.139c-0.187,0-0.342,0.026-0.467,0.079
			c-0.124,0.053-0.226,0.106-0.302,0.161c0.014,0.085,0.049,0.214,0.108,0.388s0.089,0.341,0.089,0.501
			c0,0.072-0.019,0.162-0.057,0.271c-0.039,0.107-0.094,0.193-0.166,0.257c-0.098,0.085-0.207,0.15-0.328,0.197
			c-0.121,0.046-0.307,0.069-0.557,0.069c-0.356,0-0.626-0.086-0.808-0.257c-0.183-0.172-0.274-0.395-0.274-0.67
			c0-0.237,0.094-0.449,0.282-0.638c0.188-0.188,0.418-0.344,0.688-0.467c0.268-0.127,0.574-0.226,0.921-0.295
			c0.347-0.07,0.669-0.104,0.965-0.104c0.411,0,0.787,0.023,1.13,0.072s0.652,0.149,0.927,0.302
			c0.263,0.148,0.471,0.363,0.625,0.645c0.155,0.281,0.231,0.648,0.231,1.101c0,0.479-0.009,1.046-0.028,1.701
			c-0.019,0.656-0.028,1.088-0.028,1.295c0,0.191,0.028,0.341,0.086,0.451c0.057,0.11,0.145,0.192,0.264,0.248
			c0.071,0.033,0.185,0.054,0.339,0.06c0.155,0.007,0.296,0.01,0.423,0.01V116.268z M106.084,112.96
			c-0.238,0.081-0.475,0.173-0.707,0.276c-0.234,0.104-0.426,0.214-0.574,0.328c-0.156,0.119-0.279,0.271-0.369,0.455
			s-0.134,0.401-0.134,0.652c0,0.33,0.075,0.57,0.226,0.719c0.151,0.148,0.337,0.223,0.559,0.223c0.232,0,0.426-0.048,0.576-0.144
			c0.15-0.095,0.283-0.213,0.398-0.353L106.084,112.96z"/>
		<path fill="#002A5C" d="M117.088,110.566c-0.191,0.03-0.376,0.102-0.557,0.217c-0.18,0.113-0.328,0.291-0.447,0.533
			c-0.296,0.617-0.586,1.24-0.873,1.869c-0.285,0.628-0.565,1.236-0.84,1.824c-0.085,0.178-0.182,0.406-0.289,0.686
			s-0.198,0.533-0.27,0.762h-1.168c-0.487-1.129-0.902-2.066-1.248-2.812c-0.345-0.745-0.709-1.545-1.095-2.399
			c-0.089-0.199-0.228-0.355-0.415-0.47c-0.189-0.114-0.381-0.185-0.575-0.21v-0.463h3.91v0.463
			c-0.144,0.005-0.313,0.036-0.507,0.096c-0.195,0.06-0.293,0.136-0.293,0.229c0,0.025,0.009,0.063,0.025,0.114
			c0.018,0.051,0.039,0.108,0.064,0.171c0.135,0.322,0.34,0.785,0.613,1.39c0.273,0.605,0.564,1.242,0.869,1.91
			c0.211-0.461,0.413-0.913,0.605-1.354c0.191-0.442,0.43-1.006,0.713-1.691c0.037-0.102,0.061-0.184,0.066-0.247
			s0.01-0.105,0.01-0.127c0-0.076-0.037-0.143-0.111-0.2c-0.074-0.057-0.162-0.106-0.264-0.148
			c-0.107-0.043-0.209-0.074-0.307-0.096s-0.178-0.036-0.241-0.045v-0.463h2.622V110.566z"/>
		<path fill="#002A5C" d="M124.605,116.268c-0.186,0.08-0.404,0.154-0.658,0.222s-0.521,0.102-0.805,0.102
			c-0.52,0-0.902-0.077-1.146-0.231c-0.245-0.154-0.412-0.376-0.5-0.664h-0.039c-0.144,0.145-0.283,0.268-0.416,0.369
			s-0.276,0.188-0.43,0.26c-0.199,0.093-0.391,0.163-0.574,0.209c-0.186,0.047-0.442,0.07-0.773,0.07
			c-0.491,0-0.911-0.146-1.258-0.436c-0.348-0.29-0.521-0.675-0.521-1.153c0-0.275,0.037-0.51,0.113-0.703
			c0.077-0.192,0.186-0.363,0.324-0.512c0.128-0.136,0.275-0.248,0.442-0.337s0.351-0.172,0.55-0.248
			c0.382-0.14,0.84-0.284,1.373-0.436c0.535-0.15,0.924-0.284,1.17-0.403v-0.609c0-0.105-0.008-0.245-0.025-0.419
			c-0.017-0.174-0.053-0.319-0.107-0.438c-0.059-0.136-0.152-0.25-0.279-0.344c-0.127-0.093-0.295-0.139-0.502-0.139
			c-0.186,0-0.342,0.026-0.467,0.079s-0.225,0.106-0.301,0.161c0.012,0.085,0.049,0.214,0.107,0.388
			c0.06,0.174,0.09,0.341,0.09,0.501c0,0.072-0.02,0.162-0.058,0.271c-0.038,0.107-0.094,0.193-0.165,0.257
			c-0.098,0.085-0.207,0.15-0.328,0.197c-0.121,0.046-0.307,0.069-0.558,0.069c-0.356,0-0.626-0.086-0.808-0.257
			c-0.184-0.172-0.274-0.395-0.274-0.67c0-0.237,0.095-0.449,0.282-0.638c0.188-0.188,0.418-0.344,0.689-0.467
			c0.266-0.127,0.572-0.226,0.92-0.295c0.348-0.07,0.668-0.104,0.965-0.104c0.41,0,0.787,0.023,1.13,0.072s0.651,0.149,0.927,0.302
			c0.262,0.148,0.471,0.363,0.625,0.645s0.232,0.648,0.232,1.101c0,0.479-0.01,1.046-0.029,1.701
			c-0.019,0.656-0.028,1.088-0.028,1.295c0,0.191,0.028,0.341,0.086,0.451c0.057,0.11,0.145,0.192,0.263,0.248
			c0.072,0.033,0.186,0.054,0.34,0.06c0.154,0.007,0.295,0.01,0.422,0.01V116.268z M121.457,112.96
			c-0.237,0.081-0.473,0.173-0.707,0.276c-0.233,0.104-0.424,0.214-0.572,0.328c-0.158,0.119-0.281,0.271-0.37,0.455
			s-0.134,0.401-0.134,0.652c0,0.33,0.075,0.57,0.227,0.719c0.15,0.148,0.336,0.223,0.557,0.223c0.234,0,0.426-0.048,0.576-0.144
			c0.151-0.095,0.284-0.213,0.398-0.353L121.457,112.96z"/>
		<path fill="#002A5C" d="M133.604,116.4h-3.814v-0.463c0.08-0.009,0.178-0.02,0.291-0.032c0.115-0.013,0.201-0.034,0.261-0.063
			c0.089-0.047,0.152-0.114,0.19-0.203s0.057-0.22,0.057-0.394v-2.971c0-0.432-0.079-0.757-0.238-0.975s-0.394-0.327-0.703-0.327
			c-0.17,0-0.328,0.025-0.475,0.076s-0.289,0.125-0.43,0.223c-0.123,0.085-0.222,0.172-0.295,0.26
			c-0.075,0.09-0.138,0.168-0.188,0.235v3.409c0,0.147,0.021,0.271,0.063,0.371s0.112,0.174,0.209,0.225
			c0.068,0.039,0.152,0.072,0.254,0.102c0.102,0.03,0.201,0.051,0.299,0.064v0.463h-3.859v-0.463
			c0.105-0.009,0.213-0.021,0.32-0.035c0.108-0.015,0.2-0.035,0.276-0.061c0.136-0.047,0.229-0.118,0.279-0.216
			s0.076-0.225,0.076-0.381v-3.694c0-0.131-0.034-0.26-0.102-0.387s-0.157-0.231-0.267-0.312c-0.076-0.051-0.172-0.093-0.289-0.127
			c-0.116-0.034-0.244-0.058-0.384-0.069v-0.464l3.028-0.165l0.095,0.096v0.92h0.025c0.118-0.105,0.263-0.232,0.432-0.381
			s0.325-0.269,0.47-0.361c0.156-0.102,0.361-0.188,0.615-0.261s0.525-0.108,0.812-0.108c0.69,0,1.207,0.196,1.553,0.588
			c0.345,0.392,0.518,0.91,0.518,1.559v3.109c0,0.157,0.023,0.282,0.069,0.375s0.134,0.167,0.261,0.223
			c0.067,0.029,0.15,0.059,0.25,0.088c0.1,0.03,0.213,0.051,0.34,0.064V116.4z"/>
		<path fill="#002A5C" d="M142.525,116.268l-3.13,0.184l-0.095-0.089v-0.584l-0.045-0.013c-0.207,0.225-0.487,0.42-0.84,0.587
			c-0.354,0.167-0.709,0.251-1.068,0.251c-0.854,0-1.557-0.317-2.111-0.952c-0.553-0.635-0.83-1.456-0.83-2.463
			c0-0.893,0.31-1.659,0.929-2.298s1.368-0.959,2.247-0.959c0.347,0,0.672,0.04,0.977,0.118s0.547,0.17,0.729,0.276v-2.076
			c0-0.156-0.031-0.304-0.095-0.441s-0.147-0.244-0.254-0.32c-0.132-0.093-0.296-0.16-0.491-0.2
			c-0.197-0.04-0.396-0.068-0.594-0.085v-0.464l3.434-0.165l0.096,0.102v8.322c0,0.16,0.025,0.296,0.078,0.406
			c0.053,0.109,0.139,0.196,0.256,0.26c0.088,0.047,0.218,0.08,0.389,0.102c0.17,0.021,0.311,0.034,0.42,0.038V116.268z
			 M139.287,115.137v-3.586c-0.029-0.098-0.07-0.205-0.123-0.324c-0.053-0.118-0.125-0.23-0.219-0.336
			c-0.084-0.089-0.197-0.167-0.338-0.234c-0.143-0.068-0.301-0.102-0.479-0.102c-0.422,0-0.769,0.238-1.039,0.717
			c-0.27,0.479-0.404,1.153-0.404,2.025c0,0.342,0.023,0.65,0.072,0.923c0.049,0.273,0.135,0.521,0.256,0.746
			c0.123,0.225,0.28,0.399,0.473,0.526c0.191,0.127,0.423,0.191,0.693,0.191c0.258,0,0.471-0.05,0.639-0.149
			C138.988,115.435,139.145,115.303,139.287,115.137z"/>
		<path fill="#002A5C" d="M150.33,116.268c-0.187,0.08-0.406,0.154-0.659,0.222s-0.522,0.102-0.805,0.102
			c-0.52,0-0.901-0.077-1.146-0.231s-0.412-0.376-0.501-0.664h-0.037c-0.145,0.145-0.283,0.268-0.417,0.369s-0.276,0.188-0.429,0.26
			c-0.199,0.093-0.392,0.163-0.576,0.209c-0.184,0.047-0.441,0.07-0.771,0.07c-0.492,0-0.912-0.146-1.26-0.436
			s-0.521-0.675-0.521-1.153c0-0.275,0.039-0.51,0.115-0.703c0.076-0.192,0.184-0.363,0.324-0.512
			c0.127-0.136,0.273-0.248,0.441-0.337s0.352-0.172,0.551-0.248c0.381-0.14,0.838-0.284,1.373-0.436
			c0.533-0.15,0.924-0.284,1.17-0.403v-0.609c0-0.105-0.009-0.245-0.025-0.419c-0.018-0.174-0.053-0.319-0.108-0.438
			c-0.06-0.136-0.152-0.25-0.279-0.344c-0.127-0.093-0.294-0.139-0.502-0.139c-0.187,0-0.342,0.026-0.467,0.079
			c-0.124,0.053-0.226,0.106-0.302,0.161c0.014,0.085,0.049,0.214,0.108,0.388s0.089,0.341,0.089,0.501
			c0,0.072-0.019,0.162-0.057,0.271c-0.039,0.107-0.094,0.193-0.166,0.257c-0.098,0.085-0.207,0.15-0.328,0.197
			c-0.121,0.046-0.307,0.069-0.557,0.069c-0.356,0-0.626-0.086-0.809-0.257c-0.182-0.172-0.273-0.395-0.273-0.67
			c0-0.237,0.094-0.449,0.282-0.638s0.418-0.344,0.688-0.467c0.268-0.127,0.574-0.226,0.921-0.295
			c0.347-0.07,0.669-0.104,0.965-0.104c0.411,0,0.787,0.023,1.13,0.072s0.652,0.149,0.927,0.302
			c0.263,0.148,0.471,0.363,0.625,0.645c0.155,0.281,0.231,0.648,0.231,1.101c0,0.479-0.009,1.046-0.028,1.701
			c-0.019,0.656-0.028,1.088-0.028,1.295c0,0.191,0.028,0.341,0.086,0.451c0.057,0.11,0.145,0.192,0.264,0.248
			c0.071,0.033,0.185,0.054,0.339,0.06c0.155,0.007,0.296,0.01,0.423,0.01V116.268z M147.182,112.96
			c-0.238,0.081-0.475,0.173-0.707,0.276c-0.234,0.104-0.426,0.214-0.574,0.328c-0.156,0.119-0.279,0.271-0.369,0.455
			s-0.134,0.401-0.134,0.652c0,0.33,0.075,0.57,0.226,0.719c0.151,0.148,0.337,0.223,0.559,0.223c0.232,0,0.426-0.048,0.576-0.144
			c0.15-0.095,0.283-0.213,0.398-0.353L147.182,112.96z"/>
		<path fill="#002A5C" d="M160.384,107.653c0,0.105-0.017,0.222-0.051,0.349s-0.089,0.235-0.165,0.324
			c-0.089,0.105-0.188,0.187-0.299,0.241c-0.109,0.055-0.274,0.083-0.494,0.083c-0.335,0-0.598-0.117-0.787-0.35
			c-0.191-0.232-0.395-0.62-0.609-1.162c-0.17,0.072-0.307,0.258-0.413,0.558s-0.159,0.944-0.159,1.933v0.5h1.752v0.691h-1.738
			v4.368c0,0.165,0.037,0.293,0.113,0.384s0.176,0.157,0.299,0.2c0.102,0.033,0.234,0.066,0.4,0.098
			c0.164,0.032,0.312,0.054,0.443,0.067v0.463h-4.291v-0.463c0.111-0.009,0.219-0.02,0.323-0.032s0.196-0.034,0.278-0.063
			c0.136-0.051,0.229-0.123,0.277-0.219c0.049-0.095,0.074-0.221,0.074-0.377v-4.426h-1.289v-0.691h1.289
			c0-0.452,0.064-0.891,0.196-1.314c0.132-0.425,0.335-0.804,0.609-1.138c0.267-0.329,0.618-0.596,1.054-0.799
			c0.436-0.202,0.947-0.304,1.536-0.304c0.524,0,0.931,0.1,1.219,0.299C160.24,107.071,160.384,107.332,160.384,107.653z"/>
		<path fill="#002A5C" d="M163.631,116.4h-4.012v-0.463c0.109-0.009,0.217-0.02,0.323-0.032s0.196-0.034,0.272-0.063
			c0.136-0.051,0.23-0.124,0.286-0.219c0.056-0.096,0.083-0.222,0.083-0.378v-3.694c0-0.148-0.034-0.278-0.102-0.391
			c-0.068-0.112-0.152-0.202-0.254-0.27c-0.076-0.051-0.191-0.1-0.346-0.146c-0.155-0.046-0.296-0.076-0.423-0.088v-0.464
			l3.11-0.165l0.096,0.096v5.039c0,0.148,0.031,0.274,0.095,0.378s0.154,0.181,0.272,0.231c0.085,0.039,0.178,0.072,0.279,0.102
			c0.102,0.03,0.208,0.051,0.318,0.064V116.4z M162.703,107.742c0,0.321-0.123,0.596-0.371,0.822s-0.541,0.34-0.879,0.34
			c-0.343,0-0.639-0.113-0.885-0.34c-0.248-0.227-0.372-0.501-0.372-0.822s0.124-0.597,0.372-0.825
			c0.246-0.229,0.542-0.343,0.885-0.343s0.637,0.114,0.883,0.343C162.581,107.146,162.703,107.421,162.703,107.742z"/>
		<path fill="#002A5C" d="M172.724,116.4h-3.815v-0.463c0.081-0.009,0.178-0.02,0.293-0.032c0.113-0.013,0.201-0.034,0.26-0.063
			c0.089-0.047,0.152-0.114,0.19-0.203s0.058-0.22,0.058-0.394v-2.971c0-0.432-0.08-0.757-0.239-0.975s-0.394-0.327-0.703-0.327
			c-0.17,0-0.328,0.025-0.474,0.076c-0.146,0.051-0.291,0.125-0.43,0.223c-0.123,0.085-0.223,0.172-0.297,0.26
			c-0.074,0.09-0.137,0.168-0.188,0.235v3.409c0,0.147,0.021,0.271,0.063,0.371s0.112,0.174,0.21,0.225
			c0.067,0.039,0.152,0.072,0.254,0.102c0.102,0.03,0.201,0.051,0.298,0.064v0.463h-3.859v-0.463
			c0.106-0.009,0.213-0.021,0.32-0.035c0.108-0.015,0.2-0.035,0.276-0.061c0.135-0.047,0.229-0.118,0.279-0.216
			s0.076-0.225,0.076-0.381v-3.694c0-0.131-0.033-0.26-0.102-0.387s-0.156-0.231-0.267-0.312c-0.076-0.051-0.173-0.093-0.289-0.127
			s-0.244-0.058-0.384-0.069v-0.464l3.027-0.165l0.096,0.096v0.92h0.025c0.119-0.105,0.262-0.232,0.432-0.381
			s0.326-0.269,0.47-0.361c0.157-0.102,0.362-0.188,0.616-0.261s0.524-0.108,0.812-0.108c0.689,0,1.207,0.196,1.552,0.588
			s0.517,0.91,0.517,1.559v3.109c0,0.157,0.023,0.282,0.07,0.375s0.133,0.167,0.26,0.223c0.068,0.029,0.152,0.059,0.251,0.088
			c0.1,0.03,0.213,0.051,0.34,0.064V116.4z"/>
		<path fill="#002A5C" d="M180.699,116.268c-0.186,0.08-0.405,0.154-0.658,0.222c-0.254,0.067-0.522,0.102-0.805,0.102
			c-0.52,0-0.902-0.077-1.146-0.231c-0.246-0.154-0.412-0.376-0.501-0.664h-0.038c-0.145,0.145-0.283,0.268-0.416,0.369
			c-0.134,0.102-0.277,0.188-0.43,0.26c-0.199,0.093-0.391,0.163-0.575,0.209c-0.185,0.047-0.442,0.07-0.772,0.07
			c-0.492,0-0.912-0.146-1.259-0.436c-0.348-0.29-0.521-0.675-0.521-1.153c0-0.275,0.038-0.51,0.114-0.703
			c0.076-0.192,0.185-0.363,0.324-0.512c0.127-0.136,0.274-0.248,0.441-0.337c0.168-0.089,0.352-0.172,0.551-0.248
			c0.381-0.14,0.839-0.284,1.373-0.436c0.534-0.15,0.924-0.284,1.17-0.403v-0.609c0-0.105-0.008-0.245-0.025-0.419
			s-0.053-0.319-0.107-0.438c-0.06-0.136-0.152-0.25-0.279-0.344c-0.127-0.093-0.295-0.139-0.502-0.139
			c-0.187,0-0.342,0.026-0.467,0.079s-0.226,0.106-0.302,0.161c0.013,0.085,0.049,0.214,0.108,0.388
			c0.059,0.174,0.089,0.341,0.089,0.501c0,0.072-0.019,0.162-0.058,0.271c-0.038,0.107-0.094,0.193-0.165,0.257
			c-0.098,0.085-0.207,0.15-0.328,0.197c-0.121,0.046-0.307,0.069-0.558,0.069c-0.355,0-0.625-0.086-0.808-0.257
			c-0.183-0.172-0.274-0.395-0.274-0.67c0-0.237,0.095-0.449,0.283-0.638c0.188-0.188,0.418-0.344,0.688-0.467
			c0.267-0.127,0.573-0.226,0.921-0.295c0.347-0.07,0.668-0.104,0.965-0.104c0.41,0,0.787,0.023,1.129,0.072
			c0.344,0.049,0.652,0.149,0.928,0.302c0.262,0.148,0.471,0.363,0.625,0.645s0.231,0.648,0.231,1.101
			c0,0.479-0.009,1.046-0.028,1.701c-0.02,0.656-0.029,1.088-0.029,1.295c0,0.191,0.029,0.341,0.086,0.451s0.145,0.192,0.264,0.248
			c0.072,0.033,0.186,0.054,0.34,0.06c0.154,0.007,0.295,0.01,0.422,0.01V116.268z M177.551,112.96
			c-0.238,0.081-0.474,0.173-0.707,0.276c-0.234,0.104-0.425,0.214-0.573,0.328c-0.157,0.119-0.28,0.271-0.37,0.455
			c-0.089,0.185-0.133,0.401-0.133,0.652c0,0.33,0.074,0.57,0.226,0.719s0.337,0.223,0.558,0.223c0.233,0,0.426-0.048,0.576-0.144
			c0.15-0.095,0.283-0.213,0.398-0.353L177.551,112.96z"/>
	</g>
</g>
<line fill="#FFFFFF" stroke="#262728" stroke-linecap="round" stroke-miterlimit="10" stroke-dasharray="1,3" x1="78" y1="66.5" x2="123" y2="66.5"/>
</svg>
