<?xml version="1.0" encoding="utf-8"?>
<!-- Generator: Adobe Illustrator 16.0.4, SVG Export Plug-In . SVG Version: 6.00 Build 0)  -->
<!DOCTYPE svg PUBLIC "-//W3C//DTD SVG 1.1//EN" "http://www.w3.org/Graphics/SVG/1.1/DTD/svg11.dtd">
<svg version="1.1" id="Layer_1" xmlns="http://www.w3.org/2000/svg" xmlns:xlink="http://www.w3.org/1999/xlink" x="0px" y="0px"
	 width="199px" height="151px" viewBox="0 0 199 151" enable-background="new 0 0 199 151" xml:space="preserve">
<g>
	<g>
		<path fill="#002A5C" d="M67.681,42H53.179l0.281-1.266c0.363-0.023,0.938-0.082,1.723-0.176s1.33-0.188,1.635-0.281
			c0.34-0.105,0.653-0.305,0.94-0.598s0.483-0.68,0.589-1.16l3.428-14.818h-4.447l0.368-1.6h0.492c1.029,0,1.964-0.111,2.806-0.334
			c0.842-0.223,1.573-0.492,2.193-0.809c0.631-0.316,1.181-0.659,1.649-1.028s0.813-0.677,1.035-0.923h3.087
			c-0.245,0.878-0.486,1.774-0.724,2.688c-0.238,0.913-0.463,1.821-0.672,2.723l-3.143,13.589c-0.035,0.141-0.068,0.305-0.097,0.492
			c-0.029,0.188-0.044,0.34-0.044,0.458c0,0.281,0.062,0.516,0.185,0.703c0.123,0.188,0.296,0.347,0.52,0.475
			c0.258,0.142,0.729,0.271,1.41,0.388s1.205,0.188,1.569,0.211L67.681,42z"/>
		<path fill="#002A5C" d="M93.792,27.199c0,4.699-1.74,8.66-5.221,11.883s-8.156,5.215-14.027,5.977l-0.105-1.74l1.931-0.317
			c1.498-0.399,2.794-0.927,3.888-1.584c1.094-0.657,2.027-1.409,2.799-2.255c0.761-0.821,1.418-1.748,1.975-2.781
			c0.556-1.033,1.003-2.055,1.343-3.064c-1.147,0.874-2.247,1.482-3.3,1.824c-1.053,0.343-2.2,0.514-3.44,0.514
			c-1.768,0-3.248-0.624-4.441-1.872s-1.791-2.815-1.791-4.702c0-2.754,1.134-5.127,3.401-7.119s5.042-2.988,8.323-2.988
			c2.637,0,4.74,0.75,6.311,2.25S93.792,24.715,93.792,27.199z M87.605,25.346c0-1.533-0.254-2.731-0.763-3.598
			c-0.508-0.865-1.16-1.299-1.955-1.299c-1.321,0-2.473,0.831-3.455,2.493c-0.982,1.661-1.473,3.709-1.473,6.144
			c0,1.264,0.266,2.276,0.798,3.037c0.531,0.761,1.23,1.141,2.095,1.141c0.666,0,1.344-0.144,2.034-0.431
			c0.69-0.287,1.344-0.794,1.964-1.521c0.082-0.374,0.229-1.056,0.439-2.045C87.5,28.279,87.605,26.972,87.605,25.346z"/>
		<path fill="#002A5C" d="M118.516,21.68c0,1.547-0.574,2.859-1.723,3.938s-2.742,1.91-4.781,2.496
			c1.828,0.703,3.179,1.562,4.052,2.575s1.31,2.136,1.31,3.366c0,2.426-1.154,4.465-3.463,6.117s-5.268,2.479-8.877,2.479
			c-2.719,0-4.887-0.536-6.504-1.608s-2.426-2.481-2.426-4.228c0-1.688,0.59-3.126,1.771-4.315s2.981-2.06,5.401-2.61
			c-1.423-0.691-2.447-1.547-3.071-2.566c-0.625-1.02-0.937-2.086-0.937-3.199c0-1.102,0.29-2.13,0.87-3.085s1.392-1.79,2.435-2.505
			c0.973-0.668,2.165-1.201,3.577-1.6s2.845-0.598,4.298-0.598c2.461,0,4.421,0.507,5.88,1.521S118.516,20.145,118.516,21.68z
			 M111.186,36.064c0-0.682-0.177-1.26-0.53-1.735s-0.831-0.907-1.431-1.294c-0.636-0.41-1.39-0.82-2.262-1.23
			s-1.72-0.838-2.544-1.283c-0.562,0.563-1.107,1.436-1.635,2.615c-0.527,1.179-0.791,2.427-0.791,3.741
			c0,1.326,0.347,2.374,1.041,3.143c0.694,0.77,1.629,1.153,2.806,1.153c1.6,0,2.891-0.502,3.873-1.507
			C110.695,38.663,111.186,37.462,111.186,36.064z M112.698,21.363c0-1.031-0.246-1.881-0.738-2.549s-1.207-1.002-2.145-1.002
			c-1.219,0-2.259,0.46-3.12,1.38s-1.292,2.013-1.292,3.278c0,0.621,0.141,1.154,0.422,1.6s0.662,0.844,1.143,1.195
			c0.398,0.293,0.987,0.647,1.767,1.063s1.485,0.8,2.118,1.151c0.504-0.785,0.938-1.746,1.301-2.883S112.698,22.383,112.698,21.363z
			"/>
		<path fill="#002A5C" d="M141.692,21.662c0.738,0.82,1.286,1.784,1.644,2.892s0.536,2.306,0.536,3.595
			c0,2.109-0.357,4.072-1.072,5.889s-1.676,3.34-2.883,4.57c-1.242,1.289-2.657,2.279-4.245,2.971s-3.308,1.037-5.159,1.037
			c-1.512,0-2.842-0.226-3.99-0.677s-2.098-1.081-2.848-1.89c-0.762-0.809-1.333-1.77-1.714-2.883s-0.571-2.332-0.571-3.656
			c0-1.957,0.299-3.782,0.896-5.476s1.488-3.237,2.672-4.632c1.137-1.348,2.543-2.423,4.219-3.226s3.533-1.204,5.572-1.204
			c1.582,0,2.95,0.24,4.104,0.721S140.954,20.83,141.692,21.662z M135.716,36.221c0.586-1.486,1.034-3.129,1.345-4.926
			c0.311-1.798,0.466-3.627,0.466-5.489c0-0.784-0.056-1.507-0.167-2.169c-0.111-0.661-0.296-1.232-0.554-1.712
			c-0.246-0.469-0.562-0.831-0.949-1.089s-0.855-0.387-1.406-0.387c-0.938,0-1.822,0.41-2.654,1.229s-1.605,2.125-2.32,3.917
			c-0.551,1.439-0.979,3.062-1.283,4.864c-0.305,1.804-0.457,3.548-0.457,5.234c0,0.866,0.053,1.613,0.158,2.239
			s0.287,1.191,0.545,1.694c0.234,0.469,0.551,0.838,0.949,1.106c0.398,0.27,0.879,0.404,1.441,0.404
			c0.984,0,1.898-0.447,2.742-1.344C134.415,38.899,135.13,37.708,135.716,36.221z"/>
		<path fill="#002A5C" d="M41.132,90.615c0,0.469-0.092,0.885-0.276,1.247c-0.184,0.361-0.439,0.661-0.765,0.897
			c-0.322,0.237-0.675,0.411-1.06,0.521c-0.385,0.109-0.793,0.164-1.225,0.164h-1.009v2.73c0,0.147,0.024,0.277,0.073,0.39
			c0.049,0.112,0.149,0.198,0.302,0.257c0.076,0.03,0.21,0.058,0.403,0.083c0.192,0.025,0.369,0.04,0.53,0.044V97.4h-3.866v-0.451
			c0.102-0.008,0.249-0.022,0.441-0.044c0.192-0.021,0.327-0.049,0.403-0.083c0.127-0.055,0.219-0.135,0.276-0.24
			c0.058-0.106,0.086-0.242,0.086-0.406v-6.5c0-0.148-0.021-0.282-0.063-0.4s-0.142-0.207-0.298-0.267
			c-0.161-0.055-0.321-0.094-0.479-0.117c-0.159-0.023-0.295-0.039-0.41-0.048v-0.451h4.113c0.838,0,1.518,0.202,2.041,0.606
			C40.871,89.403,41.132,89.941,41.132,90.615z M39.203,92.15c0.144-0.203,0.239-0.413,0.286-0.631s0.07-0.414,0.07-0.588
			c0-0.24-0.028-0.486-0.086-0.736c-0.057-0.249-0.155-0.467-0.295-0.653c-0.148-0.199-0.343-0.354-0.584-0.464
			c-0.241-0.109-0.542-0.164-0.901-0.164h-0.895v3.979h0.647c0.457,0,0.829-0.071,1.114-0.213
			C38.844,92.539,39.059,92.362,39.203,92.15z"/>
		<path fill="#002A5C" d="M46.924,91.947c0,0.217-0.053,0.408-0.159,0.575s-0.269,0.251-0.489,0.251
			c-0.237,0-0.418-0.062-0.542-0.185c-0.125-0.123-0.188-0.258-0.188-0.406c0-0.093,0.007-0.178,0.022-0.254
			c0.015-0.076,0.028-0.152,0.041-0.229c-0.199,0-0.432,0.08-0.698,0.241s-0.493,0.39-0.679,0.686v3.644
			c0,0.148,0.029,0.269,0.085,0.362c0.058,0.093,0.147,0.162,0.27,0.209c0.106,0.042,0.242,0.074,0.41,0.096
			c0.167,0.021,0.312,0.035,0.435,0.044V97.4h-3.301v-0.419c0.097-0.009,0.198-0.017,0.302-0.025
			c0.104-0.009,0.193-0.025,0.27-0.051c0.119-0.038,0.206-0.104,0.264-0.199c0.057-0.096,0.085-0.219,0.085-0.371v-3.861
			c0-0.131-0.031-0.26-0.092-0.387c-0.061-0.127-0.147-0.229-0.257-0.305c-0.081-0.051-0.176-0.087-0.286-0.11
			s-0.229-0.039-0.355-0.048v-0.419l2.082-0.14l0.089,0.089v0.883h0.032c0.262-0.344,0.554-0.604,0.876-0.781
			s0.616-0.267,0.882-0.267s0.483,0.087,0.651,0.261C46.841,91.423,46.924,91.656,46.924,91.947z"/>
		<path fill="#002A5C" d="M50.622,97.4H47.6v-0.419c0.097-0.009,0.198-0.017,0.302-0.025c0.104-0.009,0.193-0.025,0.27-0.051
			c0.119-0.038,0.206-0.104,0.264-0.199c0.057-0.096,0.085-0.219,0.085-0.371v-3.861c0-0.136-0.031-0.259-0.092-0.371
			c-0.061-0.112-0.147-0.206-0.257-0.282c-0.081-0.051-0.197-0.094-0.349-0.13s-0.292-0.058-0.419-0.066v-0.419l2.209-0.14
			l0.089,0.089v5.104c0,0.148,0.028,0.271,0.085,0.368s0.146,0.169,0.268,0.216c0.092,0.038,0.183,0.068,0.271,0.092
			s0.187,0.039,0.296,0.048V97.4z M49.828,88.596c0,0.242-0.08,0.452-0.238,0.632c-0.159,0.18-0.354,0.271-0.587,0.271
			c-0.216,0-0.403-0.086-0.562-0.258c-0.158-0.171-0.238-0.367-0.238-0.587c0-0.232,0.08-0.436,0.238-0.609
			c0.159-0.174,0.346-0.261,0.562-0.261c0.241,0,0.439,0.082,0.593,0.245C49.751,88.191,49.828,88.381,49.828,88.596z"/>
		<path fill="#002A5C" d="M62.235,97.4h-3.047v-0.419c0.097-0.009,0.196-0.017,0.295-0.025c0.099-0.009,0.187-0.025,0.263-0.051
			c0.119-0.038,0.207-0.104,0.263-0.2c0.058-0.095,0.086-0.219,0.086-0.371v-3.23c0-0.44-0.101-0.78-0.302-1.02
			c-0.201-0.239-0.452-0.358-0.752-0.358c-0.208,0-0.402,0.032-0.584,0.095c-0.182,0.064-0.349,0.152-0.501,0.268
			c-0.123,0.093-0.225,0.193-0.308,0.301c-0.082,0.108-0.145,0.198-0.187,0.27v3.612c0,0.148,0.025,0.27,0.076,0.365
			c0.051,0.095,0.138,0.168,0.26,0.219c0.097,0.038,0.185,0.066,0.264,0.086c0.078,0.019,0.181,0.032,0.308,0.041V97.4h-2.983
			v-0.419c0.097-0.009,0.191-0.017,0.282-0.025c0.091-0.009,0.175-0.025,0.251-0.051c0.119-0.038,0.206-0.104,0.264-0.2
			c0.057-0.095,0.085-0.219,0.085-0.371v-3.23c0-0.44-0.101-0.78-0.302-1.02s-0.453-0.358-0.754-0.358
			c-0.208,0-0.403,0.033-0.585,0.099c-0.183,0.065-0.35,0.155-0.503,0.27c-0.123,0.093-0.227,0.198-0.312,0.314
			s-0.148,0.204-0.191,0.264v3.586c0,0.144,0.03,0.265,0.089,0.361c0.059,0.098,0.148,0.172,0.267,0.223
			c0.089,0.042,0.18,0.074,0.273,0.096c0.093,0.021,0.197,0.035,0.311,0.044V97.4H51.52v-0.419c0.097-0.009,0.198-0.017,0.301-0.025
			c0.104-0.009,0.194-0.025,0.27-0.051c0.119-0.038,0.207-0.104,0.263-0.199c0.058-0.096,0.086-0.219,0.086-0.371v-3.887
			c0-0.135-0.031-0.257-0.092-0.364c-0.062-0.108-0.147-0.2-0.257-0.276c-0.081-0.051-0.18-0.092-0.298-0.123
			c-0.119-0.032-0.241-0.052-0.368-0.061v-0.419l2.095-0.14l0.089,0.089v0.895h0.044c0.106-0.105,0.235-0.23,0.387-0.374
			s0.294-0.261,0.425-0.349c0.148-0.102,0.333-0.187,0.555-0.254c0.223-0.068,0.462-0.102,0.721-0.102
			c0.406,0,0.755,0.108,1.047,0.326s0.501,0.481,0.628,0.791c0.152-0.148,0.286-0.278,0.402-0.391s0.27-0.232,0.459-0.359
			c0.161-0.109,0.35-0.198,0.567-0.266c0.217-0.068,0.459-0.102,0.726-0.102c0.528,0,0.946,0.173,1.254,0.52
			c0.309,0.348,0.463,0.881,0.463,1.6v3.181c0,0.148,0.025,0.27,0.076,0.365c0.051,0.095,0.138,0.168,0.26,0.219
			c0.097,0.038,0.194,0.066,0.289,0.086c0.096,0.019,0.202,0.032,0.321,0.041V97.4z"/>
		<path fill="#002A5C" d="M68.668,95.928c-0.262,0.499-0.614,0.897-1.054,1.193s-0.946,0.444-1.517,0.444
			c-0.503,0-0.945-0.089-1.324-0.267c-0.378-0.178-0.69-0.419-0.936-0.724s-0.428-0.66-0.549-1.066
			c-0.12-0.406-0.181-0.836-0.181-1.288c0-0.406,0.064-0.806,0.193-1.197c0.129-0.392,0.319-0.743,0.568-1.057
			c0.241-0.301,0.541-0.543,0.898-0.727c0.357-0.185,0.758-0.276,1.203-0.276c0.457,0,0.849,0.072,1.174,0.216
			s0.59,0.341,0.793,0.59c0.195,0.237,0.339,0.517,0.435,0.838c0.095,0.322,0.143,0.671,0.143,1.048v0.419h-4.145
			c0,0.411,0.039,0.785,0.118,1.12c0.078,0.335,0.202,0.63,0.371,0.884c0.165,0.246,0.381,0.44,0.647,0.582
			c0.267,0.143,0.584,0.213,0.952,0.213c0.376,0,0.701-0.088,0.975-0.265c0.272-0.176,0.536-0.494,0.79-0.954L68.668,95.928z
			 M67.265,93.541c0-0.236-0.02-0.489-0.06-0.76c-0.041-0.27-0.105-0.495-0.194-0.677c-0.097-0.194-0.23-0.353-0.4-0.475
			s-0.387-0.184-0.654-0.184c-0.444,0-0.813,0.185-1.108,0.554c-0.294,0.369-0.454,0.883-0.479,1.541H67.265z"/>
		<path fill="#002A5C" d="M74.314,91.947c0,0.217-0.053,0.408-0.159,0.575s-0.269,0.251-0.489,0.251
			c-0.237,0-0.418-0.062-0.542-0.185c-0.125-0.123-0.188-0.258-0.188-0.406c0-0.093,0.007-0.178,0.022-0.254
			c0.015-0.076,0.028-0.152,0.041-0.229c-0.199,0-0.432,0.08-0.698,0.241s-0.493,0.39-0.679,0.686v3.644
			c0,0.148,0.029,0.269,0.085,0.362c0.058,0.093,0.147,0.162,0.27,0.209c0.106,0.042,0.242,0.074,0.41,0.096
			c0.167,0.021,0.312,0.035,0.435,0.044V97.4h-3.301v-0.419c0.097-0.009,0.198-0.017,0.302-0.025
			c0.104-0.009,0.193-0.025,0.27-0.051c0.119-0.038,0.206-0.104,0.264-0.199c0.057-0.096,0.085-0.219,0.085-0.371v-3.861
			c0-0.131-0.031-0.26-0.092-0.387c-0.061-0.127-0.147-0.229-0.257-0.305c-0.081-0.051-0.176-0.087-0.286-0.11
			s-0.229-0.039-0.355-0.048v-0.419l2.082-0.14l0.089,0.089v0.883h0.032c0.262-0.344,0.554-0.604,0.876-0.781
			s0.616-0.267,0.882-0.267s0.483,0.087,0.651,0.261C74.23,91.423,74.314,91.656,74.314,91.947z"/>
		<path fill="#002A5C" d="M83.804,95.928c-0.262,0.499-0.614,0.897-1.054,1.193s-0.946,0.444-1.517,0.444
			c-0.503,0-0.945-0.089-1.324-0.267c-0.378-0.178-0.69-0.419-0.936-0.724s-0.428-0.66-0.549-1.066
			c-0.12-0.406-0.181-0.836-0.181-1.288c0-0.406,0.064-0.806,0.193-1.197c0.129-0.392,0.319-0.743,0.568-1.057
			c0.241-0.301,0.541-0.543,0.898-0.727c0.357-0.185,0.758-0.276,1.203-0.276c0.457,0,0.849,0.072,1.174,0.216
			s0.59,0.341,0.793,0.59c0.195,0.237,0.339,0.517,0.435,0.838c0.095,0.322,0.143,0.671,0.143,1.048v0.419h-4.145
			c0,0.411,0.039,0.785,0.118,1.12c0.078,0.335,0.202,0.63,0.371,0.884c0.165,0.246,0.381,0.44,0.647,0.582
			c0.267,0.143,0.584,0.213,0.952,0.213c0.376,0,0.701-0.088,0.975-0.265c0.272-0.176,0.536-0.494,0.79-0.954L83.804,95.928z
			 M82.401,93.541c0-0.236-0.02-0.489-0.06-0.76c-0.041-0.27-0.105-0.495-0.194-0.677c-0.097-0.194-0.23-0.353-0.4-0.475
			s-0.387-0.184-0.654-0.184c-0.444,0-0.813,0.185-1.108,0.554c-0.294,0.369-0.454,0.883-0.479,1.541H82.401z"/>
		<path fill="#002A5C" d="M91.57,97.4h-3.06v-0.419c0.097-0.009,0.204-0.017,0.321-0.025c0.116-0.009,0.212-0.025,0.289-0.051
			c0.119-0.038,0.207-0.104,0.263-0.2c0.058-0.095,0.086-0.219,0.086-0.371v-3.219c0-0.443-0.105-0.787-0.315-1.027
			c-0.21-0.242-0.466-0.362-0.767-0.362c-0.225,0-0.431,0.035-0.617,0.104c-0.187,0.07-0.352,0.156-0.497,0.258
			c-0.14,0.097-0.251,0.201-0.334,0.313c-0.083,0.112-0.143,0.202-0.181,0.271v3.599c0,0.144,0.03,0.263,0.089,0.355
			s0.148,0.165,0.267,0.216c0.089,0.042,0.185,0.074,0.289,0.096c0.104,0.021,0.211,0.035,0.321,0.044V97.4h-3.066v-0.419
			c0.097-0.009,0.198-0.017,0.302-0.025c0.104-0.009,0.193-0.025,0.27-0.051c0.119-0.038,0.206-0.104,0.264-0.199
			c0.057-0.096,0.085-0.219,0.085-0.371v-3.861c0-0.144-0.031-0.275-0.092-0.396c-0.061-0.12-0.147-0.219-0.257-0.295
			c-0.081-0.051-0.176-0.087-0.286-0.11s-0.229-0.039-0.355-0.048v-0.419l2.082-0.14l0.089,0.089v0.883h0.032
			c0.102-0.102,0.229-0.224,0.381-0.365s0.296-0.258,0.432-0.346c0.157-0.102,0.343-0.187,0.559-0.254
			c0.216-0.068,0.459-0.102,0.73-0.102c0.601,0,1.046,0.187,1.336,0.562c0.29,0.374,0.435,0.872,0.435,1.495v3.256
			c0,0.148,0.025,0.268,0.076,0.358s0.138,0.162,0.26,0.213c0.102,0.042,0.189,0.072,0.263,0.089
			c0.074,0.017,0.177,0.029,0.308,0.038V97.4z"/>
		<path fill="#002A5C" d="M95.362,97.565c-0.906,0-1.614-0.301-2.126-0.901s-0.768-1.407-0.768-2.418
			c0-0.44,0.069-0.853,0.206-1.235c0.138-0.383,0.338-0.73,0.6-1.044c0.25-0.301,0.563-0.543,0.939-0.727
			c0.376-0.185,0.787-0.276,1.231-0.276c0.614,0,1.113,0.147,1.498,0.441s0.578,0.694,0.578,1.202c0,0.212-0.051,0.399-0.152,0.562
			s-0.269,0.244-0.501,0.244c-0.25,0-0.443-0.063-0.581-0.189c-0.138-0.127-0.207-0.269-0.207-0.424c0-0.19,0.025-0.386,0.076-0.586
			s0.081-0.347,0.089-0.439c-0.076-0.131-0.189-0.219-0.339-0.263s-0.311-0.066-0.484-0.066c-0.203,0-0.396,0.043-0.579,0.13
			s-0.362,0.247-0.535,0.479c-0.156,0.212-0.283,0.497-0.38,0.856c-0.097,0.36-0.146,0.79-0.146,1.289
			c0,0.787,0.174,1.43,0.523,1.927s0.806,0.745,1.372,0.745c0.41,0,0.753-0.1,1.03-0.3c0.277-0.199,0.534-0.499,0.77-0.899
			l0.406,0.267c-0.279,0.499-0.647,0.896-1.104,1.187C96.321,97.42,95.849,97.565,95.362,97.565z"/>
		<path fill="#002A5C" d="M105.21,97.286l-2.043,0.14l-0.096-0.089v-0.794h-0.038c-0.102,0.106-0.215,0.22-0.342,0.34
			c-0.126,0.121-0.272,0.229-0.437,0.327c-0.19,0.114-0.374,0.201-0.552,0.261c-0.177,0.059-0.429,0.088-0.754,0.088
			c-0.553,0-0.975-0.181-1.264-0.542s-0.434-0.887-0.434-1.575v-2.993c0-0.152-0.029-0.28-0.086-0.384s-0.142-0.193-0.252-0.27
			c-0.077-0.051-0.173-0.087-0.288-0.11c-0.115-0.023-0.236-0.039-0.364-0.048v-0.419l2.088-0.152l0.095,0.089v4.348
			c0,0.453,0.102,0.794,0.305,1.022s0.446,0.343,0.73,0.343c0.233,0,0.44-0.036,0.622-0.107c0.182-0.072,0.334-0.156,0.457-0.254
			c0.114-0.089,0.215-0.183,0.301-0.282c0.087-0.1,0.154-0.191,0.2-0.275v-3.544c0-0.14-0.03-0.264-0.089-0.371
			c-0.059-0.108-0.142-0.2-0.248-0.276c-0.076-0.051-0.189-0.081-0.339-0.092c-0.15-0.011-0.319-0.02-0.505-0.028v-0.419
			l2.278-0.152l0.096,0.089v4.965c0,0.144,0.03,0.267,0.089,0.368c0.059,0.101,0.142,0.188,0.248,0.26
			c0.076,0.046,0.167,0.077,0.273,0.092s0.222,0.024,0.349,0.028V97.286z"/>
		<path fill="#002A5C" d="M111.669,95.928c-0.262,0.499-0.614,0.897-1.054,1.193s-0.946,0.444-1.517,0.444
			c-0.503,0-0.945-0.089-1.324-0.267c-0.378-0.178-0.69-0.419-0.936-0.724s-0.428-0.66-0.549-1.066
			c-0.12-0.406-0.181-0.836-0.181-1.288c0-0.406,0.064-0.806,0.193-1.197c0.129-0.392,0.319-0.743,0.568-1.057
			c0.241-0.301,0.541-0.543,0.898-0.727c0.357-0.185,0.758-0.276,1.203-0.276c0.457,0,0.849,0.072,1.174,0.216
			s0.59,0.341,0.793,0.59c0.195,0.237,0.339,0.517,0.435,0.838c0.095,0.322,0.143,0.671,0.143,1.048v0.419h-4.145
			c0,0.411,0.039,0.785,0.118,1.12c0.078,0.335,0.202,0.63,0.371,0.884c0.165,0.246,0.381,0.44,0.647,0.582
			c0.267,0.143,0.584,0.213,0.952,0.213c0.376,0,0.701-0.088,0.975-0.265c0.272-0.176,0.536-0.494,0.79-0.954L111.669,95.928z
			 M110.267,93.541c0-0.236-0.02-0.489-0.06-0.76c-0.041-0.27-0.105-0.495-0.194-0.677c-0.097-0.194-0.23-0.353-0.4-0.475
			s-0.387-0.184-0.654-0.184c-0.444,0-0.813,0.185-1.108,0.554c-0.294,0.369-0.454,0.883-0.479,1.541H110.267z"/>
		<path fill="#002A5C" d="M119.436,97.4h-3.06v-0.419c0.097-0.009,0.204-0.017,0.321-0.025c0.116-0.009,0.212-0.025,0.289-0.051
			c0.119-0.038,0.207-0.104,0.263-0.2c0.058-0.095,0.086-0.219,0.086-0.371v-3.219c0-0.443-0.105-0.787-0.315-1.027
			c-0.21-0.242-0.466-0.362-0.767-0.362c-0.225,0-0.431,0.035-0.617,0.104c-0.187,0.07-0.352,0.156-0.497,0.258
			c-0.14,0.097-0.251,0.201-0.334,0.313c-0.083,0.112-0.143,0.202-0.181,0.271v3.599c0,0.144,0.03,0.263,0.089,0.355
			s0.148,0.165,0.267,0.216c0.089,0.042,0.185,0.074,0.289,0.096c0.104,0.021,0.211,0.035,0.321,0.044V97.4h-3.066v-0.419
			c0.097-0.009,0.198-0.017,0.302-0.025c0.104-0.009,0.193-0.025,0.27-0.051c0.119-0.038,0.206-0.104,0.264-0.199
			c0.057-0.096,0.085-0.219,0.085-0.371v-3.861c0-0.144-0.031-0.275-0.092-0.396c-0.061-0.12-0.147-0.219-0.257-0.295
			c-0.081-0.051-0.176-0.087-0.286-0.11s-0.229-0.039-0.355-0.048v-0.419l2.082-0.14l0.089,0.089v0.883h0.032
			c0.102-0.102,0.229-0.224,0.381-0.365s0.296-0.258,0.432-0.346c0.157-0.102,0.343-0.187,0.559-0.254
			c0.216-0.068,0.459-0.102,0.73-0.102c0.601,0,1.046,0.187,1.336,0.562c0.29,0.374,0.435,0.872,0.435,1.495v3.256
			c0,0.148,0.025,0.268,0.076,0.358s0.138,0.162,0.26,0.213c0.102,0.042,0.189,0.072,0.263,0.089
			c0.074,0.017,0.177,0.029,0.308,0.038V97.4z"/>
		<path fill="#002A5C" d="M124.199,97.127c-0.275,0.115-0.535,0.211-0.781,0.289s-0.546,0.117-0.901,0.117
			c-0.525,0-0.894-0.132-1.107-0.396c-0.214-0.265-0.321-0.638-0.321-1.12v-4.24h-1.13v-0.609h1.155v-1.948h1.155v1.948h1.796v0.609
			h-1.784v3.497c0,0.263,0.009,0.481,0.029,0.657c0.019,0.176,0.064,0.329,0.136,0.46c0.068,0.123,0.169,0.217,0.305,0.279
			c0.135,0.064,0.317,0.096,0.546,0.096c0.106,0,0.261-0.01,0.466-0.028c0.206-0.02,0.351-0.044,0.435-0.073V97.127z"/>
		<path fill="#002A5C" d="M129.744,91.947c0,0.217-0.053,0.408-0.159,0.575s-0.269,0.251-0.489,0.251
			c-0.237,0-0.418-0.062-0.542-0.185c-0.125-0.123-0.188-0.258-0.188-0.406c0-0.093,0.007-0.178,0.022-0.254
			c0.015-0.076,0.028-0.152,0.041-0.229c-0.199,0-0.432,0.08-0.698,0.241s-0.493,0.39-0.679,0.686v3.644
			c0,0.148,0.029,0.269,0.085,0.362c0.058,0.093,0.147,0.162,0.27,0.209c0.106,0.042,0.242,0.074,0.41,0.096
			c0.167,0.021,0.312,0.035,0.435,0.044V97.4h-3.301v-0.419c0.097-0.009,0.198-0.017,0.302-0.025
			c0.104-0.009,0.193-0.025,0.27-0.051c0.119-0.038,0.206-0.104,0.264-0.199c0.057-0.096,0.085-0.219,0.085-0.371v-3.861
			c0-0.131-0.031-0.26-0.092-0.387c-0.061-0.127-0.147-0.229-0.257-0.305c-0.081-0.051-0.176-0.087-0.286-0.11
			s-0.229-0.039-0.355-0.048v-0.419l2.082-0.14l0.089,0.089v0.883h0.032c0.262-0.344,0.554-0.604,0.876-0.781
			s0.616-0.267,0.882-0.267s0.483,0.087,0.651,0.261C129.66,91.423,129.744,91.656,129.744,91.947z"/>
		<path fill="#002A5C" d="M136.514,94.207c0,0.44-0.07,0.873-0.209,1.299c-0.14,0.425-0.339,0.786-0.598,1.082
			c-0.292,0.339-0.631,0.59-1.017,0.756c-0.385,0.164-0.817,0.247-1.296,0.247c-0.398,0-0.777-0.075-1.137-0.226
			s-0.68-0.369-0.959-0.656c-0.275-0.284-0.495-0.63-0.658-1.038s-0.245-0.866-0.245-1.374c0-0.979,0.285-1.777,0.854-2.4
			c0.57-0.621,1.316-0.933,2.24-0.933c0.876,0,1.6,0.295,2.17,0.886C136.229,92.439,136.514,93.226,136.514,94.207z M135.2,94.221
			c0-0.318-0.032-0.653-0.095-1.007c-0.064-0.354-0.159-0.652-0.286-0.897c-0.136-0.263-0.314-0.474-0.534-0.632
			c-0.221-0.159-0.49-0.238-0.808-0.238c-0.327,0-0.605,0.08-0.836,0.241s-0.418,0.381-0.563,0.66
			c-0.135,0.258-0.231,0.553-0.286,0.883s-0.083,0.649-0.083,0.958c0,0.406,0.033,0.782,0.099,1.127
			c0.065,0.345,0.17,0.652,0.315,0.923c0.144,0.271,0.325,0.484,0.543,0.639s0.489,0.231,0.811,0.231
			c0.53,0,0.949-0.256,1.259-0.769C135.045,95.828,135.2,95.121,135.2,94.221z"/>
		<path fill="#002A5C" d="M143.705,97.565c-0.906,0-1.614-0.301-2.126-0.901s-0.768-1.407-0.768-2.418
			c0-0.44,0.069-0.853,0.206-1.235c0.138-0.383,0.338-0.73,0.6-1.044c0.25-0.301,0.563-0.543,0.939-0.727
			c0.376-0.185,0.787-0.276,1.231-0.276c0.614,0,1.113,0.147,1.498,0.441s0.578,0.694,0.578,1.202c0,0.212-0.051,0.399-0.152,0.562
			s-0.269,0.244-0.501,0.244c-0.25,0-0.443-0.063-0.581-0.189c-0.138-0.127-0.207-0.269-0.207-0.424c0-0.19,0.025-0.386,0.076-0.586
			s0.081-0.347,0.089-0.439c-0.076-0.131-0.189-0.219-0.339-0.263s-0.311-0.066-0.484-0.066c-0.203,0-0.396,0.043-0.579,0.13
			s-0.362,0.247-0.535,0.479c-0.156,0.212-0.283,0.497-0.38,0.856c-0.097,0.36-0.146,0.79-0.146,1.289
			c0,0.787,0.174,1.43,0.523,1.927s0.806,0.745,1.372,0.745c0.41,0,0.753-0.1,1.03-0.3c0.277-0.199,0.534-0.499,0.77-0.899
			l0.406,0.267c-0.279,0.499-0.647,0.896-1.104,1.187C144.664,97.42,144.192,97.565,143.705,97.565z"/>
		<path fill="#002A5C" d="M152.95,94.207c0,0.44-0.07,0.873-0.209,1.299c-0.14,0.425-0.339,0.786-0.598,1.082
			c-0.292,0.339-0.631,0.59-1.017,0.756c-0.385,0.164-0.817,0.247-1.296,0.247c-0.398,0-0.777-0.075-1.137-0.226
			s-0.68-0.369-0.959-0.656c-0.275-0.284-0.495-0.63-0.658-1.038s-0.245-0.866-0.245-1.374c0-0.979,0.285-1.777,0.854-2.4
			c0.57-0.621,1.316-0.933,2.24-0.933c0.876,0,1.6,0.295,2.17,0.886C152.665,92.439,152.95,93.226,152.95,94.207z M151.636,94.221
			c0-0.318-0.032-0.653-0.095-1.007c-0.064-0.354-0.159-0.652-0.286-0.897c-0.136-0.263-0.314-0.474-0.534-0.632
			c-0.221-0.159-0.49-0.238-0.808-0.238c-0.327,0-0.605,0.08-0.836,0.241s-0.418,0.381-0.563,0.66
			c-0.135,0.258-0.231,0.553-0.286,0.883s-0.083,0.649-0.083,0.958c0,0.406,0.033,0.782,0.099,1.127
			c0.065,0.345,0.17,0.652,0.315,0.923c0.144,0.271,0.325,0.484,0.543,0.639s0.489,0.231,0.811,0.231
			c0.53,0,0.949-0.256,1.259-0.769C151.481,95.828,151.636,95.121,151.636,94.221z"/>
		<path fill="#002A5C" d="M160.895,97.4h-3.06v-0.419c0.097-0.009,0.204-0.017,0.321-0.025c0.116-0.009,0.212-0.025,0.289-0.051
			c0.119-0.038,0.207-0.104,0.263-0.2c0.058-0.095,0.086-0.219,0.086-0.371v-3.219c0-0.443-0.105-0.787-0.315-1.027
			c-0.21-0.242-0.466-0.362-0.767-0.362c-0.225,0-0.431,0.035-0.617,0.104c-0.187,0.07-0.352,0.156-0.497,0.258
			c-0.14,0.097-0.251,0.201-0.334,0.313c-0.083,0.112-0.143,0.202-0.181,0.271v3.599c0,0.144,0.03,0.263,0.089,0.355
			s0.148,0.165,0.267,0.216c0.089,0.042,0.185,0.074,0.289,0.096c0.104,0.021,0.211,0.035,0.321,0.044V97.4h-3.066v-0.419
			c0.097-0.009,0.198-0.017,0.302-0.025c0.104-0.009,0.193-0.025,0.27-0.051c0.119-0.038,0.206-0.104,0.264-0.199
			c0.057-0.096,0.085-0.219,0.085-0.371v-3.861c0-0.144-0.031-0.275-0.092-0.396c-0.061-0.12-0.147-0.219-0.257-0.295
			c-0.081-0.051-0.176-0.087-0.286-0.11s-0.229-0.039-0.355-0.048v-0.419l2.082-0.14l0.089,0.089v0.883h0.032
			c0.102-0.102,0.229-0.224,0.381-0.365s0.296-0.258,0.432-0.346c0.157-0.102,0.343-0.187,0.559-0.254
			c0.216-0.068,0.459-0.102,0.73-0.102c0.601,0,1.046,0.187,1.336,0.562c0.29,0.374,0.435,0.872,0.435,1.495v3.256
			c0,0.148,0.025,0.268,0.076,0.358s0.138,0.162,0.26,0.213c0.102,0.042,0.189,0.072,0.263,0.089
			c0.074,0.017,0.177,0.029,0.308,0.038V97.4z"/>
		<path fill="#002A5C" d="M13.289,113h-3.053v-0.419c0.097-0.009,0.201-0.018,0.311-0.028s0.201-0.026,0.273-0.048
			c0.119-0.038,0.208-0.104,0.267-0.2c0.059-0.095,0.089-0.219,0.089-0.372v-7.254c0-0.152-0.033-0.295-0.098-0.429
			c-0.066-0.133-0.151-0.238-0.257-0.314c-0.076-0.051-0.216-0.098-0.419-0.14s-0.366-0.067-0.489-0.076v-0.406l2.355-0.14
			l0.089,0.096v8.588c0,0.148,0.027,0.27,0.083,0.365c0.055,0.095,0.144,0.168,0.267,0.219c0.093,0.042,0.185,0.074,0.276,0.096
			c0.091,0.021,0.193,0.035,0.308,0.044V113z"/>
		<path fill="#002A5C" d="M20.134,112.886c-0.199,0.072-0.374,0.13-0.523,0.175c-0.15,0.044-0.321,0.066-0.511,0.066
			c-0.33,0-0.593-0.077-0.791-0.231c-0.196-0.154-0.322-0.38-0.377-0.677h-0.038c-0.275,0.305-0.57,0.538-0.885,0.699
			c-0.315,0.16-0.695,0.24-1.14,0.24c-0.47,0-0.856-0.144-1.158-0.432c-0.303-0.287-0.454-0.664-0.454-1.129
			c0-0.242,0.034-0.457,0.102-0.648c0.068-0.189,0.169-0.361,0.305-0.514c0.106-0.127,0.246-0.24,0.419-0.34
			s0.336-0.179,0.489-0.238c0.19-0.071,0.577-0.205,1.159-0.399c0.582-0.194,0.974-0.347,1.177-0.457v-0.628
			c0-0.056-0.012-0.161-0.035-0.318c-0.023-0.156-0.073-0.305-0.149-0.443c-0.084-0.157-0.204-0.294-0.358-0.41
			c-0.155-0.116-0.374-0.174-0.657-0.174c-0.195,0-0.375,0.032-0.543,0.098c-0.167,0.065-0.284,0.135-0.352,0.207
			c0,0.084,0.02,0.209,0.06,0.374c0.041,0.165,0.061,0.317,0.061,0.457c0,0.148-0.066,0.283-0.2,0.406
			c-0.133,0.123-0.318,0.185-0.555,0.185c-0.211,0-0.367-0.075-0.466-0.226c-0.1-0.15-0.149-0.318-0.149-0.505
			c0-0.194,0.069-0.381,0.206-0.559c0.138-0.178,0.316-0.336,0.537-0.477c0.19-0.118,0.421-0.219,0.692-0.301
			c0.271-0.083,0.535-0.124,0.793-0.124c0.355,0,0.666,0.024,0.93,0.073c0.264,0.049,0.504,0.153,0.72,0.314
			c0.216,0.156,0.38,0.369,0.492,0.638c0.112,0.269,0.168,0.614,0.168,1.038c0,0.604-0.006,1.141-0.019,1.608
			s-0.019,0.979-0.019,1.533c0,0.165,0.029,0.296,0.085,0.394c0.058,0.098,0.145,0.18,0.264,0.248
			c0.063,0.037,0.164,0.059,0.302,0.062c0.137,0.005,0.278,0.007,0.422,0.007V112.886z M17.919,109.534
			c-0.36,0.106-0.675,0.21-0.946,0.312s-0.522,0.229-0.755,0.382c-0.211,0.145-0.379,0.315-0.501,0.512
			c-0.123,0.197-0.184,0.432-0.184,0.703c0,0.353,0.092,0.611,0.276,0.776c0.185,0.165,0.418,0.248,0.702,0.248
			c0.3,0,0.565-0.073,0.793-0.22s0.421-0.318,0.578-0.519L17.919,109.534z"/>
		<path fill="#002A5C" d="M25.019,109.934c0.173,0.152,0.307,0.328,0.4,0.527s0.14,0.442,0.14,0.73c0,0.579-0.217,1.053-0.65,1.422
			c-0.434,0.367-0.996,0.552-1.686,0.552c-0.364,0-0.699-0.065-1.006-0.196c-0.307-0.132-0.526-0.252-0.657-0.362l-0.127,0.413
			h-0.476l-0.063-2.178h0.438c0.034,0.166,0.106,0.359,0.216,0.58s0.243,0.42,0.4,0.599c0.165,0.187,0.363,0.344,0.593,0.471
			c0.231,0.128,0.49,0.191,0.778,0.191c0.406,0,0.719-0.093,0.939-0.277c0.22-0.186,0.33-0.45,0.33-0.796
			c0-0.178-0.035-0.331-0.105-0.46c-0.069-0.129-0.172-0.242-0.308-0.339c-0.14-0.098-0.311-0.186-0.514-0.264
			s-0.43-0.156-0.679-0.232c-0.199-0.059-0.42-0.141-0.663-0.244c-0.244-0.104-0.452-0.225-0.625-0.365
			c-0.186-0.147-0.338-0.33-0.457-0.545c-0.119-0.217-0.178-0.471-0.178-0.762c0-0.513,0.19-0.946,0.571-1.302
			s0.891-0.533,1.53-0.533c0.246,0,0.496,0.032,0.752,0.095c0.256,0.064,0.465,0.141,0.625,0.229l0.146-0.33h0.457l0.095,2.013
			h-0.438c-0.089-0.45-0.28-0.816-0.574-1.1c-0.294-0.282-0.653-0.424-1.076-0.424c-0.347,0-0.62,0.087-0.819,0.262
			s-0.298,0.386-0.298,0.634c0,0.189,0.033,0.349,0.099,0.476c0.065,0.127,0.164,0.235,0.295,0.323
			c0.127,0.085,0.287,0.164,0.479,0.238c0.192,0.074,0.43,0.158,0.714,0.251c0.279,0.089,0.543,0.192,0.79,0.312
			C24.654,109.659,24.858,109.79,25.019,109.934z"/>
		<path fill="#002A5C" d="M40.608,113h-3.047v-0.419c0.097-0.009,0.196-0.017,0.295-0.025c0.099-0.009,0.187-0.025,0.263-0.051
			c0.119-0.038,0.207-0.104,0.263-0.2c0.058-0.095,0.086-0.219,0.086-0.371v-3.23c0-0.44-0.101-0.78-0.302-1.02
			c-0.201-0.239-0.452-0.358-0.752-0.358c-0.208,0-0.402,0.032-0.584,0.095c-0.182,0.064-0.349,0.152-0.501,0.268
			c-0.123,0.093-0.225,0.193-0.308,0.301c-0.082,0.108-0.145,0.198-0.187,0.27v3.612c0,0.148,0.025,0.27,0.076,0.365
			c0.051,0.095,0.138,0.168,0.26,0.219c0.097,0.038,0.185,0.066,0.264,0.086c0.078,0.019,0.181,0.032,0.308,0.041V113h-2.983v-0.419
			c0.097-0.009,0.191-0.017,0.282-0.025c0.091-0.009,0.175-0.025,0.251-0.051c0.119-0.038,0.206-0.104,0.264-0.2
			c0.057-0.095,0.085-0.219,0.085-0.371v-3.23c0-0.44-0.101-0.78-0.302-1.02s-0.453-0.358-0.754-0.358
			c-0.208,0-0.403,0.033-0.585,0.099c-0.183,0.065-0.35,0.155-0.503,0.27c-0.123,0.093-0.227,0.198-0.312,0.314
			s-0.148,0.204-0.191,0.264v3.586c0,0.144,0.03,0.265,0.089,0.361c0.059,0.098,0.148,0.172,0.267,0.223
			c0.089,0.042,0.18,0.074,0.273,0.096c0.093,0.021,0.197,0.035,0.311,0.044V113h-3.041v-0.419c0.097-0.009,0.198-0.017,0.301-0.025
			c0.104-0.009,0.194-0.025,0.27-0.051c0.119-0.038,0.207-0.104,0.263-0.199c0.058-0.096,0.086-0.219,0.086-0.371v-3.887
			c0-0.135-0.031-0.257-0.092-0.364c-0.062-0.108-0.147-0.2-0.257-0.276c-0.081-0.051-0.18-0.092-0.298-0.123
			c-0.119-0.032-0.241-0.052-0.368-0.061v-0.419l2.095-0.14l0.089,0.089v0.895h0.044c0.106-0.105,0.235-0.23,0.387-0.374
			s0.294-0.261,0.425-0.349c0.148-0.102,0.333-0.187,0.555-0.254c0.223-0.068,0.462-0.102,0.721-0.102
			c0.406,0,0.755,0.108,1.047,0.326s0.501,0.481,0.628,0.791c0.152-0.148,0.286-0.278,0.402-0.391s0.27-0.232,0.459-0.359
			c0.161-0.109,0.35-0.198,0.567-0.266c0.217-0.068,0.459-0.102,0.726-0.102c0.528,0,0.946,0.173,1.254,0.52
			c0.309,0.348,0.463,0.881,0.463,1.6v3.181c0,0.148,0.025,0.27,0.076,0.365c0.051,0.095,0.138,0.168,0.26,0.219
			c0.097,0.038,0.194,0.066,0.289,0.086c0.096,0.019,0.202,0.032,0.321,0.041V113z"/>
		<path fill="#002A5C" d="M48.19,112.886l-2.043,0.14l-0.096-0.089v-0.794h-0.038c-0.102,0.106-0.215,0.22-0.342,0.34
			c-0.126,0.121-0.272,0.229-0.437,0.327c-0.19,0.114-0.374,0.201-0.552,0.261c-0.177,0.059-0.429,0.088-0.754,0.088
			c-0.553,0-0.975-0.181-1.264-0.542s-0.434-0.887-0.434-1.575v-2.993c0-0.152-0.029-0.28-0.086-0.384s-0.142-0.193-0.252-0.27
			c-0.077-0.051-0.173-0.087-0.288-0.11c-0.115-0.023-0.236-0.039-0.364-0.048v-0.419l2.088-0.152l0.095,0.089v4.348
			c0,0.453,0.102,0.794,0.305,1.022s0.446,0.343,0.73,0.343c0.233,0,0.44-0.036,0.622-0.107c0.182-0.072,0.334-0.156,0.457-0.254
			c0.114-0.089,0.215-0.183,0.301-0.282c0.087-0.1,0.154-0.191,0.2-0.275v-3.544c0-0.14-0.03-0.264-0.089-0.371
			c-0.059-0.108-0.142-0.2-0.248-0.276c-0.076-0.051-0.189-0.081-0.339-0.092c-0.15-0.011-0.319-0.02-0.505-0.028v-0.419
			l2.278-0.152l0.096,0.089v4.965c0,0.144,0.03,0.267,0.089,0.368c0.059,0.101,0.142,0.188,0.248,0.26
			c0.076,0.046,0.167,0.077,0.273,0.092s0.222,0.024,0.349,0.028V112.886z"/>
		<path fill="#002A5C" d="M51.367,112.619c0,0.466-0.068,0.902-0.203,1.311s-0.315,0.746-0.54,1.013
			c-0.241,0.283-0.513,0.5-0.815,0.65c-0.303,0.15-0.636,0.226-1,0.226c-0.376,0-0.66-0.075-0.851-0.226s-0.286-0.327-0.286-0.53
			c0-0.182,0.051-0.341,0.152-0.479s0.25-0.207,0.444-0.207c0.131,0,0.248,0.028,0.349,0.083s0.19,0.127,0.267,0.216
			c0.068,0.076,0.137,0.17,0.206,0.282c0.07,0.112,0.137,0.222,0.2,0.327c0.322,0,0.551-0.194,0.688-0.584
			c0.138-0.39,0.207-1.014,0.207-1.873v-4.709c0-0.136-0.033-0.266-0.098-0.391c-0.066-0.125-0.151-0.226-0.257-0.302
			c-0.068-0.047-0.229-0.093-0.486-0.14c-0.256-0.047-0.449-0.076-0.581-0.089v-0.394l2.514-0.14l0.089,0.089V112.619z
			 M51.462,104.189c0,0.241-0.079,0.452-0.238,0.632c-0.158,0.18-0.354,0.27-0.587,0.27c-0.216,0-0.403-0.086-0.562-0.257
			c-0.159-0.172-0.238-0.367-0.238-0.588c0-0.232,0.079-0.436,0.238-0.609c0.158-0.173,0.346-0.26,0.562-0.26
			c0.241,0,0.439,0.081,0.594,0.244C51.385,103.784,51.462,103.974,51.462,104.189z"/>
		<path fill="#002A5C" d="M58.575,111.527c-0.262,0.499-0.614,0.897-1.054,1.193s-0.946,0.444-1.517,0.444
			c-0.503,0-0.945-0.089-1.324-0.267c-0.378-0.178-0.69-0.419-0.936-0.724s-0.428-0.66-0.549-1.066
			c-0.12-0.406-0.181-0.836-0.181-1.288c0-0.406,0.064-0.806,0.193-1.197c0.129-0.392,0.319-0.743,0.568-1.057
			c0.241-0.301,0.541-0.543,0.898-0.727c0.357-0.185,0.758-0.276,1.203-0.276c0.457,0,0.849,0.072,1.174,0.216
			s0.59,0.341,0.793,0.59c0.195,0.237,0.339,0.517,0.435,0.838c0.095,0.322,0.143,0.671,0.143,1.048v0.419h-4.145
			c0,0.411,0.039,0.785,0.118,1.12c0.078,0.335,0.202,0.63,0.371,0.884c0.165,0.246,0.381,0.44,0.647,0.582
			c0.267,0.143,0.584,0.213,0.952,0.213c0.376,0,0.701-0.088,0.975-0.265c0.272-0.176,0.536-0.494,0.79-0.954L58.575,111.527z
			 M57.172,109.141c0-0.236-0.02-0.489-0.06-0.76c-0.041-0.27-0.105-0.495-0.194-0.677c-0.097-0.194-0.23-0.353-0.4-0.475
			s-0.387-0.184-0.654-0.184c-0.444,0-0.813,0.185-1.108,0.554c-0.294,0.369-0.454,0.883-0.479,1.541H57.172z"/>
		<path fill="#002A5C" d="M64.221,107.547c0,0.217-0.053,0.408-0.159,0.575s-0.269,0.251-0.489,0.251
			c-0.237,0-0.418-0.062-0.542-0.185c-0.125-0.123-0.188-0.258-0.188-0.406c0-0.093,0.007-0.178,0.022-0.254
			c0.015-0.076,0.028-0.152,0.041-0.229c-0.199,0-0.432,0.08-0.698,0.241s-0.493,0.39-0.679,0.686v3.644
			c0,0.148,0.029,0.269,0.085,0.362c0.058,0.093,0.147,0.162,0.27,0.209c0.106,0.042,0.242,0.074,0.41,0.096
			c0.167,0.021,0.312,0.035,0.435,0.044V113h-3.301v-0.419c0.097-0.009,0.198-0.017,0.302-0.025c0.104-0.009,0.193-0.025,0.27-0.051
			c0.119-0.038,0.206-0.104,0.264-0.199c0.057-0.096,0.085-0.219,0.085-0.371v-3.861c0-0.131-0.031-0.26-0.092-0.387
			c-0.061-0.127-0.147-0.229-0.257-0.305c-0.081-0.051-0.176-0.087-0.286-0.11s-0.229-0.039-0.355-0.048v-0.419l2.082-0.14
			l0.089,0.089v0.883h0.032c0.262-0.344,0.554-0.604,0.876-0.781s0.616-0.267,0.882-0.267s0.483,0.087,0.651,0.261
			C64.138,107.022,64.221,107.256,64.221,107.547z"/>
		<path fill="#002A5C" d="M70.445,111.527c-0.262,0.499-0.614,0.897-1.054,1.193s-0.946,0.444-1.517,0.444
			c-0.503,0-0.945-0.089-1.324-0.267c-0.378-0.178-0.69-0.419-0.936-0.724s-0.428-0.66-0.549-1.066
			c-0.12-0.406-0.181-0.836-0.181-1.288c0-0.406,0.064-0.806,0.193-1.197c0.129-0.392,0.319-0.743,0.568-1.057
			c0.241-0.301,0.541-0.543,0.898-0.727c0.357-0.185,0.758-0.276,1.203-0.276c0.457,0,0.849,0.072,1.174,0.216
			s0.59,0.341,0.793,0.59c0.195,0.237,0.339,0.517,0.435,0.838c0.095,0.322,0.143,0.671,0.143,1.048v0.419h-4.145
			c0,0.411,0.039,0.785,0.118,1.12c0.078,0.335,0.202,0.63,0.371,0.884c0.165,0.246,0.381,0.44,0.647,0.582
			c0.267,0.143,0.584,0.213,0.952,0.213c0.376,0,0.701-0.088,0.975-0.265c0.272-0.176,0.536-0.494,0.79-0.954L70.445,111.527z
			 M69.042,109.141c0-0.236-0.02-0.489-0.06-0.76c-0.041-0.27-0.105-0.495-0.194-0.677c-0.097-0.194-0.23-0.353-0.4-0.475
			s-0.387-0.184-0.654-0.184c-0.444,0-0.813,0.185-1.108,0.554c-0.294,0.369-0.454,0.883-0.479,1.541H69.042z"/>
		<path fill="#002A5C" d="M75.431,109.934c0.173,0.152,0.307,0.328,0.4,0.527s0.14,0.442,0.14,0.73c0,0.579-0.217,1.053-0.65,1.422
			c-0.434,0.367-0.996,0.552-1.686,0.552c-0.364,0-0.699-0.065-1.006-0.196c-0.307-0.132-0.526-0.252-0.657-0.362l-0.127,0.413
			h-0.476l-0.063-2.178h0.438c0.034,0.166,0.106,0.359,0.216,0.58s0.243,0.42,0.4,0.599c0.165,0.187,0.363,0.344,0.593,0.471
			c0.231,0.128,0.49,0.191,0.778,0.191c0.406,0,0.719-0.093,0.939-0.277c0.22-0.186,0.33-0.45,0.33-0.796
			c0-0.178-0.035-0.331-0.105-0.46c-0.069-0.129-0.172-0.242-0.308-0.339c-0.14-0.098-0.311-0.186-0.514-0.264
			s-0.43-0.156-0.679-0.232c-0.199-0.059-0.42-0.141-0.663-0.244c-0.244-0.104-0.452-0.225-0.625-0.365
			c-0.186-0.147-0.338-0.33-0.457-0.545c-0.119-0.217-0.178-0.471-0.178-0.762c0-0.513,0.19-0.946,0.571-1.302
			s0.891-0.533,1.53-0.533c0.246,0,0.496,0.032,0.752,0.095c0.256,0.064,0.465,0.141,0.625,0.229l0.146-0.33h0.457l0.095,2.013
			h-0.438c-0.089-0.45-0.28-0.816-0.574-1.1c-0.294-0.282-0.653-0.424-1.076-0.424c-0.347,0-0.62,0.087-0.819,0.262
			s-0.298,0.386-0.298,0.634c0,0.189,0.033,0.349,0.099,0.476c0.065,0.127,0.164,0.235,0.295,0.323
			c0.127,0.085,0.287,0.164,0.479,0.238c0.192,0.074,0.43,0.158,0.714,0.251c0.279,0.089,0.543,0.192,0.79,0.312
			C75.066,109.659,75.27,109.79,75.431,109.934z"/>
		<path fill="#002A5C" d="M87.167,112.886l-2.189,0.14l-0.096-0.089v-0.584l-0.051-0.013c-0.22,0.245-0.491,0.446-0.814,0.604
			c-0.323,0.156-0.656,0.234-0.999,0.234c-0.355,0-0.698-0.079-1.03-0.238c-0.332-0.158-0.621-0.382-0.865-0.67
			c-0.25-0.291-0.447-0.643-0.593-1.053c-0.146-0.411-0.219-0.863-0.219-1.359c0-0.452,0.078-0.882,0.234-1.288
			s0.372-0.762,0.647-1.066c0.257-0.283,0.573-0.51,0.947-0.679c0.374-0.17,0.755-0.254,1.144-0.254c0.292,0,0.578,0.036,0.859,0.11
			c0.281,0.074,0.522,0.169,0.726,0.282v-2.181c0-0.179-0.03-0.341-0.089-0.487c-0.059-0.146-0.142-0.257-0.248-0.333
			c-0.119-0.081-0.278-0.14-0.479-0.176c-0.201-0.036-0.418-0.062-0.651-0.079v-0.394l2.564-0.14l0.095,0.095v8.438
			c0,0.147,0.028,0.273,0.086,0.377c0.057,0.104,0.141,0.191,0.25,0.264c0.081,0.051,0.197,0.082,0.349,0.095
			s0.292,0.021,0.419,0.025V112.886z M84.87,111.787v-3.662c-0.034-0.11-0.089-0.229-0.165-0.355
			c-0.076-0.127-0.171-0.243-0.285-0.35c-0.123-0.105-0.266-0.193-0.431-0.263c-0.165-0.07-0.356-0.104-0.576-0.104
			c-0.253,0-0.487,0.065-0.7,0.196s-0.402,0.319-0.567,0.565c-0.156,0.236-0.28,0.538-0.371,0.904s-0.136,0.771-0.136,1.215
			c0,0.355,0.034,0.679,0.102,0.969c0.067,0.29,0.182,0.56,0.342,0.809c0.148,0.237,0.337,0.428,0.567,0.572
			c0.23,0.144,0.504,0.215,0.821,0.215c0.338,0,0.618-0.073,0.839-0.222S84.718,111.965,84.87,111.787z"/>
		<path fill="#002A5C" d="M93.467,111.527c-0.262,0.499-0.614,0.897-1.054,1.193s-0.946,0.444-1.517,0.444
			c-0.503,0-0.945-0.089-1.324-0.267c-0.378-0.178-0.69-0.419-0.936-0.724s-0.428-0.66-0.549-1.066
			c-0.12-0.406-0.181-0.836-0.181-1.288c0-0.406,0.064-0.806,0.193-1.197c0.129-0.392,0.319-0.743,0.568-1.057
			c0.241-0.301,0.541-0.543,0.898-0.727c0.357-0.185,0.758-0.276,1.203-0.276c0.457,0,0.849,0.072,1.174,0.216
			s0.59,0.341,0.793,0.59c0.195,0.237,0.339,0.517,0.435,0.838c0.095,0.322,0.143,0.671,0.143,1.048v0.419H89.17
			c0,0.411,0.039,0.785,0.118,1.12c0.078,0.335,0.202,0.63,0.371,0.884c0.165,0.246,0.381,0.44,0.647,0.582
			c0.267,0.143,0.584,0.213,0.952,0.213c0.376,0,0.701-0.088,0.975-0.265c0.272-0.176,0.536-0.494,0.79-0.954L93.467,111.527z
			 M92.064,109.141c0-0.236-0.02-0.489-0.06-0.76c-0.041-0.27-0.105-0.495-0.194-0.677c-0.097-0.194-0.23-0.353-0.4-0.475
			s-0.387-0.184-0.654-0.184c-0.444,0-0.813,0.185-1.108,0.554c-0.294,0.369-0.454,0.883-0.479,1.541H92.064z"/>
		<path fill="#002A5C" d="M105.521,108.867c0.271,0.187,0.491,0.421,0.66,0.702s0.254,0.612,0.254,0.993
			c0,0.457-0.096,0.843-0.289,1.158c-0.192,0.315-0.468,0.564-0.828,0.746c-0.381,0.194-0.82,0.332-1.317,0.412
			c-0.497,0.081-1.082,0.121-1.755,0.121h-4.678v-0.495c0.131-0.013,0.296-0.032,0.495-0.058s0.338-0.055,0.419-0.088
			c0.157-0.064,0.263-0.147,0.321-0.251c0.057-0.104,0.085-0.238,0.085-0.403v-6.348c0-0.152-0.023-0.279-0.07-0.381
			s-0.159-0.19-0.336-0.267c-0.131-0.055-0.284-0.101-0.457-0.137s-0.326-0.064-0.457-0.085v-0.496h4.894
			c1.231,0,2.12,0.17,2.666,0.508c0.546,0.339,0.819,0.838,0.819,1.498c0,0.305-0.062,0.573-0.184,0.804s-0.298,0.431-0.527,0.6
			c-0.208,0.156-0.455,0.292-0.743,0.406s-0.597,0.21-0.927,0.286v0.12c0.33,0.034,0.673,0.106,1.028,0.219
			S105.259,108.689,105.521,108.867z M103.478,106.157c0-0.499-0.141-0.889-0.422-1.168c-0.282-0.279-0.704-0.419-1.267-0.419
			c-0.081,0-0.185,0.003-0.314,0.01c-0.129,0.006-0.24,0.012-0.333,0.016v3.339h0.33c0.686,0,1.191-0.16,1.517-0.479
			S103.478,106.703,103.478,106.157z M103.922,110.483c0-0.628-0.186-1.108-0.559-1.443s-0.908-0.503-1.606-0.503
			c-0.081,0-0.187,0.004-0.321,0.01c-0.133,0.007-0.231,0.012-0.295,0.016v3.301c0.038,0.156,0.157,0.289,0.355,0.397
			c0.199,0.107,0.44,0.161,0.724,0.161c0.503,0,0.913-0.169,1.229-0.508C103.764,111.574,103.922,111.098,103.922,110.483z"/>
		<path fill="#002A5C" d="M115.75,112.867l-3.028,0.184l-0.095-0.089v-0.831h-0.038c-0.144,0.131-0.284,0.259-0.421,0.384
			s-0.301,0.237-0.491,0.339c-0.216,0.115-0.419,0.199-0.612,0.254c-0.192,0.056-0.472,0.083-0.84,0.083
			c-0.638,0-1.127-0.192-1.467-0.577c-0.34-0.386-0.51-0.93-0.51-1.632v-2.856c0-0.165-0.032-0.3-0.095-0.403
			s-0.147-0.195-0.252-0.276c-0.084-0.062-0.193-0.108-0.328-0.136c-0.134-0.027-0.256-0.046-0.366-0.054v-0.464l3.066-0.165
			l0.069,0.096v4.221c0,0.436,0.083,0.758,0.251,0.965c0.167,0.207,0.396,0.311,0.688,0.311c0.3,0,0.57-0.078,0.81-0.234
			c0.239-0.156,0.414-0.324,0.523-0.502v-3.421c0-0.144-0.027-0.272-0.083-0.388c-0.055-0.113-0.135-0.207-0.241-0.279
			c-0.076-0.051-0.185-0.084-0.327-0.102c-0.142-0.017-0.287-0.029-0.435-0.037v-0.464l3.085-0.165l0.095,0.096v4.9
			c0,0.147,0.029,0.273,0.088,0.377c0.059,0.104,0.145,0.191,0.259,0.264c0.08,0.051,0.184,0.086,0.312,0.104
			c0.128,0.02,0.256,0.031,0.382,0.035V112.867z"/>
		<path fill="#002A5C" d="M122.723,107.865c0,0.321-0.1,0.604-0.298,0.847s-0.461,0.365-0.787,0.365
			c-0.309,0-0.57-0.078-0.784-0.233c-0.214-0.156-0.321-0.386-0.321-0.689c0-0.147,0.011-0.263,0.032-0.345s0.04-0.159,0.057-0.23
			c-0.195,0.009-0.4,0.075-0.616,0.201s-0.406,0.294-0.571,0.503v3.485c0,0.148,0.023,0.271,0.07,0.368s0.125,0.174,0.235,0.229
			c0.093,0.047,0.244,0.086,0.454,0.117c0.209,0.032,0.36,0.05,0.454,0.055V113h-4.247v-0.463c0.106-0.009,0.213-0.021,0.32-0.035
			c0.108-0.015,0.2-0.035,0.276-0.061c0.135-0.047,0.229-0.118,0.279-0.216s0.076-0.225,0.076-0.381v-3.694
			c0-0.152-0.036-0.289-0.108-0.409c-0.072-0.121-0.159-0.217-0.26-0.289c-0.076-0.051-0.172-0.093-0.289-0.127
			c-0.116-0.034-0.244-0.058-0.384-0.069v-0.464l3.028-0.165l0.095,0.096v0.92h0.025c0.292-0.339,0.602-0.604,0.93-0.797
			c0.328-0.192,0.67-0.289,1.025-0.289c0.394,0,0.71,0.122,0.949,0.365C122.604,107.165,122.723,107.479,122.723,107.865z"/>
		<path fill="#002A5C" d="M131.435,113h-2.992c-0.368-0.646-0.704-1.193-1.009-1.643c-0.304-0.45-0.592-0.867-0.862-1.251
			l-0.374,0.316v1.384c0,0.152,0.022,0.277,0.066,0.375c0.045,0.097,0.13,0.169,0.257,0.215c0.076,0.034,0.165,0.064,0.267,0.09
			s0.203,0.042,0.305,0.051V113h-3.942v-0.463c0.106-0.009,0.213-0.021,0.319-0.035s0.2-0.035,0.281-0.061
			c0.136-0.047,0.229-0.118,0.278-0.216c0.049-0.098,0.074-0.225,0.074-0.381v-7.077c0-0.141-0.031-0.285-0.092-0.436
			c-0.062-0.15-0.151-0.264-0.27-0.34c-0.081-0.051-0.201-0.093-0.362-0.127c-0.161-0.033-0.307-0.055-0.438-0.062v-0.464
			l3.161-0.165l0.095,0.102v6.551c0.312-0.279,0.665-0.604,1.056-0.972c0.391-0.368,0.705-0.673,0.941-0.914
			c0.14-0.144,0.217-0.252,0.231-0.326c0.015-0.074,0.022-0.12,0.022-0.137c0-0.076-0.067-0.14-0.201-0.19
			c-0.133-0.051-0.334-0.096-0.603-0.133v-0.451h3.225v0.438c-0.422,0.119-0.745,0.23-0.966,0.334
			c-0.222,0.104-0.464,0.242-0.726,0.416c-0.173,0.113-0.341,0.233-0.503,0.358c-0.163,0.126-0.349,0.281-0.56,0.469
			c0.414,0.601,0.796,1.156,1.147,1.668s0.718,1.054,1.103,1.624c0.131,0.199,0.293,0.332,0.488,0.4
			c0.195,0.067,0.389,0.109,0.583,0.127V113z"/>
		<path fill="#002A5C" d="M135.647,113h-4.012v-0.463c0.11-0.009,0.218-0.02,0.324-0.032s0.197-0.034,0.273-0.063
			c0.135-0.051,0.23-0.124,0.286-0.219c0.055-0.096,0.083-0.222,0.083-0.378v-3.694c0-0.148-0.034-0.278-0.102-0.391
			s-0.152-0.202-0.254-0.27c-0.076-0.051-0.191-0.1-0.346-0.146c-0.155-0.046-0.295-0.076-0.422-0.088v-0.464l3.11-0.165
			l0.095,0.096v5.039c0,0.148,0.032,0.274,0.095,0.378s0.154,0.181,0.273,0.231c0.084,0.039,0.178,0.072,0.279,0.102
			c0.102,0.03,0.208,0.051,0.317,0.064V113z M134.72,104.342c0,0.321-0.124,0.596-0.371,0.822c-0.248,0.227-0.541,0.34-0.879,0.34
			c-0.343,0-0.638-0.113-0.885-0.34c-0.248-0.227-0.372-0.501-0.372-0.822s0.124-0.597,0.372-0.825
			c0.247-0.229,0.542-0.343,0.885-0.343s0.637,0.114,0.882,0.343S134.72,104.021,134.72,104.342z"/>
		<path fill="#002A5C" d="M144.74,113h-3.815v-0.463c0.081-0.009,0.178-0.02,0.292-0.032s0.201-0.034,0.26-0.063
			c0.089-0.047,0.152-0.114,0.19-0.203s0.057-0.22,0.057-0.394v-2.971c0-0.432-0.08-0.757-0.239-0.975s-0.394-0.327-0.703-0.327
			c-0.17,0-0.328,0.025-0.474,0.076c-0.146,0.051-0.29,0.125-0.43,0.223c-0.123,0.085-0.222,0.172-0.296,0.26
			c-0.075,0.09-0.137,0.168-0.188,0.235v3.409c0,0.147,0.021,0.271,0.063,0.371s0.112,0.174,0.209,0.225
			c0.068,0.039,0.152,0.072,0.254,0.102c0.102,0.03,0.201,0.051,0.298,0.064V113h-3.859v-0.463c0.106-0.009,0.213-0.021,0.32-0.035
			c0.108-0.015,0.2-0.035,0.276-0.061c0.135-0.047,0.229-0.118,0.279-0.216s0.076-0.225,0.076-0.381v-3.694
			c0-0.131-0.034-0.26-0.102-0.387s-0.157-0.231-0.267-0.312c-0.076-0.051-0.172-0.093-0.289-0.127
			c-0.116-0.034-0.244-0.058-0.384-0.069v-0.464l3.028-0.165l0.095,0.096v0.92h0.025c0.119-0.105,0.262-0.232,0.432-0.381
			s0.326-0.269,0.47-0.361c0.157-0.102,0.362-0.188,0.616-0.261s0.525-0.108,0.812-0.108c0.69,0,1.207,0.196,1.552,0.588
			c0.345,0.392,0.517,0.91,0.517,1.559v3.109c0,0.157,0.023,0.282,0.07,0.375s0.133,0.167,0.26,0.223
			c0.068,0.029,0.151,0.059,0.25,0.088c0.1,0.03,0.213,0.051,0.34,0.064V113z"/>
		<path fill="#002A5C" d="M152.715,112.867c-0.186,0.08-0.405,0.154-0.659,0.222s-0.522,0.102-0.805,0.102
			c-0.52,0-0.902-0.077-1.146-0.231c-0.245-0.154-0.412-0.376-0.5-0.664h-0.038c-0.144,0.145-0.283,0.268-0.417,0.369
			s-0.276,0.188-0.429,0.26c-0.199,0.093-0.391,0.163-0.575,0.209c-0.185,0.047-0.442,0.07-0.772,0.07
			c-0.492,0-0.912-0.146-1.259-0.436c-0.348-0.29-0.521-0.675-0.521-1.153c0-0.275,0.038-0.51,0.114-0.703
			c0.077-0.192,0.185-0.363,0.324-0.512c0.127-0.136,0.274-0.248,0.442-0.337s0.351-0.172,0.55-0.248
			c0.381-0.14,0.839-0.284,1.373-0.436c0.534-0.15,0.924-0.284,1.17-0.403v-0.609c0-0.105-0.008-0.245-0.025-0.419
			s-0.053-0.319-0.108-0.438c-0.059-0.136-0.152-0.25-0.279-0.344c-0.127-0.093-0.294-0.139-0.502-0.139
			c-0.186,0-0.342,0.026-0.467,0.079c-0.125,0.053-0.225,0.106-0.301,0.161c0.013,0.085,0.049,0.214,0.108,0.388
			c0.06,0.174,0.089,0.341,0.089,0.501c0,0.072-0.019,0.162-0.057,0.271c-0.039,0.107-0.094,0.193-0.166,0.257
			c-0.098,0.085-0.207,0.15-0.328,0.197c-0.121,0.046-0.307,0.069-0.557,0.069c-0.356,0-0.626-0.086-0.808-0.257
			c-0.183-0.172-0.274-0.395-0.274-0.67c0-0.237,0.094-0.449,0.282-0.638c0.188-0.188,0.418-0.344,0.689-0.467
			c0.267-0.127,0.573-0.226,0.92-0.295c0.347-0.07,0.668-0.104,0.965-0.104c0.411,0,0.787,0.023,1.13,0.072s0.652,0.149,0.927,0.302
			c0.262,0.148,0.471,0.363,0.625,0.645c0.155,0.281,0.232,0.648,0.232,1.101c0,0.479-0.009,1.046-0.029,1.701
			c-0.019,0.656-0.028,1.088-0.028,1.295c0,0.191,0.028,0.341,0.086,0.451c0.057,0.11,0.145,0.192,0.263,0.248
			c0.072,0.033,0.185,0.054,0.339,0.06c0.155,0.007,0.295,0.01,0.422,0.01V112.867z M149.567,109.56
			c-0.238,0.081-0.474,0.173-0.707,0.276c-0.234,0.104-0.425,0.214-0.573,0.328c-0.157,0.119-0.28,0.271-0.37,0.455
			s-0.134,0.401-0.134,0.652c0,0.33,0.075,0.57,0.226,0.719s0.336,0.223,0.558,0.223c0.233,0,0.426-0.048,0.576-0.144
			c0.151-0.095,0.284-0.213,0.398-0.353L149.567,109.56z"/>
		<path fill="#002A5C" d="M164.928,106.398h-0.495c-0.123-0.35-0.339-0.722-0.649-1.116s-0.605-0.61-0.884-0.648
			c-0.127-0.017-0.296-0.032-0.507-0.044c-0.211-0.014-0.405-0.02-0.583-0.02h-1.401v3.529h0.895c0.254,0,0.474-0.028,0.66-0.086
			c0.186-0.057,0.351-0.159,0.495-0.308c0.106-0.105,0.208-0.282,0.308-0.53c0.099-0.247,0.16-0.46,0.181-0.638h0.482v3.79h-0.482
			c-0.017-0.191-0.083-0.423-0.197-0.695c-0.114-0.273-0.211-0.454-0.292-0.543c-0.123-0.136-0.279-0.236-0.47-0.302
			s-0.419-0.099-0.686-0.099h-0.895v2.984c0,0.152,0.028,0.282,0.086,0.39c0.057,0.108,0.166,0.196,0.327,0.264
			c0.093,0.038,0.221,0.073,0.384,0.104c0.163,0.032,0.325,0.057,0.485,0.073V113h-4.856v-0.495c0.123-0.013,0.286-0.03,0.489-0.054
			s0.345-0.052,0.425-0.086c0.152-0.06,0.258-0.142,0.317-0.248c0.059-0.105,0.089-0.24,0.089-0.406v-6.354
			c0-0.144-0.026-0.27-0.08-0.378c-0.053-0.107-0.162-0.197-0.327-0.27c-0.119-0.051-0.275-0.098-0.47-0.14s-0.343-0.07-0.444-0.082
			v-0.496h8.093V106.398z"/>
		<path fill="#002A5C" d="M172.878,112.867c-0.186,0.08-0.405,0.154-0.659,0.222s-0.522,0.102-0.805,0.102
			c-0.52,0-0.902-0.077-1.146-0.231c-0.245-0.154-0.412-0.376-0.5-0.664h-0.038c-0.144,0.145-0.283,0.268-0.417,0.369
			s-0.276,0.188-0.429,0.26c-0.199,0.093-0.391,0.163-0.575,0.209c-0.185,0.047-0.442,0.07-0.772,0.07
			c-0.492,0-0.912-0.146-1.259-0.436c-0.348-0.29-0.521-0.675-0.521-1.153c0-0.275,0.038-0.51,0.114-0.703
			c0.077-0.192,0.185-0.363,0.324-0.512c0.127-0.136,0.274-0.248,0.442-0.337s0.351-0.172,0.55-0.248
			c0.381-0.14,0.839-0.284,1.373-0.436c0.534-0.15,0.924-0.284,1.17-0.403v-0.609c0-0.105-0.008-0.245-0.025-0.419
			s-0.053-0.319-0.108-0.438c-0.059-0.136-0.152-0.25-0.279-0.344c-0.127-0.093-0.294-0.139-0.502-0.139
			c-0.186,0-0.342,0.026-0.467,0.079c-0.125,0.053-0.225,0.106-0.301,0.161c0.013,0.085,0.049,0.214,0.108,0.388
			c0.06,0.174,0.089,0.341,0.089,0.501c0,0.072-0.019,0.162-0.057,0.271c-0.039,0.107-0.094,0.193-0.166,0.257
			c-0.098,0.085-0.207,0.15-0.328,0.197c-0.121,0.046-0.307,0.069-0.557,0.069c-0.356,0-0.626-0.086-0.808-0.257
			c-0.183-0.172-0.274-0.395-0.274-0.67c0-0.237,0.094-0.449,0.282-0.638c0.188-0.188,0.418-0.344,0.689-0.467
			c0.267-0.127,0.573-0.226,0.92-0.295c0.347-0.07,0.668-0.104,0.965-0.104c0.411,0,0.787,0.023,1.13,0.072s0.652,0.149,0.927,0.302
			c0.262,0.148,0.471,0.363,0.625,0.645c0.155,0.281,0.232,0.648,0.232,1.101c0,0.479-0.009,1.046-0.029,1.701
			c-0.019,0.656-0.028,1.088-0.028,1.295c0,0.191,0.028,0.341,0.086,0.451c0.057,0.11,0.145,0.192,0.263,0.248
			c0.072,0.033,0.185,0.054,0.339,0.06c0.155,0.007,0.295,0.01,0.422,0.01V112.867z M169.73,109.56
			c-0.238,0.081-0.474,0.173-0.707,0.276c-0.234,0.104-0.425,0.214-0.573,0.328c-0.157,0.119-0.28,0.271-0.37,0.455
			s-0.134,0.401-0.134,0.652c0,0.33,0.075,0.57,0.226,0.719s0.336,0.223,0.558,0.223c0.233,0,0.426-0.048,0.576-0.144
			c0.151-0.095,0.284-0.213,0.398-0.353L169.73,109.56z"/>
		<path fill="#002A5C" d="M176.436,113.216c-0.411,0-0.812-0.061-1.203-0.181c-0.392-0.121-0.695-0.249-0.911-0.385l-0.19,0.432
			h-0.495l-0.083-2.367h0.463c0.063,0.19,0.169,0.405,0.317,0.645s0.317,0.453,0.508,0.645c0.199,0.189,0.426,0.351,0.683,0.482
			c0.256,0.131,0.53,0.196,0.822,0.196c0.385,0,0.672-0.075,0.86-0.226c0.188-0.15,0.283-0.382,0.283-0.695
			c0-0.169-0.042-0.309-0.127-0.418c-0.084-0.11-0.201-0.206-0.349-0.286c-0.165-0.085-0.346-0.156-0.543-0.216
			c-0.196-0.06-0.439-0.131-0.727-0.216s-0.534-0.17-0.739-0.257c-0.206-0.087-0.418-0.224-0.638-0.41
			c-0.19-0.164-0.343-0.363-0.457-0.596c-0.114-0.233-0.171-0.511-0.171-0.832c0-0.597,0.251-1.079,0.752-1.447
			c0.502-0.368,1.159-0.553,1.971-0.553c0.385,0,0.74,0.04,1.063,0.118c0.324,0.078,0.596,0.164,0.816,0.257l0.133-0.375h0.482
			l0.102,2.165h-0.444c-0.148-0.44-0.402-0.82-0.762-1.14s-0.747-0.479-1.162-0.479c-0.326,0-0.582,0.067-0.768,0.203
			c-0.186,0.135-0.279,0.323-0.279,0.564c0,0.321,0.136,0.555,0.409,0.698s0.654,0.279,1.144,0.406
			c0.756,0.194,1.31,0.46,1.66,0.797c0.351,0.336,0.526,0.765,0.526,1.285c0,0.694-0.272,1.231-0.816,1.612
			C178.022,113.025,177.312,113.216,176.436,113.216z"/>
		<path fill="#002A5C" d="M186.773,107.452c0.313,0.292,0.552,0.642,0.717,1.048s0.248,0.846,0.248,1.32
			c0,0.469-0.082,0.912-0.245,1.329c-0.163,0.417-0.401,0.773-0.714,1.069c-0.334,0.318-0.733,0.562-1.196,0.73
			c-0.464,0.169-0.994,0.254-1.59,0.254c-0.516,0-0.991-0.074-1.425-0.223c-0.434-0.147-0.817-0.37-1.152-0.666
			c-0.322-0.283-0.576-0.634-0.762-1.051s-0.279-0.883-0.279-1.399c0-0.508,0.082-0.96,0.245-1.355
			c0.163-0.396,0.407-0.748,0.733-1.057c0.313-0.296,0.699-0.525,1.159-0.688c0.459-0.163,0.972-0.244,1.539-0.244
			c0.592,0,1.114,0.081,1.564,0.244C186.065,106.927,186.451,107.156,186.773,107.452z M185.148,111.852
			c0.093-0.237,0.162-0.525,0.207-0.863c0.044-0.339,0.066-0.732,0.066-1.182c0-0.296-0.021-0.635-0.063-1.016
			s-0.106-0.681-0.19-0.9c-0.102-0.268-0.242-0.477-0.422-0.629c-0.18-0.152-0.408-0.229-0.683-0.229
			c-0.3,0-0.541,0.082-0.721,0.248c-0.18,0.164-0.318,0.378-0.416,0.641c-0.089,0.241-0.15,0.523-0.184,0.848
			c-0.034,0.323-0.051,0.661-0.051,1.012c0,0.462,0.015,0.844,0.044,1.146s0.102,0.605,0.216,0.91
			c0.097,0.263,0.237,0.471,0.419,0.623s0.413,0.229,0.692,0.229c0.254,0,0.472-0.071,0.654-0.213S185.042,112.126,185.148,111.852z
			"/>
	</g>
</g>
<line fill="#FFFFFF" stroke="#262728" stroke-linecap="round" stroke-miterlimit="10" stroke-dasharray="1,3" x1="77" y1="66.5" x2="122" y2="66.5"/>
</svg>
