<?xml version="1.0" encoding="utf-8"?>
<!-- Generator: Adobe Illustrator 16.0.4, SVG Export Plug-In . SVG Version: 6.00 Build 0)  -->
<!DOCTYPE svg PUBLIC "-//W3C//DTD SVG 1.1//EN" "http://www.w3.org/Graphics/SVG/1.1/DTD/svg11.dtd">
<svg version="1.1" id="Layer_1" xmlns="http://www.w3.org/2000/svg" xmlns:xlink="http://www.w3.org/1999/xlink" x="0px" y="0px"
	 width="199px" height="151px" viewBox="0 0 199 151" enable-background="new 0 0 199 151" xml:space="preserve">
<g>
	<g>
		<path fill="#002A5C" d="M70.616,32H56.114l0.281-1.266c0.363-0.023,0.938-0.082,1.723-0.176c0.785-0.094,1.33-0.188,1.635-0.281
			c0.34-0.105,0.653-0.305,0.94-0.598c0.287-0.293,0.483-0.68,0.589-1.16l3.428-14.818h-4.447l0.368-1.6h0.492
			c1.029,0,1.964-0.111,2.806-0.334c0.842-0.223,1.573-0.492,2.193-0.809c0.631-0.316,1.181-0.659,1.649-1.028
			c0.468-0.369,0.813-0.677,1.035-0.923h3.087c-0.245,0.878-0.486,1.774-0.724,2.688c-0.238,0.913-0.463,1.821-0.672,2.723
			l-3.143,13.589c-0.035,0.141-0.068,0.305-0.097,0.492c-0.029,0.188-0.044,0.34-0.044,0.458c0,0.281,0.062,0.516,0.185,0.703
			c0.123,0.188,0.296,0.347,0.52,0.475c0.258,0.142,0.729,0.271,1.41,0.388c0.681,0.117,1.205,0.188,1.569,0.211L70.616,32z"/>
		<path fill="#002A5C" d="M96.728,17.199c0,4.699-1.74,8.66-5.221,11.883s-8.156,5.215-14.027,5.977l-0.105-1.74l1.931-0.317
			c1.498-0.399,2.794-0.927,3.888-1.584c1.094-0.657,2.027-1.409,2.799-2.255c0.761-0.821,1.418-1.748,1.975-2.781
			c0.556-1.033,1.003-2.055,1.343-3.064c-1.147,0.874-2.247,1.482-3.3,1.824c-1.053,0.343-2.2,0.514-3.44,0.514
			c-1.768,0-3.248-0.624-4.441-1.872c-1.193-1.248-1.791-2.815-1.791-4.702c0-2.754,1.134-5.127,3.401-7.119
			c2.267-1.992,5.042-2.988,8.323-2.988c2.637,0,4.74,0.75,6.311,2.25C95.945,12.725,96.728,14.715,96.728,17.199z M90.541,15.346
			c0-1.533-0.254-2.731-0.763-3.598c-0.508-0.865-1.16-1.299-1.955-1.299c-1.321,0-2.473,0.831-3.455,2.493
			c-0.982,1.661-1.473,3.709-1.473,6.144c0,1.264,0.266,2.276,0.798,3.037c0.531,0.761,1.23,1.141,2.095,1.141
			c0.666,0,1.344-0.144,2.034-0.431c0.69-0.287,1.344-0.794,1.964-1.521c0.082-0.374,0.229-1.056,0.439-2.045
			C90.435,18.279,90.541,16.972,90.541,15.346z"/>
		<path fill="#002A5C" d="M120.415,17.199c0,4.699-1.74,8.66-5.222,11.883c-3.48,3.223-8.155,5.215-14.026,5.977l-0.104-1.74
			l1.931-0.317c1.498-0.399,2.794-0.927,3.888-1.584s2.027-1.409,2.799-2.255c0.762-0.821,1.418-1.748,1.975-2.781
			c0.557-1.033,1.004-2.055,1.344-3.064c-1.146,0.874-2.247,1.482-3.3,1.824c-1.054,0.343-2.2,0.514-3.44,0.514
			c-1.768,0-3.248-0.624-4.441-1.872c-1.192-1.248-1.791-2.815-1.791-4.702c0-2.754,1.135-5.127,3.401-7.119
			c2.267-1.992,5.042-2.988,8.323-2.988c2.637,0,4.74,0.75,6.311,2.25C119.632,12.725,120.415,14.715,120.415,17.199z
			 M114.227,15.346c0-1.533-0.254-2.731-0.763-3.598c-0.508-0.865-1.159-1.299-1.955-1.299c-1.321,0-2.473,0.831-3.454,2.493
			c-0.982,1.661-1.474,3.709-1.474,6.144c0,1.264,0.267,2.276,0.798,3.037c0.531,0.761,1.23,1.141,2.096,1.141
			c0.666,0,1.344-0.144,2.033-0.431c0.69-0.287,1.344-0.794,1.965-1.521c0.082-0.374,0.229-1.056,0.438-2.045
			C114.122,18.279,114.227,16.972,114.227,15.346z"/>
		<path fill="#002A5C" d="M144.014,11.812l-17.975,23.142h-2.979l16.633-20.672h-7.967c-0.949,0-1.738,0.009-2.365,0.026
			s-1.187,0.131-1.678,0.341c-0.375,0.152-0.763,0.52-1.16,1.103c-0.398,0.584-0.814,1.4-1.248,2.45h-1.283l2.004-8.666h18.545
			L144.014,11.812z"/>
	</g>
</g>
<g>
	<g>
		<path fill="#002A5C" d="M18.659,82h-4.907v-0.495c0.228-0.017,0.496-0.06,0.805-0.124c0.308-0.064,0.462-0.146,0.462-0.244
			c0-0.033-0.003-0.072-0.01-0.113c-0.007-0.043-0.024-0.101-0.054-0.172l-0.769-1.867h-3.109c-0.072,0.175-0.151,0.377-0.237,0.609
			c-0.086,0.233-0.161,0.44-0.224,0.623c-0.08,0.236-0.127,0.408-0.142,0.514c-0.015,0.105-0.022,0.181-0.022,0.224
			c0,0.135,0.103,0.25,0.308,0.346c0.205,0.095,0.547,0.164,1.024,0.206V82H8.09v-0.495c0.14-0.009,0.297-0.03,0.473-0.065
			c0.176-0.037,0.314-0.086,0.416-0.149c0.173-0.103,0.32-0.228,0.441-0.375c0.12-0.147,0.221-0.323,0.301-0.526
			c0.491-1.188,0.983-2.38,1.476-3.572c0.493-1.193,1.038-2.51,1.634-3.949h1.27c0.83,2.04,1.479,3.652,1.949,4.838
			c0.47,1.186,0.87,2.166,1.2,2.945c0.055,0.127,0.125,0.242,0.209,0.346s0.205,0.202,0.362,0.295
			c0.119,0.066,0.256,0.118,0.413,0.152c0.157,0.033,0.298,0.055,0.425,0.062V82z M13.926,78.355L12.622,75.1l-1.285,3.256H13.926z"
			/>
		<path fill="#002A5C" d="M25.124,76.865c0,0.32-0.1,0.604-0.298,0.847c-0.198,0.243-0.461,0.365-0.787,0.365
			c-0.309,0-0.57-0.078-0.784-0.233c-0.214-0.156-0.321-0.386-0.321-0.689c0-0.146,0.011-0.262,0.032-0.344s0.04-0.16,0.057-0.23
			c-0.195,0.009-0.4,0.074-0.616,0.201c-0.216,0.126-0.407,0.293-0.572,0.502v3.484c0,0.148,0.023,0.271,0.07,0.368
			c0.047,0.097,0.125,0.175,0.235,0.229c0.093,0.047,0.244,0.086,0.454,0.117c0.209,0.031,0.36,0.05,0.454,0.055V82h-4.247v-0.463
			c0.106-0.01,0.213-0.021,0.32-0.035c0.108-0.016,0.2-0.035,0.276-0.061c0.135-0.047,0.229-0.118,0.279-0.217
			c0.05-0.098,0.076-0.225,0.076-0.381V77.15c0-0.152-0.036-0.289-0.108-0.409c-0.072-0.121-0.159-0.218-0.26-0.289
			c-0.076-0.052-0.172-0.093-0.289-0.127c-0.116-0.034-0.244-0.058-0.384-0.069v-0.464l3.028-0.165l0.095,0.096v0.92h0.025
			c0.292-0.338,0.602-0.604,0.93-0.797c0.328-0.191,0.67-0.289,1.025-0.289c0.394,0,0.71,0.123,0.949,0.365
			C25.004,76.165,25.124,76.479,25.124,76.865z"/>
		<path fill="#002A5C" d="M32.172,76.452c0.313,0.292,0.552,0.642,0.717,1.048s0.248,0.846,0.248,1.32
			c0,0.469-0.082,0.912-0.245,1.328c-0.163,0.418-0.401,0.773-0.714,1.069c-0.334,0.318-0.733,0.562-1.196,0.73
			c-0.464,0.169-0.994,0.254-1.59,0.254c-0.516,0-0.991-0.074-1.425-0.224c-0.434-0.146-0.817-0.369-1.152-0.666
			c-0.322-0.282-0.576-0.633-0.762-1.051c-0.186-0.417-0.279-0.883-0.279-1.398c0-0.508,0.082-0.961,0.245-1.355
			c0.163-0.396,0.407-0.748,0.733-1.057c0.313-0.296,0.699-0.525,1.159-0.688c0.459-0.164,0.972-0.244,1.539-0.244
			c0.592,0,1.114,0.08,1.564,0.244C31.465,75.927,31.851,76.156,32.172,76.452z M30.547,80.852c0.093-0.236,0.162-0.524,0.207-0.862
			c0.044-0.339,0.066-0.732,0.066-1.183c0-0.296-0.021-0.635-0.063-1.016s-0.106-0.682-0.19-0.9
			c-0.102-0.268-0.242-0.477-0.422-0.629s-0.408-0.229-0.683-0.229c-0.3,0-0.541,0.082-0.721,0.248
			c-0.18,0.164-0.318,0.378-0.416,0.641c-0.089,0.241-0.15,0.523-0.184,0.848c-0.034,0.323-0.051,0.662-0.051,1.013
			c0,0.462,0.015,0.844,0.044,1.146c0.029,0.303,0.102,0.605,0.216,0.91c0.097,0.264,0.237,0.471,0.419,0.623
			s0.413,0.229,0.692,0.229c0.254,0,0.472-0.07,0.654-0.213C30.297,81.335,30.441,81.126,30.547,80.852z"/>
		<path fill="#002A5C" d="M46.693,82h-3.771v-0.463c0.092-0.014,0.189-0.023,0.29-0.032s0.185-0.028,0.252-0.063
			c0.092-0.041,0.151-0.112,0.176-0.213c0.025-0.1,0.038-0.228,0.038-0.384v-2.964c0-0.438-0.078-0.764-0.232-0.98
			c-0.154-0.217-0.376-0.327-0.665-0.327c-0.183,0-0.345,0.028-0.487,0.086s-0.272,0.128-0.391,0.213
			c-0.123,0.089-0.219,0.178-0.287,0.267c-0.068,0.09-0.125,0.166-0.172,0.229v3.409c0,0.151,0.018,0.274,0.053,0.371
			c0.036,0.095,0.102,0.17,0.199,0.225c0.067,0.039,0.144,0.072,0.229,0.102c0.086,0.03,0.177,0.051,0.274,0.064V82h-3.605v-0.463
			c0.08-0.01,0.176-0.02,0.29-0.032c0.114-0.012,0.197-0.034,0.252-0.063c0.088-0.047,0.146-0.113,0.173-0.202
			s0.041-0.22,0.041-0.395v-2.964c0-0.438-0.078-0.764-0.232-0.98c-0.154-0.217-0.376-0.327-0.665-0.327
			c-0.183,0-0.345,0.028-0.487,0.086c-0.142,0.058-0.272,0.128-0.391,0.213c-0.123,0.089-0.219,0.178-0.287,0.267
			c-0.068,0.09-0.125,0.166-0.172,0.229v3.409c0,0.146,0.019,0.271,0.057,0.367c0.038,0.098,0.106,0.174,0.203,0.229
			c0.068,0.039,0.145,0.072,0.231,0.102c0.087,0.03,0.179,0.051,0.276,0.064V82H34.08v-0.463c0.11-0.01,0.218-0.02,0.324-0.032
			c0.106-0.012,0.197-0.034,0.273-0.063c0.135-0.051,0.229-0.123,0.279-0.219c0.051-0.096,0.076-0.222,0.076-0.378V77.15
			c0-0.137-0.036-0.269-0.108-0.396c-0.072-0.128-0.159-0.229-0.26-0.302c-0.076-0.052-0.172-0.093-0.289-0.127
			s-0.245-0.058-0.384-0.069v-0.464l3.028-0.165l0.095,0.096v0.896h0.025c0.119-0.104,0.259-0.231,0.422-0.378
			s0.316-0.264,0.46-0.354c0.157-0.102,0.357-0.186,0.603-0.254c0.246-0.066,0.514-0.102,0.806-0.102
			c0.482,0,0.886,0.104,1.209,0.314c0.324,0.209,0.554,0.487,0.689,0.834h0.057c0.123-0.113,0.273-0.248,0.451-0.402
			c0.178-0.154,0.341-0.278,0.489-0.371c0.165-0.105,0.375-0.194,0.632-0.268c0.256-0.072,0.53-0.107,0.822-0.107
			c0.639,0,1.131,0.188,1.476,0.564c0.345,0.377,0.517,0.912,0.517,1.606v3.084c0,0.157,0.023,0.282,0.07,0.378
			c0.046,0.096,0.131,0.169,0.254,0.22c0.068,0.029,0.151,0.06,0.251,0.089c0.099,0.029,0.214,0.051,0.346,0.063V82z"/>
		<path fill="#002A5C" d="M54.675,81.867c-0.186,0.08-0.405,0.154-0.659,0.222c-0.254,0.068-0.522,0.103-0.805,0.103
			c-0.52,0-0.902-0.077-1.146-0.231c-0.245-0.153-0.412-0.376-0.5-0.664h-0.038c-0.144,0.146-0.283,0.269-0.417,0.369
			c-0.134,0.101-0.276,0.188-0.429,0.26c-0.199,0.093-0.391,0.163-0.575,0.209c-0.185,0.048-0.442,0.07-0.772,0.07
			c-0.492,0-0.912-0.146-1.259-0.437c-0.348-0.289-0.521-0.675-0.521-1.152c0-0.275,0.038-0.51,0.114-0.703
			c0.077-0.192,0.185-0.363,0.324-0.512c0.127-0.137,0.274-0.248,0.442-0.338c0.168-0.088,0.351-0.172,0.55-0.248
			c0.381-0.14,0.839-0.283,1.373-0.436c0.534-0.15,0.924-0.284,1.17-0.402v-0.609c0-0.105-0.008-0.245-0.025-0.419
			c-0.017-0.175-0.053-0.319-0.108-0.438c-0.059-0.136-0.152-0.25-0.279-0.344c-0.127-0.093-0.294-0.139-0.502-0.139
			c-0.186,0-0.342,0.025-0.467,0.078c-0.125,0.054-0.225,0.106-0.301,0.162c0.013,0.084,0.049,0.213,0.108,0.388
			c0.06,0.174,0.089,0.341,0.089,0.501c0,0.072-0.019,0.162-0.057,0.271c-0.039,0.107-0.094,0.193-0.166,0.257
			c-0.098,0.086-0.207,0.15-0.328,0.197c-0.121,0.046-0.307,0.069-0.557,0.069c-0.356,0-0.626-0.086-0.808-0.257
			c-0.183-0.172-0.274-0.396-0.274-0.67c0-0.237,0.094-0.449,0.282-0.639c0.188-0.188,0.418-0.344,0.689-0.467
			c0.267-0.127,0.573-0.227,0.92-0.295c0.347-0.07,0.668-0.104,0.965-0.104c0.411,0,0.787,0.022,1.13,0.071
			c0.343,0.05,0.652,0.149,0.927,0.302c0.262,0.148,0.471,0.363,0.625,0.646c0.155,0.28,0.232,0.647,0.232,1.101
			c0,0.479-0.009,1.047-0.029,1.701c-0.019,0.656-0.028,1.088-0.028,1.295c0,0.191,0.028,0.342,0.086,0.451
			c0.057,0.109,0.145,0.191,0.263,0.248c0.072,0.033,0.185,0.055,0.339,0.061c0.155,0.006,0.295,0.01,0.422,0.01V81.867z
			 M51.526,78.561c-0.238,0.08-0.474,0.172-0.707,0.275c-0.234,0.104-0.425,0.214-0.573,0.328c-0.157,0.119-0.28,0.271-0.37,0.455
			s-0.134,0.4-0.134,0.652c0,0.33,0.075,0.569,0.226,0.719c0.151,0.148,0.336,0.223,0.558,0.223c0.233,0,0.426-0.048,0.576-0.145
			c0.151-0.094,0.284-0.213,0.398-0.353L51.526,78.561z"/>
		<path fill="#002A5C" d="M58.918,82.203c-0.588,0-1.108-0.086-1.558-0.258c-0.451-0.172-0.822-0.404-1.114-0.701
			c-0.292-0.301-0.51-0.655-0.654-1.066c-0.144-0.41-0.216-0.855-0.216-1.339c0-0.44,0.088-0.858,0.263-1.257
			c0.176-0.396,0.414-0.747,0.714-1.047c0.309-0.311,0.693-0.557,1.152-0.74s0.966-0.275,1.521-0.275
			c0.779,0,1.395,0.146,1.847,0.44s0.679,0.69,0.679,1.19c0,0.305-0.081,0.55-0.241,0.735c-0.16,0.187-0.438,0.279-0.832,0.279
			c-0.317,0-0.583-0.076-0.796-0.229c-0.214-0.151-0.321-0.352-0.321-0.597c0-0.207,0.034-0.413,0.102-0.616
			c0.068-0.203,0.108-0.356,0.121-0.463c-0.046-0.076-0.106-0.135-0.178-0.175c-0.072-0.04-0.184-0.06-0.336-0.06
			c-0.19,0-0.364,0.043-0.521,0.133c-0.157,0.089-0.303,0.244-0.438,0.47c-0.131,0.212-0.236,0.495-0.314,0.851
			c-0.078,0.355-0.117,0.783-0.117,1.282c0,0.753,0.177,1.36,0.53,1.821c0.353,0.462,0.775,0.691,1.266,0.691
			c0.47,0,0.843-0.104,1.121-0.313c0.277-0.209,0.523-0.507,0.739-0.892l0.476,0.33c-0.131,0.258-0.288,0.494-0.47,0.707
			c-0.182,0.215-0.4,0.403-0.654,0.567c-0.267,0.175-0.538,0.306-0.812,0.396C59.602,82.158,59.282,82.203,58.918,82.203z"/>
		<path fill="#002A5C" d="M70.582,82h-3.815v-0.463c0.084-0.01,0.184-0.02,0.298-0.032c0.114-0.012,0.199-0.034,0.254-0.063
			c0.089-0.047,0.151-0.113,0.188-0.202c0.036-0.089,0.054-0.22,0.054-0.395v-2.971c0-0.437-0.082-0.763-0.244-0.978
			c-0.163-0.217-0.395-0.324-0.695-0.324c-0.169,0-0.327,0.025-0.473,0.076s-0.289,0.125-0.429,0.223
			c-0.123,0.085-0.221,0.172-0.295,0.26c-0.074,0.09-0.137,0.168-0.188,0.235v3.409c0,0.156,0.019,0.279,0.057,0.371
			c0.038,0.09,0.11,0.166,0.216,0.225c0.063,0.039,0.147,0.072,0.25,0.102c0.104,0.03,0.205,0.051,0.302,0.064V82H62.19v-0.463
			c0.111-0.01,0.218-0.02,0.323-0.032c0.104-0.013,0.197-0.034,0.278-0.063c0.136-0.051,0.229-0.123,0.278-0.219
			c0.049-0.096,0.074-0.222,0.074-0.378v-7.077c0-0.136-0.032-0.278-0.095-0.432c-0.063-0.152-0.152-0.268-0.267-0.344
			c-0.084-0.055-0.208-0.098-0.368-0.131c-0.161-0.03-0.305-0.051-0.432-0.06v-0.464l3.161-0.165l0.095,0.103v4.367h0.025
			c0.161-0.145,0.305-0.274,0.434-0.392c0.129-0.117,0.287-0.233,0.472-0.353c0.156-0.102,0.36-0.188,0.612-0.26
			c0.252-0.074,0.523-0.108,0.814-0.108c0.685,0,1.199,0.196,1.543,0.591c0.344,0.395,0.517,0.912,0.517,1.556v3.109
			c0,0.157,0.023,0.282,0.07,0.375c0.047,0.093,0.133,0.167,0.26,0.223c0.076,0.033,0.161,0.062,0.254,0.089
			c0.093,0.025,0.208,0.047,0.343,0.063L70.582,82L70.582,82z"/>
		<path fill="#002A5C" d="M77.777,76.452c0.313,0.292,0.552,0.642,0.717,1.048s0.248,0.846,0.248,1.32
			c0,0.469-0.082,0.912-0.245,1.328c-0.163,0.418-0.401,0.773-0.714,1.069c-0.334,0.318-0.733,0.562-1.196,0.73
			c-0.464,0.169-0.994,0.254-1.59,0.254c-0.516,0-0.991-0.074-1.425-0.224c-0.434-0.146-0.817-0.369-1.152-0.666
			c-0.322-0.282-0.576-0.633-0.762-1.051c-0.186-0.417-0.279-0.883-0.279-1.398c0-0.508,0.082-0.961,0.245-1.355
			c0.163-0.396,0.407-0.748,0.733-1.057c0.313-0.296,0.699-0.525,1.159-0.688c0.459-0.164,0.972-0.244,1.539-0.244
			c0.592,0,1.114,0.08,1.564,0.244C77.069,75.927,77.455,76.156,77.777,76.452z M76.152,80.852c0.093-0.236,0.162-0.524,0.207-0.862
			c0.044-0.339,0.066-0.732,0.066-1.183c0-0.296-0.021-0.635-0.063-1.016s-0.106-0.682-0.19-0.9
			c-0.102-0.268-0.242-0.477-0.422-0.629s-0.408-0.229-0.683-0.229c-0.3,0-0.541,0.082-0.721,0.248
			c-0.18,0.164-0.318,0.378-0.416,0.641c-0.089,0.241-0.15,0.523-0.184,0.848c-0.034,0.323-0.051,0.662-0.051,1.013
			c0,0.462,0.015,0.844,0.044,1.146c0.029,0.303,0.102,0.605,0.216,0.91c0.097,0.264,0.237,0.471,0.419,0.623
			s0.413,0.229,0.692,0.229c0.254,0,0.472-0.07,0.654-0.213C75.902,81.335,76.046,81.126,76.152,80.852z"/>
		<path fill="#002A5C" d="M83.569,82H79.57v-0.463c0.111-0.01,0.218-0.02,0.323-0.032c0.104-0.013,0.197-0.034,0.278-0.063
			c0.136-0.051,0.229-0.123,0.278-0.219c0.049-0.096,0.074-0.222,0.074-0.378v-7.032c0-0.162-0.033-0.311-0.098-0.447
			c-0.066-0.139-0.154-0.242-0.264-0.314c-0.084-0.055-0.213-0.107-0.384-0.158c-0.172-0.052-0.323-0.08-0.454-0.088V72.34
			l3.199-0.165l0.095,0.103v8.486c0,0.156,0.028,0.283,0.083,0.381c0.055,0.098,0.145,0.174,0.269,0.229
			c0.085,0.039,0.174,0.072,0.268,0.102c0.094,0.03,0.205,0.051,0.333,0.064L83.569,82L83.569,82z"/>
		<path fill="#002A5C" d="M90.776,76.452c0.313,0.292,0.552,0.642,0.717,1.048s0.248,0.846,0.248,1.32
			c0,0.469-0.082,0.912-0.245,1.328c-0.163,0.418-0.401,0.773-0.714,1.069c-0.334,0.318-0.733,0.562-1.196,0.73
			c-0.464,0.169-0.994,0.254-1.59,0.254c-0.516,0-0.991-0.074-1.425-0.224c-0.434-0.146-0.817-0.369-1.152-0.666
			c-0.322-0.282-0.576-0.633-0.762-1.051c-0.186-0.417-0.279-0.883-0.279-1.398c0-0.508,0.082-0.961,0.245-1.355
			c0.163-0.396,0.407-0.748,0.733-1.057c0.313-0.296,0.699-0.525,1.159-0.688c0.459-0.164,0.972-0.244,1.539-0.244
			c0.592,0,1.114,0.08,1.564,0.244C90.069,75.927,90.455,76.156,90.776,76.452z M89.151,80.852c0.093-0.236,0.162-0.524,0.207-0.862
			c0.044-0.339,0.066-0.732,0.066-1.183c0-0.296-0.021-0.635-0.063-1.016s-0.106-0.682-0.19-0.9
			c-0.102-0.268-0.242-0.477-0.422-0.629s-0.408-0.229-0.683-0.229c-0.3,0-0.541,0.082-0.721,0.248
			c-0.18,0.164-0.318,0.378-0.416,0.641c-0.089,0.241-0.15,0.523-0.184,0.848c-0.034,0.323-0.051,0.662-0.051,1.013
			c0,0.462,0.015,0.844,0.044,1.146c0.029,0.303,0.102,0.605,0.216,0.91c0.097,0.264,0.237,0.471,0.419,0.623
			s0.413,0.229,0.692,0.229c0.254,0,0.472-0.07,0.654-0.213C88.901,81.335,89.045,81.126,89.151,80.852z"/>
		<path fill="#002A5C" d="M99.799,76.414h-1.396c0.165,0.186,0.289,0.381,0.371,0.587c0.083,0.207,0.124,0.421,0.124,0.646
			c0,0.291-0.078,0.565-0.235,0.821c-0.157,0.257-0.362,0.464-0.616,0.625c-0.258,0.165-0.561,0.294-0.908,0.388
			c-0.347,0.094-0.724,0.14-1.13,0.14h-1.035c-0.051,0.039-0.107,0.1-0.168,0.183c-0.062,0.083-0.092,0.163-0.092,0.239
			c0,0.188,0.074,0.317,0.222,0.392c0.148,0.072,0.417,0.111,0.806,0.121c0.385,0.008,0.774,0.023,1.168,0.047
			c0.394,0.024,0.675,0.037,0.844,0.041c0.246,0.014,0.489,0.062,0.73,0.149c0.241,0.087,0.451,0.199,0.628,0.34
			c0.195,0.147,0.355,0.337,0.482,0.567c0.127,0.23,0.19,0.496,0.19,0.797c0,0.32-0.077,0.624-0.231,0.906
			c-0.155,0.285-0.391,0.529-0.708,0.736c-0.334,0.217-0.735,0.385-1.203,0.502c-0.467,0.118-1.046,0.178-1.736,0.178
			c-1.113,0-1.959-0.135-2.539-0.405c-0.58-0.271-0.87-0.677-0.87-1.22c0-0.334,0.156-0.608,0.469-0.824
			c0.313-0.217,0.799-0.334,1.459-0.355v-0.076c-0.389-0.131-0.692-0.307-0.91-0.524c-0.217-0.218-0.326-0.472-0.326-0.761
			c0-0.178,0.043-0.328,0.13-0.451c0.086-0.123,0.198-0.231,0.333-0.324c0.119-0.081,0.262-0.148,0.432-0.207
			s0.311-0.104,0.425-0.137v-0.07c-0.571-0.212-0.991-0.47-1.26-0.773c-0.269-0.306-0.403-0.678-0.403-1.117
			c0-0.622,0.287-1.119,0.86-1.491c0.574-0.373,1.3-0.56,2.181-0.56c0.288,0,0.566,0.023,0.835,0.072s0.473,0.092,0.612,0.131h2.463
			v0.689H99.799z M97.882,82.959c0-0.145-0.04-0.287-0.121-0.429c-0.08-0.142-0.26-0.257-0.538-0.347
			c-0.152-0.025-0.402-0.043-0.751-0.052c-0.349-0.008-0.827-0.012-1.435-0.012c-0.148,0.127-0.271,0.276-0.371,0.45
			s-0.149,0.383-0.149,0.628c0,0.106,0.03,0.223,0.089,0.35s0.152,0.245,0.279,0.354c0.147,0.123,0.312,0.22,0.494,0.289
			c0.181,0.069,0.456,0.104,0.824,0.104c0.544,0,0.96-0.104,1.248-0.317C97.739,83.77,97.882,83.428,97.882,82.959z M96.822,77.62
			c0-0.495-0.079-0.888-0.236-1.175c-0.157-0.287-0.399-0.432-0.726-0.432c-0.166,0-0.31,0.039-0.433,0.117
			c-0.123,0.078-0.223,0.191-0.299,0.339c-0.072,0.146-0.121,0.312-0.146,0.505c-0.025,0.193-0.038,0.392-0.038,0.594
			c0,0.461,0.081,0.841,0.242,1.137c0.161,0.297,0.391,0.445,0.688,0.445c0.306,0,0.54-0.135,0.704-0.4
			C96.74,78.482,96.822,78.105,96.822,77.62z"/>
		<path fill="#002A5C" d="M104.329,82h-4.013v-0.463c0.11-0.01,0.219-0.02,0.324-0.032c0.106-0.012,0.197-0.034,0.273-0.063
			c0.135-0.051,0.23-0.123,0.286-0.219c0.055-0.096,0.083-0.222,0.083-0.378V77.15c0-0.148-0.034-0.278-0.102-0.392
			c-0.068-0.112-0.152-0.202-0.255-0.27c-0.075-0.052-0.19-0.101-0.346-0.146s-0.295-0.075-0.422-0.088v-0.464l3.11-0.165
			l0.095,0.097v5.038c0,0.148,0.032,0.274,0.095,0.378c0.062,0.104,0.154,0.182,0.273,0.231c0.084,0.039,0.178,0.071,0.279,0.103
			c0.102,0.029,0.207,0.051,0.316,0.063L104.329,82L104.329,82z M103.973,72.732c0,0.189-0.043,0.344-0.13,0.459
			c-0.087,0.117-0.226,0.236-0.416,0.358c-0.208,0.136-0.534,0.327-0.983,0.575c-0.449,0.247-0.957,0.542-1.523,0.886l-0.268-0.241
			c0.373-0.494,0.66-0.891,0.863-1.185s0.379-0.545,0.527-0.752c0.182-0.258,0.355-0.433,0.521-0.522
			c0.166-0.091,0.369-0.138,0.615-0.138c0.203,0,0.387,0.056,0.549,0.165C103.893,72.449,103.973,72.58,103.973,72.732z"/>
		<path fill="#002A5C" d="M112.298,81.867c-0.187,0.08-0.405,0.154-0.659,0.222c-0.254,0.068-0.521,0.103-0.805,0.103
			c-0.52,0-0.902-0.077-1.146-0.231c-0.244-0.153-0.412-0.376-0.5-0.664h-0.037c-0.145,0.146-0.283,0.269-0.418,0.369
			c-0.133,0.101-0.275,0.188-0.428,0.26c-0.199,0.093-0.392,0.163-0.576,0.209c-0.185,0.048-0.441,0.07-0.771,0.07
			c-0.492,0-0.912-0.146-1.259-0.437c-0.349-0.289-0.521-0.675-0.521-1.152c0-0.275,0.038-0.51,0.114-0.703
			c0.077-0.192,0.186-0.363,0.324-0.512c0.127-0.137,0.273-0.248,0.441-0.338c0.168-0.088,0.352-0.172,0.551-0.248
			c0.381-0.14,0.838-0.283,1.373-0.436c0.533-0.15,0.924-0.284,1.17-0.402v-0.609c0-0.105-0.008-0.245-0.025-0.419
			c-0.018-0.175-0.053-0.319-0.107-0.438c-0.06-0.136-0.152-0.25-0.279-0.344c-0.127-0.093-0.295-0.139-0.502-0.139
			c-0.187,0-0.342,0.025-0.467,0.078c-0.125,0.054-0.226,0.106-0.302,0.162c0.013,0.084,0.05,0.213,0.108,0.388
			c0.06,0.174,0.089,0.341,0.089,0.501c0,0.072-0.019,0.162-0.058,0.271c-0.039,0.107-0.094,0.193-0.166,0.257
			c-0.098,0.086-0.207,0.15-0.328,0.197c-0.12,0.046-0.307,0.069-0.557,0.069c-0.355,0-0.625-0.086-0.808-0.257
			c-0.183-0.172-0.274-0.396-0.274-0.67c0-0.237,0.094-0.449,0.282-0.639c0.188-0.188,0.418-0.344,0.688-0.467
			c0.268-0.127,0.574-0.227,0.921-0.295c0.347-0.07,0.668-0.104,0.965-0.104c0.411,0,0.787,0.022,1.13,0.071
			c0.343,0.05,0.652,0.149,0.928,0.302c0.262,0.148,0.471,0.363,0.625,0.646c0.154,0.28,0.231,0.647,0.231,1.101
			c0,0.479-0.009,1.047-0.029,1.701c-0.019,0.656-0.028,1.088-0.028,1.295c0,0.191,0.028,0.342,0.086,0.451s0.146,0.191,0.264,0.248
			c0.072,0.033,0.186,0.055,0.339,0.061c0.155,0.006,0.295,0.01,0.422,0.01V81.867L112.298,81.867z M109.148,78.561
			c-0.237,0.08-0.474,0.172-0.707,0.275s-0.424,0.214-0.572,0.328c-0.157,0.119-0.28,0.271-0.37,0.455s-0.134,0.4-0.134,0.652
			c0,0.33,0.074,0.569,0.226,0.719c0.151,0.148,0.336,0.223,0.558,0.223c0.233,0,0.427-0.048,0.576-0.145
			c0.151-0.094,0.284-0.213,0.398-0.353L109.148,78.561z"/>
		<path fill="#002A5C" d="M115.271,81.777c0,0.305-0.069,0.593-0.207,0.863s-0.295,0.504-0.474,0.698
			c-0.182,0.203-0.375,0.384-0.577,0.539c-0.203,0.156-0.39,0.279-0.56,0.368l-0.292-0.426c0.203-0.127,0.385-0.254,0.546-0.381
			s0.292-0.254,0.394-0.381c0.127-0.147,0.235-0.31,0.324-0.481c0.09-0.175,0.146-0.371,0.172-0.591h-0.324
			c-0.285,0-0.506-0.074-0.664-0.223c-0.158-0.147-0.237-0.348-0.237-0.598c0-0.178,0.071-0.35,0.216-0.518
			c0.145-0.166,0.342-0.25,0.59-0.25c0.364,0,0.637,0.121,0.819,0.365C115.18,81.006,115.271,81.346,115.271,81.777z"/>
		<path fill="#002A5C" d="M126.818,82h-3.061v-0.419c0.098-0.009,0.204-0.017,0.321-0.024c0.116-0.01,0.212-0.025,0.289-0.052
			c0.118-0.038,0.207-0.104,0.263-0.2c0.059-0.095,0.086-0.219,0.086-0.371v-3.219c0-0.443-0.105-0.787-0.314-1.027
			c-0.211-0.242-0.467-0.361-0.768-0.361c-0.225,0-0.431,0.035-0.617,0.104c-0.187,0.07-0.352,0.156-0.496,0.258
			c-0.141,0.098-0.252,0.201-0.334,0.313c-0.084,0.112-0.144,0.202-0.182,0.271v3.6c0,0.145,0.03,0.263,0.09,0.355
			c0.059,0.092,0.147,0.164,0.266,0.215c0.09,0.043,0.186,0.074,0.289,0.097c0.104,0.021,0.211,0.035,0.322,0.044V82h-3.066v-0.419
			c0.097-0.009,0.197-0.017,0.302-0.024c0.104-0.01,0.192-0.025,0.271-0.052c0.119-0.038,0.205-0.104,0.264-0.198
			c0.057-0.097,0.085-0.22,0.085-0.371v-3.861c0-0.145-0.031-0.275-0.093-0.396c-0.061-0.119-0.146-0.219-0.256-0.295
			c-0.082-0.051-0.177-0.087-0.287-0.109c-0.109-0.023-0.229-0.039-0.354-0.049v-0.418l2.082-0.141l0.089,0.089v0.884h0.032
			c0.103-0.103,0.229-0.225,0.381-0.365c0.151-0.142,0.296-0.258,0.433-0.347c0.156-0.102,0.342-0.187,0.559-0.254
			c0.216-0.067,0.459-0.103,0.73-0.103c0.601,0,1.045,0.188,1.336,0.562c0.289,0.374,0.435,0.872,0.435,1.495v3.256
			c0,0.148,0.024,0.269,0.075,0.358c0.052,0.09,0.139,0.162,0.261,0.213c0.103,0.042,0.188,0.072,0.263,0.089
			s0.178,0.029,0.309,0.038V82H126.818z"/>
		<path fill="#002A5C" d="M134.425,81.886l-2.043,0.14l-0.096-0.088v-0.795h-0.038c-0.102,0.106-0.215,0.221-0.342,0.34
			c-0.127,0.121-0.272,0.229-0.438,0.328c-0.189,0.113-0.373,0.2-0.552,0.26c-0.177,0.06-0.429,0.089-0.754,0.089
			c-0.554,0-0.976-0.181-1.265-0.542s-0.434-0.887-0.434-1.575v-2.993c0-0.152-0.029-0.279-0.086-0.384s-0.143-0.192-0.252-0.271
			c-0.077-0.051-0.173-0.086-0.288-0.109c-0.114-0.023-0.235-0.039-0.364-0.049v-0.418l2.088-0.152l0.096,0.089v4.349
			c0,0.453,0.102,0.793,0.305,1.021s0.446,0.343,0.73,0.343c0.232,0,0.439-0.036,0.621-0.106c0.183-0.072,0.334-0.156,0.457-0.254
			c0.115-0.09,0.215-0.184,0.302-0.282c0.087-0.101,0.153-0.191,0.2-0.275v-3.544c0-0.14-0.03-0.264-0.09-0.371
			c-0.059-0.107-0.142-0.199-0.248-0.275c-0.076-0.051-0.188-0.082-0.338-0.092c-0.15-0.012-0.32-0.021-0.506-0.028V75.82
			l2.278-0.152l0.096,0.089v4.966c0,0.144,0.03,0.267,0.089,0.367c0.059,0.102,0.143,0.188,0.248,0.26
			c0.076,0.047,0.168,0.077,0.273,0.092c0.105,0.016,0.222,0.024,0.349,0.029V81.886L134.425,81.886z"/>
		<path fill="#002A5C" d="M140.884,80.527c-0.262,0.498-0.614,0.896-1.054,1.192s-0.946,0.444-1.518,0.444
			c-0.502,0-0.944-0.089-1.324-0.268c-0.377-0.178-0.689-0.418-0.936-0.724c-0.246-0.305-0.428-0.659-0.549-1.065
			c-0.12-0.406-0.181-0.836-0.181-1.289c0-0.405,0.063-0.805,0.192-1.196s0.319-0.743,0.568-1.058
			c0.241-0.301,0.541-0.543,0.898-0.727c0.356-0.186,0.758-0.275,1.203-0.275c0.457,0,0.849,0.071,1.174,0.215
			c0.324,0.145,0.59,0.342,0.793,0.591c0.195,0.237,0.339,0.517,0.435,0.838c0.095,0.321,0.144,0.671,0.144,1.048v0.419h-4.146
			c0,0.411,0.039,0.785,0.118,1.12c0.078,0.335,0.201,0.63,0.371,0.884c0.164,0.246,0.381,0.44,0.646,0.582
			c0.268,0.144,0.584,0.214,0.952,0.214c0.376,0,0.701-0.089,0.976-0.266c0.271-0.176,0.535-0.494,0.789-0.954L140.884,80.527z
			 M139.48,78.141c0-0.235-0.02-0.488-0.06-0.76c-0.041-0.27-0.104-0.495-0.194-0.677c-0.097-0.194-0.229-0.353-0.399-0.476
			c-0.17-0.121-0.388-0.184-0.654-0.184c-0.444,0-0.813,0.186-1.108,0.555c-0.293,0.368-0.453,0.883-0.479,1.541H139.48
			L139.48,78.141z"/>
		<path fill="#002A5C" d="M147.92,76.129c-0.189,0.033-0.371,0.104-0.543,0.206c-0.171,0.104-0.318,0.286-0.441,0.549
			c-0.25,0.567-0.508,1.158-0.773,1.774c-0.268,0.615-0.544,1.262-0.832,1.939c-0.084,0.193-0.176,0.424-0.27,0.69
			c-0.097,0.267-0.184,0.522-0.265,0.769h-0.495c-0.402-0.994-0.771-1.9-1.111-2.721c-0.338-0.818-0.689-1.656-1.053-2.518
			c-0.085-0.193-0.222-0.346-0.41-0.453s-0.377-0.178-0.568-0.206V75.74h2.896v0.443c-0.128,0.004-0.287,0.03-0.477,0.08
			c-0.189,0.049-0.286,0.114-0.286,0.198c0,0.013,0.011,0.046,0.032,0.099c0.021,0.054,0.042,0.113,0.062,0.182
			c0.174,0.432,0.418,1.033,0.734,1.808c0.316,0.773,0.574,1.396,0.771,1.87c0.152-0.363,0.344-0.814,0.574-1.355
			s0.479-1.146,0.746-1.813c0.042-0.114,0.083-0.221,0.121-0.319c0.038-0.1,0.057-0.201,0.057-0.303c0-0.07-0.035-0.136-0.104-0.193
			c-0.07-0.057-0.153-0.105-0.25-0.147c-0.099-0.042-0.192-0.074-0.286-0.097c-0.093-0.021-0.169-0.034-0.229-0.043v-0.406h2.395
			v0.387H147.92z"/>
		<path fill="#002A5C" d="M154.252,81.886c-0.199,0.072-0.374,0.13-0.523,0.175s-0.32,0.066-0.511,0.066
			c-0.329,0-0.593-0.077-0.791-0.23c-0.196-0.154-0.321-0.381-0.377-0.678h-0.038c-0.275,0.305-0.57,0.538-0.885,0.699
			c-0.314,0.16-0.695,0.24-1.141,0.24c-0.469,0-0.855-0.145-1.157-0.432c-0.304-0.287-0.454-0.664-0.454-1.129
			c0-0.242,0.034-0.457,0.102-0.648c0.068-0.189,0.17-0.361,0.306-0.514c0.106-0.127,0.245-0.24,0.419-0.341
			c0.173-0.1,0.336-0.179,0.488-0.237c0.19-0.071,0.578-0.205,1.16-0.399s0.974-0.347,1.176-0.457v-0.628
			c0-0.057-0.012-0.161-0.034-0.318c-0.023-0.156-0.073-0.305-0.149-0.443c-0.084-0.156-0.203-0.293-0.357-0.409
			c-0.155-0.116-0.375-0.175-0.657-0.175c-0.195,0-0.375,0.033-0.543,0.099c-0.167,0.065-0.284,0.135-0.353,0.207
			c0,0.084,0.021,0.209,0.061,0.374c0.041,0.165,0.061,0.316,0.061,0.457c0,0.148-0.066,0.283-0.199,0.406s-0.318,0.185-0.556,0.185
			c-0.211,0-0.366-0.075-0.466-0.226s-0.148-0.318-0.148-0.506c0-0.193,0.068-0.381,0.205-0.559
			c0.139-0.178,0.316-0.336,0.537-0.477c0.19-0.118,0.422-0.219,0.692-0.301c0.271-0.084,0.534-0.125,0.793-0.125
			c0.354,0,0.666,0.024,0.93,0.073c0.265,0.05,0.505,0.153,0.72,0.314c0.217,0.155,0.381,0.368,0.492,0.638
			c0.112,0.27,0.168,0.614,0.168,1.038c0,0.604-0.006,1.142-0.019,1.608s-0.019,0.979-0.019,1.533c0,0.164,0.028,0.295,0.084,0.394
			c0.059,0.098,0.146,0.18,0.265,0.248c0.063,0.036,0.163,0.059,0.302,0.062c0.137,0.006,0.277,0.008,0.422,0.008v0.407H154.252z
			 M152.037,78.534c-0.36,0.106-0.676,0.21-0.946,0.312c-0.271,0.103-0.522,0.229-0.755,0.383c-0.211,0.145-0.379,0.314-0.501,0.512
			c-0.123,0.197-0.185,0.432-0.185,0.703c0,0.353,0.093,0.611,0.276,0.775c0.185,0.165,0.419,0.248,0.702,0.248
			c0.301,0,0.564-0.072,0.793-0.22s0.421-0.317,0.578-0.519L152.037,78.534z"/>
		<path fill="#002A5C" d="M161.202,82h-3.054v-0.419c0.098-0.009,0.201-0.019,0.312-0.028s0.201-0.025,0.272-0.048
			c0.119-0.038,0.209-0.104,0.268-0.2c0.059-0.095,0.089-0.219,0.089-0.371V73.68c0-0.152-0.032-0.296-0.098-0.43
			c-0.066-0.133-0.151-0.238-0.257-0.314c-0.076-0.051-0.217-0.098-0.42-0.14s-0.365-0.067-0.488-0.075v-0.406l2.355-0.141
			l0.088,0.096v8.588c0,0.148,0.027,0.271,0.084,0.365c0.055,0.096,0.144,0.168,0.267,0.219c0.093,0.043,0.185,0.074,0.276,0.097
			c0.09,0.021,0.192,0.035,0.308,0.044V82H161.202z"/>
		<path fill="#002A5C" d="M165.152,82h-3.021v-0.419c0.097-0.009,0.198-0.017,0.302-0.024c0.104-0.01,0.193-0.025,0.271-0.052
			c0.119-0.038,0.206-0.104,0.264-0.198c0.058-0.097,0.085-0.22,0.085-0.371v-3.861c0-0.137-0.031-0.26-0.092-0.371
			c-0.061-0.112-0.146-0.206-0.257-0.282c-0.081-0.051-0.197-0.094-0.349-0.13c-0.152-0.036-0.293-0.059-0.42-0.066v-0.418
			l2.209-0.141l0.09,0.089v5.104c0,0.147,0.027,0.271,0.084,0.367c0.058,0.098,0.146,0.17,0.269,0.217
			c0.093,0.037,0.183,0.067,0.271,0.092c0.089,0.023,0.188,0.039,0.297,0.048V82H165.152z M164.912,72.732
			c0,0.16-0.037,0.291-0.111,0.394s-0.183,0.21-0.326,0.323c-0.211,0.17-0.488,0.386-0.83,0.648
			c-0.34,0.262-0.707,0.547-1.101,0.855l-0.241-0.203c0.381-0.562,0.646-0.96,0.797-1.189c0.149-0.23,0.312-0.485,0.485-0.766
			c0.131-0.216,0.258-0.363,0.381-0.441s0.265-0.117,0.425-0.117c0.152,0,0.277,0.053,0.375,0.156
			C164.864,72.495,164.912,72.609,164.912,72.732z"/>
		<path fill="#002A5C" d="M172.971,82h-3.06v-0.419c0.097-0.009,0.204-0.017,0.321-0.024c0.115-0.01,0.211-0.025,0.289-0.052
			c0.119-0.038,0.207-0.104,0.263-0.2c0.058-0.095,0.086-0.219,0.086-0.371v-3.219c0-0.443-0.104-0.787-0.315-1.027
			c-0.21-0.242-0.466-0.361-0.767-0.361c-0.226,0-0.431,0.035-0.617,0.104c-0.187,0.07-0.353,0.156-0.497,0.258
			c-0.14,0.098-0.251,0.201-0.334,0.313s-0.143,0.202-0.181,0.271v3.6c0,0.145,0.03,0.263,0.089,0.355
			c0.059,0.092,0.148,0.164,0.268,0.215c0.088,0.043,0.185,0.074,0.289,0.097c0.104,0.021,0.211,0.035,0.32,0.044V82h-3.066v-0.419
			c0.098-0.009,0.198-0.017,0.303-0.024c0.104-0.01,0.193-0.025,0.27-0.052c0.119-0.038,0.206-0.104,0.264-0.198
			c0.058-0.097,0.086-0.22,0.086-0.371v-3.861c0-0.145-0.031-0.275-0.092-0.396c-0.062-0.119-0.147-0.219-0.258-0.295
			c-0.081-0.051-0.176-0.087-0.285-0.109c-0.111-0.023-0.229-0.039-0.355-0.049v-0.418l2.082-0.141l0.089,0.089v0.884h0.032
			c0.102-0.103,0.229-0.225,0.381-0.365c0.152-0.142,0.296-0.258,0.432-0.347c0.157-0.102,0.344-0.187,0.559-0.254
			c0.217-0.067,0.459-0.103,0.73-0.103c0.602,0,1.046,0.188,1.336,0.562c0.29,0.374,0.436,0.872,0.436,1.495v3.256
			c0,0.148,0.024,0.269,0.076,0.358c0.051,0.09,0.138,0.162,0.26,0.213c0.102,0.042,0.188,0.072,0.263,0.089
			s0.177,0.029,0.308,0.038V82H172.971z"/>
		<path fill="#002A5C" d="M179.43,80.527c-0.263,0.498-0.615,0.896-1.055,1.192s-0.945,0.444-1.518,0.444
			c-0.502,0-0.944-0.089-1.323-0.268c-0.378-0.178-0.69-0.418-0.937-0.724c-0.246-0.305-0.428-0.659-0.549-1.065
			c-0.119-0.406-0.181-0.836-0.181-1.289c0-0.405,0.063-0.805,0.192-1.196s0.319-0.743,0.568-1.058
			c0.241-0.301,0.541-0.543,0.898-0.727c0.356-0.186,0.758-0.275,1.203-0.275c0.457,0,0.849,0.071,1.174,0.215
			c0.324,0.145,0.59,0.342,0.793,0.591c0.195,0.237,0.339,0.517,0.435,0.838c0.095,0.321,0.144,0.671,0.144,1.048v0.419h-4.146
			c0,0.411,0.039,0.785,0.118,1.12c0.078,0.335,0.202,0.63,0.371,0.884c0.165,0.246,0.381,0.44,0.646,0.582
			c0.268,0.144,0.584,0.214,0.952,0.214c0.376,0,0.701-0.089,0.976-0.266c0.271-0.176,0.535-0.494,0.789-0.954L179.43,80.527z
			 M178.025,78.141c0-0.235-0.02-0.488-0.06-0.76c-0.041-0.27-0.104-0.495-0.194-0.677c-0.097-0.194-0.229-0.353-0.399-0.476
			c-0.17-0.121-0.388-0.184-0.654-0.184c-0.444,0-0.813,0.186-1.108,0.555c-0.293,0.368-0.453,0.883-0.479,1.541H178.025
			L178.025,78.141z"/>
		<path fill="#002A5C" d="M186.211,81.886c-0.199,0.072-0.374,0.13-0.523,0.175s-0.32,0.066-0.511,0.066
			c-0.329,0-0.593-0.077-0.791-0.23c-0.196-0.154-0.321-0.381-0.377-0.678h-0.038c-0.275,0.305-0.57,0.538-0.885,0.699
			c-0.314,0.16-0.695,0.24-1.141,0.24c-0.469,0-0.855-0.145-1.157-0.432c-0.304-0.287-0.454-0.664-0.454-1.129
			c0-0.242,0.034-0.457,0.102-0.648c0.068-0.189,0.17-0.361,0.306-0.514c0.106-0.127,0.245-0.24,0.419-0.341
			c0.173-0.1,0.336-0.179,0.488-0.237c0.19-0.071,0.578-0.205,1.16-0.399s0.974-0.347,1.176-0.457v-0.628
			c0-0.057-0.012-0.161-0.034-0.318c-0.023-0.156-0.073-0.305-0.149-0.443c-0.084-0.156-0.203-0.293-0.357-0.409
			c-0.155-0.116-0.375-0.175-0.657-0.175c-0.195,0-0.375,0.033-0.543,0.099c-0.167,0.065-0.284,0.135-0.353,0.207
			c0,0.084,0.021,0.209,0.061,0.374c0.041,0.165,0.061,0.316,0.061,0.457c0,0.148-0.066,0.283-0.199,0.406s-0.318,0.185-0.556,0.185
			c-0.211,0-0.366-0.075-0.466-0.226s-0.148-0.318-0.148-0.506c0-0.193,0.068-0.381,0.205-0.559
			c0.139-0.178,0.316-0.336,0.537-0.477c0.19-0.118,0.422-0.219,0.692-0.301c0.271-0.084,0.534-0.125,0.793-0.125
			c0.354,0,0.666,0.024,0.93,0.073c0.265,0.05,0.505,0.153,0.72,0.314c0.217,0.155,0.381,0.368,0.492,0.638
			c0.112,0.27,0.168,0.614,0.168,1.038c0,0.604-0.006,1.142-0.019,1.608s-0.019,0.979-0.019,1.533c0,0.164,0.028,0.295,0.084,0.394
			c0.059,0.098,0.146,0.18,0.265,0.248c0.063,0.036,0.164,0.059,0.302,0.062c0.137,0.006,0.278,0.008,0.422,0.008v0.407H186.211z
			 M183.996,78.534c-0.36,0.106-0.676,0.21-0.946,0.312c-0.271,0.103-0.522,0.229-0.755,0.383c-0.211,0.145-0.379,0.314-0.501,0.512
			c-0.123,0.197-0.185,0.432-0.185,0.703c0,0.353,0.093,0.611,0.276,0.775c0.185,0.165,0.419,0.248,0.702,0.248
			c0.301,0,0.564-0.072,0.793-0.22s0.421-0.317,0.578-0.519L183.996,78.534z"/>
		<path fill="#002A5C" d="M14.027,97.484c-0.199,0.072-0.374,0.131-0.523,0.176c-0.15,0.044-0.321,0.066-0.511,0.066
			c-0.33,0-0.593-0.078-0.791-0.231c-0.196-0.154-0.322-0.38-0.377-0.677h-0.038c-0.275,0.305-0.57,0.537-0.885,0.699
			c-0.315,0.159-0.695,0.239-1.14,0.239c-0.47,0-0.856-0.144-1.158-0.432c-0.303-0.287-0.454-0.664-0.454-1.13
			c0-0.241,0.034-0.456,0.102-0.647c0.068-0.188,0.169-0.36,0.305-0.514c0.106-0.127,0.246-0.24,0.419-0.341
			c0.173-0.1,0.336-0.178,0.489-0.237c0.19-0.071,0.577-0.205,1.159-0.399c0.582-0.193,0.974-0.347,1.177-0.457v-0.627
			c0-0.057-0.012-0.162-0.035-0.318s-0.073-0.305-0.149-0.443c-0.084-0.156-0.204-0.294-0.358-0.41
			c-0.155-0.115-0.374-0.174-0.657-0.174c-0.195,0-0.375,0.032-0.543,0.098c-0.167,0.065-0.284,0.135-0.352,0.207
			c0,0.084,0.02,0.209,0.06,0.375c0.041,0.164,0.061,0.316,0.061,0.457c0,0.147-0.066,0.282-0.2,0.405
			c-0.133,0.123-0.318,0.185-0.555,0.185c-0.211,0-0.367-0.074-0.466-0.226c-0.1-0.149-0.149-0.317-0.149-0.505
			c0-0.193,0.069-0.381,0.206-0.559c0.138-0.179,0.316-0.336,0.537-0.478c0.19-0.118,0.421-0.219,0.692-0.301
			c0.271-0.083,0.535-0.124,0.793-0.124c0.355,0,0.666,0.023,0.93,0.072c0.264,0.05,0.504,0.154,0.72,0.314
			c0.216,0.156,0.38,0.369,0.492,0.639c0.112,0.269,0.168,0.613,0.168,1.037c0,0.604-0.006,1.142-0.019,1.608
			s-0.019,0.979-0.019,1.533c0,0.165,0.029,0.296,0.085,0.394c0.058,0.098,0.145,0.18,0.264,0.248
			c0.063,0.037,0.164,0.059,0.302,0.062c0.137,0.005,0.278,0.007,0.422,0.007v0.407H14.027z M11.812,94.134
			c-0.36,0.106-0.675,0.21-0.946,0.312c-0.271,0.103-0.522,0.229-0.755,0.383C9.9,94.973,9.732,95.143,9.61,95.34
			c-0.123,0.197-0.184,0.432-0.184,0.703c0,0.354,0.092,0.611,0.276,0.775c0.185,0.166,0.418,0.248,0.702,0.248
			c0.3,0,0.565-0.072,0.793-0.219c0.228-0.147,0.421-0.318,0.578-0.52L11.812,94.134z"/>
		<path fill="#002A5C" d="M17.711,97.6h-3.053v-0.418c0.097-0.01,0.201-0.019,0.311-0.029c0.11-0.01,0.201-0.025,0.273-0.047
			c0.119-0.039,0.208-0.104,0.267-0.2c0.059-0.095,0.089-0.22,0.089-0.372v-7.254c0-0.152-0.033-0.295-0.098-0.43
			c-0.066-0.133-0.151-0.238-0.257-0.313c-0.076-0.052-0.216-0.099-0.419-0.14c-0.203-0.043-0.366-0.067-0.489-0.076v-0.406
			l2.355-0.141l0.089,0.097v8.588c0,0.147,0.027,0.271,0.083,0.365c0.055,0.095,0.144,0.168,0.267,0.219
			c0.093,0.042,0.185,0.074,0.276,0.097c0.091,0.021,0.193,0.034,0.308,0.043V97.6H17.711z"/>
		<path fill="#002A5C" d="M23.421,92.146c0,0.217-0.053,0.408-0.159,0.574c-0.106,0.168-0.269,0.252-0.489,0.252
			c-0.237,0-0.418-0.062-0.542-0.186c-0.125-0.123-0.188-0.258-0.188-0.406c0-0.093,0.007-0.178,0.022-0.254
			s0.028-0.152,0.041-0.229c-0.199,0-0.432,0.08-0.698,0.24c-0.266,0.161-0.493,0.391-0.679,0.687v3.644
			c0,0.148,0.029,0.27,0.085,0.362c0.058,0.093,0.147,0.162,0.27,0.209c0.106,0.042,0.242,0.074,0.41,0.096
			c0.167,0.021,0.312,0.035,0.435,0.044v0.42h-3.301v-0.42c0.097-0.009,0.198-0.017,0.302-0.024c0.104-0.009,0.193-0.025,0.27-0.052
			c0.119-0.037,0.206-0.104,0.264-0.198c0.057-0.097,0.085-0.22,0.085-0.371v-3.861c0-0.131-0.031-0.26-0.092-0.387
			S19.31,92.057,19.2,91.98c-0.081-0.051-0.176-0.086-0.286-0.109s-0.229-0.039-0.355-0.048v-0.419l2.082-0.141l0.089,0.09v0.883
			h0.032c0.262-0.344,0.554-0.604,0.876-0.781c0.322-0.178,0.616-0.268,0.882-0.268s0.483,0.088,0.651,0.262
			C23.337,91.622,23.421,91.855,23.421,92.146z"/>
		<path fill="#002A5C" d="M29.645,96.127c-0.262,0.499-0.614,0.896-1.054,1.193c-0.44,0.296-0.946,0.443-1.517,0.443
			c-0.503,0-0.945-0.089-1.324-0.267c-0.378-0.179-0.69-0.419-0.936-0.724c-0.246-0.306-0.428-0.66-0.549-1.066
			c-0.12-0.406-0.181-0.836-0.181-1.288c0-0.405,0.064-0.806,0.193-1.196c0.129-0.393,0.319-0.744,0.568-1.058
			c0.241-0.301,0.541-0.543,0.898-0.728s0.758-0.275,1.203-0.275c0.457,0,0.849,0.072,1.174,0.216
			c0.325,0.144,0.59,0.341,0.793,0.59c0.195,0.237,0.339,0.517,0.435,0.839c0.095,0.321,0.143,0.67,0.143,1.047v0.42h-4.145
			c0,0.41,0.039,0.785,0.118,1.119c0.078,0.336,0.202,0.631,0.371,0.885c0.165,0.246,0.381,0.439,0.647,0.582
			c0.267,0.143,0.584,0.213,0.952,0.213c0.376,0,0.701-0.088,0.975-0.266c0.272-0.176,0.536-0.494,0.79-0.953L29.645,96.127z
			 M28.242,93.74c0-0.236-0.02-0.489-0.06-0.76c-0.041-0.271-0.105-0.496-0.194-0.678c-0.097-0.193-0.23-0.353-0.4-0.475
			s-0.387-0.184-0.654-0.184c-0.444,0-0.813,0.185-1.108,0.554c-0.294,0.368-0.454,0.883-0.479,1.541L28.242,93.74L28.242,93.74z"/>
		<path fill="#002A5C" d="M37.354,97.484l-2.189,0.141l-0.096-0.089v-0.584l-0.051-0.013c-0.22,0.244-0.491,0.445-0.814,0.604
			c-0.323,0.156-0.656,0.234-0.999,0.234c-0.355,0-0.698-0.079-1.03-0.238c-0.332-0.158-0.621-0.382-0.865-0.67
			c-0.25-0.291-0.447-0.643-0.593-1.053c-0.146-0.411-0.219-0.863-0.219-1.359c0-0.452,0.078-0.882,0.234-1.288
			c0.156-0.405,0.372-0.762,0.647-1.065c0.257-0.283,0.573-0.511,0.947-0.68c0.374-0.17,0.755-0.254,1.144-0.254
			c0.292,0,0.578,0.036,0.859,0.11c0.281,0.073,0.522,0.169,0.726,0.282v-2.182c0-0.179-0.03-0.341-0.089-0.486
			c-0.059-0.146-0.142-0.258-0.248-0.334c-0.119-0.08-0.278-0.14-0.479-0.176c-0.201-0.035-0.418-0.062-0.651-0.078v-0.395
			l2.564-0.141l0.095,0.096v8.438c0,0.147,0.028,0.273,0.086,0.377c0.057,0.104,0.141,0.191,0.25,0.264
			c0.081,0.052,0.197,0.082,0.349,0.096c0.152,0.014,0.292,0.021,0.419,0.025v0.418H37.354z M35.056,96.387v-3.662
			c-0.034-0.109-0.089-0.229-0.165-0.354c-0.076-0.127-0.171-0.243-0.285-0.351c-0.123-0.104-0.266-0.192-0.431-0.263
			c-0.165-0.069-0.356-0.104-0.576-0.104c-0.253,0-0.487,0.065-0.7,0.197c-0.213,0.131-0.402,0.318-0.567,0.564
			c-0.156,0.236-0.28,0.538-0.371,0.904c-0.091,0.365-0.136,0.771-0.136,1.215c0,0.355,0.034,0.679,0.102,0.969
			c0.067,0.29,0.182,0.561,0.342,0.809c0.148,0.237,0.337,0.429,0.567,0.572c0.23,0.145,0.504,0.215,0.821,0.215
			c0.338,0,0.618-0.072,0.839-0.222C34.717,96.727,34.904,96.564,35.056,96.387z"/>
		<path fill="#002A5C" d="M43.654,96.127c-0.262,0.499-0.614,0.896-1.054,1.193c-0.44,0.296-0.946,0.443-1.517,0.443
			c-0.503,0-0.945-0.089-1.324-0.267c-0.378-0.179-0.69-0.419-0.936-0.724c-0.246-0.306-0.428-0.66-0.549-1.066
			c-0.12-0.406-0.181-0.836-0.181-1.288c0-0.405,0.064-0.806,0.193-1.196c0.129-0.393,0.319-0.744,0.568-1.058
			c0.241-0.301,0.541-0.543,0.898-0.728s0.758-0.275,1.203-0.275c0.457,0,0.849,0.072,1.174,0.216
			c0.325,0.144,0.59,0.341,0.793,0.59c0.195,0.237,0.339,0.517,0.435,0.839c0.095,0.321,0.143,0.67,0.143,1.047v0.42h-4.145
			c0,0.41,0.039,0.785,0.118,1.119c0.078,0.336,0.202,0.631,0.371,0.885c0.165,0.246,0.381,0.439,0.647,0.582
			c0.267,0.143,0.584,0.213,0.952,0.213c0.376,0,0.701-0.088,0.975-0.266c0.272-0.176,0.536-0.494,0.79-0.953L43.654,96.127z
			 M42.251,93.74c0-0.236-0.02-0.489-0.06-0.76c-0.041-0.271-0.105-0.496-0.194-0.678c-0.097-0.193-0.23-0.353-0.4-0.475
			c-0.17-0.122-0.387-0.184-0.654-0.184c-0.444,0-0.813,0.185-1.108,0.554c-0.294,0.368-0.454,0.883-0.479,1.541L42.251,93.74
			L42.251,93.74z"/>
		<path fill="#002A5C" d="M51.363,97.484l-2.189,0.141l-0.096-0.089v-0.584l-0.051-0.013c-0.22,0.244-0.491,0.445-0.814,0.604
			c-0.323,0.156-0.656,0.234-0.999,0.234c-0.355,0-0.698-0.079-1.03-0.238c-0.332-0.158-0.621-0.382-0.865-0.67
			c-0.25-0.291-0.447-0.643-0.593-1.053c-0.146-0.411-0.219-0.863-0.219-1.359c0-0.452,0.078-0.882,0.234-1.288
			c0.156-0.405,0.372-0.762,0.647-1.065c0.257-0.283,0.573-0.511,0.947-0.68c0.374-0.17,0.755-0.254,1.144-0.254
			c0.292,0,0.578,0.036,0.859,0.11c0.281,0.073,0.522,0.169,0.726,0.282v-2.182c0-0.179-0.03-0.341-0.089-0.486
			c-0.059-0.146-0.142-0.258-0.248-0.334c-0.119-0.08-0.278-0.14-0.479-0.176c-0.201-0.035-0.418-0.062-0.651-0.078v-0.395
			l2.564-0.141l0.095,0.096v8.438c0,0.147,0.028,0.273,0.086,0.377c0.057,0.104,0.141,0.191,0.25,0.264
			c0.081,0.052,0.197,0.082,0.349,0.096s0.292,0.021,0.419,0.025v0.418H51.363z M49.065,96.387v-3.662
			c-0.034-0.109-0.089-0.229-0.165-0.354c-0.076-0.127-0.171-0.243-0.285-0.351c-0.123-0.104-0.266-0.192-0.431-0.263
			c-0.165-0.069-0.356-0.104-0.576-0.104c-0.253,0-0.487,0.065-0.7,0.197c-0.213,0.131-0.402,0.318-0.567,0.564
			c-0.156,0.236-0.28,0.538-0.371,0.904c-0.091,0.365-0.136,0.771-0.136,1.215c0,0.355,0.034,0.679,0.102,0.969
			c0.067,0.29,0.182,0.561,0.342,0.809c0.148,0.237,0.337,0.429,0.567,0.572c0.23,0.145,0.504,0.215,0.821,0.215
			c0.338,0,0.618-0.072,0.839-0.222C48.726,96.727,48.913,96.564,49.065,96.387z"/>
		<path fill="#002A5C" d="M58.209,94.406c0,0.439-0.07,0.873-0.209,1.299c-0.14,0.425-0.339,0.786-0.598,1.082
			c-0.292,0.339-0.631,0.59-1.017,0.756C56,97.707,55.568,97.79,55.089,97.79c-0.398,0-0.777-0.075-1.137-0.226
			c-0.36-0.151-0.68-0.369-0.959-0.656c-0.275-0.284-0.495-0.631-0.658-1.038c-0.163-0.408-0.245-0.866-0.245-1.374
			c0-0.979,0.285-1.777,0.854-2.4c0.57-0.621,1.316-0.933,2.24-0.933c0.876,0,1.6,0.295,2.17,0.886
			C57.924,92.639,58.209,93.425,58.209,94.406z M56.895,94.42c0-0.318-0.032-0.652-0.095-1.007
			c-0.064-0.354-0.159-0.652-0.286-0.897c-0.136-0.263-0.314-0.474-0.534-0.632c-0.221-0.159-0.49-0.237-0.808-0.237
			c-0.327,0-0.605,0.08-0.836,0.24c-0.231,0.161-0.418,0.381-0.563,0.66c-0.135,0.258-0.231,0.553-0.286,0.883
			c-0.055,0.33-0.083,0.649-0.083,0.959c0,0.405,0.033,0.781,0.099,1.127c0.065,0.344,0.17,0.651,0.315,0.922
			c0.144,0.271,0.325,0.484,0.543,0.64c0.218,0.155,0.489,0.231,0.811,0.231c0.53,0,0.949-0.257,1.259-0.77
			C56.74,96.027,56.895,95.32,56.895,94.42z"/>
		<path fill="#002A5C" d="M64.033,92.146c0,0.217-0.053,0.408-0.159,0.574c-0.106,0.168-0.269,0.252-0.489,0.252
			c-0.237,0-0.418-0.062-0.542-0.186c-0.125-0.123-0.188-0.258-0.188-0.406c0-0.093,0.007-0.178,0.022-0.254
			c0.015-0.076,0.028-0.152,0.041-0.229c-0.199,0-0.432,0.08-0.698,0.24c-0.266,0.161-0.493,0.391-0.679,0.687v3.644
			c0,0.148,0.029,0.27,0.085,0.362c0.058,0.093,0.147,0.162,0.27,0.209c0.106,0.042,0.242,0.074,0.41,0.096
			c0.167,0.021,0.312,0.035,0.435,0.044v0.42H59.24v-0.42c0.097-0.009,0.198-0.017,0.302-0.024c0.104-0.009,0.193-0.025,0.27-0.052
			c0.119-0.037,0.206-0.104,0.264-0.198c0.057-0.097,0.085-0.22,0.085-0.371v-3.861c0-0.131-0.031-0.26-0.092-0.387
			s-0.147-0.229-0.257-0.306c-0.081-0.051-0.176-0.086-0.286-0.109c-0.11-0.023-0.229-0.039-0.355-0.048v-0.419l2.082-0.141
			l0.089,0.09v0.883h0.032c0.262-0.344,0.554-0.604,0.876-0.781c0.322-0.178,0.616-0.268,0.882-0.268
			c0.266,0,0.483,0.088,0.651,0.262C63.949,91.622,64.033,91.855,64.033,92.146z"/>
		<path fill="#002A5C" d="M74.817,97.484l-2.189,0.141l-0.096-0.089v-0.584l-0.051-0.013c-0.22,0.244-0.491,0.445-0.814,0.604
			c-0.323,0.156-0.656,0.234-0.999,0.234c-0.355,0-0.698-0.079-1.03-0.238c-0.332-0.158-0.621-0.382-0.865-0.67
			c-0.25-0.291-0.447-0.643-0.593-1.053c-0.146-0.411-0.219-0.863-0.219-1.359c0-0.452,0.078-0.882,0.234-1.288
			c0.156-0.405,0.372-0.762,0.647-1.065c0.257-0.283,0.573-0.511,0.947-0.68c0.374-0.17,0.755-0.254,1.144-0.254
			c0.292,0,0.578,0.036,0.859,0.11c0.281,0.073,0.522,0.169,0.726,0.282v-2.182c0-0.179-0.03-0.341-0.089-0.486
			c-0.059-0.146-0.142-0.258-0.248-0.334c-0.119-0.08-0.278-0.14-0.479-0.176c-0.201-0.035-0.418-0.062-0.651-0.078v-0.395
			l2.564-0.141l0.095,0.096v8.438c0,0.147,0.028,0.273,0.086,0.377c0.057,0.104,0.141,0.191,0.25,0.264
			c0.081,0.052,0.197,0.082,0.349,0.096s0.292,0.021,0.419,0.025v0.418H74.817z M72.519,96.387v-3.662
			c-0.034-0.109-0.089-0.229-0.165-0.354c-0.076-0.127-0.171-0.243-0.285-0.351c-0.123-0.104-0.266-0.192-0.431-0.263
			c-0.165-0.069-0.356-0.104-0.576-0.104c-0.253,0-0.487,0.065-0.7,0.197c-0.213,0.131-0.402,0.318-0.567,0.564
			c-0.156,0.236-0.28,0.538-0.371,0.904c-0.091,0.365-0.136,0.771-0.136,1.215c0,0.355,0.034,0.679,0.102,0.969
			c0.067,0.29,0.182,0.561,0.342,0.809c0.148,0.237,0.337,0.429,0.567,0.572c0.23,0.145,0.504,0.215,0.821,0.215
			c0.338,0,0.618-0.072,0.839-0.222S72.367,96.564,72.519,96.387z"/>
		<path fill="#002A5C" d="M81.117,96.127c-0.262,0.499-0.614,0.896-1.054,1.193c-0.44,0.296-0.946,0.443-1.517,0.443
			c-0.503,0-0.945-0.089-1.324-0.267c-0.378-0.179-0.69-0.419-0.936-0.724c-0.246-0.306-0.428-0.66-0.549-1.066
			c-0.12-0.406-0.181-0.836-0.181-1.288c0-0.405,0.064-0.806,0.193-1.196c0.129-0.393,0.319-0.744,0.568-1.058
			c0.241-0.301,0.541-0.543,0.898-0.728s0.758-0.275,1.203-0.275c0.457,0,0.849,0.072,1.174,0.216
			c0.325,0.144,0.59,0.341,0.793,0.59c0.195,0.237,0.339,0.517,0.435,0.839c0.095,0.321,0.143,0.67,0.143,1.047v0.42H76.82
			c0,0.41,0.039,0.785,0.118,1.119c0.078,0.336,0.202,0.631,0.371,0.885c0.165,0.246,0.381,0.439,0.647,0.582
			c0.267,0.143,0.584,0.213,0.952,0.213c0.376,0,0.701-0.088,0.975-0.266c0.272-0.176,0.536-0.494,0.79-0.953L81.117,96.127z
			 M79.714,93.74c0-0.236-0.02-0.489-0.06-0.76c-0.041-0.271-0.105-0.496-0.194-0.678c-0.097-0.193-0.23-0.353-0.4-0.475
			s-0.387-0.184-0.654-0.184c-0.444,0-0.813,0.185-1.108,0.554c-0.294,0.368-0.454,0.883-0.479,1.541L79.714,93.74L79.714,93.74z"/>
		<path fill="#002A5C" d="M91.165,97.484c-0.199,0.072-0.374,0.131-0.523,0.176c-0.15,0.044-0.321,0.066-0.511,0.066
			c-0.33,0-0.593-0.078-0.791-0.231c-0.196-0.154-0.322-0.38-0.377-0.677h-0.038c-0.275,0.305-0.57,0.537-0.885,0.699
			c-0.315,0.159-0.695,0.239-1.14,0.239c-0.47,0-0.856-0.144-1.158-0.432c-0.303-0.287-0.454-0.664-0.454-1.13
			c0-0.241,0.034-0.456,0.102-0.647c0.068-0.188,0.169-0.36,0.305-0.514c0.106-0.127,0.246-0.24,0.419-0.341
			c0.173-0.1,0.336-0.178,0.489-0.237c0.19-0.071,0.577-0.205,1.159-0.399c0.582-0.193,0.974-0.347,1.177-0.457v-0.627
			c0-0.057-0.012-0.162-0.035-0.318s-0.073-0.305-0.149-0.443c-0.084-0.156-0.204-0.294-0.358-0.41
			c-0.155-0.115-0.374-0.174-0.657-0.174c-0.195,0-0.375,0.032-0.543,0.098c-0.167,0.065-0.284,0.135-0.352,0.207
			c0,0.084,0.02,0.209,0.06,0.375c0.041,0.164,0.061,0.316,0.061,0.457c0,0.147-0.066,0.282-0.2,0.405
			c-0.133,0.123-0.318,0.185-0.555,0.185c-0.211,0-0.367-0.074-0.466-0.226c-0.1-0.149-0.149-0.317-0.149-0.505
			c0-0.193,0.069-0.381,0.206-0.559c0.138-0.179,0.316-0.336,0.537-0.478c0.19-0.118,0.421-0.219,0.692-0.301
			c0.271-0.083,0.535-0.124,0.793-0.124c0.355,0,0.666,0.023,0.93,0.072c0.264,0.05,0.504,0.154,0.72,0.314
			c0.216,0.156,0.38,0.369,0.492,0.639c0.112,0.269,0.168,0.613,0.168,1.037c0,0.604-0.006,1.142-0.019,1.608
			c-0.013,0.467-0.019,0.979-0.019,1.533c0,0.165,0.029,0.296,0.085,0.394c0.058,0.098,0.145,0.18,0.264,0.248
			c0.063,0.037,0.164,0.059,0.302,0.062c0.137,0.005,0.278,0.007,0.422,0.007v0.407H91.165z M88.95,94.134
			c-0.36,0.106-0.675,0.21-0.946,0.312c-0.271,0.103-0.522,0.229-0.755,0.383c-0.211,0.145-0.379,0.314-0.501,0.512
			c-0.123,0.197-0.184,0.432-0.184,0.703c0,0.354,0.092,0.611,0.276,0.775c0.185,0.166,0.418,0.248,0.702,0.248
			c0.3,0,0.565-0.072,0.793-0.219c0.228-0.147,0.421-0.318,0.578-0.52L88.95,94.134z"/>
		<path fill="#002A5C" d="M94.812,97.766c-0.906,0-1.614-0.302-2.126-0.901c-0.512-0.601-0.768-1.407-0.768-2.419
			c0-0.439,0.069-0.853,0.206-1.234c0.138-0.383,0.338-0.73,0.6-1.044c0.25-0.301,0.563-0.543,0.939-0.728s0.787-0.275,1.231-0.275
			c0.614,0,1.113,0.146,1.498,0.441c0.385,0.293,0.578,0.693,0.578,1.201c0,0.213-0.051,0.399-0.152,0.562s-0.269,0.244-0.501,0.244
			c-0.25,0-0.443-0.063-0.581-0.189c-0.138-0.127-0.207-0.269-0.207-0.424c0-0.189,0.025-0.386,0.076-0.586
			c0.051-0.2,0.081-0.348,0.089-0.439c-0.076-0.131-0.189-0.219-0.339-0.263s-0.311-0.065-0.484-0.065
			c-0.203,0-0.396,0.043-0.579,0.129c-0.183,0.088-0.362,0.248-0.535,0.479c-0.156,0.212-0.283,0.497-0.38,0.856
			S93.231,93.9,93.231,94.4c0,0.787,0.174,1.43,0.523,1.927s0.806,0.745,1.372,0.745c0.41,0,0.753-0.1,1.03-0.301
			c0.277-0.198,0.534-0.498,0.77-0.898l0.406,0.268c-0.279,0.498-0.647,0.896-1.104,1.187C95.77,97.619,95.298,97.766,94.812,97.766
			z"/>
		<path fill="#002A5C" d="M103.512,96.127c-0.263,0.499-0.615,0.896-1.055,1.193c-0.439,0.296-0.945,0.443-1.518,0.443
			c-0.502,0-0.944-0.089-1.323-0.267c-0.378-0.179-0.69-0.419-0.936-0.724c-0.246-0.306-0.428-0.66-0.549-1.066
			c-0.12-0.406-0.181-0.836-0.181-1.288c0-0.405,0.064-0.806,0.193-1.196c0.129-0.393,0.319-0.744,0.568-1.058
			c0.241-0.301,0.541-0.543,0.898-0.728s0.758-0.275,1.204-0.275c0.457,0,0.849,0.072,1.174,0.216
			c0.324,0.144,0.59,0.341,0.793,0.59c0.195,0.237,0.339,0.517,0.435,0.839c0.095,0.321,0.144,0.67,0.144,1.047v0.42h-4.146
			c0,0.41,0.039,0.785,0.118,1.119c0.078,0.336,0.202,0.631,0.371,0.885c0.165,0.246,0.381,0.439,0.646,0.582
			c0.268,0.143,0.584,0.213,0.952,0.213c0.376,0,0.701-0.088,0.976-0.266c0.271-0.176,0.535-0.494,0.789-0.953L103.512,96.127z
			 M102.107,93.74c0-0.236-0.02-0.489-0.06-0.76c-0.041-0.271-0.104-0.496-0.194-0.678c-0.097-0.193-0.229-0.353-0.399-0.475
			s-0.388-0.184-0.654-0.184c-0.444,0-0.813,0.185-1.108,0.554c-0.294,0.368-0.454,0.883-0.479,1.541L102.107,93.74L102.107,93.74z"
			/>
		<path fill="#002A5C" d="M107.398,97.6h-3.021v-0.418c0.097-0.01,0.198-0.018,0.302-0.025c0.104-0.01,0.193-0.025,0.271-0.051
			c0.118-0.039,0.206-0.104,0.264-0.199c0.058-0.096,0.085-0.219,0.085-0.371v-3.861c0-0.136-0.031-0.259-0.092-0.371
			c-0.061-0.111-0.146-0.205-0.257-0.281c-0.081-0.052-0.197-0.095-0.349-0.131c-0.152-0.035-0.293-0.058-0.42-0.065v-0.419
			l2.209-0.141l0.09,0.09v5.104c0,0.148,0.027,0.271,0.084,0.368c0.058,0.097,0.146,0.169,0.269,0.216
			c0.092,0.038,0.183,0.068,0.271,0.092c0.088,0.024,0.188,0.039,0.297,0.049V97.6H107.398z M106.605,88.795
			c0,0.242-0.08,0.452-0.238,0.632c-0.159,0.181-0.354,0.271-0.588,0.271c-0.215,0-0.402-0.087-0.562-0.259
			c-0.157-0.17-0.237-0.366-0.237-0.586c0-0.232,0.08-0.437,0.237-0.609c0.159-0.174,0.347-0.262,0.562-0.262
			c0.242,0,0.439,0.082,0.594,0.246C106.527,88.391,106.605,88.58,106.605,88.795z"/>
		<path fill="#002A5C" d="M112.169,97.326c-0.274,0.115-0.535,0.211-0.78,0.289c-0.246,0.078-0.547,0.117-0.902,0.117
			c-0.524,0-0.894-0.133-1.106-0.396c-0.214-0.266-0.321-0.638-0.321-1.12v-4.239h-1.129v-0.609h1.154v-1.948h1.154v1.948h1.797
			v0.609h-1.784v3.496c0,0.264,0.009,0.481,0.028,0.657c0.02,0.177,0.064,0.329,0.137,0.46c0.068,0.123,0.169,0.217,0.305,0.279
			c0.135,0.064,0.317,0.096,0.547,0.096c0.105,0,0.26-0.01,0.465-0.027c0.207-0.021,0.352-0.045,0.436-0.073L112.169,97.326
			L112.169,97.326z"/>
		<path fill="#002A5C" d="M118.48,96.127c-0.262,0.499-0.613,0.896-1.054,1.193c-0.44,0.296-0.946,0.443-1.517,0.443
			c-0.503,0-0.945-0.089-1.324-0.267c-0.378-0.179-0.689-0.419-0.936-0.724c-0.246-0.306-0.428-0.66-0.549-1.066
			s-0.182-0.836-0.182-1.288c0-0.405,0.064-0.806,0.193-1.196c0.129-0.393,0.318-0.744,0.568-1.058
			c0.24-0.301,0.541-0.543,0.897-0.728s0.758-0.275,1.203-0.275c0.457,0,0.849,0.072,1.174,0.216s0.59,0.341,0.793,0.59
			c0.194,0.237,0.339,0.517,0.435,0.839c0.096,0.321,0.144,0.67,0.144,1.047v0.42h-4.146c0,0.41,0.039,0.785,0.118,1.119
			c0.078,0.336,0.202,0.631,0.371,0.885c0.165,0.246,0.381,0.439,0.647,0.582s0.584,0.213,0.951,0.213
			c0.377,0,0.701-0.088,0.976-0.266c0.272-0.176,0.536-0.494,0.79-0.953L118.48,96.127z M117.079,93.74
			c0-0.236-0.021-0.489-0.06-0.76c-0.041-0.271-0.105-0.496-0.194-0.678c-0.097-0.193-0.229-0.353-0.4-0.475
			c-0.17-0.122-0.387-0.184-0.653-0.184c-0.444,0-0.813,0.185-1.108,0.554c-0.294,0.368-0.454,0.883-0.479,1.541L117.079,93.74
			L117.079,93.74z"/>
		<path fill="#002A5C" d="M123.468,94.533c0.173,0.152,0.308,0.328,0.4,0.527c0.093,0.198,0.14,0.441,0.14,0.729
			c0,0.579-0.217,1.053-0.65,1.422c-0.434,0.367-0.996,0.552-1.686,0.552c-0.363,0-0.699-0.064-1.006-0.195
			c-0.307-0.133-0.525-0.252-0.657-0.362l-0.127,0.413h-0.476l-0.063-2.178h0.438c0.033,0.166,0.105,0.358,0.216,0.58
			c0.11,0.221,0.243,0.42,0.399,0.599c0.166,0.187,0.363,0.344,0.594,0.471c0.23,0.128,0.49,0.191,0.777,0.191
			c0.406,0,0.719-0.093,0.939-0.277c0.221-0.187,0.33-0.45,0.33-0.796c0-0.178-0.035-0.331-0.105-0.46
			c-0.068-0.129-0.172-0.242-0.308-0.339c-0.14-0.098-0.312-0.186-0.515-0.264c-0.202-0.078-0.43-0.156-0.678-0.232
			c-0.199-0.059-0.42-0.141-0.664-0.244s-0.451-0.225-0.625-0.365c-0.186-0.146-0.338-0.33-0.457-0.545
			c-0.119-0.217-0.178-0.471-0.178-0.762c0-0.514,0.19-0.946,0.571-1.303c0.381-0.355,0.892-0.532,1.53-0.532
			c0.246,0,0.496,0.032,0.752,0.095c0.256,0.064,0.465,0.141,0.625,0.229l0.146-0.329h0.457l0.095,2.013h-0.438
			c-0.089-0.449-0.28-0.816-0.574-1.1c-0.294-0.282-0.652-0.424-1.076-0.424c-0.347,0-0.619,0.086-0.818,0.262
			c-0.199,0.175-0.299,0.386-0.299,0.634c0,0.188,0.033,0.349,0.1,0.476c0.064,0.127,0.164,0.235,0.295,0.323
			c0.127,0.085,0.287,0.164,0.479,0.238c0.192,0.073,0.431,0.157,0.715,0.251c0.279,0.089,0.543,0.191,0.789,0.312
			C123.104,94.259,123.307,94.391,123.468,94.533z"/>
		<path fill="#002A5C" d="M133.909,96.127c-0.263,0.499-0.614,0.896-1.054,1.193c-0.44,0.296-0.946,0.443-1.518,0.443
			c-0.503,0-0.945-0.089-1.324-0.267c-0.378-0.179-0.689-0.419-0.936-0.724c-0.246-0.306-0.428-0.66-0.549-1.066
			c-0.12-0.406-0.182-0.836-0.182-1.288c0-0.405,0.064-0.806,0.193-1.196c0.129-0.393,0.318-0.744,0.568-1.058
			c0.24-0.301,0.541-0.543,0.897-0.728s0.759-0.275,1.203-0.275c0.457,0,0.849,0.072,1.174,0.216s0.591,0.341,0.793,0.59
			c0.195,0.237,0.339,0.517,0.435,0.839c0.096,0.321,0.144,0.67,0.144,1.047v0.42h-4.146c0,0.41,0.039,0.785,0.119,1.119
			c0.078,0.336,0.201,0.631,0.371,0.885c0.164,0.246,0.381,0.439,0.646,0.582c0.268,0.143,0.584,0.213,0.951,0.213
			c0.377,0,0.701-0.088,0.976-0.266c0.272-0.176,0.536-0.494,0.79-0.953L133.909,96.127z M132.506,93.74
			c0-0.236-0.02-0.489-0.061-0.76s-0.104-0.496-0.193-0.678c-0.098-0.193-0.23-0.353-0.4-0.475s-0.387-0.184-0.653-0.184
			c-0.444,0-0.813,0.185-1.108,0.554c-0.294,0.368-0.453,0.883-0.479,1.541L132.506,93.74L132.506,93.74z"/>
		<path fill="#002A5C" d="M138.895,94.533c0.174,0.152,0.308,0.328,0.4,0.527c0.094,0.198,0.141,0.441,0.141,0.729
			c0,0.579-0.218,1.053-0.65,1.422c-0.434,0.367-0.996,0.552-1.686,0.552c-0.365,0-0.699-0.064-1.007-0.195
			c-0.307-0.133-0.526-0.252-0.657-0.362l-0.127,0.413h-0.476l-0.063-2.178h0.438c0.034,0.166,0.106,0.358,0.216,0.58
			c0.11,0.221,0.243,0.42,0.4,0.599c0.164,0.187,0.363,0.344,0.593,0.471c0.231,0.128,0.49,0.191,0.778,0.191
			c0.406,0,0.719-0.093,0.938-0.277c0.22-0.187,0.33-0.45,0.33-0.796c0-0.178-0.034-0.331-0.104-0.46
			c-0.069-0.129-0.172-0.242-0.309-0.339c-0.14-0.098-0.311-0.186-0.514-0.264s-0.43-0.156-0.68-0.232
			c-0.198-0.059-0.42-0.141-0.662-0.244c-0.244-0.104-0.452-0.225-0.625-0.365c-0.187-0.146-0.338-0.33-0.457-0.545
			c-0.119-0.217-0.178-0.471-0.178-0.762c0-0.514,0.189-0.946,0.57-1.303c0.381-0.355,0.891-0.532,1.53-0.532
			c0.246,0,0.496,0.032,0.752,0.095c0.256,0.064,0.465,0.141,0.625,0.229l0.146-0.329h0.457l0.096,2.013h-0.438
			c-0.089-0.449-0.28-0.816-0.573-1.1c-0.295-0.282-0.654-0.424-1.076-0.424c-0.348,0-0.621,0.086-0.819,0.262
			c-0.199,0.175-0.298,0.386-0.298,0.634c0,0.188,0.033,0.349,0.099,0.476s0.164,0.235,0.295,0.323
			c0.127,0.085,0.287,0.164,0.479,0.238c0.191,0.073,0.43,0.157,0.714,0.251c0.278,0.089,0.543,0.191,0.79,0.312
			C138.529,94.259,138.734,94.391,138.895,94.533z"/>
		<path fill="#002A5C" d="M146.07,96.127c-0.262,0.499-0.613,0.896-1.053,1.193c-0.44,0.296-0.947,0.443-1.518,0.443
			c-0.503,0-0.945-0.089-1.324-0.267c-0.378-0.179-0.689-0.419-0.936-0.724c-0.246-0.306-0.428-0.66-0.549-1.066
			s-0.182-0.836-0.182-1.288c0-0.405,0.064-0.806,0.193-1.196c0.129-0.393,0.318-0.744,0.568-1.058
			c0.24-0.301,0.541-0.543,0.897-0.728s0.758-0.275,1.203-0.275c0.457,0,0.849,0.072,1.174,0.216s0.59,0.341,0.793,0.59
			c0.195,0.237,0.339,0.517,0.435,0.839c0.096,0.321,0.144,0.67,0.144,1.047v0.42h-4.146c0,0.41,0.039,0.785,0.119,1.119
			c0.077,0.336,0.201,0.631,0.37,0.885c0.165,0.246,0.382,0.439,0.647,0.582c0.267,0.143,0.584,0.213,0.951,0.213
			c0.377,0,0.701-0.088,0.976-0.266c0.272-0.176,0.536-0.494,0.79-0.953L146.07,96.127z M144.668,93.74
			c0-0.236-0.02-0.489-0.061-0.76s-0.104-0.496-0.193-0.678c-0.098-0.193-0.23-0.353-0.4-0.475s-0.387-0.184-0.654-0.184
			c-0.443,0-0.812,0.185-1.107,0.554c-0.294,0.368-0.454,0.883-0.479,1.541L144.668,93.74L144.668,93.74z"/>
		<path fill="#002A5C" d="M153.837,97.6h-3.06v-0.418c0.097-0.01,0.203-0.018,0.32-0.025c0.116-0.01,0.213-0.025,0.289-0.051
			c0.119-0.039,0.207-0.104,0.264-0.2c0.058-0.095,0.086-0.22,0.086-0.371v-3.22c0-0.442-0.105-0.787-0.315-1.026
			c-0.21-0.242-0.466-0.362-0.767-0.362c-0.225,0-0.432,0.035-0.617,0.104c-0.188,0.07-0.352,0.156-0.497,0.259
			c-0.14,0.097-0.251,0.201-0.334,0.313c-0.083,0.111-0.144,0.201-0.181,0.271v3.599c0,0.145,0.029,0.264,0.089,0.355
			c0.059,0.092,0.147,0.165,0.267,0.216c0.09,0.042,0.186,0.074,0.289,0.097c0.104,0.021,0.211,0.034,0.321,0.043v0.42h-3.066v-0.42
			c0.097-0.009,0.198-0.017,0.302-0.024c0.104-0.009,0.193-0.025,0.271-0.052c0.119-0.037,0.206-0.104,0.265-0.198
			c0.057-0.097,0.084-0.22,0.084-0.371v-3.861c0-0.144-0.031-0.274-0.092-0.396c-0.061-0.12-0.146-0.219-0.257-0.295
			c-0.081-0.051-0.176-0.088-0.286-0.11c-0.109-0.022-0.229-0.039-0.355-0.048v-0.419l2.082-0.14l0.09,0.088v0.884h0.031
			c0.103-0.103,0.229-0.224,0.381-0.365c0.152-0.142,0.297-0.258,0.433-0.347c0.157-0.102,0.343-0.187,0.56-0.254
			c0.215-0.067,0.459-0.102,0.729-0.102c0.601,0,1.046,0.188,1.336,0.562c0.29,0.373,0.435,0.871,0.435,1.494v3.256
			c0,0.148,0.025,0.269,0.076,0.358c0.051,0.091,0.139,0.162,0.26,0.214c0.103,0.041,0.189,0.071,0.264,0.088
			c0.074,0.018,0.177,0.029,0.308,0.039V97.6H153.837z"/>
		<path fill="#002A5C" d="M157.63,97.766c-0.905,0-1.614-0.302-2.126-0.901c-0.512-0.601-0.768-1.407-0.768-2.419
			c0-0.439,0.068-0.853,0.205-1.234c0.139-0.383,0.338-0.73,0.601-1.044c0.25-0.301,0.563-0.543,0.938-0.728
			c0.377-0.185,0.787-0.275,1.231-0.275c0.614,0,1.113,0.146,1.498,0.441c0.386,0.293,0.578,0.693,0.578,1.201
			c0,0.213-0.052,0.399-0.151,0.562c-0.102,0.163-0.27,0.244-0.502,0.244c-0.25,0-0.443-0.063-0.58-0.189
			c-0.139-0.127-0.207-0.269-0.207-0.424c0-0.189,0.024-0.386,0.075-0.586c0.052-0.2,0.081-0.348,0.089-0.439
			c-0.076-0.131-0.188-0.219-0.339-0.263c-0.149-0.044-0.312-0.065-0.483-0.065c-0.203,0-0.396,0.043-0.58,0.129
			c-0.182,0.088-0.361,0.248-0.534,0.479c-0.156,0.212-0.283,0.497-0.38,0.856c-0.098,0.359-0.146,0.789-0.146,1.289
			c0,0.787,0.174,1.43,0.523,1.927c0.349,0.497,0.806,0.745,1.371,0.745c0.41,0,0.754-0.1,1.031-0.301
			c0.276-0.198,0.533-0.498,0.77-0.898l0.406,0.268c-0.279,0.498-0.647,0.896-1.104,1.187
			C158.588,97.619,158.117,97.766,157.63,97.766z"/>
		<path fill="#002A5C" d="M163.803,97.6h-3.021v-0.418c0.097-0.01,0.198-0.018,0.302-0.025c0.104-0.01,0.193-0.025,0.27-0.051
			c0.119-0.039,0.207-0.104,0.265-0.199c0.057-0.096,0.085-0.219,0.085-0.371v-3.861c0-0.136-0.031-0.259-0.092-0.371
			c-0.062-0.111-0.147-0.205-0.258-0.281c-0.08-0.052-0.196-0.095-0.349-0.131c-0.151-0.035-0.292-0.058-0.419-0.065v-0.419
			l2.209-0.141l0.089,0.09v5.104c0,0.148,0.028,0.271,0.085,0.368s0.146,0.169,0.268,0.216c0.093,0.038,0.184,0.068,0.271,0.092
			c0.088,0.024,0.188,0.039,0.297,0.049V97.6H163.803z M163.009,88.795c0,0.242-0.079,0.452-0.237,0.632
			c-0.16,0.181-0.354,0.271-0.588,0.271c-0.216,0-0.402-0.087-0.562-0.259c-0.158-0.17-0.238-0.366-0.238-0.586
			c0-0.232,0.08-0.437,0.238-0.609c0.159-0.174,0.346-0.262,0.562-0.262c0.241,0,0.439,0.082,0.594,0.246
			C162.932,88.391,163.009,88.58,163.009,88.795z"/>
		<path fill="#002A5C" d="M170.636,97.484c-0.198,0.072-0.374,0.131-0.522,0.176c-0.15,0.044-0.321,0.066-0.512,0.066
			c-0.33,0-0.593-0.078-0.791-0.231c-0.195-0.154-0.321-0.38-0.377-0.677h-0.037c-0.275,0.305-0.57,0.537-0.885,0.699
			c-0.316,0.159-0.695,0.239-1.141,0.239c-0.471,0-0.855-0.144-1.158-0.432c-0.303-0.287-0.454-0.664-0.454-1.13
			c0-0.241,0.034-0.456,0.103-0.647c0.068-0.188,0.169-0.36,0.305-0.514c0.105-0.127,0.246-0.24,0.419-0.341
			c0.173-0.1,0.336-0.178,0.489-0.237c0.189-0.071,0.576-0.205,1.158-0.399c0.582-0.193,0.975-0.347,1.178-0.457v-0.627
			c0-0.057-0.012-0.162-0.035-0.318s-0.073-0.305-0.148-0.443c-0.084-0.156-0.205-0.294-0.358-0.41
			c-0.155-0.115-0.374-0.174-0.657-0.174c-0.195,0-0.375,0.032-0.543,0.098c-0.167,0.065-0.284,0.135-0.352,0.207
			c0,0.084,0.02,0.209,0.06,0.375c0.041,0.164,0.062,0.316,0.062,0.457c0,0.147-0.066,0.282-0.201,0.405
			c-0.133,0.123-0.317,0.185-0.555,0.185c-0.211,0-0.367-0.074-0.466-0.226c-0.1-0.149-0.149-0.317-0.149-0.505
			c0-0.193,0.07-0.381,0.207-0.559c0.138-0.179,0.315-0.336,0.537-0.478c0.189-0.118,0.42-0.219,0.691-0.301
			c0.271-0.083,0.535-0.124,0.793-0.124c0.355,0,0.666,0.023,0.93,0.072c0.265,0.05,0.504,0.154,0.721,0.314
			c0.216,0.156,0.38,0.369,0.492,0.639c0.111,0.269,0.168,0.613,0.168,1.037c0,0.604-0.006,1.142-0.02,1.608
			c-0.013,0.467-0.02,0.979-0.02,1.533c0,0.165,0.029,0.296,0.086,0.394c0.058,0.098,0.145,0.18,0.264,0.248
			c0.062,0.037,0.164,0.059,0.302,0.062c0.138,0.005,0.278,0.007,0.423,0.007v0.407H170.636z M168.42,94.134
			c-0.359,0.106-0.675,0.21-0.945,0.312c-0.271,0.103-0.522,0.229-0.756,0.383c-0.211,0.145-0.379,0.314-0.501,0.512
			c-0.123,0.197-0.184,0.432-0.184,0.703c0,0.354,0.092,0.611,0.276,0.775c0.185,0.166,0.418,0.248,0.701,0.248
			c0.301,0,0.565-0.072,0.793-0.219c0.229-0.147,0.422-0.318,0.578-0.52L168.42,94.134z"/>
		<path fill="#002A5C" d="M174.32,97.6h-3.053v-0.418c0.098-0.01,0.201-0.019,0.312-0.029c0.11-0.01,0.201-0.025,0.272-0.047
			c0.119-0.039,0.209-0.104,0.268-0.2c0.059-0.095,0.089-0.22,0.089-0.372v-7.254c0-0.152-0.033-0.295-0.099-0.43
			c-0.065-0.133-0.15-0.238-0.256-0.313c-0.076-0.052-0.217-0.099-0.42-0.14c-0.203-0.043-0.365-0.067-0.488-0.076v-0.406
			l2.354-0.141l0.089,0.097v8.588c0,0.147,0.027,0.271,0.084,0.365c0.055,0.095,0.144,0.168,0.266,0.219
			c0.094,0.042,0.186,0.074,0.277,0.097c0.09,0.021,0.192,0.034,0.308,0.043V97.6H174.32z"/>
		<path fill="#002A5C" d="M180.798,96.127c-0.262,0.499-0.614,0.896-1.054,1.193c-0.439,0.296-0.946,0.443-1.518,0.443
			c-0.502,0-0.944-0.089-1.324-0.267c-0.377-0.179-0.689-0.419-0.936-0.724c-0.246-0.306-0.428-0.66-0.549-1.066
			c-0.12-0.406-0.182-0.836-0.182-1.288c0-0.405,0.064-0.806,0.193-1.196c0.129-0.393,0.319-0.744,0.568-1.058
			c0.24-0.301,0.541-0.543,0.898-0.728c0.356-0.185,0.758-0.275,1.203-0.275c0.457,0,0.849,0.072,1.174,0.216
			c0.324,0.144,0.59,0.341,0.793,0.59c0.194,0.237,0.338,0.517,0.435,0.839c0.095,0.321,0.144,0.67,0.144,1.047v0.42h-4.146
			c0,0.41,0.039,0.785,0.118,1.119c0.078,0.336,0.201,0.631,0.371,0.885c0.164,0.246,0.381,0.439,0.646,0.582
			c0.268,0.143,0.584,0.213,0.952,0.213c0.376,0,0.701-0.088,0.976-0.266c0.271-0.176,0.535-0.494,0.789-0.953L180.798,96.127z
			 M179.396,93.74c0-0.236-0.021-0.489-0.061-0.76c-0.041-0.271-0.105-0.496-0.193-0.678c-0.098-0.193-0.23-0.353-0.4-0.475
			s-0.387-0.184-0.654-0.184c-0.443,0-0.812,0.185-1.107,0.554c-0.295,0.368-0.455,0.883-0.479,1.541L179.396,93.74L179.396,93.74z"
			/>
		<path fill="#002A5C" d="M185.784,94.533c0.173,0.152,0.307,0.328,0.399,0.527c0.094,0.198,0.141,0.441,0.141,0.729
			c0,0.579-0.217,1.053-0.65,1.422c-0.434,0.367-0.996,0.552-1.686,0.552c-0.364,0-0.699-0.064-1.006-0.195
			c-0.308-0.133-0.526-0.252-0.657-0.362l-0.127,0.413h-0.476l-0.063-2.178h0.438c0.033,0.166,0.105,0.358,0.215,0.58
			c0.11,0.221,0.244,0.42,0.4,0.599c0.165,0.187,0.363,0.344,0.594,0.471c0.23,0.128,0.489,0.191,0.777,0.191
			c0.406,0,0.719-0.093,0.939-0.277c0.22-0.187,0.33-0.45,0.33-0.796c0-0.178-0.035-0.331-0.105-0.46
			c-0.068-0.129-0.172-0.242-0.309-0.339c-0.14-0.098-0.311-0.186-0.514-0.264s-0.43-0.156-0.679-0.232
			c-0.199-0.059-0.42-0.141-0.663-0.244c-0.244-0.104-0.452-0.225-0.625-0.365c-0.186-0.146-0.338-0.33-0.457-0.545
			c-0.119-0.217-0.178-0.471-0.178-0.762c0-0.514,0.189-0.946,0.57-1.303c0.381-0.355,0.892-0.532,1.53-0.532
			c0.246,0,0.496,0.032,0.752,0.095c0.257,0.064,0.466,0.141,0.625,0.229l0.146-0.329h0.456L186,93.17h-0.438
			c-0.09-0.449-0.28-0.816-0.574-1.1c-0.295-0.282-0.653-0.424-1.076-0.424c-0.348,0-0.62,0.086-0.819,0.262
			c-0.198,0.175-0.298,0.386-0.298,0.634c0,0.188,0.033,0.349,0.1,0.476c0.064,0.127,0.164,0.235,0.295,0.323
			c0.127,0.085,0.287,0.164,0.479,0.238c0.191,0.073,0.43,0.157,0.714,0.251c0.279,0.089,0.543,0.191,0.79,0.312
			C185.419,94.259,185.624,94.391,185.784,94.533z"/>
		<path fill="#002A5C" d="M189.577,96.869c0,0.236-0.085,0.439-0.257,0.605c-0.172,0.168-0.375,0.252-0.612,0.252
			s-0.44-0.084-0.612-0.252c-0.172-0.166-0.257-0.369-0.257-0.605s0.085-0.439,0.257-0.612c0.172-0.171,0.375-0.257,0.612-0.257
			s0.44,0.086,0.612,0.257C189.491,96.43,189.577,96.633,189.577,96.869z"/>
		<path fill="#002A5C" d="M18.903,126.121l-0.19,2.679h-7.04v-0.45c0.102-0.009,0.249-0.022,0.441-0.045
			c0.192-0.021,0.327-0.049,0.403-0.082c0.127-0.056,0.219-0.136,0.276-0.24c0.058-0.106,0.086-0.242,0.086-0.406v-6.449
			c0-0.145-0.024-0.271-0.073-0.381c-0.048-0.11-0.145-0.199-0.289-0.268c-0.097-0.052-0.234-0.101-0.41-0.148
			c-0.175-0.049-0.32-0.077-0.435-0.086v-0.451h3.802v0.451c-0.119,0.004-0.272,0.025-0.46,0.062
			c-0.188,0.038-0.325,0.072-0.409,0.103c-0.144,0.051-0.242,0.138-0.295,0.261c-0.053,0.122-0.08,0.254-0.08,0.393v6.051
			c0,0.279,0.014,0.496,0.042,0.65c0.027,0.153,0.092,0.273,0.193,0.357c0.097,0.076,0.242,0.126,0.435,0.148
			c0.193,0.023,0.462,0.035,0.81,0.035c0.157,0,0.319-0.004,0.489-0.013c0.17-0.009,0.33-0.024,0.482-0.051
			c0.148-0.025,0.285-0.062,0.41-0.104c0.125-0.045,0.217-0.101,0.276-0.169c0.173-0.194,0.375-0.489,0.606-0.885
			s0.391-0.717,0.479-0.962H18.903z"/>
		<path fill="#002A5C" d="M21.49,120.383c0,0.279-0.061,0.534-0.181,0.766c-0.121,0.229-0.266,0.431-0.435,0.6
			c-0.169,0.174-0.355,0.329-0.559,0.467c-0.204,0.139-0.366,0.238-0.489,0.303l-0.216-0.375c0.173-0.102,0.34-0.207,0.498-0.313
			c0.159-0.108,0.281-0.211,0.365-0.31c0.114-0.127,0.205-0.259,0.273-0.396c0.068-0.138,0.11-0.317,0.127-0.543h-0.305
			c-0.267,0-0.474-0.067-0.622-0.203c-0.148-0.135-0.222-0.323-0.222-0.563c0-0.174,0.068-0.338,0.203-0.492
			c0.135-0.154,0.319-0.231,0.552-0.231c0.36,0,0.618,0.119,0.774,0.358C21.409,119.688,21.49,119.998,21.49,120.383z"/>
		<path fill="#002A5C" d="M29.999,120.857c0.398,0.416,0.709,0.916,0.933,1.502s0.336,1.234,0.336,1.945
			c0,0.715-0.114,1.365-0.343,1.949s-0.546,1.081-0.952,1.491c-0.394,0.405-0.851,0.72-1.371,0.938s-1.075,0.33-1.663,0.33
			c-0.626,0-1.205-0.117-1.736-0.353c-0.531-0.234-0.987-0.562-1.368-0.979c-0.381-0.41-0.68-0.91-0.898-1.496
			s-0.327-1.213-0.327-1.881c0-0.732,0.114-1.386,0.343-1.959c0.229-0.572,0.544-1.068,0.946-1.488
			c0.398-0.414,0.86-0.731,1.387-0.951c0.526-0.221,1.078-0.33,1.653-0.33c0.597,0,1.16,0.111,1.688,0.336
			S29.613,120.452,29.999,120.857z M29.053,127.245c0.237-0.386,0.41-0.821,0.517-1.31c0.108-0.485,0.162-1.029,0.162-1.631
			c0-0.617-0.061-1.185-0.181-1.701c-0.121-0.517-0.297-0.955-0.53-1.319c-0.233-0.359-0.525-0.64-0.876-0.841
			s-0.753-0.303-1.206-0.303c-0.508,0-0.939,0.116-1.295,0.351c-0.355,0.231-0.646,0.543-0.87,0.933
			c-0.211,0.372-0.369,0.809-0.473,1.309c-0.104,0.498-0.155,1.023-0.155,1.574c0,0.608,0.055,1.158,0.165,1.649
			s0.284,0.927,0.521,1.308c0.229,0.372,0.516,0.663,0.863,0.873c0.347,0.209,0.762,0.313,1.244,0.313
			c0.453,0,0.861-0.105,1.225-0.316C28.528,127.922,28.824,127.626,29.053,127.245z"/>
		<path fill="#002A5C" d="M36.492,129.016c-0.537,0-1.052-0.104-1.544-0.316c-0.492-0.213-0.929-0.518-1.31-0.915
			c-0.376-0.397-0.677-0.884-0.901-1.458c-0.224-0.573-0.336-1.221-0.336-1.94c0-0.719,0.11-1.372,0.33-1.959
			c0.22-0.587,0.524-1.092,0.914-1.516c0.384-0.419,0.839-0.742,1.363-0.972c0.524-0.229,1.084-0.344,1.681-0.344
			c0.444,0,0.845,0.055,1.205,0.165s0.702,0.265,1.027,0.464l0.26-0.433h0.508l0.057,3.213h-0.521
			c-0.068-0.313-0.169-0.653-0.304-1.021c-0.135-0.366-0.294-0.676-0.476-0.93c-0.203-0.287-0.444-0.513-0.723-0.676
			c-0.279-0.163-0.598-0.244-0.958-0.244c-0.41,0-0.792,0.092-1.145,0.272c-0.353,0.183-0.658,0.45-0.916,0.807
			c-0.245,0.345-0.438,0.779-0.577,1.31c-0.139,0.529-0.209,1.119-0.209,1.771c0,0.576,0.073,1.104,0.219,1.585
			s0.354,0.903,0.625,1.269c0.271,0.359,0.591,0.642,0.96,0.845c0.37,0.203,0.783,0.305,1.24,0.305c0.342,0,0.657-0.054,0.945-0.161
			c0.288-0.107,0.537-0.251,0.748-0.429c0.211-0.187,0.397-0.397,0.558-0.635c0.161-0.238,0.292-0.495,0.393-0.774l0.476,0.229
			c-0.364,0.894-0.846,1.531-1.446,1.914C38.036,128.824,37.321,129.016,36.492,129.016z"/>
		<path fill="#002A5C" d="M44.969,129.016c-0.537,0-1.052-0.104-1.544-0.316c-0.492-0.213-0.929-0.518-1.31-0.915
			c-0.376-0.397-0.677-0.884-0.901-1.458c-0.224-0.573-0.336-1.221-0.336-1.94c0-0.719,0.11-1.372,0.33-1.959
			s0.524-1.092,0.914-1.516c0.384-0.419,0.839-0.742,1.363-0.972s1.084-0.344,1.681-0.344c0.444,0,0.845,0.055,1.205,0.165
			s0.702,0.265,1.027,0.464l0.26-0.433h0.508l0.057,3.213h-0.521c-0.068-0.313-0.169-0.653-0.304-1.021
			c-0.135-0.366-0.294-0.676-0.476-0.93c-0.203-0.287-0.444-0.513-0.723-0.676c-0.279-0.163-0.598-0.244-0.958-0.244
			c-0.41,0-0.792,0.092-1.145,0.272c-0.353,0.183-0.658,0.45-0.916,0.807c-0.245,0.345-0.438,0.779-0.577,1.31
			c-0.139,0.529-0.209,1.119-0.209,1.771c0,0.576,0.073,1.104,0.219,1.585s0.354,0.903,0.625,1.269
			c0.271,0.359,0.591,0.642,0.96,0.845c0.37,0.203,0.783,0.305,1.24,0.305c0.342,0,0.657-0.054,0.945-0.161
			c0.288-0.107,0.537-0.251,0.748-0.429c0.211-0.187,0.397-0.397,0.558-0.635c0.161-0.238,0.292-0.495,0.393-0.774l0.476,0.229
			c-0.364,0.894-0.846,1.531-1.446,1.914C46.513,128.824,45.798,129.016,44.969,129.016z"/>
		<path fill="#002A5C" d="M53.418,128.8h-4.056v-0.45c0.114-0.009,0.279-0.021,0.495-0.037c0.216-0.019,0.368-0.043,0.457-0.076
			c0.14-0.057,0.241-0.131,0.305-0.227c0.063-0.096,0.095-0.228,0.095-0.396v-6.525c0-0.146-0.023-0.271-0.07-0.371
			s-0.157-0.183-0.33-0.25c-0.127-0.051-0.287-0.099-0.479-0.144c-0.193-0.044-0.351-0.07-0.473-0.079v-0.451h4.056v0.451
			c-0.131,0.004-0.288,0.021-0.47,0.048c-0.182,0.026-0.341,0.062-0.476,0.104c-0.161,0.051-0.269,0.133-0.324,0.248
			c-0.055,0.112-0.083,0.239-0.083,0.381v6.519c0,0.14,0.031,0.265,0.092,0.371c0.061,0.108,0.166,0.194,0.314,0.257
			c0.089,0.034,0.234,0.071,0.435,0.111c0.201,0.04,0.371,0.062,0.511,0.066L53.418,128.8L53.418,128.8z"/>
		<path fill="#002A5C" d="M62.003,122.236h-0.438c-0.038-0.152-0.107-0.334-0.207-0.543s-0.211-0.407-0.333-0.594
			c-0.127-0.195-0.267-0.365-0.417-0.512s-0.296-0.229-0.436-0.25c-0.132-0.018-0.297-0.029-0.497-0.039
			c-0.199-0.008-0.384-0.012-0.553-0.012h-0.369v7.204c0,0.14,0.03,0.268,0.089,0.384c0.059,0.116,0.163,0.207,0.311,0.27
			c0.076,0.03,0.236,0.07,0.479,0.121c0.244,0.051,0.433,0.078,0.568,0.082v0.451h-4.253v-0.451
			c0.119-0.008,0.299-0.024,0.543-0.051c0.243-0.025,0.411-0.057,0.504-0.095c0.14-0.056,0.242-0.136,0.308-0.238
			c0.065-0.104,0.098-0.241,0.098-0.415v-7.262h-0.368c-0.131,0-0.294,0.003-0.489,0.009c-0.195,0.007-0.381,0.021-0.559,0.042
			c-0.14,0.018-0.285,0.1-0.435,0.25c-0.15,0.15-0.289,0.32-0.416,0.512c-0.127,0.189-0.239,0.393-0.336,0.605
			c-0.097,0.213-0.165,0.391-0.203,0.529H54.15v-2.443h7.852L62.003,122.236L62.003,122.236z"/>
		<path fill="#002A5C" d="M71.249,128.8h-3.744v-0.45c0.33-0.021,0.604-0.062,0.822-0.127c0.218-0.062,0.327-0.143,0.327-0.234
			c0-0.038-0.004-0.086-0.013-0.141c-0.009-0.055-0.021-0.104-0.038-0.146l-0.746-2.021h-3.162
			c-0.119,0.297-0.215,0.555-0.289,0.775c-0.074,0.22-0.141,0.423-0.201,0.609c-0.055,0.182-0.093,0.33-0.114,0.442
			c-0.021,0.115-0.032,0.208-0.032,0.279c0,0.17,0.133,0.301,0.4,0.396c0.267,0.092,0.567,0.146,0.901,0.164v0.45h-3.392v-0.45
			c0.11-0.009,0.248-0.033,0.413-0.072c0.165-0.041,0.3-0.096,0.406-0.162c0.169-0.114,0.3-0.233,0.394-0.358
			c0.094-0.125,0.184-0.298,0.273-0.519c0.453-1.129,0.952-2.398,1.498-3.809s1.033-2.664,1.46-3.765h0.508l3.002,7.771
			c0.063,0.166,0.135,0.299,0.216,0.399c0.081,0.101,0.192,0.201,0.336,0.299c0.097,0.06,0.224,0.108,0.381,0.147
			c0.157,0.041,0.288,0.062,0.394,0.066V128.8z M67.625,125.118l-1.364-3.495l-1.345,3.495H67.625z"/>
		<path fill="#002A5C" d="M80.944,120.243c-0.119,0.004-0.3,0.038-0.546,0.102c-0.246,0.064-0.421,0.13-0.527,0.197
			c-0.152,0.104-0.255,0.31-0.308,0.608c-0.053,0.301-0.079,0.682-0.079,1.144v6.595h-0.552l-5.459-7.369v4.646
			c0,0.521,0.033,0.921,0.098,1.2c0.066,0.279,0.167,0.479,0.302,0.597c0.097,0.093,0.298,0.181,0.603,0.261
			s0.506,0.122,0.603,0.127v0.45h-3.694v-0.45c0.114-0.009,0.307-0.05,0.578-0.123c0.271-0.074,0.44-0.142,0.508-0.201
			c0.148-0.117,0.25-0.299,0.305-0.543c0.055-0.242,0.083-0.658,0.083-1.246v-4.438c0-0.194-0.034-0.389-0.102-0.584
			c-0.068-0.194-0.159-0.345-0.273-0.45c-0.152-0.14-0.359-0.259-0.619-0.357c-0.261-0.1-0.471-0.153-0.632-0.162v-0.451h2.573
			l5.063,6.867v-4.283c0-0.525-0.034-0.928-0.102-1.209s-0.165-0.469-0.292-0.562c-0.119-0.08-0.312-0.157-0.581-0.233
			s-0.473-0.118-0.613-0.127v-0.451h3.663V120.243z"/>
		<path fill="#002A5C" d="M89.377,126.146l-0.171,2.652h-7.478v-0.451c0.127-0.008,0.296-0.025,0.508-0.054
			c0.212-0.028,0.349-0.056,0.413-0.085c0.135-0.064,0.229-0.146,0.283-0.248c0.053-0.102,0.079-0.23,0.079-0.387V121.1
			c0-0.142-0.023-0.265-0.07-0.373c-0.046-0.106-0.144-0.194-0.292-0.263c-0.114-0.056-0.268-0.104-0.46-0.146
			c-0.192-0.043-0.346-0.067-0.46-0.076v-0.451h6.97v2.172h-0.476c-0.084-0.322-0.268-0.664-0.549-1.025
			c-0.281-0.361-0.549-0.56-0.803-0.594c-0.131-0.017-0.288-0.029-0.47-0.037c-0.182-0.01-0.389-0.014-0.622-0.014h-1.416v3.58
			h1.016c0.326,0,0.564-0.03,0.714-0.092c0.15-0.062,0.282-0.164,0.396-0.309c0.093-0.123,0.172-0.287,0.238-0.492
			c0.065-0.205,0.109-0.398,0.13-0.58h0.476v3.529h-0.476c-0.017-0.203-0.062-0.419-0.137-0.646
			c-0.074-0.228-0.151-0.392-0.231-0.492c-0.131-0.164-0.28-0.272-0.447-0.323s-0.389-0.076-0.664-0.076h-1.016v2.7
			c0,0.271,0.019,0.483,0.057,0.64c0.038,0.158,0.112,0.274,0.222,0.354c0.11,0.081,0.26,0.133,0.451,0.155
			c0.19,0.023,0.461,0.035,0.812,0.035c0.14,0,0.324,0,0.552,0s0.421-0.01,0.578-0.025c0.161-0.018,0.327-0.048,0.498-0.092
			c0.172-0.045,0.293-0.104,0.365-0.182c0.195-0.203,0.399-0.512,0.612-0.924c0.214-0.412,0.351-0.717,0.41-0.91h0.458V126.146z"/>
		<path fill="#002A5C" d="M97.661,125.732c0.173,0.152,0.307,0.328,0.4,0.527c0.093,0.199,0.14,0.442,0.14,0.73
			c0,0.578-0.217,1.053-0.65,1.422c-0.434,0.367-0.996,0.552-1.686,0.552c-0.364,0-0.699-0.065-1.006-0.196
			c-0.307-0.132-0.526-0.252-0.657-0.361l-0.127,0.412h-0.476l-0.063-2.178h0.438c0.034,0.166,0.106,0.359,0.216,0.58
			s0.243,0.42,0.4,0.6c0.165,0.187,0.363,0.344,0.593,0.471c0.231,0.128,0.49,0.191,0.778,0.191c0.406,0,0.719-0.094,0.939-0.277
			c0.22-0.186,0.33-0.45,0.33-0.796c0-0.179-0.035-0.331-0.105-0.46c-0.069-0.129-0.172-0.242-0.308-0.34
			c-0.14-0.098-0.311-0.186-0.514-0.264c-0.203-0.078-0.43-0.156-0.679-0.232c-0.199-0.059-0.42-0.141-0.663-0.243
			c-0.244-0.104-0.452-0.226-0.625-0.365c-0.186-0.147-0.338-0.33-0.457-0.545c-0.119-0.217-0.178-0.472-0.178-0.762
			c0-0.513,0.19-0.946,0.571-1.302c0.381-0.356,0.891-0.533,1.53-0.533c0.246,0,0.496,0.031,0.752,0.095
			c0.256,0.063,0.465,0.142,0.625,0.229l0.146-0.33h0.457l0.095,2.013h-0.438c-0.089-0.45-0.28-0.816-0.574-1.101
			c-0.294-0.281-0.653-0.424-1.076-0.424c-0.347,0-0.62,0.088-0.819,0.262c-0.199,0.176-0.298,0.387-0.298,0.635
			c0,0.189,0.033,0.349,0.099,0.476c0.065,0.127,0.164,0.235,0.295,0.323c0.127,0.085,0.287,0.164,0.479,0.238
			s0.43,0.158,0.714,0.25c0.279,0.09,0.543,0.193,0.79,0.312C97.296,125.459,97.5,125.59,97.661,125.732z"/>
		<path fill="#002A5C" d="M104.836,127.327c-0.262,0.499-0.613,0.897-1.054,1.192c-0.44,0.297-0.946,0.444-1.517,0.444
			c-0.504,0-0.945-0.089-1.324-0.267s-0.69-0.42-0.937-0.725s-0.428-0.66-0.549-1.065c-0.12-0.406-0.181-0.837-0.181-1.288
			c0-0.406,0.064-0.807,0.193-1.197c0.129-0.392,0.319-0.742,0.568-1.057c0.241-0.301,0.541-0.543,0.897-0.727
			c0.357-0.186,0.758-0.277,1.203-0.277c0.457,0,0.85,0.072,1.174,0.217c0.326,0.145,0.59,0.341,0.793,0.59
			c0.195,0.236,0.34,0.518,0.436,0.838c0.095,0.322,0.143,0.671,0.143,1.048v0.419h-4.145c0,0.411,0.039,0.785,0.117,1.12
			s0.203,0.63,0.371,0.884c0.166,0.246,0.382,0.44,0.647,0.582c0.267,0.144,0.584,0.213,0.952,0.213
			c0.376,0,0.701-0.088,0.975-0.265c0.272-0.176,0.537-0.493,0.791-0.954L104.836,127.327z M103.434,124.939
			c0-0.235-0.02-0.488-0.06-0.76c-0.041-0.27-0.104-0.494-0.194-0.677c-0.097-0.194-0.229-0.353-0.4-0.476
			c-0.17-0.121-0.387-0.184-0.653-0.184c-0.444,0-0.813,0.186-1.108,0.555c-0.293,0.369-0.453,0.883-0.479,1.541H103.434
			L103.434,124.939z"/>
		<path fill="#002A5C" d="M111.889,128.8h-3.054v-0.419c0.097-0.009,0.201-0.018,0.312-0.027c0.109-0.011,0.201-0.026,0.272-0.049
			c0.119-0.037,0.208-0.104,0.267-0.199c0.06-0.096,0.09-0.22,0.09-0.373v-7.254c0-0.151-0.033-0.295-0.099-0.429
			c-0.065-0.133-0.151-0.237-0.257-0.313c-0.076-0.051-0.216-0.098-0.419-0.141c-0.203-0.041-0.366-0.066-0.489-0.076v-0.405
			l2.355-0.14l0.089,0.096v8.588c0,0.148,0.026,0.27,0.083,0.365c0.055,0.095,0.145,0.168,0.268,0.219
			c0.092,0.042,0.185,0.074,0.275,0.096s0.193,0.035,0.309,0.044v0.418H111.889z"/>
		<path fill="#002A5C" d="M118.366,127.327c-0.263,0.499-0.614,0.897-1.054,1.192c-0.44,0.297-0.946,0.444-1.518,0.444
			c-0.503,0-0.945-0.089-1.324-0.267c-0.378-0.178-0.689-0.42-0.936-0.725s-0.428-0.66-0.549-1.065
			c-0.12-0.406-0.182-0.837-0.182-1.288c0-0.406,0.064-0.807,0.193-1.197c0.129-0.392,0.318-0.742,0.568-1.057
			c0.24-0.301,0.541-0.543,0.897-0.727c0.356-0.186,0.759-0.277,1.203-0.277c0.457,0,0.849,0.072,1.174,0.217
			s0.591,0.341,0.793,0.59c0.195,0.236,0.339,0.518,0.435,0.838c0.096,0.322,0.144,0.671,0.144,1.048v0.419h-4.146
			c0,0.411,0.039,0.785,0.119,1.12c0.078,0.335,0.201,0.63,0.371,0.884c0.164,0.246,0.381,0.44,0.646,0.582
			c0.268,0.144,0.584,0.213,0.951,0.213c0.377,0,0.701-0.088,0.976-0.265c0.272-0.176,0.536-0.493,0.79-0.954L118.366,127.327z
			 M116.963,124.939c0-0.235-0.02-0.488-0.061-0.76c-0.041-0.27-0.104-0.494-0.193-0.677c-0.098-0.194-0.23-0.353-0.4-0.476
			c-0.17-0.121-0.387-0.184-0.654-0.184c-0.443,0-0.812,0.186-1.107,0.555c-0.294,0.369-0.454,0.883-0.479,1.541H116.963
			L116.963,124.939z"/>
		<path fill="#002A5C" d="M124.779,127.327c-0.262,0.499-0.613,0.897-1.053,1.192c-0.44,0.297-0.947,0.444-1.518,0.444
			c-0.503,0-0.945-0.089-1.324-0.267c-0.378-0.178-0.689-0.42-0.936-0.725s-0.428-0.66-0.549-1.065
			c-0.121-0.406-0.182-0.837-0.182-1.288c0-0.406,0.064-0.807,0.193-1.197c0.129-0.392,0.318-0.742,0.568-1.057
			c0.24-0.301,0.541-0.543,0.897-0.727c0.356-0.186,0.759-0.277,1.203-0.277c0.457,0,0.849,0.072,1.174,0.217
			s0.591,0.341,0.793,0.59c0.195,0.236,0.339,0.518,0.435,0.838c0.096,0.322,0.144,0.671,0.144,1.048v0.419h-4.146
			c0,0.411,0.039,0.785,0.119,1.12c0.077,0.335,0.201,0.63,0.371,0.884c0.164,0.246,0.381,0.44,0.646,0.582
			c0.267,0.144,0.584,0.213,0.951,0.213c0.377,0,0.701-0.088,0.976-0.265c0.272-0.176,0.536-0.493,0.79-0.954L124.779,127.327z
			 M123.377,124.939c0-0.235-0.02-0.488-0.061-0.76c-0.041-0.27-0.104-0.494-0.193-0.677c-0.098-0.194-0.23-0.353-0.4-0.476
			c-0.17-0.121-0.387-0.184-0.654-0.184c-0.443,0-0.812,0.186-1.107,0.555c-0.294,0.369-0.454,0.883-0.479,1.541H123.377
			L123.377,124.939z"/>
		<path fill="#002A5C" d="M134.46,127.327c-0.262,0.499-0.614,0.897-1.054,1.192c-0.44,0.297-0.946,0.444-1.518,0.444
			c-0.502,0-0.945-0.089-1.324-0.267c-0.377-0.178-0.689-0.42-0.936-0.725s-0.428-0.66-0.549-1.065
			c-0.12-0.406-0.182-0.837-0.182-1.288c0-0.406,0.064-0.807,0.193-1.197c0.129-0.392,0.319-0.742,0.568-1.057
			c0.24-0.301,0.541-0.543,0.898-0.727c0.356-0.186,0.758-0.277,1.202-0.277c0.457,0,0.849,0.072,1.175,0.217
			c0.324,0.145,0.59,0.341,0.793,0.59c0.194,0.236,0.338,0.518,0.435,0.838c0.095,0.322,0.144,0.671,0.144,1.048v0.419h-4.146
			c0,0.411,0.039,0.785,0.118,1.12c0.078,0.335,0.201,0.63,0.371,0.884c0.164,0.246,0.381,0.44,0.646,0.582
			c0.268,0.144,0.584,0.213,0.952,0.213c0.376,0,0.701-0.088,0.976-0.265c0.271-0.176,0.535-0.493,0.789-0.954L134.46,127.327z
			 M133.057,124.939c0-0.235-0.02-0.488-0.06-0.76c-0.041-0.27-0.104-0.494-0.194-0.677c-0.097-0.194-0.229-0.353-0.4-0.476
			c-0.17-0.121-0.387-0.184-0.653-0.184c-0.444,0-0.813,0.186-1.108,0.555c-0.293,0.369-0.453,0.883-0.479,1.541H133.057
			L133.057,124.939z"/>
		<path fill="#002A5C" d="M142.227,128.8h-3.06v-0.419c0.097-0.009,0.204-0.017,0.321-0.025c0.115-0.008,0.212-0.024,0.289-0.051
			c0.119-0.037,0.207-0.104,0.263-0.199c0.058-0.096,0.086-0.22,0.086-0.371v-3.219c0-0.443-0.104-0.787-0.315-1.027
			c-0.209-0.242-0.465-0.362-0.767-0.362c-0.226,0-0.431,0.035-0.617,0.104s-0.352,0.156-0.497,0.258
			c-0.14,0.097-0.25,0.201-0.334,0.312c-0.082,0.112-0.143,0.202-0.181,0.271v3.599c0,0.144,0.03,0.263,0.089,0.354
			c0.059,0.093,0.148,0.166,0.268,0.217c0.088,0.042,0.185,0.074,0.289,0.096c0.104,0.021,0.211,0.035,0.32,0.044v0.419h-3.066
			v-0.419c0.098-0.009,0.199-0.017,0.303-0.024c0.104-0.01,0.193-0.025,0.27-0.051c0.119-0.039,0.206-0.104,0.264-0.199
			c0.058-0.096,0.086-0.219,0.086-0.371v-3.861c0-0.145-0.031-0.275-0.092-0.396c-0.062-0.119-0.147-0.219-0.258-0.295
			c-0.08-0.051-0.176-0.086-0.285-0.109c-0.11-0.023-0.229-0.039-0.355-0.049v-0.418l2.082-0.141l0.089,0.09v0.883h0.032
			c0.102-0.103,0.229-0.225,0.381-0.365s0.296-0.258,0.432-0.346c0.157-0.103,0.344-0.188,0.56-0.254
			c0.216-0.068,0.459-0.103,0.729-0.103c0.602,0,1.047,0.187,1.336,0.562c0.291,0.375,0.436,0.873,0.436,1.496v3.256
			c0,0.147,0.025,0.268,0.076,0.357s0.138,0.162,0.26,0.213c0.102,0.042,0.189,0.072,0.263,0.09
			c0.074,0.016,0.177,0.028,0.308,0.037v0.417H142.227z"/>
		<path fill="#002A5C" d="M152.744,125.664c0,0.939-0.296,1.729-0.889,2.368c-0.592,0.639-1.28,0.958-2.063,0.958
			c-0.343,0-0.681-0.053-1.013-0.159c-0.332-0.104-0.645-0.247-0.937-0.425l-0.47,0.729l-0.395-0.089
			c0.021-0.312,0.037-0.688,0.045-1.13s0.013-0.866,0.013-1.277v-6.199c0-0.144-0.033-0.287-0.099-0.432s-0.149-0.248-0.25-0.312
			c-0.082-0.055-0.215-0.096-0.403-0.123s-0.341-0.045-0.454-0.055v-0.406l2.298-0.139l0.089,0.096v4.125l0.045,0.014
			c0.262-0.279,0.549-0.489,0.859-0.629c0.312-0.141,0.617-0.209,0.917-0.209c0.771,0,1.414,0.305,1.93,0.914
			C152.484,123.893,152.744,124.688,152.744,125.664z M151.417,125.708c0-0.312-0.034-0.632-0.103-0.958
			c-0.067-0.326-0.172-0.609-0.316-0.852c-0.145-0.244-0.332-0.443-0.564-0.597c-0.233-0.153-0.513-0.229-0.838-0.229
			c-0.297,0-0.556,0.059-0.779,0.175c-0.221,0.116-0.422,0.273-0.6,0.473v3.645c0.025,0.102,0.075,0.22,0.149,0.354
			c0.073,0.136,0.174,0.265,0.301,0.388c0.127,0.119,0.271,0.215,0.433,0.289c0.16,0.073,0.356,0.11,0.59,0.11
			c0.516,0,0.933-0.25,1.25-0.749C151.256,127.259,151.417,126.576,151.417,125.708z"/>
		<path fill="#002A5C" d="M158.593,123.348c0,0.217-0.053,0.407-0.159,0.574c-0.105,0.167-0.269,0.251-0.488,0.251
			c-0.237,0-0.418-0.062-0.543-0.185s-0.188-0.258-0.188-0.406c0-0.093,0.008-0.178,0.021-0.254
			c0.016-0.076,0.029-0.152,0.041-0.229c-0.198,0-0.432,0.08-0.697,0.24c-0.266,0.161-0.493,0.391-0.68,0.686v3.645
			c0,0.148,0.029,0.27,0.086,0.362c0.058,0.093,0.146,0.161,0.27,0.209c0.105,0.042,0.242,0.073,0.41,0.096
			c0.167,0.021,0.312,0.035,0.436,0.044v0.419H153.8v-0.419c0.097-0.009,0.198-0.017,0.302-0.025
			c0.104-0.008,0.193-0.024,0.271-0.051c0.119-0.037,0.206-0.104,0.265-0.199c0.057-0.096,0.084-0.219,0.084-0.371v-3.86
			c0-0.131-0.031-0.26-0.092-0.388c-0.061-0.127-0.146-0.229-0.257-0.305c-0.081-0.051-0.176-0.087-0.286-0.109
			c-0.109-0.023-0.229-0.039-0.355-0.049v-0.418l2.082-0.141l0.09,0.09v0.883h0.031c0.263-0.345,0.555-0.604,0.877-0.781
			c0.321-0.178,0.615-0.268,0.881-0.268c0.267,0,0.484,0.088,0.652,0.262C158.51,122.822,158.593,123.057,158.593,123.348z"/>
		<path fill="#002A5C" d="M165.186,128.686c-0.199,0.072-0.373,0.131-0.522,0.176c-0.149,0.044-0.321,0.065-0.511,0.065
			c-0.33,0-0.594-0.077-0.791-0.231c-0.196-0.153-0.322-0.379-0.377-0.676h-0.039c-0.274,0.305-0.569,0.537-0.885,0.698
			c-0.314,0.16-0.694,0.24-1.14,0.24c-0.47,0-0.856-0.144-1.157-0.433c-0.304-0.286-0.455-0.664-0.455-1.129
			c0-0.241,0.034-0.457,0.103-0.647c0.067-0.188,0.169-0.36,0.305-0.515c0.106-0.127,0.246-0.239,0.419-0.34
			c0.174-0.1,0.336-0.179,0.489-0.237c0.19-0.071,0.577-0.205,1.159-0.399c0.582-0.193,0.974-0.347,1.177-0.457v-0.628
			c0-0.056-0.012-0.161-0.035-0.317c-0.022-0.156-0.073-0.306-0.149-0.443c-0.084-0.157-0.203-0.294-0.357-0.41
			s-0.374-0.174-0.656-0.174c-0.195,0-0.375,0.031-0.544,0.098c-0.167,0.065-0.284,0.135-0.352,0.207
			c0,0.084,0.021,0.209,0.06,0.374c0.041,0.165,0.061,0.317,0.061,0.457c0,0.147-0.065,0.283-0.199,0.406
			c-0.133,0.123-0.318,0.185-0.555,0.185c-0.211,0-0.367-0.074-0.467-0.226c-0.1-0.149-0.148-0.318-0.148-0.505
			c0-0.194,0.068-0.381,0.206-0.559c0.138-0.179,0.315-0.336,0.536-0.478c0.19-0.118,0.422-0.22,0.693-0.302
			c0.271-0.082,0.534-0.123,0.793-0.123c0.354,0,0.666,0.023,0.93,0.072s0.504,0.153,0.72,0.314c0.216,0.156,0.38,0.369,0.491,0.639
			c0.113,0.269,0.169,0.613,0.169,1.037c0,0.604-0.007,1.141-0.019,1.608c-0.014,0.467-0.02,0.979-0.02,1.532
			c0,0.166,0.029,0.297,0.085,0.395c0.058,0.098,0.146,0.18,0.264,0.248c0.063,0.037,0.164,0.059,0.302,0.062
			s0.278,0.006,0.422,0.006v0.408H165.186z M162.971,125.334c-0.361,0.105-0.676,0.21-0.947,0.312
			c-0.271,0.102-0.521,0.229-0.754,0.381c-0.211,0.146-0.379,0.315-0.502,0.513c-0.123,0.196-0.184,0.433-0.184,0.703
			c0,0.353,0.092,0.61,0.275,0.776c0.186,0.164,0.418,0.248,0.703,0.248c0.299,0,0.564-0.074,0.793-0.221
			c0.228-0.146,0.42-0.318,0.578-0.52L162.971,125.334z"/>
		<path fill="#002A5C" d="M168.973,128.8h-3.021v-0.419c0.097-0.009,0.197-0.017,0.302-0.025c0.104-0.008,0.192-0.024,0.271-0.051
			c0.119-0.037,0.205-0.104,0.264-0.199c0.057-0.096,0.085-0.219,0.085-0.371v-3.86c0-0.136-0.031-0.259-0.092-0.371
			c-0.062-0.112-0.147-0.206-0.257-0.282c-0.082-0.051-0.197-0.094-0.35-0.13s-0.292-0.058-0.419-0.065v-0.42l2.209-0.14
			l0.089,0.089v5.104c0,0.147,0.028,0.271,0.086,0.368c0.057,0.097,0.146,0.168,0.268,0.216c0.092,0.038,0.183,0.067,0.271,0.092
			c0.088,0.024,0.187,0.039,0.295,0.048V128.8L168.973,128.8z M168.178,119.995c0,0.241-0.08,0.452-0.238,0.632
			s-0.354,0.271-0.586,0.271c-0.217,0-0.403-0.086-0.562-0.258c-0.158-0.172-0.238-0.367-0.238-0.588
			c0-0.232,0.08-0.436,0.238-0.609c0.159-0.174,0.346-0.26,0.562-0.26c0.24,0,0.438,0.082,0.592,0.244
			C168.102,119.591,168.178,119.78,168.178,119.995z"/>
		<path fill="#002A5C" d="M172.809,128.8h-3.053v-0.419c0.098-0.009,0.201-0.018,0.311-0.027c0.11-0.011,0.201-0.026,0.273-0.049
			c0.119-0.037,0.208-0.104,0.268-0.199c0.059-0.096,0.088-0.22,0.088-0.373v-7.254c0-0.151-0.032-0.295-0.098-0.429
			c-0.065-0.133-0.15-0.237-0.257-0.313c-0.075-0.051-0.216-0.098-0.419-0.141c-0.203-0.041-0.365-0.066-0.488-0.076v-0.405
			l2.354-0.14l0.089,0.096v8.588c0,0.148,0.027,0.27,0.083,0.365c0.056,0.095,0.144,0.168,0.267,0.219
			c0.094,0.042,0.186,0.074,0.276,0.096s0.192,0.035,0.308,0.044v0.418H172.809z"/>
		<path fill="#002A5C" d="M176.658,128.8h-3.053v-0.419c0.097-0.009,0.201-0.018,0.311-0.027c0.109-0.011,0.201-0.026,0.273-0.049
			c0.119-0.037,0.207-0.104,0.267-0.199s0.089-0.22,0.089-0.373v-7.254c0-0.151-0.033-0.295-0.098-0.429
			c-0.066-0.133-0.151-0.237-0.258-0.313c-0.075-0.051-0.215-0.098-0.418-0.141c-0.203-0.041-0.367-0.066-0.489-0.076v-0.405
			l2.354-0.14l0.09,0.096v8.588c0,0.148,0.026,0.27,0.082,0.365c0.055,0.095,0.145,0.168,0.268,0.219
			c0.093,0.042,0.185,0.074,0.275,0.096c0.092,0.021,0.193,0.035,0.309,0.044v0.418H176.658z"/>
		<path fill="#002A5C" d="M183.136,127.327c-0.262,0.499-0.614,0.897-1.054,1.192c-0.439,0.297-0.946,0.444-1.518,0.444
			c-0.502,0-0.944-0.089-1.323-0.267c-0.378-0.178-0.69-0.42-0.937-0.725s-0.428-0.66-0.549-1.065
			c-0.12-0.406-0.181-0.837-0.181-1.288c0-0.406,0.063-0.807,0.192-1.197c0.129-0.392,0.319-0.742,0.568-1.057
			c0.241-0.301,0.541-0.543,0.898-0.727c0.356-0.186,0.758-0.277,1.203-0.277c0.457,0,0.849,0.072,1.174,0.217
			c0.324,0.145,0.59,0.341,0.793,0.59c0.195,0.236,0.339,0.518,0.435,0.838c0.095,0.322,0.144,0.671,0.144,1.048v0.419h-4.146
			c0,0.411,0.039,0.785,0.118,1.12c0.078,0.335,0.202,0.63,0.371,0.884c0.165,0.246,0.381,0.44,0.646,0.582
			c0.268,0.144,0.584,0.213,0.952,0.213c0.376,0,0.701-0.088,0.976-0.265c0.271-0.176,0.535-0.493,0.789-0.954L183.136,127.327z
			 M181.732,124.939c0-0.235-0.02-0.488-0.06-0.76c-0.041-0.27-0.104-0.494-0.194-0.677c-0.097-0.194-0.229-0.353-0.399-0.476
			c-0.17-0.121-0.388-0.184-0.654-0.184c-0.444,0-0.813,0.186-1.108,0.555c-0.293,0.369-0.453,0.883-0.479,1.541H181.732
			L181.732,124.939z"/>
		<path fill="#002A5C" d="M186.167,128.068c0,0.238-0.085,0.439-0.257,0.606c-0.171,0.167-0.375,0.251-0.612,0.251
			s-0.44-0.084-0.612-0.251s-0.256-0.368-0.256-0.606c0-0.235,0.084-0.439,0.256-0.611c0.172-0.171,0.375-0.257,0.612-0.257
			s0.441,0.086,0.612,0.257C186.082,127.629,186.167,127.833,186.167,128.068z"/>
	</g>
</g>
<line fill="none" stroke="#262728" stroke-linecap="round" stroke-miterlimit="10" stroke-dasharray="1,3" x1="77" y1="56.5" x2="122" y2="56.5"/>
</svg>
