<?xml version="1.0" encoding="utf-8"?>
<!-- Generator: Adobe Illustrator 16.0.4, SVG Export Plug-In . SVG Version: 6.00 Build 0)  -->
<!DOCTYPE svg PUBLIC "-//W3C//DTD SVG 1.1//EN" "http://www.w3.org/Graphics/SVG/1.1/DTD/svg11.dtd">
<svg version="1.1" id="Layer_1" xmlns="http://www.w3.org/2000/svg" xmlns:xlink="http://www.w3.org/1999/xlink" x="0px" y="0px"
	 width="219px" height="151px" viewBox="-12 0 219 151" enable-background="new -12 0 219 151" xml:space="preserve">
<g>
	<g>
		<path fill="#002A5C" d="M56.393,18.643c0.773-0.504,1.731-0.908,2.874-1.213s2.399-0.457,3.771-0.457
			c2.684,0,4.813,0.489,6.39,1.468s2.364,2.376,2.364,4.192c0,1.371-0.275,2.584-0.826,3.639s-1.295,1.963-2.232,2.725
			c-0.902,0.738-1.896,1.371-2.979,1.898s-2.142,0.979-3.173,1.354c-0.996,0.363-2.188,0.791-3.577,1.283s-2.651,0.973-3.788,1.441
			l-0.07,0.281h14.889L68.943,40H49.889l0.791-3.516c0.621-0.48,1.351-0.973,2.188-1.477s1.573-0.943,2.206-1.318
			c0.668-0.387,1.479-0.853,2.435-1.397s1.731-1.017,2.329-1.415c0.68-0.445,1.348-0.955,2.004-1.529s1.242-1.242,1.758-2.004
			c0.516-0.785,0.908-1.579,1.178-2.382s0.404-1.767,0.404-2.892c0-1.078-0.287-1.922-0.861-2.531s-1.348-0.914-2.32-0.914
			c-0.68,0-1.233,0.064-1.661,0.193s-0.817,0.264-1.169,0.404c0.164,0.457,0.334,0.955,0.51,1.494s0.264,1.113,0.264,1.723
			c0,0.832-0.287,1.521-0.861,2.065s-1.324,0.817-2.25,0.817c-0.879,0-1.579-0.287-2.101-0.861s-0.782-1.271-0.782-2.092
			c0-0.645,0.208-1.295,0.624-1.951S55.596,19.17,56.393,18.643z"/>
		<path fill="#002A5C" d="M95.161,19.662c0.738,0.82,1.286,1.784,1.644,2.892s0.536,2.306,0.536,3.595
			c0,2.109-0.357,4.072-1.072,5.889s-1.676,3.34-2.883,4.57c-1.242,1.289-2.657,2.279-4.245,2.971s-3.308,1.037-5.159,1.037
			c-1.512,0-2.842-0.226-3.99-0.677s-2.098-1.081-2.848-1.89c-0.762-0.809-1.333-1.77-1.714-2.883s-0.571-2.332-0.571-3.656
			c0-1.957,0.299-3.782,0.896-5.476s1.488-3.237,2.672-4.632c1.137-1.348,2.543-2.423,4.219-3.226s3.533-1.204,5.572-1.204
			c1.582,0,2.95,0.24,4.104,0.721S94.422,18.83,95.161,19.662z M89.184,34.221c0.586-1.486,1.034-3.129,1.345-4.926
			c0.311-1.798,0.466-3.627,0.466-5.489c0-0.784-0.056-1.507-0.167-2.169c-0.111-0.661-0.296-1.232-0.554-1.712
			c-0.246-0.469-0.562-0.831-0.949-1.089s-0.855-0.387-1.406-0.387c-0.938,0-1.822,0.41-2.654,1.229s-1.605,2.125-2.32,3.917
			c-0.551,1.439-0.979,3.062-1.283,4.864c-0.305,1.804-0.457,3.548-0.457,5.234c0,0.866,0.053,1.613,0.158,2.239
			s0.287,1.191,0.545,1.694c0.234,0.469,0.551,0.838,0.949,1.106c0.398,0.27,0.879,0.404,1.441,0.404
			c0.984,0,1.898-0.447,2.742-1.344C87.883,36.899,88.598,35.708,89.184,34.221z"/>
		<path fill="#002A5C" d="M120.764,19.662c0.738,0.82,1.285,1.784,1.643,2.892s0.537,2.306,0.537,3.595
			c0,2.109-0.357,4.072-1.072,5.889s-1.676,3.34-2.883,4.57c-1.242,1.289-2.658,2.279-4.246,2.971s-3.307,1.037-5.158,1.037
			c-1.512,0-2.842-0.226-3.99-0.677s-2.098-1.081-2.848-1.89c-0.762-0.809-1.334-1.77-1.715-2.883s-0.57-2.332-0.57-3.656
			c0-1.957,0.299-3.782,0.896-5.476s1.488-3.237,2.672-4.632c1.137-1.348,2.543-2.423,4.219-3.226s3.533-1.204,5.572-1.204
			c1.582,0,2.949,0.24,4.104,0.721S120.025,18.83,120.764,19.662z M114.787,34.221c0.586-1.486,1.033-3.129,1.344-4.926
			c0.311-1.798,0.467-3.627,0.467-5.489c0-0.784-0.057-1.507-0.168-2.169c-0.111-0.661-0.295-1.232-0.553-1.712
			c-0.246-0.469-0.562-0.831-0.949-1.089s-0.855-0.387-1.406-0.387c-0.938,0-1.822,0.41-2.654,1.229s-1.605,2.125-2.32,3.917
			c-0.551,1.439-0.979,3.062-1.283,4.864c-0.305,1.804-0.457,3.548-0.457,5.234c0,0.866,0.053,1.613,0.158,2.239
			s0.287,1.191,0.545,1.694c0.234,0.469,0.551,0.838,0.949,1.106c0.398,0.27,0.879,0.404,1.441,0.404
			c0.984,0,1.898-0.447,2.742-1.344C113.486,36.899,114.201,35.708,114.787,34.221z"/>
		<path fill="#002A5C" d="M138.736,40h-14.502l0.281-1.266c0.363-0.023,0.938-0.082,1.723-0.176s1.33-0.188,1.635-0.281
			c0.34-0.105,0.653-0.305,0.94-0.598s0.483-0.68,0.589-1.16l3.428-14.818h-4.447l0.368-1.6h0.491c1.029,0,1.965-0.111,2.807-0.334
			s1.573-0.492,2.193-0.809c0.631-0.316,1.181-0.659,1.648-1.028s0.812-0.677,1.035-0.923h3.088
			c-0.245,0.878-0.486,1.774-0.725,2.688c-0.238,0.913-0.463,1.821-0.672,2.723l-3.143,13.589c-0.035,0.141-0.068,0.305-0.097,0.492
			c-0.029,0.188-0.044,0.34-0.044,0.458c0,0.281,0.062,0.516,0.185,0.703c0.123,0.188,0.296,0.347,0.521,0.475
			c0.258,0.142,0.729,0.271,1.41,0.388s1.204,0.188,1.568,0.211L138.736,40z"/>
	</g>
</g>
<g>
	<g>
		<path fill="#002A5C" d="M16.246,98.321L16.056,101h-7.04v-0.451c0.102-0.008,0.249-0.022,0.441-0.044
			c0.192-0.021,0.327-0.049,0.403-0.083c0.127-0.055,0.219-0.135,0.276-0.24c0.058-0.106,0.086-0.242,0.086-0.406v-6.449
			c0-0.145-0.024-0.271-0.073-0.381c-0.048-0.11-0.145-0.199-0.289-0.268c-0.097-0.051-0.234-0.1-0.41-0.148
			c-0.175-0.049-0.32-0.077-0.435-0.086v-0.451h3.802v0.451c-0.119,0.004-0.272,0.025-0.46,0.063
			c-0.188,0.038-0.325,0.072-0.409,0.102c-0.144,0.051-0.242,0.138-0.295,0.261c-0.053,0.122-0.08,0.254-0.08,0.393v6.05
			c0,0.279,0.014,0.496,0.042,0.65c0.027,0.154,0.092,0.274,0.193,0.358c0.097,0.076,0.242,0.126,0.435,0.149
			c0.193,0.023,0.462,0.035,0.81,0.035c0.157,0,0.319-0.004,0.489-0.013s0.33-0.025,0.482-0.051c0.148-0.025,0.285-0.061,0.41-0.104
			c0.125-0.045,0.217-0.101,0.276-0.169c0.173-0.194,0.375-0.489,0.606-0.885c0.231-0.396,0.391-0.717,0.479-0.962H16.246z"/>
		<path fill="#002A5C" d="M18.833,92.583c0,0.279-0.061,0.534-0.181,0.765c-0.121,0.23-0.266,0.431-0.435,0.6
			c-0.169,0.174-0.355,0.329-0.559,0.467s-0.366,0.238-0.489,0.302l-0.216-0.374c0.173-0.102,0.34-0.207,0.498-0.314
			c0.159-0.108,0.281-0.211,0.365-0.309c0.114-0.127,0.205-0.259,0.273-0.396s0.11-0.318,0.127-0.543h-0.305
			c-0.267,0-0.474-0.067-0.622-0.203c-0.148-0.135-0.222-0.323-0.222-0.564c0-0.174,0.068-0.338,0.203-0.492
			s0.319-0.231,0.552-0.231c0.36,0,0.618,0.119,0.774,0.358S18.833,92.198,18.833,92.583z"/>
		<path fill="#002A5C" d="M27.341,93.059c0.398,0.415,0.709,0.916,0.933,1.502s0.336,1.234,0.336,1.945
			c0,0.715-0.114,1.365-0.343,1.949s-0.546,1.081-0.952,1.491c-0.394,0.406-0.851,0.72-1.371,0.939s-1.075,0.33-1.663,0.33
			c-0.626,0-1.205-0.117-1.736-0.353c-0.531-0.234-0.987-0.562-1.368-0.98c-0.381-0.41-0.68-0.909-0.898-1.495
			c-0.218-0.586-0.327-1.213-0.327-1.882c0-0.732,0.114-1.385,0.343-1.958s0.544-1.069,0.946-1.489
			c0.398-0.414,0.86-0.731,1.387-0.951c0.526-0.221,1.078-0.33,1.653-0.33c0.597,0,1.16,0.111,1.688,0.336
			S26.956,92.652,27.341,93.059z M26.396,99.445c0.237-0.386,0.41-0.821,0.517-1.309c0.108-0.486,0.162-1.03,0.162-1.631
			c0-0.618-0.061-1.185-0.181-1.701c-0.121-0.517-0.297-0.956-0.53-1.32c-0.233-0.359-0.525-0.64-0.876-0.841
			s-0.753-0.302-1.206-0.302c-0.508,0-0.939,0.116-1.295,0.35c-0.355,0.232-0.646,0.543-0.87,0.933
			c-0.211,0.372-0.369,0.809-0.473,1.308c-0.104,0.499-0.155,1.024-0.155,1.574c0,0.609,0.055,1.159,0.165,1.65
			s0.284,0.927,0.521,1.308c0.229,0.372,0.516,0.663,0.863,0.873c0.347,0.209,0.762,0.313,1.244,0.313
			c0.453,0,0.861-0.105,1.225-0.316C25.871,100.122,26.167,99.826,26.396,99.445z"/>
		<path fill="#002A5C" d="M33.835,101.216c-0.537,0-1.052-0.105-1.544-0.317s-0.929-0.517-1.31-0.915
			c-0.376-0.397-0.677-0.884-0.901-1.458c-0.224-0.573-0.336-1.221-0.336-1.94s0.11-1.373,0.33-1.959
			c0.22-0.587,0.524-1.092,0.914-1.516c0.384-0.419,0.839-0.742,1.363-0.972c0.524-0.229,1.084-0.343,1.681-0.343
			c0.444,0,0.845,0.055,1.205,0.165s0.702,0.265,1.027,0.463l0.26-0.432h0.508l0.057,3.213h-0.521
			c-0.068-0.313-0.169-0.653-0.304-1.02s-0.294-0.676-0.476-0.93c-0.203-0.288-0.444-0.513-0.723-0.676
			c-0.279-0.163-0.598-0.244-0.958-0.244c-0.41,0-0.792,0.091-1.145,0.272c-0.353,0.183-0.658,0.451-0.916,0.807
			c-0.245,0.344-0.438,0.779-0.577,1.309c-0.139,0.53-0.209,1.12-0.209,1.772c0,0.576,0.073,1.104,0.219,1.585
			c0.146,0.481,0.354,0.903,0.625,1.268c0.271,0.36,0.591,0.642,0.96,0.845c0.37,0.203,0.783,0.305,1.24,0.305
			c0.342,0,0.657-0.054,0.945-0.161c0.288-0.108,0.537-0.251,0.748-0.429c0.211-0.187,0.397-0.397,0.558-0.635
			s0.292-0.495,0.393-0.774l0.476,0.229c-0.364,0.893-0.846,1.531-1.446,1.914C35.378,101.024,34.664,101.216,33.835,101.216z"/>
		<path fill="#002A5C" d="M42.312,101.216c-0.537,0-1.052-0.105-1.544-0.317s-0.929-0.517-1.31-0.915
			c-0.376-0.397-0.677-0.884-0.901-1.458c-0.224-0.573-0.336-1.221-0.336-1.94s0.11-1.373,0.33-1.959
			c0.22-0.587,0.524-1.092,0.914-1.516c0.384-0.419,0.839-0.742,1.363-0.972c0.524-0.229,1.084-0.343,1.681-0.343
			c0.444,0,0.845,0.055,1.205,0.165s0.702,0.265,1.027,0.463L45,91.992h0.508l0.057,3.213h-0.521
			c-0.068-0.313-0.169-0.653-0.304-1.02s-0.294-0.676-0.476-0.93c-0.203-0.288-0.444-0.513-0.723-0.676
			c-0.279-0.163-0.598-0.244-0.958-0.244c-0.41,0-0.792,0.091-1.145,0.272c-0.353,0.183-0.658,0.451-0.916,0.807
			c-0.245,0.344-0.438,0.779-0.577,1.309c-0.139,0.53-0.209,1.12-0.209,1.772c0,0.576,0.073,1.104,0.219,1.585
			c0.146,0.481,0.354,0.903,0.625,1.268c0.271,0.36,0.591,0.642,0.96,0.845c0.37,0.203,0.783,0.305,1.24,0.305
			c0.342,0,0.657-0.054,0.945-0.161c0.288-0.108,0.537-0.251,0.748-0.429c0.211-0.187,0.397-0.397,0.558-0.635
			s0.292-0.495,0.393-0.774l0.476,0.229c-0.364,0.893-0.846,1.531-1.446,1.914C43.855,101.024,43.141,101.216,42.312,101.216z"/>
		<path fill="#002A5C" d="M54.026,101H49.97v-0.451c0.114-0.008,0.279-0.021,0.495-0.037c0.216-0.018,0.368-0.043,0.457-0.076
			c0.14-0.056,0.241-0.131,0.305-0.226c0.063-0.096,0.095-0.228,0.095-0.397v-6.525c0-0.147-0.023-0.271-0.07-0.371
			s-0.157-0.183-0.33-0.25c-0.127-0.051-0.287-0.099-0.479-0.144c-0.193-0.044-0.351-0.07-0.473-0.079v-0.451h4.056v0.451
			c-0.131,0.004-0.288,0.021-0.47,0.048s-0.341,0.062-0.476,0.104c-0.161,0.051-0.269,0.133-0.324,0.248
			c-0.055,0.113-0.083,0.24-0.083,0.381v6.519c0,0.14,0.031,0.264,0.092,0.371c0.061,0.108,0.166,0.194,0.314,0.257
			c0.089,0.034,0.234,0.071,0.435,0.111c0.201,0.04,0.371,0.062,0.511,0.066V101z"/>
		<path fill="#002A5C" d="M62.612,94.437h-0.438c-0.038-0.152-0.107-0.333-0.207-0.543c-0.1-0.209-0.211-0.407-0.333-0.593
			c-0.127-0.195-0.267-0.365-0.417-0.512c-0.15-0.146-0.296-0.229-0.436-0.25c-0.132-0.018-0.297-0.03-0.497-0.039
			c-0.199-0.008-0.384-0.012-0.553-0.012h-0.369v7.204c0,0.14,0.03,0.268,0.089,0.384s0.163,0.207,0.311,0.27
			c0.076,0.03,0.236,0.07,0.479,0.121c0.244,0.051,0.433,0.078,0.568,0.082V101h-4.253v-0.451c0.119-0.008,0.299-0.025,0.543-0.051
			c0.243-0.025,0.411-0.057,0.504-0.095c0.14-0.055,0.242-0.135,0.308-0.238c0.065-0.104,0.098-0.242,0.098-0.415v-7.262h-0.368
			c-0.131,0-0.294,0.003-0.489,0.009c-0.195,0.007-0.381,0.021-0.559,0.042c-0.14,0.017-0.285,0.1-0.435,0.25
			c-0.15,0.15-0.289,0.32-0.416,0.512c-0.127,0.189-0.239,0.392-0.336,0.605s-0.165,0.391-0.203,0.53H54.76v-2.444h7.852V94.437z"/>
		<path fill="#002A5C" d="M71.857,101h-3.744v-0.451c0.33-0.021,0.604-0.062,0.822-0.127c0.218-0.062,0.327-0.142,0.327-0.234
			c0-0.038-0.004-0.085-0.013-0.14s-0.021-0.104-0.038-0.146l-0.746-2.02h-3.162c-0.119,0.297-0.215,0.555-0.289,0.775
			c-0.074,0.22-0.141,0.423-0.201,0.609c-0.055,0.182-0.093,0.33-0.114,0.443c-0.021,0.115-0.032,0.208-0.032,0.279
			c0,0.17,0.133,0.301,0.4,0.395c0.267,0.093,0.567,0.147,0.901,0.164V101h-3.392v-0.451c0.11-0.008,0.248-0.032,0.413-0.072
			s0.3-0.095,0.406-0.162c0.169-0.114,0.3-0.233,0.394-0.358s0.184-0.298,0.273-0.518c0.453-1.13,0.952-2.399,1.498-3.809
			s1.033-2.664,1.46-3.765h0.508l3.002,7.77c0.063,0.166,0.135,0.299,0.216,0.4s0.192,0.201,0.336,0.299
			c0.097,0.059,0.224,0.108,0.381,0.148s0.288,0.062,0.394,0.066V101z M68.233,97.318l-1.364-3.495l-1.345,3.495H68.233z"/>
		<path fill="#002A5C" d="M81.553,92.443c-0.119,0.004-0.3,0.038-0.546,0.102s-0.421,0.129-0.527,0.197
			c-0.152,0.105-0.255,0.309-0.308,0.609c-0.053,0.3-0.079,0.681-0.079,1.143v6.595h-0.552l-5.459-7.37v4.646
			c0,0.521,0.033,0.921,0.098,1.2c0.066,0.279,0.167,0.479,0.302,0.597c0.097,0.093,0.298,0.18,0.603,0.26
			c0.305,0.081,0.506,0.123,0.603,0.127V101h-3.694v-0.451c0.114-0.008,0.307-0.049,0.578-0.123s0.44-0.141,0.508-0.2
			c0.148-0.118,0.25-0.3,0.305-0.543s0.083-0.659,0.083-1.247v-4.438c0-0.194-0.034-0.389-0.102-0.584
			c-0.068-0.194-0.159-0.345-0.273-0.45c-0.152-0.14-0.359-0.259-0.619-0.358c-0.261-0.1-0.471-0.153-0.632-0.162v-0.451h2.573
			l5.063,6.867v-4.283c0-0.525-0.034-0.928-0.102-1.209s-0.165-0.469-0.292-0.562c-0.119-0.08-0.312-0.158-0.581-0.234
			c-0.269-0.076-0.473-0.118-0.613-0.127v-0.451h3.663V92.443z"/>
		<path fill="#002A5C" d="M89.985,98.347L89.814,101h-7.478v-0.451c0.127-0.008,0.296-0.026,0.508-0.054s0.349-0.056,0.413-0.085
			c0.135-0.064,0.229-0.146,0.283-0.248c0.053-0.102,0.079-0.23,0.079-0.387v-6.475c0-0.141-0.023-0.264-0.07-0.372
			c-0.046-0.107-0.144-0.195-0.292-0.263c-0.114-0.056-0.268-0.104-0.46-0.146c-0.192-0.042-0.346-0.067-0.46-0.076v-0.451h6.97
			v2.172H88.83c-0.084-0.322-0.268-0.664-0.549-1.025c-0.281-0.362-0.549-0.56-0.803-0.594c-0.131-0.017-0.288-0.029-0.47-0.038
			s-0.389-0.013-0.622-0.013h-1.416v3.58h1.016c0.326,0,0.564-0.03,0.714-0.092c0.15-0.062,0.282-0.164,0.396-0.309
			c0.093-0.122,0.172-0.286,0.238-0.491c0.065-0.205,0.109-0.399,0.13-0.581h0.476v3.529h-0.476
			c-0.017-0.203-0.062-0.418-0.137-0.645c-0.074-0.227-0.151-0.391-0.231-0.492c-0.131-0.164-0.28-0.272-0.447-0.323
			c-0.167-0.051-0.389-0.076-0.664-0.076h-1.016v2.7c0,0.27,0.019,0.483,0.057,0.64s0.112,0.274,0.222,0.354
			c0.11,0.081,0.26,0.133,0.451,0.155c0.19,0.023,0.461,0.035,0.812,0.035c0.14,0,0.324,0,0.552,0s0.421-0.009,0.578-0.025
			c0.161-0.017,0.327-0.048,0.498-0.092c0.172-0.045,0.293-0.104,0.365-0.181c0.195-0.203,0.399-0.512,0.612-0.924
			c0.214-0.413,0.351-0.717,0.41-0.911H89.985z"/>
		<path fill="#002A5C" d="M97.069,101h-3.053v-0.419c0.097-0.009,0.201-0.018,0.311-0.028s0.201-0.026,0.273-0.048
			c0.119-0.038,0.208-0.104,0.267-0.2c0.059-0.095,0.089-0.219,0.089-0.372v-7.254c0-0.152-0.033-0.295-0.098-0.429
			c-0.066-0.133-0.151-0.238-0.257-0.314c-0.076-0.051-0.216-0.098-0.419-0.14s-0.366-0.067-0.489-0.076v-0.406l2.355-0.14
			l0.089,0.096v8.588c0,0.148,0.027,0.27,0.083,0.365c0.055,0.095,0.144,0.168,0.267,0.219c0.093,0.042,0.185,0.074,0.276,0.096
			c0.091,0.021,0.193,0.035,0.308,0.044V101z"/>
		<path fill="#002A5C" d="M104.695,100.886l-2.043,0.14l-0.096-0.089v-0.794h-0.038c-0.102,0.106-0.216,0.22-0.343,0.34
			c-0.126,0.121-0.271,0.229-0.437,0.327c-0.19,0.114-0.374,0.201-0.552,0.261c-0.178,0.059-0.429,0.088-0.754,0.088
			c-0.553,0-0.975-0.181-1.264-0.542s-0.434-0.887-0.434-1.575v-2.993c0-0.152-0.029-0.28-0.086-0.384s-0.142-0.193-0.252-0.27
			c-0.077-0.051-0.173-0.087-0.288-0.11c-0.115-0.023-0.236-0.039-0.364-0.048v-0.419l2.088-0.152l0.095,0.089v4.348
			c0,0.453,0.102,0.794,0.305,1.022s0.446,0.343,0.729,0.343c0.233,0,0.44-0.036,0.623-0.107c0.182-0.072,0.334-0.156,0.457-0.254
			c0.113-0.089,0.215-0.183,0.301-0.282c0.087-0.1,0.154-0.191,0.2-0.275v-3.544c0-0.14-0.03-0.264-0.089-0.371
			c-0.059-0.108-0.142-0.2-0.248-0.276c-0.076-0.051-0.189-0.081-0.339-0.092c-0.15-0.011-0.319-0.02-0.505-0.028v-0.419
			l2.278-0.152l0.096,0.089v4.965c0,0.144,0.03,0.267,0.089,0.368c0.059,0.101,0.142,0.188,0.248,0.26
			c0.076,0.046,0.166,0.077,0.272,0.092s0.222,0.024,0.349,0.028V100.886z"/>
		<path fill="#002A5C" d="M108.488,101.165c-0.906,0-1.614-0.301-2.127-0.901c-0.512-0.601-0.768-1.407-0.768-2.418
			c0-0.44,0.068-0.853,0.206-1.235s0.338-0.73,0.601-1.044c0.249-0.301,0.562-0.543,0.939-0.727c0.376-0.185,0.787-0.276,1.23-0.276
			c0.614,0,1.113,0.147,1.498,0.441c0.386,0.294,0.578,0.694,0.578,1.202c0,0.212-0.051,0.399-0.152,0.562s-0.269,0.244-0.502,0.244
			c-0.249,0-0.443-0.063-0.58-0.189c-0.138-0.127-0.207-0.269-0.207-0.424c0-0.19,0.025-0.386,0.076-0.586s0.081-0.347,0.09-0.439
			c-0.076-0.131-0.189-0.219-0.34-0.263c-0.149-0.044-0.311-0.066-0.484-0.066c-0.202,0-0.395,0.043-0.578,0.13
			s-0.363,0.247-0.535,0.479c-0.156,0.212-0.283,0.497-0.381,0.856c-0.097,0.36-0.145,0.79-0.145,1.289
			c0,0.787,0.174,1.43,0.522,1.927s0.806,0.745,1.372,0.745c0.41,0,0.753-0.1,1.029-0.3c0.277-0.199,0.534-0.499,0.771-0.899
			l0.405,0.267c-0.279,0.499-0.646,0.896-1.104,1.187C109.447,101.02,108.975,101.165,108.488,101.165z"/>
		<path fill="#002A5C" d="M118.438,101h-3.079v-0.419c0.098-0.009,0.205-0.017,0.324-0.025s0.216-0.025,0.292-0.051
			c0.118-0.038,0.206-0.104,0.263-0.2c0.059-0.095,0.086-0.219,0.086-0.371v-3.219c0-0.443-0.104-0.787-0.314-1.027
			c-0.21-0.242-0.466-0.362-0.767-0.362c-0.221,0-0.425,0.035-0.614,0.104c-0.188,0.07-0.357,0.156-0.506,0.258
			c-0.145,0.105-0.254,0.211-0.33,0.316c-0.077,0.106-0.137,0.195-0.179,0.268v3.599c0,0.144,0.028,0.263,0.085,0.355
			c0.059,0.093,0.146,0.165,0.264,0.216c0.094,0.042,0.189,0.074,0.289,0.096c0.1,0.021,0.209,0.035,0.327,0.044V101h-3.065v-0.419
			c0.096-0.009,0.197-0.018,0.303-0.028c0.104-0.011,0.193-0.026,0.264-0.048c0.118-0.038,0.207-0.104,0.266-0.2
			c0.059-0.095,0.088-0.219,0.088-0.372v-7.292c0-0.144-0.033-0.288-0.098-0.432c-0.066-0.145-0.152-0.252-0.258-0.324
			c-0.076-0.055-0.211-0.094-0.402-0.117c-0.193-0.023-0.349-0.039-0.467-0.048v-0.406l2.316-0.14l0.089,0.096v4.367h0.025
			c0.14-0.141,0.267-0.264,0.382-0.372c0.114-0.107,0.265-0.221,0.451-0.339c0.161-0.102,0.351-0.187,0.568-0.254
			c0.219-0.068,0.464-0.102,0.734-0.102c0.561,0,0.99,0.176,1.291,0.529s0.451,0.862,0.451,1.527v3.256
			c0,0.148,0.027,0.268,0.08,0.358c0.054,0.091,0.143,0.162,0.266,0.213c0.098,0.038,0.187,0.066,0.266,0.086
			c0.078,0.019,0.182,0.032,0.31,0.041V101z"/>
		<path fill="#002A5C" d="M125.252,100.886c-0.198,0.072-0.373,0.13-0.523,0.175c-0.15,0.044-0.32,0.066-0.511,0.066
			c-0.33,0-0.593-0.077-0.79-0.231s-0.322-0.38-0.378-0.677h-0.038c-0.275,0.305-0.57,0.538-0.885,0.699
			c-0.316,0.16-0.695,0.24-1.141,0.24c-0.469,0-0.855-0.144-1.158-0.432c-0.303-0.287-0.453-0.664-0.453-1.129
			c0-0.242,0.033-0.457,0.102-0.648c0.067-0.189,0.169-0.361,0.305-0.514c0.105-0.127,0.245-0.24,0.418-0.34
			c0.174-0.1,0.337-0.179,0.489-0.238c0.19-0.071,0.577-0.205,1.159-0.399c0.581-0.194,0.974-0.347,1.177-0.457v-0.628
			c0-0.056-0.012-0.161-0.034-0.318c-0.023-0.156-0.074-0.305-0.15-0.443c-0.084-0.157-0.203-0.294-0.357-0.41
			c-0.155-0.116-0.374-0.174-0.658-0.174c-0.194,0-0.375,0.032-0.543,0.098c-0.166,0.065-0.283,0.135-0.352,0.207
			c0,0.084,0.02,0.209,0.061,0.374c0.04,0.165,0.061,0.317,0.061,0.457c0,0.148-0.066,0.283-0.201,0.406
			c-0.133,0.123-0.318,0.185-0.555,0.185c-0.211,0-0.367-0.075-0.467-0.226s-0.148-0.318-0.148-0.505
			c0-0.194,0.068-0.381,0.205-0.559c0.139-0.178,0.316-0.336,0.537-0.477c0.19-0.118,0.421-0.219,0.691-0.301
			c0.271-0.083,0.535-0.124,0.794-0.124c0.355,0,0.665,0.024,0.931,0.073c0.264,0.049,0.504,0.153,0.72,0.314
			c0.216,0.156,0.38,0.369,0.491,0.638c0.113,0.269,0.169,0.614,0.169,1.038c0,0.604-0.007,1.141-0.019,1.608
			c-0.014,0.468-0.02,0.979-0.02,1.533c0,0.165,0.029,0.296,0.086,0.394s0.145,0.18,0.264,0.248
			c0.062,0.037,0.164,0.059,0.301,0.062c0.138,0.005,0.278,0.007,0.422,0.007V100.886z M123.037,97.534
			c-0.359,0.106-0.675,0.21-0.945,0.312c-0.271,0.102-0.523,0.229-0.756,0.382c-0.211,0.145-0.379,0.315-0.502,0.512
			c-0.122,0.197-0.184,0.432-0.184,0.703c0,0.353,0.092,0.611,0.275,0.776c0.186,0.165,0.418,0.248,0.702,0.248
			c0.3,0,0.565-0.073,0.794-0.22s0.42-0.318,0.577-0.519L123.037,97.534z"/>
		<path fill="#002A5C" d="M132.164,101.165c-0.905,0-1.613-0.301-2.126-0.901s-0.769-1.407-0.769-2.418
			c0-0.44,0.069-0.853,0.207-1.235c0.137-0.383,0.338-0.73,0.6-1.044c0.25-0.301,0.562-0.543,0.939-0.727
			c0.377-0.185,0.787-0.276,1.231-0.276c0.614,0,1.112,0.147,1.498,0.441s0.577,0.694,0.577,1.202c0,0.212-0.051,0.399-0.152,0.562
			s-0.268,0.244-0.501,0.244c-0.249,0-0.443-0.063-0.581-0.189c-0.137-0.127-0.206-0.269-0.206-0.424
			c0-0.19,0.025-0.386,0.076-0.586s0.081-0.347,0.089-0.439c-0.076-0.131-0.189-0.219-0.339-0.263s-0.312-0.066-0.484-0.066
			c-0.202,0-0.396,0.043-0.579,0.13s-0.362,0.247-0.535,0.479c-0.156,0.212-0.283,0.497-0.38,0.856
			c-0.097,0.36-0.146,0.79-0.146,1.289c0,0.787,0.174,1.43,0.523,1.927c0.348,0.497,0.805,0.745,1.371,0.745
			c0.41,0,0.754-0.1,1.03-0.3c0.276-0.199,0.534-0.499,0.771-0.899l0.405,0.267c-0.279,0.499-0.647,0.896-1.104,1.187
			C133.123,101.02,132.651,101.165,132.164,101.165z"/>
		<path fill="#002A5C" d="M141.41,97.807c0,0.44-0.07,0.873-0.209,1.299c-0.141,0.425-0.34,0.786-0.598,1.082
			c-0.293,0.339-0.632,0.59-1.018,0.756c-0.385,0.164-0.816,0.247-1.296,0.247c-0.397,0-0.777-0.075-1.138-0.226
			c-0.359-0.15-0.68-0.369-0.959-0.656c-0.275-0.284-0.494-0.63-0.658-1.038c-0.162-0.408-0.244-0.866-0.244-1.374
			c0-0.979,0.285-1.777,0.854-2.4c0.569-0.621,1.316-0.933,2.24-0.933c0.876,0,1.601,0.295,2.17,0.886
			C141.125,96.039,141.41,96.825,141.41,97.807z M140.096,97.82c0-0.318-0.031-0.653-0.095-1.007s-0.159-0.652-0.286-0.897
			c-0.136-0.263-0.314-0.474-0.534-0.632c-0.221-0.159-0.489-0.238-0.808-0.238c-0.326,0-0.605,0.08-0.836,0.241
			c-0.231,0.161-0.419,0.381-0.563,0.66c-0.136,0.258-0.231,0.553-0.286,0.883s-0.082,0.649-0.082,0.958
			c0,0.406,0.032,0.782,0.098,1.127c0.066,0.345,0.171,0.652,0.315,0.923c0.144,0.271,0.325,0.484,0.544,0.639
			c0.218,0.154,0.488,0.231,0.811,0.231c0.529,0,0.949-0.256,1.259-0.769C139.941,99.428,140.096,98.721,140.096,97.82z"/>
		<path fill="#002A5C" d="M149.354,101h-3.059v-0.419c0.097-0.009,0.203-0.017,0.32-0.025c0.116-0.009,0.213-0.025,0.289-0.051
			c0.118-0.038,0.206-0.104,0.263-0.2c0.058-0.095,0.086-0.219,0.086-0.371v-3.219c0-0.443-0.104-0.787-0.315-1.027
			c-0.209-0.242-0.465-0.362-0.766-0.362c-0.226,0-0.432,0.035-0.617,0.104c-0.188,0.07-0.353,0.156-0.497,0.258
			c-0.14,0.097-0.251,0.201-0.334,0.313s-0.144,0.202-0.181,0.271v3.599c0,0.144,0.029,0.263,0.088,0.355
			c0.06,0.093,0.148,0.165,0.268,0.216c0.088,0.042,0.185,0.074,0.288,0.096c0.104,0.021,0.211,0.035,0.321,0.044V101h-3.066v-0.419
			c0.098-0.009,0.197-0.017,0.302-0.025c0.104-0.009,0.193-0.025,0.27-0.051c0.118-0.038,0.206-0.104,0.264-0.199
			c0.057-0.096,0.085-0.219,0.085-0.371v-3.861c0-0.144-0.03-0.275-0.092-0.396c-0.061-0.12-0.146-0.219-0.257-0.295
			c-0.081-0.051-0.176-0.087-0.286-0.11c-0.109-0.023-0.229-0.039-0.355-0.048v-0.419l2.082-0.14l0.09,0.089v0.883h0.031
			c0.102-0.102,0.229-0.224,0.381-0.365s0.297-0.258,0.432-0.346c0.156-0.102,0.343-0.187,0.559-0.254
			c0.216-0.068,0.459-0.102,0.73-0.102c0.601,0,1.046,0.187,1.336,0.562c0.289,0.374,0.435,0.872,0.435,1.495v3.256
			c0,0.148,0.025,0.268,0.076,0.358s0.138,0.162,0.261,0.213c0.102,0.042,0.189,0.072,0.263,0.089
			c0.074,0.017,0.177,0.029,0.308,0.038V101z"/>
		<path fill="#002A5C" d="M154.117,100.727c-0.274,0.115-0.535,0.211-0.78,0.289s-0.546,0.117-0.901,0.117
			c-0.525,0-0.895-0.132-1.107-0.396c-0.214-0.265-0.32-0.638-0.32-1.12v-4.24h-1.131v-0.609h1.156v-1.948h1.154v1.948h1.797v0.609
			h-1.783v3.497c0,0.263,0.009,0.481,0.028,0.657c0.019,0.176,0.064,0.329,0.136,0.46c0.068,0.123,0.17,0.217,0.305,0.279
			c0.136,0.064,0.318,0.096,0.547,0.096c0.105,0,0.261-0.01,0.466-0.028c0.206-0.02,0.351-0.044,0.435-0.073V100.727z"/>
		<path fill="#002A5C" d="M159.662,95.547c0,0.217-0.053,0.408-0.158,0.575c-0.106,0.167-0.27,0.251-0.489,0.251
			c-0.237,0-0.418-0.062-0.542-0.185c-0.125-0.123-0.188-0.258-0.188-0.406c0-0.093,0.007-0.178,0.021-0.254
			c0.016-0.076,0.029-0.152,0.041-0.229c-0.198,0-0.432,0.08-0.697,0.241c-0.268,0.161-0.494,0.39-0.68,0.686v3.644
			c0,0.148,0.029,0.269,0.086,0.362c0.057,0.093,0.146,0.162,0.27,0.209c0.105,0.042,0.242,0.074,0.41,0.096
			c0.166,0.021,0.312,0.035,0.434,0.044V101h-3.301v-0.419c0.098-0.009,0.198-0.017,0.303-0.025c0.104-0.009,0.193-0.025,0.27-0.051
			c0.118-0.038,0.205-0.104,0.264-0.199c0.057-0.096,0.085-0.219,0.085-0.371v-3.861c0-0.131-0.03-0.26-0.093-0.387
			c-0.061-0.127-0.146-0.229-0.256-0.305c-0.081-0.051-0.176-0.087-0.286-0.11s-0.229-0.039-0.355-0.048v-0.419l2.082-0.14
			l0.089,0.089v0.883h0.031c0.263-0.344,0.555-0.604,0.877-0.781c0.321-0.178,0.615-0.267,0.882-0.267s0.483,0.087,0.651,0.261
			C159.578,95.022,159.662,95.256,159.662,95.547z"/>
		<path fill="#002A5C" d="M166.254,100.886c-0.198,0.072-0.373,0.13-0.523,0.175c-0.15,0.044-0.32,0.066-0.511,0.066
			c-0.33,0-0.593-0.077-0.79-0.231s-0.322-0.38-0.378-0.677h-0.038c-0.275,0.305-0.57,0.538-0.885,0.699
			c-0.316,0.16-0.695,0.24-1.141,0.24c-0.469,0-0.855-0.144-1.158-0.432c-0.303-0.287-0.453-0.664-0.453-1.129
			c0-0.242,0.033-0.457,0.102-0.648c0.067-0.189,0.169-0.361,0.305-0.514c0.105-0.127,0.245-0.24,0.418-0.34
			c0.174-0.1,0.337-0.179,0.489-0.238c0.19-0.071,0.577-0.205,1.159-0.399c0.581-0.194,0.974-0.347,1.177-0.457v-0.628
			c0-0.056-0.012-0.161-0.034-0.318c-0.023-0.156-0.074-0.305-0.15-0.443c-0.084-0.157-0.203-0.294-0.357-0.41
			c-0.155-0.116-0.374-0.174-0.658-0.174c-0.194,0-0.375,0.032-0.543,0.098c-0.166,0.065-0.283,0.135-0.352,0.207
			c0,0.084,0.02,0.209,0.061,0.374c0.04,0.165,0.061,0.317,0.061,0.457c0,0.148-0.066,0.283-0.201,0.406
			c-0.133,0.123-0.318,0.185-0.555,0.185c-0.211,0-0.367-0.075-0.467-0.226s-0.148-0.318-0.148-0.505
			c0-0.194,0.068-0.381,0.205-0.559c0.139-0.178,0.316-0.336,0.537-0.477c0.19-0.118,0.421-0.219,0.691-0.301
			c0.271-0.083,0.535-0.124,0.794-0.124c0.355,0,0.665,0.024,0.931,0.073c0.264,0.049,0.504,0.153,0.72,0.314
			c0.216,0.156,0.38,0.369,0.491,0.638c0.113,0.269,0.169,0.614,0.169,1.038c0,0.604-0.007,1.141-0.019,1.608
			c-0.014,0.468-0.02,0.979-0.02,1.533c0,0.165,0.029,0.296,0.086,0.394s0.145,0.18,0.264,0.248
			c0.062,0.037,0.164,0.059,0.301,0.062c0.138,0.005,0.278,0.007,0.422,0.007V100.886z M164.039,97.534
			c-0.359,0.106-0.675,0.21-0.945,0.312c-0.271,0.102-0.523,0.229-0.756,0.382c-0.211,0.145-0.379,0.315-0.502,0.512
			c-0.122,0.197-0.184,0.432-0.184,0.703c0,0.353,0.092,0.611,0.275,0.776c0.186,0.165,0.418,0.248,0.702,0.248
			c0.3,0,0.565-0.073,0.794-0.22s0.42-0.318,0.577-0.519L164.039,97.534z"/>
		<path fill="#002A5C" d="M177.127,100.886l-2.189,0.14l-0.096-0.089v-0.584l-0.051-0.013c-0.219,0.245-0.49,0.446-0.814,0.604
			c-0.322,0.156-0.656,0.234-0.998,0.234c-0.355,0-0.698-0.079-1.029-0.238c-0.332-0.158-0.621-0.382-0.865-0.67
			c-0.25-0.291-0.447-0.643-0.594-1.053c-0.146-0.411-0.219-0.863-0.219-1.359c0-0.452,0.078-0.882,0.234-1.288
			s0.373-0.762,0.647-1.066c0.257-0.283,0.573-0.51,0.947-0.679c0.374-0.17,0.755-0.254,1.144-0.254c0.293,0,0.578,0.036,0.859,0.11
			s0.523,0.169,0.727,0.282v-2.181c0-0.179-0.03-0.341-0.09-0.487c-0.059-0.146-0.141-0.257-0.247-0.333
			c-0.118-0.081-0.278-0.14-0.479-0.176s-0.418-0.062-0.65-0.079v-0.394l2.564-0.14l0.096,0.095v8.438
			c0,0.147,0.027,0.273,0.086,0.377c0.057,0.104,0.141,0.191,0.25,0.264c0.08,0.051,0.197,0.082,0.35,0.095s0.291,0.021,0.418,0.025
			V100.886z M174.83,99.787v-3.662c-0.034-0.11-0.09-0.229-0.165-0.355c-0.076-0.127-0.171-0.243-0.285-0.35
			c-0.122-0.105-0.267-0.193-0.431-0.263c-0.165-0.07-0.357-0.104-0.576-0.104c-0.254,0-0.487,0.065-0.701,0.196
			c-0.213,0.131-0.402,0.319-0.566,0.565c-0.156,0.236-0.279,0.538-0.371,0.904c-0.09,0.366-0.136,0.771-0.136,1.215
			c0,0.355,0.034,0.679,0.102,0.969s0.182,0.56,0.342,0.809c0.147,0.237,0.337,0.428,0.567,0.572c0.23,0.144,0.504,0.215,0.82,0.215
			c0.338,0,0.617-0.073,0.84-0.222C174.49,100.128,174.678,99.965,174.83,99.787z"/>
		<path fill="#002A5C" d="M183.428,99.527c-0.263,0.499-0.614,0.897-1.055,1.193c-0.439,0.296-0.945,0.444-1.517,0.444
			c-0.503,0-0.944-0.089-1.323-0.267s-0.691-0.419-0.937-0.724s-0.429-0.66-0.55-1.066c-0.119-0.406-0.18-0.836-0.18-1.288
			c0-0.406,0.064-0.806,0.193-1.197s0.318-0.743,0.568-1.057c0.24-0.301,0.54-0.543,0.898-0.727
			c0.357-0.185,0.758-0.276,1.202-0.276c0.457,0,0.849,0.072,1.175,0.216c0.325,0.144,0.59,0.341,0.793,0.59
			c0.195,0.237,0.34,0.517,0.436,0.838c0.094,0.322,0.143,0.671,0.143,1.048v0.419h-4.146c0,0.411,0.039,0.785,0.118,1.12
			c0.078,0.335,0.201,0.63,0.371,0.884c0.164,0.246,0.381,0.44,0.646,0.582c0.268,0.143,0.584,0.213,0.953,0.213
			c0.376,0,0.701-0.088,0.975-0.265c0.271-0.176,0.535-0.494,0.789-0.954L183.428,99.527z M182.024,97.141
			c0-0.236-0.021-0.489-0.06-0.76c-0.041-0.27-0.105-0.495-0.194-0.677c-0.097-0.194-0.23-0.353-0.399-0.475
			c-0.17-0.122-0.388-0.184-0.654-0.184c-0.444,0-0.813,0.185-1.107,0.554c-0.295,0.369-0.454,0.883-0.479,1.541H182.024z"/>
		<path fill="#002A5C" d="M0.821,116.6h-3.053v-0.419c0.097-0.009,0.201-0.018,0.311-0.028s0.201-0.026,0.273-0.048
			c0.119-0.038,0.208-0.104,0.267-0.2c0.059-0.095,0.089-0.219,0.089-0.372v-7.254c0-0.152-0.033-0.295-0.098-0.429
			c-0.066-0.133-0.151-0.238-0.257-0.314c-0.076-0.051-0.216-0.098-0.419-0.14s-0.366-0.067-0.489-0.076v-0.406l2.355-0.14
			l0.089,0.096v8.588c0,0.148,0.027,0.27,0.083,0.365c0.055,0.095,0.144,0.168,0.267,0.219c0.093,0.042,0.185,0.074,0.276,0.096
			c0.091,0.021,0.193,0.035,0.308,0.044V116.6z"/>
		<path fill="#002A5C" d="M7.667,116.485c-0.199,0.072-0.374,0.13-0.523,0.175c-0.15,0.044-0.321,0.066-0.511,0.066
			c-0.33,0-0.593-0.077-0.791-0.231c-0.196-0.154-0.322-0.38-0.377-0.677H5.426c-0.275,0.305-0.57,0.538-0.885,0.699
			c-0.315,0.16-0.695,0.24-1.14,0.24c-0.47,0-0.856-0.144-1.158-0.432c-0.303-0.287-0.454-0.664-0.454-1.129
			c0-0.242,0.034-0.457,0.102-0.648c0.068-0.189,0.169-0.361,0.305-0.514c0.106-0.127,0.246-0.24,0.419-0.34
			s0.336-0.179,0.489-0.238c0.19-0.071,0.577-0.205,1.159-0.399c0.582-0.194,0.974-0.347,1.177-0.457v-0.628
			c0-0.056-0.012-0.161-0.035-0.318c-0.023-0.156-0.073-0.305-0.149-0.443c-0.084-0.157-0.204-0.294-0.358-0.41
			c-0.155-0.116-0.374-0.174-0.657-0.174c-0.195,0-0.375,0.032-0.543,0.098c-0.167,0.065-0.284,0.135-0.352,0.207
			c0,0.084,0.02,0.209,0.06,0.374c0.041,0.165,0.061,0.317,0.061,0.457c0,0.148-0.066,0.283-0.2,0.406
			c-0.133,0.123-0.318,0.185-0.555,0.185c-0.211,0-0.367-0.075-0.466-0.226c-0.1-0.15-0.149-0.318-0.149-0.505
			c0-0.194,0.069-0.381,0.206-0.559c0.138-0.178,0.316-0.336,0.537-0.477c0.19-0.118,0.421-0.219,0.692-0.301
			c0.271-0.083,0.535-0.124,0.793-0.124c0.355,0,0.666,0.024,0.93,0.073c0.264,0.049,0.504,0.153,0.72,0.314
			c0.216,0.156,0.38,0.369,0.492,0.638c0.112,0.269,0.168,0.614,0.168,1.038c0,0.604-0.006,1.141-0.019,1.608
			s-0.019,0.979-0.019,1.533c0,0.165,0.029,0.296,0.085,0.394c0.058,0.098,0.145,0.18,0.264,0.248
			c0.063,0.037,0.164,0.059,0.302,0.062c0.137,0.005,0.278,0.007,0.422,0.007V116.485z M5.452,113.134
			c-0.36,0.106-0.675,0.21-0.946,0.312s-0.522,0.229-0.755,0.382c-0.211,0.145-0.379,0.315-0.501,0.512
			c-0.123,0.197-0.184,0.432-0.184,0.703c0,0.353,0.092,0.611,0.276,0.776c0.185,0.165,0.418,0.248,0.702,0.248
			c0.3,0,0.565-0.073,0.793-0.22s0.421-0.318,0.578-0.519L5.452,113.134z"/>
		<path fill="#002A5C" d="M13.608,107.293c-0.199,0.113-0.36,0.212-0.482,0.294s-0.248,0.191-0.375,0.326
			c-0.119,0.126-0.209,0.259-0.273,0.398c-0.063,0.139-0.108,0.318-0.133,0.538h0.305c0.262,0,0.469,0.064,0.619,0.193
			c0.15,0.129,0.225,0.318,0.225,0.568c0,0.178-0.067,0.344-0.2,0.498c-0.134,0.154-0.316,0.231-0.549,0.231
			c-0.364,0-0.624-0.119-0.781-0.358c-0.157-0.238-0.235-0.552-0.235-0.94c0-0.274,0.059-0.524,0.178-0.751
			c0.119-0.226,0.262-0.428,0.432-0.604c0.173-0.182,0.357-0.336,0.552-0.463s0.357-0.23,0.489-0.311L13.608,107.293z
			 M15.957,107.293c-0.199,0.113-0.36,0.212-0.482,0.294s-0.248,0.191-0.375,0.326c-0.123,0.131-0.215,0.265-0.276,0.401
			c-0.061,0.137-0.104,0.315-0.13,0.535h0.305c0.262,0,0.469,0.064,0.619,0.193c0.15,0.129,0.225,0.318,0.225,0.568
			c0,0.178-0.067,0.344-0.2,0.498c-0.134,0.154-0.316,0.231-0.549,0.231c-0.364,0-0.624-0.119-0.781-0.358
			c-0.157-0.238-0.235-0.552-0.235-0.94c0-0.274,0.059-0.524,0.178-0.751c0.119-0.226,0.262-0.428,0.432-0.604
			c0.173-0.182,0.357-0.336,0.552-0.463s0.357-0.23,0.489-0.311L15.957,107.293z"/>
		<path fill="#002A5C" d="M21.276,116.815c-0.537,0-1.052-0.105-1.544-0.317s-0.929-0.517-1.31-0.915
			c-0.376-0.397-0.677-0.884-0.901-1.458c-0.224-0.573-0.336-1.221-0.336-1.94s0.11-1.373,0.33-1.959
			c0.22-0.587,0.524-1.092,0.914-1.516c0.384-0.419,0.839-0.742,1.363-0.972c0.524-0.229,1.084-0.343,1.681-0.343
			c0.444,0,0.845,0.055,1.205,0.165s0.702,0.265,1.027,0.463l0.26-0.432h0.508l0.057,3.213h-0.521
			c-0.068-0.313-0.169-0.653-0.304-1.02s-0.294-0.676-0.476-0.93c-0.203-0.288-0.444-0.513-0.723-0.676
			c-0.279-0.163-0.598-0.244-0.958-0.244c-0.41,0-0.792,0.091-1.145,0.272c-0.353,0.183-0.658,0.451-0.916,0.807
			c-0.245,0.344-0.438,0.779-0.577,1.309c-0.139,0.53-0.209,1.12-0.209,1.772c0,0.576,0.073,1.104,0.219,1.585
			c0.146,0.481,0.354,0.903,0.625,1.268c0.271,0.36,0.591,0.642,0.96,0.845c0.37,0.203,0.783,0.305,1.24,0.305
			c0.342,0,0.657-0.054,0.945-0.161c0.288-0.108,0.537-0.251,0.748-0.429c0.211-0.187,0.397-0.397,0.558-0.635
			s0.292-0.495,0.393-0.774l0.476,0.229c-0.364,0.893-0.846,1.531-1.446,1.914C22.819,116.624,22.104,116.815,21.276,116.815z"/>
		<path fill="#002A5C" d="M31.185,115.127c-0.262,0.499-0.614,0.897-1.054,1.193s-0.946,0.444-1.517,0.444
			c-0.503,0-0.945-0.089-1.324-0.267c-0.378-0.178-0.69-0.419-0.936-0.724s-0.428-0.66-0.549-1.066
			c-0.12-0.406-0.181-0.836-0.181-1.288c0-0.406,0.064-0.806,0.193-1.197c0.129-0.392,0.319-0.743,0.568-1.057
			c0.241-0.301,0.541-0.543,0.898-0.727c0.357-0.185,0.758-0.276,1.203-0.276c0.457,0,0.849,0.072,1.174,0.216
			s0.59,0.341,0.793,0.59c0.195,0.237,0.339,0.517,0.435,0.838c0.095,0.322,0.143,0.671,0.143,1.048v0.419h-4.145
			c0,0.411,0.039,0.785,0.118,1.12c0.078,0.335,0.202,0.63,0.371,0.884c0.165,0.246,0.381,0.44,0.647,0.582
			c0.267,0.143,0.584,0.213,0.952,0.213c0.376,0,0.701-0.088,0.975-0.265c0.272-0.176,0.536-0.494,0.79-0.954L31.185,115.127z
			 M29.782,112.74c0-0.236-0.02-0.489-0.06-0.76c-0.041-0.27-0.105-0.495-0.194-0.677c-0.097-0.194-0.23-0.353-0.4-0.475
			s-0.387-0.184-0.654-0.184c-0.444,0-0.813,0.185-1.108,0.554c-0.294,0.369-0.454,0.883-0.479,1.541H29.782z"/>
		<path fill="#002A5C" d="M37.402,115.952c0.169,0.161,0.303,0.343,0.4,0.546s0.146,0.455,0.146,0.756
			c0,0.3-0.065,0.582-0.197,0.847s-0.33,0.494-0.597,0.688c-0.284,0.199-0.622,0.354-1.016,0.464s-0.88,0.165-1.46,0.165
			c-0.948,0-1.657-0.139-2.126-0.416s-0.705-0.682-0.705-1.215c0-0.432,0.169-0.772,0.508-1.022s0.77-0.385,1.295-0.406v-0.089
			c-0.127-0.038-0.258-0.086-0.394-0.143c-0.135-0.058-0.252-0.124-0.349-0.2c-0.11-0.089-0.199-0.193-0.267-0.314
			c-0.068-0.12-0.102-0.27-0.102-0.447c0-0.225,0.08-0.431,0.238-0.619c0.159-0.188,0.399-0.35,0.721-0.485v-0.096
			c-0.406-0.189-0.722-0.435-0.946-0.732c-0.224-0.299-0.336-0.645-0.336-1.038c0-0.593,0.221-1.079,0.663-1.46
			c0.442-0.381,1.008-0.571,1.698-0.571c0.19,0,0.38,0.019,0.568,0.058c0.188,0.037,0.379,0.086,0.574,0.146h2.184v0.609h-1.473
			v0.038c0.157,0.182,0.273,0.383,0.349,0.604c0.076,0.22,0.114,0.436,0.114,0.646c0,0.551-0.223,1.016-0.669,1.396
			c-0.447,0.381-0.966,0.572-1.559,0.572h-0.768c-0.097,0.033-0.199,0.095-0.305,0.184s-0.159,0.209-0.159,0.361
			c0,0.157,0.044,0.276,0.133,0.359c0.089,0.082,0.197,0.139,0.324,0.168c0.123,0.034,0.266,0.055,0.429,0.063
			c0.163,0.009,0.331,0.015,0.504,0.019c0.186,0.005,0.441,0.018,0.765,0.039c0.323,0.021,0.553,0.033,0.688,0.037
			c0.195,0.009,0.391,0.056,0.587,0.141C37.062,115.688,37.241,115.804,37.402,115.952z M36.907,117.488
			c0-0.237-0.055-0.432-0.165-0.584s-0.277-0.256-0.501-0.311c-0.119-0.018-0.362-0.036-0.73-0.058s-0.795-0.032-1.282-0.032
			c-0.457,0.09-0.782,0.238-0.974,0.448c-0.193,0.209-0.289,0.479-0.289,0.81c0,0.147,0.032,0.289,0.095,0.425
			s0.173,0.261,0.33,0.374c0.148,0.11,0.347,0.2,0.597,0.271c0.25,0.069,0.554,0.104,0.914,0.104c0.622,0,1.112-0.119,1.469-0.358
			C36.728,118.338,36.907,117.975,36.907,117.488z M35.688,112.238c0-0.494-0.101-0.89-0.301-1.184
			c-0.201-0.294-0.484-0.441-0.848-0.441c-0.199,0-0.369,0.042-0.511,0.124c-0.142,0.083-0.257,0.2-0.346,0.353
			c-0.084,0.14-0.145,0.308-0.181,0.505c-0.036,0.196-0.054,0.398-0.054,0.606c0,0.469,0.103,0.853,0.308,1.148
			c0.206,0.296,0.471,0.444,0.797,0.444c0.364,0,0.645-0.147,0.841-0.441C35.59,113.059,35.688,112.688,35.688,112.238z"/>
		<path fill="#002A5C" d="M45.499,116.485l-2.043,0.14l-0.096-0.089v-0.794h-0.038c-0.102,0.106-0.215,0.22-0.342,0.34
			c-0.126,0.121-0.272,0.229-0.437,0.327c-0.19,0.114-0.374,0.201-0.552,0.261c-0.177,0.059-0.429,0.088-0.754,0.088
			c-0.553,0-0.975-0.181-1.264-0.542s-0.434-0.887-0.434-1.575v-2.993c0-0.152-0.029-0.28-0.086-0.384s-0.142-0.193-0.252-0.27
			c-0.077-0.051-0.173-0.087-0.288-0.11c-0.115-0.023-0.236-0.039-0.364-0.048v-0.419l2.088-0.152l0.095,0.089v4.348
			c0,0.453,0.102,0.794,0.305,1.022s0.446,0.343,0.73,0.343c0.233,0,0.44-0.036,0.622-0.107c0.182-0.072,0.334-0.156,0.457-0.254
			c0.114-0.089,0.215-0.183,0.301-0.282c0.087-0.1,0.154-0.191,0.2-0.275v-3.544c0-0.14-0.03-0.264-0.089-0.371
			c-0.059-0.108-0.142-0.2-0.248-0.276c-0.076-0.051-0.189-0.081-0.339-0.092c-0.15-0.011-0.319-0.02-0.505-0.028v-0.419
			l2.278-0.152l0.096,0.089v4.965c0,0.144,0.03,0.267,0.089,0.368c0.059,0.101,0.142,0.188,0.248,0.26
			c0.076,0.046,0.167,0.077,0.273,0.092s0.222,0.024,0.349,0.028V116.485z"/>
		<path fill="#002A5C" d="M51.957,115.127c-0.262,0.499-0.614,0.897-1.054,1.193s-0.946,0.444-1.517,0.444
			c-0.503,0-0.945-0.089-1.324-0.267c-0.378-0.178-0.69-0.419-0.936-0.724s-0.428-0.66-0.549-1.066
			c-0.12-0.406-0.181-0.836-0.181-1.288c0-0.406,0.064-0.806,0.193-1.197c0.129-0.392,0.319-0.743,0.568-1.057
			c0.241-0.301,0.541-0.543,0.898-0.727c0.357-0.185,0.758-0.276,1.203-0.276c0.457,0,0.849,0.072,1.174,0.216
			s0.59,0.341,0.793,0.59c0.195,0.237,0.339,0.517,0.435,0.838c0.095,0.322,0.143,0.671,0.143,1.048v0.419H47.66
			c0,0.411,0.039,0.785,0.118,1.12c0.078,0.335,0.202,0.63,0.371,0.884c0.165,0.246,0.381,0.44,0.647,0.582
			c0.267,0.143,0.584,0.213,0.952,0.213c0.376,0,0.701-0.088,0.975-0.265c0.272-0.176,0.536-0.494,0.79-0.954L51.957,115.127z
			 M50.554,112.74c0-0.236-0.02-0.489-0.06-0.76c-0.041-0.27-0.105-0.495-0.194-0.677c-0.097-0.194-0.23-0.353-0.4-0.475
			s-0.387-0.184-0.654-0.184c-0.444,0-0.813,0.185-1.108,0.554c-0.294,0.369-0.454,0.883-0.479,1.541H50.554z"/>
		<path fill="#002A5C" d="M57.603,111.146c0,0.217-0.053,0.408-0.159,0.575s-0.269,0.251-0.489,0.251
			c-0.237,0-0.418-0.062-0.542-0.185c-0.125-0.123-0.188-0.258-0.188-0.406c0-0.093,0.007-0.178,0.022-0.254
			c0.015-0.076,0.028-0.152,0.041-0.229c-0.199,0-0.432,0.08-0.698,0.241s-0.493,0.39-0.679,0.686v3.644
			c0,0.148,0.029,0.269,0.085,0.362c0.058,0.093,0.147,0.162,0.27,0.209c0.106,0.042,0.242,0.074,0.41,0.096
			c0.167,0.021,0.312,0.035,0.435,0.044v0.419h-3.301v-0.419c0.097-0.009,0.198-0.017,0.302-0.025
			c0.104-0.009,0.193-0.025,0.27-0.051c0.119-0.038,0.206-0.104,0.264-0.199c0.057-0.096,0.085-0.219,0.085-0.371v-3.861
			c0-0.131-0.031-0.26-0.092-0.387c-0.061-0.127-0.147-0.229-0.257-0.305c-0.081-0.051-0.176-0.087-0.286-0.11
			s-0.229-0.039-0.355-0.048v-0.419l2.082-0.14l0.089,0.089v0.883h0.032c0.262-0.344,0.554-0.604,0.876-0.781
			s0.616-0.267,0.882-0.267s0.483,0.087,0.651,0.261C57.52,110.622,57.603,110.855,57.603,111.146z"/>
		<path fill="#002A5C" d="M64.195,116.485c-0.199,0.072-0.374,0.13-0.523,0.175c-0.15,0.044-0.321,0.066-0.511,0.066
			c-0.33,0-0.593-0.077-0.791-0.231c-0.196-0.154-0.322-0.38-0.377-0.677h-0.038c-0.275,0.305-0.57,0.538-0.885,0.699
			c-0.315,0.16-0.695,0.24-1.14,0.24c-0.47,0-0.856-0.144-1.158-0.432c-0.303-0.287-0.454-0.664-0.454-1.129
			c0-0.242,0.034-0.457,0.102-0.648c0.068-0.189,0.169-0.361,0.305-0.514c0.106-0.127,0.246-0.24,0.419-0.34
			s0.336-0.179,0.489-0.238c0.19-0.071,0.577-0.205,1.159-0.399c0.582-0.194,0.974-0.347,1.177-0.457v-0.628
			c0-0.056-0.012-0.161-0.035-0.318c-0.023-0.156-0.073-0.305-0.149-0.443c-0.084-0.157-0.204-0.294-0.358-0.41
			c-0.155-0.116-0.374-0.174-0.657-0.174c-0.195,0-0.375,0.032-0.543,0.098c-0.167,0.065-0.284,0.135-0.352,0.207
			c0,0.084,0.02,0.209,0.06,0.374c0.041,0.165,0.061,0.317,0.061,0.457c0,0.148-0.066,0.283-0.2,0.406
			c-0.133,0.123-0.318,0.185-0.555,0.185c-0.211,0-0.367-0.075-0.466-0.226c-0.1-0.15-0.149-0.318-0.149-0.505
			c0-0.194,0.069-0.381,0.206-0.559c0.138-0.178,0.316-0.336,0.537-0.477c0.19-0.118,0.421-0.219,0.692-0.301
			c0.271-0.083,0.535-0.124,0.793-0.124c0.355,0,0.666,0.024,0.93,0.073c0.264,0.049,0.504,0.153,0.72,0.314
			c0.216,0.156,0.38,0.369,0.492,0.638c0.112,0.269,0.168,0.614,0.168,1.038c0,0.604-0.006,1.141-0.019,1.608
			s-0.019,0.979-0.019,1.533c0,0.165,0.029,0.296,0.085,0.394c0.058,0.098,0.145,0.18,0.264,0.248
			c0.063,0.037,0.164,0.059,0.302,0.062c0.137,0.005,0.278,0.007,0.422,0.007V116.485z M61.979,113.134
			c-0.36,0.106-0.675,0.21-0.946,0.312s-0.522,0.229-0.755,0.382c-0.211,0.145-0.379,0.315-0.501,0.512
			c-0.123,0.197-0.184,0.432-0.184,0.703c0,0.353,0.092,0.611,0.276,0.776c0.185,0.165,0.418,0.248,0.702,0.248
			c0.3,0,0.565-0.073,0.793-0.22s0.421-0.318,0.578-0.519L61.979,113.134z"/>
		<path fill="#002A5C" d="M75.951,113.946l-0.171,2.653h-7.478v-0.451c0.127-0.008,0.296-0.026,0.508-0.054s0.349-0.056,0.413-0.085
			c0.135-0.064,0.229-0.146,0.283-0.248c0.053-0.102,0.079-0.23,0.079-0.387V108.9c0-0.141-0.023-0.264-0.07-0.372
			c-0.046-0.107-0.144-0.195-0.292-0.263c-0.114-0.056-0.268-0.104-0.46-0.146c-0.192-0.042-0.346-0.067-0.46-0.076v-0.451h6.97
			v2.172h-0.476c-0.084-0.322-0.268-0.664-0.549-1.025c-0.281-0.362-0.549-0.56-0.803-0.594c-0.131-0.017-0.288-0.029-0.47-0.038
			s-0.389-0.013-0.622-0.013h-1.416v3.58h1.016c0.326,0,0.564-0.03,0.714-0.092c0.15-0.062,0.282-0.164,0.396-0.309
			c0.093-0.122,0.172-0.286,0.238-0.491c0.065-0.205,0.109-0.399,0.13-0.581h0.476v3.529h-0.476
			c-0.017-0.203-0.062-0.418-0.137-0.645c-0.074-0.227-0.151-0.391-0.231-0.492c-0.131-0.164-0.28-0.272-0.447-0.323
			c-0.167-0.051-0.389-0.076-0.664-0.076h-1.016v2.7c0,0.27,0.019,0.483,0.057,0.64s0.112,0.274,0.222,0.354
			c0.11,0.081,0.26,0.133,0.451,0.155c0.19,0.023,0.461,0.035,0.812,0.035c0.14,0,0.324,0,0.552,0s0.421-0.009,0.578-0.025
			c0.161-0.017,0.327-0.048,0.498-0.092c0.172-0.045,0.293-0.104,0.365-0.181c0.195-0.203,0.399-0.512,0.612-0.924
			c0.214-0.413,0.351-0.717,0.41-0.911H75.951z"/>
		<path fill="#002A5C" d="M83.019,110.729c-0.19,0.033-0.371,0.103-0.543,0.206c-0.171,0.104-0.318,0.286-0.441,0.549
			c-0.25,0.567-0.508,1.158-0.774,1.774c-0.267,0.615-0.544,1.262-0.832,1.939c-0.084,0.194-0.175,0.425-0.27,0.691
			c-0.096,0.267-0.183,0.522-0.264,0.768H79.4c-0.402-0.994-0.772-1.9-1.111-2.72c-0.338-0.818-0.69-1.657-1.054-2.517
			c-0.084-0.194-0.221-0.346-0.41-0.454c-0.188-0.107-0.377-0.177-0.568-0.206v-0.419h2.896v0.444
			c-0.127,0.004-0.286,0.03-0.476,0.079s-0.286,0.115-0.286,0.199c0,0.013,0.011,0.046,0.032,0.099
			c0.021,0.053,0.042,0.113,0.063,0.181c0.173,0.432,0.418,1.033,0.734,1.808c0.316,0.773,0.574,1.396,0.772,1.87
			c0.152-0.363,0.344-0.815,0.574-1.356s0.479-1.146,0.746-1.813c0.042-0.114,0.083-0.221,0.121-0.32s0.057-0.2,0.057-0.302
			c0-0.071-0.035-0.136-0.105-0.193c-0.07-0.057-0.153-0.106-0.25-0.148c-0.098-0.042-0.193-0.074-0.286-0.096
			c-0.093-0.021-0.169-0.035-0.229-0.044v-0.406h2.395V110.729z"/>
		<path fill="#002A5C" d="M86.456,116.6h-3.021v-0.419c0.097-0.009,0.198-0.017,0.302-0.025c0.104-0.009,0.193-0.025,0.27-0.051
			c0.119-0.038,0.206-0.104,0.264-0.199c0.057-0.096,0.085-0.219,0.085-0.371v-3.861c0-0.136-0.031-0.259-0.092-0.371
			c-0.061-0.112-0.147-0.206-0.257-0.282c-0.081-0.051-0.197-0.094-0.349-0.13s-0.292-0.058-0.419-0.066v-0.419l2.209-0.14
			l0.089,0.089v5.104c0,0.148,0.028,0.271,0.085,0.368s0.146,0.169,0.268,0.216c0.092,0.038,0.183,0.068,0.271,0.092
			s0.187,0.039,0.296,0.048V116.6z M85.662,107.795c0,0.242-0.08,0.452-0.238,0.632c-0.159,0.18-0.354,0.271-0.587,0.271
			c-0.216,0-0.403-0.086-0.562-0.258c-0.158-0.171-0.238-0.367-0.238-0.587c0-0.232,0.08-0.436,0.238-0.609
			c0.159-0.174,0.346-0.261,0.562-0.261c0.241,0,0.439,0.082,0.593,0.245C85.585,107.391,85.662,107.58,85.662,107.795z"/>
		<path fill="#002A5C" d="M91.226,116.326c-0.275,0.115-0.535,0.211-0.781,0.289s-0.546,0.117-0.901,0.117
			c-0.525,0-0.894-0.132-1.107-0.396c-0.214-0.265-0.321-0.638-0.321-1.12v-4.24h-1.13v-0.609h1.155v-1.948h1.155v1.948h1.796v0.609
			h-1.784v3.497c0,0.263,0.009,0.481,0.029,0.657c0.019,0.176,0.064,0.329,0.136,0.46c0.068,0.123,0.169,0.217,0.305,0.279
			c0.135,0.064,0.317,0.096,0.546,0.096c0.106,0,0.261-0.01,0.466-0.028c0.206-0.02,0.351-0.044,0.435-0.073V116.326z"/>
		<path fill="#002A5C" d="M97.907,116.485c-0.199,0.072-0.374,0.13-0.523,0.175c-0.15,0.044-0.321,0.066-0.511,0.066
			c-0.33,0-0.593-0.077-0.791-0.231c-0.196-0.154-0.322-0.38-0.377-0.677h-0.038c-0.275,0.305-0.57,0.538-0.885,0.699
			c-0.315,0.16-0.695,0.24-1.14,0.24c-0.47,0-0.856-0.144-1.158-0.432c-0.303-0.287-0.454-0.664-0.454-1.129
			c0-0.242,0.034-0.457,0.102-0.648c0.068-0.189,0.169-0.361,0.305-0.514c0.106-0.127,0.246-0.24,0.419-0.34
			s0.336-0.179,0.489-0.238c0.19-0.071,0.577-0.205,1.159-0.399c0.582-0.194,0.974-0.347,1.177-0.457v-0.628
			c0-0.056-0.012-0.161-0.035-0.318c-0.023-0.156-0.073-0.305-0.149-0.443c-0.084-0.157-0.204-0.294-0.358-0.41
			c-0.155-0.116-0.374-0.174-0.657-0.174c-0.195,0-0.375,0.032-0.543,0.098c-0.167,0.065-0.284,0.135-0.352,0.207
			c0,0.084,0.02,0.209,0.06,0.374c0.041,0.165,0.061,0.317,0.061,0.457c0,0.148-0.066,0.283-0.2,0.406
			c-0.133,0.123-0.318,0.185-0.555,0.185c-0.211,0-0.367-0.075-0.466-0.226c-0.1-0.15-0.149-0.318-0.149-0.505
			c0-0.194,0.069-0.381,0.206-0.559c0.138-0.178,0.316-0.336,0.537-0.477c0.19-0.118,0.421-0.219,0.692-0.301
			c0.271-0.083,0.535-0.124,0.793-0.124c0.355,0,0.666,0.024,0.93,0.073c0.264,0.049,0.504,0.153,0.72,0.314
			c0.216,0.156,0.38,0.369,0.492,0.638c0.112,0.269,0.168,0.614,0.168,1.038c0,0.604-0.006,1.141-0.019,1.608
			s-0.019,0.979-0.019,1.533c0,0.165,0.029,0.296,0.085,0.394c0.058,0.098,0.145,0.18,0.264,0.248
			c0.063,0.037,0.164,0.059,0.302,0.062c0.137,0.005,0.278,0.007,0.422,0.007V116.485z M95.691,113.134
			c-0.36,0.106-0.675,0.21-0.946,0.312s-0.522,0.229-0.755,0.382c-0.211,0.145-0.379,0.315-0.501,0.512
			c-0.123,0.197-0.184,0.432-0.184,0.703c0,0.353,0.092,0.611,0.276,0.776c0.185,0.165,0.418,0.248,0.702,0.248
			c0.3,0,0.565-0.073,0.793-0.22s0.421-0.318,0.578-0.519L95.691,113.134z"/>
		<path fill="#002A5C" d="M105.013,113.464c0,0.939-0.296,1.729-0.889,2.368c-0.593,0.639-1.28,0.958-2.063,0.958
			c-0.342,0-0.68-0.053-1.012-0.159c-0.332-0.105-0.645-0.247-0.937-0.425l-0.47,0.729l-0.394-0.089
			c0.021-0.312,0.036-0.689,0.044-1.13s0.013-0.866,0.013-1.277v-6.199c0-0.144-0.033-0.288-0.099-0.432
			c-0.065-0.145-0.149-0.248-0.25-0.312c-0.081-0.055-0.215-0.096-0.403-0.124c-0.188-0.027-0.34-0.045-0.454-0.054v-0.406
			l2.298-0.14l0.088,0.096v4.125l0.045,0.014c0.262-0.279,0.549-0.489,0.859-0.629c0.312-0.14,0.617-0.209,0.918-0.209
			c0.77,0,1.414,0.305,1.93,0.914S105.013,112.486,105.013,113.464z M103.686,113.508c0-0.312-0.033-0.632-0.102-0.958
			c-0.067-0.326-0.173-0.609-0.316-0.851c-0.145-0.245-0.332-0.444-0.565-0.597s-0.513-0.229-0.838-0.229
			c-0.296,0-0.556,0.059-0.778,0.175c-0.221,0.116-0.422,0.273-0.6,0.473v3.644c0.025,0.102,0.076,0.22,0.15,0.355
			c0.073,0.136,0.174,0.265,0.301,0.388c0.127,0.118,0.271,0.214,0.432,0.288s0.357,0.111,0.59,0.111
			c0.517,0,0.934-0.25,1.251-0.749S103.686,114.376,103.686,113.508z"/>
		<path fill="#002A5C" d="M109.002,116.6h-3.053v-0.419c0.097-0.009,0.201-0.018,0.311-0.028s0.201-0.026,0.273-0.048
			c0.118-0.038,0.207-0.104,0.266-0.2c0.06-0.095,0.09-0.219,0.09-0.372v-7.254c0-0.152-0.033-0.295-0.099-0.429
			c-0.065-0.133-0.151-0.238-0.257-0.314c-0.076-0.051-0.217-0.098-0.42-0.14s-0.365-0.067-0.488-0.076v-0.406l2.355-0.14
			l0.088,0.096v8.588c0,0.148,0.027,0.27,0.083,0.365c0.056,0.095,0.144,0.168,0.267,0.219c0.094,0.042,0.186,0.074,0.276,0.096
			c0.091,0.021,0.193,0.035,0.308,0.044V116.6z"/>
		<path fill="#002A5C" d="M115.48,115.127c-0.263,0.499-0.614,0.897-1.055,1.193c-0.439,0.296-0.945,0.444-1.517,0.444
			c-0.503,0-0.944-0.089-1.323-0.267s-0.691-0.419-0.937-0.724s-0.429-0.66-0.55-1.066c-0.119-0.406-0.18-0.836-0.18-1.288
			c0-0.406,0.064-0.806,0.193-1.197s0.318-0.743,0.568-1.057c0.24-0.301,0.54-0.543,0.898-0.727
			c0.357-0.185,0.758-0.276,1.202-0.276c0.457,0,0.849,0.072,1.175,0.216c0.325,0.144,0.59,0.341,0.793,0.59
			c0.195,0.237,0.34,0.517,0.436,0.838c0.094,0.322,0.143,0.671,0.143,1.048v0.419h-4.146c0,0.411,0.039,0.785,0.118,1.12
			c0.078,0.335,0.201,0.63,0.371,0.884c0.164,0.246,0.381,0.44,0.646,0.582c0.268,0.143,0.584,0.213,0.953,0.213
			c0.376,0,0.701-0.088,0.975-0.265c0.271-0.176,0.535-0.494,0.789-0.954L115.48,115.127z M114.077,112.74
			c0-0.236-0.021-0.489-0.06-0.76c-0.041-0.27-0.105-0.495-0.194-0.677c-0.097-0.194-0.23-0.353-0.399-0.475
			c-0.17-0.122-0.388-0.184-0.654-0.184c-0.444,0-0.813,0.185-1.107,0.554c-0.295,0.369-0.454,0.883-0.479,1.541H114.077z"/>
		<path fill="#002A5C" d="M118.054,107.599c0,0.169-0.056,0.495-0.165,0.978s-0.232,1.108-0.368,1.879h-0.388
			c-0.113-0.72-0.227-1.334-0.34-1.844c-0.111-0.51-0.168-0.848-0.168-1.013c0-0.194,0.06-0.362,0.178-0.501
			c0.119-0.141,0.299-0.21,0.54-0.21c0.229,0,0.404,0.069,0.526,0.21C117.992,107.236,118.054,107.404,118.054,107.599z
			 M120.479,107.599c0,0.169-0.055,0.495-0.165,0.978s-0.233,1.108-0.368,1.879h-0.394c-0.097-0.626-0.206-1.223-0.327-1.79
			s-0.181-0.923-0.181-1.066c0-0.194,0.06-0.362,0.178-0.501c0.118-0.141,0.298-0.21,0.54-0.21c0.232,0,0.41,0.069,0.533,0.21
			C120.417,107.236,120.479,107.404,120.479,107.599z"/>
		<path fill="#002A5C" d="M127.975,116.765c-0.906,0-1.614-0.301-2.127-0.901c-0.512-0.601-0.768-1.407-0.768-2.418
			c0-0.44,0.068-0.853,0.206-1.235s0.338-0.73,0.601-1.044c0.249-0.301,0.562-0.543,0.939-0.727c0.376-0.185,0.787-0.276,1.23-0.276
			c0.614,0,1.113,0.147,1.498,0.441c0.386,0.294,0.578,0.694,0.578,1.202c0,0.212-0.051,0.399-0.152,0.562s-0.269,0.244-0.502,0.244
			c-0.249,0-0.443-0.063-0.58-0.189c-0.138-0.127-0.207-0.269-0.207-0.424c0-0.19,0.025-0.386,0.076-0.586s0.081-0.347,0.09-0.439
			c-0.076-0.131-0.189-0.219-0.34-0.263c-0.149-0.044-0.311-0.066-0.484-0.066c-0.202,0-0.395,0.043-0.578,0.13
			s-0.363,0.247-0.535,0.479c-0.156,0.212-0.283,0.497-0.381,0.856c-0.097,0.36-0.145,0.79-0.145,1.289
			c0,0.787,0.174,1.43,0.522,1.927s0.806,0.745,1.372,0.745c0.41,0,0.753-0.1,1.029-0.3c0.277-0.199,0.534-0.499,0.771-0.899
			l0.405,0.267c-0.279,0.499-0.646,0.896-1.104,1.187C128.934,116.619,128.461,116.765,127.975,116.765z"/>
		<path fill="#002A5C" d="M137.221,113.406c0,0.44-0.07,0.873-0.21,1.299c-0.14,0.425-0.339,0.786-0.598,1.082
			c-0.292,0.339-0.632,0.59-1.017,0.756c-0.385,0.164-0.817,0.247-1.297,0.247c-0.397,0-0.777-0.075-1.137-0.226
			s-0.68-0.369-0.959-0.656c-0.275-0.284-0.495-0.63-0.658-1.038s-0.244-0.866-0.244-1.374c0-0.979,0.284-1.777,0.854-2.4
			c0.57-0.621,1.316-0.933,2.24-0.933c0.877,0,1.601,0.295,2.17,0.886C136.936,111.639,137.221,112.425,137.221,113.406z
			 M135.906,113.42c0-0.318-0.031-0.653-0.096-1.007c-0.063-0.354-0.158-0.652-0.285-0.897c-0.137-0.263-0.314-0.474-0.535-0.632
			c-0.221-0.159-0.489-0.238-0.807-0.238c-0.327,0-0.605,0.08-0.837,0.241s-0.419,0.381-0.563,0.66
			c-0.135,0.258-0.23,0.553-0.285,0.883c-0.056,0.33-0.083,0.649-0.083,0.958c0,0.406,0.032,0.782,0.099,1.127
			c0.065,0.345,0.17,0.652,0.314,0.923c0.145,0.271,0.326,0.484,0.544,0.639s0.489,0.231,0.812,0.231
			c0.529,0,0.949-0.256,1.258-0.769C135.752,115.027,135.906,114.32,135.906,113.42z"/>
		<path fill="#002A5C" d="M145.164,116.6h-3.06v-0.419c0.097-0.009,0.204-0.017,0.321-0.025c0.115-0.009,0.212-0.025,0.288-0.051
			c0.118-0.038,0.206-0.104,0.263-0.2c0.059-0.095,0.086-0.219,0.086-0.371v-3.219c0-0.443-0.104-0.787-0.314-1.027
			c-0.21-0.242-0.466-0.362-0.767-0.362c-0.226,0-0.431,0.035-0.617,0.104c-0.187,0.07-0.353,0.156-0.497,0.258
			c-0.139,0.097-0.25,0.201-0.334,0.313c-0.082,0.112-0.143,0.202-0.181,0.271v3.599c0,0.144,0.03,0.263,0.089,0.355
			s0.148,0.165,0.267,0.216c0.089,0.042,0.185,0.074,0.288,0.096c0.104,0.021,0.211,0.035,0.321,0.044v0.419h-3.065v-0.419
			c0.097-0.009,0.197-0.017,0.301-0.025s0.193-0.025,0.27-0.051c0.119-0.038,0.207-0.104,0.264-0.199
			c0.057-0.096,0.086-0.219,0.086-0.371v-3.861c0-0.144-0.031-0.275-0.092-0.396c-0.062-0.12-0.147-0.219-0.258-0.295
			c-0.08-0.051-0.176-0.087-0.285-0.11s-0.229-0.039-0.355-0.048v-0.419l2.082-0.14l0.089,0.089v0.883h0.032
			c0.102-0.102,0.229-0.224,0.381-0.365s0.296-0.258,0.432-0.346c0.156-0.102,0.342-0.187,0.559-0.254
			c0.215-0.068,0.459-0.102,0.729-0.102c0.601,0,1.046,0.187,1.337,0.562c0.289,0.374,0.434,0.872,0.434,1.495v3.256
			c0,0.148,0.025,0.268,0.076,0.358s0.139,0.162,0.261,0.213c0.102,0.042,0.189,0.072,0.263,0.089
			c0.074,0.017,0.178,0.029,0.309,0.038V116.6z"/>
		<path fill="#002A5C" d="M157.795,108.596c0.445,0.406,0.797,0.896,1.057,1.473c0.262,0.575,0.391,1.23,0.391,1.967
			c0,0.656-0.109,1.28-0.33,1.873c-0.22,0.593-0.537,1.103-0.951,1.529c-0.437,0.445-0.948,0.791-1.537,1.038
			c-0.588,0.248-1.288,0.372-2.101,0.372c-0.655,0-1.276-0.108-1.86-0.324s-1.098-0.529-1.542-0.939
			c-0.44-0.402-0.789-0.891-1.048-1.467c-0.258-0.575-0.387-1.216-0.387-1.923c0-0.736,0.126-1.404,0.377-2.003
			c0.252-0.599,0.599-1.111,1.039-1.539c0.436-0.419,0.953-0.741,1.551-0.968c0.6-0.227,1.237-0.34,1.914-0.34
			c0.674,0,1.305,0.11,1.895,0.33C156.854,107.895,157.363,108.201,157.795,108.596z M156.164,115.043
			c0.19-0.386,0.328-0.822,0.412-1.31c0.085-0.487,0.127-1.039,0.127-1.653c0-0.521-0.037-1.029-0.111-1.522
			c-0.073-0.494-0.199-0.934-0.377-1.319c-0.182-0.386-0.424-0.695-0.724-0.928c-0.3-0.233-0.675-0.35-1.124-0.35
			c-0.766,0-1.348,0.363-1.745,1.09s-0.597,1.754-0.597,3.08c0,0.563,0.043,1.096,0.131,1.596c0.086,0.5,0.223,0.937,0.408,1.31
			c0.191,0.377,0.432,0.671,0.725,0.881c0.291,0.21,0.651,0.314,1.078,0.314c0.42,0,0.779-0.105,1.08-0.318
			C155.747,115.702,155.986,115.411,156.164,115.043z"/>
		<path fill="#002A5C" d="M170.602,116.6h-3.457c-0.596-0.914-1.092-1.642-1.486-2.184c-0.396-0.542-0.888-1.168-1.475-1.879h-0.349
			v2.736c0,0.152,0.028,0.281,0.086,0.387c0.057,0.105,0.166,0.194,0.327,0.267c0.08,0.034,0.206,0.068,0.377,0.104
			c0.172,0.036,0.318,0.061,0.441,0.073v0.495h-4.805v-0.495c0.122-0.013,0.284-0.03,0.485-0.054c0.2-0.023,0.344-0.052,0.429-0.086
			c0.16-0.067,0.268-0.153,0.323-0.257s0.083-0.236,0.083-0.397v-6.354c0-0.152-0.023-0.279-0.07-0.381s-0.158-0.19-0.336-0.267
			c-0.136-0.055-0.296-0.102-0.479-0.14c-0.185-0.038-0.329-0.065-0.435-0.082v-0.496h5.053c1.129,0,1.987,0.177,2.573,0.53
			c0.587,0.354,0.88,0.888,0.88,1.603c0,0.631-0.182,1.138-0.543,1.521c-0.362,0.383-0.913,0.683-1.654,0.898
			c0.288,0.372,0.623,0.804,1.007,1.295c0.383,0.491,0.782,0.992,1.196,1.505c0.131,0.164,0.311,0.366,0.536,0.605
			c0.227,0.239,0.427,0.387,0.601,0.441c0.097,0.029,0.221,0.055,0.371,0.076s0.257,0.034,0.32,0.038V116.6z M166.279,109.902
			c0-0.601-0.169-1.039-0.505-1.316c-0.337-0.277-0.815-0.416-1.438-0.416h-0.501v3.771h0.482c0.622,0,1.104-0.163,1.447-0.489
			C166.107,111.126,166.279,110.609,166.279,109.902z"/>
		<path fill="#002A5C" d="M178.711,112.467c0.271,0.187,0.49,0.421,0.66,0.702s0.254,0.612,0.254,0.993
			c0,0.457-0.096,0.843-0.289,1.158c-0.192,0.315-0.469,0.564-0.828,0.746c-0.381,0.194-0.82,0.332-1.317,0.412
			c-0.497,0.081-1.082,0.121-1.755,0.121h-4.678v-0.495c0.131-0.013,0.296-0.032,0.494-0.058c0.199-0.025,0.339-0.055,0.42-0.088
			c0.156-0.064,0.263-0.147,0.32-0.251c0.057-0.104,0.086-0.238,0.086-0.403v-6.348c0-0.152-0.023-0.279-0.07-0.381
			s-0.158-0.19-0.336-0.267c-0.132-0.055-0.284-0.101-0.457-0.137c-0.174-0.036-0.326-0.064-0.457-0.085v-0.496h4.894
			c1.231,0,2.12,0.17,2.666,0.508c0.546,0.339,0.819,0.838,0.819,1.498c0,0.305-0.062,0.573-0.185,0.804s-0.298,0.431-0.526,0.6
			c-0.208,0.156-0.455,0.292-0.743,0.406s-0.597,0.21-0.927,0.286v0.12c0.33,0.034,0.673,0.106,1.028,0.219
			S178.449,112.289,178.711,112.467z M176.667,109.757c0-0.499-0.141-0.889-0.422-1.168c-0.282-0.279-0.704-0.419-1.267-0.419
			c-0.08,0-0.186,0.003-0.314,0.01c-0.129,0.006-0.24,0.012-0.333,0.016v3.339h0.33c0.686,0,1.191-0.16,1.517-0.479
			C176.504,110.735,176.667,110.303,176.667,109.757z M177.111,114.083c0-0.628-0.186-1.108-0.559-1.443s-0.908-0.503-1.605-0.503
			c-0.081,0-0.188,0.004-0.321,0.01c-0.133,0.007-0.231,0.012-0.295,0.016v3.301c0.038,0.156,0.157,0.289,0.355,0.397
			c0.198,0.107,0.44,0.161,0.724,0.161c0.504,0,0.913-0.169,1.229-0.508C176.953,115.174,177.111,114.697,177.111,114.083z"/>
		<path fill="#002A5C" d="M185.689,116.6h-4.995v-0.495c0.114-0.009,0.282-0.021,0.505-0.038s0.375-0.042,0.46-0.076
			c0.157-0.063,0.263-0.147,0.321-0.251c0.057-0.104,0.085-0.235,0.085-0.396v-6.386c0-0.144-0.027-0.271-0.083-0.381
			c-0.055-0.11-0.162-0.199-0.323-0.267c-0.102-0.042-0.252-0.086-0.45-0.13c-0.199-0.045-0.371-0.075-0.515-0.092v-0.496h4.995
			v0.496c-0.127,0.012-0.285,0.03-0.476,0.054s-0.351,0.056-0.482,0.099c-0.165,0.055-0.274,0.141-0.33,0.257
			s-0.083,0.248-0.083,0.396v6.38c0,0.152,0.029,0.282,0.086,0.39c0.057,0.108,0.166,0.196,0.327,0.264
			c0.089,0.038,0.235,0.075,0.44,0.111c0.206,0.036,0.379,0.058,0.518,0.066V116.6z"/>
		<path fill="#002A5C" d="M190.435,116.848c-0.55,0-1.063-0.069-1.539-0.207c-0.477-0.138-0.88-0.299-1.21-0.485l-0.438,0.444
			h-0.539l-0.083-3.256h0.546c0.123,0.31,0.279,0.636,0.47,0.979s0.411,0.65,0.66,0.922c0.259,0.284,0.547,0.516,0.866,0.693
			c0.32,0.179,0.693,0.268,1.121,0.268c0.575,0,1.016-0.141,1.323-0.423c0.307-0.281,0.46-0.636,0.46-1.063
			c0-0.352-0.13-0.647-0.391-0.887c-0.26-0.239-0.663-0.446-1.209-0.62c-0.355-0.114-0.683-0.221-0.98-0.318
			c-0.299-0.099-0.579-0.198-0.842-0.3c-0.604-0.242-1.055-0.587-1.349-1.036s-0.44-0.951-0.44-1.507
			c0-0.352,0.076-0.689,0.229-1.014s0.374-0.615,0.666-0.873c0.279-0.242,0.637-0.438,1.072-0.592
			c0.437-0.152,0.91-0.229,1.422-0.229c0.5,0,0.967,0.069,1.403,0.21c0.437,0.139,0.778,0.279,1.028,0.418l0.387-0.381h0.553
			l0.051,3.072h-0.546c-0.127-0.33-0.276-0.669-0.447-1.015c-0.172-0.346-0.353-0.633-0.543-0.862
			c-0.208-0.245-0.446-0.441-0.718-0.588c-0.271-0.146-0.588-0.22-0.951-0.22c-0.457,0-0.831,0.129-1.121,0.388
			c-0.289,0.259-0.435,0.579-0.435,0.96c0,0.36,0.126,0.655,0.378,0.884c0.252,0.229,0.645,0.431,1.178,0.604
			c0.312,0.105,0.633,0.212,0.958,0.317c0.325,0.106,0.616,0.208,0.87,0.306c0.613,0.237,1.08,0.564,1.399,0.981
			c0.319,0.418,0.479,0.936,0.479,1.555c0,0.39-0.092,0.767-0.273,1.131s-0.428,0.668-0.736,0.909
			c-0.338,0.267-0.73,0.473-1.174,0.616C191.545,116.775,191.027,116.848,190.435,116.848z"/>
	</g>
</g>
<line fill="#FFFFFF" stroke="#262728" stroke-linecap="round" stroke-miterlimit="10" stroke-dasharray="1,3" x1="74" y1="64.5" x2="119" y2="64.5"/>
</svg>
