<?xml version="1.0" encoding="utf-8"?>
<!-- Generator: Adobe Illustrator 16.0.4, SVG Export Plug-In . SVG Version: 6.00 Build 0)  -->
<!DOCTYPE svg PUBLIC "-//W3C//DTD SVG 1.1//EN" "http://www.w3.org/Graphics/SVG/1.1/DTD/svg11.dtd">
<svg version="1.1" id="Layer_1" xmlns="http://www.w3.org/2000/svg" xmlns:xlink="http://www.w3.org/1999/xlink" x="0px" y="0px"
	 width="219px" height="151px" viewBox="-12 0 219 151" enable-background="new -12 0 219 151" xml:space="preserve">
<g>
	<g>
		<path fill="#002A5C" d="M53.932,28.643c0.773-0.504,1.731-0.908,2.874-1.213s2.399-0.457,3.771-0.457
			c2.684,0,4.813,0.489,6.39,1.468s2.364,2.376,2.364,4.192c0,1.371-0.275,2.584-0.826,3.639s-1.295,1.963-2.232,2.725
			c-0.902,0.738-1.896,1.371-2.979,1.898s-2.142,0.979-3.173,1.354c-0.996,0.363-2.188,0.791-3.577,1.283s-2.651,0.973-3.788,1.441
			l-0.07,0.281h14.889L66.482,50H47.428l0.791-3.516c0.621-0.48,1.351-0.973,2.188-1.477s1.573-0.943,2.206-1.318
			c0.668-0.387,1.479-0.853,2.435-1.397s1.731-1.017,2.329-1.415c0.68-0.445,1.348-0.955,2.004-1.529s1.242-1.242,1.758-2.004
			c0.516-0.785,0.908-1.579,1.178-2.382s0.404-1.767,0.404-2.892c0-1.078-0.287-1.922-0.861-2.531s-1.348-0.914-2.32-0.914
			c-0.68,0-1.233,0.064-1.661,0.193s-0.817,0.264-1.169,0.404c0.164,0.457,0.334,0.955,0.51,1.494s0.264,1.113,0.264,1.723
			c0,0.832-0.287,1.521-0.861,2.065s-1.324,0.817-2.25,0.817c-0.879,0-1.579-0.287-2.101-0.861s-0.782-1.271-0.782-2.092
			c0-0.645,0.208-1.295,0.624-1.951S53.135,29.17,53.932,28.643z"/>
		<path fill="#002A5C" d="M92.7,29.662c0.738,0.82,1.286,1.784,1.644,2.892s0.536,2.306,0.536,3.595
			c0,2.109-0.357,4.072-1.072,5.889s-1.676,3.34-2.883,4.57c-1.242,1.289-2.657,2.279-4.245,2.971s-3.308,1.037-5.159,1.037
			c-1.512,0-2.842-0.226-3.99-0.677s-2.098-1.081-2.848-1.89c-0.762-0.809-1.333-1.77-1.714-2.883s-0.571-2.332-0.571-3.656
			c0-1.957,0.299-3.782,0.896-5.476s1.488-3.237,2.672-4.632c1.137-1.348,2.543-2.423,4.219-3.226s3.533-1.204,5.572-1.204
			c1.582,0,2.95,0.24,4.104,0.721S91.961,28.83,92.7,29.662z M86.723,44.221c0.586-1.486,1.034-3.129,1.345-4.926
			c0.311-1.798,0.466-3.627,0.466-5.489c0-0.784-0.056-1.507-0.167-2.169c-0.111-0.661-0.296-1.232-0.554-1.712
			c-0.246-0.469-0.562-0.831-0.949-1.089s-0.855-0.387-1.406-0.387c-0.938,0-1.822,0.41-2.654,1.229s-1.605,2.125-2.32,3.917
			c-0.551,1.439-0.979,3.062-1.283,4.864c-0.305,1.804-0.457,3.548-0.457,5.234c0,0.866,0.053,1.613,0.158,2.239
			s0.287,1.191,0.545,1.694c0.234,0.469,0.551,0.838,0.949,1.106c0.398,0.27,0.879,0.404,1.441,0.404
			c0.984,0,1.898-0.447,2.742-1.344C85.422,46.899,86.137,45.708,86.723,44.221z"/>
		<path fill="#002A5C" d="M118.303,29.662c0.738,0.82,1.285,1.784,1.643,2.892s0.537,2.306,0.537,3.595
			c0,2.109-0.357,4.072-1.072,5.889s-1.676,3.34-2.883,4.57c-1.242,1.289-2.658,2.279-4.246,2.971s-3.307,1.037-5.158,1.037
			c-1.512,0-2.842-0.226-3.99-0.677s-2.098-1.081-2.848-1.89c-0.762-0.809-1.333-1.77-1.714-2.883S98,42.834,98,41.51
			c0-1.957,0.299-3.782,0.896-5.476s1.489-3.237,2.672-4.632c1.137-1.348,2.543-2.423,4.219-3.226s3.533-1.204,5.572-1.204
			c1.582,0,2.949,0.24,4.104,0.721S117.564,28.83,118.303,29.662z M112.326,44.221c0.586-1.486,1.033-3.129,1.344-4.926
			c0.311-1.798,0.467-3.627,0.467-5.489c0-0.784-0.057-1.507-0.168-2.169c-0.111-0.661-0.295-1.232-0.553-1.712
			c-0.246-0.469-0.562-0.831-0.949-1.089s-0.855-0.387-1.406-0.387c-0.938,0-1.822,0.41-2.654,1.229s-1.605,2.125-2.32,3.917
			c-0.551,1.439-0.979,3.062-1.283,4.864c-0.305,1.804-0.457,3.548-0.457,5.234c0,0.866,0.053,1.613,0.158,2.239
			s0.287,1.191,0.545,1.694c0.234,0.469,0.551,0.838,0.949,1.106c0.398,0.27,0.879,0.404,1.441,0.404
			c0.984,0,1.898-0.447,2.742-1.344C111.025,46.899,111.74,45.708,112.326,44.221z"/>
		<path fill="#002A5C" d="M128.049,28.643c0.773-0.504,1.731-0.908,2.874-1.213s2.399-0.457,3.771-0.457
			c2.684,0,4.813,0.489,6.39,1.468s2.364,2.376,2.364,4.192c0,1.371-0.275,2.584-0.826,3.639s-1.295,1.963-2.232,2.725
			c-0.902,0.738-1.896,1.371-2.979,1.898s-2.142,0.979-3.173,1.354c-0.996,0.363-2.188,0.791-3.577,1.283s-2.651,0.973-3.788,1.441
			l-0.07,0.281h14.889L140.6,50h-19.055l0.791-3.516c0.621-0.48,1.351-0.973,2.188-1.477s1.573-0.943,2.206-1.318
			c0.668-0.387,1.479-0.853,2.435-1.397s1.731-1.017,2.329-1.415c0.68-0.445,1.348-0.955,2.004-1.529s1.242-1.242,1.758-2.004
			c0.516-0.785,0.908-1.579,1.178-2.382s0.404-1.767,0.404-2.892c0-1.078-0.287-1.922-0.861-2.531s-1.348-0.914-2.32-0.914
			c-0.68,0-1.233,0.064-1.661,0.193s-0.817,0.264-1.169,0.404c0.164,0.457,0.334,0.955,0.51,1.494s0.264,1.113,0.264,1.723
			c0,0.832-0.287,1.521-0.861,2.065s-1.324,0.817-2.25,0.817c-0.879,0-1.579-0.287-2.101-0.861s-0.782-1.271-0.782-2.092
			c0-0.645,0.208-1.295,0.624-1.951S127.252,29.17,128.049,28.643z"/>
	</g>
</g>
<g>
	<g>
		<path fill="#002A5C" d="M49.589,111h-4.996v-0.495c0.114-0.009,0.283-0.021,0.504-0.038c0.223-0.017,0.376-0.042,0.46-0.076
			c0.157-0.063,0.263-0.147,0.321-0.251c0.057-0.104,0.085-0.235,0.085-0.396v-6.386c0-0.144-0.027-0.271-0.083-0.381
			s-0.163-0.199-0.324-0.267c-0.102-0.042-0.252-0.086-0.451-0.13c-0.199-0.045-0.37-0.075-0.514-0.092v-0.496h4.996v0.496
			c-0.127,0.012-0.286,0.03-0.476,0.054s-0.351,0.056-0.482,0.099c-0.165,0.055-0.275,0.141-0.33,0.257s-0.083,0.248-0.083,0.396
			v6.38c0,0.152,0.028,0.282,0.086,0.39c0.057,0.108,0.166,0.196,0.327,0.264c0.089,0.038,0.236,0.075,0.441,0.111
			c0.206,0.036,0.378,0.058,0.518,0.066V111z"/>
		<path fill="#002A5C" d="M62.935,111h-4.881v-0.495c0.144-0.013,0.32-0.034,0.53-0.063c0.209-0.029,0.352-0.062,0.428-0.096
			c0.157-0.062,0.269-0.149,0.336-0.26s0.102-0.25,0.102-0.419v-6.729l-3.098,7.915h-0.8c-0.038-0.139-0.132-0.416-0.282-0.831
			c-0.15-0.415-0.272-0.747-0.365-0.997l-2.279-6.188v5.478c0,0.525,0.035,0.924,0.105,1.197c0.069,0.272,0.183,0.473,0.339,0.6
			c0.106,0.089,0.295,0.174,0.568,0.254c0.273,0.08,0.465,0.127,0.575,0.14V111h-3.872v-0.495c0.106-0.013,0.278-0.041,0.517-0.086
			c0.239-0.044,0.435-0.121,0.587-0.231c0.169-0.118,0.284-0.318,0.343-0.6s0.089-0.683,0.089-1.203v-4.463
			c0-0.271-0.034-0.496-0.102-0.676s-0.169-0.322-0.305-0.428c-0.169-0.132-0.343-0.217-0.521-0.254
			c-0.178-0.039-0.357-0.064-0.54-0.076v-0.496h4.15l2.22,5.936l1.872-4.816c0.063-0.179,0.125-0.39,0.184-0.636
			c0.06-0.246,0.091-0.406,0.095-0.483h3.99v0.496c-0.135,0.008-0.277,0.025-0.425,0.051s-0.29,0.059-0.425,0.102
			c-0.165,0.055-0.274,0.142-0.327,0.26c-0.053,0.118-0.08,0.25-0.08,0.394v6.38c0,0.152,0.026,0.28,0.08,0.384
			c0.053,0.104,0.162,0.193,0.327,0.27c0.084,0.038,0.223,0.074,0.416,0.108c0.193,0.033,0.342,0.057,0.448,0.069V111z"/>
		<path fill="#002A5C" d="M76.37,111h-4.881v-0.495c0.144-0.013,0.32-0.034,0.53-0.063c0.209-0.029,0.352-0.062,0.428-0.096
			c0.157-0.062,0.269-0.149,0.336-0.26s0.102-0.25,0.102-0.419v-6.729l-3.098,7.915h-0.8c-0.038-0.139-0.132-0.416-0.282-0.831
			c-0.15-0.415-0.272-0.747-0.365-0.997l-2.279-6.188v5.478c0,0.525,0.035,0.924,0.105,1.197c0.069,0.272,0.183,0.473,0.339,0.6
			c0.106,0.089,0.295,0.174,0.568,0.254c0.273,0.08,0.465,0.127,0.575,0.14V111h-3.872v-0.495c0.106-0.013,0.278-0.041,0.517-0.086
			c0.239-0.044,0.435-0.121,0.587-0.231c0.169-0.118,0.284-0.318,0.343-0.6s0.089-0.683,0.089-1.203v-4.463
			c0-0.271-0.034-0.496-0.102-0.676s-0.169-0.322-0.305-0.428c-0.169-0.132-0.343-0.217-0.521-0.254
			c-0.178-0.039-0.357-0.064-0.54-0.076v-0.496h4.15l2.22,5.936l1.872-4.816c0.063-0.179,0.125-0.39,0.184-0.636
			c0.06-0.246,0.091-0.406,0.095-0.483h3.99v0.496c-0.135,0.008-0.277,0.025-0.425,0.051s-0.29,0.059-0.425,0.102
			c-0.165,0.055-0.274,0.142-0.327,0.26c-0.053,0.118-0.08,0.25-0.08,0.394v6.38c0,0.152,0.026,0.28,0.08,0.384
			c0.053,0.104,0.162,0.193,0.327,0.27c0.084,0.038,0.223,0.074,0.416,0.108c0.193,0.033,0.342,0.057,0.448,0.069V111z"/>
		<path fill="#002A5C" d="M85.749,102.996c0.444,0.406,0.797,0.896,1.057,1.473c0.261,0.575,0.391,1.23,0.391,1.967
			c0,0.656-0.11,1.28-0.33,1.873s-0.538,1.103-0.952,1.529c-0.436,0.445-0.948,0.791-1.536,1.038
			c-0.588,0.248-1.289,0.372-2.101,0.372c-0.656,0-1.276-0.108-1.86-0.324s-1.098-0.529-1.542-0.939
			c-0.44-0.402-0.789-0.891-1.047-1.467c-0.258-0.575-0.387-1.216-0.387-1.923c0-0.736,0.126-1.404,0.377-2.003
			c0.252-0.599,0.598-1.111,1.038-1.539c0.436-0.419,0.953-0.741,1.552-0.968c0.599-0.227,1.237-0.34,1.914-0.34
			c0.673,0,1.305,0.11,1.895,0.33C84.806,102.295,85.317,102.602,85.749,102.996z M84.117,109.443
			c0.19-0.386,0.328-0.822,0.413-1.31s0.127-1.039,0.127-1.653c0-0.521-0.037-1.029-0.111-1.522c-0.074-0.494-0.2-0.934-0.377-1.319
			c-0.182-0.386-0.423-0.695-0.724-0.928c-0.3-0.233-0.675-0.35-1.124-0.35c-0.766,0-1.348,0.363-1.746,1.09
			s-0.597,1.754-0.597,3.08c0,0.563,0.043,1.096,0.13,1.596c0.086,0.5,0.223,0.937,0.409,1.31c0.19,0.377,0.432,0.671,0.724,0.881
			s0.652,0.314,1.079,0.314c0.419,0,0.779-0.105,1.079-0.318C83.7,110.103,83.939,109.812,84.117,109.443z"/>
		<path fill="#002A5C" d="M98.555,111h-3.457c-0.596-0.914-1.092-1.642-1.487-2.184c-0.396-0.542-0.887-1.168-1.475-1.879h-0.348
			v2.736c0,0.152,0.028,0.281,0.086,0.387c0.057,0.105,0.166,0.194,0.327,0.267c0.081,0.034,0.207,0.068,0.377,0.104
			c0.172,0.036,0.319,0.061,0.441,0.073V111h-4.805v-0.495c0.123-0.013,0.285-0.03,0.486-0.054c0.201-0.023,0.344-0.052,0.428-0.086
			c0.161-0.067,0.269-0.153,0.324-0.257s0.083-0.236,0.083-0.397v-6.354c0-0.152-0.023-0.279-0.07-0.381s-0.159-0.19-0.336-0.267
			c-0.135-0.055-0.295-0.102-0.479-0.14c-0.185-0.038-0.329-0.065-0.435-0.082v-0.496h5.053c1.13,0,1.988,0.177,2.574,0.53
			c0.586,0.354,0.879,0.888,0.879,1.603c0,0.631-0.181,1.138-0.542,1.521c-0.362,0.383-0.913,0.683-1.654,0.898
			c0.288,0.372,0.623,0.804,1.006,1.295c0.383,0.491,0.782,0.992,1.196,1.505c0.131,0.164,0.31,0.366,0.536,0.605
			c0.227,0.239,0.427,0.387,0.6,0.441c0.097,0.029,0.221,0.055,0.372,0.076c0.15,0.021,0.257,0.034,0.32,0.038V111z M94.232,104.303
			c0-0.601-0.168-1.039-0.504-1.316c-0.337-0.277-0.816-0.416-1.438-0.416h-0.501v3.771h0.482c0.622,0,1.104-0.163,1.447-0.489
			C94.061,105.526,94.232,105.01,94.232,104.303z"/>
		<path fill="#002A5C" d="M107.082,104.57h-0.494c-0.131-0.386-0.342-0.798-0.631-1.238s-0.557-0.677-0.801-0.711
			c-0.135-0.017-0.303-0.031-0.5-0.045c-0.199-0.012-0.369-0.019-0.514-0.019h-0.297v7.065c0,0.152,0.027,0.286,0.082,0.402
			s0.163,0.209,0.324,0.276c0.097,0.038,0.248,0.077,0.453,0.117s0.38,0.069,0.523,0.086V111h-5.021v-0.495
			c0.122-0.013,0.296-0.03,0.517-0.054c0.223-0.023,0.374-0.052,0.455-0.086c0.164-0.067,0.274-0.158,0.33-0.273
			c0.055-0.113,0.082-0.249,0.082-0.406v-7.128h-0.298c-0.144,0-0.314,0.007-0.513,0.019c-0.199,0.014-0.365,0.028-0.5,0.045
			c-0.245,0.034-0.512,0.271-0.802,0.711c-0.289,0.44-0.499,0.853-0.63,1.238h-0.495v-2.578h8.728V104.57z"/>
		<path fill="#002A5C" d="M115.719,104.291h-0.482c-0.123-0.342-0.335-0.688-0.635-1.038c-0.301-0.35-0.6-0.556-0.896-0.619
			c-0.127-0.029-0.304-0.048-0.53-0.054c-0.227-0.007-0.414-0.01-0.562-0.01h-1.308v3.473h0.927c0.233,0,0.444-0.028,0.635-0.083
			s0.364-0.161,0.521-0.317c0.098-0.098,0.195-0.269,0.295-0.514c0.1-0.246,0.164-0.46,0.193-0.642h0.482v3.758h-0.482
			c-0.025-0.178-0.09-0.401-0.193-0.67s-0.201-0.454-0.295-0.556c-0.14-0.152-0.305-0.257-0.495-0.313
			c-0.19-0.058-0.411-0.086-0.66-0.086h-0.927v2.597c0,0.271,0.02,0.485,0.061,0.644c0.04,0.159,0.115,0.28,0.225,0.365
			c0.106,0.08,0.251,0.134,0.436,0.159c0.184,0.025,0.435,0.037,0.752,0.037c0.148,0,0.326-0.002,0.533-0.006
			s0.389-0.017,0.546-0.038c0.178-0.021,0.344-0.053,0.498-0.095c0.155-0.043,0.271-0.104,0.347-0.185
			c0.203-0.207,0.432-0.523,0.686-0.949c0.254-0.425,0.42-0.743,0.501-0.955h0.464L116.182,111h-8.449v-0.495
			c0.119-0.009,0.279-0.025,0.482-0.051s0.348-0.055,0.432-0.089c0.161-0.067,0.27-0.153,0.324-0.257s0.082-0.236,0.082-0.397
			v-6.354c0-0.152-0.023-0.278-0.069-0.378s-0.159-0.189-0.337-0.27c-0.109-0.051-0.264-0.098-0.463-0.14s-0.35-0.07-0.451-0.082
			v-0.496h7.986V104.291z"/>
		<path fill="#002A5C" d="M125.713,108.111L125.535,111h-8.297v-0.495c0.148-0.013,0.322-0.033,0.521-0.061
			c0.198-0.027,0.33-0.054,0.393-0.079c0.152-0.06,0.259-0.142,0.318-0.248c0.059-0.105,0.088-0.24,0.088-0.406v-6.354
			c0-0.152-0.023-0.278-0.069-0.378s-0.159-0.189-0.337-0.27c-0.131-0.06-0.288-0.106-0.473-0.143
			c-0.184-0.036-0.331-0.062-0.441-0.079v-0.496h4.945v0.496c-0.135,0.012-0.295,0.03-0.479,0.054
			c-0.184,0.023-0.344,0.056-0.479,0.099c-0.164,0.055-0.274,0.141-0.33,0.257c-0.055,0.116-0.082,0.248-0.082,0.396v5.923
			c0,0.279,0.02,0.499,0.057,0.66c0.039,0.16,0.113,0.279,0.223,0.355c0.109,0.08,0.264,0.132,0.46,0.155
			c0.197,0.023,0.469,0.034,0.815,0.034c0.339,0,0.668-0.02,0.987-0.06s0.55-0.128,0.688-0.264c0.217-0.216,0.438-0.52,0.664-0.911
			s0.407-0.75,0.543-1.076H125.713z"/>
		<path fill="#002A5C" d="M134.755,108.111L134.577,111h-8.296v-0.495c0.147-0.013,0.321-0.033,0.52-0.061
			c0.199-0.027,0.33-0.054,0.395-0.079c0.152-0.06,0.258-0.142,0.316-0.248c0.06-0.105,0.09-0.24,0.09-0.406v-6.354
			c0-0.152-0.023-0.278-0.07-0.378s-0.158-0.189-0.336-0.27c-0.132-0.06-0.289-0.106-0.474-0.143
			c-0.184-0.036-0.331-0.062-0.44-0.079v-0.496h4.944v0.496c-0.136,0.012-0.295,0.03-0.479,0.054
			c-0.184,0.023-0.344,0.056-0.479,0.099c-0.166,0.055-0.275,0.141-0.33,0.257c-0.056,0.116-0.083,0.248-0.083,0.396v5.923
			c0,0.279,0.019,0.499,0.058,0.66c0.037,0.16,0.111,0.279,0.222,0.355c0.11,0.08,0.264,0.132,0.46,0.155
			c0.197,0.023,0.469,0.034,0.816,0.034c0.338,0,0.667-0.02,0.986-0.06c0.32-0.04,0.549-0.128,0.689-0.264
			c0.215-0.216,0.437-0.52,0.663-0.911c0.226-0.392,0.407-0.75,0.542-1.076H134.755z"/>
		<path fill="#002A5C" d="M143.309,104.291h-0.482c-0.123-0.342-0.335-0.688-0.635-1.038c-0.301-0.35-0.6-0.556-0.896-0.619
			c-0.127-0.029-0.304-0.048-0.53-0.054c-0.227-0.007-0.414-0.01-0.562-0.01h-1.308v3.473h0.927c0.233,0,0.444-0.028,0.635-0.083
			s0.364-0.161,0.521-0.317c0.098-0.098,0.195-0.269,0.295-0.514c0.1-0.246,0.164-0.46,0.193-0.642h0.482v3.758h-0.482
			c-0.025-0.178-0.09-0.401-0.193-0.67s-0.201-0.454-0.295-0.556c-0.14-0.152-0.305-0.257-0.495-0.313
			c-0.19-0.058-0.411-0.086-0.66-0.086h-0.927v2.597c0,0.271,0.02,0.485,0.061,0.644c0.04,0.159,0.115,0.28,0.225,0.365
			c0.106,0.08,0.251,0.134,0.436,0.159c0.184,0.025,0.435,0.037,0.752,0.037c0.148,0,0.326-0.002,0.533-0.006
			s0.389-0.017,0.546-0.038c0.178-0.021,0.344-0.053,0.498-0.095c0.155-0.043,0.271-0.104,0.347-0.185
			c0.203-0.207,0.432-0.523,0.686-0.949c0.254-0.425,0.42-0.743,0.501-0.955h0.464L143.771,111h-8.449v-0.495
			c0.119-0.009,0.279-0.025,0.482-0.051s0.348-0.055,0.432-0.089c0.161-0.067,0.27-0.153,0.324-0.257s0.082-0.236,0.082-0.397
			v-6.354c0-0.152-0.023-0.278-0.069-0.378s-0.159-0.189-0.337-0.27c-0.109-0.051-0.264-0.098-0.463-0.14s-0.35-0.07-0.451-0.082
			v-0.496h7.986V104.291z"/>
		<path fill="#002A5C" d="M147.113,110.777c0,0.305-0.068,0.593-0.207,0.863c-0.137,0.271-0.295,0.504-0.473,0.699
			c-0.182,0.203-0.374,0.383-0.577,0.539s-0.39,0.279-0.559,0.368l-0.292-0.425c0.203-0.127,0.385-0.254,0.546-0.381
			s0.292-0.254,0.394-0.381c0.127-0.148,0.234-0.31,0.324-0.482c0.088-0.174,0.146-0.371,0.171-0.591h-0.323
			c-0.284,0-0.506-0.074-0.664-0.222c-0.158-0.148-0.238-0.348-0.238-0.598c0-0.178,0.072-0.35,0.217-0.517
			c0.144-0.167,0.34-0.251,0.59-0.251c0.363,0,0.637,0.122,0.818,0.365C147.022,110.009,147.113,110.346,147.113,110.777z"/>
		<path fill="#002A5C" d="M37.801,126.6h-4.056v-0.451c0.114-0.008,0.279-0.021,0.495-0.037c0.216-0.018,0.368-0.043,0.457-0.076
			c0.14-0.056,0.241-0.131,0.305-0.226c0.063-0.096,0.095-0.228,0.095-0.397v-6.525c0-0.147-0.023-0.271-0.07-0.371
			s-0.157-0.183-0.33-0.25c-0.127-0.051-0.287-0.099-0.479-0.144c-0.193-0.044-0.351-0.07-0.473-0.079v-0.451h4.056v0.451
			c-0.131,0.004-0.288,0.021-0.47,0.048s-0.341,0.062-0.476,0.104c-0.161,0.051-0.269,0.133-0.324,0.248
			c-0.055,0.113-0.083,0.24-0.083,0.381v6.519c0,0.14,0.031,0.264,0.092,0.371c0.061,0.108,0.166,0.194,0.314,0.257
			c0.089,0.034,0.234,0.071,0.435,0.111c0.201,0.04,0.371,0.062,0.511,0.066V126.6z"/>
		<path fill="#002A5C" d="M45.808,126.6h-3.06v-0.419c0.097-0.009,0.204-0.017,0.321-0.025c0.116-0.009,0.212-0.025,0.289-0.051
			c0.119-0.038,0.207-0.104,0.263-0.2c0.058-0.095,0.086-0.219,0.086-0.371v-3.219c0-0.443-0.105-0.787-0.315-1.027
			c-0.21-0.242-0.466-0.362-0.767-0.362c-0.225,0-0.431,0.035-0.617,0.104c-0.187,0.07-0.352,0.156-0.497,0.258
			c-0.14,0.097-0.251,0.201-0.334,0.313c-0.083,0.112-0.143,0.202-0.181,0.271v3.599c0,0.144,0.03,0.263,0.089,0.355
			s0.148,0.165,0.267,0.216c0.089,0.042,0.185,0.074,0.289,0.096c0.104,0.021,0.211,0.035,0.321,0.044v0.419h-3.066v-0.419
			c0.097-0.009,0.198-0.017,0.302-0.025c0.104-0.009,0.193-0.025,0.27-0.051c0.119-0.038,0.206-0.104,0.264-0.199
			c0.057-0.096,0.085-0.219,0.085-0.371v-3.861c0-0.144-0.031-0.275-0.092-0.396c-0.061-0.12-0.147-0.219-0.257-0.295
			c-0.081-0.051-0.176-0.087-0.286-0.11s-0.229-0.039-0.355-0.048v-0.419l2.082-0.14l0.089,0.089v0.883h0.032
			c0.102-0.102,0.229-0.224,0.381-0.365s0.296-0.258,0.432-0.346c0.157-0.102,0.343-0.187,0.559-0.254
			c0.216-0.068,0.459-0.102,0.73-0.102c0.601,0,1.046,0.187,1.336,0.562c0.29,0.374,0.435,0.872,0.435,1.495v3.256
			c0,0.148,0.025,0.268,0.076,0.358s0.138,0.162,0.26,0.213c0.102,0.042,0.189,0.072,0.263,0.089
			c0.074,0.017,0.177,0.029,0.308,0.038V126.6z"/>
		<path fill="#002A5C" d="M53.619,126.6h-3.06v-0.419c0.097-0.009,0.204-0.017,0.321-0.025c0.116-0.009,0.212-0.025,0.289-0.051
			c0.119-0.038,0.207-0.104,0.263-0.2c0.058-0.095,0.086-0.219,0.086-0.371v-3.219c0-0.443-0.105-0.787-0.315-1.027
			c-0.21-0.242-0.466-0.362-0.767-0.362c-0.225,0-0.431,0.035-0.617,0.104c-0.187,0.07-0.352,0.156-0.497,0.258
			c-0.14,0.097-0.251,0.201-0.334,0.313c-0.083,0.112-0.143,0.202-0.181,0.271v3.599c0,0.144,0.03,0.263,0.089,0.355
			s0.148,0.165,0.267,0.216c0.089,0.042,0.185,0.074,0.289,0.096c0.104,0.021,0.211,0.035,0.321,0.044v0.419h-3.066v-0.419
			c0.097-0.009,0.198-0.017,0.302-0.025c0.104-0.009,0.193-0.025,0.27-0.051c0.119-0.038,0.206-0.104,0.264-0.199
			c0.057-0.096,0.085-0.219,0.085-0.371v-3.861c0-0.144-0.031-0.275-0.092-0.396c-0.061-0.12-0.147-0.219-0.257-0.295
			c-0.081-0.051-0.176-0.087-0.286-0.11s-0.229-0.039-0.355-0.048v-0.419l2.082-0.14l0.089,0.089v0.883h0.032
			c0.102-0.102,0.229-0.224,0.381-0.365s0.296-0.258,0.432-0.346c0.157-0.102,0.343-0.187,0.559-0.254
			c0.216-0.068,0.459-0.102,0.73-0.102c0.601,0,1.046,0.187,1.336,0.562c0.29,0.374,0.435,0.872,0.435,1.495v3.256
			c0,0.148,0.025,0.268,0.076,0.358s0.138,0.162,0.26,0.213c0.102,0.042,0.189,0.072,0.263,0.089
			c0.074,0.017,0.177,0.029,0.308,0.038V126.6z"/>
		<path fill="#002A5C" d="M60.624,123.406c0,0.44-0.07,0.873-0.209,1.299c-0.14,0.425-0.339,0.786-0.598,1.082
			c-0.292,0.339-0.631,0.59-1.017,0.756c-0.385,0.164-0.817,0.247-1.296,0.247c-0.398,0-0.777-0.075-1.137-0.226
			s-0.68-0.369-0.959-0.656c-0.275-0.284-0.495-0.63-0.658-1.038s-0.245-0.866-0.245-1.374c0-0.979,0.285-1.777,0.854-2.4
			c0.57-0.621,1.316-0.933,2.24-0.933c0.876,0,1.6,0.295,2.17,0.886C60.338,121.639,60.624,122.425,60.624,123.406z M59.31,123.42
			c0-0.318-0.032-0.653-0.095-1.007c-0.064-0.354-0.159-0.652-0.286-0.897c-0.136-0.263-0.314-0.474-0.534-0.632
			c-0.221-0.159-0.49-0.238-0.808-0.238c-0.327,0-0.605,0.08-0.836,0.241s-0.418,0.381-0.563,0.66
			c-0.135,0.258-0.231,0.553-0.286,0.883s-0.083,0.649-0.083,0.958c0,0.406,0.033,0.782,0.099,1.127
			c0.065,0.345,0.17,0.652,0.315,0.923c0.144,0.271,0.325,0.484,0.543,0.639s0.489,0.231,0.811,0.231
			c0.53,0,0.949-0.256,1.259-0.769C59.155,125.027,59.31,124.32,59.31,123.42z"/>
		<path fill="#002A5C" d="M67.837,120.729c-0.19,0.033-0.371,0.103-0.543,0.206c-0.171,0.104-0.318,0.286-0.441,0.549
			c-0.25,0.567-0.508,1.158-0.774,1.774c-0.267,0.615-0.544,1.262-0.832,1.939c-0.084,0.194-0.175,0.425-0.27,0.691
			c-0.096,0.267-0.183,0.522-0.264,0.768h-0.495c-0.402-0.994-0.772-1.9-1.111-2.72c-0.338-0.818-0.69-1.657-1.054-2.517
			c-0.084-0.194-0.221-0.346-0.41-0.454c-0.188-0.107-0.377-0.177-0.568-0.206v-0.419h2.896v0.444
			c-0.127,0.004-0.286,0.03-0.476,0.079s-0.286,0.115-0.286,0.199c0,0.013,0.011,0.046,0.032,0.099
			c0.021,0.053,0.042,0.113,0.063,0.181c0.173,0.432,0.418,1.033,0.734,1.808c0.316,0.773,0.574,1.396,0.772,1.87
			c0.152-0.363,0.344-0.815,0.574-1.356s0.479-1.146,0.746-1.813c0.042-0.114,0.083-0.221,0.121-0.32s0.057-0.2,0.057-0.302
			c0-0.071-0.035-0.136-0.105-0.193c-0.07-0.057-0.153-0.106-0.25-0.148c-0.098-0.042-0.193-0.074-0.286-0.096
			c-0.093-0.021-0.169-0.035-0.229-0.044v-0.406h2.395V120.729z"/>
		<path fill="#002A5C" d="M74.169,126.485c-0.199,0.072-0.374,0.13-0.523,0.175c-0.15,0.044-0.321,0.066-0.511,0.066
			c-0.33,0-0.593-0.077-0.791-0.231c-0.196-0.154-0.322-0.38-0.377-0.677h-0.038c-0.275,0.305-0.57,0.538-0.885,0.699
			c-0.315,0.16-0.695,0.24-1.14,0.24c-0.47,0-0.856-0.144-1.158-0.432c-0.303-0.287-0.454-0.664-0.454-1.129
			c0-0.242,0.034-0.457,0.102-0.648c0.068-0.189,0.169-0.361,0.305-0.514c0.106-0.127,0.246-0.24,0.419-0.34
			s0.336-0.179,0.489-0.238c0.19-0.071,0.577-0.205,1.159-0.399c0.582-0.194,0.974-0.347,1.177-0.457v-0.628
			c0-0.056-0.012-0.161-0.035-0.318c-0.023-0.156-0.073-0.305-0.149-0.443c-0.084-0.157-0.204-0.294-0.358-0.41
			c-0.155-0.116-0.374-0.174-0.657-0.174c-0.195,0-0.375,0.032-0.543,0.098c-0.167,0.065-0.284,0.135-0.352,0.207
			c0,0.084,0.02,0.209,0.06,0.374c0.041,0.165,0.061,0.317,0.061,0.457c0,0.148-0.066,0.283-0.2,0.406
			c-0.133,0.123-0.318,0.185-0.555,0.185c-0.211,0-0.367-0.075-0.466-0.226c-0.1-0.15-0.149-0.318-0.149-0.505
			c0-0.194,0.069-0.381,0.206-0.559c0.138-0.178,0.316-0.336,0.537-0.477c0.19-0.118,0.421-0.219,0.692-0.301
			c0.271-0.083,0.535-0.124,0.793-0.124c0.355,0,0.666,0.024,0.93,0.073c0.264,0.049,0.504,0.153,0.72,0.314
			c0.216,0.156,0.38,0.369,0.492,0.638c0.112,0.269,0.168,0.614,0.168,1.038c0,0.604-0.006,1.141-0.019,1.608
			s-0.019,0.979-0.019,1.533c0,0.165,0.029,0.296,0.085,0.394c0.058,0.098,0.145,0.18,0.264,0.248
			c0.063,0.037,0.164,0.059,0.302,0.062c0.137,0.005,0.278,0.007,0.422,0.007V126.485z M71.954,123.134
			c-0.36,0.106-0.675,0.21-0.946,0.312s-0.522,0.229-0.755,0.382c-0.211,0.145-0.379,0.315-0.501,0.512
			c-0.123,0.197-0.184,0.432-0.184,0.703c0,0.353,0.092,0.611,0.276,0.776c0.185,0.165,0.418,0.248,0.702,0.248
			c0.3,0,0.565-0.073,0.793-0.22s0.421-0.318,0.578-0.519L71.954,123.134z"/>
		<path fill="#002A5C" d="M77.815,126.765c-0.906,0-1.614-0.301-2.126-0.901s-0.768-1.407-0.768-2.418
			c0-0.44,0.069-0.853,0.206-1.235c0.138-0.383,0.338-0.73,0.6-1.044c0.25-0.301,0.563-0.543,0.939-0.727
			c0.376-0.185,0.787-0.276,1.231-0.276c0.614,0,1.113,0.147,1.498,0.441s0.578,0.694,0.578,1.202c0,0.212-0.051,0.399-0.152,0.562
			s-0.269,0.244-0.501,0.244c-0.25,0-0.443-0.063-0.581-0.189c-0.138-0.127-0.207-0.269-0.207-0.424c0-0.19,0.025-0.386,0.076-0.586
			s0.081-0.347,0.089-0.439c-0.076-0.131-0.189-0.219-0.339-0.263s-0.311-0.066-0.484-0.066c-0.203,0-0.396,0.043-0.579,0.13
			s-0.362,0.247-0.535,0.479c-0.156,0.212-0.283,0.497-0.38,0.856c-0.097,0.36-0.146,0.79-0.146,1.289
			c0,0.787,0.174,1.43,0.523,1.927s0.806,0.745,1.372,0.745c0.41,0,0.753-0.1,1.03-0.3c0.277-0.199,0.534-0.499,0.77-0.899
			l0.406,0.267c-0.279,0.499-0.647,0.896-1.104,1.187C78.774,126.619,78.302,126.765,77.815,126.765z"/>
		<path fill="#002A5C" d="M83.989,126.6h-3.021v-0.419c0.097-0.009,0.198-0.017,0.302-0.025c0.104-0.009,0.193-0.025,0.27-0.051
			c0.119-0.038,0.206-0.104,0.264-0.199c0.057-0.096,0.085-0.219,0.085-0.371v-3.861c0-0.136-0.031-0.259-0.092-0.371
			c-0.061-0.112-0.147-0.206-0.257-0.282c-0.081-0.051-0.197-0.094-0.349-0.13s-0.292-0.058-0.419-0.066v-0.419l2.209-0.14
			l0.089,0.089v5.104c0,0.148,0.028,0.271,0.085,0.368s0.146,0.169,0.268,0.216c0.092,0.038,0.183,0.068,0.271,0.092
			s0.187,0.039,0.296,0.048V126.6z M83.195,117.795c0,0.242-0.08,0.452-0.238,0.632c-0.159,0.18-0.354,0.271-0.587,0.271
			c-0.216,0-0.403-0.086-0.562-0.258c-0.158-0.171-0.238-0.367-0.238-0.587c0-0.232,0.08-0.436,0.238-0.609
			c0.159-0.174,0.346-0.261,0.562-0.261c0.241,0,0.439,0.082,0.593,0.245C83.118,117.391,83.195,117.58,83.195,117.795z"/>
		<path fill="#002A5C" d="M91,123.406c0,0.44-0.07,0.873-0.209,1.299c-0.14,0.425-0.339,0.786-0.598,1.082
			c-0.292,0.339-0.631,0.59-1.017,0.756c-0.385,0.164-0.817,0.247-1.296,0.247c-0.398,0-0.777-0.075-1.137-0.226
			s-0.68-0.369-0.959-0.656c-0.275-0.284-0.495-0.63-0.658-1.038s-0.245-0.866-0.245-1.374c0-0.979,0.285-1.777,0.854-2.4
			c0.57-0.621,1.316-0.933,2.24-0.933c0.876,0,1.6,0.295,2.17,0.886C90.714,121.639,91,122.425,91,123.406z M89.686,123.42
			c0-0.318-0.032-0.653-0.095-1.007c-0.064-0.354-0.159-0.652-0.286-0.897c-0.136-0.263-0.314-0.474-0.534-0.632
			c-0.221-0.159-0.49-0.238-0.808-0.238c-0.327,0-0.605,0.08-0.836,0.241s-0.418,0.381-0.563,0.66
			c-0.135,0.258-0.231,0.553-0.286,0.883s-0.083,0.649-0.083,0.958c0,0.406,0.033,0.782,0.099,1.127
			c0.065,0.345,0.17,0.652,0.315,0.923c0.144,0.271,0.325,0.484,0.543,0.639s0.489,0.231,0.811,0.231
			c0.53,0,0.949-0.256,1.259-0.769C89.531,125.027,89.686,124.32,89.686,123.42z M89.159,117.332c0,0.161-0.037,0.292-0.111,0.394
			c-0.074,0.102-0.183,0.21-0.327,0.323c-0.211,0.17-0.488,0.386-0.829,0.648c-0.34,0.262-0.708,0.548-1.101,0.856l-0.241-0.203
			c0.381-0.562,0.646-0.96,0.796-1.19c0.15-0.23,0.312-0.485,0.486-0.765c0.131-0.216,0.258-0.363,0.381-0.441
			s0.265-0.117,0.425-0.117c0.152,0,0.277,0.052,0.375,0.155S89.159,117.209,89.159,117.332z"/>
		<path fill="#002A5C" d="M98.943,126.6h-3.06v-0.419c0.097-0.009,0.204-0.017,0.321-0.025c0.116-0.009,0.212-0.025,0.289-0.051
			c0.119-0.038,0.207-0.104,0.263-0.2c0.058-0.095,0.086-0.219,0.086-0.371v-3.219c0-0.443-0.105-0.787-0.315-1.027
			c-0.21-0.242-0.466-0.362-0.767-0.362c-0.225,0-0.431,0.035-0.617,0.104c-0.187,0.07-0.352,0.156-0.497,0.258
			c-0.14,0.097-0.251,0.201-0.334,0.313c-0.083,0.112-0.143,0.202-0.181,0.271v3.599c0,0.144,0.03,0.263,0.089,0.355
			s0.148,0.165,0.267,0.216c0.089,0.042,0.185,0.074,0.289,0.096c0.104,0.021,0.211,0.035,0.321,0.044v0.419h-3.066v-0.419
			c0.097-0.009,0.198-0.017,0.302-0.025c0.104-0.009,0.193-0.025,0.27-0.051c0.119-0.038,0.206-0.104,0.264-0.199
			c0.057-0.096,0.085-0.219,0.085-0.371v-3.861c0-0.144-0.031-0.275-0.092-0.396c-0.061-0.12-0.147-0.219-0.257-0.295
			c-0.081-0.051-0.176-0.087-0.286-0.11s-0.229-0.039-0.355-0.048v-0.419l2.082-0.14l0.089,0.089v0.883h0.032
			c0.102-0.102,0.229-0.224,0.381-0.365s0.296-0.258,0.432-0.346c0.157-0.102,0.343-0.187,0.559-0.254
			c0.216-0.068,0.459-0.102,0.73-0.102c0.601,0,1.046,0.187,1.336,0.562c0.29,0.374,0.435,0.872,0.435,1.495v3.256
			c0,0.148,0.025,0.268,0.076,0.358s0.138,0.162,0.26,0.213c0.102,0.042,0.189,0.072,0.263,0.089
			c0.074,0.017,0.177,0.029,0.308,0.038V126.6z"/>
		<path fill="#002A5C" d="M109.036,126.485c-0.198,0.072-0.374,0.13-0.523,0.175c-0.15,0.044-0.321,0.066-0.511,0.066
			c-0.33,0-0.594-0.077-0.791-0.231c-0.196-0.154-0.322-0.38-0.377-0.677h-0.039c-0.274,0.305-0.57,0.538-0.885,0.699
			c-0.315,0.16-0.695,0.24-1.14,0.24c-0.47,0-0.856-0.144-1.158-0.432c-0.303-0.287-0.454-0.664-0.454-1.129
			c0-0.242,0.033-0.457,0.102-0.648c0.068-0.189,0.17-0.361,0.305-0.514c0.105-0.127,0.246-0.24,0.419-0.34s0.337-0.179,0.489-0.238
			c0.189-0.071,0.576-0.205,1.158-0.399s0.975-0.347,1.178-0.457v-0.628c0-0.056-0.012-0.161-0.035-0.318
			c-0.023-0.156-0.073-0.305-0.149-0.443c-0.085-0.157-0.204-0.294-0.358-0.41s-0.373-0.174-0.657-0.174
			c-0.194,0-0.376,0.032-0.543,0.098s-0.284,0.135-0.353,0.207c0,0.084,0.021,0.209,0.061,0.374
			c0.041,0.165,0.061,0.317,0.061,0.457c0,0.148-0.066,0.283-0.2,0.406c-0.133,0.123-0.318,0.185-0.556,0.185
			c-0.211,0-0.367-0.075-0.466-0.226c-0.1-0.15-0.149-0.318-0.149-0.505c0-0.194,0.068-0.381,0.206-0.559s0.316-0.336,0.536-0.477
			c0.191-0.118,0.422-0.219,0.692-0.301c0.271-0.083,0.535-0.124,0.794-0.124c0.355,0,0.665,0.024,0.93,0.073
			c0.264,0.049,0.504,0.153,0.721,0.314c0.215,0.156,0.379,0.369,0.491,0.638s0.169,0.614,0.169,1.038
			c0,0.604-0.007,1.141-0.02,1.608s-0.02,0.979-0.02,1.533c0,0.165,0.029,0.296,0.086,0.394c0.058,0.098,0.145,0.18,0.264,0.248
			c0.063,0.037,0.164,0.059,0.302,0.062c0.138,0.005,0.278,0.007,0.422,0.007V126.485z M106.82,123.134
			c-0.359,0.106-0.674,0.21-0.945,0.312s-0.522,0.229-0.756,0.382c-0.211,0.145-0.379,0.315-0.501,0.512
			c-0.122,0.197-0.185,0.432-0.185,0.703c0,0.353,0.093,0.611,0.276,0.776c0.185,0.165,0.418,0.248,0.702,0.248
			c0.3,0,0.564-0.073,0.793-0.22s0.421-0.318,0.578-0.519L106.82,123.134z"/>
		<path fill="#002A5C" d="M116.701,126.6h-3.061v-0.419c0.098-0.009,0.205-0.017,0.321-0.025s0.212-0.025,0.288-0.051
			c0.119-0.038,0.207-0.104,0.264-0.2c0.058-0.095,0.086-0.219,0.086-0.371v-3.219c0-0.443-0.105-0.787-0.314-1.027
			c-0.211-0.242-0.467-0.362-0.768-0.362c-0.225,0-0.43,0.035-0.617,0.104c-0.187,0.07-0.352,0.156-0.496,0.258
			c-0.14,0.097-0.251,0.201-0.334,0.313c-0.082,0.112-0.143,0.202-0.182,0.271v3.599c0,0.144,0.03,0.263,0.09,0.355
			c0.059,0.093,0.147,0.165,0.266,0.216c0.09,0.042,0.186,0.074,0.289,0.096c0.104,0.021,0.211,0.035,0.32,0.044v0.419h-3.065
			v-0.419c0.097-0.009,0.198-0.017,0.302-0.025s0.193-0.025,0.27-0.051c0.119-0.038,0.206-0.104,0.264-0.199
			c0.057-0.096,0.086-0.219,0.086-0.371v-3.861c0-0.144-0.031-0.275-0.093-0.396c-0.062-0.12-0.147-0.219-0.257-0.295
			c-0.08-0.051-0.176-0.087-0.285-0.11c-0.11-0.023-0.229-0.039-0.355-0.048v-0.419l2.082-0.14l0.088,0.089v0.883h0.032
			c0.102-0.102,0.229-0.224,0.381-0.365s0.296-0.258,0.432-0.346c0.157-0.102,0.343-0.187,0.559-0.254
			c0.216-0.068,0.459-0.102,0.729-0.102c0.602,0,1.047,0.187,1.337,0.562c0.29,0.374,0.435,0.872,0.435,1.495v3.256
			c0,0.148,0.025,0.268,0.076,0.358s0.138,0.162,0.26,0.213c0.102,0.042,0.189,0.072,0.264,0.089s0.177,0.029,0.309,0.038V126.6z"/>
		<path fill="#002A5C" d="M121.465,126.326c-0.275,0.115-0.535,0.211-0.781,0.289s-0.546,0.117-0.901,0.117
			c-0.524,0-0.894-0.132-1.107-0.396s-0.321-0.638-0.321-1.12v-4.24h-1.129v-0.609h1.154v-1.948h1.156v1.948h1.796v0.609h-1.784
			v3.497c0,0.263,0.01,0.481,0.029,0.657c0.019,0.176,0.064,0.329,0.137,0.46c0.067,0.123,0.169,0.217,0.305,0.279
			c0.135,0.064,0.316,0.096,0.545,0.096c0.106,0,0.262-0.01,0.467-0.028c0.205-0.02,0.351-0.044,0.436-0.073V126.326z"/>
		<path fill="#002A5C" d="M125.25,126.6h-3.021v-0.419c0.098-0.009,0.198-0.017,0.303-0.025c0.104-0.009,0.193-0.025,0.27-0.051
			c0.118-0.038,0.205-0.104,0.264-0.199c0.057-0.096,0.085-0.219,0.085-0.371v-3.861c0-0.136-0.03-0.259-0.093-0.371
			c-0.061-0.112-0.146-0.206-0.256-0.282c-0.081-0.051-0.197-0.094-0.35-0.13s-0.292-0.058-0.419-0.066v-0.419l2.209-0.14
			l0.089,0.089v5.104c0,0.148,0.028,0.271,0.085,0.368s0.146,0.169,0.269,0.216c0.092,0.038,0.182,0.068,0.271,0.092
			s0.187,0.039,0.296,0.048V126.6z M124.457,117.795c0,0.242-0.08,0.452-0.238,0.632s-0.354,0.271-0.587,0.271
			c-0.216,0-0.403-0.086-0.562-0.258c-0.158-0.171-0.238-0.367-0.238-0.587c0-0.232,0.08-0.436,0.238-0.609s0.346-0.261,0.562-0.261
			c0.241,0,0.438,0.082,0.593,0.245C124.38,117.391,124.457,117.58,124.457,117.795z"/>
		<path fill="#002A5C" d="M130.021,123.654h-3.783v-1.003h3.783V123.654z"/>
		<path fill="#002A5C" d="M136.708,125.127c-0.263,0.499-0.614,0.897-1.054,1.193s-0.945,0.444-1.518,0.444
			c-0.503,0-0.944-0.089-1.323-0.267c-0.378-0.178-0.69-0.419-0.937-0.724c-0.245-0.305-0.428-0.66-0.549-1.066
			c-0.12-0.406-0.181-0.836-0.181-1.288c0-0.406,0.064-0.806,0.193-1.197c0.13-0.392,0.319-0.743,0.568-1.057
			c0.241-0.301,0.54-0.543,0.898-0.727c0.357-0.185,0.759-0.276,1.202-0.276c0.457,0,0.85,0.072,1.175,0.216s0.591,0.341,0.794,0.59
			c0.194,0.237,0.339,0.517,0.435,0.838c0.095,0.322,0.143,0.671,0.143,1.048v0.419h-4.146c0,0.411,0.039,0.785,0.118,1.12
			c0.078,0.335,0.202,0.63,0.371,0.884c0.165,0.246,0.381,0.44,0.647,0.582c0.267,0.143,0.584,0.213,0.952,0.213
			c0.376,0,0.701-0.088,0.975-0.265c0.272-0.176,0.536-0.494,0.79-0.954L136.708,125.127z M135.305,122.74
			c0-0.236-0.02-0.489-0.06-0.76c-0.04-0.27-0.104-0.495-0.194-0.677c-0.097-0.194-0.23-0.353-0.399-0.475s-0.388-0.184-0.653-0.184
			c-0.445,0-0.814,0.185-1.108,0.554s-0.454,0.883-0.479,1.541H135.305z"/>
		<path fill="#002A5C" d="M144.417,126.485l-2.189,0.14l-0.096-0.089v-0.584l-0.051-0.013c-0.22,0.245-0.491,0.446-0.814,0.604
			c-0.323,0.156-0.656,0.234-0.999,0.234c-0.354,0-0.697-0.079-1.029-0.238c-0.332-0.158-0.621-0.382-0.865-0.67
			c-0.25-0.291-0.447-0.643-0.593-1.053c-0.146-0.411-0.219-0.863-0.219-1.359c0-0.452,0.078-0.882,0.234-1.288
			s0.372-0.762,0.647-1.066c0.257-0.283,0.572-0.51,0.947-0.679c0.373-0.17,0.755-0.254,1.144-0.254c0.292,0,0.578,0.036,0.859,0.11
			c0.28,0.074,0.522,0.169,0.726,0.282v-2.181c0-0.179-0.029-0.341-0.089-0.487c-0.06-0.146-0.142-0.257-0.247-0.333
			c-0.119-0.081-0.279-0.14-0.479-0.176c-0.201-0.036-0.418-0.062-0.651-0.079v-0.394l2.564-0.14l0.096,0.095v8.438
			c0,0.147,0.028,0.273,0.086,0.377c0.057,0.104,0.141,0.191,0.25,0.264c0.081,0.051,0.197,0.082,0.35,0.095
			s0.292,0.021,0.419,0.025V126.485z M142.119,125.387v-3.662c-0.033-0.11-0.089-0.229-0.164-0.355
			c-0.076-0.127-0.172-0.243-0.285-0.35c-0.123-0.105-0.267-0.193-0.432-0.263c-0.164-0.07-0.356-0.104-0.576-0.104
			c-0.254,0-0.486,0.065-0.7,0.196s-0.402,0.319-0.567,0.565c-0.156,0.236-0.279,0.538-0.37,0.904s-0.136,0.771-0.136,1.215
			c0,0.355,0.033,0.679,0.102,0.969c0.066,0.29,0.182,0.56,0.342,0.809c0.147,0.237,0.336,0.428,0.566,0.572
			c0.23,0.144,0.504,0.215,0.82,0.215c0.338,0,0.618-0.073,0.84-0.222S141.967,125.564,142.119,125.387z"/>
		<path fill="#002A5C" d="M151.085,126.485c-0.198,0.072-0.374,0.13-0.523,0.175c-0.15,0.044-0.321,0.066-0.511,0.066
			c-0.33,0-0.594-0.077-0.791-0.231c-0.196-0.154-0.322-0.38-0.377-0.677h-0.039c-0.274,0.305-0.57,0.538-0.885,0.699
			c-0.315,0.16-0.695,0.24-1.14,0.24c-0.47,0-0.856-0.144-1.158-0.432c-0.303-0.287-0.454-0.664-0.454-1.129
			c0-0.242,0.033-0.457,0.102-0.648c0.068-0.189,0.17-0.361,0.305-0.514c0.105-0.127,0.246-0.24,0.419-0.34s0.337-0.179,0.489-0.238
			c0.189-0.071,0.576-0.205,1.158-0.399s0.975-0.347,1.178-0.457v-0.628c0-0.056-0.012-0.161-0.035-0.318
			c-0.023-0.156-0.073-0.305-0.149-0.443c-0.085-0.157-0.204-0.294-0.358-0.41s-0.373-0.174-0.657-0.174
			c-0.194,0-0.376,0.032-0.543,0.098s-0.284,0.135-0.353,0.207c0,0.084,0.021,0.209,0.061,0.374
			c0.041,0.165,0.061,0.317,0.061,0.457c0,0.148-0.066,0.283-0.2,0.406c-0.133,0.123-0.318,0.185-0.556,0.185
			c-0.211,0-0.367-0.075-0.466-0.226c-0.1-0.15-0.149-0.318-0.149-0.505c0-0.194,0.068-0.381,0.206-0.559s0.316-0.336,0.536-0.477
			c0.191-0.118,0.422-0.219,0.692-0.301c0.271-0.083,0.535-0.124,0.794-0.124c0.355,0,0.665,0.024,0.93,0.073
			c0.264,0.049,0.504,0.153,0.721,0.314c0.215,0.156,0.379,0.369,0.491,0.638s0.169,0.614,0.169,1.038
			c0,0.604-0.007,1.141-0.02,1.608s-0.02,0.979-0.02,1.533c0,0.165,0.029,0.296,0.086,0.394c0.058,0.098,0.145,0.18,0.264,0.248
			c0.063,0.037,0.164,0.059,0.302,0.062c0.138,0.005,0.278,0.007,0.422,0.007V126.485z M148.869,123.134
			c-0.359,0.106-0.674,0.21-0.945,0.312s-0.522,0.229-0.756,0.382c-0.211,0.145-0.379,0.315-0.501,0.512
			c-0.122,0.197-0.185,0.432-0.185,0.703c0,0.353,0.093,0.611,0.276,0.776c0.185,0.165,0.418,0.248,0.702,0.248
			c0.3,0,0.564-0.073,0.793-0.22s0.421-0.318,0.578-0.519L148.869,123.134z"/>
		<path fill="#002A5C" d="M158.693,126.485l-2.189,0.14l-0.096-0.089v-0.584l-0.051-0.013c-0.221,0.245-0.492,0.446-0.814,0.604
			c-0.324,0.156-0.656,0.234-0.999,0.234c-0.354,0-0.698-0.079-1.03-0.238c-0.332-0.158-0.62-0.382-0.865-0.67
			c-0.249-0.291-0.447-0.643-0.592-1.053c-0.146-0.411-0.219-0.863-0.219-1.359c0-0.452,0.078-0.882,0.234-1.288
			s0.371-0.762,0.646-1.066c0.258-0.283,0.573-0.51,0.947-0.679c0.374-0.17,0.756-0.254,1.145-0.254c0.291,0,0.578,0.036,0.859,0.11
			c0.28,0.074,0.521,0.169,0.725,0.282v-2.181c0-0.179-0.029-0.341-0.088-0.487c-0.06-0.146-0.143-0.257-0.248-0.333
			c-0.119-0.081-0.278-0.14-0.479-0.176c-0.201-0.036-0.418-0.062-0.651-0.079v-0.394l2.564-0.14l0.095,0.095v8.438
			c0,0.147,0.029,0.273,0.086,0.377s0.141,0.191,0.251,0.264c0.081,0.051,0.196,0.082,0.349,0.095s0.293,0.021,0.42,0.025V126.485z
			 M156.395,125.387v-3.662c-0.033-0.11-0.088-0.229-0.164-0.355s-0.172-0.243-0.285-0.35c-0.123-0.105-0.266-0.193-0.432-0.263
			c-0.164-0.07-0.355-0.104-0.576-0.104c-0.253,0-0.486,0.065-0.699,0.196c-0.214,0.131-0.402,0.319-0.567,0.565
			c-0.156,0.236-0.28,0.538-0.37,0.904c-0.092,0.366-0.137,0.771-0.137,1.215c0,0.355,0.033,0.679,0.102,0.969
			c0.067,0.29,0.182,0.56,0.342,0.809c0.148,0.237,0.337,0.428,0.566,0.572c0.23,0.144,0.504,0.215,0.821,0.215
			c0.338,0,0.618-0.073,0.839-0.222C156.057,125.728,156.243,125.564,156.395,125.387z"/>
	</g>
</g>
<line fill="#FFFFFF" stroke="#262728" stroke-linecap="round" stroke-miterlimit="10" stroke-dasharray="1,3" x1="74" y1="74.5" x2="119" y2="74.5"/>
</svg>
