<?xml version="1.0" encoding="utf-8"?>
<!-- Generator: Adobe Illustrator 16.0.4, SVG Export Plug-In . SVG Version: 6.00 Build 0)  -->
<!DOCTYPE svg PUBLIC "-//W3C//DTD SVG 1.1//EN" "http://www.w3.org/Graphics/SVG/1.1/DTD/svg11.dtd">
<svg version="1.1" id="Layer_1" xmlns="http://www.w3.org/2000/svg" xmlns:xlink="http://www.w3.org/1999/xlink" x="0px" y="0px"
	 width="219px" height="151px" viewBox="0 0 219 151" enable-background="new 0 0 219 151" xml:space="preserve">
<g>
	<path fill="#002A5C" d="M62.393,36.643c0.773-0.504,1.731-0.908,2.874-1.213c1.143-0.305,2.399-0.457,3.771-0.457
		c2.684,0,4.813,0.489,6.39,1.468c1.577,0.979,2.364,2.376,2.364,4.192c0,1.371-0.275,2.584-0.826,3.639
		c-0.551,1.055-1.295,1.963-2.232,2.725c-0.902,0.738-1.896,1.371-2.979,1.898s-2.142,0.979-3.173,1.354
		c-0.996,0.363-2.188,0.791-3.577,1.283c-1.389,0.492-2.651,0.973-3.788,1.441l-0.07,0.281h14.889L74.943,58H55.889l0.791-3.516
		c0.621-0.48,1.351-0.973,2.188-1.477s1.573-0.943,2.206-1.318c0.668-0.387,1.479-0.853,2.435-1.397
		c0.956-0.544,1.731-1.017,2.329-1.415c0.68-0.445,1.348-0.955,2.004-1.529c0.656-0.574,1.242-1.242,1.758-2.004
		c0.516-0.785,0.908-1.579,1.178-2.382c0.27-0.803,0.404-1.767,0.404-2.892c0-1.078-0.287-1.922-0.861-2.531
		c-0.574-0.609-1.348-0.914-2.32-0.914c-0.68,0-1.233,0.064-1.661,0.193c-0.428,0.129-0.817,0.264-1.169,0.404
		c0.164,0.457,0.334,0.955,0.51,1.494c0.176,0.539,0.264,1.113,0.264,1.723c0,0.832-0.287,1.521-0.861,2.065
		s-1.324,0.817-2.25,0.817c-0.879,0-1.579-0.287-2.101-0.861s-0.782-1.271-0.782-2.092c0-0.645,0.208-1.295,0.624-1.951
		S61.596,37.17,62.393,36.643z"/>
	<path fill="#002A5C" d="M101.161,37.662c0.738,0.82,1.286,1.784,1.644,2.892c0.358,1.108,0.536,2.306,0.536,3.595
		c0,2.109-0.357,4.072-1.072,5.889s-1.676,3.34-2.883,4.57c-1.242,1.289-2.657,2.279-4.245,2.971s-3.308,1.037-5.159,1.037
		c-1.512,0-2.842-0.226-3.99-0.677s-2.098-1.081-2.848-1.89c-0.762-0.809-1.333-1.77-1.714-2.883
		c-0.381-1.113-0.571-2.332-0.571-3.656c0-1.957,0.299-3.782,0.896-5.476c0.597-1.694,1.488-3.237,2.672-4.632
		c1.137-1.348,2.543-2.423,4.219-3.226c1.676-0.803,3.533-1.204,5.572-1.204c1.582,0,2.95,0.24,4.104,0.721
		C99.476,36.174,100.422,36.83,101.161,37.662z M95.184,52.221c0.586-1.486,1.034-3.129,1.345-4.926
		c0.311-1.798,0.466-3.627,0.466-5.489c0-0.784-0.056-1.507-0.167-2.169c-0.111-0.661-0.296-1.232-0.554-1.712
		c-0.246-0.469-0.562-0.831-0.949-1.089c-0.387-0.258-0.855-0.387-1.406-0.387c-0.938,0-1.822,0.41-2.654,1.229
		c-0.832,0.819-1.605,2.125-2.32,3.917c-0.551,1.439-0.979,3.062-1.283,4.864c-0.305,1.804-0.457,3.548-0.457,5.234
		c0,0.866,0.053,1.613,0.158,2.239s0.287,1.191,0.545,1.694c0.234,0.469,0.551,0.838,0.949,1.106
		c0.398,0.27,0.879,0.404,1.441,0.404c0.984,0,1.898-0.447,2.742-1.344C93.883,54.899,94.598,53.708,95.184,52.221z"/>
	<path fill="#002A5C" d="M140.646,58h-14.502l0.281-1.266c0.363-0.023,0.938-0.082,1.723-0.176c0.785-0.094,1.33-0.188,1.635-0.281
		c0.34-0.105,0.653-0.305,0.94-0.598c0.287-0.293,0.483-0.68,0.589-1.16l3.428-14.818h-4.447l0.367-1.6h0.492
		c1.029,0,1.965-0.111,2.808-0.334c0.842-0.223,1.571-0.492,2.192-0.809c0.631-0.316,1.18-0.659,1.648-1.028
		c0.467-0.369,0.812-0.677,1.035-0.923h3.087c-0.245,0.878-0.485,1.774-0.724,2.688c-0.238,0.913-0.463,1.821-0.672,2.723
		l-3.144,13.589c-0.035,0.141-0.067,0.305-0.099,0.492c-0.029,0.187-0.043,0.34-0.043,0.458c0,0.281,0.062,0.516,0.185,0.703
		c0.123,0.188,0.297,0.347,0.521,0.475c0.26,0.142,0.729,0.271,1.41,0.388c0.682,0.117,1.204,0.188,1.569,0.211L140.646,58z"/>
	<path fill="#002A5C" d="M125.404,37.662c0.738,0.82,1.286,1.784,1.645,2.892c0.357,1.108,0.535,2.306,0.535,3.595
		c0,2.109-0.356,4.072-1.072,5.889c-0.715,1.817-1.676,3.34-2.883,4.57c-1.242,1.289-2.656,2.279-4.244,2.971
		s-3.309,1.037-5.159,1.037c-1.513,0-2.843-0.226-3.99-0.677s-2.099-1.081-2.849-1.89c-0.762-0.809-1.332-1.77-1.713-2.883
		c-0.381-1.113-0.571-2.332-0.571-3.656c0-1.957,0.299-3.782,0.896-5.476c0.598-1.694,1.488-3.237,2.672-4.632
		c1.138-1.348,2.543-2.423,4.219-3.226c1.677-0.803,3.533-1.204,5.572-1.204c1.582,0,2.951,0.24,4.104,0.721
		S124.666,36.83,125.404,37.662z M119.428,52.221c0.586-1.486,1.033-3.129,1.345-4.926c0.312-1.798,0.466-3.627,0.466-5.489
		c0-0.784-0.056-1.507-0.167-2.169c-0.11-0.661-0.296-1.232-0.554-1.712c-0.246-0.469-0.562-0.831-0.949-1.089
		s-0.855-0.387-1.406-0.387c-0.938,0-1.822,0.41-2.654,1.229c-0.832,0.819-1.604,2.125-2.319,3.917
		c-0.552,1.439-0.979,3.062-1.283,4.864c-0.305,1.804-0.457,3.548-0.457,5.234c0,0.866,0.054,1.613,0.158,2.239
		s0.287,1.191,0.545,1.694c0.233,0.469,0.551,0.838,0.949,1.106c0.397,0.27,0.879,0.404,1.44,0.404c0.984,0,1.898-0.447,2.742-1.344
		C118.127,54.899,118.842,53.708,119.428,52.221z"/>
</g>
<g>
	<g>
		<path fill="#002A5C" d="M63.056,116.32L62.865,119h-7.04v-0.451c0.102-0.008,0.249-0.021,0.441-0.044
			c0.192-0.021,0.327-0.049,0.403-0.083c0.127-0.055,0.219-0.135,0.276-0.24c0.058-0.105,0.086-0.242,0.086-0.406v-6.448
			c0-0.146-0.024-0.271-0.073-0.382c-0.048-0.109-0.145-0.198-0.289-0.268c-0.097-0.051-0.234-0.1-0.41-0.147
			c-0.175-0.05-0.32-0.077-0.435-0.087v-0.45h3.802v0.45c-0.119,0.005-0.272,0.025-0.46,0.063s-0.325,0.072-0.409,0.103
			c-0.144,0.051-0.242,0.138-0.295,0.261c-0.053,0.122-0.08,0.254-0.08,0.394v6.049c0,0.279,0.014,0.496,0.042,0.65
			c0.027,0.154,0.092,0.273,0.193,0.357c0.097,0.076,0.242,0.127,0.435,0.15c0.193,0.022,0.462,0.034,0.81,0.034
			c0.157,0,0.319-0.004,0.489-0.013c0.17-0.01,0.33-0.025,0.482-0.051c0.148-0.025,0.285-0.062,0.41-0.104
			c0.125-0.045,0.217-0.101,0.276-0.169c0.173-0.193,0.375-0.488,0.606-0.885s0.391-0.717,0.479-0.962L63.056,116.32L63.056,116.32z
			"/>
		<path fill="#002A5C" d="M66.569,119h-3.053v-0.419c0.097-0.009,0.201-0.019,0.311-0.028c0.11-0.01,0.201-0.025,0.273-0.048
			c0.119-0.038,0.208-0.104,0.267-0.2c0.059-0.095,0.089-0.219,0.089-0.371v-7.254c0-0.152-0.033-0.296-0.098-0.43
			c-0.066-0.133-0.151-0.238-0.257-0.314c-0.076-0.051-0.216-0.098-0.419-0.14c-0.203-0.042-0.366-0.067-0.489-0.075v-0.406
			l2.355-0.141l0.089,0.096v8.588c0,0.148,0.027,0.271,0.083,0.365c0.055,0.096,0.144,0.168,0.267,0.219
			c0.093,0.043,0.185,0.074,0.276,0.097c0.091,0.021,0.193,0.035,0.308,0.044V119H66.569z"/>
		<path fill="#002A5C" d="M73.046,117.527c-0.262,0.498-0.614,0.896-1.054,1.193c-0.44,0.295-0.946,0.443-1.517,0.443
			c-0.503,0-0.945-0.089-1.324-0.268c-0.378-0.178-0.69-0.418-0.936-0.724c-0.246-0.305-0.428-0.659-0.549-1.065
			c-0.12-0.406-0.181-0.836-0.181-1.289c0-0.405,0.064-0.805,0.193-1.196c0.129-0.392,0.319-0.743,0.568-1.058
			c0.241-0.301,0.541-0.543,0.898-0.727c0.357-0.186,0.758-0.275,1.203-0.275c0.457,0,0.849,0.071,1.174,0.215
			c0.325,0.145,0.59,0.342,0.793,0.591c0.195,0.237,0.339,0.517,0.435,0.838c0.095,0.321,0.143,0.671,0.143,1.048v0.419h-4.145
			c0,0.411,0.039,0.785,0.118,1.12c0.078,0.335,0.202,0.63,0.371,0.884c0.165,0.246,0.381,0.44,0.647,0.582
			c0.267,0.144,0.584,0.214,0.952,0.214c0.376,0,0.701-0.089,0.975-0.266c0.272-0.176,0.536-0.494,0.79-0.954L73.046,117.527z
			 M71.644,115.141c0-0.236-0.02-0.488-0.06-0.76c-0.041-0.27-0.105-0.495-0.194-0.677c-0.097-0.194-0.23-0.353-0.4-0.476
			c-0.17-0.121-0.387-0.184-0.654-0.184c-0.444,0-0.813,0.186-1.108,0.555c-0.294,0.368-0.454,0.883-0.479,1.541H71.644
			L71.644,115.141z"/>
		<path fill="#002A5C" d="M79.264,118.354c0.169,0.16,0.303,0.342,0.4,0.545s0.146,0.455,0.146,0.756s-0.065,0.582-0.197,0.848
			c-0.132,0.266-0.33,0.494-0.597,0.688c-0.284,0.199-0.622,0.354-1.016,0.465c-0.394,0.109-0.88,0.164-1.46,0.164
			c-0.948,0-1.657-0.139-2.126-0.416c-0.469-0.276-0.705-0.682-0.705-1.215c0-0.432,0.169-0.771,0.508-1.021
			c0.339-0.25,0.77-0.385,1.295-0.406v-0.089c-0.127-0.038-0.258-0.086-0.394-0.144c-0.135-0.057-0.252-0.123-0.349-0.199
			c-0.11-0.089-0.199-0.193-0.267-0.314c-0.068-0.119-0.102-0.27-0.102-0.447c0-0.225,0.08-0.431,0.238-0.618
			c0.159-0.188,0.399-0.351,0.721-0.485v-0.096c-0.406-0.189-0.722-0.436-0.946-0.732c-0.224-0.299-0.336-0.645-0.336-1.037
			c0-0.594,0.221-1.08,0.663-1.461c0.442-0.381,1.008-0.57,1.698-0.57c0.19,0,0.38,0.019,0.568,0.058
			c0.188,0.037,0.379,0.086,0.574,0.146h2.184v0.609h-1.473v0.038c0.157,0.183,0.273,0.383,0.349,0.604
			c0.076,0.22,0.114,0.436,0.114,0.646c0,0.551-0.223,1.017-0.669,1.396c-0.447,0.381-0.966,0.572-1.559,0.572H75.76
			c-0.097,0.033-0.199,0.096-0.305,0.184c-0.106,0.09-0.159,0.209-0.159,0.361c0,0.157,0.044,0.276,0.133,0.359
			c0.089,0.082,0.197,0.139,0.324,0.168c0.123,0.034,0.266,0.055,0.429,0.062c0.163,0.01,0.331,0.016,0.504,0.02
			c0.186,0.005,0.441,0.018,0.765,0.039c0.323,0.021,0.553,0.033,0.688,0.037c0.195,0.009,0.391,0.056,0.587,0.141
			C78.925,118.088,79.104,118.204,79.264,118.354z M78.769,119.889c0-0.236-0.055-0.432-0.165-0.584s-0.277-0.256-0.501-0.311
			c-0.119-0.018-0.362-0.036-0.73-0.059c-0.368-0.021-0.795-0.031-1.282-0.031c-0.457,0.09-0.782,0.238-0.974,0.447
			c-0.193,0.209-0.289,0.479-0.289,0.811c0,0.146,0.032,0.289,0.095,0.425s0.173,0.261,0.33,0.374
			c0.148,0.109,0.347,0.2,0.597,0.271c0.25,0.068,0.554,0.104,0.914,0.104c0.622,0,1.112-0.119,1.469-0.357
			C78.59,120.738,78.769,120.375,78.769,119.889z M77.55,114.639c0-0.494-0.101-0.89-0.301-1.184
			c-0.201-0.294-0.484-0.441-0.848-0.441c-0.199,0-0.369,0.043-0.511,0.125s-0.257,0.199-0.346,0.353
			c-0.084,0.14-0.145,0.308-0.181,0.505c-0.036,0.195-0.054,0.398-0.054,0.605c0,0.469,0.103,0.854,0.308,1.148
			c0.206,0.296,0.471,0.443,0.797,0.443c0.364,0,0.645-0.146,0.841-0.44C77.452,115.459,77.55,115.088,77.55,114.639z"/>
		<path fill="#002A5C" d="M86.58,118.886c-0.199,0.072-0.374,0.13-0.523,0.175c-0.15,0.045-0.321,0.066-0.511,0.066
			c-0.33,0-0.593-0.077-0.791-0.23c-0.196-0.154-0.322-0.381-0.377-0.678H84.34c-0.275,0.305-0.57,0.538-0.885,0.699
			c-0.315,0.16-0.695,0.24-1.14,0.24c-0.47,0-0.856-0.145-1.158-0.432c-0.303-0.287-0.454-0.664-0.454-1.129
			c0-0.242,0.034-0.457,0.102-0.648c0.068-0.189,0.169-0.361,0.305-0.514c0.106-0.127,0.246-0.24,0.419-0.34
			c0.173-0.101,0.336-0.18,0.489-0.238c0.19-0.071,0.577-0.205,1.159-0.399c0.582-0.194,0.974-0.347,1.177-0.457v-0.628
			c0-0.057-0.012-0.161-0.035-0.318c-0.023-0.156-0.073-0.305-0.149-0.443c-0.084-0.156-0.204-0.293-0.358-0.409
			c-0.155-0.116-0.374-0.175-0.657-0.175c-0.195,0-0.375,0.033-0.543,0.099c-0.167,0.065-0.284,0.135-0.352,0.207
			c0,0.084,0.02,0.209,0.06,0.374c0.041,0.165,0.061,0.316,0.061,0.457c0,0.148-0.066,0.283-0.2,0.406
			c-0.133,0.123-0.318,0.185-0.555,0.185c-0.211,0-0.367-0.075-0.466-0.226c-0.1-0.15-0.149-0.318-0.149-0.506
			c0-0.193,0.069-0.381,0.206-0.559c0.138-0.178,0.316-0.336,0.537-0.477c0.19-0.118,0.421-0.219,0.692-0.301
			c0.271-0.084,0.535-0.125,0.793-0.125c0.355,0,0.666,0.024,0.93,0.073c0.264,0.05,0.504,0.153,0.72,0.314
			c0.216,0.155,0.38,0.368,0.492,0.638c0.112,0.27,0.168,0.614,0.168,1.038c0,0.604-0.006,1.142-0.019,1.608
			c-0.013,0.467-0.019,0.979-0.019,1.533c0,0.164,0.029,0.295,0.085,0.394c0.058,0.098,0.145,0.18,0.264,0.248
			c0.063,0.036,0.164,0.059,0.302,0.062c0.137,0.006,0.278,0.008,0.422,0.008v0.407H86.58z M84.364,115.534
			c-0.36,0.106-0.675,0.21-0.946,0.312c-0.271,0.103-0.522,0.229-0.755,0.383c-0.211,0.145-0.379,0.314-0.501,0.512
			c-0.123,0.197-0.184,0.432-0.184,0.703c0,0.353,0.092,0.611,0.276,0.775c0.185,0.165,0.418,0.248,0.702,0.248
			c0.3,0,0.565-0.072,0.793-0.22s0.421-0.317,0.578-0.519L84.364,115.534z"/>
		<path fill="#002A5C" d="M96.526,118.886c-0.199,0.072-0.374,0.13-0.523,0.175c-0.15,0.045-0.321,0.066-0.511,0.066
			c-0.33,0-0.593-0.077-0.791-0.23c-0.196-0.154-0.322-0.381-0.377-0.678h-0.038c-0.275,0.305-0.57,0.538-0.885,0.699
			c-0.315,0.16-0.695,0.24-1.14,0.24c-0.47,0-0.856-0.145-1.158-0.432c-0.303-0.287-0.454-0.664-0.454-1.129
			c0-0.242,0.034-0.457,0.102-0.648c0.068-0.189,0.169-0.361,0.305-0.514c0.106-0.127,0.246-0.24,0.419-0.34
			c0.173-0.101,0.336-0.18,0.489-0.238c0.19-0.071,0.577-0.205,1.159-0.399s0.974-0.347,1.177-0.457v-0.628
			c0-0.057-0.012-0.161-0.035-0.318c-0.023-0.156-0.073-0.305-0.149-0.443c-0.084-0.156-0.204-0.293-0.358-0.409
			c-0.155-0.116-0.374-0.175-0.657-0.175c-0.195,0-0.375,0.033-0.543,0.099c-0.167,0.065-0.284,0.135-0.352,0.207
			c0,0.084,0.02,0.209,0.06,0.374c0.041,0.165,0.061,0.316,0.061,0.457c0,0.148-0.066,0.283-0.2,0.406
			c-0.133,0.123-0.318,0.185-0.555,0.185c-0.211,0-0.367-0.075-0.466-0.226c-0.1-0.15-0.149-0.318-0.149-0.506
			c0-0.193,0.069-0.381,0.206-0.559c0.138-0.178,0.316-0.336,0.537-0.477c0.19-0.118,0.421-0.219,0.692-0.301
			c0.271-0.084,0.535-0.125,0.793-0.125c0.355,0,0.666,0.024,0.93,0.073c0.264,0.05,0.504,0.153,0.72,0.314
			c0.216,0.155,0.38,0.368,0.492,0.638c0.112,0.27,0.168,0.614,0.168,1.038c0,0.604-0.006,1.142-0.019,1.608
			c-0.013,0.467-0.019,0.979-0.019,1.533c0,0.164,0.029,0.295,0.085,0.394c0.058,0.098,0.145,0.18,0.264,0.248
			c0.063,0.036,0.164,0.059,0.302,0.062c0.137,0.006,0.278,0.008,0.422,0.008v0.407H96.526z M94.311,115.534
			c-0.36,0.106-0.675,0.21-0.946,0.312c-0.271,0.103-0.522,0.229-0.755,0.383c-0.211,0.145-0.379,0.314-0.501,0.512
			c-0.123,0.197-0.184,0.432-0.184,0.703c0,0.353,0.092,0.611,0.276,0.775c0.185,0.165,0.418,0.248,0.702,0.248
			c0.3,0,0.565-0.072,0.793-0.22s0.421-0.317,0.578-0.519L94.311,115.534z"/>
		<path fill="#002A5C" d="M112.902,119h-4.881v-0.495c0.144-0.013,0.32-0.034,0.53-0.063c0.209-0.028,0.352-0.062,0.428-0.096
			c0.157-0.062,0.269-0.148,0.336-0.26s0.102-0.25,0.102-0.419v-6.729l-3.098,7.916h-0.8c-0.038-0.14-0.132-0.416-0.282-0.832
			c-0.15-0.414-0.272-0.746-0.365-0.996l-2.279-6.188v5.478c0,0.525,0.035,0.924,0.105,1.197c0.069,0.272,0.183,0.473,0.339,0.6
			c0.106,0.09,0.295,0.175,0.568,0.255c0.273,0.079,0.465,0.127,0.575,0.14V119h-3.872v-0.495c0.106-0.013,0.278-0.041,0.517-0.086
			c0.239-0.044,0.435-0.121,0.587-0.231c0.169-0.117,0.284-0.317,0.343-0.6c0.059-0.281,0.089-0.684,0.089-1.203v-4.463
			c0-0.271-0.034-0.496-0.102-0.676c-0.068-0.18-0.169-0.322-0.305-0.428c-0.169-0.133-0.343-0.217-0.521-0.254
			c-0.178-0.039-0.357-0.064-0.54-0.076v-0.496h4.15l2.22,5.936l1.872-4.816c0.063-0.178,0.125-0.389,0.184-0.635
			c0.06-0.246,0.091-0.406,0.095-0.483h3.992v0.495c-0.137,0.009-0.277,0.025-0.427,0.052s-0.29,0.06-0.426,0.103
			c-0.164,0.055-0.272,0.142-0.326,0.26c-0.053,0.117-0.08,0.25-0.08,0.394v6.38c0,0.152,0.027,0.28,0.08,0.385
			c0.054,0.104,0.162,0.192,0.326,0.27c0.085,0.038,0.224,0.074,0.416,0.107s0.342,0.058,0.446,0.069V119H112.902z"/>
		<path fill="#002A5C" d="M120.713,117.482c-0.146,0.242-0.326,0.469-0.536,0.683c-0.209,0.214-0.446,0.397-0.714,0.55
			c-0.283,0.16-0.57,0.282-0.859,0.364c-0.291,0.083-0.623,0.124-1,0.124c-0.627,0-1.168-0.089-1.621-0.268
			c-0.455-0.178-0.832-0.416-1.127-0.718c-0.297-0.3-0.519-0.653-0.664-1.062s-0.219-0.852-0.219-1.33
			c0-0.432,0.079-0.846,0.237-1.241c0.159-0.396,0.384-0.748,0.677-1.058c0.287-0.301,0.65-0.543,1.088-0.729
			c0.438-0.188,0.928-0.279,1.471-0.279c0.593,0,1.078,0.071,1.459,0.215c0.382,0.146,0.697,0.345,0.945,0.599
			c0.242,0.24,0.418,0.524,0.527,0.854c0.109,0.328,0.165,0.672,0.165,1.03v0.412h-4.291c0,0.868,0.167,1.528,0.501,1.979
			c0.335,0.453,0.865,0.681,1.594,0.681c0.398,0,0.756-0.108,1.072-0.327c0.318-0.218,0.589-0.494,0.812-0.828L120.713,117.482z
			 M119.127,109.732c0,0.189-0.044,0.344-0.131,0.459c-0.086,0.117-0.225,0.236-0.416,0.358c-0.207,0.136-0.535,0.327-0.982,0.575
			c-0.449,0.247-0.957,0.542-1.523,0.886l-0.268-0.241c0.373-0.494,0.66-0.891,0.863-1.185s0.379-0.545,0.527-0.752
			c0.182-0.258,0.354-0.433,0.52-0.522c0.166-0.092,0.371-0.138,0.616-0.138c0.203,0,0.386,0.056,0.549,0.165
			C119.045,109.448,119.127,109.58,119.127,109.732z M118.289,115.07c0-0.254-0.014-0.514-0.039-0.78s-0.068-0.483-0.133-0.653
			c-0.072-0.199-0.17-0.35-0.295-0.451c-0.125-0.101-0.283-0.151-0.473-0.151c-0.326,0-0.586,0.165-0.781,0.495
			s-0.301,0.853-0.317,1.566L118.289,115.07z"/>
		<path fill="#002A5C" d="M128.689,119h-3.969v-0.463c0.209-0.014,0.383-0.031,0.522-0.055s0.209-0.07,0.209-0.144
			c0-0.034-0.019-0.087-0.054-0.157c-0.037-0.072-0.082-0.154-0.137-0.242c-0.08-0.131-0.22-0.34-0.416-0.623
			c-0.197-0.284-0.384-0.549-0.557-0.789c-0.246,0.283-0.451,0.527-0.617,0.73c-0.165,0.204-0.339,0.422-0.521,0.655
			c-0.062,0.076-0.106,0.146-0.133,0.21c-0.025,0.064-0.037,0.102-0.037,0.113c0,0.099,0.068,0.173,0.205,0.224
			c0.14,0.052,0.303,0.076,0.494,0.076V119h-2.578v-0.463c0.344-0.072,0.617-0.188,0.822-0.344c0.206-0.156,0.346-0.276,0.417-0.361
			c0.31-0.332,0.571-0.605,0.785-0.826c0.214-0.219,0.501-0.525,0.86-0.921c-0.24-0.334-0.531-0.739-0.875-1.222
			c-0.342-0.48-0.627-0.875-0.855-1.184c-0.113-0.152-0.255-0.27-0.421-0.353c-0.166-0.082-0.381-0.138-0.646-0.162v-0.463h3.879
			v0.463c-0.139,0-0.275,0.009-0.411,0.024c-0.136,0.019-0.202,0.047-0.202,0.09c0,0.033,0.01,0.076,0.031,0.128
			c0.021,0.051,0.049,0.104,0.082,0.157c0.08,0.137,0.207,0.334,0.379,0.598c0.174,0.262,0.359,0.537,0.559,0.824
			c0.189-0.232,0.35-0.424,0.479-0.57c0.129-0.148,0.297-0.357,0.5-0.628c0.076-0.103,0.123-0.179,0.143-0.229
			s0.027-0.082,0.027-0.096c0-0.072-0.045-0.137-0.135-0.193c-0.092-0.058-0.271-0.092-0.537-0.104v-0.463h2.527v0.463
			c-0.208,0.034-0.408,0.104-0.604,0.21c-0.196,0.105-0.398,0.271-0.609,0.495c-0.33,0.343-0.568,0.594-0.719,0.752
			c-0.15,0.157-0.398,0.422-0.745,0.79c0.194,0.275,0.476,0.675,0.843,1.199s0.686,0.968,0.951,1.326
			c0.114,0.162,0.242,0.293,0.385,0.396c0.141,0.103,0.366,0.169,0.676,0.203V119H128.689z"/>
		<path fill="#002A5C" d="M133.236,119h-4.012v-0.463c0.11-0.01,0.219-0.02,0.323-0.032c0.106-0.013,0.197-0.034,0.272-0.063
			c0.136-0.051,0.23-0.123,0.285-0.219c0.057-0.096,0.084-0.222,0.084-0.377v-3.695c0-0.147-0.035-0.277-0.103-0.391
			s-0.151-0.201-0.254-0.27c-0.076-0.051-0.19-0.1-0.347-0.146c-0.154-0.046-0.295-0.076-0.422-0.088v-0.464l3.11-0.165l0.095,0.096
			v5.039c0,0.148,0.032,0.274,0.096,0.379c0.064,0.104,0.154,0.18,0.273,0.23c0.084,0.039,0.178,0.072,0.278,0.102
			c0.103,0.03,0.207,0.051,0.317,0.064V119H133.236z M132.311,110.342c0,0.321-0.123,0.596-0.371,0.822s-0.541,0.34-0.879,0.34
			c-0.344,0-0.639-0.113-0.886-0.34c-0.248-0.227-0.372-0.501-0.372-0.822c0-0.32,0.124-0.597,0.372-0.824
			c0.247-0.229,0.542-0.344,0.886-0.344c0.342,0,0.638,0.114,0.883,0.344C132.188,109.746,132.311,110.021,132.311,110.342z"/>
		<path fill="#002A5C" d="M137.576,119.203c-0.59,0-1.108-0.086-1.559-0.258c-0.451-0.172-0.822-0.404-1.115-0.701
			c-0.291-0.301-0.51-0.655-0.652-1.066c-0.145-0.41-0.217-0.855-0.217-1.339c0-0.44,0.088-0.858,0.264-1.257
			s0.414-0.747,0.715-1.047c0.309-0.311,0.692-0.557,1.151-0.74c0.46-0.184,0.966-0.275,1.521-0.275c0.779,0,1.396,0.146,1.849,0.44
			c0.452,0.294,0.679,0.69,0.679,1.19c0,0.305-0.081,0.55-0.24,0.736c-0.16,0.186-0.438,0.278-0.832,0.278
			c-0.316,0-0.582-0.076-0.797-0.229c-0.214-0.152-0.32-0.352-0.32-0.597c0-0.207,0.033-0.413,0.102-0.616s0.107-0.356,0.121-0.463
			c-0.047-0.076-0.105-0.135-0.178-0.175c-0.073-0.04-0.185-0.06-0.336-0.06c-0.191,0-0.364,0.043-0.521,0.133
			c-0.156,0.089-0.303,0.244-0.438,0.47c-0.131,0.212-0.236,0.495-0.314,0.851c-0.078,0.356-0.117,0.783-0.117,1.283
			c0,0.752,0.178,1.359,0.53,1.82c0.353,0.462,0.774,0.691,1.267,0.691c0.469,0,0.844-0.104,1.12-0.313
			c0.276-0.209,0.522-0.507,0.739-0.892l0.477,0.33c-0.132,0.258-0.287,0.494-0.471,0.707c-0.182,0.215-0.398,0.403-0.652,0.567
			c-0.268,0.175-0.539,0.306-0.812,0.396C138.26,119.158,137.939,119.203,137.576,119.203z"/>
		<path fill="#002A5C" d="M147.469,113.452c0.312,0.292,0.553,0.642,0.717,1.048c0.166,0.406,0.248,0.846,0.248,1.32
			c0,0.469-0.082,0.912-0.244,1.328c-0.164,0.418-0.401,0.773-0.715,1.069c-0.334,0.318-0.732,0.562-1.195,0.73
			c-0.465,0.169-0.993,0.254-1.592,0.254c-0.516,0-0.99-0.074-1.424-0.224c-0.435-0.146-0.818-0.369-1.152-0.666
			c-0.321-0.283-0.575-0.633-0.762-1.051c-0.187-0.416-0.279-0.883-0.279-1.398c0-0.508,0.082-0.961,0.244-1.355
			c0.162-0.396,0.408-0.748,0.732-1.057c0.312-0.297,0.699-0.525,1.159-0.688c0.459-0.164,0.972-0.244,1.539-0.244
			c0.593,0,1.114,0.08,1.563,0.244C146.762,112.927,147.146,113.156,147.469,113.452z M145.844,117.852
			c0.094-0.236,0.161-0.524,0.206-0.862c0.044-0.339,0.066-0.732,0.066-1.183c0-0.296-0.021-0.635-0.063-1.016
			c-0.042-0.381-0.105-0.682-0.189-0.9c-0.103-0.268-0.242-0.477-0.422-0.629c-0.182-0.152-0.407-0.229-0.684-0.229
			c-0.301,0-0.541,0.082-0.721,0.248c-0.18,0.164-0.318,0.378-0.416,0.641c-0.088,0.241-0.15,0.523-0.184,0.848
			c-0.033,0.323-0.052,0.662-0.052,1.013c0,0.462,0.015,0.844,0.046,1.146c0.028,0.303,0.102,0.605,0.215,0.91
			c0.098,0.264,0.236,0.471,0.42,0.623c0.182,0.152,0.412,0.229,0.69,0.229c0.254,0,0.472-0.07,0.654-0.213
			C145.594,118.335,145.736,118.126,145.844,117.852z"/>
	</g>
</g>
<line fill="none" stroke="#262728" stroke-linecap="round" stroke-miterlimit="10" stroke-dasharray="1,3" x1="80" y1="82.5" x2="125" y2="82.5"/>
</svg>
