<?xml version="1.0" encoding="utf-8"?>
<!-- Generator: Adobe Illustrator 16.0.4, SVG Export Plug-In . SVG Version: 6.00 Build 0)  -->
<!DOCTYPE svg PUBLIC "-//W3C//DTD SVG 1.1//EN" "http://www.w3.org/Graphics/SVG/1.1/DTD/svg11.dtd">
<svg version="1.1" id="Layer_1" xmlns="http://www.w3.org/2000/svg" xmlns:xlink="http://www.w3.org/1999/xlink" x="0px" y="0px"
	 width="219px" height="151px" viewBox="0 0 219 151" enable-background="new 0 0 219 151" xml:space="preserve">
<g>
	<g>
		<path fill="#002A5C" d="M65.351,36.643c0.773-0.504,1.731-0.908,2.874-1.213s2.399-0.457,3.771-0.457
			c2.684,0,4.813,0.489,6.39,1.468s2.364,2.376,2.364,4.192c0,1.371-0.275,2.584-0.826,3.639s-1.295,1.963-2.232,2.725
			c-0.902,0.738-1.896,1.371-2.979,1.898s-2.142,0.979-3.173,1.354c-0.996,0.363-2.188,0.791-3.577,1.283s-2.651,0.973-3.788,1.441
			l-0.07,0.281h14.889L77.901,58H58.847l0.791-3.516c0.621-0.48,1.351-0.973,2.188-1.477s1.573-0.943,2.206-1.318
			c0.668-0.387,1.479-0.853,2.435-1.397s1.731-1.017,2.329-1.415c0.68-0.445,1.348-0.955,2.004-1.529s1.242-1.242,1.758-2.004
			c0.516-0.785,0.908-1.579,1.178-2.382s0.404-1.767,0.404-2.892c0-1.078-0.287-1.922-0.861-2.531s-1.348-0.914-2.32-0.914
			c-0.68,0-1.233,0.064-1.661,0.193s-0.817,0.264-1.169,0.404c0.164,0.457,0.334,0.955,0.51,1.494s0.264,1.113,0.264,1.723
			c0,0.832-0.287,1.521-0.861,2.065s-1.324,0.817-2.25,0.817c-0.879,0-1.579-0.287-2.101-0.861s-0.782-1.271-0.782-2.092
			c0-0.645,0.208-1.295,0.624-1.951S64.554,37.17,65.351,36.643z"/>
		<path fill="#002A5C" d="M104.119,37.662c0.738,0.82,1.286,1.784,1.644,2.892s0.536,2.306,0.536,3.595
			c0,2.109-0.357,4.072-1.072,5.889s-1.676,3.34-2.883,4.57c-1.242,1.289-2.657,2.279-4.245,2.971s-3.308,1.037-5.159,1.037
			c-1.512,0-2.842-0.226-3.99-0.677s-2.098-1.081-2.848-1.89c-0.762-0.809-1.333-1.77-1.714-2.883s-0.571-2.332-0.571-3.656
			c0-1.957,0.299-3.782,0.896-5.476s1.488-3.237,2.672-4.632c1.137-1.348,2.543-2.423,4.219-3.226s3.533-1.204,5.572-1.204
			c1.582,0,2.95,0.24,4.104,0.721S103.38,36.83,104.119,37.662z M98.142,52.221c0.586-1.486,1.034-3.129,1.345-4.926
			c0.311-1.798,0.466-3.627,0.466-5.489c0-0.784-0.056-1.507-0.167-2.169c-0.111-0.661-0.296-1.232-0.554-1.712
			c-0.246-0.469-0.562-0.831-0.949-1.089s-0.855-0.387-1.406-0.387c-0.938,0-1.822,0.41-2.654,1.229s-1.605,2.125-2.32,3.917
			c-0.551,1.439-0.979,3.062-1.283,4.864c-0.305,1.804-0.457,3.548-0.457,5.234c0,0.866,0.053,1.613,0.158,2.239
			s0.287,1.191,0.545,1.694c0.234,0.469,0.551,0.838,0.949,1.106c0.398,0.27,0.879,0.404,1.441,0.404
			c0.984,0,1.898-0.447,2.742-1.344C96.841,54.899,97.556,53.708,98.142,52.221z"/>
		<path fill="#002A5C" d="M122.092,58H107.59l0.281-1.266c0.363-0.023,0.938-0.082,1.723-0.176c0.785-0.094,1.33-0.188,1.634-0.281
			c0.34-0.105,0.654-0.305,0.941-0.598s0.482-0.68,0.588-1.16l3.428-14.818h-4.447l0.369-1.6h0.491c1.028,0,1.964-0.111,2.806-0.334
			c0.843-0.223,1.574-0.492,2.193-0.809c0.631-0.316,1.182-0.659,1.648-1.028c0.469-0.369,0.813-0.677,1.035-0.923h3.088
			c-0.244,0.878-0.486,1.774-0.725,2.688c-0.238,0.913-0.463,1.821-0.672,2.723l-3.143,13.589c-0.035,0.141-0.067,0.305-0.096,0.492
			c-0.029,0.188-0.045,0.34-0.045,0.458c0,0.281,0.062,0.516,0.186,0.703c0.123,0.188,0.296,0.347,0.52,0.475
			c0.258,0.142,0.729,0.271,1.41,0.388s1.205,0.188,1.568,0.211L122.092,58z"/>
		<path fill="#002A5C" d="M135.917,58.615c-2.625,0-4.72-0.744-6.284-2.232s-2.347-3.463-2.347-5.924
			c0-4.699,1.758-8.725,5.273-12.076s8.156-5.355,13.922-6.012l0.088,1.74l-1.916,0.315c-1.477,0.387-2.763,0.925-3.858,1.615
			c-1.096,0.689-2.024,1.45-2.786,2.28c-0.75,0.831-1.38,1.747-1.89,2.747s-0.964,2.056-1.362,3.167
			c0.785-0.651,1.723-1.198,2.812-1.64c1.09-0.442,2.391-0.663,3.902-0.663c1.758,0,3.231,0.586,4.421,1.758s1.784,2.695,1.784,4.57
			c0,2.801-1.134,5.227-3.401,7.277S139.222,58.615,135.917,58.615z M141.12,48.314c0-1.23-0.28-2.203-0.842-2.918
			s-1.274-1.072-2.139-1.072c-0.69,0-1.342,0.132-1.956,0.396c-0.613,0.264-1.265,0.788-1.954,1.573
			c-0.082,0.363-0.229,1.063-0.439,2.101s-0.316,2.312-0.316,3.823c0,1.547,0.254,2.754,0.763,3.621s1.184,1.301,2.025,1.301
			c1.31,0,2.447-0.858,3.412-2.575C140.638,52.847,141.12,50.764,141.12,48.314z"/>
	</g>
</g>
<g>
	<g>
		<path fill="#002A5C" d="M57.613,119.216c-0.537,0-1.052-0.105-1.544-0.317s-0.929-0.517-1.31-0.915
			c-0.376-0.397-0.677-0.884-0.901-1.458c-0.224-0.573-0.336-1.221-0.336-1.94s0.11-1.373,0.33-1.959
			c0.22-0.587,0.524-1.092,0.914-1.516c0.384-0.419,0.839-0.742,1.363-0.972c0.524-0.229,1.084-0.343,1.681-0.343
			c0.444,0,0.845,0.055,1.205,0.165s0.702,0.265,1.027,0.463l0.26-0.432h0.508l0.057,3.213h-0.521
			c-0.068-0.313-0.169-0.653-0.304-1.02s-0.294-0.676-0.476-0.93c-0.203-0.288-0.444-0.513-0.723-0.676
			c-0.279-0.163-0.598-0.244-0.958-0.244c-0.41,0-0.792,0.091-1.145,0.272c-0.353,0.183-0.658,0.451-0.916,0.807
			c-0.245,0.344-0.438,0.779-0.577,1.309c-0.139,0.53-0.209,1.12-0.209,1.772c0,0.576,0.073,1.104,0.219,1.585
			c0.146,0.481,0.354,0.903,0.625,1.268c0.271,0.36,0.591,0.642,0.96,0.845c0.37,0.203,0.783,0.305,1.24,0.305
			c0.342,0,0.657-0.054,0.945-0.161c0.288-0.108,0.537-0.251,0.748-0.429c0.211-0.187,0.397-0.397,0.558-0.635
			s0.292-0.495,0.393-0.774l0.476,0.229c-0.364,0.893-0.846,1.531-1.446,1.914C59.156,119.024,58.441,119.216,57.613,119.216z"/>
		<path fill="#002A5C" d="M68.67,118.886l-2.043,0.14l-0.096-0.089v-0.794h-0.038c-0.102,0.106-0.215,0.22-0.342,0.34
			c-0.126,0.121-0.272,0.229-0.437,0.327c-0.19,0.114-0.374,0.201-0.552,0.261c-0.177,0.059-0.429,0.088-0.754,0.088
			c-0.553,0-0.975-0.181-1.264-0.542s-0.434-0.887-0.434-1.575v-2.993c0-0.152-0.029-0.28-0.086-0.384s-0.142-0.193-0.252-0.27
			c-0.077-0.051-0.173-0.087-0.288-0.11c-0.115-0.023-0.236-0.039-0.364-0.048v-0.419l2.088-0.152l0.095,0.089v4.348
			c0,0.453,0.102,0.794,0.305,1.022s0.446,0.343,0.73,0.343c0.233,0,0.44-0.036,0.622-0.107c0.182-0.072,0.334-0.156,0.457-0.254
			c0.114-0.089,0.215-0.183,0.301-0.282c0.087-0.1,0.154-0.191,0.2-0.275v-3.544c0-0.14-0.03-0.264-0.089-0.371
			c-0.059-0.108-0.142-0.2-0.248-0.276c-0.076-0.051-0.189-0.081-0.339-0.092c-0.15-0.011-0.319-0.02-0.505-0.028v-0.419
			l2.278-0.152l0.096,0.089v4.965c0,0.144,0.03,0.267,0.089,0.368c0.059,0.101,0.142,0.188,0.248,0.26
			c0.076,0.046,0.167,0.077,0.273,0.092s0.222,0.024,0.349,0.028V118.886z"/>
		<path fill="#002A5C" d="M80.277,119H77.23v-0.419c0.097-0.009,0.196-0.017,0.295-0.025c0.099-0.009,0.187-0.025,0.263-0.051
			c0.119-0.038,0.207-0.104,0.263-0.2c0.058-0.095,0.086-0.219,0.086-0.371v-3.23c0-0.44-0.101-0.78-0.302-1.02
			c-0.201-0.239-0.452-0.358-0.752-0.358c-0.208,0-0.402,0.032-0.584,0.095c-0.182,0.064-0.349,0.152-0.501,0.268
			c-0.123,0.093-0.225,0.193-0.308,0.301c-0.082,0.108-0.145,0.198-0.187,0.27v3.612c0,0.148,0.025,0.27,0.076,0.365
			c0.051,0.095,0.138,0.168,0.26,0.219c0.097,0.038,0.185,0.066,0.264,0.086c0.078,0.019,0.181,0.032,0.308,0.041V119h-2.983v-0.419
			c0.097-0.009,0.191-0.017,0.282-0.025c0.091-0.009,0.175-0.025,0.251-0.051c0.119-0.038,0.206-0.104,0.264-0.2
			c0.057-0.095,0.085-0.219,0.085-0.371v-3.23c0-0.44-0.101-0.78-0.302-1.02s-0.453-0.358-0.754-0.358
			c-0.208,0-0.403,0.033-0.585,0.099c-0.183,0.065-0.35,0.155-0.503,0.27c-0.123,0.093-0.227,0.198-0.312,0.314
			s-0.148,0.204-0.191,0.264v3.586c0,0.144,0.03,0.265,0.089,0.361c0.059,0.098,0.148,0.172,0.267,0.223
			c0.089,0.042,0.18,0.074,0.273,0.096c0.093,0.021,0.197,0.035,0.311,0.044V119h-3.041v-0.419c0.097-0.009,0.198-0.017,0.301-0.025
			c0.104-0.009,0.194-0.025,0.27-0.051c0.119-0.038,0.207-0.104,0.263-0.199c0.058-0.096,0.086-0.219,0.086-0.371v-3.887
			c0-0.135-0.031-0.257-0.092-0.364c-0.062-0.108-0.147-0.2-0.257-0.276c-0.081-0.051-0.18-0.092-0.298-0.123
			c-0.119-0.032-0.241-0.052-0.368-0.061v-0.419l2.095-0.14l0.089,0.089v0.895h0.044c0.106-0.105,0.235-0.23,0.387-0.374
			s0.294-0.261,0.425-0.349c0.148-0.102,0.333-0.187,0.555-0.254c0.223-0.068,0.462-0.102,0.721-0.102
			c0.406,0,0.755,0.108,1.047,0.326s0.501,0.481,0.628,0.791c0.152-0.148,0.286-0.278,0.402-0.391s0.27-0.232,0.459-0.359
			c0.161-0.109,0.35-0.198,0.567-0.266c0.217-0.068,0.459-0.102,0.726-0.102c0.528,0,0.946,0.173,1.254,0.52
			c0.309,0.348,0.463,0.881,0.463,1.6v3.181c0,0.148,0.025,0.27,0.076,0.365c0.051,0.095,0.138,0.168,0.26,0.219
			c0.097,0.038,0.194,0.066,0.289,0.086c0.096,0.019,0.202,0.032,0.321,0.041V119z"/>
		<path fill="#002A5C" d="M86.869,113.484c0.25,0.296,0.443,0.64,0.581,1.031c0.138,0.392,0.207,0.839,0.207,1.342
			c0,0.496-0.083,0.947-0.248,1.355s-0.383,0.757-0.654,1.045c-0.284,0.291-0.599,0.516-0.946,0.672
			c-0.347,0.157-0.715,0.235-1.104,0.235c-0.376,0-0.686-0.042-0.927-0.127s-0.438-0.185-0.59-0.298h-0.051v1.883
			c0,0.152,0.03,0.28,0.089,0.382s0.15,0.176,0.273,0.223c0.102,0.038,0.247,0.075,0.435,0.111c0.188,0.036,0.344,0.057,0.467,0.061
			v0.419h-3.498v-0.419c0.131-0.009,0.258-0.019,0.381-0.032c0.123-0.012,0.233-0.033,0.33-0.062
			c0.127-0.043,0.216-0.117,0.267-0.223s0.076-0.23,0.076-0.375v-6.658c0-0.127-0.032-0.25-0.095-0.368s-0.146-0.214-0.248-0.286
			c-0.076-0.051-0.182-0.09-0.317-0.117s-0.267-0.045-0.394-0.054v-0.419l2.133-0.14l0.089,0.076v0.704l0.051,0.014
			c0.22-0.254,0.493-0.466,0.819-0.635c0.326-0.17,0.649-0.254,0.971-0.254c0.389,0,0.746,0.082,1.07,0.247
			C86.358,112.982,86.636,113.205,86.869,113.484z M85.834,117.984c0.169-0.263,0.294-0.567,0.375-0.914s0.121-0.734,0.121-1.162
			c0-0.312-0.034-0.632-0.102-0.958s-0.173-0.609-0.317-0.851c-0.144-0.245-0.332-0.444-0.565-0.597s-0.512-0.229-0.838-0.229
			c-0.313,0-0.58,0.068-0.8,0.206s-0.411,0.302-0.571,0.492v3.701c0.038,0.113,0.101,0.232,0.187,0.355
			c0.087,0.122,0.183,0.229,0.289,0.316c0.131,0.106,0.273,0.192,0.425,0.258s0.338,0.098,0.559,0.098
			c0.237,0,0.465-0.062,0.686-0.187S85.687,118.213,85.834,117.984z"/>
		<path fill="#002A5C" d="M91.639,119h-3.053v-0.419c0.097-0.009,0.201-0.018,0.311-0.028s0.201-0.026,0.273-0.048
			c0.119-0.038,0.208-0.104,0.267-0.2c0.059-0.095,0.089-0.219,0.089-0.372v-7.254c0-0.152-0.033-0.295-0.098-0.429
			c-0.066-0.133-0.151-0.238-0.257-0.314c-0.076-0.051-0.216-0.098-0.419-0.14s-0.366-0.067-0.489-0.076v-0.406l2.355-0.14
			l0.089,0.096v8.588c0,0.148,0.027,0.27,0.083,0.365c0.055,0.095,0.144,0.168,0.267,0.219c0.093,0.042,0.185,0.074,0.276,0.096
			c0.091,0.021,0.193,0.035,0.308,0.044V119z"/>
		<path fill="#002A5C" d="M98.117,117.527c-0.262,0.499-0.614,0.897-1.054,1.193s-0.946,0.444-1.517,0.444
			c-0.503,0-0.945-0.089-1.324-0.267c-0.378-0.178-0.69-0.419-0.936-0.724s-0.428-0.66-0.549-1.066
			c-0.12-0.406-0.181-0.836-0.181-1.288c0-0.406,0.064-0.806,0.193-1.197c0.129-0.392,0.319-0.743,0.568-1.057
			c0.241-0.301,0.541-0.543,0.898-0.727c0.357-0.185,0.758-0.276,1.203-0.276c0.457,0,0.849,0.072,1.174,0.216
			s0.59,0.341,0.793,0.59c0.195,0.237,0.339,0.517,0.435,0.838c0.095,0.322,0.143,0.671,0.143,1.048v0.419h-4.145
			c0,0.411,0.039,0.785,0.118,1.12c0.078,0.335,0.202,0.63,0.371,0.884c0.165,0.246,0.381,0.44,0.647,0.582
			c0.267,0.143,0.584,0.213,0.952,0.213c0.376,0,0.701-0.088,0.975-0.265c0.272-0.176,0.536-0.494,0.79-0.954L98.117,117.527z
			 M96.714,115.141c0-0.236-0.02-0.489-0.06-0.76c-0.041-0.27-0.105-0.495-0.194-0.677c-0.097-0.194-0.23-0.353-0.4-0.475
			s-0.387-0.184-0.654-0.184c-0.444,0-0.813,0.185-1.108,0.554c-0.294,0.369-0.454,0.883-0.479,1.541H96.714z"/>
		<path fill="#002A5C" d="M109.784,117.66h-1.365v2.406h-2.126v-2.406h-4.202v-1.168l4.558-5.77h1.771v5.599h1.365V117.66z
			 M106.292,116.321v-4.094l-3.233,4.094H106.292z"/>
		<path fill="#002A5C" d="M117.867,111.979c0.322,0.397,0.56,0.853,0.714,1.364c0.155,0.513,0.231,1.05,0.231,1.613
			c0,0.668-0.095,1.268-0.285,1.799s-0.455,0.975-0.793,1.33c-0.352,0.377-0.76,0.66-1.226,0.851s-1.001,0.286-1.606,0.286
			c-0.639,0-1.202-0.112-1.691-0.337c-0.488-0.225-0.896-0.526-1.222-0.907c-0.321-0.381-0.565-0.83-0.733-1.346
			c-0.167-0.517-0.25-1.075-0.25-1.676c0-0.598,0.079-1.146,0.237-1.645c0.159-0.499,0.403-0.952,0.733-1.358
			c0.322-0.394,0.73-0.703,1.225-0.93c0.496-0.227,1.064-0.34,1.708-0.34c0.665,0,1.243,0.117,1.736,0.353
			C117.139,111.271,117.545,111.586,117.867,111.979z M116.077,117.66c0.122-0.334,0.21-0.721,0.264-1.161
			c0.053-0.44,0.079-0.954,0.079-1.542c0-0.529-0.024-1.021-0.073-1.477c-0.048-0.455-0.13-0.848-0.244-1.178
			c-0.118-0.334-0.274-0.594-0.47-0.78s-0.434-0.279-0.717-0.279c-0.288,0-0.529,0.091-0.725,0.272
			c-0.194,0.183-0.354,0.44-0.476,0.775c-0.114,0.325-0.196,0.719-0.244,1.18c-0.049,0.462-0.073,0.957-0.073,1.486
			c0,0.554,0.022,1.041,0.066,1.459c0.045,0.42,0.126,0.807,0.244,1.162c0.11,0.334,0.264,0.599,0.461,0.793
			c0.196,0.195,0.441,0.293,0.732,0.293c0.271,0,0.506-0.09,0.705-0.268S115.963,117.974,116.077,117.66z"/>
		<path fill="#002A5C" d="M130.65,118.867c-0.186,0.08-0.404,0.154-0.658,0.222s-0.521,0.102-0.805,0.102
			c-0.52,0-0.902-0.077-1.146-0.231c-0.245-0.154-0.412-0.376-0.5-0.664h-0.039c-0.144,0.145-0.283,0.268-0.416,0.369
			s-0.276,0.188-0.43,0.26c-0.199,0.093-0.391,0.163-0.574,0.209c-0.186,0.047-0.442,0.07-0.773,0.07
			c-0.491,0-0.911-0.146-1.258-0.436c-0.348-0.29-0.521-0.675-0.521-1.153c0-0.275,0.037-0.51,0.113-0.703
			c0.077-0.192,0.186-0.363,0.324-0.512c0.128-0.136,0.275-0.248,0.442-0.337s0.351-0.172,0.55-0.248
			c0.382-0.14,0.84-0.284,1.373-0.436c0.535-0.15,0.924-0.284,1.17-0.403v-0.609c0-0.105-0.008-0.245-0.025-0.419
			c-0.017-0.174-0.053-0.319-0.107-0.438c-0.059-0.136-0.152-0.25-0.279-0.344c-0.127-0.093-0.295-0.139-0.502-0.139
			c-0.186,0-0.342,0.026-0.467,0.079s-0.225,0.106-0.301,0.161c0.012,0.085,0.049,0.214,0.107,0.388
			c0.06,0.174,0.09,0.341,0.09,0.501c0,0.072-0.02,0.162-0.058,0.271c-0.038,0.107-0.094,0.193-0.165,0.257
			c-0.098,0.085-0.207,0.15-0.328,0.197c-0.121,0.046-0.307,0.069-0.558,0.069c-0.356,0-0.626-0.086-0.808-0.257
			c-0.184-0.172-0.274-0.395-0.274-0.67c0-0.237,0.095-0.449,0.282-0.638c0.188-0.188,0.418-0.344,0.689-0.467
			c0.266-0.127,0.572-0.226,0.92-0.295c0.348-0.07,0.668-0.104,0.965-0.104c0.41,0,0.787,0.023,1.13,0.072s0.651,0.149,0.927,0.302
			c0.262,0.148,0.471,0.363,0.625,0.645s0.232,0.648,0.232,1.101c0,0.479-0.01,1.046-0.029,1.701
			c-0.019,0.656-0.028,1.088-0.028,1.295c0,0.191,0.028,0.341,0.086,0.451c0.057,0.11,0.145,0.192,0.263,0.248
			c0.072,0.033,0.186,0.054,0.34,0.06c0.154,0.007,0.295,0.01,0.422,0.01V118.867z M127.502,115.56
			c-0.237,0.081-0.473,0.173-0.707,0.276c-0.233,0.104-0.424,0.214-0.572,0.328c-0.158,0.119-0.281,0.271-0.37,0.455
			s-0.134,0.401-0.134,0.652c0,0.33,0.075,0.57,0.227,0.719c0.15,0.148,0.336,0.223,0.557,0.223c0.234,0,0.426-0.048,0.576-0.144
			c0.151-0.095,0.284-0.213,0.398-0.353L127.502,115.56z"/>
		<path fill="#002A5C" d="M139.648,119h-3.814v-0.463c0.08-0.009,0.178-0.02,0.292-0.032s0.201-0.034,0.261-0.063
			c0.088-0.047,0.152-0.114,0.189-0.203c0.039-0.089,0.058-0.22,0.058-0.394v-2.971c0-0.432-0.079-0.757-0.239-0.975
			c-0.158-0.218-0.393-0.327-0.703-0.327c-0.17,0-0.328,0.025-0.474,0.076c-0.146,0.051-0.29,0.125-0.43,0.223
			c-0.123,0.085-0.222,0.172-0.296,0.26c-0.074,0.09-0.137,0.168-0.188,0.235v3.409c0,0.147,0.021,0.271,0.062,0.371
			c0.043,0.1,0.113,0.174,0.21,0.225c0.067,0.039,0.152,0.072,0.254,0.102c0.102,0.03,0.201,0.051,0.298,0.064V119h-3.859v-0.463
			c0.106-0.009,0.213-0.021,0.32-0.035c0.109-0.015,0.201-0.035,0.277-0.061c0.135-0.047,0.229-0.118,0.279-0.216
			s0.076-0.225,0.076-0.381v-3.694c0-0.131-0.034-0.26-0.102-0.387c-0.068-0.127-0.157-0.231-0.268-0.312
			c-0.076-0.051-0.172-0.093-0.289-0.127c-0.115-0.034-0.244-0.058-0.383-0.069v-0.464l3.027-0.165l0.096,0.096v0.92h0.025
			c0.118-0.105,0.262-0.232,0.432-0.381c0.169-0.148,0.325-0.269,0.469-0.361c0.157-0.102,0.362-0.188,0.616-0.261
			s0.524-0.108,0.812-0.108c0.69,0,1.207,0.196,1.552,0.588c0.346,0.392,0.518,0.91,0.518,1.559v3.109
			c0,0.157,0.023,0.282,0.07,0.375c0.046,0.093,0.133,0.167,0.26,0.223c0.068,0.029,0.151,0.059,0.25,0.088
			c0.1,0.03,0.213,0.051,0.34,0.064V119z M138.215,109.611c-0.051,0.183-0.135,0.387-0.252,0.613
			c-0.115,0.227-0.256,0.433-0.422,0.619c-0.186,0.207-0.376,0.372-0.57,0.494c-0.195,0.123-0.422,0.185-0.68,0.185
			c-0.305,0-0.57-0.037-0.797-0.111s-0.422-0.153-0.587-0.237c-0.144-0.076-0.304-0.155-0.479-0.235s-0.342-0.12-0.498-0.12
			c-0.19,0-0.35,0.071-0.479,0.215c-0.13,0.145-0.281,0.386-0.455,0.725l-0.457-0.191c0.06-0.169,0.145-0.359,0.254-0.57
			c0.11-0.212,0.248-0.422,0.413-0.629c0.144-0.182,0.325-0.343,0.546-0.482s0.439-0.209,0.66-0.209
			c0.279,0,0.529,0.034,0.749,0.104c0.22,0.069,0.423,0.151,0.609,0.244c0.194,0.098,0.354,0.179,0.479,0.244
			s0.277,0.099,0.46,0.099c0.339,0,0.57-0.085,0.694-0.254c0.125-0.169,0.232-0.387,0.321-0.654L138.215,109.611z"/>
		<path fill="#002A5C" d="M146.85,113.452c0.313,0.292,0.553,0.642,0.718,1.048s0.247,0.846,0.247,1.32
			c0,0.469-0.081,0.912-0.244,1.329c-0.162,0.417-0.4,0.773-0.714,1.069c-0.335,0.318-0.733,0.562-1.196,0.73
			c-0.464,0.169-0.994,0.254-1.59,0.254c-0.517,0-0.992-0.074-1.426-0.223c-0.434-0.147-0.817-0.37-1.152-0.666
			c-0.321-0.283-0.575-0.634-0.762-1.051c-0.186-0.417-0.279-0.883-0.279-1.399c0-0.508,0.082-0.96,0.245-1.355
			s0.407-0.748,0.733-1.057c0.312-0.296,0.699-0.525,1.158-0.688s0.973-0.244,1.539-0.244c0.592,0,1.114,0.081,1.564,0.244
			C146.143,112.927,146.528,113.156,146.85,113.452z M145.225,117.852c0.094-0.237,0.162-0.525,0.207-0.863
			c0.044-0.339,0.066-0.732,0.066-1.182c0-0.296-0.021-0.635-0.063-1.016s-0.106-0.681-0.19-0.9
			c-0.102-0.268-0.242-0.477-0.422-0.629s-0.408-0.229-0.683-0.229c-0.3,0-0.54,0.082-0.721,0.248
			c-0.18,0.164-0.318,0.378-0.415,0.641c-0.09,0.241-0.15,0.523-0.185,0.848c-0.034,0.323-0.051,0.661-0.051,1.012
			c0,0.462,0.015,0.844,0.044,1.146c0.03,0.303,0.102,0.605,0.217,0.91c0.097,0.263,0.236,0.471,0.418,0.623
			c0.183,0.152,0.413,0.229,0.692,0.229c0.254,0,0.472-0.071,0.653-0.213C144.976,118.335,145.119,118.126,145.225,117.852z"/>
		<path fill="#002A5C" d="M151.703,119.216c-0.411,0-0.812-0.061-1.203-0.181c-0.392-0.121-0.695-0.249-0.911-0.385l-0.19,0.432
			h-0.495l-0.083-2.367h0.464c0.063,0.19,0.169,0.405,0.317,0.645s0.317,0.453,0.508,0.645c0.199,0.189,0.426,0.351,0.683,0.482
			c0.256,0.131,0.53,0.196,0.821,0.196c0.386,0,0.672-0.075,0.86-0.226s0.282-0.382,0.282-0.695c0-0.169-0.042-0.309-0.127-0.418
			c-0.084-0.11-0.201-0.206-0.349-0.286c-0.165-0.085-0.346-0.156-0.543-0.216c-0.196-0.06-0.438-0.131-0.727-0.216
			s-0.534-0.17-0.739-0.257s-0.418-0.224-0.639-0.41c-0.189-0.164-0.342-0.363-0.457-0.596c-0.113-0.233-0.171-0.511-0.171-0.832
			c0-0.597,0.251-1.079,0.752-1.447c0.502-0.368,1.159-0.553,1.972-0.553c0.385,0,0.739,0.04,1.062,0.118
			c0.324,0.078,0.596,0.164,0.816,0.257l0.133-0.375h0.482l0.102,2.165h-0.444c-0.147-0.44-0.401-0.82-0.762-1.14
			s-0.747-0.479-1.161-0.479c-0.326,0-0.582,0.067-0.769,0.203c-0.187,0.135-0.279,0.323-0.279,0.564
			c0,0.321,0.136,0.555,0.409,0.698c0.271,0.144,0.653,0.279,1.144,0.406c0.756,0.194,1.31,0.46,1.66,0.797
			c0.351,0.336,0.526,0.765,0.526,1.285c0,0.694-0.272,1.231-0.816,1.612C153.289,119.025,152.578,119.216,151.703,119.216z"/>
	</g>
</g>
<line fill="#FFFFFF" stroke="#262728" stroke-linecap="round" stroke-miterlimit="10" stroke-dasharray="1,3" x1="82" y1="82.5" x2="127" y2="82.5"/>
</svg>
