<?xml version="1.0" encoding="utf-8"?>
<!-- Generator: Adobe Illustrator 16.0.4, SVG Export Plug-In . SVG Version: 6.00 Build 0)  -->
<!DOCTYPE svg PUBLIC "-//W3C//DTD SVG 1.1//EN" "http://www.w3.org/Graphics/SVG/1.1/DTD/svg11.dtd">
<svg version="1.1" id="Layer_1" xmlns="http://www.w3.org/2000/svg" xmlns:xlink="http://www.w3.org/1999/xlink" x="0px" y="0px"
	 width="401px" height="355px" viewBox="0 0 401 355" enable-background="new 0 0 401 355" xml:space="preserve">
<g>
	<path fill="#002A5C" d="M40.122,278.694H36.94v5.609h-4.958v-5.609h-9.798v-2.723l10.627-13.454h4.129v13.055h3.182V278.694z
		 M31.982,275.572v-9.546l-7.54,9.546H31.982z"/>
	<path fill="#002A5C" d="M58.688,263.154c1.036,0.947,1.857,2.092,2.464,3.434c0.607,1.342,0.91,2.871,0.91,4.588
		c0,1.53-0.256,2.985-0.77,4.366c-0.513,1.382-1.253,2.57-2.22,3.567c-1.017,1.036-2.21,1.843-3.582,2.42
		c-1.371,0.577-3.004,0.865-4.898,0.865c-1.529,0-2.975-0.251-4.337-0.755c-1.361-0.503-2.561-1.233-3.597-2.19
		c-1.025-0.937-1.84-2.076-2.441-3.419c-0.603-1.342-0.903-2.836-0.903-4.484c0-1.717,0.294-3.272,0.881-4.669
		s1.394-2.593,2.42-3.59c1.017-0.977,2.223-1.729,3.619-2.257c1.396-0.527,2.883-0.792,4.462-0.792c1.568,0,3.041,0.257,4.418,0.771
		C56.49,261.521,57.682,262.236,58.688,263.154z M54.885,278.188c0.444-0.899,0.765-1.917,0.962-3.054s0.296-2.421,0.296-3.854
		c0-1.215-0.086-2.398-0.259-3.55s-0.466-2.177-0.881-3.075c-0.424-0.899-0.986-1.621-1.688-2.164
		c-0.7-0.544-1.573-0.815-2.619-0.815c-1.786,0-3.143,0.847-4.07,2.542c-0.928,1.694-1.391,4.089-1.391,7.182
		c0,1.314,0.101,2.555,0.303,3.721s0.521,2.184,0.955,3.054c0.443,0.879,1.006,1.563,1.687,2.053
		c0.682,0.489,1.52,0.733,2.517,0.733c0.977,0,1.815-0.247,2.516-0.741C53.913,279.724,54.471,279.047,54.885,278.188z"/>
</g>
<g>
	<path fill="#002A5C" d="M88.866,281.817h-11.44v-1.154c0.531-0.039,1.157-0.136,1.876-0.288c0.719-0.153,1.078-0.343,1.078-0.57
		c0-0.079-0.008-0.168-0.022-0.267s-0.057-0.231-0.126-0.399l-1.792-4.352h-7.25c-0.167,0.405-0.351,0.879-0.552,1.421
		c-0.201,0.543-0.375,1.026-0.522,1.451c-0.187,0.553-0.297,0.952-0.331,1.198c-0.035,0.247-0.052,0.42-0.052,0.519
		c0,0.315,0.238,0.584,0.717,0.807c0.479,0.222,1.274,0.382,2.389,0.48v1.154h-8.614v-1.154c0.325-0.02,0.693-0.071,1.103-0.155
		s0.732-0.2,0.97-0.348c0.404-0.237,0.747-0.528,1.028-0.873c0.281-0.346,0.516-0.755,0.703-1.229
		c1.145-2.772,2.292-5.551,3.441-8.333s2.42-5.851,3.811-9.206h2.96c1.935,4.757,3.449,8.516,4.544,11.278
		c1.096,2.763,2.027,5.052,2.798,6.867c0.128,0.296,0.29,0.565,0.488,0.807c0.197,0.242,0.479,0.472,0.844,0.688
		c0.275,0.158,0.597,0.276,0.962,0.355c0.364,0.079,0.695,0.128,0.991,0.147V281.817z M77.83,273.322l-3.039-7.592l-2.995,7.592
		H77.83z"/>
	<path fill="#002A5C" d="M113.184,261.971c-0.276,0.029-0.672,0.084-1.185,0.162c-0.513,0.079-0.977,0.271-1.392,0.577
		c-0.364,0.267-0.624,0.724-0.776,1.369c-0.153,0.646-0.229,1.597-0.229,2.85v15.007h-2.635L93.884,265.7v9.856
		c0,1.224,0.081,2.154,0.244,2.79c0.162,0.637,0.427,1.103,0.792,1.398c0.266,0.218,0.69,0.41,1.272,0.578
		c0.582,0.167,1.046,0.28,1.392,0.34v1.154h-9.028v-1.154c0.385-0.029,0.826-0.101,1.324-0.215c0.498-0.113,0.915-0.288,1.251-0.525
		c0.385-0.286,0.648-0.718,0.792-1.295c0.143-0.577,0.214-1.547,0.214-2.908v-9.945c0-0.493-0.076-0.96-0.229-1.399
		c-0.152-0.438-0.392-0.816-0.718-1.132c-0.345-0.335-0.742-0.6-1.191-0.792s-0.959-0.343-1.531-0.451v-1.184h7.905l11.483,14.202
		v-7.944c0-1.263-0.084-2.201-0.252-2.818c-0.168-0.616-0.435-1.072-0.8-1.368c-0.286-0.227-0.71-0.422-1.272-0.584
		c-0.562-0.163-1.017-0.274-1.361-0.333v-1.154h9.014V261.971z M107.736,254.525c-0.118,0.425-0.313,0.901-0.584,1.429
		c-0.271,0.528-0.6,1.009-0.984,1.443c-0.435,0.483-0.879,0.868-1.332,1.154c-0.454,0.286-0.982,0.429-1.584,0.429
		c-0.71,0-1.329-0.086-1.857-0.259c-0.527-0.173-0.984-0.357-1.369-0.555c-0.335-0.178-0.708-0.36-1.117-0.548
		s-0.797-0.281-1.162-0.281c-0.443,0-0.816,0.168-1.117,0.503c-0.301,0.336-0.653,0.898-1.059,1.688l-1.065-0.444
		c0.139-0.395,0.336-0.838,0.592-1.332c0.257-0.493,0.578-0.981,0.963-1.465c0.335-0.424,0.759-0.799,1.272-1.125
		c0.513-0.325,1.026-0.488,1.539-0.488c0.651,0,1.233,0.081,1.746,0.244c0.514,0.163,0.987,0.353,1.421,0.57
		c0.454,0.227,0.827,0.416,1.118,0.569s0.648,0.229,1.072,0.229c0.79,0,1.33-0.197,1.621-0.592s0.54-0.903,0.747-1.524
		L107.736,254.525z"/>
	<path fill="#002A5C" d="M133.903,263.154c1.036,0.947,1.857,2.092,2.465,3.434c0.606,1.342,0.91,2.871,0.91,4.588
		c0,1.53-0.257,2.985-0.77,4.366c-0.514,1.382-1.253,2.57-2.221,3.567c-1.016,1.036-2.21,1.843-3.581,2.42
		c-1.372,0.577-3.005,0.865-4.899,0.865c-1.529,0-2.975-0.251-4.336-0.755c-1.362-0.503-2.561-1.233-3.597-2.19
		c-1.026-0.937-1.841-2.076-2.442-3.419c-0.602-1.342-0.902-2.836-0.902-4.484c0-1.717,0.293-3.272,0.881-4.669
		c0.587-1.396,1.394-2.593,2.419-3.59c1.017-0.977,2.223-1.729,3.619-2.257c1.396-0.527,2.884-0.792,4.462-0.792
		c1.569,0,3.042,0.257,4.418,0.771C131.706,261.521,132.897,262.236,133.903,263.154z M130.1,278.188
		c0.444-0.899,0.765-1.917,0.963-3.054c0.197-1.137,0.296-2.421,0.296-3.854c0-1.215-0.087-2.398-0.26-3.55
		c-0.172-1.151-0.466-2.177-0.88-3.075c-0.425-0.899-0.987-1.621-1.688-2.164c-0.701-0.544-1.574-0.815-2.62-0.815
		c-1.785,0-3.143,0.847-4.069,2.542c-0.928,1.694-1.392,4.089-1.392,7.182c0,1.314,0.102,2.555,0.304,3.721s0.521,2.184,0.954,3.054
		c0.444,0.879,1.007,1.563,1.688,2.053s1.52,0.733,2.516,0.733c0.978,0,1.815-0.247,2.517-0.741
		C129.128,279.724,129.686,279.047,130.1,278.188z"/>
	<path fill="#002A5C" d="M148.156,282.395c-1.283,0-2.479-0.16-3.589-0.48c-1.11-0.32-2.05-0.698-2.819-1.133l-1.021,1.036h-1.258
		l-0.192-7.593h1.272c0.286,0.723,0.651,1.483,1.096,2.285c0.443,0.801,0.956,1.518,1.539,2.15c0.602,0.663,1.275,1.201,2.021,1.617
		c0.744,0.415,1.615,0.623,2.611,0.623c1.342,0,2.371-0.328,3.086-0.985c0.716-0.656,1.073-1.483,1.073-2.481
		c0-0.819-0.304-1.508-0.91-2.066c-0.606-0.558-1.547-1.04-2.819-1.446c-0.829-0.268-1.591-0.515-2.287-0.743
		c-0.695-0.228-1.349-0.461-1.961-0.698c-1.411-0.563-2.459-1.369-3.145-2.416c-0.687-1.047-1.029-2.218-1.029-3.512
		c0-0.82,0.178-1.608,0.533-2.364s0.873-1.435,1.554-2.037c0.651-0.563,1.485-1.022,2.502-1.378
		c1.016-0.355,2.121-0.534,3.315-0.534c1.164,0,2.254,0.163,3.271,0.489c1.016,0.325,1.815,0.65,2.397,0.977l0.903-0.888h1.287
		l0.118,7.163h-1.272c-0.296-0.771-0.644-1.561-1.043-2.366c-0.4-0.807-0.822-1.477-1.266-2.011
		c-0.483-0.573-1.041-1.03-1.673-1.372c-0.632-0.341-1.371-0.512-2.22-0.512c-1.065,0-1.937,0.302-2.612,0.904
		s-1.014,1.349-1.014,2.238c0,0.841,0.293,1.527,0.88,2.061c0.587,0.534,1.503,1.004,2.746,1.409
		c0.729,0.246,1.475,0.493,2.234,0.74s1.436,0.484,2.028,0.712c1.431,0.553,2.518,1.316,3.263,2.289
		c0.745,0.974,1.118,2.182,1.118,3.624c0,0.909-0.213,1.788-0.637,2.638c-0.425,0.85-0.997,1.557-1.717,2.119
		c-0.79,0.623-1.702,1.102-2.738,1.438S149.537,282.395,148.156,282.395z"/>
	<path fill="#002A5C" d="M178.275,281.817h-11.647v-1.154c0.266-0.02,0.658-0.049,1.176-0.089c0.519-0.039,0.876-0.099,1.073-0.178
		c0.365-0.147,0.614-0.343,0.748-0.584c0.133-0.242,0.199-0.55,0.199-0.926v-14.889c0-0.335-0.064-0.632-0.192-0.888
		c-0.128-0.257-0.38-0.464-0.755-0.622c-0.236-0.099-0.587-0.2-1.051-0.304s-0.863-0.175-1.198-0.214v-1.154h11.647v1.154
		c-0.296,0.029-0.666,0.071-1.11,0.125c-0.443,0.055-0.818,0.131-1.125,0.229c-0.385,0.129-0.641,0.328-0.77,0.6
		c-0.128,0.271-0.192,0.58-0.192,0.925v14.875c0,0.354,0.067,0.658,0.2,0.91c0.133,0.251,0.387,0.456,0.762,0.614
		c0.208,0.089,0.551,0.175,1.029,0.259s0.881,0.136,1.206,0.155V281.817z"/>
	<path fill="#002A5C" d="M204.354,261.971c-0.276,0.029-0.671,0.084-1.184,0.162c-0.514,0.079-0.978,0.271-1.392,0.577
		c-0.365,0.267-0.624,0.724-0.777,1.369c-0.152,0.646-0.229,1.597-0.229,2.85v15.007h-2.634L185.054,265.7v9.856
		c0,1.224,0.082,2.154,0.244,2.79c0.163,0.637,0.427,1.103,0.792,1.398c0.267,0.218,0.69,0.41,1.272,0.578
		c0.583,0.167,1.046,0.28,1.392,0.34v1.154h-9.028v-1.154c0.385-0.029,0.826-0.101,1.325-0.215c0.498-0.113,0.915-0.288,1.25-0.525
		c0.385-0.286,0.649-0.718,0.792-1.295s0.215-1.547,0.215-2.908v-9.945c0-0.493-0.077-0.96-0.229-1.399
		c-0.153-0.438-0.393-0.816-0.718-1.132c-0.346-0.335-0.742-0.6-1.191-0.792s-0.96-0.343-1.532-0.451v-1.184h7.906l11.482,14.202
		v-7.944c0-1.263-0.084-2.201-0.252-2.818c-0.168-0.616-0.434-1.072-0.799-1.368c-0.286-0.227-0.71-0.422-1.272-0.584
		c-0.562-0.163-1.017-0.274-1.362-0.333v-1.154h9.014V261.971z"/>
	<path fill="#002A5C" d="M214.477,282.395c-1.282,0-2.479-0.16-3.589-0.48s-2.05-0.698-2.819-1.133l-1.021,1.036h-1.258
		l-0.192-7.593h1.272c0.286,0.723,0.651,1.483,1.096,2.285c0.443,0.801,0.956,1.518,1.539,2.15c0.602,0.663,1.275,1.201,2.021,1.617
		c0.745,0.415,1.615,0.623,2.612,0.623c1.342,0,2.37-0.328,3.086-0.985c0.715-0.656,1.072-1.483,1.072-2.481
		c0-0.819-0.303-1.508-0.91-2.066c-0.606-0.558-1.546-1.04-2.819-1.446c-0.828-0.268-1.591-0.515-2.286-0.743
		c-0.696-0.228-1.35-0.461-1.961-0.698c-1.412-0.563-2.46-1.369-3.146-2.416c-0.687-1.047-1.029-2.218-1.029-3.512
		c0-0.82,0.178-1.608,0.533-2.364s0.873-1.435,1.554-2.037c0.651-0.563,1.485-1.022,2.502-1.378
		c1.016-0.355,2.121-0.534,3.315-0.534c1.164,0,2.254,0.163,3.271,0.489c1.017,0.325,1.815,0.65,2.397,0.977l0.903-0.888h1.287
		l0.119,7.163h-1.273c-0.296-0.771-0.644-1.561-1.043-2.366c-0.399-0.807-0.821-1.477-1.266-2.011
		c-0.483-0.573-1.041-1.03-1.673-1.372c-0.631-0.341-1.371-0.512-2.22-0.512c-1.065,0-1.937,0.302-2.612,0.904
		s-1.014,1.349-1.014,2.238c0,0.841,0.293,1.527,0.881,2.061c0.587,0.534,1.502,1.004,2.745,1.409
		c0.73,0.246,1.475,0.493,2.235,0.74c0.759,0.247,1.436,0.484,2.027,0.712c1.431,0.553,2.519,1.316,3.264,2.289
		c0.744,0.974,1.117,2.182,1.117,3.624c0,0.909-0.212,1.788-0.637,2.638c-0.424,0.85-0.996,1.557-1.717,2.119
		c-0.789,0.623-1.702,1.102-2.738,1.438C217.067,282.227,215.858,282.395,214.477,282.395z"/>
	<path fill="#002A5C" d="M244.965,266.07c0,1.184-0.244,2.203-0.733,3.056c-0.488,0.854-1.161,1.547-2.02,2.08
		c-0.889,0.553-1.902,0.952-3.042,1.198c-1.14,0.247-2.42,0.37-3.841,0.37h-1.717v5.905c0,0.355,0.067,0.664,0.2,0.925
		c0.133,0.262,0.387,0.472,0.762,0.63c0.197,0.079,0.519,0.162,0.963,0.251c0.443,0.089,0.818,0.148,1.124,0.178v1.154H225.28
		v-1.154c0.286-0.029,0.666-0.071,1.14-0.126c0.474-0.054,0.804-0.12,0.991-0.199c0.385-0.158,0.639-0.351,0.763-0.577
		c0.123-0.228,0.185-0.543,0.185-0.947v-14.815c0-0.346-0.06-0.644-0.178-0.896s-0.375-0.461-0.77-0.629
		c-0.276-0.118-0.644-0.225-1.103-0.318s-0.802-0.155-1.028-0.185v-1.154h11.589c2.713,0,4.74,0.432,6.082,1.295
		S244.965,264.294,244.965,266.07z M239.192,266.825c0-1.579-0.318-2.751-0.955-3.516c-0.636-0.765-1.769-1.146-3.396-1.146h-1.229
		v9.221h0.622c1.618,0,2.849-0.373,3.692-1.118C238.771,269.521,239.192,268.374,239.192,266.825z"/>
	<path fill="#002A5C" d="M258.092,281.817h-11.647v-1.154c0.267-0.02,0.658-0.049,1.177-0.089c0.518-0.039,0.875-0.099,1.072-0.178
		c0.365-0.147,0.614-0.343,0.748-0.584c0.133-0.242,0.199-0.55,0.199-0.926v-14.889c0-0.335-0.063-0.632-0.192-0.888
		c-0.128-0.257-0.38-0.464-0.755-0.622c-0.236-0.099-0.587-0.2-1.051-0.304s-0.863-0.175-1.198-0.214v-1.154h11.647v1.154
		c-0.296,0.029-0.666,0.071-1.109,0.125c-0.444,0.055-0.819,0.131-1.125,0.229c-0.385,0.129-0.642,0.328-0.77,0.6
		c-0.129,0.271-0.192,0.58-0.192,0.925v14.875c0,0.354,0.066,0.658,0.199,0.91c0.134,0.251,0.388,0.456,0.763,0.614
		c0.207,0.089,0.55,0.175,1.028,0.259s0.881,0.136,1.206,0.155V281.817z"/>
	<path fill="#002A5C" d="M284.155,281.817h-8.06c-1.39-2.131-2.546-3.828-3.468-5.091s-2.067-2.724-3.438-4.381h-0.812v6.379
		c0,0.354,0.067,0.656,0.2,0.902c0.133,0.247,0.387,0.454,0.762,0.622c0.188,0.079,0.481,0.16,0.881,0.244s0.742,0.141,1.028,0.17
		v1.154h-11.203v-1.154c0.286-0.029,0.663-0.071,1.132-0.126c0.469-0.054,0.802-0.12,0.999-0.199c0.375-0.158,0.627-0.357,0.755-0.6
		s0.192-0.55,0.192-0.925v-14.815c0-0.355-0.055-0.651-0.163-0.888c-0.108-0.237-0.37-0.444-0.784-0.622
		c-0.315-0.128-0.688-0.236-1.117-0.325c-0.43-0.089-0.768-0.153-1.014-0.192v-1.154h11.781c2.634,0,4.635,0.411,6.001,1.235
		s2.05,2.069,2.05,3.737c0,1.47-0.422,2.651-1.266,3.545c-0.843,0.893-2.129,1.591-3.855,2.094c0.671,0.868,1.453,1.875,2.347,3.02
		c0.893,1.145,1.822,2.313,2.789,3.508c0.306,0.385,0.723,0.855,1.251,1.413c0.527,0.558,0.994,0.9,1.398,1.028
		c0.227,0.069,0.516,0.129,0.866,0.178c0.35,0.05,0.6,0.079,0.747,0.089V281.817z M274.076,266.203c0-1.4-0.392-2.425-1.177-3.071
		c-0.784-0.646-1.901-0.969-3.352-0.969h-1.17v8.791h1.125c1.45,0,2.575-0.38,3.375-1.14
		C273.677,269.055,274.076,267.852,274.076,266.203z"/>
	<path fill="#002A5C" d="M307.007,281.817h-11.44v-1.154c0.531-0.039,1.157-0.136,1.876-0.288c0.719-0.153,1.078-0.343,1.078-0.57
		c0-0.079-0.007-0.168-0.021-0.267c-0.016-0.099-0.058-0.231-0.126-0.399l-1.793-4.352h-7.25c-0.167,0.405-0.351,0.879-0.552,1.421
		c-0.201,0.543-0.375,1.026-0.522,1.451c-0.186,0.553-0.297,0.952-0.331,1.198c-0.034,0.247-0.052,0.42-0.052,0.519
		c0,0.315,0.239,0.584,0.717,0.807c0.479,0.222,1.274,0.382,2.389,0.48v1.154h-8.614v-1.154c0.326-0.02,0.693-0.071,1.103-0.155
		c0.41-0.084,0.733-0.2,0.97-0.348c0.404-0.237,0.747-0.528,1.028-0.873c0.281-0.346,0.516-0.755,0.703-1.229
		c1.145-2.772,2.292-5.551,3.441-8.333s2.42-5.851,3.811-9.206h2.961c1.934,4.757,3.448,8.516,4.543,11.278
		c1.096,2.763,2.028,5.052,2.798,6.867c0.128,0.296,0.291,0.565,0.488,0.807c0.197,0.242,0.479,0.472,0.844,0.688
		c0.276,0.158,0.597,0.276,0.962,0.355s0.695,0.128,0.991,0.147V281.817z M295.972,273.322l-3.04-7.592l-2.995,7.592H295.972z"/>
	<path fill="#002A5C" d="M326.115,262.977c1.282,0.839,2.318,1.956,3.107,3.353s1.185,3.105,1.185,5.128
		c0,1.776-0.354,3.323-1.059,4.641c-0.705,1.316-1.641,2.395-2.805,3.233c-1.184,0.839-2.528,1.463-4.033,1.872
		c-1.505,0.41-3.081,0.614-4.729,0.614H307.2v-1.154c0.315-0.01,0.71-0.039,1.184-0.089c0.474-0.049,0.789-0.108,0.947-0.178
		c0.355-0.147,0.602-0.348,0.74-0.599c0.138-0.252,0.207-0.556,0.207-0.911v-14.889c0-0.335-0.064-0.639-0.192-0.91
		s-0.38-0.491-0.755-0.659c-0.375-0.167-0.772-0.28-1.191-0.34s-0.742-0.099-0.97-0.118v-1.154h11.175
		c1.193,0,2.472,0.152,3.833,0.458C323.539,261.581,324.852,262.148,326.115,262.977z M323.096,278.028
		c0.483-0.789,0.836-1.729,1.058-2.819c0.223-1.09,0.333-2.346,0.333-3.767c0-1.391-0.147-2.659-0.443-3.804
		s-0.73-2.121-1.303-2.931c-0.572-0.809-1.285-1.436-2.139-1.879c-0.854-0.444-1.823-0.666-2.908-0.666
		c-0.346,0-0.737,0.007-1.177,0.021c-0.439,0.016-0.768,0.027-0.984,0.037v15.94c0,0.355,0.047,0.668,0.141,0.939
		s0.254,0.511,0.481,0.718c0.227,0.207,0.506,0.368,0.836,0.481c0.331,0.113,0.763,0.17,1.295,0.17c1.115,0,2.072-0.207,2.871-0.621
		C321.956,279.435,322.602,278.828,323.096,278.028z"/>
	<path fill="#002A5C" d="M351.883,263.154c1.036,0.947,1.857,2.092,2.464,3.434s0.91,2.871,0.91,4.588
		c0,1.53-0.257,2.985-0.77,4.366c-0.513,1.382-1.253,2.57-2.22,3.567c-1.017,1.036-2.211,1.843-3.582,2.42s-3.005,0.865-4.898,0.865
		c-1.53,0-2.976-0.251-4.337-0.755c-1.361-0.503-2.561-1.233-3.597-2.19c-1.026-0.937-1.84-2.076-2.441-3.419
		c-0.603-1.342-0.903-2.836-0.903-4.484c0-1.717,0.294-3.272,0.881-4.669s1.394-2.593,2.42-3.59
		c1.016-0.977,2.222-1.729,3.618-2.257c1.396-0.527,2.884-0.792,4.463-0.792c1.568,0,3.041,0.257,4.418,0.771
		C349.685,261.521,350.876,262.236,351.883,263.154z M348.079,278.188c0.443-0.899,0.765-1.917,0.962-3.054s0.296-2.421,0.296-3.854
		c0-1.215-0.087-2.398-0.259-3.55c-0.173-1.151-0.467-2.177-0.881-3.075c-0.425-0.899-0.987-1.621-1.688-2.164
		c-0.7-0.544-1.573-0.815-2.619-0.815c-1.786,0-3.144,0.847-4.07,2.542c-0.928,1.694-1.392,4.089-1.392,7.182
		c0,1.314,0.102,2.555,0.304,3.721s0.521,2.184,0.954,3.054c0.444,0.879,1.007,1.563,1.688,2.053s1.52,0.733,2.517,0.733
		c0.977,0,1.815-0.247,2.516-0.741S347.664,279.047,348.079,278.188z"/>
	<path fill="#002A5C" d="M366.135,282.395c-1.282,0-2.479-0.16-3.589-0.48s-2.05-0.698-2.819-1.133l-1.021,1.036h-1.258
		l-0.192-7.593h1.272c0.286,0.723,0.651,1.483,1.096,2.285c0.444,0.801,0.957,1.518,1.539,2.15c0.602,0.663,1.275,1.201,2.021,1.617
		c0.745,0.415,1.615,0.623,2.612,0.623c1.342,0,2.37-0.328,3.086-0.985c0.715-0.656,1.072-1.483,1.072-2.481
		c0-0.819-0.303-1.508-0.91-2.066c-0.606-0.558-1.546-1.04-2.819-1.446c-0.828-0.268-1.591-0.515-2.286-0.743
		c-0.696-0.228-1.35-0.461-1.961-0.698c-1.411-0.563-2.46-1.369-3.146-2.416s-1.028-2.218-1.028-3.512
		c0-0.82,0.178-1.608,0.532-2.364c0.355-0.756,0.873-1.435,1.555-2.037c0.65-0.563,1.484-1.022,2.501-1.378
		c1.016-0.355,2.121-0.534,3.315-0.534c1.164,0,2.254,0.163,3.271,0.489c1.017,0.325,1.815,0.65,2.397,0.977l0.903-0.888h1.287
		l0.119,7.163h-1.273c-0.296-0.771-0.644-1.561-1.043-2.366c-0.399-0.807-0.821-1.477-1.266-2.011
		c-0.483-0.573-1.041-1.03-1.673-1.372c-0.631-0.341-1.371-0.512-2.22-0.512c-1.065,0-1.937,0.302-2.612,0.904
		s-1.014,1.349-1.014,2.238c0,0.841,0.293,1.527,0.881,2.061c0.587,0.534,1.502,1.004,2.745,1.409
		c0.73,0.246,1.475,0.493,2.235,0.74c0.759,0.247,1.436,0.484,2.027,0.712c1.431,0.553,2.519,1.316,3.264,2.289
		c0.744,0.974,1.117,2.182,1.117,3.624c0,0.909-0.212,1.788-0.637,2.638c-0.424,0.85-0.996,1.557-1.717,2.119
		c-0.789,0.623-1.702,1.102-2.738,1.438C368.726,282.227,367.517,282.395,366.135,282.395z"/>
</g>
<g>
	<g>
		<path fill="#002A5C" d="M94.042,298.123c0,1.095-0.215,2.064-0.644,2.908c-0.43,0.844-1.024,1.542-1.784,2.095
			c-0.75,0.553-1.573,0.957-2.472,1.213c-0.897,0.257-1.85,0.385-2.856,0.385h-2.353v6.364c0,0.346,0.057,0.649,0.17,0.91
			c0.113,0.262,0.348,0.462,0.703,0.6c0.178,0.069,0.49,0.133,0.939,0.192s0.861,0.094,1.236,0.104v1.051h-9.014v-1.051
			c0.236-0.02,0.579-0.054,1.028-0.104c0.449-0.049,0.763-0.113,0.94-0.192c0.296-0.128,0.511-0.315,0.644-0.562
			c0.133-0.246,0.2-0.562,0.2-0.947v-15.155c0-0.346-0.05-0.656-0.148-0.933s-0.331-0.483-0.695-0.621
			c-0.375-0.129-0.748-0.22-1.118-0.274c-0.369-0.054-0.688-0.091-0.954-0.11v-1.051h9.591c1.953,0,3.539,0.471,4.758,1.413
			S94.042,296.554,94.042,298.123z M89.543,301.705c0.335-0.474,0.557-0.965,0.666-1.473c0.108-0.509,0.162-0.965,0.162-1.369
			c0-0.562-0.066-1.135-0.199-1.717c-0.134-0.582-0.363-1.091-0.688-1.524c-0.346-0.464-0.799-0.824-1.361-1.081
			c-0.562-0.256-1.264-0.385-2.102-0.385h-2.087v9.28h1.51c1.065,0,1.931-0.165,2.597-0.496
			C88.706,302.61,89.207,302.198,89.543,301.705z"/>
		<path fill="#002A5C" d="M113.416,295.43c0.927,0.967,1.652,2.134,2.176,3.5c0.522,1.366,0.784,2.879,0.784,4.536
			c0,1.668-0.267,3.183-0.8,4.544c-0.532,1.361-1.272,2.521-2.22,3.478c-0.918,0.947-1.983,1.678-3.196,2.19
			c-1.214,0.514-2.507,0.771-3.878,0.771c-1.461,0-2.81-0.274-4.048-0.822c-1.238-0.547-2.302-1.31-3.189-2.286
			c-0.889-0.957-1.587-2.119-2.095-3.485c-0.508-1.367-0.762-2.829-0.762-4.389c0-1.707,0.266-3.229,0.799-4.565
			s1.268-2.494,2.205-3.471c0.928-0.967,2.006-1.707,3.234-2.221c1.229-0.513,2.514-0.77,3.855-0.77
			c1.391,0,2.703,0.262,3.937,0.784C111.452,293.747,112.518,294.482,113.416,295.43z M111.211,310.318
			c0.552-0.897,0.954-1.914,1.206-3.049c0.251-1.135,0.377-2.402,0.377-3.804c0-1.44-0.141-2.763-0.422-3.967
			c-0.281-1.203-0.693-2.229-1.235-3.078c-0.543-0.839-1.224-1.492-2.043-1.961c-0.818-0.469-1.756-0.703-2.812-0.703
			c-1.185,0-2.19,0.271-3.02,0.814c-0.829,0.542-1.505,1.268-2.027,2.175c-0.494,0.869-0.861,1.885-1.103,3.05
			c-0.242,1.164-0.363,2.388-0.363,3.67c0,1.421,0.129,2.704,0.385,3.849c0.257,1.145,0.661,2.16,1.214,3.049
			c0.533,0.868,1.204,1.546,2.013,2.034c0.81,0.489,1.776,0.733,2.901,0.733c1.056,0,2.008-0.247,2.856-0.74
			S110.678,311.206,111.211,310.318z"/>
		<path fill="#002A5C" d="M139.464,313.944h-5.655c-1.252-1.963-2.383-3.66-3.393-5.091c-1.011-1.431-2.107-2.906-3.29-4.426h-2.151
			v6.66c0,0.346,0.055,0.649,0.163,0.91c0.108,0.262,0.34,0.462,0.695,0.6c0.178,0.069,0.488,0.133,0.933,0.192
			s0.819,0.094,1.125,0.104v1.051h-8.881v-1.051c0.237-0.02,0.58-0.054,1.029-0.104c0.448-0.049,0.762-0.113,0.939-0.192
			c0.296-0.128,0.511-0.315,0.644-0.562c0.134-0.246,0.2-0.562,0.2-0.947v-15.185c0-0.346-0.05-0.651-0.148-0.918
			s-0.33-0.469-0.695-0.606c-0.246-0.089-0.567-0.171-0.962-0.244c-0.395-0.074-0.73-0.121-1.007-0.141v-1.051h9.694
			c0.889,0,1.722,0.091,2.502,0.273c0.779,0.183,1.484,0.476,2.116,0.881c0.611,0.395,1.1,0.91,1.465,1.546
			c0.365,0.637,0.548,1.404,0.548,2.302c0,0.81-0.123,1.524-0.37,2.146c-0.246,0.621-0.611,1.159-1.095,1.613
			c-0.444,0.424-0.978,0.791-1.599,1.103c-0.622,0.311-1.308,0.574-2.058,0.792c1.036,1.371,1.897,2.525,2.583,3.463
			s1.526,2.077,2.523,3.419c0.434,0.592,0.826,1.028,1.177,1.31c0.35,0.281,0.697,0.511,1.043,0.688
			c0.257,0.128,0.577,0.227,0.962,0.296s0.706,0.108,0.962,0.118V313.944z M131.68,298.294c0-1.271-0.365-2.278-1.096-3.021
			c-0.73-0.744-1.761-1.116-3.093-1.116h-2.517v8.999h1.939c1.361,0,2.496-0.436,3.403-1.308
			C131.226,300.976,131.68,299.791,131.68,298.294z"/>
		<path fill="#002A5C" d="M164.447,307.699l-0.443,6.245H147.59v-1.051c0.236-0.02,0.579-0.054,1.028-0.104
			c0.449-0.049,0.763-0.113,0.94-0.192c0.296-0.128,0.511-0.315,0.644-0.562c0.133-0.246,0.2-0.562,0.2-0.947v-15.037
			c0-0.335-0.058-0.631-0.171-0.888s-0.338-0.464-0.673-0.622c-0.228-0.118-0.546-0.234-0.955-0.348s-0.747-0.18-1.014-0.199v-1.051
			h8.865v1.051c-0.276,0.01-0.634,0.059-1.073,0.147c-0.438,0.089-0.757,0.168-0.954,0.237c-0.336,0.118-0.565,0.32-0.688,0.606
			s-0.185,0.592-0.185,0.918v14.104c0,0.651,0.031,1.157,0.096,1.517c0.064,0.36,0.215,0.64,0.451,0.837
			c0.228,0.177,0.565,0.293,1.015,0.348c0.448,0.054,1.077,0.081,1.887,0.081c0.365,0,0.745-0.01,1.14-0.029s0.77-0.06,1.125-0.118
			c0.345-0.06,0.663-0.141,0.954-0.245c0.291-0.104,0.506-0.233,0.645-0.392c0.404-0.454,0.875-1.142,1.413-2.064
			c0.537-0.923,0.91-1.67,1.117-2.242H164.447z"/>
		<path fill="#002A5C" d="M185.464,313.944h-8.729v-1.051c0.77-0.049,1.408-0.147,1.916-0.296c0.508-0.147,0.763-0.33,0.763-0.548
			c0-0.089-0.011-0.197-0.03-0.325s-0.049-0.242-0.088-0.341l-1.74-4.706h-7.372c-0.276,0.69-0.501,1.293-0.674,1.806
			s-0.329,0.986-0.467,1.421c-0.129,0.424-0.218,0.77-0.268,1.036c-0.049,0.266-0.074,0.483-0.074,0.651
			c0,0.395,0.312,0.7,0.933,0.917c0.622,0.218,1.322,0.346,2.103,0.385v1.051h-7.91v-1.051c0.257-0.02,0.577-0.076,0.962-0.17
			c0.386-0.094,0.701-0.22,0.947-0.378c0.395-0.266,0.701-0.545,0.918-0.836s0.43-0.693,0.637-1.206
			c1.056-2.635,2.22-5.595,3.492-8.88c1.273-3.286,2.408-6.211,3.404-8.777h1.185l7,18.116c0.148,0.385,0.316,0.695,0.504,0.933
			c0.187,0.236,0.448,0.469,0.784,0.695c0.227,0.139,0.522,0.254,0.888,0.348s0.671,0.146,0.918,0.155V313.944z M177.015,305.36
			l-3.182-8.149l-3.136,8.149H177.015z"/>
		<path fill="#002A5C" d="M209.603,298.123c0,1.095-0.214,2.064-0.644,2.908c-0.429,0.844-1.023,1.542-1.783,2.095
			c-0.75,0.553-1.574,0.957-2.472,1.213c-0.898,0.257-1.851,0.385-2.856,0.385h-2.354v6.364c0,0.346,0.057,0.649,0.17,0.91
			c0.114,0.262,0.349,0.462,0.703,0.6c0.178,0.069,0.491,0.133,0.94,0.192c0.448,0.06,0.86,0.094,1.235,0.104v1.051h-9.014v-1.051
			c0.237-0.02,0.58-0.054,1.029-0.104c0.448-0.049,0.762-0.113,0.939-0.192c0.296-0.128,0.511-0.315,0.644-0.562
			c0.134-0.246,0.2-0.562,0.2-0.947v-15.155c0-0.346-0.05-0.656-0.148-0.933s-0.33-0.483-0.695-0.621
			c-0.375-0.129-0.747-0.22-1.117-0.274c-0.37-0.054-0.688-0.091-0.955-0.11v-1.051h9.591c1.954,0,3.54,0.471,4.759,1.413
			C208.993,295.299,209.603,296.554,209.603,298.123z M205.104,301.705c0.336-0.474,0.558-0.965,0.666-1.473
			c0.108-0.509,0.163-0.965,0.163-1.369c0-0.562-0.066-1.135-0.2-1.717c-0.133-0.582-0.362-1.091-0.688-1.524
			c-0.346-0.464-0.8-0.824-1.362-1.081c-0.562-0.256-1.263-0.385-2.102-0.385h-2.087v9.28h1.51c1.065,0,1.932-0.165,2.598-0.496
			C204.268,302.61,204.769,302.198,205.104,301.705z"/>
		<path fill="#002A5C" d="M232.47,313.944h-5.655c-1.252-1.963-2.383-3.66-3.394-5.091c-1.01-1.431-2.106-2.906-3.289-4.426h-2.151
			v6.66c0,0.346,0.054,0.649,0.163,0.91c0.108,0.262,0.34,0.462,0.695,0.6c0.178,0.069,0.488,0.133,0.933,0.192
			c0.443,0.06,0.818,0.094,1.125,0.104v1.051h-8.881v-1.051c0.237-0.02,0.58-0.054,1.029-0.104c0.448-0.049,0.762-0.113,0.939-0.192
			c0.296-0.128,0.511-0.315,0.644-0.562c0.134-0.246,0.2-0.562,0.2-0.947v-15.185c0-0.346-0.05-0.651-0.148-0.918
			s-0.33-0.469-0.695-0.606c-0.247-0.089-0.567-0.171-0.962-0.244c-0.395-0.074-0.73-0.121-1.007-0.141v-1.051h9.694
			c0.888,0,1.722,0.091,2.501,0.273s1.485,0.476,2.117,0.881c0.611,0.395,1.1,0.91,1.465,1.546c0.365,0.637,0.548,1.404,0.548,2.302
			c0,0.81-0.124,1.524-0.37,2.146c-0.247,0.621-0.612,1.159-1.096,1.613c-0.443,0.424-0.977,0.791-1.598,1.103
			c-0.622,0.311-1.308,0.574-2.058,0.792c1.036,1.371,1.896,2.525,2.583,3.463c0.686,0.938,1.526,2.077,2.523,3.419
			c0.434,0.592,0.826,1.028,1.177,1.31c0.35,0.281,0.697,0.511,1.043,0.688c0.257,0.128,0.577,0.227,0.962,0.296
			s0.705,0.108,0.962,0.118V313.944z M224.685,298.294c0-1.271-0.365-2.278-1.095-3.021c-0.73-0.744-1.762-1.116-3.094-1.116h-2.516
			v8.999h1.938c1.362,0,2.496-0.436,3.404-1.308S224.685,299.791,224.685,298.294z"/>
		<path fill="#002A5C" d="M250.245,295.43c0.927,0.967,1.652,2.134,2.175,3.5c0.523,1.366,0.785,2.879,0.785,4.536
			c0,1.668-0.267,3.183-0.8,4.544c-0.532,1.361-1.272,2.521-2.22,3.478c-0.918,0.947-1.983,1.678-3.197,2.19
			c-1.213,0.514-2.506,0.771-3.877,0.771c-1.461,0-2.811-0.274-4.049-0.822c-1.238-0.547-2.301-1.31-3.189-2.286
			c-0.888-0.957-1.586-2.119-2.094-3.485c-0.509-1.367-0.763-2.829-0.763-4.389c0-1.707,0.267-3.229,0.8-4.565
			c0.532-1.337,1.268-2.494,2.205-3.471c0.928-0.967,2.006-1.707,3.234-2.221c1.228-0.513,2.513-0.77,3.855-0.77
			c1.391,0,2.703,0.262,3.937,0.784C248.281,293.747,249.347,294.482,250.245,295.43z M248.039,310.318
			c0.553-0.897,0.955-1.914,1.207-3.049c0.251-1.135,0.377-2.402,0.377-3.804c0-1.44-0.141-2.763-0.422-3.967
			c-0.281-1.203-0.693-2.229-1.235-3.078c-0.543-0.839-1.224-1.492-2.043-1.961s-1.756-0.703-2.812-0.703
			c-1.185,0-2.19,0.271-3.02,0.814c-0.829,0.542-1.505,1.268-2.028,2.175c-0.493,0.869-0.86,1.885-1.103,3.05
			c-0.241,1.164-0.362,2.388-0.362,3.67c0,1.421,0.128,2.704,0.385,3.849s0.661,2.16,1.214,3.049
			c0.532,0.868,1.203,1.546,2.013,2.034c0.809,0.489,1.776,0.733,2.901,0.733c1.056,0,2.007-0.247,2.856-0.74
			C246.815,311.897,247.507,311.206,248.039,310.318z"/>
		<path fill="#002A5C" d="M275.214,293.994c-0.257,0.01-0.567,0.066-0.933,0.17s-0.666,0.229-0.902,0.377
			c-0.336,0.207-0.604,0.474-0.807,0.8c-0.203,0.325-0.402,0.71-0.6,1.154c-0.661,1.568-1.653,4.014-2.975,7.333
			c-1.323,3.32-2.685,6.781-4.085,10.383h-1.229c-1.421-3.818-2.793-7.499-4.115-11.041s-2.22-5.935-2.693-7.178
			c-0.118-0.307-0.276-0.575-0.474-0.807c-0.197-0.232-0.459-0.452-0.784-0.659c-0.267-0.168-0.562-0.293-0.888-0.377
			c-0.326-0.084-0.627-0.136-0.903-0.155v-1.051h8.69v1.051c-0.74,0.039-1.364,0.113-1.872,0.222
			c-0.509,0.108-0.763,0.301-0.763,0.577c0,0.108,0.02,0.236,0.06,0.385c0.039,0.148,0.074,0.267,0.104,0.355
			c0.365,0.967,0.957,2.544,1.776,4.731c0.818,2.187,1.983,5.3,3.492,9.339c0.75-1.827,1.613-3.984,2.591-6.473
			c0.977-2.488,1.633-4.197,1.969-5.125c0.325-0.898,0.515-1.521,0.569-1.866c0.054-0.345,0.081-0.626,0.081-0.844
			c0-0.227-0.101-0.416-0.303-0.569s-0.472-0.284-0.807-0.393c-0.326-0.099-0.656-0.173-0.992-0.222
			c-0.335-0.05-0.676-0.089-1.021-0.118v-1.051h7.812V293.994z"/>
		<path fill="#002A5C" d="M293.699,307.758l-0.399,6.187h-17.436v-1.051c0.296-0.02,0.69-0.062,1.185-0.126
			c0.493-0.063,0.813-0.13,0.962-0.199c0.315-0.148,0.535-0.341,0.658-0.577c0.124-0.237,0.186-0.538,0.186-0.903v-15.096
			c0-0.326-0.055-0.614-0.163-0.866s-0.336-0.456-0.681-0.614c-0.267-0.128-0.624-0.241-1.073-0.341
			c-0.449-0.098-0.807-0.157-1.073-0.177v-1.051h16.251v5.062h-1.109c-0.198-0.75-0.625-1.547-1.28-2.391
			c-0.656-0.844-1.28-1.305-1.873-1.384c-0.306-0.039-0.671-0.069-1.095-0.089c-0.425-0.02-0.908-0.029-1.45-0.029h-3.301v8.348
			h2.368c0.76,0,1.314-0.072,1.665-0.215c0.35-0.144,0.658-0.383,0.925-0.718c0.217-0.286,0.402-0.669,0.555-1.147
			c0.153-0.479,0.254-0.93,0.304-1.354h1.11v8.229h-1.11c-0.039-0.474-0.146-0.975-0.318-1.502c-0.173-0.528-0.353-0.91-0.54-1.147
			c-0.306-0.385-0.653-0.637-1.043-0.755c-0.391-0.118-0.906-0.178-1.547-0.178h-2.368v6.295c0,0.631,0.044,1.128,0.133,1.492
			s0.262,0.641,0.519,0.828c0.256,0.187,0.606,0.308,1.051,0.361c0.443,0.055,1.075,0.081,1.895,0.081c0.325,0,0.755,0,1.287,0
			c0.533,0,0.982-0.02,1.347-0.059c0.375-0.039,0.763-0.111,1.162-0.215s0.684-0.244,0.852-0.422
			c0.453-0.474,0.93-1.191,1.428-2.153s0.816-1.67,0.955-2.124H293.699z"/>
		<path fill="#002A5C" d="M317.395,293.994c-0.276,0.01-0.701,0.088-1.273,0.236s-0.981,0.301-1.229,0.459
			c-0.354,0.247-0.594,0.721-0.718,1.421c-0.123,0.7-0.185,1.589-0.185,2.664v15.377h-1.288l-12.728-17.183v10.834
			c0,1.213,0.076,2.146,0.229,2.797c0.152,0.651,0.387,1.115,0.702,1.392c0.228,0.217,0.696,0.419,1.406,0.606
			c0.711,0.188,1.179,0.286,1.406,0.296v1.051h-8.614v-1.051c0.267-0.02,0.716-0.115,1.348-0.288
			c0.631-0.173,1.025-0.328,1.184-0.467c0.346-0.275,0.582-0.697,0.711-1.266c0.128-0.566,0.192-1.536,0.192-2.908V297.62
			c0-0.454-0.079-0.908-0.237-1.362c-0.158-0.453-0.37-0.804-0.637-1.051c-0.354-0.325-0.836-0.604-1.442-0.836
			c-0.607-0.231-1.098-0.357-1.473-0.377v-1.051h6l11.805,16.011v-9.988c0-1.224-0.079-2.163-0.237-2.819
			c-0.157-0.655-0.385-1.092-0.681-1.31c-0.276-0.188-0.728-0.369-1.354-0.547c-0.626-0.178-1.103-0.276-1.428-0.296v-1.051h8.54
			V293.994z"/>
		<path fill="#002A5C" d="M328.338,314.448c-1.252,0-2.452-0.247-3.601-0.741c-1.148-0.493-2.167-1.204-3.054-2.133
			c-0.878-0.928-1.577-2.061-2.1-3.398c-0.523-1.338-0.784-2.846-0.784-4.524s0.257-3.202,0.77-4.569
			c0.512-1.367,1.222-2.545,2.129-3.532c0.896-0.978,1.956-1.732,3.179-2.266s2.528-0.8,3.919-0.8c1.035,0,1.971,0.128,2.81,0.385
			c0.837,0.257,1.636,0.616,2.395,1.08l0.606-1.006h1.185l0.133,7.488h-1.214c-0.157-0.729-0.394-1.521-0.709-2.375
			s-0.686-1.576-1.109-2.169c-0.473-0.671-1.034-1.196-1.685-1.576c-0.65-0.379-1.395-0.569-2.232-0.569
			c-0.956,0-1.846,0.212-2.668,0.637c-0.823,0.425-1.535,1.052-2.137,1.881c-0.571,0.801-1.02,1.817-1.345,3.052
			s-0.488,2.611-0.488,4.133c0,1.343,0.17,2.574,0.51,3.695c0.341,1.121,0.826,2.105,1.457,2.955
			c0.631,0.839,1.377,1.496,2.239,1.97s1.826,0.711,2.891,0.711c0.798,0,1.532-0.126,2.203-0.378
			c0.67-0.251,1.251-0.584,1.744-0.999c0.492-0.434,0.926-0.927,1.301-1.479s0.68-1.154,0.917-1.806l1.109,0.533
			c-0.848,2.082-1.972,3.569-3.371,4.462C331.937,314.001,330.271,314.448,328.338,314.448z"/>
		<path fill="#002A5C" d="M356.216,307.758l-0.399,6.187h-17.436v-1.051c0.296-0.02,0.69-0.062,1.185-0.126
			c0.493-0.063,0.813-0.13,0.962-0.199c0.315-0.148,0.535-0.341,0.658-0.577c0.124-0.237,0.186-0.538,0.186-0.903v-15.096
			c0-0.326-0.055-0.614-0.163-0.866s-0.336-0.456-0.681-0.614c-0.267-0.128-0.624-0.241-1.073-0.341
			c-0.449-0.098-0.807-0.157-1.073-0.177v-1.051h16.251v5.062h-1.109c-0.198-0.75-0.625-1.547-1.28-2.391
			c-0.656-0.844-1.28-1.305-1.873-1.384c-0.306-0.039-0.671-0.069-1.095-0.089c-0.425-0.02-0.908-0.029-1.45-0.029h-3.301v8.348
			h2.368c0.76,0,1.314-0.072,1.665-0.215c0.35-0.144,0.658-0.383,0.925-0.718c0.217-0.286,0.402-0.669,0.555-1.147
			c0.153-0.479,0.254-0.93,0.304-1.354h1.11v8.229h-1.11c-0.039-0.474-0.146-0.975-0.318-1.502c-0.173-0.528-0.353-0.91-0.54-1.147
			c-0.306-0.385-0.653-0.637-1.043-0.755c-0.391-0.118-0.906-0.178-1.547-0.178h-2.368v6.295c0,0.631,0.044,1.128,0.133,1.492
			s0.262,0.641,0.519,0.828c0.256,0.187,0.606,0.308,1.051,0.361c0.443,0.055,1.075,0.081,1.895,0.081c0.325,0,0.755,0,1.287,0
			c0.533,0,0.982-0.02,1.347-0.059c0.375-0.039,0.763-0.111,1.162-0.215s0.684-0.244,0.852-0.422
			c0.453-0.474,0.93-1.191,1.428-2.153s0.816-1.67,0.955-2.124H356.216z"/>
	</g>
</g>
<path fill="#F7A800" d="M191.927,167.067c2.563-3.631,10.586-7.933,13.655-11.006c5.807-5.765,10.44-10.491,15.306-16.48
	c6.168-7.531,10.831-16.369,16.189-24.068c5.256-7.542,9.774-14.357,14.278-23.553c3.186-6.492,6.356-14.19,7.009-21.453
	c1.303-15.151-12.961-21.855-25.733-23.364c-6.038-0.727-11.845,0.614-17.145,3.687c-4.764,2.793-13.395,11.263-16.827,13.933
	c-0.579-0.983-8.848-5.184-10.658-6.011c-4.228-1.843-8.761-3.463-13.365-4.224c-11.295-1.844-21.33,0.302-29.25,9.296
	c-6.574,7.475-6.314,21.196-3.432,30.392c3.214,10.179,5.894,20.09,12.004,28.928c6.85,9.877,14.959,19.978,23.357,28.649
	C182.601,157.257,187.756,160.285,191.927,167.067"/>
<path fill="#0D2240" d="M120.204,134.913c-1.208,0-1.88-0.94-1.88-2.283c0-1.612,0.538-2.417,2.418-5.104l43.111-60.167
	c0.94-1.209,1.746-1.88,3.089-1.88h2.283c1.343,0,2.015,0.403,2.015,1.075c0,0.403-0.269,0.94-0.671,1.477l-42.708,59.093
	c-1.611,2.149,0.269,2.149,3.761,2.149h20.816c3.224,0,3.761-0.403,3.761-3.492v-24.711c0-0.94,0.134-2.015,1.209-2.686
	c1.611-1.074,4.701-2.149,6.849-2.284c1.88-0.134,1.88,1.478,1.88,4.164v25.921c0,2.551,0.403,3.088,2.686,3.088h8.596
	c1.208,0.94,1.208,4.432,0,5.641h-7.252c-3.358,0-4.029,0.134-4.029,2.955v6.044c0,10.609,0.269,12.355,5.775,13.027l3.492,0.403
	c0.806,0.806,0.672,2.954-0.269,3.357c-4.835-0.268-9.804-0.403-13.968-0.403c-4.834,0-10.878,0.135-16.787,0.403
	c-0.94-0.403-1.075-2.551-0.269-3.357l6.043-0.403c5.641-0.402,6.044-2.685,6.044-13.027v-5.642c0-3.223-0.403-3.357-3.895-3.357
	H120.204z"/>
<path fill="#0D2240" d="M184.229,114.044c0-27.288,20.466-48.163,48.572-48.163c31.518,0,47.344,22.785,47.344,46.798
	c0,27.561-21.012,47.617-47.344,47.617C202.512,160.296,184.229,138.603,184.229,114.044 M266.501,116.909
	c0-22.513-9.96-46.798-36.021-46.798c-14.189,0-32.608,9.687-32.608,39.567c0,20.193,9.823,46.389,36.702,46.389
	C250.947,156.067,266.501,143.787,266.501,116.909"/>
<path fill="#0D2240" d="M124.926,187.121c0,1.29,0.052,2.222,0.44,2.66c0.31,0.362,0.723,0.569,2.789,0.569
	c2.866,0,3.281-0.129,4.468-2.789c0.258-0.129,0.671-0.053,0.801,0.155c-0.208,1.084-0.775,3.047-1.084,3.745
	c-1.084-0.052-3.306-0.08-6.198-0.08h-2.686c-1.318,0-2.61,0.028-3.695,0.08c-0.206-0.105-0.283-0.621-0.052-0.749l0.776-0.13
	c1.214-0.155,1.446-0.232,1.446-2.919v-9.605c0-2.687-0.232-2.765-1.446-2.946l-0.724-0.103c-0.18-0.129-0.18-0.644,0.054-0.748
	c1.289,0.051,2.45,0.077,3.639,0.077c1.138,0,2.299-0.026,3.437-0.077c0.232,0.104,0.257,0.619,0.052,0.748l-0.57,0.103
	c-1.215,0.181-1.446,0.259-1.446,2.946V187.121z"/>
<path fill="#0D2240" d="M138.433,175.961c0,1.965-1.756,3.413-3.538,3.851c-0.205-0.154-0.257-0.465-0.18-0.671
	c1.112-0.466,2.094-1.214,2.094-2.351c0-0.853-0.778-1.264-1.396-1.342c-0.387-0.051-0.802-0.362-0.802-0.932
	c0-0.437,0.311-1.213,1.472-1.213C137.35,173.304,138.433,174.543,138.433,175.961"/>
<path fill="#0D2240" d="M141.21,180.956c0-6.457,4.842-11.396,11.491-11.396c7.459,0,11.203,5.391,11.203,11.073
	c0,6.522-4.972,11.268-11.203,11.268C145.537,191.9,141.21,186.766,141.21,180.956 M160.677,181.633
	c0-5.327-2.355-11.073-8.523-11.073c-3.358,0-7.715,2.292-7.715,9.362c0,4.779,2.324,10.976,8.683,10.976
	C156.997,190.897,160.677,187.992,160.677,181.633"/>
<path fill="#0D2240" d="M182.411,178.675c-0.18,0.207-0.646,0.233-0.826,0.053c-0.44-1.628-1.602-3.771-5.012-3.771
	c-3.28,0-6.585,2.323-6.585,7.617c0,5.502,3.435,8.188,6.768,8.188c3.253,0,4.674-2.171,5.397-3.849
	c0.232-0.231,0.646-0.129,0.775,0.103c-0.18,1.731-0.877,3.437-1.239,3.926c-0.311,0.053-0.621,0.157-0.906,0.233
	c-0.568,0.181-2.35,0.62-4.027,0.62c-2.559,0-4.752-0.515-6.612-1.729c-2.092-1.37-3.667-3.72-3.667-7.104
	c0-3.022,1.343-5.371,3.253-6.842c1.912-1.446,4.52-2.196,7.128-2.196c1.473,0,3.254,0.258,4.468,0.568
	c0.311,0.078,0.491,0.105,0.725,0.154C182.1,175.241,182.152,176.765,182.411,178.675"/>
<path fill="#0D2240" d="M200.334,178.675c-0.182,0.207-0.646,0.233-0.827,0.053c-0.437-1.628-1.6-3.771-5.009-3.771
	c-3.28,0-6.586,2.323-6.586,7.617c0,5.502,3.436,8.188,6.765,8.188c3.256,0,4.675-2.171,5.399-3.849
	c0.233-0.231,0.646-0.129,0.775,0.103c-0.18,1.731-0.877,3.437-1.24,3.926c-0.31,0.053-0.62,0.157-0.904,0.233
	c-0.567,0.181-2.351,0.62-4.03,0.62c-2.556,0-4.751-0.515-6.61-1.729c-2.092-1.37-3.667-3.72-3.667-7.104
	c0-3.022,1.341-5.371,3.253-6.842c1.911-1.446,4.52-2.196,7.128-2.196c1.471,0,3.256,0.258,4.468,0.568
	c0.311,0.078,0.491,0.105,0.725,0.154C200.025,175.241,200.076,176.765,200.334,178.675"/>
<path fill="#0D2240" d="M207.308,187.663c0,2.74,0.232,2.817,1.447,2.97l0.567,0.079c0.181,0.181,0.156,0.644-0.052,0.749
	c-1.137-0.052-2.298-0.08-3.434-0.08c-1.138,0-2.35,0.028-3.488,0.08c-0.206-0.105-0.232-0.568-0.052-0.749l0.569-0.079
	c1.215-0.153,1.447-0.23,1.447-2.97v-9.605c0-2.739-0.232-2.816-1.447-2.971l-0.569-0.078c-0.18-0.181-0.154-0.644,0.052-0.748
	c1.138,0.051,2.298,0.077,3.488,0.077c1.136,0,2.297-0.026,3.434-0.077c0.208,0.104,0.233,0.567,0.052,0.748l-0.567,0.078
	c-1.215,0.155-1.447,0.232-1.447,2.971V187.663z"/>
<path fill="#0D2240" d="M217.765,176.506c0-1.084-0.025-1.136-0.698-1.136h-1.445c-2.376,0-3.073,0.285-4.028,2.375
	c-0.181,0.156-0.724,0.078-0.826-0.18c0.437-1.396,0.826-2.997,1.005-3.9c0.053-0.077,0.155-0.104,0.287-0.104
	c0.1,0,0.206,0.027,0.257,0.104c0.129,0.645,0.492,0.671,2.247,0.671h10.539c1.265,0,1.652-0.077,1.962-0.671
	c0.102-0.052,0.207-0.104,0.31-0.104c0.156,0,0.285,0.053,0.335,0.129c-0.257,1.059-0.464,3.28-0.386,4.107
	c-0.13,0.208-0.568,0.259-0.801,0.077c-0.335-2.015-0.827-2.505-3.588-2.505h-1.473c-0.671,0-0.696,0.052-0.696,1.136v11.156
	c0,2.739,0.231,2.817,1.445,2.946l0.929,0.103c0.181,0.181,0.155,0.644-0.053,0.749c-1.496-0.052-2.659-0.08-3.794-0.08
	c-1.138,0-2.35,0.028-4.003,0.08c-0.207-0.105-0.232-0.621-0.052-0.749l1.085-0.129c1.214-0.103,1.445-0.181,1.445-2.92V176.506z"/>
<path fill="#0D2240" d="M233.365,185.054c-0.673,0-0.646,0-0.878,0.697l-1.059,3.102c-0.518,1.524-0.413,1.6,0.541,1.729l0.75,0.13
	c0.182,0.181,0.157,0.644-0.052,0.749c-0.826-0.052-1.678-0.052-2.735-0.08c-0.854,0-1.654,0.028-2.559,0.08
	c-0.182-0.13-0.208-0.518-0.025-0.749l0.774-0.13c0.75-0.103,1.031-0.335,1.419-1.188c0.312-0.671,0.724-1.758,1.267-3.151
	l3.538-9.195c0.336-0.826,0.567-1.445,0.49-1.884c0.905-0.18,1.758-1.24,1.809-1.24c0.206,0,0.335,0.078,0.44,0.208
	c0.411,1.161,0.748,2.375,1.162,3.538l3.716,10.821c0.596,1.731,0.726,1.912,2.042,2.143l0.387,0.079
	c0.207,0.181,0.207,0.619,0.026,0.749c-1.06-0.052-2.015-0.08-3.358-0.08c-1.111,0-2.246,0.053-3.15,0.08
	c-0.206-0.13-0.23-0.595-0.078-0.749l0.569-0.079c0.927-0.103,1.006-0.256,0.671-1.369l-1.215-3.513
	c-0.256-0.697-0.336-0.697-1.059-0.697H233.365z M236.464,183.894c0.725,0,0.827-0.052,0.622-0.672l-1.086-3.099
	c-0.439-1.369-0.593-1.86-0.722-2.042h-0.051c-0.106,0.182-0.312,0.828-0.776,2.042l-1.085,3.021c-0.283,0.75-0.207,0.75,0.413,0.75
	H236.464z"/>
<path fill="#0D2240" d="M261.466,186.993c0,0.774,0,3.95,0.077,4.545c-0.207,0.284-0.567,0.386-0.878,0.361
	c-0.413-0.543-1.161-1.42-3.022-3.54l-6.043-6.895c-1.679-1.886-2.504-2.866-2.944-3.253c-0.078,0-0.078,0.283-0.078,1.653v5.036
	c0,1.934,0.027,4.312,0.465,5.088c0.232,0.387,0.671,0.542,1.316,0.644l0.567,0.079c0.233,0.181,0.208,0.669-0.051,0.749
	c-0.955-0.052-1.963-0.08-2.944-0.08c-1.084,0-1.781,0.028-2.687,0.08c-0.206-0.13-0.258-0.568-0.049-0.749l0.567-0.129
	c0.493-0.077,0.956-0.18,1.136-0.594c0.335-0.802,0.335-3.049,0.335-5.088v-6.121c0-2.015,0.027-2.428-0.853-3.178
	c-0.283-0.232-1.007-0.438-1.369-0.517l-0.387-0.078c-0.181-0.155-0.155-0.671,0.104-0.748c0.979,0.104,2.401,0.077,3.046,0.077
	c0.543,0,1.162-0.026,1.783-0.077c0.438,1.11,3.255,4.363,4.158,5.346l2.582,2.79c1.086,1.187,3.49,3.924,3.749,4.08
	c0.078-0.078,0.078-0.207,0.078-0.62v-5.037c0-1.937-0.027-4.313-0.492-5.087c-0.232-0.388-0.647-0.543-1.293-0.646l-0.594-0.078
	c-0.232-0.181-0.206-0.671,0.052-0.748c1.006,0.051,1.963,0.077,2.969,0.077c1.112,0,1.784-0.026,2.712-0.077
	c0.208,0.126,0.259,0.567,0.053,0.748l-0.593,0.13c-0.491,0.078-0.93,0.18-1.112,0.594c-0.36,0.8-0.36,3.048-0.36,5.087V186.993z"/>
<path fill="#0D2240" d="M267.406,178.057c0-2.739-0.232-2.816-1.447-2.998l-0.412-0.051c-0.181-0.181-0.157-0.644,0.052-0.748
	c0.981,0.05,2.194,0.077,3.33,0.077h4.933c1.654,0,3.151-0.027,3.487-0.077c0.104,0.438,0.257,2.478,0.413,3.59
	c-0.103,0.207-0.619,0.257-0.825,0.102c-0.415-1.498-0.802-2.144-1.628-2.35c-0.593-0.181-1.369-0.232-2.065-0.232h-1.731
	c-1.109,0-1.109,0.052-1.109,1.523v4.364c0,0.672,0.025,0.697,0.62,0.697h1.239c2.247,0,2.685-0.024,2.867-1.135l0.18-0.879
	c0.208-0.181,0.697-0.181,0.827,0.026c-0.025,0.699-0.078,1.628-0.078,2.583c0,0.981,0.053,1.887,0.078,2.712
	c-0.129,0.181-0.619,0.181-0.827,0.026l-0.18-1.033c-0.182-1.085-0.62-1.135-2.867-1.135h-1.239c-0.595,0-0.62,0.05-0.62,0.697
	v3.279c0,1.315,0.05,2.247,0.438,2.686c0.309,0.362,0.749,0.569,2.917,0.569c3.281,0.052,3.848-0.697,4.753-2.79
	c0.232-0.182,0.671-0.104,0.827,0.156c-0.156,1.084-0.722,3.047-1.084,3.745c-1.137-0.052-3.358-0.08-6.381-0.08h-2.944
	c-1.135,0-2.711,0.027-3.875,0.08c-0.206-0.104-0.232-0.568-0.05-0.749l0.954-0.103c1.215-0.129,1.447-0.207,1.447-2.946V178.057z"
	/>
<path fill="#0D2240" d="M153.244,201.343c0,0.337,0.013,0.361,0.335,0.361h0.828c0.625,0,0.755-0.084,0.887-0.66l0.06-0.299
	c0.085-0.097,0.384-0.097,0.443,0.012c-0.022,0.383-0.035,0.817-0.035,1.272c0,0.454,0.012,0.886,0.035,1.269
	c-0.059,0.109-0.358,0.12-0.443,0.014l-0.06-0.3c-0.132-0.575-0.262-0.672-0.887-0.672h-0.828c-0.322,0-0.335,0.012-0.335,0.373
	v1.427c0,0.551,0.048,0.936,0.193,1.137c0.154,0.217,0.383,0.315,1.257,0.315c1.044,0,1.452-0.039,2.112-1.392
	c0.096-0.13,0.396-0.084,0.443,0.058c-0.047,0.624-0.335,1.596-0.504,1.92c-0.636-0.023-1.785-0.036-2.769-0.036h-1.56
	c-0.576,0-1.162,0.012-2.062,0.036c-0.096-0.073-0.096-0.359,0-0.419l0.562-0.085c0.541-0.071,0.613-0.157,0.613-1.26v-4.472
	c0-1.092-0.073-1.176-0.613-1.272l-0.298-0.059c-0.109-0.073-0.095-0.349,0.024-0.42c0.562,0.023,1.151,0.036,1.728,0.036h2.541
	c0.768,0,1.452-0.013,1.607-0.036c0.013,0.192,0.094,1.055,0.155,1.858c-0.047,0.132-0.323,0.155-0.442,0.048
	c-0.131-0.42-0.3-0.778-0.456-0.947c-0.228-0.228-0.588-0.373-1.175-0.373h-0.959c-0.396,0-0.396,0.025-0.396,0.468V201.343z"/>
<path fill="#0D2240" d="M166.65,204.102c0,0.779,0,1.537,0.025,1.934c-0.084,0.142-0.421,0.275-0.709,0.275
	c-0.012,0-0.409-0.614-0.97-1.308l-2.771-3.431c-0.683-0.863-1.091-1.354-1.307-1.534c-0.06,0.121-0.06,0.325-0.06,0.768v2.327
	c0,0.97,0.047,1.871,0.179,2.194c0.109,0.251,0.386,0.321,0.695,0.384l0.338,0.048c0.094,0.094,0.07,0.346,0,0.418
	c-0.648-0.022-1.128-0.035-1.606-0.035c-0.444,0-0.888,0.013-1.345,0.035c-0.071-0.073-0.097-0.324,0-0.418l0.205-0.037
	c0.324-0.075,0.551-0.145,0.658-0.396c0.12-0.324,0.168-1.224,0.168-2.194v-3.046c0-0.66,0-0.852-0.083-1.02
	c-0.084-0.203-0.264-0.323-0.685-0.408l-0.334-0.046c-0.084-0.098-0.073-0.384,0.046-0.42c0.566,0.024,1.164,0.037,1.655,0.037
	c0.409,0,0.757-0.013,1.008-0.037c0.12,0.539,0.899,1.451,1.979,2.734l1.008,1.187c0.538,0.624,0.874,1.044,1.15,1.32
	c0.049-0.12,0.049-0.323,0.049-0.541v-1.656c0-0.971-0.049-1.869-0.181-2.192c-0.108-0.252-0.373-0.325-0.695-0.385l-0.323-0.046
	c-0.096-0.098-0.071-0.349,0-0.42c0.646,0.024,1.114,0.037,1.605,0.037c0.445,0,0.876-0.013,1.345-0.037
	c0.071,0.072,0.096,0.323,0,0.42l-0.216,0.036c-0.312,0.071-0.541,0.144-0.648,0.396c-0.132,0.324-0.18,1.222-0.18,2.192V204.102z"
	/>
<path fill="#0D2240" d="M175.405,200.168c0-1.21-0.025-1.342-0.53-1.415l-0.371-0.048c-0.107-0.06-0.107-0.323,0.023-0.409
	c0.792-0.06,1.728-0.107,2.771-0.107c1.019,0,1.69,0.121,2.193,0.311c0.733,0.276,1.464,0.912,1.464,2.076
	c0,1.966-1.978,2.253-2.615,2.253c-0.141,0-0.251,0-0.382-0.012c-0.096-0.059-0.122-0.251-0.038-0.324
	c0.997-0.311,1.201-1.021,1.201-1.906c0-0.888-0.455-1.847-1.536-1.847c-0.442,0-0.467,0.132-0.467,0.612v5.059
	c0,1.117,0.072,1.2,0.61,1.296l0.385,0.06c0.131,0.06,0.131,0.335,0,0.407c-0.672-0.022-1.258-0.035-1.836-0.035
	c-0.575,0-1.152,0.013-1.797,0.035c-0.132-0.072-0.157-0.348-0.025-0.407l0.336-0.06c0.541-0.096,0.613-0.179,0.613-1.296V200.168z"
	/>
<path fill="#0D2240" d="M184.169,200.168c0-1.198-0.023-1.33-0.526-1.403l-0.325-0.048c-0.121-0.06-0.121-0.359,0.023-0.42
	c0.9-0.06,1.834-0.107,2.975-0.107c1.02,0,1.895,0.156,2.349,0.433c0.696,0.408,1.056,1.007,1.056,1.774
	c0,1.067-0.72,1.523-1.271,1.797c-0.119,0.062-0.119,0.133-0.06,0.265c0.792,1.61,1.284,2.507,1.858,2.998
	c0.312,0.253,0.625,0.323,0.806,0.337c0.107,0.059,0.107,0.241,0.046,0.31c-0.191,0.087-0.577,0.109-0.947,0.109
	c-1.104,0-1.799-0.395-2.326-1.261c-0.386-0.634-0.66-1.223-0.937-1.857c-0.144-0.324-0.335-0.418-0.636-0.418
	c-0.419,0-0.442,0.023-0.442,0.263v1.474c0,1.103,0.07,1.188,0.611,1.282l0.324,0.062c0.083,0.06,0.083,0.346,0,0.418
	c-0.635-0.023-1.187-0.035-1.764-0.035c-0.599,0-1.128,0.012-1.75,0.035c-0.095-0.073-0.095-0.359,0-0.418l0.325-0.062
	c0.54-0.094,0.612-0.179,0.612-1.282V200.168z M185.812,201.691c0,0.42,0.037,0.457,0.743,0.457c0.433,0,0.683-0.11,0.912-0.336
	c0.204-0.206,0.434-0.586,0.434-1.296c0-1.079-0.638-1.774-1.573-1.774c-0.491,0-0.491,0.036-0.515,0.613V201.691z"/>
<path fill="#0D2240" d="M201.292,202.148c0,2.613-1.752,4.184-4.328,4.184c-2.411,0-4.161-1.583-4.161-4.087
	c0-2.375,1.773-4.211,4.279-4.211C199.579,198.034,201.292,199.713,201.292,202.148 M196.987,198.585
	c-1.474,0-2.265,1.379-2.265,3.382c0,1.464,0.516,3.813,2.468,3.813c1.571,0,2.185-1.533,2.185-3.476
	C199.375,200.253,198.474,198.585,196.987,198.585"/>
<path fill="#0D2240" d="M208.776,203.167c-0.61,1.451-0.936,2.398-1.211,3.071c-0.096,0.061-0.24,0.095-0.42,0.095
	c-0.144,0-0.25-0.035-0.323-0.095c-0.133-0.324-0.336-0.961-0.502-1.368l-1.945-4.879c-0.492-1.212-0.467-1.164-1.042-1.307
	l-0.336-0.083c-0.097-0.134-0.061-0.348,0.048-0.409c0.612,0.011,1.008,0.037,1.632,0.037c0.55,0,1.066-0.013,1.797-0.037
	c0.096,0.072,0.083,0.3,0.011,0.409l-0.358,0.07c-0.217,0.048-0.3,0.121-0.3,0.229c0,0.095,0.191,0.6,0.479,1.32l1.057,2.697
	c0.166,0.445,0.285,0.721,0.371,0.925c0.095-0.204,0.241-0.528,0.385-0.889l0.442-1.127c0.31-0.754,0.8-2.099,0.948-2.504
	c0.083-0.229,0.118-0.36,0.118-0.433c0-0.083-0.035-0.144-0.324-0.204l-0.348-0.083c-0.095-0.098-0.095-0.348,0.05-0.409
	c0.562,0.024,1.018,0.037,1.475,0.037c0.407,0,0.767-0.013,1.114-0.037c0.096,0.047,0.106,0.335,0.022,0.409l-0.311,0.058
	c-0.336,0.072-0.504,0.169-0.66,0.42c-0.261,0.396-0.574,1.044-0.995,2.017L208.776,203.167z"/>
<path fill="#0D2240" d="M215.669,201.343c0,0.337,0.012,0.361,0.335,0.361h0.828c0.624,0,0.756-0.084,0.886-0.66l0.061-0.299
	c0.083-0.097,0.383-0.097,0.444,0.012c-0.023,0.383-0.037,0.817-0.037,1.272c0,0.454,0.013,0.886,0.037,1.269
	c-0.061,0.109-0.362,0.12-0.444,0.014l-0.061-0.3c-0.13-0.575-0.263-0.672-0.886-0.672h-0.828c-0.323,0-0.335,0.012-0.335,0.373
	v1.427c0,0.551,0.049,0.936,0.192,1.137c0.157,0.217,0.384,0.315,1.259,0.315c1.042,0,1.449-0.039,2.111-1.392
	c0.096-0.13,0.393-0.084,0.441,0.058c-0.048,0.624-0.334,1.596-0.5,1.92c-0.638-0.023-1.788-0.036-2.77-0.036h-1.56
	c-0.576,0-1.165,0.012-2.063,0.036c-0.095-0.073-0.095-0.359,0-0.419l0.564-0.085c0.539-0.071,0.611-0.157,0.611-1.26v-4.472
	c0-1.092-0.073-1.176-0.611-1.272l-0.3-0.059c-0.109-0.073-0.096-0.349,0.023-0.42c0.564,0.023,1.15,0.036,1.728,0.036h2.54
	c0.769,0,1.453-0.013,1.609-0.036c0.01,0.192,0.095,1.055,0.155,1.858c-0.048,0.132-0.323,0.155-0.444,0.048
	c-0.131-0.42-0.299-0.778-0.455-0.947c-0.231-0.228-0.588-0.373-1.176-0.373h-0.959c-0.396,0-0.396,0.025-0.396,0.468V201.343z"/>
<path fill="#0D2240" d="M229.076,204.102c0,0.779,0,1.537,0.023,1.934c-0.083,0.142-0.417,0.275-0.707,0.275
	c-0.014,0-0.407-0.614-0.972-1.308l-2.771-3.431c-0.682-0.863-1.09-1.354-1.306-1.534c-0.06,0.121-0.06,0.325-0.06,0.768v2.327
	c0,0.97,0.047,1.871,0.18,2.194c0.108,0.251,0.384,0.321,0.696,0.384l0.334,0.048c0.096,0.094,0.072,0.346,0,0.418
	c-0.646-0.022-1.126-0.035-1.606-0.035c-0.443,0-0.886,0.013-1.342,0.035c-0.073-0.073-0.097-0.324,0-0.418l0.203-0.037
	c0.324-0.075,0.552-0.145,0.659-0.396c0.121-0.324,0.169-1.224,0.169-2.194v-3.046c0-0.66,0-0.852-0.084-1.02
	c-0.085-0.203-0.264-0.323-0.684-0.408l-0.336-0.046c-0.084-0.098-0.071-0.384,0.047-0.42c0.564,0.024,1.164,0.037,1.655,0.037
	c0.41,0,0.757-0.013,1.008-0.037c0.121,0.539,0.9,1.451,1.979,2.734l1.007,1.187c0.539,0.624,0.877,1.044,1.151,1.32
	c0.05-0.12,0.05-0.323,0.05-0.541v-1.656c0-0.971-0.05-1.869-0.181-2.192c-0.108-0.252-0.373-0.325-0.696-0.385l-0.324-0.046
	c-0.096-0.098-0.071-0.349,0-0.42c0.647,0.024,1.115,0.037,1.606,0.037c0.444,0,0.876-0.013,1.344-0.037
	c0.07,0.072,0.095,0.323,0,0.42l-0.216,0.036c-0.313,0.071-0.541,0.144-0.647,0.396c-0.133,0.324-0.181,1.222-0.181,2.192V204.102z"
	/>
<path fill="#0D2240" d="M239.509,198.347c0,0.216,0.035,1.174,0.142,1.871c-0.046,0.145-0.372,0.191-0.454,0.083
	c-0.325-1.117-1.093-1.715-2.256-1.715c-1.332,0-2.757,1.139-2.757,3.526s1.378,3.669,2.818,3.669c1.452,0,2.122-1.042,2.446-1.858
	c0.095-0.096,0.382-0.061,0.456,0.085c-0.083,0.887-0.289,1.606-0.456,1.882c-0.649,0.179-1.499,0.442-2.435,0.442
	c-1.174,0-2.374-0.274-3.225-0.911c-0.866-0.661-1.525-1.656-1.525-3.141c0-1.464,0.625-2.496,1.453-3.179
	c0.852-0.709,2.076-1.068,3.321-1.068C238.261,198.034,239.148,198.322,239.509,198.347"/>
<path fill="#0D2240" d="M244.688,201.343c0,0.337,0.011,0.361,0.334,0.361h0.829c0.623,0,0.755-0.084,0.887-0.66l0.06-0.299
	c0.085-0.097,0.385-0.097,0.444,0.012c-0.024,0.383-0.037,0.817-0.037,1.272c0,0.454,0.012,0.886,0.037,1.269
	c-0.059,0.109-0.359,0.12-0.444,0.014l-0.06-0.3c-0.132-0.575-0.264-0.672-0.887-0.672h-0.829c-0.324,0-0.334,0.012-0.334,0.373
	v1.427c0,0.551,0.049,0.936,0.19,1.137c0.156,0.217,0.384,0.315,1.262,0.315c1.042,0,1.451-0.039,2.108-1.392
	c0.097-0.13,0.396-0.084,0.443,0.058c-0.047,0.624-0.335,1.596-0.503,1.92c-0.634-0.023-1.787-0.036-2.77-0.036h-1.559
	c-0.576,0-1.164,0.012-2.062,0.036c-0.097-0.073-0.097-0.359,0-0.419l0.563-0.085c0.541-0.071,0.612-0.157,0.612-1.26v-4.472
	c0-1.092-0.071-1.176-0.612-1.272l-0.301-0.059c-0.107-0.073-0.094-0.349,0.025-0.42c0.563,0.023,1.152,0.036,1.726,0.036h2.543
	c0.768,0,1.451-0.013,1.605-0.036c0.014,0.192,0.097,1.055,0.156,1.858c-0.047,0.132-0.322,0.155-0.442,0.048
	c-0.132-0.42-0.301-0.778-0.457-0.947c-0.229-0.228-0.588-0.373-1.176-0.373h-0.958c-0.396,0-0.396,0.025-0.396,0.468V201.343z"/>
<path fill="#0D2240" d="M262.261,209.081c0.521,0,0.826,0.469,0.989,0.863l0.082,0.195l0.21-0.023
	c0.065-0.007,0.131-0.011,0.192-0.011c0.584,0,1.006,0.318,1.187,0.894c0.16,0.509,0.318,1.018,0.478,1.528
	c0.331,1.06,0.672,2.156,1.024,3.23c0.287,0.875,0.245,1.774-0.127,2.749c-0.248,0.651-0.898,0.874-1.6,1.062
	c-0.913,0.245-1.653,0.359-2.341,0.359c-0.197-0.001-0.615-0.346-0.667-0.551c-0.083-0.32-0.144-0.878,0.389-1.017
	c0.498-0.129,1.037-0.185,1.557-0.238l0.262-0.029c0.56-0.06,0.926-0.231,1.123-0.526c0.189-0.282,0.212-0.653,0.07-1.137
	c-0.229-0.777-0.493-1.552-0.75-2.302c-0.11-0.322-0.22-0.643-0.326-0.963l-0.128-0.383l-0.314,0.252
	c-0.333,0.267-0.645,0.527-0.948,0.778c-0.678,0.564-1.318,1.095-1.994,1.542c-0.194,0.128-0.496,0.279-0.839,0.279
	c-0.258,0-0.501-0.086-0.725-0.259c-0.656-0.506-0.875-1.115-0.693-1.917c0.248-1.083,0.948-1.876,1.69-2.717
	c0.086-0.098,0.171-0.194,0.256-0.292c0.288-0.331,0.643-0.663,1.056-0.989C261.682,209.21,261.99,209.081,262.261,209.081
	 M260.131,214.207l0.457-0.43l0.312-0.295l0.955-0.898l0.441-0.416l-0.603-0.067c-0.084-0.01-0.167-0.015-0.245-0.015
	c-0.4,0-0.734,0.126-0.966,0.364c-0.257,0.264-0.38,0.644-0.367,1.13L260.131,214.207"/>
<path fill="#0D2240" d="M271.277,207.281L271.277,207.281c0.358,0,0.675,0.102,0.922,0.293c0.637,0.498,1.037,1.102,1.191,1.795
	c0.163,0.731,0.297,1.483,0.426,2.21c0.051,0.28,0.1,0.559,0.152,0.838c0.023,0.124,0.041,0.248,0.062,0.4
	c0.01,0.078,0.022,0.161,0.036,0.256l0.03,0.198l0.199-0.029c0.168-0.024,0.326-0.051,0.479-0.076
	c0.34-0.055,0.635-0.104,0.935-0.124c0.015,0,0.031-0.001,0.047-0.001c0.138,0,0.286,0.032,0.443,0.067
	c0.021,0.005,0.043,0.01,0.066,0.014c-0.007,0.055-0.012,0.109-0.018,0.164c-0.02,0.197-0.043,0.443-0.123,0.509
	c-0.322,0.266-0.775,0.482-1.348,0.643c-0.492,0.139-0.763,0.333-0.795,0.957c-0.015,0.294-0.024,0.59-0.035,0.886
	c-0.04,1.267-0.081,2.577-0.624,3.774c-0.135,0.299-0.404,0.493-0.684,0.493c-0.069,0-0.139-0.013-0.205-0.038
	c-0.44-0.167-0.597-0.486-0.477-0.978c0.256-1.058,0.453-2.148,0.643-3.202l0.005-0.03c0.044-0.244,0.045-0.487,0.047-0.744
	c0-0.117,0-0.238,0.007-0.363l0.009-0.22l-0.222,0.012c-0.183,0.011-0.364,0.021-0.544,0.032c-0.4,0.024-0.779,0.047-1.166,0.063
	l-0.11,0.005c-0.118,0.005-0.235,0.011-0.354,0.011c-0.128,0-0.239-0.007-0.337-0.023c-0.221-0.032-0.403-0.134-0.512-0.286
	c-0.094-0.129-0.128-0.284-0.102-0.448c0.111-0.664,0.299-0.781,0.773-0.781c0.021,0,0.042,0,0.063,0
	c0.115,0.003,0.231,0.004,0.346,0.004c0.532,0,1.075-0.031,1.614-0.092c0.16-0.018,0.293-0.167,0.358-0.255
	c0.068-0.094,0.182-0.275,0.153-0.443c-0.173-1.004-0.368-2.145-0.667-3.25c-0.049-0.186-0.201-0.75-0.711-0.75
	c-0.196,0-0.414,0.085-0.683,0.269c-0.16,0.111-0.303,0.17-0.411,0.17c-0.059,0-0.137-0.016-0.217-0.129
	c-0.172-0.244-0.267-0.606-0.213-0.808C269.899,207.63,270.655,207.281,271.277,207.281"/>
<path fill="#0D2240" d="M282.334,207.038c0.123,0,0.241,0.042,0.351,0.124c0.305,0.228,0.35,0.809,0.096,1.217
	c-0.094,0.153-0.193,0.304-0.29,0.456c-0.335,0.517-0.68,1.052-0.913,1.632c-0.062,0.152-0.124,0.303-0.185,0.455
	c-0.546,1.34-1.11,2.725-1.254,4.271l-0.029,0.317l0.298-0.111c0.147-0.055,0.284-0.111,0.416-0.165
	c0.263-0.109,0.49-0.202,0.725-0.252c0.195-0.04,0.367-0.06,0.526-0.06c0.604,0,1.01,0.283,1.404,0.977
	c0.304,0.539,0.167,1.76-0.246,2.215c-0.544,0.599-1.225,0.929-1.915,0.929c-0.979,0-1.82-0.645-2.25-1.724
	c-0.48-1.203-0.289-2.388-0.039-3.388c0.515-2.064,1.186-4.436,2.612-6.448C281.845,207.197,282.092,207.038,282.334,207.038
	 M281.292,217.718c0.063,0,0.128-0.007,0.198-0.019c0.605-0.108,1.002-0.739,0.884-1.409l-0.035-0.203l-0.2,0.041l-0.791,0.157
	l-0.862,0.172l-0.216,0.042l0.063,0.211C280.439,217.063,280.635,217.718,281.292,217.718"/>
<path fill="#0D2240" d="M255.641,208.19c0.239,0,0.521,0.142,0.7,0.354c0.073,0.087,0.193,0.263,0.16,0.456
	c-0.22,1.303-0.439,2.359-0.69,3.325c-0.282,1.082-0.588,2.177-0.884,3.237c-0.275,0.983-0.56,1.999-0.824,3.003
	c-0.132,0.503-0.168,1.031-0.205,1.542l-0.012,0.169c-0.028,0.392-0.163,0.858-0.646,0.858l-0.021-0.001
	c-0.414-0.012-0.729-0.366-0.827-0.929c0.097-0.386,0.191-0.772,0.286-1.159c0.202-0.822,0.411-1.671,0.625-2.504
	c0.178-0.689,0.359-1.378,0.542-2.067c0.281-1.067,0.573-2.172,0.844-3.263c0.076-0.304-0.026-0.653-0.125-0.893
	c-0.072-0.176,0.029-0.716,0.325-1.316c0.243-0.497,0.49-0.761,0.616-0.796C255.546,208.196,255.593,208.19,255.641,208.19"/>
<path fill="#0D2240" d="M208.811,225.508l0.056-0.086l0.019-0.116c0.111-0.181,0.209-0.324,0.292-0.429
	c0.084-0.105,0.148-0.188,0.194-0.247c0.032-0.042,0.107-0.101,0.225-0.177c0.118-0.076,0.279-0.172,0.481-0.29l0.132-0.108
	c0.042-0.089,0.119-0.22,0.23-0.393c0.112-0.174,0.247-0.372,0.406-0.597c0.031-0.049,0.08-0.105,0.146-0.167
	s0.136-0.139,0.207-0.231c0.155-0.194,0.31-0.395,0.462-0.599c0.153-0.205,0.295-0.407,0.427-0.605
	c0.059-0.076,0.178-0.215,0.362-0.417c0.184-0.201,0.433-0.481,0.747-0.841c0.046-0.043,0.133-0.11,0.256-0.198
	c0.124-0.088,0.286-0.195,0.488-0.32c0.091-0.057,0.153-0.139,0.188-0.246c0.035-0.105,0.042-0.237,0.021-0.392
	c0.046-0.104,0.088-0.229,0.125-0.373c0.038-0.144,0.069-0.312,0.097-0.505c0.042-0.239,0.075-0.434,0.097-0.583
	c0.021-0.15,0.039-0.252,0.055-0.307c0.081-0.351,0.198-0.764,0.354-1.24c0.155-0.477,0.341-1.024,0.56-1.641
	c0.108-0.324,0.236-0.684,0.387-1.081c0.1-0.202,0.223-0.359,0.365-0.473c0.144-0.113,0.299-0.182,0.471-0.204
	c0.133-0.018,0.238,0.021,0.314,0.116c0.078,0.096,0.129,0.243,0.156,0.443c0.042,0.318,0.062,0.625,0.056,0.919
	c-0.006,0.295-0.051,0.576-0.135,0.843c-0.016,0.055-0.024,0.135-0.025,0.241s0.001,0.233,0.007,0.383
	c0.006,0.105-0.008,0.208-0.044,0.311c-0.035,0.103-0.084,0.2-0.148,0.292c0.008,0.052,0.008,0.114,0.003,0.186
	s-0.009,0.157-0.011,0.255l-0.128,0.221c-0.009,0.046-0.009,0.101-0.001,0.165c0.009,0.062,0.017,0.127,0.026,0.194
	c0.006,0.044-0.008,0.135-0.043,0.271c-0.034,0.137-0.087,0.33-0.159,0.581c-0.084,0.268-0.152,0.48-0.203,0.638
	c-0.051,0.158-0.077,0.255-0.079,0.293c-0.024,0.041-0.056,0.105-0.093,0.193c-0.037,0.088-0.083,0.188-0.135,0.3l0.066,0.24
	l-0.368,2.65c0.038,0.281,0.073,0.521,0.107,0.72c0.035,0.199,0.079,0.355,0.131,0.469c0.055,0.121,0.136,0.265,0.245,0.436
	c0.109,0.17,0.245,0.35,0.405,0.54c0.101,0.129,0.211,0.218,0.331,0.266c0.119,0.048,0.242,0.064,0.368,0.047
	c0.14-0.019,0.278-0.077,0.411-0.174c0.134-0.098,0.264-0.237,0.391-0.42c0.115,0.181,0.222,0.351,0.322,0.51
	c0.101,0.16,0.187,0.311,0.259,0.452c-0.034,0.027-0.104,0.114-0.208,0.259c-0.104,0.146-0.241,0.351-0.409,0.615
	c-0.1,0.156-0.232,0.278-0.397,0.364c-0.166,0.086-0.375,0.146-0.626,0.179c-0.555,0.075-1.026-0.009-1.413-0.251
	c-0.387-0.243-0.689-0.643-0.907-1.201c-0.046-0.115-0.086-0.215-0.12-0.301c-0.034-0.085-0.067-0.164-0.1-0.236
	c-0.07-0.133-0.18-0.273-0.328-0.419c-0.042,0.081-0.075,0.142-0.099,0.183c-0.081,0.071-0.168,0.169-0.261,0.294
	s-0.183,0.281-0.271,0.466c-0.012,0.077-0.041,0.173-0.085,0.288c-0.044,0.116-0.109,0.254-0.192,0.417
	c-0.201,0.306-0.404,0.613-0.611,0.924c-0.208,0.311-0.415,0.616-0.624,0.914c-0.284,0.416-0.554,0.729-0.812,0.94
	c-0.258,0.212-0.49,0.332-0.698,0.359c-0.37,0.049-0.656,0-0.856-0.151c-0.201-0.15-0.327-0.41-0.376-0.78
	c-0.022-0.17,0.008-0.417,0.092-0.742c0.085-0.324,0.118-0.56,0.098-0.708l-0.09-0.168L208.811,225.508z M213.97,221.584
	c-0.005-0.037-0.027-0.09-0.066-0.161c-0.096,0.126-0.216,0.274-0.359,0.443c-0.143,0.17-0.313,0.358-0.511,0.566
	c-0.037,0.125-0.13,0.329-0.281,0.609c-0.15,0.28-0.367,0.631-0.65,1.053c-0.082,0.125-0.186,0.333-0.312,0.625
	c-0.127,0.292-0.282,0.65-0.467,1.074c-0.061,0.167-0.12,0.367-0.18,0.601c0.007,0.044,0.042,0.089,0.109,0.132
	c0.213-0.097,0.459-0.327,0.738-0.692c0.279-0.365,0.602-0.862,0.969-1.492c0.377-0.668,0.649-1.231,0.814-1.686
	C213.94,222.2,214.005,221.843,213.97,221.584"/>
<path fill="#0D2240" d="M218.093,224.264c0.068-0.167,0.163-0.339,0.281-0.518c0.12-0.178,0.275-0.366,0.467-0.565
	c0.003-0.151,0.005-0.301,0.008-0.447c0.002-0.148-0.001-0.296-0.014-0.445c0.008-0.107,0.027-0.233,0.057-0.38
	c0.029-0.147,0.062-0.306,0.1-0.477c0.045-0.172,0.108-0.388,0.19-0.647c0.081-0.26,0.195-0.553,0.34-0.881
	c0.132-0.192,0.27-0.4,0.413-0.627c0.143-0.226,0.286-0.454,0.428-0.685c0.072-0.077,0.152-0.151,0.241-0.225
	c0.088-0.071,0.176-0.151,0.262-0.238c0.085-0.042,0.181-0.081,0.289-0.118c0.109-0.038,0.23-0.065,0.363-0.083
	c0.184-0.025,0.337-0.027,0.456-0.004c0.12,0.021,0.223,0.071,0.309,0.15c0.06,0.053,0.122,0.135,0.186,0.247
	c0.063,0.112,0.13,0.25,0.197,0.415c0.042,0.145,0.09,0.304,0.143,0.478c-0.006-0.044-0.017-0.024-0.032,0.061
	c-0.015,0.085-0.037,0.22-0.064,0.404l-0.052,0.369c-0.056,0.37-0.235,0.812-0.535,1.327c-0.3,0.515-0.717,1.114-1.251,1.795
	c-0.045,0.059-0.081,0.129-0.107,0.212c-0.027,0.083-0.035,0.168-0.022,0.258c0.021,0.155,0.067,0.288,0.139,0.398
	c0.071,0.112,0.162,0.19,0.274,0.235c0.065,0.037,0.166,0.068,0.301,0.095c0.136,0.027,0.295,0.047,0.478,0.061
	c0.286-0.061,0.542-0.144,0.769-0.25c0.227-0.106,0.425-0.223,0.598-0.351c0.033-0.027,0.087-0.067,0.163-0.118
	c0.077-0.052,0.151-0.116,0.224-0.194c0.125,0.202,0.236,0.383,0.332,0.543c0.097,0.16,0.176,0.3,0.237,0.42
	c-0.365,0.471-0.707,0.834-1.022,1.092c-0.316,0.257-0.619,0.404-0.908,0.443c-0.108,0.09-0.236,0.163-0.383,0.216
	c-0.148,0.054-0.325,0.095-0.532,0.122c-0.274,0.037-0.522,0.029-0.744-0.024c-0.222-0.053-0.413-0.147-0.575-0.284
	c-0.084-0.064-0.173-0.164-0.267-0.298c-0.092-0.134-0.194-0.295-0.302-0.484c-0.088-0.154-0.167-0.266-0.237-0.336
	c-0.07-0.07-0.142-0.1-0.216-0.09c-0.059,0.008-0.122,0.045-0.188,0.111c-0.067,0.065-0.137,0.159-0.211,0.282
	c-0.044-0.107-0.114-0.238-0.21-0.39C218.368,224.683,218.245,224.492,218.093,224.264 M221.163,220.178
	c-0.163,0.022-0.353,0.264-0.569,0.727c-0.217,0.462-0.312,0.794-0.286,0.994c0.006,0.044,0.02,0.074,0.041,0.091
	c0.021,0.016,0.061,0.02,0.121,0.012c0.081-0.011,0.142-0.062,0.183-0.154c0.04-0.092,0.078-0.178,0.112-0.258
	c0.071-0.084,0.141-0.175,0.207-0.271c0.066-0.095,0.131-0.188,0.194-0.279c0.075-0.116,0.127-0.229,0.158-0.339
	c0.03-0.109,0.039-0.216,0.025-0.32c-0.009-0.066-0.029-0.118-0.06-0.156C221.257,220.187,221.215,220.172,221.163,220.178"/>
<path fill="#0D2240" d="M223.679,223.515l0.056-0.087c0.016-0.107,0.066-0.228,0.149-0.359c0.084-0.132,0.211-0.27,0.38-0.413
	c0.223-0.188,0.397-0.34,0.521-0.455c0.124-0.114,0.197-0.196,0.222-0.245c0.055-0.09,0.092-0.159,0.108-0.207
	c0.073-0.069,0.163-0.165,0.267-0.284c0.105-0.12,0.221-0.263,0.349-0.431c0.047-0.044,0.094-0.111,0.143-0.201
	c0.048-0.088,0.095-0.189,0.14-0.301c0.087-0.08,0.186-0.18,0.293-0.299c0.108-0.12,0.233-0.273,0.374-0.458
	c0.158-0.224,0.338-0.473,0.539-0.744c0.202-0.272,0.429-0.558,0.682-0.855c0.09-0.058,0.177-0.104,0.258-0.142
	s0.164-0.062,0.245-0.073c0.333-0.044,0.594,0.002,0.782,0.139c0.188,0.137,0.301,0.354,0.341,0.65
	c0.01,0.074,0.014,0.197,0.01,0.371c-0.003,0.174-0.001,0.392,0.004,0.655c-0.004,0.762-0.017,1.227-0.039,1.396
	c-0.023,0.169-0.11,0.701-0.262,1.595c-0.041,0.148-0.078,0.331-0.113,0.546s-0.077,0.478-0.126,0.786
	c0.019,0.028,0.059,0.052,0.122,0.074c0.052-0.007,0.138-0.07,0.258-0.188s0.278-0.292,0.473-0.521
	c0.228-0.272,0.407-0.48,0.538-0.626c0.13-0.145,0.213-0.232,0.248-0.26c0.116,0.188,0.222,0.361,0.318,0.518
	c0.097,0.156,0.18,0.305,0.252,0.446c-0.089,0.072-0.167,0.15-0.235,0.235c-0.067,0.085-0.129,0.176-0.184,0.273
	c-0.141,0.125-0.305,0.267-0.491,0.427c-0.185,0.161-0.39,0.335-0.614,0.523c-0.096,0.126-0.227,0.281-0.395,0.466
	c-0.167,0.185-0.356,0.392-0.566,0.624l-0.206,0.073c-0.085,0.154-0.168,0.275-0.251,0.361c-0.082,0.086-0.158,0.149-0.229,0.189
	c-0.113,0.061-0.225,0.119-0.338,0.175c-0.113,0.057-0.232,0.116-0.36,0.179c-0.084-0.012-0.149-0.052-0.197-0.121
	c-0.047-0.069-0.075-0.163-0.083-0.283c-0.139-0.185-0.258-0.402-0.359-0.652c-0.101-0.25-0.173-0.535-0.216-0.853
	c-0.008-0.059-0.012-0.123-0.014-0.19c-0.001-0.068-0.002-0.128-0.002-0.181c-0.077-0.185-0.119-0.297-0.124-0.333
	c-0.029-0.222,0.031-0.417,0.182-0.584c0.151-0.167,0.334-0.265,0.549-0.293c0.111-0.015,0.197,0.032,0.261,0.14
	c0.064,0.108,0.121,0.159,0.173,0.151c0.051-0.006,0.092-0.115,0.12-0.327c0.028-0.211,0.042-0.516,0.041-0.916
	c0.007-0.347,0-0.647-0.019-0.901c-0.019-0.254-0.037-0.447-0.055-0.581c-0.014-0.096-0.043-0.166-0.091-0.208
	c-0.047-0.042-0.119-0.058-0.215-0.044c-0.097,0.013-0.377,0.277-0.844,0.792c-0.465,0.515-1.11,1.275-1.932,2.282
	c-0.022,0.056-0.056,0.125-0.102,0.206c-0.045,0.082-0.098,0.183-0.157,0.304c-0.044-0.107-0.115-0.237-0.21-0.391
	C223.954,223.934,223.831,223.743,223.679,223.515"/>
<path fill="#0D2240" d="M230.63,222.583l0.057-0.086l0.018-0.116c0.111-0.18,0.209-0.323,0.293-0.429s0.149-0.188,0.192-0.247
	c0.032-0.042,0.108-0.1,0.226-0.177c0.118-0.076,0.278-0.172,0.48-0.291l0.133-0.108c0.041-0.088,0.118-0.22,0.23-0.393
	c0.113-0.174,0.248-0.373,0.406-0.597c0.031-0.049,0.08-0.105,0.148-0.167c0.067-0.062,0.135-0.139,0.206-0.231
	c0.154-0.194,0.309-0.393,0.461-0.599c0.154-0.205,0.297-0.407,0.428-0.605c0.058-0.076,0.178-0.215,0.362-0.417
	s0.433-0.482,0.747-0.841c0.047-0.043,0.132-0.11,0.256-0.198c0.124-0.088,0.286-0.194,0.488-0.319
	c0.09-0.058,0.152-0.14,0.188-0.247c0.035-0.105,0.041-0.237,0.021-0.393c0.046-0.104,0.087-0.228,0.125-0.373
	c0.037-0.145,0.069-0.312,0.096-0.505c0.044-0.239,0.076-0.434,0.097-0.583c0.021-0.15,0.04-0.252,0.055-0.307
	c0.082-0.351,0.2-0.763,0.354-1.24c0.155-0.476,0.342-1.023,0.561-1.64c0.107-0.324,0.236-0.684,0.386-1.081
	c0.102-0.202,0.223-0.36,0.367-0.473c0.143-0.113,0.299-0.182,0.47-0.205c0.133-0.018,0.238,0.021,0.315,0.116
	c0.077,0.096,0.128,0.243,0.155,0.443c0.043,0.318,0.062,0.625,0.056,0.92c-0.006,0.294-0.051,0.576-0.135,0.843
	c-0.016,0.055-0.024,0.135-0.025,0.241c0,0.105,0.002,0.233,0.006,0.383c0.007,0.104-0.007,0.208-0.042,0.311
	c-0.035,0.103-0.085,0.2-0.148,0.292c0.007,0.052,0.008,0.114,0.002,0.186c-0.005,0.073-0.008,0.157-0.01,0.256l-0.129,0.221
	c-0.009,0.045-0.009,0.101-0.001,0.164c0.008,0.063,0.017,0.127,0.026,0.194c0.006,0.044-0.008,0.135-0.042,0.271
	c-0.035,0.137-0.087,0.331-0.16,0.582c-0.084,0.267-0.152,0.48-0.202,0.637c-0.051,0.158-0.078,0.255-0.08,0.293
	c-0.025,0.042-0.056,0.105-0.093,0.193c-0.038,0.088-0.082,0.188-0.135,0.3l0.066,0.24l-0.369,2.65
	c0.038,0.281,0.074,0.521,0.108,0.72c0.035,0.199,0.078,0.354,0.131,0.469c0.054,0.121,0.136,0.266,0.245,0.436
	s0.245,0.35,0.406,0.539c0.1,0.13,0.211,0.218,0.33,0.266c0.119,0.049,0.242,0.064,0.368,0.047c0.14-0.019,0.278-0.077,0.412-0.174
	c0.134-0.098,0.264-0.237,0.39-0.42c0.115,0.181,0.223,0.351,0.324,0.511c0.1,0.16,0.186,0.311,0.258,0.452
	c-0.034,0.027-0.104,0.114-0.208,0.26c-0.105,0.146-0.241,0.351-0.409,0.614c-0.101,0.157-0.232,0.278-0.398,0.365
	c-0.166,0.085-0.375,0.146-0.625,0.179c-0.556,0.075-1.027-0.009-1.412-0.251c-0.388-0.242-0.69-0.642-0.908-1.201
	c-0.045-0.114-0.085-0.215-0.119-0.3c-0.035-0.086-0.067-0.165-0.1-0.236c-0.071-0.133-0.18-0.273-0.328-0.419
	c-0.042,0.081-0.075,0.142-0.099,0.183c-0.081,0.071-0.168,0.169-0.261,0.294c-0.092,0.126-0.182,0.281-0.271,0.466
	c-0.013,0.077-0.041,0.173-0.086,0.288c-0.045,0.116-0.109,0.254-0.193,0.416c-0.2,0.306-0.403,0.614-0.611,0.924
	c-0.207,0.311-0.415,0.615-0.624,0.915c-0.284,0.415-0.553,0.728-0.812,0.94c-0.258,0.211-0.491,0.331-0.698,0.358
	c-0.37,0.049-0.656,0-0.857-0.151c-0.201-0.149-0.326-0.409-0.376-0.78c-0.022-0.17,0.008-0.417,0.093-0.741
	c0.085-0.324,0.117-0.56,0.098-0.708l-0.091-0.169L230.63,222.583z M235.791,218.658c-0.006-0.037-0.028-0.09-0.067-0.161
	c-0.096,0.126-0.215,0.275-0.358,0.444c-0.144,0.17-0.314,0.359-0.512,0.566c-0.036,0.126-0.129,0.329-0.28,0.609
	c-0.151,0.28-0.367,0.631-0.65,1.054c-0.082,0.124-0.185,0.332-0.312,0.624c-0.127,0.292-0.283,0.65-0.466,1.074
	c-0.061,0.167-0.121,0.367-0.18,0.601c0.006,0.045,0.042,0.089,0.109,0.133c0.213-0.096,0.459-0.327,0.738-0.692
	c0.279-0.365,0.602-0.863,0.969-1.493c0.378-0.668,0.649-1.23,0.814-1.686S235.825,218.917,235.791,218.658"/>
<path fill="#0D2240" d="M239.915,221.338c0.068-0.167,0.161-0.339,0.281-0.518s0.275-0.366,0.467-0.565
	c0.002-0.151,0.005-0.301,0.008-0.448c0.003-0.147-0.001-0.296-0.015-0.445c0.008-0.106,0.027-0.233,0.056-0.38
	c0.03-0.147,0.063-0.306,0.1-0.477c0.045-0.172,0.108-0.387,0.19-0.647c0.082-0.26,0.195-0.554,0.34-0.882
	c0.132-0.191,0.27-0.4,0.413-0.626c0.144-0.227,0.286-0.455,0.429-0.685c0.072-0.078,0.152-0.152,0.24-0.225
	c0.089-0.071,0.177-0.151,0.263-0.238c0.084-0.042,0.182-0.081,0.29-0.118c0.108-0.037,0.229-0.064,0.362-0.082
	c0.185-0.025,0.337-0.027,0.457-0.005c0.12,0.021,0.223,0.072,0.308,0.151c0.06,0.052,0.123,0.134,0.186,0.247
	c0.064,0.112,0.13,0.25,0.197,0.414c0.042,0.145,0.09,0.305,0.144,0.479c-0.006-0.045-0.017-0.024-0.032,0.061
	c-0.016,0.085-0.037,0.22-0.065,0.404l-0.051,0.369c-0.057,0.369-0.234,0.811-0.535,1.327c-0.3,0.515-0.718,1.113-1.251,1.795
	c-0.045,0.059-0.081,0.13-0.107,0.213c-0.026,0.083-0.034,0.168-0.022,0.257c0.021,0.155,0.067,0.289,0.138,0.399
	c0.071,0.112,0.164,0.19,0.274,0.235c0.065,0.037,0.165,0.068,0.301,0.095c0.136,0.027,0.294,0.047,0.478,0.061
	c0.285-0.061,0.542-0.144,0.768-0.25c0.228-0.106,0.427-0.223,0.598-0.352c0.034-0.027,0.089-0.066,0.165-0.118
	c0.076-0.052,0.15-0.117,0.223-0.194c0.125,0.202,0.236,0.383,0.333,0.543c0.097,0.161,0.176,0.3,0.237,0.42
	c-0.366,0.471-0.707,0.835-1.024,1.092c-0.315,0.257-0.618,0.405-0.906,0.444c-0.109,0.089-0.237,0.162-0.384,0.215
	c-0.146,0.054-0.324,0.094-0.532,0.123c-0.273,0.036-0.521,0.028-0.743-0.025c-0.223-0.054-0.415-0.148-0.575-0.285
	c-0.084-0.064-0.173-0.164-0.267-0.298c-0.093-0.133-0.194-0.295-0.302-0.484c-0.088-0.154-0.167-0.266-0.237-0.335
	c-0.069-0.07-0.142-0.1-0.215-0.09c-0.059,0.008-0.123,0.044-0.188,0.11c-0.067,0.065-0.137,0.16-0.21,0.283
	c-0.045-0.107-0.115-0.237-0.211-0.39C240.189,221.757,240.065,221.567,239.915,221.338 M242.983,217.252
	c-0.162,0.021-0.352,0.264-0.569,0.727c-0.216,0.462-0.312,0.793-0.285,0.993c0.006,0.045,0.02,0.075,0.041,0.091
	c0.021,0.016,0.061,0.02,0.121,0.012c0.08-0.011,0.142-0.062,0.183-0.154c0.041-0.092,0.078-0.178,0.112-0.259
	c0.072-0.084,0.141-0.174,0.207-0.271c0.066-0.096,0.131-0.189,0.195-0.28c0.074-0.116,0.127-0.229,0.157-0.338
	c0.031-0.11,0.04-0.216,0.025-0.32c-0.009-0.066-0.028-0.119-0.061-0.156C243.077,217.261,243.036,217.246,242.983,217.252"/>
</svg>
