<?xml version="1.0" encoding="utf-8"?>
<!-- Generator: Adobe Illustrator 16.0.4, SVG Export Plug-In . SVG Version: 6.00 Build 0)  -->
<!DOCTYPE svg PUBLIC "-//W3C//DTD SVG 1.1//EN" "http://www.w3.org/Graphics/SVG/1.1/DTD/svg11.dtd">
<svg version="1.1" id="Isolation_Mode" xmlns="http://www.w3.org/2000/svg" xmlns:xlink="http://www.w3.org/1999/xlink" x="0px"
	 y="0px" width="165px" height="178.929px" viewBox="0 0 165 178.929" enable-background="new 0 0 165 178.929"
	 xml:space="preserve">
<path fill="#F7A800" d="M73.786,106.901c1.802-2.552,7.441-5.576,9.6-7.736c4.082-4.053,7.339-7.375,10.759-11.585
	c4.337-5.294,7.614-11.507,11.381-16.918c3.695-5.302,6.87-10.093,10.037-16.557c2.238-4.563,4.468-9.975,4.926-15.08
	c0.917-10.65-9.11-15.363-18.088-16.423c-4.245-0.511-8.327,0.432-12.053,2.592c-3.349,1.963-9.415,7.917-11.828,9.794
	c-0.407-0.691-6.219-3.645-7.491-4.226c-2.973-1.296-6.159-2.435-9.396-2.969c-7.94-1.296-14.994,0.212-20.562,6.535
	c-4.621,5.254-4.438,14.9-2.413,21.364c2.26,7.155,4.143,14.122,8.438,20.335c4.815,6.943,10.515,14.044,16.419,20.139
	C67.231,100.005,70.855,102.134,73.786,106.901"/>
<path fill="#0D2240" d="M23.369,84.298c-0.85,0-1.322-0.661-1.322-1.605c0-1.133,0.378-1.699,1.699-3.587l30.305-42.295
	c0.661-0.85,1.228-1.322,2.171-1.322h1.605c0.944,0,1.416,0.284,1.416,0.756c0,0.283-0.189,0.661-0.472,1.038L28.75,78.823
	c-1.133,1.511,0.188,1.511,2.644,1.511h14.633c2.266,0,2.644-0.283,2.644-2.455V60.507c0-0.661,0.094-1.416,0.85-1.888
	c1.133-0.755,3.305-1.511,4.815-1.605c1.322-0.095,1.322,1.038,1.322,2.926v18.221c0,1.793,0.283,2.171,1.888,2.171h6.042
	c0.85,0.661,0.85,3.115,0,3.965h-5.098c-2.36,0-2.832,0.095-2.832,2.077v4.248c0,7.458,0.189,8.686,4.059,9.158l2.455,0.283
	c0.566,0.566,0.472,2.076-0.189,2.359c-3.399-0.188-6.892-0.283-9.818-0.283c-3.399,0-7.647,0.095-11.801,0.283
	c-0.661-0.283-0.755-1.793-0.189-2.359l4.248-0.283c3.965-0.283,4.249-1.889,4.249-9.158v-3.965c0-2.265-0.283-2.36-2.738-2.36
	H23.369z"/>
<path fill="#0D2240" d="M68.375,69.628c0-19.182,14.387-33.856,34.144-33.856c22.155,0,33.281,16.017,33.281,32.897
	c0,19.374-14.771,33.473-33.281,33.473C81.228,102.142,68.375,86.892,68.375,69.628 M126.209,71.643
	c0-15.825-7.002-32.897-25.32-32.897c-9.975,0-22.922,6.81-22.922,27.813c0,14.195,6.905,32.609,25.799,32.609
	C115.275,99.168,126.209,90.537,126.209,71.643"/>
<path fill="#0D2240" d="M26.688,120.999c0,0.907,0.037,1.562,0.309,1.87c0.218,0.254,0.508,0.399,1.96,0.399
	c2.014,0,2.307-0.091,3.141-1.96c0.182-0.092,0.472-0.037,0.563,0.108c-0.146,0.763-0.545,2.143-0.762,2.633
	c-0.762-0.036-2.324-0.057-4.357-0.057h-1.888c-0.927,0-1.834,0.021-2.597,0.057c-0.145-0.074-0.199-0.437-0.037-0.526l0.546-0.092
	c0.853-0.109,1.016-0.163,1.016-2.052v-6.753c0-1.889-0.163-1.943-1.016-2.07l-0.509-0.072c-0.126-0.091-0.126-0.452,0.038-0.526
	c0.906,0.036,1.722,0.055,2.558,0.055c0.8,0,1.616-0.019,2.416-0.055c0.163,0.074,0.181,0.436,0.037,0.526l-0.401,0.072
	c-0.854,0.127-1.016,0.182-1.016,2.07V120.999z"/>
<path fill="#0D2240" d="M36.183,113.154c0,1.382-1.234,2.398-2.487,2.707c-0.144-0.108-0.181-0.326-0.127-0.472
	c0.781-0.327,1.472-0.854,1.472-1.652c0-0.6-0.547-0.889-0.981-0.943c-0.272-0.036-0.564-0.255-0.564-0.655
	c0-0.308,0.219-0.853,1.035-0.853C35.421,111.286,36.183,112.157,36.183,113.154"/>
<path fill="#0D2240" d="M38.135,116.665c0-4.539,3.404-8.011,8.078-8.011c5.243,0,7.875,3.79,7.875,7.783
	c0,4.586-3.495,7.921-7.875,7.921C41.176,124.358,38.135,120.749,38.135,116.665 M51.819,117.141c0-3.745-1.656-7.784-5.991-7.784
	c-2.361,0-5.423,1.611-5.423,6.581c0,3.359,1.634,7.715,6.104,7.715C49.232,123.653,51.819,121.611,51.819,117.141"/>
<path fill="#0D2240" d="M67.097,115.062c-0.126,0.146-0.454,0.164-0.581,0.037c-0.31-1.145-1.125-2.651-3.523-2.651
	c-2.306,0-4.629,1.634-4.629,5.354c0,3.868,2.415,5.757,4.757,5.757c2.287,0,3.286-1.526,3.794-2.706
	c0.164-0.163,0.454-0.091,0.545,0.072c-0.127,1.217-0.617,2.416-0.871,2.76c-0.218,0.037-0.437,0.11-0.637,0.163
	c-0.399,0.128-1.651,0.437-2.831,0.437c-1.798,0-3.34-0.362-4.648-1.216c-1.47-0.964-2.578-2.615-2.578-4.994
	c0-2.124,0.944-3.775,2.287-4.81c1.344-1.018,3.177-1.544,5.011-1.544c1.035,0,2.288,0.182,3.141,0.399
	c0.218,0.055,0.346,0.074,0.51,0.108C66.879,112.647,66.916,113.718,67.097,115.062"/>
<path fill="#0D2240" d="M79.696,115.062c-0.128,0.146-0.454,0.164-0.581,0.037c-0.308-1.145-1.125-2.651-3.521-2.651
	c-2.306,0-4.63,1.634-4.63,5.354c0,3.868,2.415,5.757,4.756,5.757c2.289,0,3.286-1.526,3.795-2.706
	c0.164-0.163,0.454-0.091,0.545,0.072c-0.127,1.217-0.616,2.416-0.871,2.76c-0.218,0.037-0.436,0.11-0.636,0.163
	c-0.398,0.128-1.652,0.437-2.833,0.437c-1.797,0-3.34-0.362-4.647-1.216c-1.47-0.964-2.577-2.615-2.577-4.994
	c0-2.124,0.943-3.775,2.287-4.81c1.343-1.018,3.178-1.544,5.011-1.544c1.034,0,2.289,0.182,3.141,0.399
	c0.219,0.055,0.346,0.074,0.51,0.108C79.479,112.647,79.515,113.718,79.696,115.062"/>
<path fill="#0D2240" d="M84.599,121.379c0,1.926,0.163,1.979,1.017,2.088l0.398,0.056c0.128,0.127,0.11,0.452-0.036,0.526
	c-0.8-0.036-1.615-0.057-2.414-0.057c-0.8,0-1.651,0.021-2.451,0.057c-0.146-0.074-0.163-0.399-0.037-0.526l0.4-0.056
	c0.854-0.108,1.018-0.162,1.018-2.088v-6.753c0-1.925-0.163-1.979-1.018-2.088l-0.4-0.055c-0.126-0.128-0.108-0.452,0.037-0.526
	c0.8,0.036,1.615,0.055,2.451,0.055c0.799,0,1.614-0.019,2.414-0.055c0.146,0.074,0.164,0.398,0.036,0.526l-0.398,0.055
	c-0.854,0.108-1.017,0.163-1.017,2.088V121.379z"/>
<path fill="#0D2240" d="M91.949,113.537c0-0.762-0.018-0.799-0.49-0.799h-1.016c-1.671,0-2.16,0.2-2.832,1.67
	c-0.127,0.11-0.509,0.055-0.58-0.126c0.307-0.981,0.58-2.106,0.706-2.741c0.037-0.055,0.109-0.074,0.201-0.074
	c0.071,0,0.146,0.02,0.181,0.074c0.091,0.453,0.346,0.472,1.58,0.472h7.407c0.89,0,1.162-0.055,1.38-0.472
	c0.071-0.037,0.145-0.074,0.217-0.074c0.11,0,0.2,0.037,0.236,0.091c-0.182,0.744-0.327,2.306-0.272,2.888
	c-0.091,0.146-0.398,0.182-0.562,0.054c-0.235-1.416-0.581-1.761-2.522-1.761h-1.036c-0.472,0-0.488,0.037-0.488,0.799v7.843
	c0,1.925,0.162,1.979,1.016,2.07l0.653,0.073c0.127,0.127,0.108,0.452-0.037,0.526c-1.052-0.036-1.869-0.057-2.668-0.057
	c-0.8,0-1.652,0.021-2.814,0.057c-0.145-0.074-0.163-0.437-0.036-0.526l0.763-0.092c0.854-0.072,1.016-0.127,1.016-2.052V113.537z"
	/>
<path fill="#0D2240" d="M102.916,119.545c-0.474,0-0.454,0-0.617,0.49l-0.744,2.18c-0.364,1.071-0.291,1.125,0.38,1.216l0.527,0.092
	c0.128,0.127,0.11,0.452-0.036,0.526c-0.581-0.036-1.18-0.036-1.924-0.057c-0.6,0-1.162,0.021-1.799,0.057
	c-0.127-0.092-0.146-0.364-0.017-0.526l0.544-0.092c0.527-0.072,0.725-0.235,0.997-0.836c0.219-0.472,0.509-1.235,0.891-2.214
	l2.487-6.464c0.236-0.58,0.398-1.016,0.345-1.324c0.636-0.127,1.235-0.872,1.271-0.872c0.145,0,0.235,0.055,0.309,0.146
	c0.29,0.815,0.526,1.669,0.817,2.486l2.613,7.606c0.418,1.217,0.509,1.344,1.435,1.507l0.271,0.056
	c0.146,0.127,0.146,0.435,0.019,0.526c-0.744-0.036-1.416-0.057-2.36-0.057c-0.78,0-1.578,0.038-2.214,0.057
	c-0.146-0.092-0.162-0.418-0.055-0.526l0.4-0.056c0.651-0.072,0.707-0.181,0.472-0.962l-0.854-2.47
	c-0.18-0.49-0.236-0.49-0.744-0.49H102.916z M105.094,118.73c0.51,0,0.582-0.037,0.437-0.473l-0.763-2.179
	c-0.309-0.962-0.417-1.308-0.508-1.435h-0.036c-0.074,0.127-0.22,0.582-0.545,1.435l-0.763,2.124
	c-0.199,0.527-0.146,0.527,0.29,0.527H105.094z"/>
<path fill="#0D2240" d="M122.669,120.909c0,0.544,0,2.776,0.055,3.194c-0.146,0.2-0.399,0.271-0.617,0.255
	c-0.29-0.383-0.816-0.999-2.124-2.488l-4.248-4.847c-1.181-1.326-1.761-2.015-2.07-2.287c-0.055,0-0.055,0.199-0.055,1.161v3.541
	c0,1.359,0.02,3.031,0.327,3.576c0.163,0.272,0.472,0.381,0.925,0.453l0.399,0.056c0.163,0.127,0.146,0.47-0.036,0.526
	c-0.671-0.036-1.38-0.057-2.07-0.057c-0.762,0-1.251,0.021-1.888,0.057c-0.145-0.092-0.182-0.399-0.034-0.526l0.398-0.092
	c0.346-0.054,0.672-0.126,0.798-0.417c0.236-0.563,0.236-2.144,0.236-3.576v-4.303c0-1.417,0.019-1.707-0.6-2.233
	c-0.199-0.164-0.708-0.309-0.962-0.363l-0.272-0.055c-0.127-0.109-0.108-0.472,0.073-0.526c0.688,0.074,1.688,0.055,2.141,0.055
	c0.383,0,0.817-0.019,1.254-0.055c0.308,0.78,2.288,3.067,2.923,3.758l1.814,1.962c0.764,0.834,2.454,2.759,2.635,2.868
	c0.056-0.055,0.056-0.146,0.056-0.437v-3.54c0-1.361-0.02-3.032-0.346-3.576c-0.163-0.272-0.455-0.382-0.909-0.454l-0.418-0.055
	c-0.163-0.127-0.144-0.472,0.037-0.526c0.708,0.036,1.38,0.055,2.087,0.055c0.781,0,1.254-0.019,1.906-0.055
	c0.147,0.09,0.183,0.399,0.037,0.526l-0.417,0.091c-0.345,0.056-0.653,0.127-0.781,0.418c-0.254,0.562-0.254,2.143-0.254,3.576
	V120.909z"/>
<path fill="#0D2240" d="M126.845,114.626c0-1.925-0.163-1.979-1.018-2.107l-0.289-0.035c-0.127-0.128-0.11-0.452,0.037-0.526
	c0.689,0.036,1.542,0.055,2.34,0.055h3.469c1.162,0,2.215-0.019,2.451-0.055c0.073,0.309,0.181,1.742,0.29,2.524
	c-0.072,0.145-0.436,0.181-0.58,0.071c-0.292-1.053-0.563-1.507-1.145-1.651c-0.417-0.127-0.963-0.164-1.452-0.164h-1.218
	c-0.779,0-0.779,0.037-0.779,1.071v3.068c0,0.472,0.018,0.489,0.437,0.489h0.87c1.58,0,1.888-0.018,2.016-0.798l0.127-0.618
	c0.146-0.127,0.489-0.127,0.581,0.019c-0.018,0.491-0.056,1.145-0.056,1.815c0,0.689,0.038,1.326,0.056,1.907
	c-0.092,0.127-0.436,0.127-0.581,0.018l-0.127-0.726c-0.128-0.763-0.436-0.798-2.016-0.798h-0.87c-0.419,0-0.437,0.035-0.437,0.489
	v2.306c0,0.925,0.035,1.579,0.309,1.888c0.217,0.254,0.526,0.399,2.051,0.399c2.307,0.037,2.705-0.49,3.341-1.961
	c0.164-0.128,0.472-0.072,0.581,0.109c-0.109,0.763-0.508,2.143-0.762,2.633c-0.8-0.037-2.36-0.057-4.485-0.057h-2.07
	c-0.798,0-1.905,0.02-2.723,0.057c-0.146-0.073-0.163-0.399-0.035-0.526l0.67-0.073c0.854-0.091,1.018-0.145,1.018-2.07V114.626z"/>
<path fill="#0D2240" d="M46.594,130.997c0,0.236,0.009,0.253,0.235,0.253h0.582c0.439,0,0.531-0.059,0.624-0.464l0.042-0.21
	c0.06-0.068,0.27-0.068,0.312,0.008c-0.016,0.27-0.024,0.575-0.024,0.895c0,0.318,0.008,0.622,0.024,0.892
	c-0.042,0.077-0.252,0.085-0.312,0.01l-0.042-0.211c-0.093-0.404-0.185-0.473-0.624-0.473H46.83c-0.226,0-0.235,0.009-0.235,0.262
	v1.004c0,0.387,0.034,0.657,0.136,0.799c0.108,0.152,0.269,0.222,0.884,0.222c0.733,0,1.021-0.027,1.484-0.979
	c0.067-0.092,0.279-0.059,0.312,0.041c-0.033,0.438-0.236,1.121-0.354,1.35c-0.447-0.017-1.254-0.025-1.946-0.025h-1.096
	c-0.405,0-0.817,0.009-1.45,0.025c-0.068-0.052-0.068-0.253,0-0.294l0.395-0.061c0.38-0.05,0.431-0.11,0.431-0.886v-3.143
	c0-0.769-0.051-0.827-0.431-0.896l-0.209-0.041c-0.076-0.051-0.067-0.245,0.017-0.295c0.396,0.017,0.809,0.025,1.214,0.025h1.786
	c0.539,0,1.02-0.009,1.13-0.025c0.009,0.136,0.066,0.741,0.109,1.307c-0.033,0.093-0.227,0.108-0.311,0.033
	c-0.093-0.295-0.211-0.547-0.321-0.665c-0.16-0.16-0.413-0.263-0.826-0.263h-0.674c-0.279,0-0.279,0.018-0.279,0.329V130.997z"/>
<path fill="#0D2240" d="M56.018,132.935c0,0.548,0,1.08,0.018,1.359c-0.06,0.1-0.296,0.192-0.499,0.192
	c-0.008,0-0.287-0.432-0.682-0.919l-1.948-2.412c-0.48-0.605-0.767-0.951-0.919-1.078c-0.042,0.085-0.042,0.229-0.042,0.54v1.636
	c0,0.682,0.033,1.314,0.125,1.542c0.077,0.177,0.271,0.226,0.489,0.271l0.238,0.034c0.066,0.065,0.05,0.242,0,0.294
	c-0.456-0.016-0.793-0.025-1.129-0.025c-0.312,0-0.625,0.01-0.945,0.025c-0.05-0.052-0.068-0.229,0-0.294l0.145-0.026
	c0.227-0.053,0.387-0.102,0.462-0.278c0.084-0.228,0.118-0.86,0.118-1.542v-2.142c0-0.465,0-0.6-0.059-0.718
	c-0.059-0.143-0.185-0.227-0.481-0.286l-0.235-0.033c-0.06-0.068-0.051-0.27,0.032-0.295c0.397,0.017,0.818,0.025,1.164,0.025
	c0.287,0,0.532-0.009,0.708-0.025c0.084,0.379,0.632,1.02,1.391,1.922l0.708,0.834c0.378,0.438,0.614,0.734,0.809,0.928
	c0.034-0.084,0.034-0.227,0.034-0.38v-1.164c0-0.682-0.034-1.313-0.126-1.541c-0.076-0.178-0.262-0.229-0.489-0.271l-0.228-0.033
	c-0.067-0.068-0.049-0.244,0-0.295c0.454,0.017,0.783,0.025,1.128,0.025c0.313,0,0.616-0.009,0.945-0.025
	c0.05,0.051,0.067,0.227,0,0.295L56.6,129.1c-0.219,0.05-0.38,0.101-0.455,0.278c-0.093,0.228-0.127,0.859-0.127,1.541V132.935z"/>
<path fill="#0D2240" d="M62.172,130.169c0-0.85-0.018-0.942-0.373-0.994l-0.261-0.033c-0.075-0.042-0.075-0.227,0.017-0.287
	c0.557-0.043,1.214-0.075,1.947-0.075c0.716,0,1.188,0.085,1.542,0.219c0.515,0.194,1.029,0.641,1.029,1.459
	c0,1.382-1.39,1.584-1.838,1.584c-0.099,0-0.176,0-0.269-0.009c-0.067-0.041-0.085-0.176-0.027-0.227
	c0.701-0.22,0.844-0.718,0.844-1.34c0-0.624-0.32-1.299-1.08-1.299c-0.311,0-0.328,0.093-0.328,0.431v3.556
	c0,0.786,0.051,0.845,0.429,0.912l0.271,0.041c0.092,0.043,0.092,0.236,0,0.287c-0.472-0.016-0.884-0.025-1.291-0.025
	c-0.404,0-0.81,0.01-1.263,0.025c-0.093-0.051-0.11-0.244-0.018-0.287l0.236-0.041c0.38-0.067,0.431-0.126,0.431-0.912V130.169z"/>
<path fill="#0D2240" d="M68.333,130.169c0-0.841-0.017-0.935-0.37-0.985l-0.228-0.034c-0.085-0.042-0.085-0.253,0.017-0.295
	c0.633-0.043,1.289-0.075,2.091-0.075c0.716,0,1.331,0.11,1.65,0.304c0.49,0.287,0.743,0.708,0.743,1.247
	c0,0.75-0.506,1.07-0.895,1.264c-0.083,0.044-0.083,0.094-0.042,0.187c0.557,1.132,0.902,1.762,1.307,2.107
	c0.219,0.178,0.439,0.227,0.566,0.236c0.075,0.041,0.075,0.17,0.032,0.218c-0.135,0.062-0.405,0.077-0.665,0.077
	c-0.776,0-1.266-0.278-1.636-0.887c-0.271-0.445-0.464-0.859-0.658-1.306c-0.101-0.228-0.235-0.294-0.446-0.294
	c-0.295,0-0.312,0.016-0.312,0.185v1.036c0,0.775,0.05,0.836,0.43,0.902l0.228,0.044c0.059,0.041,0.059,0.242,0,0.294
	c-0.446-0.017-0.834-0.025-1.24-0.025c-0.421,0-0.793,0.009-1.23,0.025c-0.067-0.052-0.067-0.253,0-0.294l0.229-0.044
	c0.38-0.066,0.43-0.127,0.43-0.902V130.169z M69.488,131.241c0,0.295,0.025,0.321,0.522,0.321c0.304,0,0.479-0.077,0.641-0.236
	c0.144-0.146,0.305-0.413,0.305-0.911c0-0.759-0.448-1.247-1.106-1.247c-0.345,0-0.345,0.025-0.361,0.431V131.241z"/>
<path fill="#0D2240" d="M80.37,131.562c0,1.837-1.231,2.941-3.042,2.941c-1.694,0-2.925-1.113-2.925-2.874
	c0-1.669,1.246-2.96,3.009-2.96C79.165,128.669,80.37,129.85,80.37,131.562 M77.344,129.057c-1.036,0-1.593,0.97-1.593,2.377
	c0,1.029,0.363,2.681,1.735,2.681c1.104,0,1.536-1.077,1.536-2.443C79.022,130.23,78.389,129.057,77.344,129.057"/>
<path fill="#0D2240" d="M85.631,132.278c-0.43,1.02-0.658,1.686-0.852,2.158c-0.067,0.043-0.169,0.067-0.296,0.067
	c-0.102,0-0.175-0.024-0.227-0.067c-0.094-0.228-0.236-0.676-0.354-0.962l-1.367-3.43c-0.346-0.852-0.328-0.817-0.732-0.919
	l-0.236-0.059c-0.068-0.094-0.043-0.245,0.034-0.287c0.43,0.008,0.708,0.025,1.147,0.025c0.386,0,0.749-0.009,1.264-0.025
	c0.067,0.051,0.058,0.21,0.008,0.287l-0.252,0.049c-0.152,0.034-0.211,0.085-0.211,0.161c0,0.067,0.134,0.422,0.337,0.928
	l0.742,1.896c0.117,0.313,0.201,0.508,0.261,0.65c0.066-0.143,0.169-0.371,0.271-0.625l0.312-0.792
	c0.218-0.53,0.562-1.476,0.666-1.761c0.058-0.161,0.083-0.253,0.083-0.304c0-0.059-0.025-0.102-0.228-0.144l-0.244-0.059
	c-0.067-0.068-0.067-0.245,0.034-0.287c0.396,0.017,0.716,0.025,1.037,0.025c0.286,0,0.539-0.009,0.783-0.025
	c0.067,0.032,0.075,0.235,0.016,0.287l-0.218,0.041c-0.236,0.051-0.354,0.119-0.464,0.295c-0.185,0.278-0.404,0.734-0.699,1.418
	L85.631,132.278z"/>
<path fill="#0D2240" d="M90.477,130.997c0,0.236,0.009,0.253,0.235,0.253h0.582c0.438,0,0.531-0.059,0.623-0.464l0.043-0.21
	c0.059-0.068,0.27-0.068,0.312,0.008c-0.017,0.27-0.026,0.575-0.026,0.895c0,0.318,0.01,0.622,0.026,0.892
	c-0.043,0.077-0.254,0.085-0.312,0.01l-0.043-0.211c-0.092-0.404-0.185-0.473-0.623-0.473h-0.582c-0.227,0-0.235,0.009-0.235,0.262
	v1.004c0,0.387,0.034,0.657,0.136,0.799c0.109,0.152,0.269,0.222,0.885,0.222c0.732,0,1.019-0.027,1.483-0.979
	c0.067-0.092,0.277-0.059,0.311,0.041c-0.033,0.438-0.235,1.121-0.352,1.35c-0.448-0.017-1.257-0.025-1.947-0.025h-1.097
	c-0.405,0-0.818,0.009-1.45,0.025c-0.066-0.052-0.066-0.253,0-0.294l0.396-0.061c0.379-0.05,0.43-0.11,0.43-0.886v-3.143
	c0-0.769-0.051-0.827-0.43-0.896l-0.211-0.041c-0.076-0.051-0.067-0.245,0.017-0.295c0.396,0.017,0.809,0.025,1.215,0.025h1.785
	c0.54,0,1.021-0.009,1.131-0.025c0.008,0.136,0.066,0.741,0.109,1.307c-0.034,0.093-0.227,0.108-0.312,0.033
	c-0.092-0.295-0.21-0.547-0.319-0.665c-0.162-0.16-0.413-0.263-0.827-0.263h-0.674c-0.278,0-0.278,0.018-0.278,0.329V130.997z"/>
<path fill="#0D2240" d="M99.9,132.935c0,0.548,0,1.08,0.017,1.359c-0.059,0.1-0.294,0.192-0.497,0.192
	c-0.01,0-0.286-0.432-0.683-0.919l-1.947-2.412c-0.479-0.605-0.767-0.951-0.919-1.078c-0.042,0.085-0.042,0.229-0.042,0.54v1.636
	c0,0.682,0.033,1.314,0.126,1.542c0.076,0.177,0.271,0.226,0.489,0.271l0.235,0.034c0.067,0.065,0.051,0.242,0,0.294
	c-0.454-0.016-0.791-0.025-1.129-0.025c-0.312,0-0.623,0.01-0.943,0.025c-0.052-0.052-0.068-0.229,0-0.294l0.143-0.026
	c0.228-0.053,0.388-0.102,0.463-0.278c0.085-0.228,0.119-0.86,0.119-1.542v-2.142c0-0.465,0-0.6-0.06-0.718
	c-0.06-0.143-0.186-0.227-0.48-0.286l-0.236-0.033c-0.059-0.068-0.049-0.27,0.033-0.295c0.396,0.017,0.818,0.025,1.163,0.025
	c0.289,0,0.533-0.009,0.709-0.025c0.085,0.379,0.633,1.02,1.391,1.922l0.708,0.834c0.379,0.438,0.617,0.734,0.81,0.928
	c0.035-0.084,0.035-0.227,0.035-0.38v-1.164c0-0.682-0.035-1.313-0.127-1.541c-0.076-0.178-0.263-0.229-0.489-0.271l-0.229-0.033
	c-0.067-0.068-0.05-0.244,0-0.295c0.455,0.017,0.784,0.025,1.13,0.025c0.312,0,0.615-0.009,0.944-0.025
	c0.05,0.051,0.067,0.227,0,0.295l-0.151,0.025c-0.221,0.05-0.38,0.101-0.455,0.278c-0.094,0.228-0.127,0.859-0.127,1.541V132.935z"
	/>
<path fill="#0D2240" d="M107.234,128.89c0,0.151,0.024,0.825,0.1,1.314c-0.032,0.102-0.261,0.135-0.319,0.059
	c-0.228-0.785-0.768-1.206-1.585-1.206c-0.937,0-1.938,0.801-1.938,2.479s0.969,2.579,1.981,2.579c1.02,0,1.491-0.732,1.719-1.306
	c0.067-0.067,0.27-0.043,0.32,0.06c-0.059,0.624-0.202,1.13-0.32,1.323c-0.456,0.126-1.053,0.312-1.711,0.312
	c-0.825,0-1.669-0.193-2.268-0.641c-0.607-0.464-1.071-1.164-1.071-2.207c0-1.029,0.438-1.755,1.021-2.235
	c0.599-0.498,1.459-0.751,2.334-0.751C106.357,128.669,106.98,128.873,107.234,128.89"/>
<path fill="#0D2240" d="M110.876,130.997c0,0.236,0.007,0.253,0.234,0.253h0.583c0.438,0,0.53-0.059,0.623-0.464l0.042-0.21
	c0.06-0.068,0.271-0.068,0.312,0.008c-0.018,0.27-0.026,0.575-0.026,0.895c0,0.318,0.009,0.622,0.026,0.892
	c-0.042,0.077-0.253,0.085-0.312,0.01l-0.042-0.211c-0.093-0.404-0.186-0.473-0.623-0.473h-0.583c-0.228,0-0.234,0.009-0.234,0.262
	v1.004c0,0.387,0.034,0.657,0.134,0.799c0.109,0.152,0.27,0.222,0.886,0.222c0.733,0,1.021-0.027,1.482-0.979
	c0.068-0.092,0.279-0.059,0.312,0.041c-0.033,0.438-0.236,1.121-0.354,1.35c-0.445-0.017-1.256-0.025-1.946-0.025h-1.096
	c-0.405,0-0.818,0.009-1.45,0.025c-0.067-0.052-0.067-0.253,0-0.294l0.396-0.061c0.38-0.05,0.43-0.11,0.43-0.886v-3.143
	c0-0.769-0.05-0.827-0.43-0.896l-0.212-0.041c-0.075-0.051-0.066-0.245,0.018-0.295c0.396,0.017,0.81,0.025,1.214,0.025h1.787
	c0.54,0,1.021-0.009,1.129-0.025c0.01,0.136,0.068,0.741,0.109,1.307c-0.033,0.093-0.227,0.108-0.311,0.033
	c-0.093-0.295-0.212-0.547-0.321-0.665c-0.16-0.16-0.413-0.263-0.826-0.263h-0.674c-0.277,0-0.277,0.018-0.277,0.329V130.997z"/>
<path fill="#0D2240" d="M123.229,136.435c0.365,0,0.58,0.329,0.695,0.606l0.057,0.138l0.148-0.017
	c0.045-0.005,0.092-0.009,0.135-0.009c0.411,0,0.707,0.224,0.834,0.629c0.112,0.357,0.225,0.715,0.336,1.074
	c0.232,0.745,0.473,1.516,0.721,2.271c0.201,0.616,0.172,1.247-0.09,1.933c-0.175,0.457-0.632,0.614-1.125,0.746
	c-0.642,0.172-1.162,0.253-1.646,0.253c-0.139-0.001-0.433-0.243-0.47-0.388c-0.058-0.225-0.101-0.617,0.273-0.715
	c0.35-0.091,0.729-0.13,1.095-0.167l0.185-0.021c0.393-0.042,0.65-0.162,0.789-0.369c0.133-0.199,0.148-0.46,0.048-0.8
	c-0.16-0.546-0.346-1.091-0.527-1.618c-0.077-0.227-0.153-0.452-0.229-0.678l-0.09-0.269l-0.222,0.177
	c-0.233,0.188-0.453,0.37-0.666,0.547c-0.477,0.396-0.927,0.77-1.402,1.084c-0.136,0.09-0.348,0.196-0.59,0.196
	c-0.181,0-0.352-0.061-0.509-0.183c-0.461-0.355-0.615-0.783-0.487-1.347c0.174-0.761,0.666-1.318,1.188-1.91
	c0.061-0.068,0.12-0.137,0.181-0.205c0.202-0.232,0.452-0.466,0.741-0.695C122.821,136.526,123.037,136.435,123.229,136.435
	 M121.731,140.039l0.32-0.302l0.22-0.208l0.672-0.631l0.31-0.292l-0.424-0.048c-0.06-0.007-0.117-0.011-0.173-0.011
	c-0.281,0-0.517,0.089-0.679,0.256c-0.181,0.186-0.268,0.453-0.259,0.795L121.731,140.039"/>
<path fill="#0D2240" d="M129.566,135.17L129.566,135.17c0.251,0,0.475,0.071,0.647,0.205c0.447,0.351,0.729,0.775,0.837,1.263
	c0.115,0.514,0.209,1.042,0.3,1.554c0.036,0.196,0.07,0.393,0.107,0.589c0.016,0.087,0.028,0.175,0.043,0.281
	c0.007,0.055,0.016,0.113,0.025,0.18l0.021,0.14l0.141-0.021c0.117-0.017,0.229-0.035,0.337-0.054
	c0.238-0.038,0.446-0.072,0.656-0.087c0.011,0,0.022,0,0.034,0c0.097,0,0.2,0.022,0.311,0.047c0.016,0.003,0.03,0.007,0.046,0.01
	c-0.005,0.038-0.008,0.077-0.012,0.115c-0.014,0.139-0.03,0.312-0.086,0.358c-0.227,0.187-0.546,0.339-0.948,0.451
	c-0.346,0.098-0.537,0.234-0.56,0.673c-0.01,0.207-0.017,0.414-0.024,0.622c-0.027,0.891-0.057,1.812-0.438,2.653
	c-0.095,0.21-0.284,0.346-0.48,0.346c-0.049,0-0.098-0.009-0.144-0.025c-0.31-0.118-0.42-0.342-0.335-0.688
	c0.18-0.744,0.318-1.51,0.451-2.251l0.004-0.021c0.031-0.172,0.031-0.343,0.032-0.523c0.001-0.082,0.001-0.167,0.006-0.255
	l0.006-0.155l-0.155,0.009c-0.128,0.007-0.256,0.015-0.383,0.022c-0.281,0.017-0.548,0.033-0.819,0.044l-0.077,0.004
	c-0.084,0.004-0.166,0.008-0.249,0.008c-0.091,0-0.169-0.005-0.237-0.016c-0.155-0.023-0.283-0.095-0.36-0.201
	c-0.066-0.091-0.091-0.199-0.071-0.315c0.077-0.466,0.209-0.549,0.543-0.549c0.015,0,0.029,0,0.045,0
	c0.08,0.003,0.162,0.004,0.243,0.004c0.374,0,0.755-0.022,1.134-0.064c0.112-0.014,0.206-0.118,0.252-0.18
	c0.048-0.066,0.128-0.193,0.107-0.312c-0.121-0.706-0.259-1.508-0.468-2.285c-0.034-0.13-0.142-0.527-0.5-0.527
	c-0.138,0-0.291,0.061-0.48,0.189c-0.112,0.078-0.213,0.119-0.288,0.119c-0.042,0-0.097-0.011-0.153-0.091
	c-0.12-0.171-0.188-0.426-0.149-0.567C128.598,135.416,129.128,135.17,129.566,135.17"/>
<path fill="#0D2240" d="M137.339,134.999c0.086,0,0.169,0.029,0.246,0.087c0.214,0.161,0.245,0.569,0.067,0.855
	c-0.066,0.108-0.136,0.215-0.204,0.321c-0.235,0.363-0.478,0.739-0.642,1.147c-0.043,0.106-0.087,0.213-0.13,0.319
	c-0.384,0.941-0.78,1.915-0.882,3.003l-0.021,0.223l0.21-0.078c0.104-0.038,0.199-0.077,0.292-0.115
	c0.185-0.077,0.345-0.143,0.51-0.178c0.137-0.027,0.258-0.042,0.37-0.042c0.424,0,0.71,0.2,0.986,0.688
	c0.214,0.378,0.118,1.236-0.173,1.557c-0.383,0.422-0.86,0.653-1.346,0.653c-0.688,0-1.279-0.453-1.582-1.212
	c-0.338-0.846-0.203-1.678-0.027-2.381c0.362-1.451,0.833-3.118,1.836-4.532C136.995,135.111,137.168,134.999,137.339,134.999
	 M136.606,142.506c0.044,0,0.091-0.005,0.14-0.013c0.425-0.075,0.704-0.52,0.621-0.99l-0.024-0.143l-0.142,0.029l-0.556,0.109
	l-0.605,0.121l-0.151,0.03l0.044,0.148C136.007,142.046,136.145,142.506,136.606,142.506"/>
<path fill="#0D2240" d="M118.575,135.809c0.168,0,0.365,0.1,0.491,0.249c0.052,0.062,0.136,0.185,0.113,0.32
	c-0.154,0.916-0.309,1.658-0.485,2.338c-0.198,0.76-0.413,1.529-0.622,2.274c-0.193,0.691-0.393,1.405-0.579,2.111
	c-0.093,0.354-0.118,0.725-0.144,1.084l-0.009,0.119c-0.02,0.275-0.114,0.604-0.454,0.604h-0.015
	c-0.291-0.009-0.512-0.258-0.581-0.653c0.067-0.271,0.135-0.543,0.201-0.814c0.142-0.578,0.288-1.175,0.439-1.761
	c0.125-0.484,0.252-0.969,0.38-1.453c0.198-0.75,0.403-1.527,0.593-2.294c0.054-0.213-0.018-0.459-0.088-0.627
	c-0.05-0.124,0.021-0.504,0.229-0.926c0.171-0.35,0.345-0.534,0.433-0.559C118.508,135.813,118.541,135.809,118.575,135.809"/>
<path fill="#0D2240" d="M85.655,147.983l0.039-0.061l0.013-0.081c0.078-0.127,0.147-0.228,0.206-0.302
	c0.06-0.074,0.104-0.132,0.136-0.174c0.022-0.029,0.075-0.07,0.158-0.124c0.082-0.054,0.195-0.121,0.338-0.204l0.093-0.076
	c0.029-0.062,0.084-0.154,0.162-0.276c0.079-0.122,0.174-0.261,0.286-0.419c0.021-0.035,0.056-0.074,0.103-0.117
	c0.047-0.044,0.096-0.099,0.146-0.163c0.108-0.136,0.218-0.276,0.325-0.421s0.207-0.286,0.3-0.426
	c0.041-0.053,0.125-0.15,0.255-0.292s0.305-0.339,0.525-0.592c0.032-0.03,0.093-0.077,0.18-0.139s0.201-0.137,0.344-0.225
	c0.063-0.04,0.107-0.098,0.132-0.173c0.023-0.074,0.029-0.167,0.014-0.276c0.033-0.072,0.062-0.16,0.088-0.262
	c0.026-0.102,0.05-0.22,0.068-0.355c0.03-0.168,0.053-0.305,0.068-0.41c0.015-0.104,0.027-0.177,0.038-0.215
	c0.058-0.247,0.14-0.537,0.249-0.872c0.108-0.335,0.239-0.72,0.394-1.153c0.075-0.228,0.166-0.48,0.271-0.76
	c0.071-0.142,0.156-0.253,0.258-0.333c0.101-0.079,0.21-0.127,0.33-0.143c0.094-0.013,0.167,0.015,0.222,0.081
	c0.054,0.067,0.09,0.17,0.109,0.312c0.029,0.223,0.043,0.439,0.038,0.646c-0.004,0.207-0.035,0.404-0.095,0.593
	c-0.011,0.038-0.017,0.095-0.018,0.169c0,0.074,0.001,0.164,0.005,0.27c0.005,0.073-0.005,0.146-0.03,0.219
	c-0.025,0.071-0.06,0.141-0.104,0.204c0.006,0.037,0.006,0.08,0.002,0.131s-0.006,0.111-0.007,0.18l-0.091,0.155
	c-0.007,0.033-0.007,0.071,0,0.115c0.006,0.045,0.011,0.09,0.018,0.137c0.004,0.031-0.006,0.096-0.03,0.191
	c-0.023,0.096-0.061,0.231-0.111,0.408c-0.06,0.188-0.107,0.337-0.143,0.448c-0.036,0.11-0.055,0.179-0.057,0.206
	c-0.017,0.028-0.038,0.073-0.064,0.136c-0.026,0.062-0.058,0.132-0.095,0.211l0.046,0.169l-0.259,1.862
	c0.026,0.198,0.052,0.366,0.076,0.506c0.024,0.141,0.055,0.25,0.092,0.33c0.038,0.085,0.095,0.187,0.172,0.307
	c0.077,0.119,0.173,0.246,0.285,0.379c0.07,0.091,0.148,0.153,0.232,0.188s0.17,0.045,0.259,0.032
	c0.099-0.013,0.195-0.054,0.289-0.122s0.186-0.166,0.274-0.295c0.081,0.127,0.156,0.247,0.227,0.359
	c0.071,0.112,0.132,0.218,0.182,0.317c-0.023,0.019-0.072,0.08-0.146,0.182c-0.073,0.104-0.169,0.247-0.287,0.433
	c-0.07,0.11-0.163,0.195-0.279,0.256c-0.117,0.061-0.264,0.103-0.44,0.127c-0.391,0.052-0.722-0.007-0.993-0.177
	c-0.271-0.171-0.484-0.452-0.638-0.845c-0.032-0.08-0.06-0.15-0.084-0.211c-0.023-0.061-0.048-0.115-0.07-0.166
	c-0.049-0.094-0.126-0.192-0.229-0.294c-0.03,0.057-0.053,0.1-0.07,0.128c-0.057,0.051-0.118,0.119-0.183,0.208
	c-0.065,0.088-0.129,0.196-0.19,0.327c-0.009,0.054-0.029,0.122-0.061,0.202c-0.031,0.081-0.077,0.179-0.136,0.293
	c-0.141,0.215-0.283,0.431-0.429,0.649c-0.146,0.218-0.292,0.433-0.438,0.643c-0.199,0.292-0.39,0.512-0.571,0.661
	c-0.182,0.148-0.345,0.232-0.49,0.252c-0.261,0.035-0.462,0-0.603-0.105c-0.142-0.105-0.229-0.288-0.265-0.549
	c-0.016-0.12,0.006-0.294,0.065-0.521s0.082-0.394,0.068-0.498l-0.063-0.118L85.655,147.983z M89.281,145.224
	c-0.003-0.025-0.019-0.063-0.046-0.112c-0.068,0.088-0.152,0.192-0.253,0.312s-0.22,0.252-0.359,0.397
	c-0.025,0.089-0.091,0.231-0.197,0.429c-0.105,0.196-0.258,0.443-0.457,0.74c-0.057,0.087-0.13,0.233-0.219,0.438
	c-0.09,0.205-0.198,0.457-0.328,0.755c-0.043,0.117-0.084,0.258-0.126,0.423c0.004,0.03,0.029,0.062,0.076,0.093
	c0.149-0.068,0.322-0.23,0.519-0.487s0.423-0.605,0.682-1.049c0.266-0.47,0.456-0.865,0.572-1.185
	C89.261,145.658,89.307,145.407,89.281,145.224"/>
<path fill="#0D2240" d="M92.181,147.108c0.048-0.117,0.114-0.238,0.197-0.364c0.084-0.125,0.193-0.257,0.328-0.397
	c0.002-0.105,0.004-0.211,0.006-0.314s-0.001-0.208-0.011-0.312c0.006-0.075,0.02-0.164,0.04-0.268s0.044-0.215,0.07-0.335
	c0.031-0.121,0.076-0.272,0.134-0.455s0.137-0.39,0.239-0.62c0.093-0.135,0.189-0.281,0.29-0.44s0.201-0.319,0.301-0.481
	c0.051-0.055,0.107-0.106,0.17-0.158c0.062-0.05,0.123-0.106,0.184-0.167c0.06-0.029,0.128-0.057,0.203-0.083
	c0.076-0.026,0.161-0.046,0.255-0.059c0.13-0.017,0.237-0.019,0.321-0.003s0.156,0.051,0.217,0.105
	c0.042,0.037,0.086,0.096,0.131,0.174s0.091,0.176,0.139,0.291c0.029,0.103,0.062,0.215,0.101,0.337
	c-0.004-0.031-0.012-0.018-0.022,0.042c-0.011,0.061-0.025,0.154-0.045,0.284l-0.037,0.26c-0.039,0.26-0.165,0.57-0.376,0.933
	c-0.211,0.361-0.504,0.782-0.879,1.262c-0.032,0.041-0.057,0.091-0.075,0.149c-0.02,0.058-0.024,0.118-0.017,0.181
	c0.015,0.109,0.048,0.203,0.099,0.28c0.05,0.079,0.113,0.134,0.192,0.165c0.046,0.026,0.116,0.049,0.211,0.067
	c0.096,0.019,0.208,0.033,0.336,0.043c0.201-0.043,0.381-0.102,0.54-0.177c0.16-0.074,0.3-0.156,0.421-0.246
	c0.023-0.02,0.062-0.048,0.115-0.083c0.054-0.037,0.105-0.082,0.157-0.137c0.088,0.142,0.166,0.27,0.233,0.382
	c0.068,0.113,0.124,0.211,0.167,0.296c-0.258,0.331-0.497,0.587-0.72,0.768c-0.222,0.181-0.435,0.284-0.638,0.312
	c-0.076,0.063-0.166,0.114-0.27,0.151c-0.104,0.038-0.229,0.066-0.374,0.086c-0.192,0.026-0.366,0.021-0.522-0.017
	c-0.156-0.038-0.291-0.104-0.404-0.2c-0.06-0.045-0.121-0.115-0.188-0.21c-0.065-0.094-0.137-0.207-0.213-0.341
	c-0.062-0.107-0.117-0.187-0.166-0.235s-0.1-0.07-0.151-0.063c-0.042,0.006-0.086,0.031-0.133,0.078
	c-0.047,0.046-0.097,0.111-0.148,0.198c-0.03-0.075-0.08-0.167-0.147-0.274S92.287,147.269,92.181,147.108 M94.338,144.236
	c-0.114,0.016-0.247,0.186-0.399,0.511c-0.153,0.325-0.22,0.559-0.201,0.699c0.005,0.03,0.014,0.052,0.028,0.063
	c0.015,0.011,0.043,0.014,0.085,0.008c0.058-0.008,0.101-0.044,0.129-0.108s0.055-0.125,0.079-0.182
	c0.05-0.06,0.099-0.123,0.145-0.19c0.047-0.066,0.093-0.132,0.137-0.196c0.053-0.081,0.09-0.161,0.111-0.238
	c0.021-0.076,0.027-0.151,0.018-0.225c-0.006-0.047-0.021-0.083-0.042-0.109C94.404,144.242,94.375,144.232,94.338,144.236"/>
<path fill="#0D2240" d="M96.107,146.582l0.039-0.061c0.011-0.076,0.046-0.16,0.105-0.253c0.059-0.093,0.147-0.189,0.267-0.29
	c0.157-0.132,0.279-0.238,0.367-0.319c0.087-0.08,0.139-0.138,0.155-0.172c0.039-0.063,0.064-0.111,0.076-0.146
	c0.052-0.049,0.114-0.115,0.188-0.199c0.073-0.085,0.155-0.186,0.245-0.304c0.033-0.03,0.066-0.077,0.101-0.141
	c0.034-0.062,0.066-0.133,0.099-0.212c0.062-0.056,0.13-0.126,0.206-0.21c0.076-0.085,0.164-0.191,0.263-0.321
	c0.111-0.158,0.238-0.333,0.379-0.523c0.142-0.191,0.302-0.392,0.479-0.601c0.063-0.041,0.124-0.074,0.182-0.101
	s0.115-0.043,0.172-0.051c0.234-0.031,0.418,0.001,0.55,0.098s0.212,0.248,0.239,0.456c0.008,0.053,0.01,0.14,0.008,0.262
	s-0.002,0.275,0.002,0.46c-0.002,0.535-0.012,0.862-0.027,0.981s-0.077,0.492-0.184,1.121c-0.028,0.104-0.055,0.232-0.079,0.384
	c-0.025,0.152-0.055,0.336-0.089,0.553c0.014,0.02,0.042,0.037,0.086,0.052c0.037-0.005,0.097-0.049,0.182-0.131
	c0.084-0.083,0.194-0.205,0.332-0.367c0.16-0.19,0.286-0.337,0.378-0.439s0.15-0.163,0.175-0.183
	c0.081,0.132,0.155,0.254,0.223,0.363c0.068,0.11,0.127,0.215,0.178,0.314c-0.062,0.05-0.117,0.105-0.165,0.165
	c-0.047,0.06-0.091,0.123-0.129,0.192c-0.1,0.087-0.215,0.188-0.346,0.3c-0.13,0.113-0.273,0.235-0.432,0.368
	c-0.066,0.088-0.159,0.197-0.277,0.327c-0.117,0.13-0.25,0.275-0.397,0.438l-0.145,0.052c-0.06,0.108-0.118,0.192-0.177,0.254
	c-0.058,0.061-0.111,0.104-0.161,0.133c-0.079,0.042-0.158,0.083-0.237,0.123s-0.164,0.082-0.254,0.126
	c-0.059-0.009-0.104-0.037-0.138-0.085c-0.033-0.049-0.053-0.115-0.059-0.199c-0.098-0.13-0.182-0.283-0.253-0.459
	c-0.07-0.176-0.121-0.375-0.151-0.6c-0.006-0.041-0.009-0.086-0.01-0.133c-0.001-0.048-0.002-0.09-0.001-0.128
	c-0.055-0.13-0.084-0.208-0.088-0.234c-0.021-0.156,0.022-0.293,0.128-0.41c0.106-0.117,0.234-0.187,0.386-0.207
	c0.078-0.01,0.139,0.023,0.184,0.099c0.045,0.076,0.086,0.112,0.122,0.106c0.036-0.004,0.064-0.081,0.084-0.229
	c0.021-0.148,0.03-0.362,0.029-0.644c0.004-0.244,0-0.455-0.014-0.634c-0.013-0.179-0.026-0.314-0.039-0.408
	c-0.009-0.067-0.03-0.116-0.063-0.146c-0.033-0.029-0.083-0.04-0.151-0.031c-0.067,0.01-0.265,0.195-0.593,0.557
	c-0.327,0.361-0.78,0.896-1.358,1.604c-0.016,0.039-0.039,0.087-0.071,0.145s-0.068,0.128-0.11,0.214
	c-0.031-0.076-0.081-0.167-0.148-0.274S96.214,146.742,96.107,146.582"/>
<path fill="#0D2240" d="M100.993,145.926l0.04-0.061l0.013-0.082c0.078-0.126,0.147-0.227,0.206-0.301s0.104-0.132,0.136-0.174
	c0.022-0.029,0.075-0.07,0.158-0.124s0.195-0.121,0.338-0.204l0.093-0.076c0.029-0.062,0.083-0.154,0.162-0.276
	s0.174-0.262,0.285-0.419c0.022-0.035,0.057-0.074,0.104-0.118c0.047-0.043,0.095-0.098,0.145-0.162
	c0.108-0.137,0.218-0.276,0.324-0.421c0.108-0.145,0.209-0.286,0.301-0.426c0.041-0.054,0.126-0.15,0.255-0.293
	c0.13-0.142,0.305-0.338,0.524-0.591c0.033-0.03,0.094-0.077,0.181-0.139c0.087-0.062,0.201-0.137,0.344-0.225
	c0.062-0.041,0.107-0.099,0.131-0.174c0.024-0.074,0.029-0.166,0.015-0.275c0.033-0.073,0.062-0.16,0.089-0.262
	c0.025-0.102,0.049-0.22,0.067-0.355c0.03-0.168,0.053-0.305,0.068-0.41c0.015-0.105,0.027-0.177,0.038-0.216
	c0.058-0.246,0.14-0.536,0.248-0.872c0.109-0.334,0.241-0.719,0.395-1.152c0.075-0.228,0.166-0.48,0.271-0.76
	c0.071-0.143,0.156-0.253,0.258-0.333c0.101-0.079,0.21-0.127,0.33-0.144c0.093-0.013,0.168,0.015,0.222,0.081
	c0.054,0.068,0.09,0.171,0.108,0.312c0.03,0.224,0.044,0.439,0.039,0.646c-0.004,0.207-0.035,0.405-0.095,0.593
	c-0.011,0.039-0.017,0.096-0.018,0.17c0,0.074,0.001,0.164,0.005,0.269c0.005,0.074-0.006,0.147-0.03,0.219
	c-0.024,0.072-0.06,0.141-0.104,0.205c0.005,0.036,0.005,0.08,0.001,0.131c-0.003,0.051-0.006,0.11-0.007,0.18l-0.091,0.155
	c-0.006,0.032-0.006,0.071-0.001,0.115c0.006,0.045,0.013,0.09,0.019,0.137c0.004,0.031-0.006,0.095-0.03,0.19
	c-0.023,0.097-0.062,0.232-0.111,0.408c-0.06,0.188-0.107,0.338-0.143,0.448c-0.036,0.111-0.055,0.18-0.057,0.206
	c-0.017,0.029-0.038,0.074-0.064,0.137c-0.026,0.062-0.058,0.132-0.095,0.211l0.046,0.169l-0.259,1.862
	c0.026,0.197,0.052,0.366,0.076,0.506c0.024,0.141,0.055,0.25,0.092,0.33c0.038,0.085,0.096,0.187,0.172,0.307
	c0.077,0.119,0.173,0.245,0.285,0.379c0.07,0.091,0.148,0.153,0.232,0.187c0.084,0.034,0.17,0.046,0.259,0.033
	c0.099-0.013,0.195-0.054,0.289-0.122c0.095-0.068,0.186-0.166,0.274-0.295c0.08,0.127,0.156,0.246,0.227,0.359
	c0.071,0.112,0.131,0.218,0.183,0.317c-0.024,0.019-0.073,0.079-0.147,0.182c-0.073,0.104-0.169,0.247-0.287,0.433
	c-0.07,0.109-0.163,0.195-0.28,0.256c-0.116,0.061-0.263,0.103-0.439,0.126c-0.391,0.053-0.722-0.006-0.993-0.177
	c-0.272-0.17-0.484-0.451-0.638-0.844c-0.032-0.08-0.061-0.151-0.084-0.211c-0.024-0.061-0.048-0.116-0.069-0.166
	c-0.05-0.094-0.127-0.192-0.23-0.294c-0.029,0.057-0.054,0.1-0.07,0.128c-0.057,0.05-0.118,0.119-0.184,0.207
	c-0.064,0.089-0.128,0.197-0.189,0.328c-0.009,0.054-0.029,0.121-0.061,0.202s-0.077,0.179-0.136,0.292
	c-0.141,0.216-0.283,0.432-0.43,0.65c-0.146,0.218-0.292,0.432-0.438,0.643c-0.2,0.292-0.39,0.512-0.571,0.66
	c-0.182,0.149-0.345,0.233-0.49,0.253c-0.261,0.034-0.462-0.001-0.603-0.106c-0.142-0.104-0.229-0.287-0.265-0.548
	c-0.016-0.12,0.006-0.294,0.065-0.521s0.082-0.394,0.068-0.498l-0.063-0.118L100.993,145.926z M104.621,143.167
	c-0.004-0.026-0.02-0.063-0.048-0.113c-0.067,0.089-0.151,0.193-0.252,0.312c-0.101,0.12-0.22,0.253-0.359,0.398
	c-0.025,0.088-0.091,0.23-0.197,0.428s-0.258,0.443-0.457,0.741c-0.057,0.087-0.13,0.233-0.219,0.438s-0.198,0.457-0.328,0.755
	c-0.043,0.117-0.085,0.258-0.126,0.422c0.004,0.031,0.029,0.062,0.076,0.094c0.149-0.068,0.322-0.23,0.519-0.487
	s0.423-0.606,0.682-1.049c0.266-0.47,0.456-0.865,0.572-1.186S104.646,143.35,104.621,143.167"/>
<path fill="#0D2240" d="M107.52,145.051c0.048-0.117,0.113-0.238,0.197-0.364c0.084-0.125,0.193-0.257,0.328-0.397
	c0.002-0.106,0.004-0.211,0.006-0.314s-0.001-0.208-0.01-0.313c0.005-0.074,0.019-0.164,0.039-0.267
	c0.021-0.104,0.044-0.216,0.07-0.336c0.032-0.12,0.076-0.271,0.134-0.454s0.138-0.39,0.238-0.62c0.094-0.135,0.19-0.281,0.291-0.44
	s0.2-0.319,0.301-0.481c0.051-0.055,0.107-0.107,0.169-0.158c0.062-0.05,0.124-0.106,0.185-0.167
	c0.06-0.029,0.128-0.058,0.204-0.083c0.075-0.026,0.16-0.046,0.254-0.059c0.13-0.017,0.237-0.019,0.321-0.003
	c0.084,0.015,0.156,0.051,0.217,0.105c0.042,0.037,0.086,0.095,0.131,0.174s0.091,0.176,0.139,0.291
	c0.029,0.103,0.062,0.214,0.101,0.336c-0.004-0.031-0.012-0.017-0.022,0.043s-0.025,0.154-0.046,0.284l-0.036,0.259
	c-0.039,0.26-0.164,0.571-0.376,0.933c-0.211,0.362-0.504,0.783-0.879,1.263c-0.032,0.041-0.057,0.091-0.076,0.149
	c-0.019,0.058-0.023,0.118-0.015,0.181c0.015,0.109,0.047,0.203,0.097,0.28c0.05,0.079,0.115,0.134,0.193,0.165
	c0.045,0.026,0.116,0.048,0.211,0.067c0.096,0.019,0.207,0.033,0.336,0.043c0.2-0.043,0.382-0.102,0.54-0.177
	c0.16-0.074,0.3-0.156,0.421-0.247c0.023-0.019,0.062-0.046,0.115-0.082c0.054-0.037,0.105-0.082,0.157-0.137
	c0.087,0.142,0.165,0.27,0.233,0.382s0.124,0.211,0.167,0.295c-0.258,0.332-0.497,0.588-0.72,0.769
	c-0.222,0.181-0.435,0.284-0.638,0.312c-0.076,0.063-0.166,0.114-0.27,0.151c-0.104,0.038-0.229,0.066-0.374,0.086
	c-0.192,0.026-0.366,0.021-0.522-0.018c-0.156-0.037-0.291-0.104-0.404-0.199c-0.059-0.045-0.122-0.115-0.188-0.21
	c-0.065-0.094-0.137-0.208-0.212-0.341c-0.062-0.108-0.117-0.187-0.167-0.235c-0.049-0.05-0.1-0.07-0.151-0.063
	c-0.042,0.006-0.086,0.031-0.133,0.077s-0.096,0.112-0.147,0.199c-0.032-0.075-0.081-0.167-0.148-0.274
	S107.626,145.212,107.52,145.051 M109.677,142.179c-0.114,0.016-0.247,0.186-0.4,0.511c-0.152,0.325-0.219,0.559-0.2,0.698
	c0.005,0.031,0.015,0.053,0.029,0.063c0.015,0.012,0.043,0.015,0.084,0.009c0.057-0.008,0.1-0.044,0.129-0.108
	c0.028-0.065,0.055-0.125,0.078-0.182c0.051-0.06,0.1-0.123,0.146-0.19c0.047-0.066,0.093-0.133,0.137-0.196
	c0.053-0.081,0.09-0.161,0.111-0.238s0.027-0.151,0.018-0.225c-0.007-0.047-0.021-0.083-0.043-0.109
	S109.714,142.175,109.677,142.179"/>
</svg>
