<?xml version="1.0" encoding="utf-8"?>
<!-- Generator: Adobe Illustrator 16.0.4, SVG Export Plug-In . SVG Version: 6.00 Build 0)  -->
<!DOCTYPE svg PUBLIC "-//W3C//DTD SVG 1.1//EN" "http://www.w3.org/Graphics/SVG/1.1/DTD/svg11.dtd">
<svg version="1.1" id="Isolation_Mode" xmlns="http://www.w3.org/2000/svg" xmlns:xlink="http://www.w3.org/1999/xlink" x="0px"
	 y="0px" width="395px" height="138px" viewBox="0 0 395 138" enable-background="new 0 0 395 138" xml:space="preserve">
<g>
	<g>
		<defs>
			<rect id="SVGID_1_" x="-123" y="-562.346" width="640.346" height="820.346"/>
		</defs>
		<clipPath id="SVGID_2_">
			<use xlink:href="#SVGID_1_"  overflow="visible"/>
		</clipPath>
		<rect x="44.913" y="41.173" clip-path="url(#SVGID_2_)" fill="#515655" width="304.52" height="55.704"/>
	</g>
	<g>
		
			<rect x="44.913" y="41.173" fill="none" stroke="#FFFFFF" stroke-width="1.5" stroke-miterlimit="10" width="304.52" height="55.704"/>
	</g>
</g>
<g enable-background="new    ">
	<path fill="#FFFFFF" d="M112.107,57.007v12.912h-1.931V59.833h-0.036l-2.003,10.086h-1.073l-2.003-10.086h-0.036v10.086h-1.932
		V57.007h2.915l1.574,7.547h0.036l1.574-7.547H112.107z"/>
</g>
<g enable-background="new    ">
	<path fill="#FFFFFF" d="M114.215,69.919V57.007h5.937v1.932h-3.72v3.326h2.861v1.932h-2.861v3.791h3.97v1.932H114.215z"/>
</g>
<g enable-background="new    ">
	<path fill="#FFFFFF" d="M126.515,60.19c-0.089-1.108-0.68-1.431-1.18-1.431c-0.716,0-1.109,0.465-1.109,1.27
		c0,2.2,4.506,3.255,4.506,6.76c0,2.128-1.431,3.309-3.505,3.309c-2.057,0-3.237-1.646-3.326-3.576l2.11-0.305
		c0.089,1.306,0.608,1.949,1.324,1.949c0.769,0,1.287-0.411,1.287-1.18c0-2.558-4.506-3.237-4.506-6.938
		c0-2.057,1.252-3.22,3.434-3.22c1.806,0,2.879,1.306,3.076,3.13L126.515,60.19z"/>
</g>
<g enable-background="new    ">
	<path fill="#FFFFFF" d="M130.591,69.919V57.007h5.937v1.932h-3.72v3.326h2.861v1.932h-2.861v3.791h3.97v1.932H130.591z"/>
</g>
<g enable-background="new    ">
	<path fill="#FFFFFF" d="M142.892,60.19c-0.089-1.108-0.68-1.431-1.18-1.431c-0.716,0-1.109,0.465-1.109,1.27
		c0,2.2,4.506,3.255,4.506,6.76c0,2.128-1.431,3.309-3.505,3.309c-2.057,0-3.237-1.646-3.326-3.576l2.11-0.305
		c0.089,1.306,0.608,1.949,1.324,1.949c0.769,0,1.287-0.411,1.287-1.18c0-2.558-4.506-3.237-4.506-6.938
		c0-2.057,1.252-3.22,3.434-3.22c1.806,0,2.879,1.306,3.076,3.13L142.892,60.19z"/>
</g>
<g enable-background="new    ">
	<path fill="#FFFFFF" d="M154.798,60.19c-0.089-1.108-0.68-1.431-1.18-1.431c-0.716,0-1.109,0.465-1.109,1.27
		c0,2.2,4.506,3.255,4.506,6.76c0,2.128-1.431,3.309-3.505,3.309c-2.057,0-3.237-1.646-3.326-3.576l2.11-0.305
		c0.089,1.306,0.608,1.949,1.324,1.949c0.769,0,1.287-0.411,1.287-1.18c0-2.558-4.506-3.237-4.506-6.938
		c0-2.057,1.252-3.22,3.434-3.22c1.806,0,2.879,1.306,3.076,3.13L154.798,60.19z"/>
</g>
<g enable-background="new    ">
	<path fill="#FFFFFF" d="M159.016,69.919V57.007h2.218v12.912H159.016z"/>
</g>
<g enable-background="new    ">
	<path fill="#FFFFFF" d="M163.54,69.919V57.007h2.056l2.701,7.386h0.036v-7.386h2.003v12.912h-1.931l-2.826-8.065h-0.036v8.065
		H163.54z"/>
</g>
<g>
	
		<line fill="none" stroke="#FFFFFF" stroke-width="1.5" stroke-miterlimit="10" x1="211.957" y1="85.743" x2="211.957" y2="96.809"/>
	
		<line fill="none" stroke="#FFFFFF" stroke-width="1.5" stroke-miterlimit="10" x1="211.957" y1="41.242" x2="211.957" y2="51.957"/>
</g>
<g enable-background="new    ">
	<path fill="#FFFFFF" d="M103.397,84.779V72.518h2.106v12.262H103.397z"/>
</g>
<g enable-background="new    ">
	<path fill="#FFFFFF" d="M107.847,84.779V72.518h1.953l2.564,7.014h0.034v-7.014h1.902v12.262h-1.834l-2.683-7.659h-0.034v7.659
		H107.847z"/>
</g>
<g enable-background="new    ">
	<path fill="#FFFFFF" d="M118.105,74.352h-2.038v-1.834h6.182v1.834h-2.038v10.428h-2.106V74.352z"/>
</g>
<g enable-background="new    ">
	<path fill="#FFFFFF" d="M124.017,84.779V72.518h5.638v1.834h-3.532v3.159h2.717v1.834h-2.717v3.601h3.77v1.834H124.017z"/>
	<path fill="#FFFFFF" d="M133.664,84.779h-2.106V72.518h2.955c2.36,0,3.566,1.002,3.566,3.617c0,1.97-0.764,2.769-1.478,3.091
		l1.783,5.554h-2.14l-1.494-5.078c-0.272,0.034-0.713,0.051-1.087,0.051V84.779z M133.664,78.021h0.747
		c1.138,0,1.562-0.425,1.562-1.886c0-1.46-0.425-1.885-1.562-1.885h-0.747V78.021z"/>
</g>
<g enable-background="new    ">
	<path fill="#FFFFFF" d="M140.695,84.779V72.518h5.638v1.834h-3.532v3.159h2.717v1.834h-2.717v3.601h3.77v1.834H140.695z"/>
</g>
<g enable-background="new    ">
	<path fill="#FFFFFF" d="M152.55,75.541c-0.084-1.054-0.645-1.359-1.121-1.359c-0.679,0-1.053,0.441-1.053,1.206
		c0,2.089,4.28,3.091,4.28,6.42c0,2.021-1.358,3.142-3.329,3.142c-1.953,0-3.074-1.562-3.159-3.396l2.004-0.289
		c0.085,1.24,0.578,1.852,1.257,1.852c0.73,0,1.223-0.391,1.223-1.121c0-2.429-4.28-3.074-4.28-6.59
		c0-1.953,1.189-3.057,3.261-3.057c1.715,0,2.734,1.24,2.921,2.972L152.55,75.541z"/>
</g>
<g enable-background="new    ">
	<path fill="#FFFFFF" d="M156.592,84.779V72.518h5.638v1.834h-3.532v3.159h2.717v1.834h-2.717v3.601h3.77v1.834H156.592z"/>
</g>
<g enable-background="new    ">
	<path fill="#FFFFFF" d="M168.447,75.541c-0.084-1.054-0.645-1.359-1.121-1.359c-0.679,0-1.053,0.441-1.053,1.206
		c0,2.089,4.28,3.091,4.28,6.42c0,2.021-1.358,3.142-3.329,3.142c-1.953,0-3.074-1.562-3.159-3.396l2.004-0.289
		c0.085,1.24,0.578,1.852,1.257,1.852c0.73,0,1.223-0.391,1.223-1.121c0-2.429-4.28-3.074-4.28-6.59
		c0-1.953,1.189-3.057,3.261-3.057c1.715,0,2.734,1.24,2.921,2.972L168.447,75.541z"/>
</g>
<g enable-background="new    ">
	<path fill="#FFFFFF" d="M66.75,84.861v-3.705c5.881-8.593,9.09-13.329,9.09-17.377c0-2.178-0.84-3.132-2.139-3.132
		c-1.527,0-2.292,1.184-2.292,2.864v1.871h-4.507v-1.299c0-4.048,2.597-7.18,7.028-7.18c3.896,0,6.417,2.902,6.417,6.11
		c0,4.354-1.375,7.562-8.785,17.951h8.364v3.896H66.75z"/>
</g>
<g enable-background="new    ">
	<path fill="#FFFFFF" d="M91.349,78.216H83.1v-3.514l8.02-17.416h4.583v17.416h2.521v3.514h-2.521v6.646h-4.354V78.216z
		 M91.425,74.702V63.932h-0.076l-4.622,10.771H91.425z"/>
</g>
<g enable-background="new    ">
	<path fill="#FFFFFF" d="M212.902,67.335h-1.689v-4.088l-2.043-5.75h1.717l1.186,3.747h0.027l1.131-3.747h1.717l-2.045,5.75V67.335z
		"/>
</g>
<g enable-background="new    ">
	<path fill="#FFFFFF" d="M194.092,80.34h-1.635l1.812-9.838h2.099l1.812,9.838h-1.635l-0.3-2.18h-1.853L194.092,80.34z
		 M194.637,76.688h1.362l-0.667-4.225h-0.027L194.637,76.688z"/>
</g>
<g enable-background="new    ">
	<path fill="#FFFFFF" d="M199.272,70.502h2.507c1.744,0,2.672,0.954,2.672,2.971v3.896c0,2.017-0.928,2.971-2.672,2.971h-2.507
		V70.502z M200.963,78.95h0.586c0.898,0,1.212-0.341,1.212-1.376v-4.307c0-1.035-0.313-1.376-1.212-1.376h-0.586V78.95z"/>
</g>
<g enable-background="new    ">
	<path fill="#FFFFFF" d="M205.871,80.34v-9.838h4.523v1.472h-2.834v2.534h2.18v1.472h-2.18v2.889h3.025v1.472H205.871z"/>
</g>
<g enable-background="new    ">
	<path fill="#FFFFFF" d="M218.681,70.502v9.838h-1.472v-7.686h-0.027l-1.525,7.686h-0.818l-1.525-7.686h-0.027v7.686h-1.473v-9.838
		h2.222l1.199,5.75h0.026l1.199-5.75H218.681z"/>
</g>
<g enable-background="new    ">
	<path fill="#FFFFFF" d="M221.367,80.34h-1.635l1.812-9.838h2.098l1.812,9.838h-1.635l-0.3-2.18h-1.853L221.367,80.34z
		 M222.758,69.984h-1.131l1.076-1.963h1.84L222.758,69.984z M221.912,76.688h1.363l-0.668-4.225h-0.027L221.912,76.688z"/>
</g>
<g enable-background="new    ">
	<path fill="#FFFFFF" d="M229.643,72.928c-0.068-0.846-0.518-1.091-0.9-1.091c-0.545,0-0.844,0.354-0.844,0.968
		c0,1.676,3.434,2.479,3.434,5.15c0,1.622-1.09,2.521-2.671,2.521c-1.567,0-2.466-1.254-2.534-2.726l1.607-0.231
		c0.068,0.994,0.463,1.485,1.008,1.485c0.586,0,0.982-0.313,0.982-0.899c0-1.949-3.435-2.467-3.435-5.287
		c0-1.567,0.954-2.453,2.616-2.453c1.377,0,2.193,0.995,2.344,2.385L229.643,72.928z"/>
</g>
<g enable-background="new    ">
	<path fill="#FFFFFF" d="M267.796,70.289h-2.146l2.379-12.912h2.754l2.378,12.912h-2.146l-0.395-2.861h-2.432L267.796,70.289z
		 M268.512,65.496h1.788l-0.876-5.544h-0.036L268.512,65.496z"/>
</g>
<g enable-background="new    ">
	<path fill="#FFFFFF" d="M275.931,70.289V57.377h2.056l2.701,7.386h0.035v-7.386h2.004v12.912h-1.932l-2.826-8.065h-0.035v8.065
		H275.931z M282.243,54.355c-0.196,1.019-0.644,2.109-1.842,2.109c-0.429,0-0.805-0.179-1.163-0.357
		c-0.357-0.179-0.697-0.34-1.072-0.34c-0.555,0-0.733,0.269-0.752,0.787h-1.001c0.196-1.02,0.644-2.11,1.843-2.11
		c0.429,0,0.805,0.179,1.162,0.34s0.697,0.357,1.072,0.357c0.555,0,0.733-0.268,0.752-0.786H282.243z"/>
</g>
<g enable-background="new    ">
	<path fill="#FFFFFF" d="M285.943,60.507c0-1.824,1.072-3.309,3.396-3.309c2.326,0,3.398,1.484,3.398,3.309v6.652
		c0,1.824-1.072,3.309-3.398,3.309c-2.324,0-3.396-1.484-3.396-3.309V60.507z M288.16,67.105c0,0.966,0.286,1.431,1.18,1.431
		c0.895,0,1.182-0.465,1.182-1.431v-6.545c0-0.966-0.287-1.431-1.182-1.431c-0.894,0-1.18,0.465-1.18,1.431V67.105z"/>
</g>
<g enable-background="new    ">
	<path fill="#FFFFFF" d="M300.245,60.561c-0.089-1.108-0.68-1.431-1.181-1.431c-0.715,0-1.108,0.465-1.108,1.27
		c0,2.2,4.507,3.255,4.507,6.76c0,2.128-1.432,3.309-3.506,3.309c-2.057,0-3.236-1.646-3.326-3.576l2.11-0.305
		c0.089,1.306,0.608,1.949,1.323,1.949c0.77,0,1.287-0.411,1.287-1.18c0-2.558-4.506-3.237-4.506-6.938
		c0-2.057,1.252-3.22,3.434-3.22c1.807,0,2.879,1.306,3.076,3.13L300.245,60.561z"/>
</g>
<g enable-background="new    ">
	<path fill="#FFFFFF" d="M310.292,57.377h3.29c2.289,0,3.506,1.252,3.506,3.898v5.115c0,2.646-1.217,3.898-3.506,3.898h-3.29V57.377
		z M312.51,68.465h0.769c1.181,0,1.592-0.447,1.592-1.806v-5.651c0-1.359-0.411-1.807-1.592-1.807h-0.769V68.465z"/>
</g>
<g enable-background="new    ">
	<path fill="#FFFFFF" d="M320.285,70.289V57.377h5.938v1.932h-3.72v3.326h2.861v1.932h-2.861v3.791h3.97v1.932H320.285z"/>
</g>
<g enable-background="new    ">
	<path fill="#FFFFFF" d="M268.361,78.563h3.447v6.216h-1.019l-0.391-0.917c-0.628,0.747-1.138,1.087-2.122,1.087
		c-1.665,0-2.82-1.188-2.82-3.142v-6.318c0-1.732,1.02-3.142,3.092-3.142c2.105,0,3.158,1.528,3.158,3.362v0.781h-2.004
		c0-1.834-0.373-2.31-1.205-2.31c-0.51,0-0.935,0.306-0.935,1.342v6.301c0,0.781,0.255,1.291,0.985,1.291
		c0.849,0,1.154-0.476,1.154-1.698v-1.189h-1.342V78.563z"/>
</g>
<g enable-background="new    ">
	<path fill="#FFFFFF" d="M275.664,84.779h-2.038l2.259-12.262h2.615l2.26,12.262h-2.039l-0.373-2.717h-2.311L275.664,84.779z
		 M276.344,80.228h1.697l-0.832-5.265h-0.033L276.344,80.228z"/>
</g>
<g enable-background="new    ">
	<path fill="#FFFFFF" d="M284.633,84.779h-2.106V72.518h2.955c2.36,0,3.566,1.002,3.566,3.617c0,1.97-0.765,2.769-1.478,3.091
		l1.783,5.554h-2.141l-1.494-5.078c-0.271,0.034-0.713,0.051-1.086,0.051V84.779z M284.633,78.021h0.746
		c1.139,0,1.562-0.425,1.562-1.886c0-1.46-0.424-1.885-1.562-1.885h-0.746V78.021z"/>
</g>
<g enable-background="new    ">
	<path fill="#FFFFFF" d="M292.973,84.779h-2.039l2.26-12.262h2.615l2.259,12.262h-2.038l-0.373-2.717h-2.311L292.973,84.779z
		 M293.651,80.228h1.698l-0.832-5.265h-0.033L293.651,80.228z"/>
	<path fill="#FFFFFF" d="M299.291,84.779V72.518h1.953l2.564,7.014h0.033v-7.014h1.902v12.262h-1.834l-2.684-7.659h-0.034v7.659
		H299.291z"/>
</g>
<g enable-background="new    ">
	<path fill="#FFFFFF" d="M310.092,74.352h-2.037v-1.834h6.182v1.834h-2.038v10.428h-2.106V74.352z"/>
	<path fill="#FFFFFF" d="M317.021,71.872h-1.409l1.342-2.445h2.292L317.021,71.872z M315.766,84.779V72.518h2.105v12.262H315.766z"
		/>
</g>
<g enable-background="new    ">
	<path fill="#FFFFFF" d="M322.168,84.779h-2.039l2.26-12.262h2.615l2.259,12.262h-2.038l-0.373-2.717h-2.311L322.168,84.779z
		 M322.847,80.228h1.698l-0.832-5.265h-0.033L322.847,80.228z"/>
</g>
<g enable-background="new    ">
	<path fill="#FFFFFF" d="M249.817,61.116v-3.896h12.451v2.674l-5.614,24.901h-4.469l5.538-23.68H249.817z"/>
</g>
</svg>
