<?xml version="1.0" encoding="utf-8"?>
<!-- Generator: Adobe Illustrator 16.0.4, SVG Export Plug-In . SVG Version: 6.00 Build 0)  -->
<!DOCTYPE svg PUBLIC "-//W3C//DTD SVG 1.1//EN" "http://www.w3.org/Graphics/SVG/1.1/DTD/svg11.dtd">
<svg version="1.1" id="Isolation_Mode" xmlns="http://www.w3.org/2000/svg" xmlns:xlink="http://www.w3.org/1999/xlink" x="0px"
	 y="0px" width="535.346px" height="228px" viewBox="0 0 535.346 228" enable-background="new 0 0 535.346 228"
	 xml:space="preserve">
<polygon fill="#ED1B2E" points="239.723,108.242 253.072,108.267 225.78,139.904 212.383,139.904 "/>
<polygon fill="#ED1B2E" points="258.607,108.242 271.955,108.267 244.662,139.904 231.268,139.904 "/>
<path fill="#FFFFFF" d="M70.338,125.05c-2.068,0.947-5.16,1.006-5.16,1.006l-11.66,0.008c0,0-0.655,0.015-0.655-0.596
	c0,0,0.102-6.037,0.102-6.115c0-0.08-0.01-0.603,0.687-0.603c0.8,0,11.533-0.008,11.533-0.008s2.542,0.098,4.483,0.833
	c1.523,0.579,2.549,1.62,2.549,2.847C72.217,123.454,71.549,124.495,70.338,125.05 M74.502,117.17
	c-4.207-1.166-9.49-1.134-9.49-1.134l-18.067,0.007c0,0-0.848-0.074-1.352,0.321c-0.471,0.369-0.475,1.199-0.475,1.199l-0.135,9.813
	c0,1.52,1.724,1.399,1.724,1.399l18.937-0.017c0,0,6.223,0.155,10.468-1.281c2.782-0.942,4.213-2.747,4.213-5.04
	C80.326,119.87,77.854,118.1,74.502,117.17"/>
<path fill="#FFFFFF" d="M102.662,126.249c-2.503,0-10.392-0.153-10.392-3.785c0-4.021,8.5-3.907,10.392-3.907
	c1.891,0,11.033,0.166,11.033,3.907C113.706,126.482,105.164,126.249,102.662,126.249 M102.596,115.864
	c-0.713,0-18.51-0.568-18.51,6.554c0,4.384,6.376,5.647,11.64,6.216c3.724,0.4,6.882,0.383,6.882,0.383s2.962,0.116,6.549-0.088
	c5.564-0.315,12.649-1.568,12.649-6.512C121.806,115.888,103.308,115.864,102.596,115.864"/>
<path fill="#FFFFFF" d="M200.22,116.585v1.199c0,0,0.106,0.958-0.689,0.958h-19.683c0,0-7.049,0.034-7.049,3.676
	s5.968,3.642,7.666,3.642h11.023c0,0,0.629-0.04,0.629-0.634v-1.151c0,0-0.072-0.51-0.701-0.51h-9.599c0,0-0.7,0.016-0.7-0.665
	c0-0.682,0.036-1.448,0.036-1.448s0-0.595,0.736-0.595h16.645c0,0,1.616-0.127,1.616,1.361c0,1.487-0.049,4.074-0.049,4.728
	c0,0.655-0.166,1.623-1.804,1.623h-18.71c0,0-7.485,0.146-11.789-1.799c-1.977-0.945-3.113-2.439-3.113-4.552
	c0-4.537,6.214-5.804,10.359-6.175c2.073-0.187,3.628-0.176,3.628-0.176s20.799-0.016,20.962-0.016
	C199.798,116.052,200.22,116.063,200.22,116.585"/>
<path fill="#FFFFFF" d="M235.445,116.06c0,0,0.796-0.052,0.796,0.525v1.2c0,0.474-0.096,0.957-0.76,0.957h-22.626
	c0,0-0.7,0.06-0.7,0.76l-0.023,0.808c0,0,0.011,0.724,0.723,0.724h21.393c0,0,0.771-0.024,0.771,0.618v1.482
	c0,0,0.012,0.594-0.617,0.594h-21.477c-0.247,0-0.782,0.097-0.782,0.677c0,0.582-0.011,1.104-0.011,1.104s-0.025,0.55,0.866,0.55
	h22.817c0,0,0.826-0.004,0.826,0.565v1.5c0,0.12,0.031,0.644-0.646,0.644h-30.164c-1.032,0-1.885-0.197-1.885-1.751
	c0-1.557,0.117-8.277,0.153-9.354c0.045-1.36,0.521-1.603,1.993-1.603H235.445z"/>
<path fill="#FFFFFF" d="M150.901,125.05c-2.068,0.947-5.161,1.006-5.161,1.006l-11.659,0.008c0,0-0.658,0.015-0.658-0.596
	c0,0,0.104-6.037,0.104-6.115c0-0.08-0.008-0.603,0.688-0.603c0.8,0,11.533-0.008,11.533-0.008s2.542,0.098,4.485,0.833
	c1.522,0.579,2.547,1.62,2.547,2.847C152.78,123.454,152.112,124.495,150.901,125.05 M155.065,117.17
	c-4.208-1.166-9.489-1.134-9.489-1.134l-18.068,0.007c0,0-0.848-0.074-1.353,0.321c-0.47,0.369-0.474,1.199-0.474,1.199
	l-0.136,9.813c0,1.52,1.725,1.399,1.725,1.399l18.937-0.017c0,0,6.222,0.155,10.468-1.281c2.781-0.942,4.213-2.747,4.213-5.04
	C160.888,119.87,158.416,118.1,155.065,117.17"/>
<path fill="#FFFFFF" d="M280.802,108.215h3.656c2.545,0,3.587,1.393,2.935,4.333l-1.262,5.685c-0.653,2.941-2.313,4.333-4.857,4.333
	h-3.657L280.802,108.215z M280.53,120.538h0.855c1.312,0,1.879-0.497,2.214-2.007l1.395-6.281c0.334-1.511-0.012-2.007-1.323-2.007
	h-0.855L280.53,120.538z"/>
<polygon fill="#FFFFFF" points="287.518,122.565 290.703,108.215 297.302,108.215 296.824,110.362 292.69,110.362 291.87,114.059 
	295.051,114.059 294.573,116.205 291.394,116.205 290.458,120.419 294.87,120.419 294.395,122.565 "/>
<path fill="#FFFFFF" d="M302.802,111.753c0.174-1.231-0.402-1.59-0.959-1.59c-0.795,0-1.347,0.517-1.545,1.411
	c-0.543,2.445,4.205,3.617,3.341,7.513c-0.525,2.365-2.407,3.677-4.712,3.677c-2.286,0-3.191-1.828-2.814-3.975l2.421-0.338
	c-0.224,1.451,0.194,2.166,0.989,2.166c0.855,0,1.532-0.457,1.723-1.312c0.631-2.843-4.21-3.598-3.297-7.712
	c0.507-2.286,2.186-3.576,4.609-3.576c2.008,0,2.878,1.449,2.647,3.478L302.802,111.753z"/>
<path fill="#FFFFFF" d="M306.1,122.564h-2.385l5.829-14.349h3.06l-0.541,14.349h-2.386l0.269-3.18h-2.703L306.1,122.564z
	 M308.076,117.239h1.988l0.393-6.161h-0.038L308.076,117.239z"/>
<polygon fill="#FFFFFF" points="313.459,122.565 316.644,108.215 323.52,108.215 323.044,110.362 318.632,110.362 317.812,114.059 
	321.11,114.059 320.634,116.205 317.334,116.205 315.923,122.565 "/>
<polygon fill="#FFFFFF" points="321.877,122.565 325.062,108.215 327.526,108.215 324.341,122.565 "/>
<path fill="#FFFFFF" d="M328.294,122.564h-2.384l5.828-14.349h3.061l-0.541,14.349h-2.386l0.27-3.18h-2.703L328.294,122.564z
	 M330.272,117.239h1.986l0.395-6.161h-0.039L330.272,117.239z"/>
<polygon fill="#FFFFFF" points="335.654,122.565 338.839,108.215 341.124,108.215 342.304,116.424 342.343,116.424 344.165,108.215 
	346.391,108.215 343.206,122.565 341.061,122.565 339.909,113.602 339.869,113.602 337.88,122.565 "/>
<path fill="#FFFFFF" d="M348.904,108.215h3.656c2.544,0,3.586,1.393,2.934,4.333l-1.262,5.685c-0.652,2.941-2.312,4.333-4.856,4.333
	h-3.657L348.904,108.215z M348.633,120.538h0.855c1.312,0,1.879-0.497,2.214-2.007l1.394-6.281c0.335-1.511-0.012-2.007-1.323-2.007
	h-0.854L348.633,120.538z"/>
<path fill="#FFFFFF" d="M357.939,111.693c0.449-2.026,2.009-3.677,4.593-3.677c2.583,0,3.41,1.65,2.96,3.677l-1.641,7.394
	c-0.45,2.027-2.01,3.677-4.594,3.677c-2.583,0-3.41-1.649-2.96-3.677L357.939,111.693z M358.776,119.027
	c-0.238,1.073-0.035,1.59,0.959,1.59s1.426-0.517,1.664-1.59l1.614-7.273c0.238-1.074,0.035-1.59-0.959-1.59
	c-0.993,0-1.426,0.516-1.664,1.59L358.776,119.027z"/>
<polygon fill="#FFFFFF" points="369.878,122.565 373.063,108.215 379.661,108.215 379.186,110.362 375.052,110.362 374.231,114.059 
	377.411,114.059 376.935,116.205 373.754,116.205 372.819,120.419 377.231,120.419 376.756,122.565 "/>
<polygon fill="#FFFFFF" points="378.324,122.565 381.51,108.215 383.975,108.215 381.266,120.419 385.142,120.419 384.665,122.565 
	"/>
<path fill="#FFFFFF" d="M262.772,139.872l3.185-14.35h3.538c3.041,0,4.19,1.173,3.512,4.234c-0.679,3.06-2.351,4.232-5.392,4.232
	h-1.073l-1.306,5.883H262.772z M266.992,131.963h0.954c1.609,0,2.218-0.497,2.597-2.206c0.379-1.71-0.008-2.206-1.617-2.206h-0.955
	L266.992,131.963z"/>
<polygon fill="#FFFFFF" points="272.736,139.872 275.923,125.522 282.521,125.522 282.044,127.67 277.91,127.67 277.09,131.365 
	280.27,131.365 279.793,133.513 276.612,133.513 275.678,137.727 280.09,137.727 279.613,139.872 "/>
<path fill="#FFFFFF" d="M284.043,139.872h-2.464l3.185-14.35h3.458c2.764,0,3.913,1.173,3.234,4.234
	c-0.512,2.305-1.613,3.239-2.532,3.616l0.646,6.499h-2.505l-0.431-5.942c-0.326,0.04-0.848,0.06-1.285,0.06L284.043,139.872z
	 M285.799,131.963h0.874c1.332,0,1.939-0.497,2.319-2.206c0.379-1.71-0.007-2.206-1.339-2.206h-0.875L285.799,131.963z"/>
<polygon fill="#FFFFFF" points="291.797,139.872 294.981,125.522 301.858,125.522 301.382,127.67 296.97,127.67 296.149,131.365 
	299.448,131.365 298.972,133.513 295.672,133.513 294.261,139.872 "/>
<path fill="#FFFFFF" d="M302.627,129.001c0.45-2.027,2.009-3.678,4.593-3.678c2.583,0,3.41,1.65,2.96,3.678l-1.641,7.394
	c-0.45,2.027-2.008,3.677-4.593,3.677c-2.583,0-3.41-1.649-2.96-3.677L302.627,129.001z M303.464,136.335
	c-0.237,1.072-0.035,1.59,0.959,1.59s1.426-0.518,1.665-1.59l1.614-7.274c0.238-1.073,0.035-1.59-0.959-1.59
	s-1.426,0.517-1.664,1.59L303.464,136.335z"/>
<path fill="#FFFFFF" d="M312.988,139.872h-2.465l3.186-14.35h3.458c2.763,0,3.913,1.173,3.233,4.234
	c-0.512,2.305-1.612,3.239-2.531,3.616l0.644,6.499h-2.504l-0.43-5.942c-0.327,0.04-0.849,0.06-1.285,0.06L312.988,139.872z
	 M314.744,131.963h0.874c1.332,0,1.938-0.497,2.317-2.206c0.38-1.71-0.007-2.206-1.338-2.206h-0.875L314.744,131.963z"/>
<polygon fill="#FFFFFF" points="333.875,125.522 330.69,139.873 328.544,139.873 331.032,128.663 330.992,128.663 326.278,139.873 
	325.085,139.873 325.348,128.663 325.308,128.663 322.82,139.873 320.673,139.873 323.858,125.522 327.098,125.522 326.985,133.91 
	327.025,133.91 330.636,125.522 "/>
<path fill="#FFFFFF" d="M334.792,139.873h-2.384l5.828-14.35h3.061l-0.542,14.35h-2.385l0.269-3.181h-2.702L334.792,139.873z
	 M336.771,134.546h1.986l0.395-6.161h-0.039L336.771,134.546z"/>
<polygon fill="#FFFFFF" points="342.49,139.872 345.675,125.522 347.96,125.522 349.14,133.731 349.179,133.731 351.001,125.522 
	353.227,125.522 350.042,139.872 347.896,139.872 346.745,130.908 346.705,130.908 344.716,139.872 "/>
<path fill="#FFFFFF" d="M359.89,130.312l0.247-1.113c0.269-1.212-0.173-1.729-0.81-1.729c-0.994,0-1.427,0.517-1.664,1.59
	l-1.614,7.273c-0.238,1.073-0.035,1.592,0.959,1.592c0.894,0,1.307-0.519,1.514-1.452l0.384-1.729h2.465l-0.365,1.649
	c-0.45,2.027-2.01,3.677-4.475,3.677c-2.583,0-3.41-1.649-2.96-3.677l1.642-7.395c0.449-2.026,2.009-3.676,4.593-3.676
	c2.464,0,3.26,1.788,2.783,3.936l-0.234,1.053H359.89z"/>
<polygon fill="#FFFFFF" points="362.955,139.872 366.14,125.522 372.738,125.522 372.262,127.67 368.128,127.67 367.308,131.365 
	370.488,131.365 370.011,133.513 366.831,133.513 365.896,137.727 370.308,137.727 369.832,139.872 "/>
</svg>
