<?xml version="1.0" encoding="utf-8"?>
<!-- Generator: Adobe Illustrator 16.0.4, SVG Export Plug-In . SVG Version: 6.00 Build 0)  -->
<!DOCTYPE svg PUBLIC "-//W3C//DTD SVG 1.1//EN" "http://www.w3.org/Graphics/SVG/1.1/DTD/svg11.dtd">
<svg version="1.1" id="Isolation_Mode" xmlns="http://www.w3.org/2000/svg" xmlns:xlink="http://www.w3.org/1999/xlink" x="0px"
	 y="0px" width="640.346px" height="158.346px" viewBox="0 0 640.346 158.346" enable-background="new 0 0 640.346 158.346"
	 xml:space="preserve">
<g enable-background="new    ">
	<path fill="#FFFFFF" d="M60.413,63.067v1.472h-5.622v5.488h4.149V71.5h-4.149v6.201h5.889v1.473h-7.629V63.067H60.413z"/>
</g>
<g enable-background="new    ">
	<path fill="#FFFFFF" d="M68.822,67.217c-0.134-1.651-0.803-2.9-2.477-2.9c-1.338,0-2.208,0.893-2.208,2.119
		c0,3.637,6.47,3.681,6.47,8.856c0,2.565-1.473,4.104-4.127,4.104c-2.521,0-4.038-1.852-4.083-4.551h1.606
		c0.045,1.896,0.937,3.079,2.655,3.079c1.45,0,2.387-0.938,2.387-2.655c0-3.658-6.47-4.082-6.47-8.678
		c0-2.275,1.562-3.748,3.882-3.748c2.32,0,3.837,1.562,3.971,4.373H68.822z"/>
</g>
<g enable-background="new    ">
	<path fill="#FFFFFF" d="M72.968,63.067h3.792c2.588,0,4.283,1.74,4.283,4.417s-1.695,4.417-4.283,4.417h-2.052v7.272h-1.74V63.067z
		 M74.708,70.429h1.829c1.74,0,2.767-0.937,2.767-2.944s-1.026-2.945-2.767-2.945h-1.829V70.429z"/>
</g>
<g enable-background="new    ">
	<path fill="#FFFFFF" d="M87.466,63.067l3.547,16.106h-1.74l-0.959-4.774h-4.105l-0.959,4.774h-1.74l3.547-16.106H87.466z
		 M84.455,72.928h3.614l-1.785-8.656h-0.044L84.455,72.928z"/>
</g>
<g enable-background="new    ">
	<path fill="#FFFFFF" d="M99.31,67.931c-0.223-2.543-1.026-3.614-2.387-3.614c-2.03,0-2.922,1.785-2.922,6.804
		c0,5.02,0.893,6.805,2.922,6.805c1.629,0,2.565-1.115,2.61-4.104h1.74c-0.044,3.568-1.606,5.576-4.35,5.576
		c-2.877,0-4.662-2.186-4.662-8.276c0-6.09,1.785-8.276,4.662-8.276c2.387,0,3.859,1.651,4.127,5.087H99.31z"/>
</g>
<g enable-background="new    ">
	<path fill="#FFFFFF" d="M105.643,63.067v16.106h-1.74V63.067H105.643z"/>
</g>
<g enable-background="new    ">
	<path fill="#FFFFFF" d="M112.938,79.396c-2.722,0-4.551-2.275-4.551-8.276s1.829-8.276,4.551-8.276s4.551,2.275,4.551,8.276
		S115.659,79.396,112.938,79.396z M112.938,64.316c-1.562,0-2.811,1.339-2.811,6.804c0,5.466,1.25,6.805,2.811,6.805
		s2.811-1.339,2.811-6.805C115.748,65.655,114.499,64.316,112.938,64.316z"/>
</g>
<g enable-background="new    ">
	<path fill="#FFFFFF" d="M125.136,63.067h3.792c2.588,0,4.283,1.74,4.283,4.417s-1.695,4.417-4.283,4.417h-2.052v7.272h-1.74V63.067
		z M126.876,70.429h1.829c1.74,0,2.767-0.937,2.767-2.944s-1.026-2.945-2.767-2.945h-1.829V70.429z"/>
</g>
<g enable-background="new    ">
	<path fill="#FFFFFF" d="M139.634,63.067l3.547,16.106h-1.74l-0.959-4.774h-4.105l-0.959,4.774h-1.74l3.547-16.106H139.634z
		 M136.623,72.928h3.614l-1.785-8.656h-0.044L136.623,72.928z"/>
</g>
<g enable-background="new    ">
	<path fill="#FFFFFF" d="M145.253,63.067h3.882c2.588,0,4.417,1.517,4.417,4.172c0,1.807-0.803,3.323-2.588,3.948l2.722,7.986
		h-1.829l-2.588-7.63l-2.275,0.09v7.54h-1.74V63.067z M146.994,70.116h1.517c2.499,0,3.302-0.981,3.302-2.788
		s-0.803-2.789-3.302-2.789h-1.517V70.116z"/>
</g>
<g enable-background="new    ">
	<path fill="#FFFFFF" d="M161.583,63.067l3.547,16.106h-1.74l-0.959-4.774h-4.105l-0.959,4.774h-1.74l3.547-16.106H161.583z
		 M158.571,72.928h3.614l-1.785-8.656h-0.044L158.571,72.928z"/>
</g>
<g enable-background="new    ">
	<path fill="#FFFFFF" d="M171.799,65.343v-2.275h7.273v1.562l-3.279,14.545h-2.61l3.235-13.831H171.799z"/>
</g>
<g enable-background="new    ">
	<path fill="#FFFFFF" d="M187.412,79.174V63.067h3.971c3.413,0,4.997,1.316,4.997,4.752c0,3.435-1.584,4.751-4.997,4.751h-1.205
		v6.604H187.412z M190.178,70.295h1.071c1.807,0,2.364-0.558,2.364-2.476c0-1.919-0.558-2.477-2.364-2.477h-1.071V70.295z"/>
</g>
<g enable-background="new    ">
	<path fill="#FFFFFF" d="M200.214,79.174h-2.677l2.967-16.106h3.436l2.967,16.106h-2.677l-0.491-3.569h-3.034L200.214,79.174z
		 M201.106,73.195h2.231l-1.093-6.916H202.2L201.106,73.195z"/>
</g>
<g enable-background="new    ">
	<path fill="#FFFFFF" d="M214.333,67.038c-0.112-1.383-0.848-1.784-1.473-1.784c-0.892,0-1.383,0.579-1.383,1.583
		c0,2.744,5.622,4.061,5.622,8.433c0,2.655-1.785,4.127-4.373,4.127c-2.565,0-4.038-2.052-4.149-4.461l2.632-0.38
		c0.112,1.629,0.759,2.432,1.651,2.432c0.959,0,1.606-0.513,1.606-1.472c0-3.19-5.622-4.038-5.622-8.656
		c0-2.565,1.562-4.016,4.283-4.016c2.253,0,3.591,1.629,3.837,3.904L214.333,67.038z"/>
</g>
<g enable-background="new    ">
	<path fill="#FFFFFF" d="M221.56,79.174h-2.677l2.967-16.106h3.436l2.967,16.106h-2.677l-0.491-3.569h-3.034L221.56,79.174z
		 M222.452,73.195h2.231l-1.093-6.916h-0.044L222.452,73.195z"/>
</g>
<g enable-background="new    ">
	<path fill="#FFFFFF" d="M229.966,76.987h0.58c1.071,0,1.45-0.446,1.45-1.338V63.067h2.766v12.894c0,2.053-0.826,3.436-3.882,3.436
		h-0.915V76.987z"/>
</g>
<g enable-background="new    ">
	<path fill="#FFFFFF" d="M237.684,79.174V63.067h7.407v2.409h-4.641v4.149h3.569v2.409h-3.569v4.729h4.953v2.409H237.684z"/>
</g>
<g enable-background="new    ">
	<path fill="#FFFFFF" d="M250.776,79.174h-2.766V63.067h3.882c3.101,0,4.685,1.316,4.685,4.752c0,2.587-1.004,3.636-1.941,4.06
		l2.343,7.295h-2.811l-1.963-6.67c-0.356,0.044-0.937,0.066-1.428,0.066V79.174z M250.776,70.295h0.982
		c1.495,0,2.052-0.558,2.052-2.476c0-1.919-0.558-2.477-2.052-2.477h-0.982V70.295z"/>
</g>
<g enable-background="new    ">
	<path fill="#FFFFFF" d="M259.408,66.971c0-2.275,1.338-4.127,4.239-4.127c2.9,0,4.238,1.852,4.238,4.127v8.299
		c0,2.275-1.338,4.127-4.238,4.127c-2.9,0-4.239-1.852-4.239-4.127V66.971z M262.174,75.203c0,1.204,0.357,1.784,1.473,1.784
		s1.472-0.58,1.472-1.784v-8.165c0-1.205-0.357-1.784-1.472-1.784s-1.473,0.579-1.473,1.784V75.203z"/>
</g>
<g enable-background="new    ">
	<path fill="#FFFFFF" d="M276.16,67.038c-0.112-1.383-0.848-1.784-1.473-1.784c-0.892,0-1.383,0.579-1.383,1.583
		c0,2.744,5.622,4.061,5.622,8.433c0,2.655-1.785,4.127-4.373,4.127c-2.565,0-4.038-2.052-4.149-4.461l2.632-0.38
		c0.112,1.629,0.759,2.432,1.651,2.432c0.959,0,1.606-0.513,1.606-1.472c0-3.19-5.622-4.038-5.622-8.656
		c0-2.565,1.562-4.016,4.283-4.016c2.253,0,3.591,1.629,3.837,3.904L276.16,67.038z"/>
</g>
<g enable-background="new    ">
	<path fill="#FFFFFF" d="M288.023,79.174h-2.677l2.967-16.106h3.436l2.967,16.106h-2.677l-0.491-3.569h-3.034L288.023,79.174z
		 M288.916,73.195h2.231l-1.093-6.916h-0.044L288.916,73.195z"/>
</g>
<g enable-background="new    ">
	<path fill="#FFFFFF" d="M297.056,63.067h4.105c2.855,0,4.372,1.562,4.372,4.863v6.38c0,3.302-1.517,4.863-4.372,4.863h-4.105
		V63.067z M299.822,76.898h0.959c1.472,0,1.985-0.558,1.985-2.253v-7.05c0-1.695-0.513-2.253-1.985-2.253h-0.959V76.898z"/>
</g>
<g enable-background="new    ">
	<path fill="#FFFFFF" d="M308.409,63.067h2.766v12.158c0,1.182,0.469,1.762,1.473,1.762s1.472-0.58,1.472-1.762V63.067h2.766v12.046
		c0,2.767-1.606,4.283-4.238,4.283s-4.239-1.517-4.239-4.283V63.067z"/>
</g>
<g enable-background="new    ">
	<path fill="#FFFFFF" d="M319.761,79.174V63.067h2.766v13.697h4.351v2.409H319.761z"/>
</g>
<g enable-background="new    ">
	<path fill="#FFFFFF" d="M330.065,65.477h-2.678v-2.409h8.121v2.409h-2.678v13.697h-2.766V65.477z"/>
</g>
<g enable-background="new    ">
	<path fill="#FFFFFF" d="M337.806,66.971c0-2.275,1.338-4.127,4.238-4.127s4.238,1.852,4.238,4.127v8.299
		c0,2.275-1.338,4.127-4.238,4.127s-4.238-1.852-4.238-4.127V66.971z M340.571,75.203c0,1.204,0.357,1.784,1.473,1.784
		s1.473-0.58,1.473-1.784v-8.165c0-1.205-0.357-1.784-1.473-1.784s-1.473,0.579-1.473,1.784V75.203z"/>
</g>
<g enable-background="new    ">
	<path fill="#FFFFFF" d="M354.558,67.038c-0.112-1.383-0.849-1.784-1.473-1.784c-0.893,0-1.383,0.579-1.383,1.583
		c0,2.744,5.621,4.061,5.621,8.433c0,2.655-1.785,4.127-4.373,4.127c-2.564,0-4.037-2.052-4.148-4.461l2.632-0.38
		c0.112,1.629,0.759,2.432,1.651,2.432c0.959,0,1.605-0.513,1.605-1.472c0-3.19-5.621-4.038-5.621-8.656
		c0-2.565,1.562-4.016,4.283-4.016c2.253,0,3.592,1.629,3.837,3.904L354.558,67.038z"/>
</g>
<g enable-background="new    ">
	<path fill="#FFFFFF" d="M367.96,62.844h2.188l-4.953,16.553h-2.186L367.96,62.844z"/>
</g>
<g enable-background="new    ">
	<path fill="#FFFFFF" d="M373.894,62.844h2.187l-4.952,16.553h-2.187L373.894,62.844z"/>
</g>
<g enable-background="new    ">
	<path fill="#FFFFFF" d="M382.318,63.067h3.792c2.588,0,4.283,1.74,4.283,4.417s-1.695,4.417-4.283,4.417h-2.052v7.272h-1.74V63.067
		z M384.059,70.429h1.829c1.74,0,2.767-0.937,2.767-2.944s-1.026-2.945-2.767-2.945h-1.829V70.429z"/>
</g>
<g enable-background="new    ">
	<path fill="#FFFFFF" d="M396.794,63.067l3.547,16.106h-1.74l-0.959-4.774h-4.104l-0.959,4.774h-1.74l3.548-16.106H396.794z
		 M393.782,72.928h3.614l-1.784-8.656h-0.045L393.782,72.928z"/>
	<path fill="#FFFFFF" d="M404.511,63.067l4.149,11.868h0.045V63.067h1.739v16.106h-1.873l-4.998-14.01h-0.044v14.01h-1.739V63.067
		H404.511z"/>
</g>
<g enable-background="new    ">
	<path fill="#FFFFFF" d="M421.217,63.067v1.472h-3.302v14.635h-1.74V64.539h-3.301v-1.472H421.217z"/>
</g>
<g enable-background="new    ">
	<path fill="#FFFFFF" d="M427.017,63.067l3.547,16.106h-1.74l-0.959-4.774h-4.105l-0.959,4.774h-1.74l3.548-16.106H427.017z
		 M424.005,72.928h3.613l-1.784-8.656h-0.044L424.005,72.928z"/>
</g>
<g enable-background="new    ">
	<path fill="#FFFFFF" d="M434.353,63.067v14.634h5.221v1.473h-6.961V63.067H434.353z"/>
</g>
<g enable-background="new    ">
	<path fill="#FFFFFF" d="M443.386,63.067v14.634h5.221v1.473h-6.961V63.067H443.386z"/>
</g>
<g enable-background="new    ">
	<path fill="#FFFFFF" d="M455.989,63.067l3.547,16.106h-1.74l-0.959-4.774h-4.105l-0.959,4.774h-1.74l3.547-16.106H455.989z
		 M452.978,72.928h3.613l-1.785-8.656h-0.044L452.978,72.928z"/>
</g>
<g enable-background="new    ">
	<path fill="#FFFFFF" d="M466.526,63.067h2.766v12.158c0,1.182,0.469,1.762,1.473,1.762s1.473-0.58,1.473-1.762V63.067h2.766v12.046
		c0,2.767-1.605,4.283-4.238,4.283s-4.238-1.517-4.238-4.283V63.067z"/>
</g>
<g enable-background="new    ">
	<path fill="#FFFFFF" d="M483.478,68.443v-1.249c0-1.361-0.624-1.94-1.338-1.94c-1.115,0-1.473,0.579-1.473,1.784v8.165
		c0,1.204,0.357,1.784,1.473,1.784c1.004,0,1.338-0.58,1.338-1.628v-1.941h2.767v1.852c0,2.275-1.339,4.127-4.104,4.127
		c-2.9,0-4.238-1.852-4.238-4.127v-8.299c0-2.275,1.338-4.127,4.238-4.127c2.766,0,4.104,2.008,4.104,4.417v1.183H483.478z"/>
</g>
<g enable-background="new    ">
	<path fill="#FFFFFF" d="M489.187,66.971c0-2.275,1.339-4.127,4.239-4.127c2.899,0,4.238,1.852,4.238,4.127v8.299
		c0,2.275-1.339,4.127-4.238,4.127c-2.9,0-4.239-1.852-4.239-4.127V66.971z M491.953,75.203c0,1.204,0.357,1.784,1.473,1.784
		s1.472-0.58,1.472-1.784v-8.165c0-1.205-0.356-1.784-1.472-1.784s-1.473,0.579-1.473,1.784V75.203z"/>
</g>
<g enable-background="new    ">
	<path fill="#FFFFFF" d="M500.562,79.174V63.067h2.566l3.368,9.213h0.045v-9.213h2.498v16.106h-2.409l-3.524-10.062h-0.045v10.062
		H500.562z"/>
	<path fill="#FFFFFF" d="M511.714,79.174V63.067h2.566l3.368,9.213h0.045v-9.213h2.498v16.106h-2.409l-3.524-10.062h-0.045v10.062
		H511.714z"/>
</g>
<g enable-background="new    ">
	<path fill="#FFFFFF" d="M523.401,79.174V63.067h7.407v2.409h-4.641v4.149h3.569v2.409h-3.569v4.729h4.952v2.409H523.401z"/>
</g>
<g enable-background="new    ">
	<path fill="#FFFFFF" d="M539.237,68.443v-1.249c0-1.361-0.624-1.94-1.338-1.94c-1.115,0-1.473,0.579-1.473,1.784v8.165
		c0,1.204,0.357,1.784,1.473,1.784c1.004,0,1.338-0.58,1.338-1.628v-1.941h2.767v1.852c0,2.275-1.339,4.127-4.104,4.127
		c-2.9,0-4.238-1.852-4.238-4.127v-8.299c0-2.275,1.338-4.127,4.238-4.127c2.766,0,4.104,2.008,4.104,4.417v1.183H539.237z"/>
</g>
<g enable-background="new    ">
	<path fill="#FFFFFF" d="M546.999,65.477h-2.677v-2.409h8.12v2.409h-2.677v13.697h-2.767V65.477z"/>
</g>
<g enable-background="new    ">
	<path fill="#FFFFFF" d="M560.827,70.585c-0.982-0.714-1.451-1.963-1.451-3.212c0-3.123,1.428-4.529,3.704-4.529
		c2.275,0,3.703,1.406,3.703,4.529c0,1.249-0.469,2.498-1.45,3.212c1.361,0.87,1.674,2.164,1.674,4.127
		c0,3.034-1.34,4.685-3.927,4.685c-2.588,0-3.927-1.65-3.927-4.685C559.153,72.749,559.466,71.455,560.827,70.585z M564.508,74.533
		c0-1.673-0.356-2.677-1.428-2.677s-1.428,1.004-1.428,2.677c0,1.674,0.356,2.678,1.428,2.678S564.508,76.207,564.508,74.533z
		 M564.284,67.239c0-1.562-0.356-2.209-1.204-2.209c-0.849,0-1.204,0.647-1.204,2.209s0.355,2.208,1.204,2.208
		C563.928,69.447,564.284,68.801,564.284,67.239z"/>
</g>
<g enable-background="new    ">
	<path fill="#FFFFFF" d="M569.548,79.174v-2.633h2.633v2.633H569.548z"/>
</g>
<g enable-background="new    ">
	<path fill="#FFFFFF" d="M579.05,75.292h-4.818V73.24l4.685-10.173h2.677V73.24h1.473v2.052h-1.473v3.882h-2.543V75.292z
		 M579.095,73.24v-6.291h-0.045l-2.699,6.291H579.095z"/>
</g>
<g enable-background="new    ">
	<path fill="#FFFFFF" d="M587.702,65.699l-1.539,2.767h-1.182l1.093-2.767h-1.004v-2.632h2.632V65.699z M591.829,65.699
		l-1.539,2.767h-1.182l1.093-2.767h-1.004v-2.632h2.632V65.699z"/>
</g>
<g enable-background="new    ">
	<path fill="#FFFFFF" d="M153.316,92.582h2.187l-4.953,16.553h-2.186L153.316,92.582z"/>
	<path fill="#FFFFFF" d="M159.517,92.582h2.187l-4.953,16.553h-2.186L159.517,92.582z"/>
</g>
<g enable-background="new    ">
	<path fill="#FFFFFF" d="M174.081,96.955c-0.134-1.651-0.803-2.9-2.477-2.9c-1.338,0-2.208,0.893-2.208,2.119
		c0,3.637,6.47,3.681,6.47,8.856c0,2.565-1.473,4.104-4.127,4.104c-2.521,0-4.038-1.852-4.083-4.551h1.606
		c0.045,1.896,0.937,3.079,2.655,3.079c1.45,0,2.387-0.938,2.387-2.655c0-3.658-6.47-4.082-6.47-8.678
		c0-2.275,1.562-3.748,3.882-3.748c2.32,0,3.837,1.562,3.971,4.373H174.081z"/>
</g>
<g enable-background="new    ">
	<path fill="#FFFFFF" d="M180.169,92.806v16.106h-1.74V92.806H180.169z"/>
</g>
<g enable-background="new    ">
	<path fill="#FFFFFF" d="M189.025,96.955c-0.134-1.651-0.803-2.9-2.477-2.9c-1.338,0-2.208,0.893-2.208,2.119
		c0,3.637,6.47,3.681,6.47,8.856c0,2.565-1.473,4.104-4.127,4.104c-2.521,0-4.038-1.852-4.083-4.551h1.606
		c0.045,1.896,0.937,3.079,2.655,3.079c1.45,0,2.387-0.938,2.387-2.655c0-3.658-6.47-4.082-6.47-8.678
		c0-2.275,1.562-3.748,3.882-3.748c2.32,0,3.837,1.562,3.971,4.373H189.025z"/>
</g>
<g enable-background="new    ">
	<path fill="#FFFFFF" d="M200.489,92.806v1.472h-3.302v14.635h-1.74V94.277h-3.302v-1.472H200.489z"/>
</g>
<g enable-background="new    ">
	<path fill="#FFFFFF" d="M209.9,92.806v1.472h-5.622v5.488h4.149v1.473h-4.149v6.201h5.889v1.473h-7.629V92.806H209.9z"/>
</g>
<g enable-background="new    ">
	<path fill="#FFFFFF" d="M215.163,92.806l2.811,12.181h0.045l2.744-12.181h2.767v16.106h-1.606V94.144h-0.044l-3.346,14.769h-1.138
		l-3.346-14.769h-0.044v14.769h-1.606V92.806H215.163z"/>
</g>
<g enable-background="new    ">
	<path fill="#FFFFFF" d="M231.445,92.806l3.547,16.106h-1.74l-0.959-4.774h-4.105l-0.959,4.774h-1.74l3.547-16.106H231.445z
		 M228.434,102.666h3.614l-1.785-8.656h-0.044L228.434,102.666z"/>
</g>
<g enable-background="new    ">
	<path fill="#FFFFFF" d="M249.088,92.806v1.472h-3.302v14.635h-1.74V94.277h-3.302v-1.472H249.088z"/>
</g>
<g enable-background="new    ">
	<path fill="#FFFFFF" d="M251.138,92.806h3.882c2.588,0,4.417,1.517,4.417,4.172c0,1.807-0.803,3.323-2.588,3.948l2.722,7.986
		h-1.829l-2.588-7.63l-2.275,0.09v7.54h-1.74V92.806z M252.878,99.854h1.517c2.499,0,3.302-0.981,3.302-2.788
		s-0.803-2.789-3.302-2.789h-1.517V99.854z"/>
</g>
<g enable-background="new    ">
	<path fill="#FFFFFF" d="M267.466,92.806l3.547,16.106h-1.74l-0.959-4.774h-4.105l-0.959,4.774h-1.74l3.547-16.106H267.466z
		 M264.455,102.666h3.614l-1.785-8.656h-0.044L264.455,102.666z"/>
</g>
<g enable-background="new    ">
	<path fill="#FFFFFF" d="M278.796,96.955c-0.134-1.651-0.803-2.9-2.477-2.9c-1.338,0-2.208,0.893-2.208,2.119
		c0,3.637,6.47,3.681,6.47,8.856c0,2.565-1.473,4.104-4.127,4.104c-2.521,0-4.038-1.852-4.083-4.551h1.606
		c0.045,1.896,0.937,3.079,2.655,3.079c1.45,0,2.387-0.938,2.387-2.655c0-3.658-6.47-4.082-6.47-8.678
		c0-2.275,1.562-3.748,3.882-3.748c2.32,0,3.837,1.562,3.971,4.373H278.796z"/>
</g>
<g enable-background="new    ">
	<path fill="#FFFFFF" d="M290.417,92.806v1.472h-5.622v5.488h4.149v1.473h-4.149v6.201h5.889v1.473h-7.629V92.806H290.417z"/>
</g>
<g enable-background="new    ">
	<path fill="#FFFFFF" d="M293.025,92.806h3.882c2.588,0,4.417,1.517,4.417,4.172c0,1.807-0.803,3.323-2.588,3.948l2.722,7.986
		h-1.829l-2.588-7.63l-2.275,0.09v7.54h-1.74V92.806z M294.765,99.854h1.517c2.499,0,3.302-0.981,3.302-2.788
		s-0.803-2.789-3.302-2.789h-1.517V99.854z"/>
</g>
<g enable-background="new    ">
	<path fill="#FFFFFF" d="M308.215,109.135c-2.722,0-4.551-2.275-4.551-8.276s1.829-8.276,4.551-8.276s4.551,2.275,4.551,8.276
		S310.937,109.135,308.215,109.135z M308.215,94.055c-1.562,0-2.811,1.339-2.811,6.804c0,5.466,1.25,6.805,2.811,6.805
		s2.811-1.339,2.811-6.805C311.026,95.394,309.777,94.055,308.215,94.055z"/>
</g>
<g enable-background="new    ">
	<path fill="#FFFFFF" d="M320.658,92.806h2.989c3.391,0,5.443,1.874,5.443,8.053c0,6.18-2.053,8.054-5.443,8.054h-2.989V92.806z
		 M322.398,107.439h0.937c2.543,0,4.016-1.07,4.016-6.581c0-5.51-1.473-6.581-4.016-6.581h-0.937V107.439z"/>
</g>
<g enable-background="new    ">
	<path fill="#FFFFFF" d="M339.218,92.806v1.472h-5.621v5.488h4.148v1.473h-4.148v6.201h5.889v1.473h-7.629V92.806H339.218z"/>
</g>
<g enable-background="new    ">
	<path fill="#FFFFFF" d="M329.157,108.912V92.806h7.406v2.409h-4.641v4.149h3.569v2.409h-3.569v4.729h4.953v2.409H329.157z"/>
</g>
<g enable-background="new    ">
	<path fill="#FFFFFF" d="M339.506,108.912V92.806h2.565l3.369,9.213h0.045v-9.213h2.498v16.106h-2.41l-3.523-10.062h-0.045v10.062
		H339.506z"/>
</g>
<g enable-background="new    ">
	<path fill="#FFFFFF" d="M353,95.215h-2.677v-2.409h8.119v2.409h-2.676v13.697H353V95.215z"/>
</g>
<g enable-background="new    ">
	<path fill="#FFFFFF" d="M363.55,108.912h-2.766V92.806h3.881c3.102,0,4.686,1.316,4.686,4.752c0,2.587-1.004,3.636-1.941,4.06
		l2.343,7.295h-2.812l-1.963-6.67c-0.356,0.044-0.937,0.066-1.428,0.066V108.912z M363.55,100.033h0.982
		c1.494,0,2.052-0.558,2.052-2.476c0-1.919-0.558-2.477-2.052-2.477h-0.982V100.033z"/>
</g>
<g enable-background="new    ">
	<path fill="#FFFFFF" d="M372.382,108.912V92.806h7.406v2.409h-4.641v4.149h3.57v2.409h-3.57v4.729h4.953v2.409H372.382z"/>
</g>
<g enable-background="new    ">
	<path fill="#FFFFFF" d="M384.716,95.215h-2.677v-2.409h8.12v2.409h-2.677v13.697h-2.767V95.215z"/>
</g>
<g enable-background="new    ">
	<path fill="#FFFFFF" d="M392.499,108.912V92.806h7.407v2.409h-4.641v4.149h3.569v2.409h-3.569v4.729h4.952v2.409H392.499z"/>
</g>
<g enable-background="new    ">
	<path fill="#FFFFFF" d="M402.848,108.912V92.806h2.565l3.369,9.213h0.045v-9.213h2.498v16.106h-2.41l-3.523-10.062h-0.045v10.062
		H402.848z"/>
</g>
<g enable-background="new    ">
	<path fill="#FFFFFF" d="M414.446,108.912V92.806h2.766v16.106H414.446z"/>
</g>
<g enable-background="new    ">
	<path fill="#FFFFFF" d="M431.489,92.806v16.106h-2.409V96.33h-0.045l-2.499,12.582h-1.338L422.7,96.33h-0.045v12.582h-2.41V92.806
		h3.637l1.963,9.414h0.045l1.963-9.414H431.489z"/>
</g>
<g enable-background="new    ">
	<path fill="#FFFFFF" d="M434.563,108.912V92.806h2.767v16.106H434.563z"/>
</g>
<g enable-background="new    ">
	<path fill="#FFFFFF" d="M440.452,108.912V92.806h7.407v2.409h-4.641v4.149h3.569v2.409h-3.569v4.729h4.952v2.409H440.452z"/>
</g>
<g enable-background="new    ">
	<path fill="#FFFFFF" d="M450.802,108.912V92.806h2.565l3.368,9.213h0.045v-9.213h2.498v16.106h-2.408l-3.525-10.062H453.3v10.062
		H450.802z"/>
</g>
<g enable-background="new    ">
	<path fill="#FFFFFF" d="M464.296,95.215h-2.677v-2.409h8.12v2.409h-2.677v13.697h-2.767V95.215z"/>
</g>
<g enable-background="new    ">
	<path fill="#FFFFFF" d="M472.034,96.709c0-2.275,1.339-4.127,4.239-4.127c2.899,0,4.238,1.852,4.238,4.127v8.299
		c0,2.275-1.339,4.127-4.238,4.127c-2.9,0-4.239-1.852-4.239-4.127V96.709z M474.801,104.941c0,1.204,0.357,1.784,1.473,1.784
		s1.472-0.58,1.472-1.784v-8.165c0-1.205-0.356-1.784-1.472-1.784s-1.473,0.579-1.473,1.784V104.941z"/>
</g>
</svg>
