<?xml version="1.0" encoding="utf-8"?>
<!-- Generator: Adobe Illustrator 16.0.4, SVG Export Plug-In . SVG Version: 6.00 Build 0)  -->
<!DOCTYPE svg PUBLIC "-//W3C//DTD SVG 1.1//EN" "http://www.w3.org/Graphics/SVG/1.1/DTD/svg11.dtd">
<svg version="1.1" id="Isolation_Mode" xmlns="http://www.w3.org/2000/svg" xmlns:xlink="http://www.w3.org/1999/xlink" x="0px"
	 y="0px" width="381px" height="285.346px" viewBox="0 0 381 285.346" enable-background="new 0 0 381 285.346"
	 xml:space="preserve">
<g enable-background="new    ">
	<path d="M68.325,64.295h5.503c3.828,0,5.862,2.093,5.862,6.52v8.554c0,4.426-2.034,6.52-5.862,6.52h-5.503V64.295z M72.033,82.837
		h1.286c1.974,0,2.662-0.747,2.662-3.021v-9.45c0-2.273-0.688-3.021-2.662-3.021h-1.286V82.837z"/>
	<path d="M83.278,69.528c0-3.051,1.794-5.533,5.683-5.533c3.888,0,5.682,2.482,5.682,5.533v11.126c0,3.05-1.794,5.532-5.682,5.532
		c-3.888,0-5.683-2.482-5.683-5.532V69.528z M86.987,80.564c0,1.614,0.479,2.393,1.974,2.393c1.495,0,1.974-0.778,1.974-2.393
		V69.618c0-1.615-0.479-2.393-1.974-2.393c-1.496,0-1.974,0.777-1.974,2.393V80.564z"/>
	<path d="M98.232,64.295h5.503c3.828,0,5.862,2.093,5.862,6.52v8.554c0,4.426-2.034,6.52-5.862,6.52h-5.503V64.295z M101.94,82.837
		h1.286c1.974,0,2.662-0.747,2.662-3.021v-9.45c0-2.273-0.688-3.021-2.662-3.021h-1.286V82.837z"/>
	<path d="M118.3,74.941h6.071v10.946h-1.795l-0.688-1.615c-1.106,1.316-2.004,1.914-3.738,1.914c-2.931,0-4.965-2.094-4.965-5.532
		V69.528c0-3.051,1.794-5.533,5.443-5.533c3.708,0,5.562,2.692,5.562,5.922v1.376h-3.529c0-3.229-0.658-4.067-2.123-4.067
		c-0.897,0-1.645,0.538-1.645,2.362v11.096c0,1.376,0.449,2.273,1.735,2.273c1.495,0,2.033-0.838,2.033-2.991v-2.094H118.3V74.941z"
		/>
</g>
<g enable-background="new    ">
	<path d="M125.149,85.888V64.295h9.929v3.229h-6.221v5.562h4.785v3.23h-4.785v6.34h6.64v3.23H125.149z"/>
</g>
<g enable-background="new    ">
	<path d="M141.925,82.957h0.777c1.436,0,1.944-0.599,1.944-1.795V64.295h3.708v17.286c0,2.752-1.106,4.605-5.204,4.605h-1.226
		V82.957z"/>
	<path d="M151.944,69.528c0-3.051,1.794-5.533,5.683-5.533c3.888,0,5.682,2.482,5.682,5.533v11.126c0,3.05-1.794,5.532-5.682,5.532
		c-3.888,0-5.683-2.482-5.683-5.532V69.528z M155.652,80.564c0,1.614,0.479,2.393,1.974,2.393c1.495,0,1.974-0.778,1.974-2.393
		V69.618c0-1.615-0.479-2.393-1.974-2.393c-1.496,0-1.974,0.777-1.974,2.393V80.564z"/>
	<path d="M166.897,64.295h3.708v16.299c0,1.585,0.628,2.363,1.974,2.363c1.346,0,1.974-0.778,1.974-2.363V64.295h3.708v16.149
		c0,3.709-2.153,5.742-5.683,5.742c-3.529,0-5.682-2.033-5.682-5.742V64.295z"/>
</g>
<g enable-background="new    ">
	<path d="M183.317,85.888h-3.708V64.295h5.204c4.157,0,6.281,1.765,6.281,6.37c0,3.469-1.346,4.875-2.603,5.443l3.141,9.779h-3.769
		l-2.632-8.942c-0.479,0.06-1.256,0.09-1.914,0.09V85.888z M183.317,73.984h1.316c2.004,0,2.751-0.747,2.751-3.319
		s-0.748-3.32-2.751-3.32h-1.316V73.984z"/>
</g>
<g enable-background="new    ">
	<path d="M193.845,85.888V64.295h3.439l4.517,12.352h0.059V64.295h3.35v21.593h-3.229l-4.726-13.488h-0.06v13.488H193.845z"/>
</g>
<g enable-background="new    ">
	<path d="M208.051,85.888V64.295h9.93v3.229h-6.221v5.562h4.785v3.23h-4.785v6.34h6.639v3.23H208.051z"/>
</g>
<g enable-background="new    ">
	<path d="M227.311,85.888h-3.709v-8.973l-4.486-12.62h3.769l2.603,8.225h0.059l2.482-8.225h3.769l-4.485,12.62V85.888z"/>
</g>
<g enable-background="new    ">
	<path d="M68.325,215.058v-21.593h9.929v3.229h-6.221v5.562h4.785v3.23h-4.785v6.34h6.64v3.23H68.325z"/>
	<path d="M88.362,198.788c-0.15-1.854-1.137-2.393-1.974-2.393c-1.196,0-1.854,0.777-1.854,2.123c0,3.679,7.536,5.443,7.536,11.306
		c0,3.559-2.393,5.532-5.861,5.532c-3.439,0-5.414-2.751-5.563-5.981l3.529-0.508c0.15,2.183,1.017,3.26,2.213,3.26
		c1.286,0,2.153-0.688,2.153-1.974c0-4.277-7.537-5.414-7.537-11.604c0-3.439,2.094-5.384,5.742-5.384
		c3.021,0,4.815,2.184,5.144,5.234L88.362,198.788z"/>
</g>
<g enable-background="new    ">
	<path d="M93.446,198.698c0-3.051,1.794-5.533,5.682-5.533c3.888,0,5.683,2.482,5.683,5.533v11.126c0,3.05-1.794,5.532-5.683,5.532
		c-3.888,0-5.682-2.482-5.682-5.532V198.698z M97.154,209.734c0,1.614,0.479,2.393,1.974,2.393c1.496,0,1.974-0.778,1.974-2.393
		v-10.946c0-1.615-0.479-2.393-1.974-2.393c-1.495,0-1.974,0.777-1.974,2.393V209.734z"/>
</g>
<g enable-background="new    ">
	<path d="M114.291,215.058v-21.593h9.929v3.229H118v5.562h4.785v3.23H118v6.34h6.639v3.23H114.291z"/>
	<path d="M134.328,198.788c-0.149-1.854-1.136-2.393-1.974-2.393c-1.196,0-1.854,0.777-1.854,2.123
		c0,3.679,7.537,5.443,7.537,11.306c0,3.559-2.393,5.532-5.862,5.532c-3.439,0-5.413-2.751-5.562-5.981l3.529-0.508
		c0.149,2.183,1.017,3.26,2.213,3.26c1.286,0,2.153-0.688,2.153-1.974c0-4.277-7.537-5.414-7.537-11.604
		c0-3.439,2.093-5.384,5.742-5.384c3.021,0,4.815,2.184,5.144,5.234L134.328,198.788z"/>
</g>
<g enable-background="new    ">
	<path d="M144.615,215.058v-21.593h5.324c4.576,0,6.699,1.765,6.699,6.37s-2.124,6.37-6.699,6.37h-1.615v8.853H144.615z
		 M148.323,203.154h1.436c2.422,0,3.17-0.747,3.17-3.319s-0.748-3.32-3.17-3.32h-1.436V203.154z"/>
</g>
<g enable-background="new    ">
	<path d="M158.821,215.058v-21.593h9.929v3.229h-6.221v5.562h4.785v3.23h-4.785v6.34h6.64v3.23H158.821z"/>
</g>
<g enable-background="new    ">
	<path d="M175.09,215.058h-3.708v-21.593h5.204c4.157,0,6.281,1.765,6.281,6.37c0,3.469-1.346,4.875-2.602,5.443l3.141,9.779h-3.769
		l-2.632-8.942c-0.479,0.06-1.256,0.09-1.914,0.09V215.058z M175.09,203.154h1.316c2.004,0,2.751-0.747,2.751-3.319
		s-0.748-3.32-2.751-3.32h-1.316V203.154z"/>
</g>
<g enable-background="new    ">
	<path d="M185.588,215.058v-21.593h10.348v3.229h-6.639v5.562h4.965v3.23h-4.965v9.57H185.588z"/>
	<path d="M198.866,198.698c0-3.051,1.794-5.533,5.683-5.533c3.888,0,5.682,2.482,5.682,5.533v11.126c0,3.05-1.794,5.532-5.682,5.532
		c-3.889,0-5.683-2.482-5.683-5.532V198.698z M202.574,209.734c0,1.614,0.479,2.393,1.975,2.393c1.495,0,1.974-0.778,1.974-2.393
		v-10.946c0-1.615-0.479-2.393-1.974-2.393c-1.496,0-1.975,0.777-1.975,2.393V209.734z"/>
</g>
<g enable-background="new    ">
	<path d="M216.094,215.058h-3.709v-21.593h5.203c4.158,0,6.281,1.765,6.281,6.37c0,3.469-1.346,4.875-2.602,5.443l3.141,9.779h-3.77
		l-2.631-8.942c-0.479,0.06-1.256,0.09-1.914,0.09V215.058z M216.094,203.154h1.315c2.004,0,2.751-0.747,2.751-3.319
		s-0.747-3.32-2.751-3.32h-1.315V203.154z"/>
	<path d="M242.202,193.465v21.593h-3.229V198.19h-0.061l-3.35,16.867h-1.794l-3.35-16.867h-0.06v16.867h-3.23v-21.593h4.875
		l2.632,12.62h0.06l2.633-12.62H242.202z"/>
</g>
<g enable-background="new    ">
	<path d="M246.27,215.058h-3.59l3.979-21.593h4.605l3.978,21.593h-3.589l-0.658-4.785h-4.067L246.27,215.058z M247.465,207.042
		h2.991l-1.466-9.271h-0.06L247.465,207.042z"/>
	<path d="M257.395,215.058v-21.593h3.439l4.516,12.352h0.06v-12.352h3.35v21.593h-3.229l-4.726-13.488h-0.06v13.488H257.395z"/>
</g>
<g enable-background="new    ">
	<path d="M278.389,200.672v-1.675c0-1.824-0.838-2.602-1.795-2.602c-1.495,0-1.974,0.777-1.974,2.393v10.946
		c0,1.614,0.479,2.393,1.974,2.393c1.346,0,1.795-0.778,1.795-2.184v-2.602h3.708v2.482c0,3.05-1.794,5.532-5.503,5.532
		c-3.888,0-5.682-2.482-5.682-5.532v-11.126c0-3.051,1.794-5.533,5.682-5.533c3.709,0,5.503,2.692,5.503,5.922v1.585H278.389z"/>
</g>
<g enable-background="new    ">
	<path d="M285.117,215.058v-21.593h9.93v3.229h-6.221v5.562h4.785v3.23h-4.785v6.34h6.64v3.23H285.117z"/>
</g>
<g enable-background="new    ">
	<path d="M297.439,215.058v-3.529h3.529v3.529H297.439z"/>
</g>
<g enable-background="new    ">
	<path d="M68.431,133.432V97.648h8.822c7.583,0,11.102,2.925,11.102,10.557c0,7.633-3.519,10.557-11.102,10.557h-2.676v14.67H68.431
		z M74.576,113.707h2.379c4.015,0,5.253-1.239,5.253-5.502c0-4.262-1.239-5.501-5.253-5.501h-2.379V113.707z"/>
	<path d="M95.791,133.432h-5.947l6.591-35.783h7.633l6.591,35.783h-5.947l-1.09-7.93h-6.74L95.791,133.432z M97.773,120.149h4.956
		l-2.428-15.364h-0.1L97.773,120.149z"/>
</g>
<g enable-background="new    ">
	<path d="M118.986,133.432h-6.146V97.648h8.624c6.889,0,10.408,2.925,10.408,10.557c0,5.749-2.23,8.078-4.312,9.021l5.204,16.206
		h-6.245l-4.361-14.818c-0.793,0.099-2.082,0.148-3.172,0.148V133.432z M118.986,113.707h2.181c3.32,0,4.56-1.239,4.56-5.502
		c0-4.262-1.239-5.501-4.56-5.501h-2.181V113.707z"/>
</g>
<g enable-background="new    ">
	<path d="M139.953,133.432h-5.947l6.592-35.783h7.632l6.592,35.783h-5.947l-1.09-7.93h-6.74L139.953,133.432z M141.936,120.149
		h4.956l-2.429-15.364h-0.099L141.936,120.149z"/>
	<path d="M170.979,103.002h-5.947v-5.354h18.04v5.354h-5.947v30.43h-6.146V103.002z"/>
	<path d="M186.543,133.432V97.648h6.146v35.783H186.543z"/>
	<path d="M219.602,133.432h-6.146v-14.868l-7.435-20.915h6.245l4.312,13.63h0.1l4.113-13.63h6.244l-7.434,20.915V133.432z"/>
	<path d="M239.526,133.432V97.648h6.146v14.571h6.542V97.648h6.146v35.783h-6.146v-15.859h-6.542v15.859H239.526z"/>
	<path d="M266.887,133.432h-5.947l6.591-35.783h7.633l6.591,35.783h-5.947l-1.09-7.93h-6.74L266.887,133.432z M268.869,120.149
		h4.955l-2.428-15.364h-0.1L268.869,120.149z"/>
	<path d="M295.533,106.471c-0.247-3.072-1.883-3.965-3.271-3.965c-1.982,0-3.073,1.289-3.073,3.519
		c0,6.097,12.49,9.021,12.49,18.734c0,5.897-3.965,9.169-9.715,9.169c-5.699,0-8.97-4.561-9.218-9.912l5.849-0.843
		c0.247,3.618,1.685,5.401,3.667,5.401c2.131,0,3.568-1.14,3.568-3.271c0-7.087-12.489-8.971-12.489-19.229
		c0-5.699,3.469-8.921,9.516-8.921c5.006,0,7.979,3.618,8.524,8.673L295.533,106.471z"/>
</g>
<g enable-background="new    ">
	<path d="M306.934,103.002h-5.947v-5.354h18.039v5.354h-5.947v30.43h-6.145V103.002z"/>
</g>
<g enable-background="new    ">
	<path d="M324.132,133.432h-5.947l6.592-35.783h7.632L339,133.432h-5.947l-1.09-7.93h-6.74L324.132,133.432z M326.114,120.149h4.956
		l-2.429-15.364h-0.099L326.114,120.149z"/>
</g>
<g enable-background="new    ">
	<path d="M79.086,153.264v-1.834c0-2.329-0.793-3.42-2.626-3.42s-2.875,1.091-2.875,3.42v8.376c1.586-1.586,2.577-2.379,5.055-2.379
		c3.568,0,6.542,2.081,6.542,7.335v4.262c0,7.533-2.577,10.904-8.723,10.904s-8.723-3.073-8.723-9.813v-17.147
		c0-6.74,2.577-9.813,8.723-9.813c4.857-0.099,7.979,3.37,7.979,7.93v2.181H79.086z M73.585,171.65c0,2.33,1.041,3.42,2.875,3.42
		s2.875-1.09,2.875-3.42v-5.947c0-2.329-1.041-3.42-2.577-3.42c-1.09,0-2.429,1.041-3.172,1.636V171.65z"/>
	<path d="M111.847,155.593v-2.775c0-3.022-1.388-4.312-2.974-4.312c-2.478,0-3.271,1.289-3.271,3.965v18.139
		c0,2.677,0.793,3.965,3.271,3.965c2.23,0,2.974-1.288,2.974-3.617v-4.312h6.146v4.114c0,5.055-2.974,9.169-9.119,9.169
		c-6.443,0-9.417-4.114-9.417-9.169v-18.437c0-5.056,2.974-9.169,9.417-9.169c6.146,0,9.119,4.46,9.119,9.813v2.626H111.847z"/>
</g>
<g enable-background="new    ">
	<path d="M122.654,152.322c0-5.056,2.974-9.169,9.417-9.169s9.417,4.113,9.417,9.169v18.437c0,5.055-2.974,9.169-9.417,9.169
		s-9.417-4.114-9.417-9.169V152.322z M128.799,170.609c0,2.677,0.793,3.965,3.271,3.965s3.271-1.288,3.271-3.965v-18.139
		c0-2.676-0.793-3.965-3.271-3.965s-3.271,1.289-3.271,3.965V170.609z"/>
</g>
<g enable-background="new    ">
	<path d="M146.198,179.432v-35.783h8.822c7.583,0,11.102,2.925,11.102,10.557c0,7.633-3.519,10.557-11.102,10.557h-2.676v14.67
		H146.198z M152.343,159.707h2.379c4.015,0,5.253-1.239,5.253-5.502c0-4.262-1.239-5.501-5.253-5.501h-2.379V159.707z"/>
	<path d="M170.832,179.432v-35.783h6.146v35.783H170.832z"/>
	<path d="M182.479,179.432v-35.783h6.146v30.431h9.664v5.353H182.479z"/>
</g>
<g enable-background="new    ">
	<path d="M200.472,152.322c0-5.056,2.974-9.169,9.417-9.169c6.442,0,9.416,4.113,9.416,9.169v18.437
		c0,5.055-2.974,9.169-9.416,9.169c-6.443,0-9.417-4.114-9.417-9.169V152.322z M206.617,170.609c0,2.677,0.793,3.965,3.271,3.965
		c2.478,0,3.271-1.288,3.271-3.965v-18.139c0-2.676-0.793-3.965-3.271-3.965c-2.479,0-3.271,1.289-3.271,3.965V170.609z"/>
</g>
<g enable-background="new    ">
	<path d="M227.583,149.002h-5.947v-5.354h18.04v5.354h-5.947v30.43h-6.146V149.002z"/>
	<path d="M242.304,152.322c0-5.056,2.974-9.169,9.417-9.169c6.442,0,9.416,4.113,9.416,9.169v18.437
		c0,5.055-2.974,9.169-9.416,9.169c-6.443,0-9.417-4.114-9.417-9.169V152.322z M248.449,170.609c0,2.677,0.793,3.965,3.271,3.965
		c2.478,0,3.271-1.288,3.271-3.965v-18.139c0-2.676-0.793-3.965-3.271-3.965c-2.479,0-3.271,1.289-3.271,3.965V170.609z"/>
	<path d="M277.296,152.471c-0.248-3.072-1.884-3.965-3.271-3.965c-1.982,0-3.073,1.289-3.073,3.519
		c0,6.097,12.489,9.021,12.489,18.734c0,5.897-3.965,9.169-9.714,9.169c-5.699,0-8.971-4.561-9.218-9.912l5.848-0.843
		c0.248,3.618,1.686,5.401,3.668,5.401c2.131,0,3.568-1.14,3.568-3.271c0-7.087-12.49-8.971-12.49-19.229
		c0-5.699,3.47-8.921,9.516-8.921c5.006,0,7.979,3.618,8.525,8.673L277.296,152.471z"/>
</g>
<g enable-background="new    ">
	<path d="M286.119,179.432v-5.848h5.848v5.848H286.119z"/>
</g>
</svg>
