<?xml version="1.0" encoding="utf-8"?>
<!-- Generator: Adobe Illustrator 16.0.4, SVG Export Plug-In . SVG Version: 6.00 Build 0)  -->
<!DOCTYPE svg PUBLIC "-//W3C//DTD SVG 1.1//EN" "http://www.w3.org/Graphics/SVG/1.1/DTD/svg11.dtd">
<svg version="1.1" id="Layer_1" xmlns="http://www.w3.org/2000/svg" xmlns:xlink="http://www.w3.org/1999/xlink" x="0px" y="0px"
	 width="405.778px" height="180.667px" viewBox="0 0 405.778 180.667" enable-background="new 0 0 405.778 180.667"
	 xml:space="preserve">
<g enable-background="new    ">
	<path d="M63.97,50.693h9.523c6.625,0,10.145,3.623,10.145,11.283v14.803c0,7.66-3.52,11.283-10.145,11.283H63.97V50.693z
		 M70.388,82.783h2.226c3.416,0,4.606-1.294,4.606-5.228V61.2c0-3.934-1.19-5.228-4.606-5.228h-2.226V82.783z"/>
	<path d="M88.868,59.75c0-5.279,3.105-9.575,9.834-9.575s9.834,4.296,9.834,9.575v19.254c0,5.279-3.105,9.575-9.834,9.575
		s-9.834-4.296-9.834-9.575V59.75z M95.286,78.849c0,2.795,0.828,4.141,3.416,4.141s3.416-1.346,3.416-4.141V59.906
		c0-2.795-0.828-4.141-3.416-4.141s-3.416,1.346-3.416,4.141V78.849z"/>
	<path d="M113.767,50.693h9.523c6.625,0,10.145,3.623,10.145,11.283v14.803c0,7.66-3.52,11.283-10.145,11.283h-9.523V50.693z
		 M120.185,82.783h2.226c3.416,0,4.606-1.294,4.606-5.228V61.2c0-3.934-1.19-5.228-4.606-5.228h-2.226V82.783z"/>
	<path d="M147.516,69.119h10.507v18.943h-3.105l-1.19-2.795c-1.915,2.277-3.468,3.312-6.47,3.312c-5.072,0-8.592-3.623-8.592-9.575
		V59.75c0-5.279,3.105-9.575,9.42-9.575c6.418,0,9.627,4.658,9.627,10.248v2.381h-6.107c0-5.59-1.139-7.039-3.675-7.039
		c-1.553,0-2.847,0.932-2.847,4.089v19.202c0,2.381,0.776,3.934,3.002,3.934c2.588,0,3.52-1.449,3.52-5.176v-3.623h-4.089V69.119z"
		/>
</g>
<g enable-background="new    ">
	<path d="M162.323,88.062V50.693h17.184v5.59h-10.766v9.627h8.281v5.59h-8.281v10.973h11.49v5.59H162.323z"/>
</g>
<g enable-background="new    ">
	<path d="M191.36,82.99h1.346c2.484,0,3.364-1.035,3.364-3.105V50.693h6.418v29.916c0,4.762-1.915,7.971-9.006,7.971h-2.122V82.99z"
		/>
	<path d="M207.717,59.75c0-5.279,3.105-9.575,9.834-9.575s9.834,4.296,9.834,9.575v19.254c0,5.279-3.105,9.575-9.834,9.575
		s-9.834-4.296-9.834-9.575V59.75z M214.135,78.849c0,2.795,0.828,4.141,3.416,4.141s3.416-1.346,3.416-4.141V59.906
		c0-2.795-0.828-4.141-3.416-4.141s-3.416,1.346-3.416,4.141V78.849z"/>
	<path d="M232.616,50.693h6.418v28.208c0,2.743,1.088,4.089,3.416,4.089c2.33,0,3.416-1.346,3.416-4.089V50.693h6.418v27.949
		c0,6.418-3.727,9.938-9.834,9.938s-9.834-3.52-9.834-9.938V50.693z"/>
</g>
<g enable-background="new    ">
	<path d="M263.002,88.062h-6.418V50.693h9.006c7.193,0,10.869,3.054,10.869,11.024c0,6.004-2.33,8.437-4.504,9.42l5.436,16.925
		h-6.521l-4.555-15.476c-0.828,0.104-2.174,0.155-3.312,0.155V88.062z M263.002,67.462h2.277c3.467,0,4.762-1.294,4.762-5.745
		s-1.295-5.745-4.762-5.745h-2.277V67.462z"/>
</g>
<g enable-background="new    ">
	<path d="M281.223,88.062V50.693h5.951l7.816,21.376h0.104V50.693h5.797v37.369h-5.59l-8.178-23.343h-0.104v23.343H281.223z"/>
</g>
<g enable-background="new    ">
	<path d="M305.811,88.062V50.693h17.184v5.59h-10.766v9.627h8.281v5.59h-8.281v10.973h11.49v5.59H305.811z"/>
</g>
<g enable-background="new    ">
	<path d="M339.145,88.062h-6.418V72.535l-7.764-21.842h6.521l4.504,14.233h0.104l4.295-14.233h6.521l-7.764,21.842V88.062z"/>
</g>
<g enable-background="new    ">
	<path d="M62.764,131.765V95.982h16.454v5.354H68.91v9.218h7.93v5.353h-7.93v10.507h11.002v5.353H62.764z"/>
	<path d="M83.482,131.765V95.982h6.146v30.431h9.664v5.353H83.482z"/>
	<path d="M102.911,131.765V95.982h6.146v35.783H102.911z"/>
	<path d="M123.332,113.626h10.061v18.139h-2.974l-1.14-2.676c-1.834,2.18-3.321,3.172-6.195,3.172c-4.857,0-8.227-3.47-8.227-9.169
		v-18.437c0-5.056,2.974-9.169,9.02-9.169c6.146,0,9.218,4.46,9.218,9.813v2.279h-5.848c0-5.353-1.09-6.74-3.519-6.74
		c-1.487,0-2.726,0.893-2.726,3.915v18.388c0,2.279,0.744,3.766,2.875,3.766c2.478,0,3.37-1.387,3.37-4.955v-3.47h-3.915V113.626z"
		/>
	<path d="M139.491,131.765V95.982h6.146v35.783H139.491z"/>
	<path d="M157.581,131.765h-6.146V95.982h8.624c6.889,0,10.408,2.925,10.408,10.557c0,5.749-2.23,8.078-4.312,9.021l5.204,16.206
		h-6.245l-4.361-14.818c-0.793,0.099-2.082,0.148-3.172,0.148V131.765z M157.581,112.041h2.181c3.321,0,4.56-1.239,4.56-5.502
		c0-4.262-1.239-5.501-4.56-5.501h-2.181V112.041z"/>
	<path d="M185.239,131.765V95.982h16.454v5.354h-10.309v9.218h7.93v5.353h-7.93v10.507h11.002v5.353H185.239z"/>
	<path d="M205.956,131.765V95.982h6.146v30.431h9.664v5.353H205.956z"/>
	<path d="M246.944,107.926v-2.775c0-3.022-1.387-4.312-2.973-4.312c-2.479,0-3.271,1.289-3.271,3.965v18.139
		c0,2.677,0.793,3.965,3.271,3.965c2.229,0,2.973-1.288,2.973-3.617v-4.312h6.146v4.114c0,5.055-2.975,9.169-9.119,9.169
		c-6.443,0-9.417-4.114-9.417-9.169v-18.437c0-5.056,2.974-9.169,9.417-9.169c6.145,0,9.119,4.46,9.119,9.813v2.626H246.944z"/>
	<path d="M258.346,104.656c0-5.056,2.973-9.169,9.416-9.169s9.416,4.113,9.416,9.169v18.437c0,5.055-2.973,9.169-9.416,9.169
		s-9.416-4.114-9.416-9.169V104.656z M264.491,122.943c0,2.677,0.793,3.965,3.271,3.965s3.271-1.288,3.271-3.965v-18.139
		c0-2.676-0.793-3.965-3.271-3.965s-3.271,1.289-3.271,3.965V122.943z"/>
	<path d="M281.84,131.765V95.982h6.145v30.431h9.665v5.353H281.84z"/>
	<path d="M300.426,104.656c0-5.056,2.974-9.169,9.416-9.169c6.443,0,9.417,4.113,9.417,9.169v18.437
		c0,5.055-2.974,9.169-9.417,9.169c-6.442,0-9.416-4.114-9.416-9.169V104.656z M306.572,122.943c0,2.677,0.793,3.965,3.271,3.965
		c2.479,0,3.271-1.288,3.271-3.965v-18.139c0-2.676-0.793-3.965-3.271-3.965c-2.478,0-3.271,1.289-3.271,3.965V122.943z"/>
	<path d="M330.364,131.765h-6.146V95.982h8.624c6.889,0,10.407,2.925,10.407,10.557c0,5.749-2.229,8.078-4.312,9.021l5.204,16.206
		h-6.244l-4.361-14.818c-0.793,0.099-2.082,0.148-3.172,0.148V131.765z M330.364,112.041h2.18c3.321,0,4.561-1.239,4.561-5.502
		c0-4.262-1.239-5.501-4.561-5.501h-2.18V112.041z"/>
</g>
</svg>
