<?xml version="1.0" encoding="utf-8"?>
<!-- Generator: Adobe Illustrator 16.0.0, SVG Export Plug-In . SVG Version: 6.00 Build 0)  -->
<!DOCTYPE svg PUBLIC "-//W3C//DTD SVG 1.1//EN" "http://www.w3.org/Graphics/SVG/1.1/DTD/svg11.dtd">
<svg version="1.1" id="Layer_1" xmlns="http://www.w3.org/2000/svg" xmlns:xlink="http://www.w3.org/1999/xlink" x="0px" y="0px"
	 width="116.387px" height="32.281px" viewBox="0 0 116.387 32.281" enable-background="new 0 0 116.387 32.281"
	 xml:space="preserve">
<g>
	<g>
		<defs>
			<rect id="SVGID_1_" x="0" width="116.387" height="32.281"/>
		</defs>
		<clipPath id="SVGID_2_">
			<use xlink:href="#SVGID_1_"  overflow="visible"/>
		</clipPath>
		<path clip-path="url(#SVGID_2_)" fill="#FFFFFF" d="M13.818,14.201H8.215c-0.624,0-0.825-0.383-0.825-0.905
			C7.391,12.874,7.389,0,7.389,0h-1.97v15.109c0,0.635,0.549,1.053,0.953,1.053h7.446L13.818,14.201L13.818,14.201z"/>
	</g>
	<g>
		<defs>
			<rect id="SVGID_3_" x="0" width="116.387" height="32.281"/>
		</defs>
		<clipPath id="SVGID_4_">
			<use xlink:href="#SVGID_3_"  overflow="visible"/>
		</clipPath>
		<path clip-path="url(#SVGID_4_)" fill="#FFFFFF" d="M13.819,16.912v1.967H3.871c-0.682,0-1.153-0.508-1.153-1.166
			C2.725,16.937,2.718,0,2.718,0H4.68v15.689c0,0.689,0.299,1.223,1.138,1.223H13.819z"/>
	</g>
	<g>
		<defs>
			<rect id="SVGID_5_" x="0" width="116.387" height="32.281"/>
		</defs>
		<clipPath id="SVGID_6_">
			<use xlink:href="#SVGID_5_"  overflow="visible"/>
		</clipPath>
		<path clip-path="url(#SVGID_6_)" fill="#FFFFFF" d="M0,0h1.971v18.263c0,0.662,0.331,1.359,1.297,1.359h10.551v1.963H2.342
			C1.034,21.585,0,20.5,0,19.207V0z"/>
	</g>
	<g>
		<defs>
			<rect id="SVGID_7_" x="0" width="116.387" height="32.281"/>
		</defs>
		<clipPath id="SVGID_8_">
			<use xlink:href="#SVGID_7_"  overflow="visible"/>
		</clipPath>
		<path clip-path="url(#SVGID_8_)" fill="#FFFFFF" d="M8.126,0h1.972v10.724c0,0.39,0.177,0.763,0.737,0.763h2.983v1.967h-4.69
			c-0.721,0-1.002-0.458-1.002-0.98V0z"/>
	</g>
	<g>
		<defs>
			<rect id="SVGID_9_" x="0" width="116.387" height="32.281"/>
		</defs>
		<clipPath id="SVGID_10_">
			<use xlink:href="#SVGID_9_"  overflow="visible"/>
		</clipPath>
		<path clip-path="url(#SVGID_10_)" fill="#FFFFFF" d="M10.845,7.384h5.604c0.623,0,0.823,0.383,0.823,0.905
			c0,0.423,0.003,13.296,0.003,13.296h1.97V6.476c0-0.635-0.549-1.053-0.953-1.053h-7.447L10.845,7.384z"/>
	</g>
	<g>
		<defs>
			<rect id="SVGID_11_" x="0" width="116.387" height="32.281"/>
		</defs>
		<clipPath id="SVGID_12_">
			<use xlink:href="#SVGID_11_"  overflow="visible"/>
		</clipPath>
		<path clip-path="url(#SVGID_12_)" fill="#FFFFFF" d="M10.844,4.674V2.708h9.948c0.681,0,1.152,0.509,1.152,1.167
			c-0.008,0.773,0,17.71,0,17.71h-1.962V5.896c0-0.689-0.3-1.222-1.139-1.222H10.844z"/>
	</g>
	<g>
		<defs>
			<rect id="SVGID_13_" x="0" width="116.387" height="32.281"/>
		</defs>
		<clipPath id="SVGID_14_">
			<use xlink:href="#SVGID_13_"  overflow="visible"/>
		</clipPath>
		<path clip-path="url(#SVGID_14_)" fill="#FFFFFF" d="M24.663,21.585h-1.973V3.322c0-0.662-0.331-1.361-1.296-1.361H10.844V0H22.32
			c1.31,0,2.344,1.085,2.344,2.379V21.585z"/>
	</g>
	<g>
		<defs>
			<rect id="SVGID_15_" x="0" width="116.387" height="32.281"/>
		</defs>
		<clipPath id="SVGID_16_">
			<use xlink:href="#SVGID_15_"  overflow="visible"/>
		</clipPath>
		<path clip-path="url(#SVGID_16_)" fill="#FFFFFF" d="M16.537,21.585h-1.973V10.862c0-0.391-0.178-0.763-0.736-0.763h-2.983V8.13
			h4.69c0.721,0,1.002,0.459,1.002,0.982V21.585z"/>
	</g>
	<g>
		<defs>
			<rect id="SVGID_17_" x="0" width="116.387" height="32.281"/>
		</defs>
		<clipPath id="SVGID_18_">
			<use xlink:href="#SVGID_17_"  overflow="visible"/>
		</clipPath>
		<path clip-path="url(#SVGID_18_)" fill="#FFFFFF" d="M69.909,12.253c0-0.672,0.511-1.215,1.181-1.215h1.763V9.052h-2.09
			c-1.587,0-2.842,1.287-2.842,2.874v9.66h1.991L69.909,12.253z"/>
	</g>
</g>
<rect x="38.949" y="9.016" fill="#FFFFFF" width="1.99" height="12.567"/>
<g>
	<g>
		<defs>
			<rect id="SVGID_19_" x="0" width="116.387" height="32.281"/>
		</defs>
		<clipPath id="SVGID_20_">
			<use xlink:href="#SVGID_19_"  overflow="visible"/>
		</clipPath>
		<path clip-path="url(#SVGID_20_)" fill="#FFFFFF" d="M79.222,10.397c2.568,0,4.657,2.089,4.657,4.656
			c0,2.568-2.089,4.658-4.657,4.658s-4.654-2.09-4.654-4.658C74.568,12.486,76.653,10.397,79.222,10.397 M90.53,10.397
			c2.568,0,4.657,2.089,4.657,4.656c0,2.568-2.089,4.658-4.657,4.658c-2.566,0-4.655-2.09-4.655-4.658
			C85.874,12.486,87.963,10.397,90.53,10.397 M101.84,10.397c2.565,0,4.654,2.089,4.654,4.656c0,2.568-2.089,4.658-4.654,4.658
			c-2.567,0-4.657-2.09-4.657-4.658C97.183,12.486,99.272,10.397,101.84,10.397 M72.577,26.402h2.009v-6.593
			c1.195,1.167,2.831,1.886,4.636,1.886c2.389,0,4.484-1.261,5.655-3.154c1.17,1.895,3.264,3.154,5.652,3.154
			c2.39,0,4.485-1.261,5.653-3.154c1.171,1.895,3.266,3.154,5.656,3.154c3.669,0,6.642-2.973,6.642-6.642
			c0-3.669-2.973-6.644-6.642-6.644c-2.393,0-4.485,1.264-5.656,3.159c-1.168-1.895-3.265-3.159-5.653-3.159
			c-2.39,0-4.482,1.265-5.652,3.159c-1.171-1.894-3.268-3.159-5.655-3.159c-3.669,0-6.645,2.975-6.645,6.644V26.402z"/>
	</g>
	<g>
		<defs>
			<rect id="SVGID_21_" x="0" width="116.387" height="32.281"/>
		</defs>
		<clipPath id="SVGID_22_">
			<use xlink:href="#SVGID_21_"  overflow="visible"/>
		</clipPath>
		<path clip-path="url(#SVGID_22_)" fill="#FFFFFF" d="M60.296,10.327c2.005,0,3.827,1.275,4.491,3.265H55.8
			C56.463,11.602,58.29,10.327,60.296,10.327 M60.296,21.626c3.056,0,5.666-2.058,6.384-5.017h-1.925
			c-0.664,1.896-2.448,3.171-4.459,3.171c-2.442,0-4.476-1.842-4.713-4.341h11.286v-0.388c0-3.623-2.95-6.573-6.572-6.573
			c-3.625,0-6.575,2.95-6.575,6.573C53.721,18.675,56.671,21.626,60.296,21.626"/>
	</g>
</g>
<polygon fill="#FFFFFF" points="49.334,21.583 54.321,9.016 52.049,9.016 48.036,19.13 44.023,9.016 41.754,9.016 46.738,21.583 "/>
<rect x="109.466" y="4.71" fill="#FFFFFF" width="1.992" height="16.874"/>
<g>
	<g>
		<defs>
			<rect id="SVGID_23_" x="0" width="116.387" height="32.281"/>
		</defs>
		<clipPath id="SVGID_24_">
			<use xlink:href="#SVGID_23_"  overflow="visible"/>
		</clipPath>
		<path clip-path="url(#SVGID_24_)" fill="#FFFFFF" d="M32.104,4.71v13.711c0.006,0.682,0.399,1.215,1.179,1.215h4.894v1.945
			l-6.743-0.002c-0.85,0-1.344-0.519-1.344-1.271V4.71H32.104z"/>
	</g>
	<g>
		<defs>
			<rect id="SVGID_25_" x="0" width="116.387" height="32.281"/>
		</defs>
		<clipPath id="SVGID_26_">
			<use xlink:href="#SVGID_25_"  overflow="visible"/>
		</clipPath>
		<path clip-path="url(#SVGID_26_)" fill="#FFFFFF" d="M115.058,5.953c0.174,0,0.291-0.067,0.291-0.214
			c0-0.129-0.104-0.21-0.253-0.21h-0.366v0.424H115.058z M114.501,5.338h0.623c0.349,0,0.466,0.217,0.466,0.368
			c0,0.229-0.162,0.393-0.4,0.407v0.008c0.122,0.041,0.209,0.162,0.326,0.35l0.172,0.275h-0.275l-0.125-0.22
			c-0.182-0.316-0.247-0.379-0.42-0.379h-0.138v0.599h-0.229V5.338z M115.074,4.928c-0.604,0-1.092,0.487-1.092,1.093
			c0,0.603,0.488,1.094,1.092,1.094c0.604,0,1.097-0.491,1.097-1.094C116.171,5.415,115.68,4.928,115.074,4.928 M115.074,7.334
			c-0.726,0-1.309-0.588-1.309-1.313c0-0.727,0.583-1.309,1.309-1.309c0.727,0,1.312,0.582,1.312,1.309
			C116.387,6.746,115.801,7.334,115.074,7.334"/>
	</g>
</g>
<rect x="38.947" y="4.71" fill="#FFFFFF" width="1.993" height="2.015"/>
<g>
	<g>
		<defs>
			<rect id="SVGID_27_" x="0" width="116.387" height="32.281"/>
		</defs>
		<clipPath id="SVGID_28_">
			<use xlink:href="#SVGID_27_"  overflow="visible"/>
		</clipPath>
		<path clip-path="url(#SVGID_28_)" fill="#FFFFFF" d="M50.179,29.518c0.39-0.019,0.723-0.11,1.001-0.281
			c0.278-0.169,0.416-0.364,0.416-0.589c0-0.199-0.104-0.3-0.318-0.3c-0.252,0-0.483,0.11-0.698,0.342
			C50.365,28.916,50.229,29.193,50.179,29.518 M50.156,29.742c0,0.459,0.231,0.686,0.694,0.686c0.399,0,0.84-0.157,1.322-0.479
			c0.482-0.32,0.917-0.74,1.304-1.264l0.237,0.111c-0.364,0.57-0.836,1.043-1.422,1.418c-0.582,0.377-1.136,0.562-1.658,0.562
			c-0.337,0-0.601-0.09-0.795-0.271c-0.195-0.18-0.291-0.428-0.291-0.742c0-0.454,0.176-0.844,0.53-1.164
			c0.35-0.321,0.773-0.48,1.271-0.48c0.238,0,0.432,0.047,0.576,0.152c0.144,0.102,0.217,0.234,0.217,0.406
			c0,0.279-0.199,0.527-0.6,0.744C51.138,29.634,50.677,29.742,50.156,29.742"/>
	</g>
	<g>
		<defs>
			<rect id="SVGID_29_" x="0" width="116.387" height="32.281"/>
		</defs>
		<clipPath id="SVGID_30_">
			<use xlink:href="#SVGID_29_"  overflow="visible"/>
		</clipPath>
		<path clip-path="url(#SVGID_30_)" fill="#FFFFFF" d="M54.124,30.105c-0.547,0.247-0.82,0.438-0.82,0.576
			c0,0.126,0.111,0.189,0.331,0.189c0.165,0,0.3-0.045,0.399-0.139c0.104-0.093,0.153-0.213,0.153-0.361
			C54.188,30.285,54.167,30.194,54.124,30.105 M54.599,29.892c0.062,0.117,0.095,0.234,0.095,0.34c0,0.241-0.118,0.449-0.356,0.627
			c-0.239,0.176-0.517,0.266-0.838,0.266c-0.187,0-0.35-0.041-0.48-0.123c-0.133-0.082-0.198-0.18-0.198-0.291
			c0-0.125,0.092-0.246,0.273-0.371c0.18-0.125,0.483-0.271,0.91-0.446l-0.225-0.3c-0.27-0.369-0.405-0.653-0.405-0.861
			c0-0.296,0.204-0.535,0.616-0.719c0.252,0.08,0.38,0.184,0.38,0.306c0,0.177-0.162,0.345-0.483,0.507l0.318,0.492l0.249,0.381
			c0.356-0.179,0.623-0.332,0.805-0.461c0.179-0.126,0.41-0.322,0.683-0.589l0.223,0.116C55.764,29.212,55.241,29.587,54.599,29.892
			"/>
	</g>
	<g>
		<defs>
			<rect id="SVGID_31_" x="0" width="116.387" height="32.281"/>
		</defs>
		<clipPath id="SVGID_32_">
			<use xlink:href="#SVGID_31_"  overflow="visible"/>
		</clipPath>
		<path clip-path="url(#SVGID_32_)" fill="#FFFFFF" d="M57.94,30.208c0.188,0.188,0.417,0.275,0.691,0.275
			c0.33,0,0.607-0.115,0.835-0.345c0.231-0.231,0.347-0.515,0.347-0.847c0-0.24-0.065-0.431-0.193-0.58
			c-0.132-0.148-0.302-0.225-0.509-0.225c-0.263,0-0.546,0.123-0.849,0.373L57.94,30.208z M57.852,30.572l-0.203,0.868
			c-0.045,0.197-0.069,0.367-0.069,0.511c0,0.094,0.024,0.18,0.071,0.252c-0.187,0.051-0.332,0.078-0.43,0.078
			c-0.153,0-0.229-0.072-0.229-0.222c0-0.113,0.029-0.3,0.091-0.562l0.813-3.44c-0.162,0.03-0.297,0.041-0.408,0.041
			c-0.161,0-0.278-0.03-0.357-0.095c-0.076-0.066-0.138-0.188-0.187-0.363c0.137,0.076,0.344,0.115,0.62,0.115
			c0.346,0,0.678-0.055,0.993-0.16l-0.214,0.906c0.318-0.258,0.645-0.387,0.982-0.387c0.296,0,0.544,0.096,0.739,0.283
			c0.198,0.189,0.297,0.423,0.297,0.703c0,0.443-0.183,0.818-0.546,1.139c-0.36,0.319-0.793,0.477-1.292,0.477
			C58.255,30.716,58.03,30.667,57.852,30.572"/>
	</g>
	<g>
		<defs>
			<rect id="SVGID_33_" x="0" width="116.387" height="32.281"/>
		</defs>
		<clipPath id="SVGID_34_">
			<use xlink:href="#SVGID_33_"  overflow="visible"/>
		</clipPath>
		<path clip-path="url(#SVGID_34_)" fill="#FFFFFF" d="M63.341,28.726c-0.389-0.212-0.717-0.32-0.976-0.32
			c-0.281,0-0.525,0.141-0.729,0.43c-0.206,0.287-0.308,0.627-0.308,1.021c0,0.315,0.122,0.474,0.368,0.474
			c0.267,0,0.777-0.49,1.528-1.473C63.236,28.845,63.273,28.8,63.341,28.726 M63.21,29.287c-0.238,0.416-0.532,0.766-0.882,1.055
			c-0.351,0.289-0.653,0.437-0.913,0.437c-0.196,0-0.355-0.073-0.472-0.221c-0.122-0.149-0.182-0.345-0.182-0.591
			c0-0.488,0.178-0.918,0.529-1.293c0.354-0.369,0.762-0.557,1.227-0.557c0.282,0,0.585,0.073,0.914,0.221
			c0.048-0.146,0.244-0.221,0.591-0.221c0.022,0,0.062,0.004,0.109,0.004c-0.104,0.137-0.188,0.321-0.241,0.559l-0.049,0.201
			c-0.054,0.22-0.08,0.481-0.08,0.775c0,0.344,0.094,0.514,0.283,0.514c0.2,0,0.477-0.139,0.826-0.424
			c0.347-0.281,0.689-0.641,1.025-1.076l0.219,0.127c-0.346,0.518-0.737,0.945-1.183,1.289c-0.439,0.348-0.82,0.519-1.14,0.519
			c-0.399,0-0.603-0.28-0.603-0.842C63.193,29.641,63.2,29.484,63.21,29.287"/>
	</g>
	<g>
		<defs>
			<rect id="SVGID_35_" x="0" width="116.387" height="32.281"/>
		</defs>
		<clipPath id="SVGID_36_">
			<use xlink:href="#SVGID_35_"  overflow="visible"/>
		</clipPath>
		<path clip-path="url(#SVGID_36_)" fill="#FFFFFF" d="M66.019,30.705c-0.125,0.047-0.228,0.071-0.305,0.071
			c-0.189,0-0.285-0.069-0.285-0.212c0-0.07,0.034-0.251,0.101-0.533l0.14-0.587c0.086-0.345,0.128-0.603,0.128-0.771
			c0-0.09-0.031-0.168-0.091-0.229c0.193-0.057,0.353-0.082,0.477-0.082c0.129,0,0.195,0.066,0.195,0.207
			c0,0.088-0.046,0.312-0.137,0.68l-0.159,0.68c0.35-0.571,0.706-1.016,1.062-1.336c0.355-0.316,0.679-0.477,0.969-0.477
			c0.102,0,0.189,0.022,0.267,0.071c0.074,0.052,0.108,0.11,0.108,0.181c0,0.109-0.141,0.256-0.425,0.436
			c-0.066-0.123-0.17-0.184-0.3-0.184c-0.235,0-0.536,0.211-0.901,0.631c-0.229,0.265-0.426,0.535-0.595,0.814
			c-0.165,0.275-0.249,0.477-0.249,0.598L66.019,30.705z"/>
	</g>
	<g>
		<defs>
			<rect id="SVGID_37_" x="0" width="116.387" height="32.281"/>
		</defs>
		<clipPath id="SVGID_38_">
			<use xlink:href="#SVGID_37_"  overflow="visible"/>
		</clipPath>
		<path clip-path="url(#SVGID_38_)" fill="#FFFFFF" d="M70.548,29.791c0.05,0.076,0.076,0.146,0.076,0.201
			c0,0.154-0.156,0.321-0.464,0.508c-0.31,0.188-0.589,0.277-0.841,0.277c-0.224,0-0.405-0.084-0.548-0.25
			c-0.14-0.169-0.209-0.385-0.209-0.646c0-0.295,0.091-0.715,0.273-1.258l0.129-0.394h-0.47c-0.197,0-0.354,0.024-0.474,0.069
			c0.108-0.162,0.199-0.266,0.268-0.309c0.072-0.043,0.191-0.061,0.36-0.061h0.424l0.054-0.165c0.087-0.242,0.189-0.408,0.309-0.497
			c0.119-0.09,0.299-0.135,0.535-0.135c0.028,0,0.073,0,0.135,0.004c-0.146,0.154-0.298,0.421-0.452,0.793h1.473
			c0.261,0,0.457-0.03,0.594-0.088c-0.047,0.162-0.107,0.266-0.185,0.314c-0.078,0.047-0.223,0.071-0.432,0.071h-1.569
			c-0.02,0.052-0.033,0.092-0.042,0.114c-0.226,0.646-0.336,1.133-0.336,1.461c0,0.361,0.153,0.541,0.465,0.541
			c0.16,0,0.334-0.055,0.521-0.168C70.333,30.064,70.466,29.935,70.548,29.791"/>
	</g>
	<g>
		<defs>
			<rect id="SVGID_39_" x="0" width="116.387" height="32.281"/>
		</defs>
		<clipPath id="SVGID_40_">
			<use xlink:href="#SVGID_39_"  overflow="visible"/>
		</clipPath>
		<path clip-path="url(#SVGID_40_)" fill="#FFFFFF" d="M71.53,29.518c0.391-0.019,0.722-0.11,1.001-0.281
			c0.278-0.169,0.416-0.364,0.416-0.589c0-0.199-0.104-0.3-0.316-0.3c-0.251,0-0.487,0.11-0.7,0.342
			C71.716,28.916,71.583,29.193,71.53,29.518 M71.508,29.742c0,0.459,0.229,0.686,0.688,0.686c0.402,0,0.845-0.157,1.326-0.479
			c0.481-0.32,0.914-0.74,1.306-1.264l0.233,0.111c-0.362,0.57-0.837,1.043-1.421,1.418c-0.581,0.377-1.137,0.562-1.659,0.562
			c-0.335,0-0.6-0.09-0.795-0.271c-0.192-0.18-0.291-0.428-0.291-0.742c0-0.454,0.176-0.844,0.528-1.164
			c0.352-0.321,0.778-0.48,1.276-0.48c0.238,0,0.43,0.047,0.574,0.152c0.145,0.102,0.219,0.234,0.219,0.406
			c0,0.279-0.2,0.527-0.604,0.744C72.49,29.634,72.028,29.742,71.508,29.742"/>
	</g>
	<g>
		<defs>
			<rect id="SVGID_41_" x="0" width="116.387" height="32.281"/>
		</defs>
		<clipPath id="SVGID_42_">
			<use xlink:href="#SVGID_41_"  overflow="visible"/>
		</clipPath>
		<path clip-path="url(#SVGID_42_)" fill="#FFFFFF" d="M78.037,28.632c-0.387-0.213-0.707-0.321-0.966-0.321
			c-0.278,0-0.521,0.144-0.725,0.431c-0.203,0.289-0.305,0.629-0.305,1.021c0,0.315,0.122,0.472,0.368,0.472
			c0.266,0,0.771-0.488,1.523-1.471C77.947,28.746,77.981,28.703,78.037,28.632 M77.891,29.251c-0.289,0.44-0.596,0.789-0.909,1.047
			c-0.319,0.258-0.602,0.385-0.854,0.385c-0.196,0-0.356-0.072-0.475-0.219c-0.117-0.146-0.176-0.342-0.176-0.59
			c0-0.49,0.173-0.926,0.524-1.295c0.35-0.373,0.758-0.558,1.221-0.558c0.275,0,0.579,0.075,0.908,0.22l0.299-1.258
			c-0.165,0.027-0.303,0.041-0.408,0.041c-0.166,0-0.284-0.031-0.36-0.098c-0.075-0.066-0.138-0.188-0.184-0.366
			c0.133,0.077,0.337,0.116,0.616,0.116c0.343,0,0.675-0.057,0.997-0.16l-0.609,2.568c-0.068,0.285-0.103,0.531-0.103,0.732
			c0,0.27,0.092,0.405,0.271,0.405c0.181,0,0.476-0.177,0.892-0.528c0.417-0.352,0.765-0.721,1.04-1.105l0.229,0.123
			c-0.33,0.509-0.743,0.967-1.241,1.367c-0.494,0.401-0.891,0.603-1.186,0.603c-0.377,0-0.565-0.252-0.565-0.759
			C77.82,29.712,77.845,29.492,77.891,29.251"/>
	</g>
	<g>
		<defs>
			<rect id="SVGID_43_" x="0" width="116.387" height="32.281"/>
		</defs>
		<clipPath id="SVGID_44_">
			<use xlink:href="#SVGID_43_"  overflow="visible"/>
		</clipPath>
		<path clip-path="url(#SVGID_44_)" fill="#FFFFFF" d="M80.623,29.423c0.389-0.018,0.722-0.111,1.001-0.28
			c0.276-0.169,0.416-0.366,0.416-0.589c0-0.2-0.105-0.301-0.316-0.301c-0.255,0-0.486,0.111-0.699,0.343
			C80.809,28.822,80.674,29.099,80.623,29.423 M80.601,29.648c0,0.459,0.229,0.686,0.694,0.686c0.398,0,0.841-0.158,1.323-0.479
			c0.48-0.319,0.916-0.739,1.302-1.263l0.235,0.109c-0.364,0.571-0.837,1.045-1.42,1.42c-0.585,0.375-1.137,0.562-1.66,0.562
			c-0.334,0-0.598-0.09-0.795-0.271c-0.192-0.181-0.294-0.429-0.294-0.744c0-0.453,0.179-0.842,0.532-1.162
			c0.353-0.321,0.776-0.481,1.272-0.481c0.242,0,0.435,0.048,0.576,0.153c0.146,0.1,0.217,0.234,0.217,0.406
			c0,0.277-0.198,0.527-0.6,0.742S81.122,29.648,80.601,29.648"/>
	</g>
	<g>
		<defs>
			<rect id="SVGID_45_" x="0" width="116.387" height="32.281"/>
		</defs>
		<clipPath id="SVGID_46_">
			<use xlink:href="#SVGID_45_"  overflow="visible"/>
		</clipPath>
		<path clip-path="url(#SVGID_46_)" fill="#FFFFFF" d="M86.238,29.8c0.673-1.184,1.265-1.776,1.777-1.776
			c0.228,0,0.339,0.134,0.339,0.408c0,0.116-0.051,0.378-0.146,0.79l-0.168,0.71c0.323-0.574,0.666-1.039,1.021-1.388
			c0.353-0.349,0.658-0.521,0.915-0.521c0.28,0,0.424,0.138,0.424,0.413c0,0.102-0.043,0.332-0.124,0.688l-0.089,0.367
			c-0.054,0.219-0.078,0.383-0.078,0.488c0,0.188,0.08,0.279,0.236,0.279c0.359,0,0.907-0.555,1.648-1.67l0.233,0.111
			c-0.809,1.319-1.513,1.979-2.115,1.979c-0.385,0-0.578-0.214-0.578-0.634c0-0.139,0.037-0.367,0.113-0.678l0.076-0.32
			c0.052-0.221,0.077-0.354,0.077-0.412c0-0.065-0.042-0.098-0.124-0.098c-0.197,0-0.56,0.334-1.078,1.004
			c-0.471,0.611-0.706,0.963-0.706,1.049c0,0.011,0.004,0.025,0.011,0.048c-0.025,0.007-0.07,0.017-0.136,0.032
			c-0.028,0.009-0.07,0.014-0.127,0.014c-0.173,0-0.261-0.07-0.261-0.212c0-0.039,0.028-0.168,0.084-0.382
			c0.021-0.075,0.042-0.157,0.062-0.244l0.117-0.495c0.087-0.36,0.128-0.573,0.128-0.646c0-0.105-0.044-0.154-0.138-0.154
			c-0.199,0-0.495,0.298-0.887,0.902c-0.391,0.601-0.583,0.957-0.583,1.076c0,0.03,0.018,0.062,0.044,0.094
			c-0.102,0.037-0.196,0.056-0.282,0.056c-0.192,0-0.289-0.087-0.289-0.263c0-0.021,0.028-0.248,0.086-0.683l0.063-0.498
			c0.02-0.176,0.032-0.337,0.032-0.485c0-0.188-0.045-0.326-0.138-0.414c0.216-0.064,0.368-0.096,0.459-0.096
			c0.161,0,0.244,0.082,0.244,0.242c0,0.057-0.021,0.271-0.067,0.645L86.238,29.8z"/>
	</g>
	<g>
		<defs>
			<rect id="SVGID_47_" x="0" width="116.387" height="32.281"/>
		</defs>
		<clipPath id="SVGID_48_">
			<use xlink:href="#SVGID_47_"  overflow="visible"/>
		</clipPath>
		<path clip-path="url(#SVGID_48_)" fill="#FFFFFF" d="M92.28,27.526l0.04,0.005c0.124-0.009,0.304-0.061,0.536-0.16
			c0.233-0.101,0.415-0.203,0.549-0.309c-0.083,0.214-0.227,0.395-0.437,0.541c-0.314,0.223-0.529,0.332-0.64,0.332
			c-0.074,0-0.112-0.038-0.112-0.114C92.217,27.712,92.238,27.612,92.28,27.526 M94.766,28.707
			c-0.422,0.621-0.847,1.103-1.275,1.453c-0.432,0.348-0.817,0.523-1.158,0.523c-0.21,0-0.379-0.059-0.504-0.172
			c-0.128-0.112-0.191-0.264-0.191-0.448c0-0.071,0.021-0.183,0.055-0.336l0.062-0.259c0.093-0.372,0.138-0.633,0.138-0.783
			c0-0.089-0.032-0.161-0.095-0.217c0.241-0.049,0.394-0.071,0.456-0.071c0.136,0,0.205,0.082,0.205,0.242
			c0,0.118-0.027,0.294-0.08,0.521l-0.109,0.455c-0.054,0.221-0.08,0.362-0.08,0.43c0,0.193,0.1,0.289,0.292,0.289
			c0.232,0,0.542-0.164,0.931-0.49c0.387-0.328,0.763-0.746,1.126-1.252L94.766,28.707z"/>
	</g>
	<g>
		<defs>
			<rect id="SVGID_49_" x="0" width="116.387" height="32.281"/>
		</defs>
		<clipPath id="SVGID_50_">
			<use xlink:href="#SVGID_49_"  overflow="visible"/>
		</clipPath>
		<path clip-path="url(#SVGID_50_)" fill="#FFFFFF" d="M96.719,30.687c0.042-0.137,0.062-0.256,0.062-0.354
			c0-0.387-0.098-0.815-0.293-1.281c-0.193-0.467-0.425-0.819-0.688-1.059c0.162-0.066,0.308-0.102,0.436-0.102
			c0.205,0,0.412,0.225,0.621,0.677c0.209,0.45,0.359,0.993,0.453,1.634c0.323-0.347,0.594-0.703,0.806-1.072
			c0.211-0.371,0.333-0.688,0.36-0.953c0.277,0.094,0.418,0.199,0.418,0.316c0,0.104-0.132,0.348-0.399,0.721
			c-0.269,0.377-0.559,0.732-0.871,1.064c-0.152,0.163-0.278,0.27-0.385,0.314C97.134,30.642,96.961,30.671,96.719,30.687"/>
	</g>
	<g>
		<defs>
			<rect id="SVGID_51_" x="0" width="116.387" height="32.281"/>
		</defs>
		<clipPath id="SVGID_52_">
			<use xlink:href="#SVGID_51_"  overflow="visible"/>
		</clipPath>
		<path clip-path="url(#SVGID_52_)" fill="#FFFFFF" d="M99.972,27.526l0.04,0.005c0.123-0.009,0.304-0.061,0.536-0.16
			c0.23-0.102,0.414-0.203,0.549-0.309c-0.08,0.214-0.228,0.395-0.437,0.541c-0.316,0.223-0.529,0.332-0.643,0.332
			c-0.075,0-0.111-0.038-0.111-0.114C99.906,27.712,99.929,27.612,99.972,27.526 M102.456,28.707
			c-0.421,0.621-0.847,1.103-1.275,1.453c-0.431,0.348-0.814,0.523-1.158,0.523c-0.21,0-0.377-0.059-0.505-0.172
			c-0.129-0.112-0.189-0.264-0.189-0.448c0-0.071,0.019-0.183,0.055-0.336l0.062-0.259c0.093-0.372,0.137-0.633,0.137-0.783
			c0-0.089-0.032-0.161-0.097-0.217c0.242-0.049,0.396-0.071,0.453-0.071c0.139,0,0.21,0.082,0.21,0.242
			c0,0.118-0.029,0.294-0.081,0.521l-0.111,0.455c-0.053,0.221-0.078,0.362-0.078,0.43c0,0.193,0.097,0.289,0.291,0.289
			c0.233,0,0.545-0.164,0.93-0.49c0.388-0.328,0.765-0.746,1.125-1.252L102.456,28.707z"/>
	</g>
	<g>
		<defs>
			<rect id="SVGID_53_" x="0" width="116.387" height="32.281"/>
		</defs>
		<clipPath id="SVGID_54_">
			<use xlink:href="#SVGID_53_"  overflow="visible"/>
		</clipPath>
		<path clip-path="url(#SVGID_54_)" fill="#FFFFFF" d="M104.188,28.632c-0.385-0.213-0.707-0.321-0.963-0.321
			c-0.281,0-0.521,0.144-0.727,0.431c-0.203,0.289-0.306,0.629-0.306,1.021c0,0.315,0.122,0.472,0.366,0.472
			c0.269,0,0.774-0.488,1.525-1.471C104.101,28.746,104.133,28.703,104.188,28.632 M104.04,29.251
			c-0.29,0.44-0.595,0.789-0.91,1.047c-0.317,0.258-0.602,0.385-0.851,0.385c-0.198,0-0.357-0.072-0.476-0.219
			c-0.116-0.146-0.178-0.342-0.178-0.59c0-0.49,0.178-0.926,0.527-1.295c0.351-0.373,0.758-0.558,1.221-0.558
			c0.273,0,0.579,0.075,0.906,0.22l0.299-1.258c-0.166,0.027-0.299,0.041-0.408,0.041c-0.164,0-0.282-0.031-0.359-0.098
			c-0.076-0.066-0.139-0.188-0.185-0.366c0.134,0.077,0.339,0.116,0.617,0.116c0.344,0,0.677-0.057,0.996-0.16l-0.61,2.568
			c-0.065,0.285-0.101,0.531-0.101,0.732c0,0.27,0.092,0.405,0.273,0.405c0.177,0,0.475-0.177,0.891-0.528
			c0.417-0.352,0.763-0.721,1.038-1.105l0.229,0.123c-0.33,0.509-0.743,0.967-1.239,1.367c-0.497,0.401-0.892,0.603-1.188,0.603
			c-0.379,0-0.565-0.252-0.565-0.759C103.97,29.712,103.995,29.492,104.04,29.251"/>
	</g>
	<g>
		<defs>
			<rect id="SVGID_55_" x="0" width="116.387" height="32.281"/>
		</defs>
		<clipPath id="SVGID_56_">
			<use xlink:href="#SVGID_55_"  overflow="visible"/>
		</clipPath>
		<path clip-path="url(#SVGID_56_)" fill="#FFFFFF" d="M108.714,28.632c-0.39-0.213-0.716-0.321-0.977-0.321
			c-0.28,0-0.523,0.142-0.729,0.431c-0.205,0.286-0.305,0.627-0.305,1.021c0,0.315,0.12,0.474,0.367,0.474
			c0.265,0,0.775-0.488,1.528-1.473C108.609,28.75,108.646,28.707,108.714,28.632 M108.583,29.192
			c-0.242,0.416-0.532,0.767-0.883,1.056c-0.35,0.289-0.652,0.437-0.912,0.437c-0.198,0-0.355-0.073-0.473-0.222
			c-0.121-0.148-0.179-0.344-0.179-0.59c0-0.488,0.177-0.92,0.528-1.293c0.354-0.371,0.762-0.557,1.226-0.557
			c0.282,0,0.586,0.072,0.916,0.221c0.048-0.146,0.245-0.221,0.591-0.221c0.021,0,0.058,0.004,0.11,0.004
			c-0.106,0.137-0.189,0.321-0.246,0.557l-0.046,0.203c-0.055,0.219-0.083,0.481-0.083,0.776c0,0.343,0.099,0.513,0.286,0.513
			c0.199,0,0.478-0.139,0.825-0.423c0.348-0.282,0.692-0.644,1.028-1.077l0.218,0.127c-0.348,0.516-0.737,0.945-1.181,1.289
			c-0.444,0.346-0.824,0.518-1.142,0.518c-0.404,0-0.605-0.278-0.605-0.842C108.564,29.546,108.569,29.39,108.583,29.192"/>
	</g>
	<g>
		<defs>
			<rect id="SVGID_57_" x="0" width="116.387" height="32.281"/>
		</defs>
		<clipPath id="SVGID_58_">
			<use xlink:href="#SVGID_57_"  overflow="visible"/>
		</clipPath>
		<path clip-path="url(#SVGID_58_)" fill="#FFFFFF" d="M112.845,27.212c0.125,0,0.209-0.049,0.209-0.154
			c0-0.094-0.075-0.15-0.182-0.15h-0.264v0.307h0.236V27.212z M112.446,26.771h0.446c0.252,0,0.332,0.154,0.332,0.264
			c0,0.166-0.115,0.282-0.287,0.291v0.008c0.09,0.028,0.152,0.115,0.234,0.25l0.122,0.197h-0.195l-0.089-0.158
			c-0.13-0.227-0.179-0.271-0.303-0.271h-0.099v0.432h-0.163L112.446,26.771L112.446,26.771z M112.856,26.479
			c-0.433,0-0.779,0.349-0.779,0.78c0,0.435,0.348,0.785,0.779,0.785c0.433,0,0.785-0.352,0.785-0.785
			C113.642,26.828,113.288,26.479,112.856,26.479 M112.856,28.203c-0.521,0-0.937-0.422-0.937-0.941s0.416-0.938,0.937-0.938
			s0.939,0.416,0.939,0.938S113.376,28.203,112.856,28.203"/>
	</g>
</g>
</svg>
