<?xml version="1.0" encoding="utf-8"?>
<!-- Generator: Adobe Illustrator 27.0.0, SVG Export Plug-In . SVG Version: 6.00 Build 0)  -->
<svg version="1.1" id="Layer_1" xmlns="http://www.w3.org/2000/svg" xmlns:xlink="http://www.w3.org/1999/xlink" x="0px" y="0px"
	 viewBox="0 0 108.8 96.4" style="enable-background:new 0 0 108.8 96.4;" xml:space="preserve">
<style type="text/css">
	.st0{fill:#FFE744;stroke:#27265F;}
</style>
<g id="Group_7797" transform="translate(100.271 88.318) rotate(180)">
	<path id="Path_11593" class="st0" d="M7.9,61C-7.1,46-7.1,21.6,8,6.6c7.2-7.2,17-11.2,27.1-11.2h23c10.2-0.1,20,4,27.1,11.2
		c1.7,1.7,3.2,3.5,4.5,5.4c11.9,17.4,7.7,41.1-9.6,53.3c2.2,5.4,5.3,10.4,9.2,14.8c0.7,0.8,0.6,1.9-0.1,2.6
		c-0.3,0.3-0.8,0.5-1.2,0.5c-11.5,0-22.6-3.9-31.6-11H35.2C25,72.3,15.1,68.3,7.9,61"/>
</g>
</svg>
