<?xml version="1.0" encoding="utf-8"?>
<!-- Generator: Adobe Illustrator 27.0.0, SVG Export Plug-In . SVG Version: 6.00 Build 0)  -->
<svg version="1.1" id="Layer_1" xmlns="http://www.w3.org/2000/svg" xmlns:xlink="http://www.w3.org/1999/xlink" x="0px" y="0px"
	 viewBox="0 0 102 99" style="enable-background:new 0 0 102 99;" xml:space="preserve">
<style type="text/css">
	.st0{fill:#50A5FF;stroke:#28255F;}
</style>
<g id="Group_7727" transform="translate(0.5 0.5)">
	<path id="Path_11593" class="st0" d="M87.1,28.19c14.35,14.38,14.32,37.68-0.06,52.02c-6.89,6.87-16.22,10.74-25.95,10.74H39.15
		c-9.73,0.05-19.07-3.82-25.9-10.74c-1.61-1.58-3.05-3.32-4.3-5.2c-11.39-16.61-7.31-39.3,9.16-50.89
		c-2.09-5.19-5.08-9.97-8.82-14.14C8.63,9.27,8.68,8.16,9.39,7.5c0.31-0.29,0.72-0.45,1.14-0.46c10.96,0,21.61,3.71,30.2,10.52
		h20.25C70.78,17.39,80.21,21.23,87.1,28.19"/>
</g>
</svg>
