<?xml version="1.0" encoding="utf-8"?>
<!-- Generator: Adobe Illustrator 27.0.0, SVG Export Plug-In . SVG Version: 6.00 Build 0)  -->
<svg version="1.1" id="Layer_1" xmlns="http://www.w3.org/2000/svg" xmlns:xlink="http://www.w3.org/1999/xlink" x="0px" y="0px"
	 viewBox="0 0 96 87" style="enable-background:new 0 0 96 87;" xml:space="preserve">
<style type="text/css">
	.st0{fill:#FFE744;stroke:#28255F;}
</style>
<g id="Group_7716" transform="translate(0.5 0.5)">
	<path id="Path_11593" class="st0" d="M14.3,57.8C2,45.5,2,25.5,14.3,13.2C20.2,7.4,28.2,4,36.6,4h18.8c8.3,0,16.3,3.3,22.2,9.2
		c1.4,1.4,2.6,2.9,3.7,4.5c9.8,14.2,6.3,33.7-7.8,43.6c1.8,4.5,4.3,8.5,7.6,12.1c0.6,0.6,0.5,1.6-0.1,2.1c-0.3,0.2-0.6,0.4-1,0.4
		c-9.4,0-18.5-3.2-25.9-9H36.7C28.3,67.1,20.2,63.8,14.3,57.8"/>
</g>
</svg>
