<?xml version="1.0" encoding="utf-8"?>
<!-- Generator: Adobe Illustrator 27.0.0, SVG Export Plug-In . SVG Version: 6.00 Build 0)  -->
<svg version="1.1" id="Layer_1" xmlns="http://www.w3.org/2000/svg" xmlns:xlink="http://www.w3.org/1999/xlink" x="0px" y="0px"
	 viewBox="0 0 268.68 240.59" style="enable-background:new 0 0 268.68 240.59;" xml:space="preserve">
<style type="text/css">
	.st0{fill:#FEEFE9;stroke:#27265F;}
</style>
<g id="Group_7716" transform="translate(0.5 0.5)">
	<path id="Path_11593" class="st0" d="M33.35,176.58c-39-39.09-38.93-102.4,0.17-141.4C52.24,16.5,77.6,6,104.05,5.98h59.63
		c26.44-0.14,51.82,10.38,70.39,29.2c4.38,4.29,8.3,9.03,11.68,14.14c30.95,45.15,19.85,106.8-24.9,138.32
		c5.69,14.11,13.81,27.11,23.98,38.42c1.78,1.94,1.65,4.96-0.3,6.74c-0.84,0.77-1.94,1.22-3.08,1.25
		c-29.8-0.02-58.71-10.09-82.07-28.59h-55.02C77.74,205.93,52.09,195.49,33.35,176.58"/>
</g>
</svg>
