<?xml version="1.0" encoding="utf-8"?>
<!-- Generator: Adobe Illustrator 27.0.0, SVG Export Plug-In . SVG Version: 6.00 Build 0)  -->
<svg version="1.1" id="Layer_1" xmlns="http://www.w3.org/2000/svg" xmlns:xlink="http://www.w3.org/1999/xlink" x="0px" y="0px"
	 viewBox="0 0 125.14 42.97" style="enable-background:new 0 0 125.14 42.97;" xml:space="preserve">
<style type="text/css">
	.st0{fill:#2C2B6C;}
	.st1{fill:#FFFFFF;}
	.st2{enable-background:new    ;}
</style>
<g id="Path_11908">
	<path class="st0" d="M109.9,35.58h-97c-4.96,0-9-3.55-9-7.92V12.5c0-4.37,4.04-7.92,9-7.92h97c4.96,0,9,3.55,9,7.92v15.16
		C118.9,32.03,114.86,35.58,109.9,35.58z"/>
	<path class="st1" d="M12.9,5.58c-4.41,0-8,3.1-8,6.92v15.16c0,3.82,3.59,6.92,8,6.92h97c4.41,0,8-3.1,8-6.92V12.5
		c0-3.82-3.59-6.92-8-6.92H12.9 M12.9,3.58h97c5.52,0,10,3.99,10,8.92v15.16c0,4.93-4.48,8.92-10,8.92h-97c-5.52,0-10-3.99-10-8.92
		V12.5C2.9,7.57,7.38,3.58,12.9,3.58z"/>
</g>
<g class="st2">
	<path class="st1" d="M28.65,18.42c-0.13-0.92-1.01-1.62-2.03-1.62c-1.83,0-2.52,1.56-2.52,3.18c0,1.55,0.69,3.11,2.52,3.11
		c1.25,0,1.95-0.86,2.11-2.08h1.98c-0.21,2.31-1.81,3.8-4.08,3.8c-2.87,0-4.56-2.14-4.56-4.82c0-2.76,1.69-4.9,4.56-4.9
		c2.04,0,3.76,1.2,4,3.34H28.65z"/>
	<path class="st1" d="M32.09,15.3h2.04v7.57h4.52v1.72h-6.57V15.3z"/>
	<path class="st1" d="M39.8,15.3h2.04v9.28H39.8V15.3z"/>
	<path class="st1" d="M49.83,18.42c-0.13-0.92-1.01-1.62-2.03-1.62c-1.83,0-2.52,1.56-2.52,3.18c0,1.55,0.69,3.11,2.52,3.11
		c1.25,0,1.95-0.86,2.11-2.08h1.98c-0.21,2.31-1.81,3.8-4.08,3.8c-2.87,0-4.56-2.14-4.56-4.82c0-2.76,1.69-4.9,4.56-4.9
		c2.04,0,3.76,1.2,4,3.34H49.83z"/>
	<path class="st1" d="M53.27,15.3h2.04v3.85l3.63-3.85h2.55l-3.63,3.67l3.98,5.62h-2.56l-2.79-4.17l-1.17,1.18v2.99h-2.04V15.3z"/>
	<path class="st1" d="M66.27,15.3h2.04v3.56h3.76V15.3h2.04v9.28h-2.04v-4h-3.76v4h-2.04V15.3z"/>
	<path class="st1" d="M75.9,15.3h6.94v1.72h-4.9V19h4.5v1.59h-4.5v2.28h5v1.72H75.9V15.3z"/>
	<path class="st1" d="M84.33,15.3h5c1.66,0,2.72,1.16,2.72,2.56c0,1.09-0.44,1.91-1.47,2.33v0.03c1,0.26,1.29,1.24,1.35,2.17
		c0.04,0.58,0.03,1.68,0.39,2.2h-2.04c-0.25-0.58-0.22-1.48-0.33-2.22c-0.14-0.98-0.52-1.4-1.55-1.4h-2.04v3.63h-2.04V15.3z
		 M86.37,19.5h2.24c0.91,0,1.4-0.39,1.4-1.33c0-0.9-0.49-1.29-1.4-1.29h-2.24V19.5z"/>
	<path class="st1" d="M93.71,15.3h6.94v1.72h-4.9V19h4.5v1.59h-4.5v2.28h5.01v1.72h-7.05V15.3z"/>
</g>
</svg>
