<?xml version="1.0" encoding="utf-8"?>
<!-- Generator: Adobe Illustrator 27.0.1, SVG Export Plug-In . SVG Version: 6.00 Build 0)  -->
<svg version="1.1" id="Layer_1" xmlns="http://www.w3.org/2000/svg" xmlns:xlink="http://www.w3.org/1999/xlink" x="0px" y="0px"
	 viewBox="0 0 597 63" style="enable-background:new 0 0 597 63;" xml:space="preserve">
<style type="text/css">
	.st0{fill:#FFFFFF;}
</style>
<g>
	<path class="st0" d="M2.8,16.1C4.3,17.7,6.7,19,9.6,19c2.5,0,3.7-1.2,3.7-2.4c0-1.6-1.9-2.1-4.3-2.7c-3.5-0.8-8-1.8-8-6.5
		c0-3.6,3.1-6.4,8.1-6.4c3.4,0,6.2,1,8.3,3l-2.5,3.3c-1.7-1.6-4-2.3-6.1-2.3c-2,0-3.1,0.9-3.1,2.2c0,1.4,1.8,1.9,4.3,2.5
		c3.5,0.8,8,1.9,8,6.6c0,3.9-2.8,6.8-8.5,6.8c-4.1,0-7-1.4-9.1-3.4L2.8,16.1z"/>
	<path class="st0" d="M28.1,6.8c3.2,0,5.1,1.4,6.1,2.8L31.6,12c-0.7-1.1-1.9-1.7-3.3-1.7c-2.5,0-4.2,1.8-4.2,4.5
		c0,2.7,1.7,4.5,4.2,4.5c1.4,0,2.5-0.6,3.3-1.7l2.7,2.5c-1,1.4-2.9,2.8-6.1,2.8c-4.8,0-8.2-3.4-8.2-8.1C19.9,10.1,23.4,6.8,28.1,6.8
		z"/>
	<path class="st0" d="M46.2,22.6V21c-1.1,1.2-2.9,2-4.9,2c-2.5,0-5.4-1.7-5.4-5.1c0-3.6,2.9-4.9,5.4-4.9c2,0,3.9,0.6,4.9,1.9v-2.1
		c0-1.6-1.3-2.6-3.4-2.6c-1.7,0-3.2,0.6-4.5,1.8l-1.5-2.7c1.9-1.7,4.3-2.4,6.8-2.4c3.5,0,6.8,1.4,6.8,5.9v10H46.2z M46.2,17
		c-0.7-0.9-2-1.3-3.3-1.3c-1.6,0-2.9,0.9-2.9,2.3c0,1.4,1.3,2.3,2.9,2.3c1.3,0,2.6-0.4,3.3-1.3V17z"/>
	<path class="st0" d="M64.7,22.6v-9.3c0-2.1-1.1-2.9-2.8-2.9c-1.6,0-2.8,0.9-3.5,1.8v10.4h-4.1V7.1h4.1v2c1-1.2,2.9-2.4,5.4-2.4
		c3.4,0,5,1.9,5,4.9v10.9H64.7z"/>
	<path class="st0" d="M94.6,22.6l-3.3-10.5L88,22.6h-4.4L79,7.1h4.2l2.9,10.4l3.4-10.4h3.6l3.4,10.4l2.9-10.4h4.2l-4.7,15.5H94.6z"
		/>
	<path class="st0" d="M105.2,2.4c0-1.3,1.1-2.4,2.4-2.4c1.3,0,2.4,1.1,2.4,2.4c0,1.3-1.1,2.4-2.4,2.4C106.3,4.9,105.2,3.8,105.2,2.4
		z M105.6,22.6V7.1h4.1v15.5H105.6z"/>
	<path class="st0" d="M114.5,18.8v-8.1h-2.6V7.1h2.6V2.9h4.1v4.2h3.1v3.6h-3.1v7c0,1,0.5,1.7,1.4,1.7c0.6,0,1.2-0.2,1.4-0.4l0.9,3.1
		c-0.6,0.5-1.7,1-3.4,1C116,23,114.5,21.5,114.5,18.8z"/>
	<path class="st0" d="M135,22.6v-9.4c0-2.1-1.1-2.8-2.9-2.8c-1.6,0-2.8,0.9-3.5,1.8v10.4h-4.1V1.3h4.1v7.9c1-1.2,2.9-2.4,5.4-2.4
		c3.4,0,5,1.9,5,4.9v11H135z"/>
	<path class="st0" d="M151.3,25c0.4,0.2,0.9,0.3,1.3,0.3c1.1,0,1.8-0.3,2.1-1.1l0.6-1.3L149,7.1h4.4l4,10.8l4-10.8h4.4l-7.3,18
		c-1.2,2.9-3.2,3.7-5.9,3.7c-0.5,0-1.5-0.1-2-0.2L151.3,25z"/>
	<path class="st0" d="M166.7,14.9c0-4.4,3.1-8.1,8.2-8.1c5.1,0,8.2,3.7,8.2,8.1c0,4.4-3.1,8.1-8.2,8.1
		C169.7,23,166.7,19.3,166.7,14.9z M178.8,14.9c0-2.4-1.4-4.5-4-4.5s-3.9,2.1-3.9,4.5c0,2.4,1.4,4.5,3.9,4.5S178.8,17.3,178.8,14.9z
		"/>
	<path class="st0" d="M196.5,22.6v-2c-1.1,1.2-2.9,2.3-5.4,2.3c-3.4,0-5-1.9-5-4.9v-11h4.1v9.4c0,2.1,1.1,2.8,2.8,2.8
		c1.6,0,2.8-0.9,3.5-1.8V7.1h4.1v15.5H196.5z"/>
	<path class="st0" d="M204.6,22.6V7.1h4.1v2.1c1.1-1.4,3-2.5,4.9-2.5v4c-0.3-0.1-0.7-0.1-1.1-0.1c-1.3,0-3.1,0.7-3.8,1.7v10.2H204.6
		z"/>
	<path class="st0" d="M228.3,28.5h-4.1V7.1h4.1v2c1.2-1.5,2.9-2.3,4.8-2.3c4,0,6.8,2.9,6.8,8.1c0,5.2-2.9,8.1-6.8,8.1
		c-1.8,0-3.5-0.8-4.8-2.4V28.5z M231.8,10.4c-1.3,0-2.8,0.8-3.5,1.8v5.5c0.7,1,2.2,1.8,3.5,1.8c2.3,0,3.9-1.8,3.9-4.5
		C235.7,12.2,234.2,10.4,231.8,10.4z"/>
	<path class="st0" d="M253.5,22.6v-9.4c0-2.1-1.1-2.8-2.9-2.8c-1.6,0-2.8,0.9-3.5,1.8v10.4H243V1.3h4.1v7.9c1-1.2,2.9-2.4,5.4-2.4
		c3.4,0,5,1.9,5,4.9v11H253.5z"/>
	<path class="st0" d="M260.6,14.9c0-4.4,3.1-8.1,8.2-8.1c5.1,0,8.2,3.7,8.2,8.1c0,4.4-3.1,8.1-8.2,8.1
		C263.6,23,260.6,19.3,260.6,14.9z M272.7,14.9c0-2.4-1.4-4.5-4-4.5c-2.5,0-3.9,2.1-3.9,4.5c0,2.4,1.4,4.5,3.9,4.5
		C271.3,19.4,272.7,17.3,272.7,14.9z"/>
	<path class="st0" d="M290.4,22.6v-9.3c0-2.1-1.1-2.9-2.8-2.9c-1.6,0-2.8,0.9-3.5,1.8v10.4h-4.1V7.1h4.1v2c1-1.2,2.9-2.4,5.4-2.4
		c3.4,0,5,1.9,5,4.9v10.9H290.4z"/>
	<path class="st0" d="M305.5,6.8c4.6,0,7.7,3.5,7.7,8.5v0.9h-11.5c0.3,2,1.8,3.6,4.4,3.6c1.4,0,3.1-0.6,4.1-1.5l1.8,2.6
		c-1.6,1.4-4,2.1-6.4,2.1c-4.7,0-8.3-3.2-8.3-8.1C297.5,10.4,300.8,6.8,305.5,6.8z M301.7,13.4h7.6c-0.1-1.5-1.1-3.4-3.8-3.4
		C302.9,10,301.8,11.9,301.7,13.4z"/>
	<path class="st0" d="M331.5,6.8c3.2,0,5.1,1.4,6.1,2.8L335,12c-0.7-1.1-1.9-1.7-3.3-1.7c-2.5,0-4.2,1.8-4.2,4.5
		c0,2.7,1.7,4.5,4.2,4.5c1.4,0,2.5-0.6,3.3-1.7l2.7,2.5c-1,1.4-2.9,2.8-6.1,2.8c-4.8,0-8.2-3.4-8.2-8.1
		C323.3,10.1,326.8,6.8,331.5,6.8z"/>
	<path class="st0" d="M349.6,22.6V21c-1.1,1.2-2.9,2-4.9,2c-2.5,0-5.4-1.7-5.4-5.1c0-3.6,2.9-4.9,5.4-4.9c2,0,3.9,0.6,4.9,1.9v-2.1
		c0-1.6-1.3-2.6-3.4-2.6c-1.7,0-3.2,0.6-4.5,1.8l-1.5-2.7c1.9-1.7,4.3-2.4,6.8-2.4c3.5,0,6.8,1.4,6.8,5.9v10H349.6z M349.6,17
		c-0.7-0.9-2-1.3-3.3-1.3c-1.6,0-2.9,0.9-2.9,2.3c0,1.4,1.3,2.3,2.9,2.3c1.3,0,2.6-0.4,3.3-1.3V17z"/>
	<path class="st0" d="M376.9,22.6v-9.8c0-1.4-0.6-2.5-2.3-2.5c-1.4,0-2.6,1-3.2,1.8v10.4h-4.1v-9.8c0-1.4-0.6-2.5-2.3-2.5
		c-1.4,0-2.6,1-3.2,1.8v10.4h-4.1V7.1h4.1v2c0.6-0.9,2.7-2.4,5.1-2.4c2.3,0,3.7,1.1,4.3,2.8c0.9-1.4,2.9-2.8,5.3-2.8
		c2.8,0,4.5,1.5,4.5,4.7v11.2H376.9z"/>
	<path class="st0" d="M392,6.8c4.6,0,7.7,3.5,7.7,8.5v0.9h-11.5c0.3,2,1.8,3.6,4.4,3.6c1.4,0,3.1-0.6,4.1-1.5l1.8,2.6
		c-1.6,1.4-4,2.1-6.4,2.1c-4.7,0-8.3-3.2-8.3-8.1C384,10.4,387.3,6.8,392,6.8z M388.1,13.4h7.6c-0.1-1.5-1.1-3.4-3.8-3.4
		C389.4,10,388.3,11.9,388.1,13.4z"/>
	<path class="st0" d="M402.6,22.6V7.1h4.1v2.1c1.1-1.4,3-2.5,4.9-2.5v4c-0.3-0.1-0.7-0.1-1.1-0.1c-1.3,0-3.1,0.7-3.8,1.7v10.2H402.6
		z"/>
	<path class="st0" d="M423.4,22.6V21c-1.1,1.2-2.9,2-4.9,2c-2.5,0-5.4-1.7-5.4-5.1c0-3.6,2.9-4.9,5.4-4.9c2,0,3.9,0.6,4.9,1.9v-2.1
		c0-1.6-1.3-2.6-3.4-2.6c-1.7,0-3.2,0.6-4.5,1.8L414,9.2c1.9-1.7,4.3-2.4,6.8-2.4c3.5,0,6.8,1.4,6.8,5.9v10H423.4z M423.4,17
		c-0.7-0.9-2-1.3-3.3-1.3c-1.6,0-2.9,0.9-2.9,2.3c0,1.4,1.3,2.3,2.9,2.3c1.3,0,2.6-0.4,3.3-1.3V17z"/>
	<path class="st0" d="M440.5,18.8v-8.1H438V7.1h2.6V2.9h4.1v4.2h3.1v3.6h-3.1v7c0,1,0.5,1.7,1.4,1.7c0.6,0,1.2-0.2,1.4-0.4l0.9,3.1
		c-0.6,0.5-1.7,1-3.4,1C442.1,23,440.5,21.5,440.5,18.8z"/>
	<path class="st0" d="M449.6,14.9c0-4.4,3.1-8.1,8.2-8.1c5.1,0,8.2,3.7,8.2,8.1c0,4.4-3.1,8.1-8.2,8.1
		C452.6,23,449.6,19.3,449.6,14.9z M461.7,14.9c0-2.4-1.4-4.5-4-4.5c-2.5,0-3.9,2.1-3.9,4.5c0,2.4,1.4,4.5,3.9,4.5
		C460.2,19.4,461.7,17.3,461.7,14.9z"/>
	<path class="st0" d="M487.7,22.6v-2c-1.2,1.5-2.9,2.3-4.8,2.3c-3.9,0-6.8-2.9-6.8-8.1c0-5.1,2.9-8.1,6.8-8.1c1.8,0,3.6,0.8,4.8,2.4
		V1.3h4.1v21.3H487.7z M487.7,12.1c-0.7-1-2.1-1.8-3.5-1.8c-2.3,0-3.9,1.8-3.9,4.5c0,2.7,1.6,4.5,3.9,4.5c1.4,0,2.8-0.7,3.5-1.8
		V12.1z"/>
	<path class="st0" d="M495.4,2.4c0-1.3,1.1-2.4,2.4-2.4c1.3,0,2.4,1.1,2.4,2.4c0,1.3-1.1,2.4-2.4,2.4C496.6,4.9,495.4,3.8,495.4,2.4
		z M495.9,22.6V7.1h4.1v15.5H495.9z"/>
	<path class="st0" d="M504.4,17.7c1.1,1.1,3.4,2.1,5.3,2.1c1.8,0,2.6-0.6,2.6-1.6c0-1.1-1.3-1.5-3.1-1.8c-2.7-0.5-6.1-1.2-6.1-4.8
		c0-2.6,2.3-4.9,6.3-4.9c2.6,0,4.7,0.9,6.2,2.1l-1.6,2.8c-0.9-1-2.7-1.8-4.6-1.8c-1.5,0-2.4,0.5-2.4,1.4c0,1,1.2,1.3,2.9,1.7
		c2.7,0.5,6.2,1.2,6.2,5.1c0,2.8-2.4,5-6.7,5c-2.7,0-5.3-0.9-6.9-2.4L504.4,17.7z"/>
	<path class="st0" d="M526.4,6.8c3.2,0,5.1,1.4,6.1,2.8l-2.7,2.5c-0.7-1.1-1.9-1.7-3.3-1.7c-2.5,0-4.2,1.8-4.2,4.5
		c0,2.7,1.7,4.5,4.2,4.5c1.4,0,2.5-0.6,3.3-1.7l2.7,2.5c-1,1.4-2.9,2.8-6.1,2.8c-4.8,0-8.2-3.4-8.2-8.1
		C518.2,10.1,521.6,6.8,526.4,6.8z"/>
	<path class="st0" d="M534.2,14.9c0-4.4,3.1-8.1,8.2-8.1c5.1,0,8.2,3.7,8.2,8.1c0,4.4-3.1,8.1-8.2,8.1
		C537.3,23,534.2,19.3,534.2,14.9z M546.3,14.9c0-2.4-1.4-4.5-4-4.5c-2.5,0-3.9,2.1-3.9,4.5c0,2.4,1.4,4.5,3.9,4.5
		C544.9,19.4,546.3,17.3,546.3,14.9z"/>
	<path class="st0" d="M557.6,22.6l-6.2-15.5h4.4l4,10.8l4-10.8h4.4l-6.2,15.5H557.6z"/>
	<path class="st0" d="M577,6.8c4.6,0,7.7,3.5,7.7,8.5v0.9h-11.5c0.3,2,1.8,3.6,4.4,3.6c1.4,0,3.1-0.6,4.1-1.5l1.8,2.6
		c-1.6,1.4-4,2.1-6.4,2.1c-4.7,0-8.3-3.2-8.3-8.1C569,10.4,572.3,6.8,577,6.8z M573.2,13.4h7.6c-0.1-1.5-1.1-3.4-3.8-3.4
		C574.4,10,573.4,11.9,573.2,13.4z"/>
	<path class="st0" d="M587.7,22.6V7.1h4.1v2.1c1.1-1.4,3-2.5,4.9-2.5v4c-0.3-0.1-0.7-0.1-1.1-0.1c-1.3,0-3.1,0.7-3.8,1.7v10.2H587.7
		z"/>
</g>
<g>
	<path class="st0" d="M20.9,62.6v-9.8c0-1.4-0.6-2.5-2.3-2.5c-1.4,0-2.6,1-3.2,1.8v10.4h-4.1v-9.8c0-1.4-0.6-2.5-2.3-2.5
		c-1.4,0-2.6,1-3.2,1.8v10.4H1.7V47.1h4.1v2c0.6-0.9,2.7-2.4,5.1-2.4c2.3,0,3.7,1.1,4.3,2.8c0.9-1.4,2.9-2.8,5.3-2.8
		c2.8,0,4.5,1.5,4.5,4.7v11.2H20.9z"/>
	<path class="st0" d="M28,54.9c0-4.4,3.1-8.1,8.2-8.1c5.1,0,8.2,3.7,8.2,8.1c0,4.4-3.1,8.1-8.2,8.1C31.1,63,28,59.3,28,54.9z
		 M40.1,54.9c0-2.4-1.4-4.5-4-4.5s-3.9,2.1-3.9,4.5c0,2.4,1.4,4.5,3.9,4.5S40.1,57.3,40.1,54.9z"/>
	<path class="st0" d="M47.4,62.6V47.1h4.1v2.1c1.1-1.4,3-2.5,4.9-2.5v4c-0.3-0.1-0.7-0.1-1.1-0.1c-1.3,0-3.1,0.7-3.8,1.7v10.2H47.4z
		"/>
	<path class="st0" d="M65.9,46.8c4.6,0,7.7,3.5,7.7,8.5v0.9H62.1c0.3,2,1.8,3.6,4.4,3.6c1.4,0,3.1-0.6,4.1-1.5l1.8,2.6
		c-1.6,1.4-4,2.1-6.4,2.1c-4.7,0-8.3-3.2-8.3-8.1C57.9,50.4,61.2,46.8,65.9,46.8z M62.1,53.4h7.6c-0.1-1.5-1.1-3.4-3.8-3.4
		C63.4,50,62.3,51.9,62.1,53.4z"/>
	<path class="st0" d="M83.8,54.9c0-4.4,3.1-8.1,8.2-8.1c5.1,0,8.2,3.7,8.2,8.1c0,4.4-3.1,8.1-8.2,8.1C86.8,63,83.8,59.3,83.8,54.9z
		 M95.9,54.9c0-2.4-1.4-4.5-4-4.5S88,52.5,88,54.9c0,2.4,1.4,4.5,3.9,4.5S95.9,57.3,95.9,54.9z"/>
	<path class="st0" d="M103.1,62.6V47.1h4.1v2.1c1.1-1.4,3-2.5,4.9-2.5v4c-0.3-0.1-0.7-0.1-1.1-0.1c-1.3,0-3.1,0.7-3.8,1.7v10.2
		H103.1z"/>
	<path class="st0" d="M126.8,62.6l-6.2-15.5h4.4l4,10.8l4-10.8h4.4l-6.2,15.5H126.8z"/>
	<path class="st0" d="M138.8,42.4c0-1.3,1.1-2.4,2.4-2.4c1.3,0,2.4,1.1,2.4,2.4c0,1.3-1.1,2.4-2.4,2.4
		C140,44.9,138.8,43.8,138.8,42.4z M139.3,62.6V47.1h4.1v15.5H139.3z"/>
	<path class="st0" d="M147.8,57.7c1.1,1.1,3.4,2.1,5.3,2.1c1.8,0,2.6-0.6,2.6-1.6c0-1.1-1.3-1.5-3.1-1.8c-2.7-0.5-6.1-1.2-6.1-4.8
		c0-2.6,2.3-4.9,6.3-4.9c2.6,0,4.7,0.9,6.2,2.1l-1.6,2.8c-0.9-1-2.7-1.8-4.6-1.8c-1.5,0-2.4,0.5-2.4,1.4c0,1,1.2,1.3,2.9,1.7
		c2.7,0.5,6.2,1.2,6.2,5.1c0,2.8-2.4,5-6.7,5c-2.7,0-5.3-0.9-6.9-2.4L147.8,57.7z"/>
	<path class="st0" d="M162.2,42.4c0-1.3,1.1-2.4,2.4-2.4c1.3,0,2.4,1.1,2.4,2.4c0,1.3-1.1,2.4-2.4,2.4
		C163.3,44.9,162.2,43.8,162.2,42.4z M162.6,62.6V47.1h4.1v15.5H162.6z"/>
	<path class="st0" d="M171.5,58.8v-8.1h-2.6v-3.6h2.6v-4.2h4.1v4.2h3.1v3.6h-3.1v7c0,1,0.5,1.7,1.4,1.7c0.6,0,1.2-0.2,1.4-0.4
		l0.9,3.1c-0.6,0.5-1.7,1-3.4,1C173,63,171.5,61.5,171.5,58.8z"/>
</g>
<g>
	<path class="st0" d="M189.4,62.6V41.3h13c4.4,0,6.3,2.9,6.3,5.4c0,2.7-1.6,4.4-3.6,4.9c2.3,0.4,4.1,2.5,4.1,5.2c0,3-2,5.8-6.3,5.8
		H189.4z M195.9,49.2h5c0.7,0,1.3-0.6,1.3-1.4c0-0.7-0.6-1.3-1.3-1.3h-5V49.2z M195.9,57.4h5.2c0.9,0,1.5-0.6,1.5-1.4
		c0-0.8-0.6-1.5-1.5-1.5h-5.2V57.4z"/>
	<path class="st0" d="M211.6,62.6V41.3h5.8v21.3H211.6z"/>
	<path class="st0" d="M229.5,62.6v-1.5c-0.9,1.1-2.8,1.9-4.7,1.9c-2.3,0-5.3-1.6-5.3-5.1c0-3.8,3-4.8,5.3-4.8c2,0,3.8,0.6,4.7,1.7
		v-1.8c0-1.1-1-1.9-2.9-1.9c-1.4,0-3.1,0.6-4.3,1.5l-2-3.6c2.1-1.7,5-2.3,7.3-2.3c3.8,0,7.6,1.3,7.6,6.5v9.3H229.5z M229.5,57.5
		c-0.4-0.5-1.4-0.8-2.3-0.8c-1,0-2,0.3-2,1.3c0,1,1.1,1.2,2,1.2c0.9,0,1.9-0.3,2.3-0.8V57.5z"/>
	<path class="st0" d="M248.6,62.6V61c-1.3,1.5-2.8,2-4.4,2c-3.7,0-6.8-2.8-6.8-8.1c0-5.1,3-8.1,6.8-8.1c1.6,0,3.1,0.5,4.4,2v-7.5
		h5.8v21.3H248.6z M248.6,52.9c-0.5-0.7-1.6-1-2.4-1c-1.6,0-2.9,1.1-2.9,3c0,1.9,1.3,3,2.9,3c0.8,0,1.9-0.4,2.4-1.1V52.9z"/>
	<path class="st0" d="M267.6,62.6V61c-1.3,1.5-2.8,2-4.4,2c-3.7,0-6.8-2.8-6.8-8.1c0-5.1,3-8.1,6.8-8.1c1.6,0,3.1,0.5,4.4,2v-7.5
		h5.8v21.3H267.6z M267.6,52.9c-0.5-0.7-1.6-1-2.4-1c-1.6,0-2.9,1.1-2.9,3c0,1.9,1.3,3,2.9,3c0.8,0,1.9-0.4,2.4-1.1V52.9z"/>
	<path class="st0" d="M284,46.8c4.5,0,8,3.3,8,8.7v1.2h-10.5c0.3,1,1.4,2,3.4,2c1.3,0,2.7-0.5,3.5-1.1l2.4,3.6
		c-1.5,1.3-4.3,1.9-6.6,1.9c-4.8,0-8.6-3-8.6-8.1C275.5,50.4,279,46.8,284,46.8z M281.4,53h5.1c-0.2-0.7-0.7-1.9-2.6-1.9
		C282.2,51.1,281.6,52.3,281.4,53z"/>
	<path class="st0" d="M294,62.6V47.1h5.8v1.8c1-1.1,3-2.1,4.7-2.1v5.5c-0.3-0.1-0.8-0.2-1.3-0.2c-1.2,0-2.8,0.3-3.4,1.1v9.4H294z"/>
	<path class="st0" d="M305.4,51.9c0-6.6,5.1-11,11.6-11c5.8,0,8.6,3.3,9.9,6.2l-5.6,2.6c-0.5-1.7-2.2-3.1-4.3-3.1
		c-2.9,0-5,2.4-5,5.3s2.1,5.3,5,5.3c2.1,0,3.7-1.4,4.3-3.1l5.6,2.6c-1.2,2.8-4.1,6.2-9.9,6.2C310.5,63,305.4,58.5,305.4,51.9z"/>
	<path class="st0" d="M327.7,54.9c0-4.3,3.2-8.1,8.7-8.1c5.5,0,8.7,3.8,8.7,8.1c0,4.3-3.2,8.1-8.7,8.1
		C330.9,63,327.7,59.2,327.7,54.9z M339.2,54.9c0-1.7-1-3-2.8-3c-1.8,0-2.8,1.3-2.8,3c0,1.7,1,3,2.8,3
		C338.2,57.9,339.2,56.6,339.2,54.9z"/>
	<path class="st0" d="M367,62.6v-9c0-0.9-0.5-1.7-1.8-1.7c-1.3,0-2,0.8-2.4,1.2v9.5h-5.8v-9c0-0.9-0.4-1.7-1.8-1.7
		c-1.2,0-2,0.8-2.3,1.2v9.5h-5.8V47.1h5.8v1.8c0.7-0.9,2.6-2.1,5.1-2.1c2.2,0,3.7,0.8,4.4,2.7c0.9-1.3,2.9-2.7,5.4-2.7
		c2.8,0,4.8,1.4,4.8,4.6v11.2H367z"/>
	<path class="st0" d="M375.9,62.6V41.3h5.8v7.5c1.2-1.5,2.8-2,4.4-2c3.8,0,6.8,3,6.8,8.1c0,5.3-3.1,8.1-6.8,8.1c-1.6,0-3-0.5-4.4-2
		v1.6H375.9z M381.7,56.9c0.5,0.7,1.6,1,2.4,1c1.6,0,2.9-1.1,2.9-3c0-1.9-1.3-3-2.9-3c-0.8,0-1.9,0.4-2.4,1.1V56.9z"/>
	<path class="st0" d="M393.9,54.9c0-4.3,3.2-8.1,8.7-8.1c5.5,0,8.7,3.8,8.7,8.1c0,4.3-3.2,8.1-8.7,8.1
		C397.1,63,393.9,59.2,393.9,54.9z M405.4,54.9c0-1.7-1-3-2.8-3c-1.8,0-2.8,1.3-2.8,3c0,1.7,1,3,2.8,3
		C404.4,57.9,405.4,56.6,405.4,54.9z"/>
	<path class="st0" d="M416.4,56.1c1.9,0,3.4,1.6,3.4,3.4s-1.6,3.4-3.4,3.4s-3.4-1.6-3.4-3.4S414.5,56.1,416.4,56.1z"/>
	<path class="st0" d="M430.1,46.8c3.5,0,5.7,1.6,6.6,2.9l-3.7,3.5c-0.5-0.7-1.4-1.3-2.6-1.3c-1.6,0-3,1-3,3c0,2,1.4,3,3,3
		c1.2,0,2.1-0.6,2.6-1.3l3.7,3.5c-0.9,1.3-3,2.9-6.6,2.9c-4.9,0-8.7-3.2-8.7-8.1C421.5,50,425.2,46.8,430.1,46.8z"/>
	<path class="st0" d="M437.5,54.9c0-4.3,3.2-8.1,8.7-8.1c5.5,0,8.7,3.8,8.7,8.1c0,4.3-3.2,8.1-8.7,8.1
		C440.7,63,437.5,59.2,437.5,54.9z M449,54.9c0-1.7-1-3-2.8-3c-1.8,0-2.8,1.3-2.8,3c0,1.7,1,3,2.8,3C448,57.9,449,56.6,449,54.9z"/>
	<path class="st0" d="M476.8,62.6v-9c0-0.9-0.5-1.7-1.8-1.7c-1.3,0-2,0.8-2.4,1.2v9.5h-5.8v-9c0-0.9-0.4-1.7-1.8-1.7
		c-1.2,0-2,0.8-2.3,1.2v9.5H457V47.1h5.8v1.8c0.7-0.9,2.6-2.1,5.1-2.1c2.2,0,3.7,0.8,4.4,2.7c0.9-1.3,2.9-2.7,5.4-2.7
		c2.8,0,4.8,1.4,4.8,4.6v11.2H476.8z"/>
</g>
</svg>
