<?xml version="1.0" encoding="utf-8"?>
<!-- Generator: Adobe Illustrator 27.2.0, SVG Export Plug-In . SVG Version: 6.00 Build 0)  -->
<svg version="1.1" id="Layer_1" xmlns="http://www.w3.org/2000/svg" xmlns:xlink="http://www.w3.org/1999/xlink" x="0px" y="0px"
	 viewBox="0 0 431 135" style="enable-background:new 0 0 431 135;" xml:space="preserve">
<style type="text/css">
	.st0{fill:#6CC04A;}
	.st1{fill:#7EA8AD;}
	.st2{fill:#0D2240;}
	.st3{fill:#808184;}
</style>
<polygon class="st0" points="50.9,10 35.9,10 12.4,34.8 12.4,10 0.4,10 0.4,65.8 12.4,65.8 12.4,49.6 19.3,42.6 36.9,65.8 
	51.5,65.8 27.5,34.3 "/>
<polygon class="st0" points="67.5,43.2 94.2,43.2 94.2,32.2 67.5,32.2 67.5,21 97.6,21 97.6,10 55.6,10 55.6,65.8 98,65.8 98,54.9 
	67.5,54.9 "/>
<polygon class="st0" points="154.5,21.3 171.4,21.3 171.4,65.9 183.4,65.9 183.4,21.3 200.3,21.3 200.3,10.1 154.5,10.1 "/>
<path class="st0" d="M253.7,28.3v-0.2c0-4.9-1.6-9.2-4.8-12.4c-3.8-3.7-9.4-5.7-16.3-5.7h-25v55.8h11.9V47.3h9.7l13.1,18.5h14.2
	l-14.8-20.8C249.4,42.3,253.7,36.4,253.7,28.3z M219.5,21.2h12.3c3.6,0,9.7,1,9.7,7.5v0.2c0,4.7-3.7,7.6-9.7,7.6h-12.4V21.2z"/>
<path class="st0" d="M297.9,42c0,8.7-4.3,13.5-12.1,13.5c-7.8,0-12.2-4.9-12.2-13.9V10.1h-11.9V42c0,15.5,9,24.7,24,24.7
	c15.4,0,24.2-9.2,24.2-25.2V10.1h-11.9V42z"/>
<path class="st0" d="M370.8,37.8c0-16.1-12.4-27.8-29.6-27.8h-21.1v55.8h21.1c17.1,0,29.6-11.7,29.6-27.9V37.8z M332,21.2h9.2
	c10.1,0,17.2,6.9,17.2,16.8v0.2c0,10-6.9,16.6-17.2,16.6H332V21.2z"/>
<path class="st0" d="M405.5,9.5h-10.4l-24.5,56.2h12.4l5.5-12.8H412l5.4,12.8h12.7L405.5,9.5z M407.4,42h-14.4l7.2-16.7L407.4,42z"
	/>
<g>
	<g>
		<polygon class="st1" points="117.4,19.1 117.4,36.9 113.7,32.7 113.7,23.3 		"/>
	</g>
	<g>
		<polygon class="st2" points="117.5,30.6 99.1,10.4 104.4,10.4 117.5,24.8 		"/>
	</g>
	<g>
		<polygon class="st1" points="117.4,50.6 117.4,64.7 113.7,60.5 113.7,54.7 		"/>
	</g>
	<g>
		<polygon class="st1" points="118.3,41.3 118.3,50.6 114.5,46.4 114.5,45.5 		"/>
	</g>
	<g>
		<polygon class="st0" points="133.9,29.9 152.2,9.8 146.9,9.8 133.9,24.1 		"/>
	</g>
	<polygon class="st0" points="125.4,33.7 125.4,20.1 116.7,10.5 106.5,-0.7 94.1,-0.7 116.7,24.1 116.7,66.4 125.4,73.4 	"/>
	<polygon class="st2" points="125.4,33.7 125.4,20.1 134.1,10.5 144.3,-0.7 156.7,-0.7 134.1,24.1 134.1,66.4 125.4,73.4 	"/>
</g>
<g>
	<path class="st0" d="M429.1,15.4c0,3.5-2.9,6.4-6.4,6.4c-3.5,0-6.4-2.9-6.4-6.4c0-3.6,3-6.4,6.4-6.4C426.1,9,429.1,11.8,429.1,15.4
		z M417.3,15.4c0,3,2.4,5.4,5.4,5.4c3,0,5.4-2.5,5.4-5.4c0-3-2.4-5.4-5.4-5.4C419.7,10,417.3,12.4,417.3,15.4z M420.3,11.8h2.5
		c0.8,0,2.5,0,2.5,1.9c0,1.3-0.8,1.6-1.4,1.8c1,0.1,1.1,0.7,1.2,1.6c0.1,0.6,0.2,1.6,0.4,1.9h-1.5c0-0.3-0.3-2.2-0.3-2.3
		c-0.1-0.4-0.2-0.6-0.7-0.6h-1.3V19h-1.4V11.8z M421.6,15h1.1c0.9,0,1.1-0.6,1.1-1c0-1-0.7-1-1.1-1h-1.2V15z"/>
</g>
<g>
	<path class="st3" d="M8,80.5c-1.9,8.2-3.5,16.6-3.5,25.2c0,8.6,1.4,17.3,3.5,25.6H5.4c-2.3-8-4.3-16.2-4.3-24.7
		c0-8.9,1.9-17.6,4.5-26H8z"/>
	<path class="st3" d="M13.5,97.9l0.1-0.1c1.7-2.8,4.3-4.1,6.4-4.1c8.3,0,8.4,8,8.4,11.8v6.6c0,7.6-2.4,12.1-9.1,12.1
		c-1.9,0-3.9-1-5.5-3.8l-0.1-0.1v14.4h-3.2V94.3h3V97.9z M13.6,111.6c0,6.7,2.7,9.9,5.6,9.9c5.2,0,6-4.8,6-12.5
		c0-7.6-0.8-12.4-6-12.4c-2,0-5.6,2.6-5.6,9.8V111.6z"/>
	<path class="st3" d="M35.9,109.7v2.3c0,4.1,1,9.5,6,9.5c3.9,0,5.9-2.8,5.8-6.7H51c-0.4,7.1-3.8,9.5-9.1,9.5c-4.6,0-9.1-2-9.1-10.9
		v-7.2c0-8.5,3.2-12.4,9.1-12.4c9.1,0,9.1,7.2,9.1,15.9H35.9z M47.9,106.9c0-6.5-0.9-10.4-6-10.4c-5,0-6,3.9-6,10.4H47.9z"/>
	<path class="st3" d="M58.3,123.6h-3.2V94.3H58v3.7h0.1c1.3-2.4,3.4-4.2,6.3-4.2c2.7,0,5.1,1.7,6,4.6c1.3-2.9,3.6-4.6,6.5-4.6
		c4.4,0,6.7,3.4,6.9,8.1v21.8h-3.2v-20.9c-0.1-2.9-1-6.1-4.1-6.1c-4,0-5.5,4.4-5.5,8.2v18.8h-3.2v-20.9c-0.1-2.9-1-6.1-4.1-6.1
		c-4,0-5.5,4.4-5.5,8.2V123.6z"/>
	<path class="st3" d="M88,123.6c0.2-1,0.3-1.9,0.3-2.9v-39h3.2v15.9l0.1,0.1c1.6-2.8,3.7-4,6.7-4c8.6,0,7.9,10,7.9,15.2
		c0,6.4-0.5,15.3-8.2,15.3c-3.1,0-5.4-1.4-6.7-4.1h-0.1v3.5H88z M97.1,121.4c5.8,0,6-5.5,6-12.4c0-6.8-0.2-12.5-6-12.5
		c-5.1,0-5.7,7.6-5.7,12C91.4,113.2,91.4,121.4,97.1,121.4z"/>
	<path class="st3" d="M113.7,98.3h0.1c1.3-2.8,4.1-4.5,7.3-4.5v3.5c-4.5-0.4-7.4,2.6-7.4,7.5v18.8h-3.2V94.3h3.2V98.3z"/>
	<path class="st3" d="M122.9,112.2v-6.3c0-7.6,2.9-12.1,9.1-12.1s9.1,4.5,9.1,12.1v6.3c0,7.6-2.9,12.1-9.1,12.1
		S122.9,119.7,122.9,112.2z M126.1,109c0,7.7,0.8,12.5,6,12.5s6-4.8,6-12.5c0-7.6-0.8-12.4-6-12.4S126.1,101.4,126.1,109z"/>
	<path class="st3" d="M145.4,123.6V81.8h3.2v41.9H145.4z"/>
	<path class="st3" d="M152.7,86.2v-4.4h3.9v4.4H152.7z M153.1,123.6V94.3h3.2v29.3H153.1z"/>
	<path class="st3" d="M160.5,120.8l11-23.7h-10.4v-2.8h13.6v2.9L164,120.9h11v2.8h-14.5V120.8z"/>
	<path class="st3" d="M195.9,94.3v29.3h-2.7v-3.2h-0.1c-1.8,2.5-3.7,3.8-6.7,3.8c-5.5,0-7-4.4-7-9.2V94.3h3.2v20.1
		c0,0.8-0.2,7,4.4,7c4.3,0,5.8-4.4,5.8-6.4V94.3H195.9z"/>
	<path class="st3" d="M203.7,123.6h-3.2V94.3h2.8v3.7h0.1c1.3-2.4,3.4-4.2,6.3-4.2c2.7,0,5.1,1.7,6,4.6c1.3-2.9,3.6-4.6,6.5-4.6
		c4.4,0,6.7,3.4,6.9,8.1v21.8h-3.2v-20.9c-0.1-2.9-1-6.1-4.1-6.1c-4,0-5.5,4.4-5.5,8.2v18.8h-3.2v-20.9c-0.1-2.9-1-6.1-4.1-6.1
		c-4,0-5.5,4.4-5.5,8.2V123.6z"/>
	<path class="st3" d="M248.5,120h-0.1c-1.7,2.8-4.3,4.2-7.5,4.2c-4.7,0-7.3-3.5-7.3-8.6c0-10.3,9.4-9.2,14.7-9.7v-2.4
		c0-4.3-1.2-6.9-5.4-6.9c-2.9,0-5.2,1.6-5.2,5h-3.4c0.3-5.6,4.2-7.8,8.8-7.8c2.7,0,8.2,0.3,8.2,7.8v14.7c0,2.1,0,3.9,0.3,7.4h-3.3
		V120z M248.3,108.7c-4.5,0.2-11.3-0.4-11.3,6.7c0,3.3,1.5,6,4.8,6c3.6,0,6.6-3.6,6.6-7.4V108.7z"/>
	<path class="st3" d="M256,123.6c0.2-1,0.3-1.9,0.3-2.9v-39h3.2v15.9l0.1,0.1c1.6-2.8,3.7-4,6.7-4c8.6,0,7.9,10,7.9,15.2
		c0,6.4-0.5,15.3-8.2,15.3c-3.1,0-5.4-1.4-6.7-4.1h-0.1v3.5H256z M265,121.4c5.8,0,6-5.5,6-12.4c0-6.8-0.2-12.5-6-12.5
		c-5.1,0-5.7,7.6-5.7,12C259.3,113.2,259.3,121.4,265,121.4z"/>
	<path class="st3" d="M277.9,80.5c2.6,8.4,4.5,17.1,4.5,26c0,8.5-2,16.7-4.3,24.7h-2.6c2.2-8.3,3.5-16.9,3.5-25.6
		c0-8.5-1.6-16.9-3.5-25.2H277.9z"/>
</g>
<g>
	<path class="st3" d="M291.7,102.6v20.9H290v-20.9H291.7z"/>
	<path class="st3" d="M296.3,123.6h-1.6v-14.6h1.6v1.8h0.1c0.8-1.2,1.8-2.1,3.2-2.1c3.3,0,3.6,2.7,3.6,4.6v10.3h-1.6v-10.2
		c0-1.7-0.6-3.3-2.4-3.3c-1.4,0-2.9,1.1-2.9,4.4V123.6z"/>
	<path class="st3" d="M307.9,108.9v17.3c0,1.1-0.3,3-2.6,3c-0.6,0-1-0.1-1.2-0.1v-1.5c1.9,0.1,2.2-0.4,2.2-2.3v-16.4H307.9z
		 M306.1,104.8v-2.2h1.9v2.2H306.1z"/>
	<path class="st3" d="M312.5,116.6v1.1c0,2,0.5,4.7,3,4.7c2,0,2.9-1.4,2.9-3.4h1.7c-0.2,3.5-1.9,4.8-4.6,4.8c-2.3,0-4.6-1-4.6-5.5
		v-3.6c0-4.2,1.6-6.2,4.6-6.2c4.6,0,4.6,3.6,4.6,8H312.5z M318.5,115.2c0-3.2-0.5-5.2-3-5.2c-2.5,0-3,1.9-3,5.2H318.5z"/>
	<path class="st3" d="M328,113.1c0.1-1.8-0.5-3.1-2.3-3.1c-1,0-1.8,0.6-2.1,1.7c-0.2,0.7-0.4,2.7-0.4,4.6c0,2.6,0,6.1,2.4,6.1
		c2.1,0,2.3-1.5,2.4-3.2h1.6c0.1,3.9-2.4,4.6-3.6,4.6c-4.5,0-4.5-3.9-4.5-7.5c0-1.5,0.1-3.7,0.4-4.8c0.7-2.1,2.2-2.8,4-2.8
		c2.3,0,3.8,1.4,3.7,4.5H328z"/>
	<path class="st3" d="M330.9,110.3v-1.4h2.1v-3l1.6-0.8v3.8h2.7v1.4h-2.7v9.4c0,1.9,0.2,2.4,1.4,2.4c0.5,0,0.9,0,1.2-0.1v1.5
		c-0.5,0.1-1,0.1-1.5,0.1c-2.1,0-2.8-1-2.8-2.8v-10.5H330.9z"/>
	<path class="st3" d="M338.7,104.8v-2.2h1.9v2.2H338.7z M338.9,123.6v-14.6h1.6v14.6H338.9z"/>
	<path class="st3" d="M342.5,117.8v-3.2c0-3.8,1.5-6,4.6-6c3.1,0,4.6,2.2,4.6,6v3.2c0,3.8-1.5,6-4.6,6
		C344,123.9,342.5,121.6,342.5,117.8z M344.1,116.2c0,3.8,0.4,6.2,3,6.2c2.6,0,3-2.4,3-6.2c0-3.8-0.4-6.2-3-6.2
		C344.5,110,344.1,112.4,344.1,116.2z"/>
	<path class="st3" d="M354.8,123.6h-1.6v-14.6h1.6v1.8h0.1c0.8-1.2,1.8-2.1,3.2-2.1c3.3,0,3.6,2.7,3.6,4.6v10.3h-1.6v-10.2
		c0-1.7-0.6-3.3-2.4-3.3c-1.4,0-2.9,1.1-2.9,4.4V123.6z"/>
	<path class="st3" d="M368.8,106.5c1.2-0.9,2.4-1.9,3.3-3.2h1.5v20.2H372v-17.9c-1,1-2,2-3.2,2.8V106.5z"/>
	<path class="st3" d="M387.3,111.3v4.4c0,3.8,0,8.2-4.7,8.2s-4.7-4.4-4.7-8.2v-4.4c0-3.8,0-8.2,4.7-8.2S387.3,107.5,387.3,111.3z
		 M379.7,117.4c0,4.6,1.8,4.9,3,4.9c1.2,0,3-0.3,3-4.9v-7.9c0-4.6-1.8-4.9-3-4.9c-1.2,0-3,0.3-3,4.9V117.4z"/>
	<path class="st3" d="M399.4,111.3v4.4c0,3.8,0,8.2-4.7,8.2c-4.7,0-4.7-4.4-4.7-8.2v-4.4c0-3.8,0-8.2,4.7-8.2
		C399.4,103,399.4,107.5,399.4,111.3z M391.7,117.4c0,4.6,1.8,4.9,3,4.9c1.2,0,3-0.3,3-4.9v-7.9c0-4.6-1.8-4.9-3-4.9
		c-1.2,0-3,0.3-3,4.9V117.4z"/>
	<path class="st3" d="M406.9,123.6h-1.6v-14.7h1.4v1.8h0.1c0.6-1.2,1.7-2.1,3.2-2.1c1.4,0,2.6,0.8,3,2.3c0.7-1.5,1.8-2.3,3.3-2.3
		c2.2,0,3.4,1.7,3.4,4v10.9h-1.6v-10.5c0-1.5-0.5-3.1-2-3.1c-2,0-2.8,2.2-2.8,4.1v9.4h-1.6v-10.5c0-1.5-0.5-3.1-2-3.1
		c-2,0-2.8,2.2-2.8,4.1V123.6z"/>
	<path class="st3" d="M429,108.9h1.5c-0.1,1.4-0.1,2.1-0.1,2.9v12.3c0,3.2-0.9,5.1-4.7,5.1c-3.3,0-4-2.6-3.9-4.1h1.6
		c-0.1,1.7,1,2.7,2.5,2.7c3.1,0,2.9-1.8,2.9-6.2h-0.1c-0.7,1.2-1.9,1.8-3.2,1.8c-3.8,0-4.1-3.6-4.1-6.9c0-3.4,0-3.4,0.4-5
		c0.1-0.6,1-2.9,3.7-2.9c1.3,0,2.7,0.8,3.3,2.1l0.1,0.1V108.9z M423.1,115.9c0,3,0,6.1,2.9,6.1c1.3,0,2.2-1,2.4-1.7
		c0.4-1.1,0.5-1.8,0.5-6.1c0-3.1-1.5-4.2-3-4.2C423.2,110,423.1,113.7,423.1,115.9z"/>
</g>
</svg>
